<?xml version="1.0" encoding="utf-8"?>
<!-- Generator: Adobe Illustrator 27.0.1, SVG Export Plug-In . SVG Version: 6.00 Build 0)  -->
<svg version="1.1" id="Layer_1" xmlns="http://www.w3.org/2000/svg" xmlns:xlink="http://www.w3.org/1999/xlink" x="0px" y="0px"
	 viewBox="0 0 315.14 369.51" style="enable-background:new 0 0 315.14 369.51;" xml:space="preserve">
<style type="text/css">
	.st0{fill:#0A2B17;}
	.st1{fill:#0E8042;}
	.st2{fill:#FFFFFF;}
	.st3{fill:#1A3826;}
	.st4{fill:#3D1947;}
	.st5{fill:#ECA45C;}
	.st6{fill:#D53D3D;}
	.st7{clip-path:url(#SVGID_00000058574087322289041260000011764757211500719777_);}
	.st8{fill:#802420;}
	.st9{fill:#8C5443;}
	.st10{fill:#3C1948;}
	.st11{fill:none;stroke:#3C1948;stroke-linecap:round;stroke-linejoin:round;stroke-miterlimit:10;}
	.st12{clip-path:url(#SVGID_00000045621062930708719570000002072219922877812907_);}
	.st13{fill:#802421;}
	.st14{opacity:0.29;fill:#92C9E0;}
	.st15{clip-path:url(#SVGID_00000065778869151202039320000012252808448366890662_);fill:#FFFFFF;}
	.st16{clip-path:url(#SVGID_00000065778869151202039320000012252808448366890662_);fill:#D9807E;}
	.st17{opacity:0.29;fill:#92C9E0;stroke:#FFFFFF;stroke-width:5;stroke-miterlimit:10;}
	.st18{opacity:0.29;fill:#92C9E0;stroke:#FFFFFF;stroke-miterlimit:10;}
	.st19{opacity:0.29;fill:#92C9E0;stroke:#FFFFFF;stroke-width:3;stroke-miterlimit:10;}
	.st20{fill:#934F3E;}
	.st21{clip-path:url(#SVGID_00000052099410738667043610000004204928447319765426_);fill:#41164A;}
	.st22{clip-path:url(#SVGID_00000058551413698666991740000015962848761961720483_);fill:#41164A;}
	.st23{clip-path:url(#SVGID_00000118364462895282444420000004229433047738213011_);fill:#FFFFFF;}
	.st24{clip-path:url(#SVGID_00000118364462895282444420000004229433047738213011_);fill:#41164A;}
	.st25{fill:#41164A;}
	.st26{clip-path:url(#SVGID_00000135657268779743841610000005514409482685709696_);fill:#FFFFFF;}
	.st27{clip-path:url(#SVGID_00000135657268779743841610000005514409482685709696_);fill:#E47D7A;}
	.st28{fill:none;}
	.st29{fill:#E09F9E;}
	.st30{fill:#CB8080;}
	.st31{clip-path:url(#SVGID_00000145051654988825293320000009637303931526520503_);fill:#E09F9E;}
	.st32{fill:#3C1947;}
	.st33{fill:#EAC5B1;}
	.st34{clip-path:url(#SVGID_00000065054015344628075740000009752688810149998993_);fill:#CB8080;}
	.st35{fill:#0B8043;}
	.st36{fill:#DBDBDA;}
	.st37{clip-path:url(#SVGID_00000065791563892421112650000010745031699859467668_);fill:#C2C1C1;}
	.st38{clip-path:url(#SVGID_00000016785883762388193560000007730775129440160901_);fill:#C2C1C1;}
	.st39{clip-path:url(#SVGID_00000069385696895586347320000013175166649068962489_);}
	.st40{fill:#C2C1C1;}
	.st41{clip-path:url(#SVGID_00000092417461978452556000000011232360501656566449_);fill:#C2C1C1;}
	.st42{clip-path:url(#SVGID_00000118368429079085621580000013830485081269927615_);fill:#C2C1C1;}
	.st43{clip-path:url(#SVGID_00000106138316086964748430000012095844084116778161_);fill:#0B8043;}
	.st44{clip-path:url(#SVGID_00000134971156286814255250000009780065662183812775_);fill:#0B8043;}
	.st45{fill:#A55933;}
	.st46{fill:#803C26;}
	.st47{fill:#C64B45;}
	.st48{fill:#8B3A37;}
	.st49{clip-path:url(#SVGID_00000085933367790472739890000008933222350878558631_);}
	.st50{clip-path:url(#SVGID_00000058558033196678491780000007550775458737520575_);}
	.st51{clip-path:url(#SVGID_00000138539485804919585560000013513945087193116549_);}
	.st52{clip-path:url(#SVGID_00000166655292142693278930000009356457799524403893_);}
	.st53{clip-path:url(#SVGID_00000075865029947351542190000012942872546149325204_);}
	.st54{clip-path:url(#SVGID_00000100353082420587527920000010785824378328085165_);}
	.st55{clip-path:url(#SVGID_00000132048578833915439240000007965229178956904606_);fill:#41164A;}
	.st56{clip-path:url(#SVGID_00000164515020903894169660000017076567141039906701_);fill:#41164A;}
	.st57{clip-path:url(#SVGID_00000014636054313902295280000010213618020158782861_);fill:#FFFFFF;}
	.st58{clip-path:url(#SVGID_00000014636054313902295280000010213618020158782861_);fill:#41164A;}
	.st59{clip-path:url(#SVGID_00000074436590285133777330000003382761544617741202_);fill:#FFFFFF;}
	.st60{clip-path:url(#SVGID_00000074436590285133777330000003382761544617741202_);fill:#E47D7A;}
	.st61{fill:#C28F5D;}
	.st62{fill:#375A42;}
	.st63{clip-path:url(#SVGID_00000132068114532336455080000001785054680283163538_);fill:#6AA17A;}
	.st64{clip-path:url(#SVGID_00000088104079276446494160000016531469346184990614_);fill:#6AA17A;}
	.st65{fill:#6AA17A;}
	.st66{clip-path:url(#SVGID_00000160167376414621194040000004173880699505671078_);fill:#3D1947;}
	.st67{clip-path:url(#SVGID_00000006683554721406532240000007850337328928959379_);fill:#8B3A37;}
	.st68{clip-path:url(#SVGID_00000161610281678232724310000017814523299898245780_);}
	.st69{clip-path:url(#SVGID_00000170997171880371459700000001111103965044929983_);fill:#FFFFFF;}
	.st70{clip-path:url(#SVGID_00000170997171880371459700000001111103965044929983_);fill:#D9807E;}
	.st71{clip-path:url(#SVGID_00000145758788281403748650000000940545279729214848_);fill:#41164A;}
	.st72{clip-path:url(#SVGID_00000051369636643924762720000004692866517321413807_);fill:#41164A;}
	.st73{clip-path:url(#SVGID_00000062191634497520291750000015879086744154442644_);fill:#FFFFFF;}
	.st74{clip-path:url(#SVGID_00000062191634497520291750000015879086744154442644_);fill:#41164A;}
	.st75{clip-path:url(#SVGID_00000011024467827715088340000013569998815990038191_);fill:#FFFFFF;}
	.st76{clip-path:url(#SVGID_00000011024467827715088340000013569998815990038191_);fill:#E47D7A;}
	.st77{fill:#D2687C;}
	.st78{clip-path:url(#SVGID_00000112607674441226085090000016746229324772128643_);fill:#C64B45;}
	.st79{fill:#D1544C;}
	.st80{clip-path:url(#SVGID_00000155125523850862242920000000617463307485075370_);}
	.st81{clip-path:url(#SVGID_00000080926784157623039070000004170892084494717371_);}
	.st82{fill:#DADAD9;}
	.st83{clip-path:url(#SVGID_00000111891308606034014100000015036255346501388716_);fill:#0E8042;}
	.st84{clip-path:url(#SVGID_00000111891308606034014100000015036255346501388716_);fill:#1A3826;}
	.st85{clip-path:url(#SVGID_00000123426203456464521580000017855644504495266193_);fill:#0E8042;}
	.st86{clip-path:url(#SVGID_00000123426203456464521580000017855644504495266193_);fill:#1A3826;}
	.st87{fill:none;stroke:#0E8042;stroke-linecap:round;stroke-linejoin:round;stroke-miterlimit:10;}
	.st88{clip-path:url(#SVGID_00000112597362488004486210000000371952801208618124_);}
	.st89{clip-path:url(#SVGID_00000030485511115601763030000012118914574501370815_);fill:#0E8042;}
	.st90{clip-path:url(#SVGID_00000042731401450994605090000001870065775521380003_);fill:#0E8042;}
	.st91{clip-path:url(#SVGID_00000042731401450994605090000001870065775521380003_);fill:#1A3826;}
	.st92{clip-path:url(#SVGID_00000049938871600884873910000012791451008723388059_);fill:#0E8042;}
	.st93{clip-path:url(#SVGID_00000049938871600884873910000012791451008723388059_);fill:#1A3826;}
	.st94{clip-path:url(#SVGID_00000067950713787818735440000007532886274321128855_);fill:#0E8042;}
	.st95{clip-path:url(#SVGID_00000067950713787818735440000007532886274321128855_);fill:#1A3826;}
	.st96{clip-path:url(#SVGID_00000041291412060768767650000010590488595015718329_);fill:#0E8042;}
	.st97{clip-path:url(#SVGID_00000041291412060768767650000010590488595015718329_);fill:#1A3826;}
	.st98{clip-path:url(#SVGID_00000134958707308260840870000001018317153256063108_);}
	.st99{clip-path:url(#SVGID_00000060017316109219833100000008040032556973683624_);fill:#0E8042;}
	.st100{clip-path:url(#SVGID_00000060017316109219833100000008040032556973683624_);fill:#1A3826;}
	.st101{clip-path:url(#SVGID_00000130627683537769081580000011700509775875167644_);}
	.st102{clip-path:url(#SVGID_00000098930114848357964940000012470177773985911452_);fill:#FFFFFF;}
	.st103{clip-path:url(#SVGID_00000098930114848357964940000012470177773985911452_);fill:#D9807E;}
	.st104{clip-path:url(#SVGID_00000039121132260521245700000005017606675832556692_);fill:#41164A;}
	.st105{clip-path:url(#SVGID_00000019659532479211365210000014203050184589260210_);fill:#41164A;}
	.st106{clip-path:url(#SVGID_00000009578638790976310210000015664031614513518745_);fill:#FFFFFF;}
	.st107{clip-path:url(#SVGID_00000009578638790976310210000015664031614513518745_);fill:#41164A;}
	.st108{clip-path:url(#SVGID_00000002359937839297923780000004690804282314339746_);fill:#FFFFFF;}
	.st109{clip-path:url(#SVGID_00000002359937839297923780000004690804282314339746_);fill:#E47D7A;}
	.st110{clip-path:url(#SVGID_00000017514577407530415030000000021805944400819093_);fill:#E09F9E;}
	.st111{clip-path:url(#SVGID_00000180328357453018045460000003285457558047228827_);fill:#CB8080;}
	.st112{clip-path:url(#SVGID_00000139980370037209105050000015695244061691811974_);fill:#C2C1C1;}
	.st113{clip-path:url(#SVGID_00000075136782456249249280000014674389495532356767_);fill:#C2C1C1;}
	.st114{clip-path:url(#SVGID_00000048468237935427260240000016746259824244415668_);}
	.st115{clip-path:url(#SVGID_00000003067238849911104790000018373507474285780637_);fill:#C2C1C1;}
	.st116{clip-path:url(#SVGID_00000073717702606495405690000011991320709278105504_);fill:#C2C1C1;}
	.st117{clip-path:url(#SVGID_00000116203467084547575550000001980161922173473199_);fill:#0B8043;}
	.st118{clip-path:url(#SVGID_00000145743969155255781700000000374484230969700767_);fill:#0B8043;}
	.st119{clip-path:url(#SVGID_00000069383187766270423060000014234758557545419698_);}
	.st120{clip-path:url(#SVGID_00000022555840671291583470000007711842952426202046_);}
	.st121{clip-path:url(#SVGID_00000135657026236755298710000016921577792358945159_);}
	.st122{clip-path:url(#SVGID_00000009548861586753789350000001104248650281925819_);}
	.st123{clip-path:url(#SVGID_00000134963419071903096150000003175734577068476348_);}
	.st124{clip-path:url(#SVGID_00000067211422894755934760000009679055745269337755_);}
	.st125{clip-path:url(#SVGID_00000084503403409372571540000013475327360686992558_);fill:#0E8042;}
	.st126{clip-path:url(#SVGID_00000084503403409372571540000013475327360686992558_);fill:#1A3826;}
	.st127{clip-path:url(#SVGID_00000036945333061074212880000011354092372719160226_);}
	.st128{clip-path:url(#SVGID_00000039826309777910844290000012526415089206297729_);fill:#FFFFFF;}
	.st129{clip-path:url(#SVGID_00000039826309777910844290000012526415089206297729_);fill:#D9807E;}
	.st130{clip-path:url(#SVGID_00000000206389927988851510000011051071298329390498_);fill:#41164A;}
	.st131{clip-path:url(#SVGID_00000128464693379900594160000013003817690306472633_);fill:#41164A;}
	.st132{clip-path:url(#SVGID_00000146495196446164214940000002272526719677464216_);fill:#FFFFFF;}
	.st133{clip-path:url(#SVGID_00000146495196446164214940000002272526719677464216_);fill:#41164A;}
	.st134{clip-path:url(#SVGID_00000035501457671587292190000005048664441224498324_);fill:#FFFFFF;}
	.st135{clip-path:url(#SVGID_00000035501457671587292190000005048664441224498324_);fill:#E47D7A;}
	.st136{clip-path:url(#SVGID_00000134247626107056008580000018235829907318405027_);fill:#C64B45;}
	.st137{clip-path:url(#SVGID_00000072248070011267447280000000064020123143539646_);}
	.st138{clip-path:url(#SVGID_00000150076921585623998600000005606439520645357226_);}
	.st139{clip-path:url(#SVGID_00000066502684990678592750000009338586321426147733_);fill:#0E8042;}
	.st140{clip-path:url(#SVGID_00000066502684990678592750000009338586321426147733_);fill:#1A3826;}
	.st141{clip-path:url(#SVGID_00000060024309866177716720000003944465924669500053_);fill:#0E8042;}
	.st142{clip-path:url(#SVGID_00000060024309866177716720000003944465924669500053_);fill:#1A3826;}
	.st143{clip-path:url(#SVGID_00000108994659109561148680000001496166229332815757_);fill:#0E8042;}
	.st144{clip-path:url(#SVGID_00000108994659109561148680000001496166229332815757_);fill:#1A3826;}
	.st145{clip-path:url(#SVGID_00000109012813865020122670000013670916550763624369_);}
	.st146{clip-path:url(#SVGID_00000028325874762875985880000005484154762550775687_);}
	.st147{clip-path:url(#SVGID_00000040556989272672990950000016702855636171598527_);}
	.st148{clip-path:url(#SVGID_00000159429340075944336160000012036998260539431323_);}
	.st149{clip-path:url(#SVGID_00000034803176550951079420000008555981703601244349_);}
	.st150{clip-path:url(#SVGID_00000101785089372267190120000012425405877755233961_);}
	.st151{clip-path:url(#SVGID_00000142139084696975555910000000716231137236085936_);fill:#FFFFFF;}
	.st152{clip-path:url(#SVGID_00000142139084696975555910000000716231137236085936_);fill:#8B3A37;}
	.st153{fill:#DF9E9E;}
	.st154{fill:#C98080;}
	.st155{fill:#DFD5E2;}
	.st156{clip-path:url(#SVGID_00000097484239447665622480000015394908651046288275_);fill:#DF9E9E;}
	.st157{fill:#E9C4B0;}
	.st158{clip-path:url(#SVGID_00000104685833021606881610000000517915499205380790_);fill:#C98080;}
	.st159{clip-path:url(#SVGID_00000127754484075761034270000006833430752089392778_);fill:#C1C0C0;}
	.st160{clip-path:url(#SVGID_00000040563614347792134810000017916615331163931069_);fill:#C1C0C0;}
	.st161{clip-path:url(#SVGID_00000136395746826431474750000017452462897539806639_);}
	.st162{fill:#C1C0C0;}
	.st163{clip-path:url(#SVGID_00000155112160613861911360000016552482994482480001_);fill:#C1C0C0;}
	.st164{clip-path:url(#SVGID_00000034079651359916934510000010154293194292220348_);fill:#C1C0C0;}
	.st165{clip-path:url(#SVGID_00000090277752402682160260000004128189472060135296_);fill:#0E8042;}
	.st166{clip-path:url(#SVGID_00000176756808356713981040000006067868323273001626_);fill:#0E8042;}
	.st167{fill:#7F2420;}
	.st168{clip-path:url(#SVGID_00000133498587116420033720000001468207238525286319_);fill:#FFFFFF;}
	.st169{clip-path:url(#SVGID_00000133498587116420033720000001468207238525286319_);fill:#D8807E;}
	.st170{fill:#7F2421;}
	.st171{clip-path:url(#SVGID_00000145057037250000598960000000244536366554544534_);fill:#ECA45C;}
	.st172{clip-path:url(#SVGID_00000155136271394671588990000016607062259537036710_);fill:#0E8042;}
	.st173{clip-path:url(#SVGID_00000155136271394671588990000016607062259537036710_);fill:#1A3826;}
	.st174{clip-path:url(#SVGID_00000101093847495442927270000002708461707726132383_);fill:#0E8042;}
	.st175{clip-path:url(#SVGID_00000101093847495442927270000002708461707726132383_);fill:#1A3826;}
	.st176{clip-path:url(#SVGID_00000079487970166814861340000000525031290353772715_);fill:#0E8042;}
	.st177{clip-path:url(#SVGID_00000079487970166814861340000000525031290353772715_);fill:#1A3826;}
	.st178{clip-path:url(#SVGID_00000062889606000946614120000016148095076435630989_);fill:#0E8042;}
	.st179{clip-path:url(#SVGID_00000062889606000946614120000016148095076435630989_);fill:#1A3826;}
	.st180{clip-path:url(#SVGID_00000123435612228809380110000006140873058243989127_);fill:#0E8042;}
	.st181{clip-path:url(#SVGID_00000123435612228809380110000006140873058243989127_);fill:#1A3826;}
	.st182{clip-path:url(#SVGID_00000026860149346526126680000014039783344726524078_);fill:#0E8042;}
	.st183{clip-path:url(#SVGID_00000026860149346526126680000014039783344726524078_);fill:#1A3826;}
	.st184{clip-path:url(#SVGID_00000160902339579445524300000016296724900424986280_);fill:#0E8042;}
	.st185{clip-path:url(#SVGID_00000160902339579445524300000016296724900424986280_);fill:#1A3826;}
	.st186{clip-path:url(#SVGID_00000103985867804614231530000010210942043050230718_);fill:#0E8042;}
	.st187{clip-path:url(#SVGID_00000103985867804614231530000010210942043050230718_);fill:#1A3826;}
	.st188{clip-path:url(#SVGID_00000075158067668767086860000001354292804503196087_);fill:#0E8042;}
	.st189{clip-path:url(#SVGID_00000075158067668767086860000001354292804503196087_);fill:#1A3826;}
	.st190{clip-path:url(#SVGID_00000170272127285965042740000003522792428828266654_);fill:#0E8042;}
	.st191{clip-path:url(#SVGID_00000170272127285965042740000003522792428828266654_);fill:#1A3826;}
	.st192{clip-path:url(#SVGID_00000155147446005637023140000009629411747560262332_);fill:#0E8042;}
	.st193{clip-path:url(#SVGID_00000155147446005637023140000009629411747560262332_);fill:#1A3826;}
	.st194{clip-path:url(#SVGID_00000156560954922335216850000003069892437145340578_);fill:#0E8042;}
	.st195{clip-path:url(#SVGID_00000156560954922335216850000003069892437145340578_);fill:#1A3826;}
	.st196{clip-path:url(#SVGID_00000133513711433779823430000008920896147835327930_);fill:#0E8042;}
	.st197{clip-path:url(#SVGID_00000133513711433779823430000008920896147835327930_);fill:#1A3826;}
	.st198{clip-path:url(#SVGID_00000111892604914796584950000015410004858264421538_);}
	.st199{clip-path:url(#SVGID_00000098914645426938448230000006729336121042510241_);fill:#FFFFFF;}
	.st200{clip-path:url(#SVGID_00000098914645426938448230000006729336121042510241_);fill:#D9807E;}
	.st201{clip-path:url(#SVGID_00000071562146386980409620000008930026636052785538_);fill:#41164A;}
	.st202{clip-path:url(#SVGID_00000089549312332344143910000017571916078557919142_);fill:#41164A;}
	.st203{clip-path:url(#SVGID_00000070826734364590042110000002288001125231187117_);fill:#FFFFFF;}
	.st204{clip-path:url(#SVGID_00000070826734364590042110000002288001125231187117_);fill:#41164A;}
	.st205{clip-path:url(#SVGID_00000096754919092012141410000014564068554452381838_);fill:#FFFFFF;}
	.st206{clip-path:url(#SVGID_00000096754919092012141410000014564068554452381838_);fill:#E47D7A;}
	.st207{clip-path:url(#SVGID_00000072999050868491546620000000594303813001248923_);fill:#C64B45;}
	.st208{clip-path:url(#SVGID_00000066487758966959713250000005284535943494449814_);}
	.st209{clip-path:url(#SVGID_00000012460844187424813770000002249144412954659258_);}
	.st210{clip-path:url(#SVGID_00000140722470822162677690000001341697589380034237_);fill:#6AA17A;}
	.st211{clip-path:url(#SVGID_00000074428629037266535510000008032247680307633056_);fill:#6AA17A;}
	.st212{clip-path:url(#SVGID_00000011713348495669921650000012272463487678665132_);fill:#3D1947;}
	.st213{clip-path:url(#SVGID_00000013889348641747867850000000854275773163718558_);fill:#8B3A37;}
	.st214{clip-path:url(#SVGID_00000095312565609550434000000017294582977661475234_);}
	.st215{clip-path:url(#SVGID_00000134240492859561644560000017211236036527940995_);}
	.st216{clip-path:url(#SVGID_00000139276437029408451710000016816904074037279925_);}
	.st217{clip-path:url(#SVGID_00000066478377271844777440000005279524715932213888_);}
	.st218{clip-path:url(#SVGID_00000162338195891952274260000005118187561354476205_);}
	.st219{clip-path:url(#SVGID_00000056400638364419552700000004051260141603467156_);}
	.st220{clip-path:url(#SVGID_00000059274120464976972750000000947600920329102221_);fill:#FFFFFF;}
	.st221{clip-path:url(#SVGID_00000059274120464976972750000000947600920329102221_);fill:#8B3A37;}
	.st222{clip-path:url(#SVGID_00000114754186546854517880000012763207913802656657_);fill:#DF9E9E;}
	.st223{clip-path:url(#SVGID_00000033343494171509831860000017842874406341939624_);fill:#C98080;}
	.st224{clip-path:url(#SVGID_00000073719237806823533890000013783450526561507995_);fill:#C1C0C0;}
	.st225{clip-path:url(#SVGID_00000039103661295862406120000013037906000736527527_);fill:#C1C0C0;}
	.st226{clip-path:url(#SVGID_00000009572712863438505840000004535785667694714534_);}
	.st227{clip-path:url(#SVGID_00000072253864255721973280000007401627543120796350_);fill:#C1C0C0;}
	.st228{clip-path:url(#SVGID_00000060709384403085879190000001036623461214047676_);fill:#C1C0C0;}
	.st229{clip-path:url(#SVGID_00000099661970269590604150000012412384291285476538_);fill:#0E8042;}
	.st230{clip-path:url(#SVGID_00000120536267190256065720000005701092434372707994_);fill:#0E8042;}
	.st231{clip-path:url(#SVGID_00000059310963867852776940000000987433586512894364_);fill:#FFFFFF;}
	.st232{clip-path:url(#SVGID_00000059310963867852776940000000987433586512894364_);fill:#D8807E;}
	.st233{clip-path:url(#SVGID_00000028325166753445719530000008744899403390682548_);fill:#ECA45C;}
</style>
<g>
	<path class="st2" d="M118.46,235.1c-5.09,3.57-10.17,7.9-10.62,14.68c-0.12,1.79,0.27,3.59,1.22,5.11
		c3.31,5.28,8.63,4.48,13.02,2.78c7.25-2.81,13.54-8.06,17.62-14.69c1.4-2.28,2.56-4.77,2.82-7.43c0.29-2.96-0.81-7.09-3.8-8.46
		c-2.75-1.26-7.22,0.48-9.81,1.54C125.24,230.15,121.72,232.81,118.46,235.1z"/>
	<g>
		<path class="st47" d="M169.27,63.71c-6.23-1.42-11.97-5.51-14.67-11.3c-2.37-5.09-2.28-10.92-2.17-16.53
			c0.1-5.61,0.12-11.46-2.38-16.49s-8.31-8.87-13.67-7.22c5.26,2.63,9.13,7.89,10.09,13.69c0.63,3.8-0.42,8.43-3.95,9.96
			c-3.28,1.42-7.36-0.78-8.7-4.1s-0.34-7.22,1.78-10.1c-4.72-0.19-9.37,3.01-10.88,7.48c-0.92,2.71-0.76,5.64-0.8,8.49
			c-0.04,2.86-0.35,5.87-2.03,8.18c-1.68,2.31-5.14,3.55-7.5,1.94c-2.28-1.55-2.52-4.93-1.56-7.52s2.83-4.73,4.09-7.19
			c3.27-6.35,1.97-14.73-3.06-19.79s-13.42-6.4-19.78-3.16c4.88,0.36,9.97,2.07,12.94,5.96c2.96,3.89,2.84,10.3-1.19,13.08
			c-3.5,2.41-8.48,1.31-11.85-1.27c-4.35-3.32-6.85-8.91-6.42-14.37c0.42-5.45,3.76-10.59,8.56-13.2
			c-7.62-1.51-15.99,3.25-18.6,10.56c-2.57,7.2,0.75,15.48,6.88,19.66c2.53,1.73,5.33,3.41,6.67,6.16c1.83,3.77-0.12,8.89-4,10.49
			c-3.88,1.6-8.87-0.67-10.22-4.63c-0.73-2.15-0.49-4.49-0.64-6.76c-0.42-6.36-4.24-12.39-9.81-15.48s-12.71-3.15-18.33-0.14
			c4.53,0.37,8.85,3.59,9.98,7.99c1.13,4.4-1.44,9.59-5.79,10.91c-3.42,1.04-7.32-0.39-9.68-3.08c-2.35-2.7-3.26-6.46-2.94-10.02
			s1.78-6.95,3.68-9.98c-5.48,2.13-9.37,7.8-9.4,13.68c-0.03,5.88,3.82,11.58,9.28,13.77c2,0.8,4.21,1.18,5.94,2.47
			c1.72,1.29,2.69,4,1.25,5.6c-1.33,1.48-3.83,1.07-5.45-0.08c-1.63-1.15-2.81-2.84-4.46-3.96c-1.99-1.35-4.61-1.73-6.9-1
			c-2.29,0.73-4.21,2.56-5.05,4.82c1.94-1.03,4.36-1.14,6.38-0.28c2.03,0.86,3.63,2.67,4.24,4.78c0.53,1.84,0.43,4.02,1.8,5.35
			c1.44,1.38,3.77,1.11,5.66,0.48c1.89-0.64,3.83-1.55,5.79-1.16c2.88,0.58,4.65,5.09,3.03,7.54c-1.7,2.58-1.53,5.16,0.67,7.33
			s5.54,2.83,8.62,2.53c3.08-0.3,6-1.42,8.95-2.37c2.94-0.95,6.04-1.74,9.1-1.33c4.16,0.55,7.88,3.25,12.08,3.4
			c4.73,0.16,8.86-2.9,13.2-4.8c11.33-4.97,23.53-5.91,35.47-2.77c7.54,1.98,14.89,4.77,22.6,5.92c7.71,1.15,16.07,0.46,22.47-3.99
			c2.12-1.47,4.08-3.56,4.32-6.13c0.15-1.65-0.78-3.73-2.35-4.46c-2.05-0.95-3.52,0.61-5.44,1.32
			C180.16,64.45,174.42,64.89,169.27,63.71z"/>
		<path class="st5" d="M227.3,112.37c2.15-1.78,3.51-4.37,4.27-7.06c0.76-2.69,0.98-5.49,1.2-8.28c1.75,4.48,1.95,9.94-0.35,14.16
			L227.3,112.37z"/>
		<path class="st32" d="M221.62,114.04c-0.54-0.1-1.09-0.22-1.61-0.39c-2.64-0.87-4.46-3.09-5.78-5.44
			c-5.67-10.13-6.93-23.67-0.9-33.94c1.93-3.29,4.56-6.1,7.18-8.88c3.46-3.69,7.04-7.28,10.98-10.47c1.14-0.93,2.32-1.81,3.52-2.66
			c0.61-0.43,1.22-0.84,1.84-1.24c0.92-0.6,1.97-0.55,2.51-1.64c0.39-0.78,0.62-1.93,0.18-2.74c-0.69-1.25-2.24-1.71-3.65-1.91
			c-6.39-0.91-12.92,1.26-18.34,4.75c-5.42,3.5-9.89,8.26-14.21,13.05c-7.32,8.14-14.71,17.35-15.41,28.27
			c-0.53,8.38,3.31,16.91,9.93,22.06c6.63,5.15,15.84,6.77,23.83,4.19c0.81-0.26,1.7-0.65,1.98-1.46c0.24-0.71-0.58-1.28-1.15-1.39
			C222.21,114.15,221.91,114.09,221.62,114.04z"/>
		<path class="st5" d="M241.72,51.09c2.47,7.36,0.85,15.82-4.07,21.82c0.46-3.58,0.91-7.17,0.87-10.77s-0.53-7.1-2.02-10.39
			c-0.22-0.49,0.21-1.08,0.66-1.38c0.45-0.29,1.02-0.36,1.56-0.35C239.77,50.04,240.83,50.53,241.72,51.09z"/>
		<path class="st5" d="M222.34,56.97c5.29,5.52,7.85,13.36,6.95,20.95c3.62-7.72,4.41-16.62,2.13-24.84
			c-0.41-1.46-2.44-1.45-3.94-1.23c-1.5,0.22-2.87,0.96-4.2,1.68c-0.68,0.37-1.4,0.78-1.77,1.46S221.8,56.41,222.34,56.97z"/>
		<path class="st5" d="M221.12,112.77c2.07-1.3,3.55-3.39,4.53-5.63c0.98-2.24,1.49-4.66,2-7.05c1,4.09,0.54,8.86-1.95,12.26
			L221.12,112.77z"/>
		<path class="st1" d="M151.97,67.46c6.17,1.31,12.28,3.23,18.71,3.46c6.89,0.25,15.01-1.12,19.01-7.21
			c3.19-4.86,4.7-11.31,9.77-14.71c3.49-2.34,7.95-2.56,12.16-2.56c4.2,0,8.6,0.1,12.37-1.75c2.4-1.17,4.37-3.05,6.56-4.57
			s4.86-2.71,7.48-2.2c2.65,0.51,4.73,2.71,5.82,5.19c1.09,2.48,1.34,5.22,1.55,7.92c-10.24,0.02-20.56,3.16-28.46,9.67
			c-7.9,6.51-13.45,15.82-15.42,25.86c-0.87,4.42-1.06,9.03-0.06,13.43c0.91,4.01,2.96,7.97,6.47,10.11
			c2.16,1.32,4.7,1.86,7.21,2.17c6.41,0.8,12.67,0.06,18.85-1.79c-2.18,7.98-10.98,12.83-19.25,12.62
			c-5.75-0.15-11.32-2.21-16.16-5.24c-5.07-3.18-7.84-7.41-11.83-11.67c-6.14-6.55-13.58-10.44-20.92-15.26
			c-5.14-3.38-10.76-6.01-16.64-7.8c-2.83-0.86-5.56-1.45-8.46-1.64c-2.78-0.17-5.67-0.99-7.87-2.76c-2.7-2.17-4.01-6.42-1.94-9.2
			c1.4-1.88,3.87-2.59,6.19-2.96C142.23,65.76,147.12,66.42,151.97,67.46z"/>
		<path class="st1" d="M151.97,67.46c6.17,1.31,12.28,3.23,18.71,3.46c6.89,0.25,15.01-1.12,19.01-7.21
			c3.19-4.86,4.7-11.31,9.77-14.71c3.49-2.34,7.95-2.56,12.16-2.56c4.2,0,8.6,0.1,12.37-1.75c2.4-1.17,4.37-3.05,6.56-4.57
			s4.86-2.71,7.48-2.2c2.65,0.51,4.73,2.71,5.82,5.19c1.09,2.48,1.34,5.22,1.55,7.92c-10.24,0.02-20.56,3.16-28.46,9.67
			c-7.9,6.51-13.45,15.82-15.42,25.86c-0.87,4.42-1.06,9.03-0.06,13.43c0.91,4.01,2.96,7.97,6.47,10.11
			c2.16,1.32,4.7,1.86,7.21,2.17c6.41,0.8,12.67,0.06,18.85-1.79c-2.18,7.98-10.98,12.83-19.25,12.62
			c-5.75-0.15-11.32-2.21-16.16-5.24c-5.07-3.18-7.84-7.41-11.83-11.67c-6.14-6.55-13.58-10.44-20.92-15.26
			c-5.14-3.38-10.76-6.01-16.64-7.8c-2.83-0.86-5.56-1.45-8.46-1.64c-2.78-0.17-5.67-0.99-7.87-2.76c-2.7-2.17-4.01-6.42-1.94-9.2
			c1.4-1.88,3.87-2.59,6.19-2.96C142.23,65.76,147.12,66.42,151.97,67.46z"/>
		<path class="st1" d="M151.97,67.46c6.17,1.31,12.28,3.23,18.71,3.46c6.89,0.25,15.01-1.12,19.01-7.21
			c3.19-4.86,4.7-11.31,9.77-14.71c3.49-2.34,7.95-2.56,12.16-2.56c4.2,0,8.6,0.1,12.37-1.75c2.4-1.17,4.37-3.05,6.56-4.57
			s4.86-2.71,7.48-2.2c2.65,0.51,4.73,2.71,5.82,5.19c1.09,2.48,1.34,5.22,1.55,7.92c-10.24,0.02-20.56,3.16-28.46,9.67
			c-7.9,6.51-13.45,15.82-15.42,25.86c-0.87,4.42-1.06,9.03-0.06,13.43c0.91,4.01,2.96,7.97,6.47,10.11
			c2.16,1.32,4.7,1.86,7.21,2.17c6.41,0.8,12.67,0.06,18.85-1.79c-2.18,7.98-10.98,12.83-19.25,12.62
			c-5.75-0.15-11.32-2.21-16.16-5.24c-5.07-3.18-7.84-7.41-11.83-11.67c-6.14-6.55-13.58-10.44-20.92-15.26
			c-5.14-3.38-10.76-6.01-16.64-7.8c-2.83-0.86-5.56-1.45-8.46-1.64c-2.78-0.17-5.67-0.99-7.87-2.76c-2.7-2.17-4.01-6.42-1.94-9.2
			c1.4-1.88,3.87-2.59,6.19-2.96C142.23,65.76,147.12,66.42,151.97,67.46z"/>
		<g>
			<path class="st28" d="M160.06,278.38c0.25-0.87,0.52-1.66,0.82-2.39c1.49-4.79,3.38-9.47,5.65-14.04
				c3.76-7.6-0.94-17.77-6.79-23.53c-2.86,10.26-7.08,20.24-14.79,27.43c-4.91,4.59-11.92,8.34-19.08,10.43
				c6.43,5.53,14.59,9.26,23,10.59c3.1,0.49,6.21,0.67,9.32,0.62c0.61-3.91,1.53-7.73,2.69-11.48
				C160.59,276.72,160.31,277.51,160.06,278.38z"/>
			<path class="st28" d="M142.29,230.64c-5.51-0.54-11.2,0.31-16.27,2.54c-4.97,2.18-9.56,5.76-11.7,10.75
				c-1.51,3.54-1.66,7.49-1,11.31c7.76-1.46,15.06-5.59,20.49-11.38C137.42,240.01,140.24,235.5,142.29,230.64z"/>
			<path class="st28" d="M201.55,270.63c2.27-2.07,4.34-4.31,6.24-6.7C205.41,266.03,203.37,268.29,201.55,270.63z"/>
			<path class="st28" d="M172.75,223.84c3.29,2.99,6.11,6.62,8.36,10.6c-0.12-0.26-0.23-0.53-0.36-0.78
				c0.13,0.26,0.24,0.52,0.36,0.78c4.22,7.47,6.38,16.22,5.5,24.54c-0.77,7.3-4.03,13.51-8.06,19.53c-1.26,1.88-2.47,4.01-3.51,6.28
				c6.5-1.92,12.78-4.77,18.59-8.24c2.92-1.74,5.53-3.73,7.92-5.91c1.82-2.34,3.86-4.6,6.24-6.7c5.88-7.39,10.23-16.12,14.49-25.15
				c5.49-11.65,9.06-24.8,6.41-37.4c-0.69-3.29-1.91-6.51-3.54-9.5c-0.3-0.44-0.6-0.87-0.9-1.29c0.3,0.42,0.6,0.85,0.9,1.29
				c-4.63-8.44-12.67-14.99-22.15-15.77c-12.71-1.05-24.36,8.22-30.54,19.37c-3.86,6.97-6.09,14.62-7.93,22.4
				C167.48,219.57,170.24,221.56,172.75,223.84z"/>
			<path class="st5" d="M186.61,258.98c0.88-8.32-1.28-17.07-5.5-24.54c4.42,9.4,2.15,21.68-5.45,28.79
				c-5.06,4.73-11.41,4.48-14.77,12.76c-1.16,3.75-2.08,7.57-2.69,11.48c5.68-0.11,11.34-1.06,16.84-2.69
				c1.04-2.26,2.25-4.39,3.51-6.28C182.57,272.49,185.84,266.28,186.61,258.98z"/>
			<path class="st1" d="M159.74,238.42c5.85,5.76,10.55,15.93,6.79,23.53c-2.26,4.58-4.16,9.25-5.65,14.04
				c3.36-8.28,9.71-8.03,14.77-12.76c7.6-7.1,9.87-19.39,5.45-28.79c-2.25-3.98-5.07-7.61-8.36-10.6c-2.5-2.28-5.27-4.27-8.22-5.95
				c-1.1,4.67-2.06,9.4-3.14,14.06C160.88,234.1,160.34,236.27,159.74,238.42z"/>
			<path class="st5" d="M159.74,238.42c-0.44-0.44-0.89-0.85-1.35-1.23c-4.52-3.81-10.22-5.97-16.1-6.55
				c-2.05,4.86-4.87,9.38-8.48,13.23c-5.43,5.79-12.73,9.92-20.49,11.38c0.22,1.27,0.53,2.52,0.9,3.74
				c2.1,6.79,6.28,12.67,11.65,17.29c7.16-2.08,14.17-5.84,19.08-10.43C152.66,258.66,156.87,248.68,159.74,238.42z"/>
			<path class="st1" d="M142.29,230.64c5.89,0.57,11.58,2.73,16.1,6.55c0.45,0.38,0.9,0.8,1.35,1.23c0.6-2.15,1.15-4.32,1.65-6.47
				c1.08-4.66,2.04-9.38,3.14-14.06c-5.55-3.15-11.75-5.16-18.08-5.83c-0.08,0.76-0.16,1.53-0.22,2.29
				C145.77,219.94,144.46,225.48,142.29,230.64z"/>
			<path class="st1" d="M225.14,191.88c1.64,2.98,2.85,6.2,3.54,9.5c2.65,12.6-0.91,25.75-6.41,37.4
				c-4.26,9.03-8.61,17.76-14.49,25.15c0.02-0.02,0.04-0.04,0.07-0.06c-0.02,0.02-0.04,0.04-0.07,0.06c-1.9,2.39-3.96,4.63-6.24,6.7
				c-8.23,10.58-11.91,22.82-21.25,29.39c0.06-0.02,0.13-0.03,0.19-0.05c16.03-4.5,30.92-13.22,42.41-25.3
				c2.18-2.29,4.24-4.71,6.15-7.23c3.89-5.13,7.34-10.59,10.23-16.34c0.09-0.17,0.17-0.35,0.25-0.53
				C243.93,231.96,235.54,207.12,225.14,191.88z"/>
			<path class="st5" d="M273.58,212.46c0.37,2.12-1.02,4.26-2.9,5.31c-1.88,1.05-4.14,1.18-6.28,0.98
				c-1.85-0.17-3.71-0.58-5.33-1.51c-1.61-0.93-2.95-2.43-3.39-4.24c-0.61-2.51,0.85-4.27,2.41-6.01c2.37-2.64,3.3-6.52,2.38-9.95
				c-0.92-3.43-3.66-6.32-7.04-7.42c2.06,1.64,3.5,4.21,3.32,6.84c-0.17,2.63-2.2,5.16-4.82,5.46c-4.68,0.55-5.25-4.86-6.21-8.09
				c-1.47-4.99-3.51-9.82-6.02-14.38c-7.24-13.17-21.97-21.57-36.99-22.18c-13.04-0.53-26.01,4.52-35.93,13.03
				c-0.27,1.48-0.62,2.96-1.06,4.4c-2.7,8.94-8.6,16.74-16.17,22.17c-1.54,4.87-2.56,9.96-3.12,15.19
				c6.33,0.67,12.53,2.68,18.08,5.83c1.83-7.79,4.06-15.44,7.93-22.4c6.18-11.15,17.83-20.42,30.54-19.37
				c9.48,0.78,17.53,7.32,22.15,15.77c10.4,15.23,18.79,40.08,14.39,58.69c2.05-4.36,3.28-10.14,9.11-10.48
				c3.61-0.21,7.18,2.41,8.07,5.91c0.83-3.38-0.69-7.2-3.6-9.09c-2.2-1.43-6.21-3.33-4.11-6.58c0.82-1.26,2.34-1.94,3.84-2.05
				c1.72-0.12,3.49,0.44,4.82,1.55c2.51,2.08,3.4,6.24,1.86,9.14c1.88-1.52,3.32-3.71,3.49-6.11c0.17-2.41-1.15-4.97-3.4-5.85
				c-1.76-0.68-4.53-1.03-3.93-3.68c0.24-1.06,1.21-1.91,2.29-2.02c1.73-0.17,2.84,1.15,3.96,2.2c1.01,0.95,2.3,1.56,3.67,1.78
				c2.64,0.44,5.43-0.57,7.24-2.48C275.42,220.1,275.75,215.52,273.58,212.46z"/>
			<path class="st1" d="M175.03,284.79c-5.5,1.63-11.16,2.58-16.84,2.69c-0.29,1.88-0.52,3.77-0.67,5.69
				c-0.26,3.37-0.34,6.81-0.18,10.23c2.29-0.09,4.58-0.14,6.87-0.36c2.67-0.26,5.32-0.64,7.95-1.12
				C171.02,296.38,172.54,290.2,175.03,284.79z"/>
			<path class="st5" d="M157.34,303.39c0.13,2.76,0.4,5.52,0.88,8.21c1.03,5.79,3.86,10.77,4,16.95c0.06,2.9-0.29,5.81,0.07,8.68
				c0.56,4.58,2.98,8.91,6.58,11.79s8.36,4.29,12.95,3.83c1-0.1,2.02-0.29,2.88-0.82c0.86-0.52,1.54-1.43,1.56-2.44
				c-2.17,1.14-4.81,1.36-7.15,0.59c-2.33-0.77-4.32-2.51-5.39-4.72c3.91-1.54,8.56-1.02,12.03,1.34c3.47,2.37,5.65,6.52,5.63,10.72
				c1.11-3.34,0.86-7.11-0.68-10.27c-1.54-3.16-4.35-5.69-7.67-6.87c-2.02-0.72-4.17-0.96-6.27-1.36c-2.1-0.41-4.24-1.02-5.91-2.35
				c-1.67-1.34-2.8-3.54-2.33-5.63c0.58-2.59,3.49-4.18,6.14-3.95c2.65,0.23,4.98,1.87,6.78,3.83c1.8,1.95,3.19,4.24,4.9,6.28
				c1.7,2.04,3.83,3.88,6.42,4.48c2.7,0.63,5.7-0.26,7.61-2.26c-3.73,1.02-8.01-0.35-10.45-3.36c-2.99-3.7-3.09-9.48-7.06-12.1
				c5.15,0.82,9.72,4.57,11.54,9.46c-0.82-4.76-3.41-9.07-6.64-12.65c-3.23-3.59-6.1-6.58-9.87-9.59c-3.24-2.59-5.01-5.8-5.73-9.27
				c-2.63,0.49-5.29,0.87-7.95,1.12C161.92,303.25,159.63,303.3,157.34,303.39z"/>
			<path class="st1" d="M158.19,287.47c-3.11,0.06-6.22-0.13-9.32-0.62c-8.41-1.32-16.57-5.05-23-10.59
				c-3.9,1.14-7.85,1.78-11.53,1.78c-3.88-0.01-7.74-0.56-11.53-1.47c1.14,2.25,2.43,4.43,3.92,6.47c2.42,3.31,4.35,6.33,8.43,7.85
				c1.53,0.57,3.15,0.87,4.67,1.46c1.52,0.59,2.99,1.55,3.72,3.01c1.07,2.18,0.16,4.91-1.53,6.65c-1.69,1.74-4,2.71-6.25,3.63
				c5.09,0.98,10.66-1.73,13.03-6.33c1.52,2.03,0.64,5.02-0.95,7c-1.59,1.98-3.78,3.42-5.28,5.46c-1.84,2.52-2.47,5.88-1.66,8.89
				c0.81,3.01,3.04,5.6,5.9,6.85c-1.82-1.48-2.97-3.76-3.08-6.1c-0.11-2.34,0.82-4.72,2.49-6.36c1.82-1.79,4.35-2.66,6.46-4.1
				c5.08-3.46,7.3-10.59,5.08-16.32c0.46,0.4,1.06,0.98,1.37,1.35c0.5,0.57,0.94,1.2,1.31,1.85c0.88,1.53,1.38,3.08,1.54,4.84
				c0.33,3.65-0.82,8.07-4.64,9.42c1.59,0.64,3.44,0.6,5-0.1c1.63-0.74,2.88-2.11,4.01-3.51c1.27-1.57,2.41-3.32,4.32-4.16
				c1.67-0.74,3.56-0.79,5.35-0.88c0.43-0.02,0.87-0.04,1.3-0.06c-0.16-3.42-0.08-6.86,0.18-10.23
				C157.68,291.25,157.9,289.35,158.19,287.47z"/>
			<path class="st1" d="M134.69,212.42c-17.35,3.02-32.2,17.27-35.95,34.48c-0.51,2.34-0.8,4.73-0.9,7.12
				c2.17,0.85,4.41,1.51,6.76,1.71c2.92,0.25,5.85,0.06,8.72-0.48c-0.66-3.82-0.51-7.78,1-11.31c2.13-4.99,6.73-8.57,11.7-10.75
				c5.07-2.23,10.76-3.08,16.27-2.54c2.17-5.16,3.48-10.7,3.94-16.28c0.06-0.77,0.14-1.53,0.22-2.29
				C142.54,211.65,138.58,211.74,134.69,212.42z"/>
			<path class="st1" d="M201.55,270.63c-2.39,2.18-5,4.17-7.92,5.91c-5.81,3.47-12.09,6.32-18.59,8.24
				c-2.49,5.41-4.01,11.59-2.87,17.12c2.74-0.51,5.45-1.14,8.14-1.88C189.64,293.46,193.32,281.22,201.55,270.63z"/>
			<path class="st5" d="M125.87,276.27c-5.37-4.62-9.55-10.5-11.65-17.29c-0.38-1.22-0.69-2.47-0.9-3.74
				c-2.87,0.54-5.8,0.72-8.72,0.48c-2.35-0.2-4.58-0.86-6.76-1.71c-0.25,6.07,0.77,12.18,2.89,17.87c0.6,1.61,1.31,3.17,2.08,4.7
				c3.79,0.91,7.65,1.46,11.53,1.47C118.02,278.06,121.97,277.41,125.87,276.27z"/>
			<path class="st5" d="M149.56,196.88c7.57-5.43,13.46-13.23,16.17-22.17c0.44-1.45,0.79-2.92,1.06-4.4
				c-1.5,1.29-2.94,2.65-4.29,4.1C156.35,180.95,152.19,188.6,149.56,196.88z"/>
			<path class="st5" d="M167.87,56.4c-3.01-0.52-6.1,0.63-8.18,2.82c-1.44,1.51-2.22,3.53-3.86,4.87c-1.71,1.39-4.11,1.26-6.05,0.46
				c-1.85-0.77-3.44-2.01-3.75-4.11c-0.25-1.71,0.37-3.47,1.43-4.83c2.3-2.95,6.15-4.06,9.7-4.56c1.35-0.19,2.73-0.15,4.08,0.1
				c0.8,0.15,3.12,0.54,3.59,1.29c-1.86-2.98-5.29-4.78-8.79-5.12c-2.67-0.26-5.38,0.27-7.85,1.27c-3.13,1.27-5.03,3.1-6.45,6.15
				c-1.29,2.78-2.61,5.86-5.58,7.21c-1.22,0.56-2.56,0.84-3.9,0.84c-0.59,0-1.05-0.11-1.61-0.24c-0.41-0.09-1.31-0.46-1.96-0.96
				c2.99-1.11,5.23-3.49,5.38-6.68c0.15-3.18-1.73-6.38-4.6-7.77c1.76,2.23,1.65,5.61,0.09,7.98c-1.69,2.57-6.7,5.8-9.45,3.01
				c-0.83-0.84-1.16-2.17-0.7-3.26c0.46-1.09,1.74-1.79,2.88-1.47c-1.52-0.72-3.45-0.42-4.69,0.71c-0.72,0.66-1.19,1.54-1.77,2.33
				s-1.33,1.54-2.3,1.7c-1.19,0.2-2.37-0.56-3.03-1.57c-0.77-1.18-0.76-2.49-1.18-3.75c-0.34-1.03-1.16-2.03-1.92-2.78
				c-1.6-1.6-3.79-2.64-6.06-2.72c-3.85-0.13-7.63,2.49-8.85,6.13c1.73-2.03,4.97-2.57,7.26-1.22c2.3,1.35,3.4,4.44,2.46,6.94
				c-1.24,3.33-5.32,4.78-8.86,4.48c-3.45-0.28-6.83-1.41-10.4-1.56c-3.79-0.16-7.6,0.07-11.34,0.67c-4.89,0.78-9.69,2.2-14.22,4.22
				c-4.68,2.09-8.78,5.1-13.59,6.94c-3.3,1.27-7.41,2.18-10.08-0.14c-1.61-1.4-2.22-3.68-2.08-5.81c0.13-2.13,0.91-4.15,1.67-6.14
				c-5.12,2.91-8.47,8.69-8.47,14.58c0,2.39,0.52,4.76,0.55,7.15c0.03,2.39-0.51,4.95-2.24,6.61c-2.93,2.81-7.64,1.86-11.65,2.5
				C5.42,93.69,0.37,99.26,0,105.43c1.69-3.12,4.43-5.74,7.78-6.93c3.35-1.19,7.29-0.84,10.17,1.24s4.48,5.93,3.57,9.37
				c-0.37,1.39-1.14,2.71-2.35,3.5c-1.21,0.78-2.87,0.93-4.08,0.16c-2.12-1.36-1.92-4.47-1.47-6.94
				c-3.56,6.35-2.61,15.91,2.22,21.35c2.37,2.68,5.54,4.51,8.19,6.91c1.63,1.48,3.09,3.27,3.88,5.34c0.73,1.9,0.72,4.06,1.15,6.05
				c0.99,4.57,1.78,9.37,4.38,13.36c3.32,5.1,9.13,8.05,15.01,9.64c16.47,4.44,35.21-0.95,46.79-13.48
				c4.44-4.81,7.85-11.18,15.37-10.38c3.1,0.33,6.04,1.93,8,4.35c1.11,1.38,1.93,3.13,1.67,4.88c-0.33,2.24-2.63,4-4.88,3.73
				c-2.25-0.27-4.07-2.52-3.86-4.78c-1.09,2.65-0.56,5.9,1.32,8.06c1.88,2.16,5.02,3.15,7.79,2.44c2.78-0.71,5.06-3.07,5.68-5.87
				c0.37-1.68,0.19-3.5,0.99-5.02c1.04-1.98,3.76-2.87,5.76-1.86c2,1,2.93,3.72,1.96,5.73c-1.24,2.59-4.62,3.32-6.58,5.42
				c-1.62,1.74-2.09,4.46-1.15,6.64c0.94,2.18,3.23,3.71,5.61,3.74c-2.3-1.99-2.24-6.08,0.1-8.01c2.35-1.93,6.37-1.19,7.87,1.45
				c1.47,2.57,0.49,5.93-1.35,8.25c-2.19,2.75-5.75,4.58-9.22,4.02c-1.44-0.24-2.89-1.12-3.97-2.1c-0.58-0.53-1.08-1.14-1.48-1.8
				c-0.18-0.31-0.64-1.14-0.83-1.92c-0.68,1.49-0.74,3.25-0.15,4.78c0.59,1.53,1.81,2.8,3.32,3.45c1.91,0.82,4.21,0.68,5.9,1.88
				c3.65,2.6,1.36,7.66-1.71,9.52c-1.65,1-3.55,1.49-5.45,1.79c-4.55,0.72-8.95,0.27-13.37-1.01c-5.94-1.71-11.62-2.45-17.8-1.74
				c-6.1,0.7-12.07,2.69-17.24,6.02c-6.56,4.21-12.01,10.1-15.75,16.93c-1.61,2.93-3.52,6.5-4.37,9.73
				c-1.2,4.56-0.63,9.41-2.12,14.01c-0.78,2.41-1.91,4.77-3.76,6.5c-1.85,1.73-4.51,2.74-6.97,2.13c-2.46-0.61-4.45-3.11-4.05-5.6
				c-2.29,4.38-0.8,11.31,3.92,13.44c2.66,1.2,5.98,0.78,8.26-1.05c0.89-0.72,1.65-1.64,2.68-2.14c2.51-1.22,6.11,0.75,5.5,3.73
				c-0.56,2.74-4.26,3.3-6.38,4.24c-1.21,0.53-2.38,1.34-2.93,2.53c-1.07,2.32,0.49,5.22-0.57,7.55c-0.56,1.23-1.78,2.07-3.09,2.43
				c-2.04,0.57-7.34,0.3-7.12-2.94c-0.33,4.84,3.56,9.59,8.37,10.22c4.81,0.63,9.79-2.97,10.71-7.74c0.29-1.49,0.22-3.03,0.59-4.5
				c0.37-1.47,1.33-2.94,2.8-3.27c2.29-0.51,4.2,1.97,4.56,4.29c0.36,2.32-0.14,4.75,0.55,6.99c0.73,2.35,2.83,4.21,5.25,4.65
				c2.42,0.44,5.04-0.56,6.55-2.5c-2.05,0.24-4.23-0.48-5.6-2.02c-1.37-1.54-1.81-3.9-0.92-5.76c2-4.16,5.23-1.8,8.07-0.26
				c3.11,1.68,6.44,3.3,9.63,4.59c3.69,1.49,7.53,2.81,11.45,3.74c-0.77-1.53-1.48-3.09-2.08-4.7c-2.13-5.69-3.15-11.81-2.89-17.87
				c-1.19-0.46-2.35-0.98-3.51-1.51c-3.27-1.51-6.2-2.99-8.72-5.7c-1.46-1.57-1.68-3.78-0.3-5.51c0.94-1.18,2.3-1.38,3.59-1.99
				c1.27-0.61,2.07-2.35,2.11-3.69c0.04-1.73-1.02-3.45-2.59-4.18c0.34,0.56,0.43,1.27,0.23,1.89c-0.31,0.95-1.33,1.55-2.16,2.01
				c-0.98,0.54-2.17,0.88-3.28,0.55c-1.29-0.38-2.35-1.53-2.51-2.87c-0.15-1.24,0.53-2.15,1.69-2.55c0.85-0.29,1.78-0.35,2.59-0.76
				c0.55-0.28,0.99-0.75,1.29-1.29c0.43-0.8,0.54-1.76,0.25-2.62c-0.03-0.1-0.06-0.2-0.1-0.29c-0.04,0.13-0.1,0.26-0.16,0.38
				c-0.51,0.91-1.74,1.4-2.72,0.99c-1.75-0.73-2.02-3.55-0.95-4.92c0.53-0.68,1.52-1.23,2.4-1.09c1.02,0.16,1.99,0.7,2.86,1.23
				c1.42,0.87,3.26,1.74,4.63,0.8c-2.53-1.4-3.53-4.77-2.74-7.55c0.8-2.78,3.06-4.95,5.62-6.3c6.86-3.6,15.55-3.58,23.1-3.85
				c7.99-0.28,16.17-0.59,23.58-3.94c2.65-1.19,5.18-2.67,7.54-4.37c2.63-8.28,6.79-15.93,12.93-22.47c1.35-1.44,2.79-2.81,4.29-4.1
				c2.66-14.69-2.89-30.73-14.33-40.39c-0.12-0.11-0.25-0.21-0.38-0.31c-6.36-5.23-14.32-8.37-22.49-9.26
				c-4.09-0.44-8.24-0.33-12.29,0.38c-4.33,0.75-8.46,2.82-12.57,4.43c-2.46,0.96-4.61,1.3-6.7-0.68c-2.97-2.81-2.76-8.4,1.14-10.26
				c-4.62,2.2-7.07,7.24-8.99,11.98c-1.92,4.74-3.88,9.86-8.09,12.76c-1.89,1.3-4.67,1.96-6.33,0.38c-1.11-1.06-1.3-2.72-1.71-4.2
				c-0.93-3.35-3.32-6.25-6.43-7.8c1.56,2.78,2.63,5.91,2.58,9.1c-0.05,3.19-1.32,6.44-3.78,8.47c-2.47,2.02-6.18,2.59-8.94,1
				c-2.76-1.6-4.1-5.46-2.55-8.25c0.62-1.11,1.6-1.98,2.56-2.82c1.53-1.34,3.07-2.69,4.6-4.03c-2.55,1.79-6.14,2.06-9,0.74
				c-3.4-1.56-5.7-5.05-6.25-8.75c-0.55-3.7,0.53-7.52,2.54-10.67c2.12,4.92,7.78,8.06,13.08,7.25c5.3-0.81,9.77-5.48,10.33-10.81
				c-1.62,3.76-6.52,5.49-10.36,4.08c-3.84-1.41-6.39-5.43-6.64-9.52c-0.25-4.08,1.55-8.12,4.31-11.15
				c5.98-6.59,17.06-10.82,25.81-8.54c2.56,0.67,4.99,1.87,7.02,3.59c3.9,3.3,6.59,8.32,11.41,10.01
				c5.01,1.75,11.16-1.44,12.62-6.54c-1.12,3.91-6.16,5.24-9.54,3.67c-2.19-1.02-3.75-3.49-3.29-5.86c0.53-2.75,3.38-4.42,6.11-5.05
				c4.97-1.15,10.44,0.11,14.41,3.31c4.1,3.31,6.53,8.41,10.82,11.48c3.09,2.21,7.05,3.18,10.81,2.66c3.77-0.53,7.3-2.54,9.67-5.51
				c-2.43,1.55-5.16,2.89-8.04,2.86c-2.89-0.03-5.92-1.79-6.58-4.6c-0.57-2.42,0.79-5.02,2.87-6.37c2.08-1.36,4.72-1.62,7.17-1.23
				c6.07,0.95,11.56,4.57,14.6,9.95c0.32-3.27-0.99-6.53-2.9-9.2c-3.73-5.23-9.9-8.65-16.31-9.03c-1.92-0.11-3.87,0.03-5.78-0.24
				c-1.91-0.27-3.86-1.01-5.04-2.53c-1.18-1.52-1.33-3.94,0.06-5.28c1-0.97,2.55-1.18,3.92-0.93c1.37,0.25,2.64,0.89,3.92,1.44
				c2.45,1.04,5.14,1.77,7.75,2.19c2.53,0.41,5.25-0.36,7.12-2.14c1.57-1.49,2.49-3.53,3.87-5.19c1.42-1.71,3.36-2.95,5.47-3.62
				c1-0.32,2.14-0.53,3.19-0.55c0.57-0.01,2.91,0.05,3.21,0.66C173.21,58.79,170.68,56.88,167.87,56.4z"/>
		</g>
		<path class="st47" d="M201.02,96.66c2.03-2.75,4.52-5.54,7.44-7.32s6.62-2.56,9.81-1.34c2.42,0.92,4.29,2.85,6.42,4.33
			c4.41,3.07,10.5,4.14,15.23,1.58c2.23-1.21,3.97-3.19,6.24-4.33c2.26-1.14,4.77-1.64,7.26-2.06c2.33-0.39,4.72-0.85,6.68-2.17
			c1.95-1.32,3.36-3.75,2.77-6.04c-1.24,2.13-3.19,3.83-5.47,4.77c-1.56,0.64-3.37,0.92-4.94,0.29c-1.57-0.63-2.77-2.35-2.39-4
			c0.33-1.46,1.73-2.44,3.14-2.92c1.41-0.49,2.93-0.63,4.32-1.17c2.3-0.89,4.14-2.9,4.82-5.28c-1.31,1.37-3.13,2.65-4.96,2.15
			c-1.7-0.47-2.68-2.46-2.41-4.21c0.27-1.75,1.51-3.21,2.97-4.21c3.15-2.16,7.78-2.54,11.08-0.48c1.73,1.08,2.78,2.7,4.36,3.97
			c1.55,1.26,3.33,2.22,5.24,2.81c4.23,1.31,9.27,1.01,13.47-0.29c2.1-0.65,4.17-1.64,5.64-3.27c1.47-1.64,2.24-4.03,1.52-6.1
			c-0.42,1.29-1.1,2.53-2.14,3.4s-2.47,1.34-3.79,1.04c-1.32-0.3-2.46-1.46-2.55-2.82c-0.09-1.35,0.81-2.57,1.82-3.47
			c3.61-3.2,9.36-3.66,13.43-1.09c-0.68-1.55-1.99-2.78-3.51-3.51c-1.52-0.74-3.24-1.01-4.93-0.94c-4.74,0.19-9.27,3.15-11.34,7.42
			c0.68-2.61,0.19-5.5-1.3-7.74c-0.06,2.58-1.47,5.09-3.63,6.49c-1.26,0.82-2.29,1.2-3.8,1.02c-2.41-0.3-4.4-1.62-6.7-2.2
			c-2.11-0.53-4.3-0.45-6.44-0.19c-1.02,0.13-2.09,0.14-3.03-0.26c-2.8-1.19-1.65-4.63,0.47-5.86c1.24-0.72,2.69-0.94,4.11-1.15
			c-8.78-0.8-16.85,8.24-18.31,17.1c-0.81,4.94,0.09,10.47-2.78,14.58c-2.53,3.63-7.26,4.97-11.66,5.42
			c-1.21,0.12-2.45,0.19-3.61-0.18c-1.15-0.37-2.2-1.29-2.41-2.49c-0.27-1.59,1.06-3.09,2.59-3.59s3.19-0.26,4.78-0.01
			c-2.91-2.15-7.02-2.55-10.29-0.99c-1.03,0.49-1.99,1.17-3.1,1.47c-1.11,0.3-2.46,0.11-3.11-0.84c-0.76-1.11-0.14-2.74,0.96-3.52
			c1.1-0.78,2.51-0.94,3.85-1.07c-7.85,0.01-16.37,3.56-22.04,8.97c-2.49,2.38-3.5,6.11-2.52,9.41c0.16,0.53,0.39,1.09,0.84,1.41
			C199.57,97.49,200.69,97.11,201.02,96.66z"/>
		<path class="st47" d="M200.86,42.5c-4.17-1.11-8.8,0.87-11.45,4.29c-2.64,3.41-3.47,8-2.93,12.28c0.37,2.92,1.37,5.83,3.28,8.08
			s4.79,3.77,7.73,3.62c4.19-0.22,7.63-3.74,9.08-7.68C208.94,56.6,209.4,44.79,200.86,42.5z"/>
		<path class="st32" d="M238.83,44.93c-0.08,0.52-0.75,0.88-1.68,0.97c-0.42,0.03-0.89,0.02-1.38-0.06
			c-0.84-0.13-1.57-0.43-2.05-0.79c-0.41-0.32-0.64-0.69-0.59-1.04c0.1-0.61,1.01-1,2.18-1c0.29,0.01,0.58,0.03,0.89,0.08
			c0.8,0.12,1.49,0.4,1.97,0.74C238.64,44.16,238.89,44.56,238.83,44.93z"/>
		<path class="st47" d="M241.44,20.33c0.28,2.16-0.43,4.43-1.85,6.04c-0.99,1.12-1.77,2.58-1.93,4.12c-0.19,1.76,0.71,3.11,1.1,4.76
			c0.45,1.88,0.51,3.83,0.19,5.73c-0.16,0.98-0.43,1.94-0.78,2.86c-0.11,0.3-0.25,0.6-0.38,0.88c-0.2,0.41-0.36,0.76-0.54,1.04
			c-0.03,0.05-0.07,0.1-0.1,0.14c-0.42,0.03-0.89,0.02-1.38-0.06c-0.84-0.13-1.57-0.43-2.05-0.79c0.09-0.08,0.18-0.14,0.23-0.2
			c0.56-0.52,1.01-1.15,1.37-1.83c0.05-0.08,0.09-0.16,0.13-0.24c0.45-0.89,0.73-1.86,0.82-2.85c0.19-2-0.44-4.06-1.71-5.62
			c-1.02-1.25-2.39-2.16-3.43-3.38c-1.49-1.75-2.22-4.14-1.96-6.43c0.27-2.28,1.53-4.44,3.38-5.8c-0.89,1.55-1.16,3.45-0.71,5.19
			c0.26,1,0.84,2.03,1.81,2.38c1.13,0.42,2.45-0.26,3.06-1.3c0.62-1.04,0.65-2.32,0.45-3.51c-0.19-1.19-0.6-2.33-0.81-3.52
			c-0.79-4.44,1.51-9.27,5.46-11.45c-1.54,1.76-2.4,4.13-2.41,6.46C239.39,15.6,241.1,17.72,241.44,20.33z"/>
		<path class="st5" d="M268.41,70.79c-0.54,3.61,0.77,8.04,4.24,9.19c4.83,1.61,8.41-0.31,10.19-3.5c-2.66,0.96-5.66,0.92-8.29-0.11
			S269.69,73.31,268.41,70.79z"/>
		<path class="st5" d="M302.99,61.96c2.21,0.75,4.72,0.92,6.81-0.11c2.09-1.03,3.74-2.92,4.49-5.13c0.94,1.26,1.08,3.04,0.48,4.49
			c-0.6,1.45-1.89,2.58-3.38,3.1c-1.48,0.53-3.14,0.48-4.64,0.01C305.32,63.88,304.01,63.06,302.99,61.96z"/>
		<path class="st47" d="M108.27,203.48c1.69,1.57,6.51,2.3,6.24,5.3c-0.12,1.32-1.13,2.41-2.29,3.03c-1.16,0.62-2.49,0.87-3.77,1.19
			c-1.28,0.32-2.59,0.74-3.57,1.62c-1.96,1.77-2.05,4.82-3.47,7.05c-3.41,5.38-11.98,4.32-16.69,1.57c-1.58-0.92-3.05-2.18-4-3.77
			c-1.17-1.97-1.6-4.12-3.72-5.35c-1.83-1.07-4.38-1.37-6.1,0.08c-2.09,1.76-1.98,5.01-3.37,7.36c-1.87,3.16-6.37,4.06-9.74,2.61
			s-5.66-4.74-6.85-8.22c-0.95-2.78-1.39-5.9-3.4-8.04c-2.4-2.56-6.84-2.82-9.52-0.56s-3.18,6.68-1.06,9.48
			c-3.29-1.19-5.37-4.91-4.91-8.37c0.45-3.47,3.24-6.44,6.6-7.39c3.37-0.95,7.15,0.04,9.81,2.3c2.15,1.83,3.59,4.36,5.59,6.36
			c2,2,5.01,3.47,7.62,2.38c2.73-1.14,3.76-4.66,3.12-7.55c-1.14-5.14-6.88-8.75-12.01-7.56c-1.58,0.37-3.06,1.12-4.66,1.4
			c-3.88,0.67-8.06-1.97-9.12-5.76c-1.06-3.79,1.14-8.21,4.8-9.66c-1.94,0.75-1.91,3.85-0.29,5.16s3.98,1.2,5.97,0.58
			c1.99-0.62,3.85-1.66,5.9-2.02c2.91-0.51,5.96,0.43,8.33,2.18c2.37,1.75,4.11,4.26,5.33,6.95c1.16,2.56,2.04,5.51,4.4,7.05
			c2.2,1.43,5.33,1.1,7.3-0.63c1.97-1.73,2.72-4.66,1.99-7.18s-2.82-4.55-5.31-5.38c-2.38-0.8-5.13-0.61-7.18-2.05
			c-1.44-1.01-2.31-2.76-2.25-4.51s1.05-3.44,2.55-4.35c-1.53,1.24-0.64,3.97,1.13,4.82s3.87,0.4,5.76-0.16s3.87-1.21,5.78-0.72
			c2.27,0.59,3.85,2.7,4.72,4.87c1.53,3.79,1.55,8.99,5.52,11.22c1.76,0.99,3.94,1.19,5.85,0.55c1.73-0.59,3.18-1.8,4.8-2.65
			s3.69-1.29,5.23-0.29c-1.51,0.09-2.72,1.53-2.84,3.04C106.39,200.98,107.16,202.45,108.27,203.48z"/>
		<path class="st47" d="M114.19,108.2c-0.32,2.86,0.61,5.75,2.59,7.85c1.26,1.34,2.99,2.02,4.52,2.97c1.9,1.18,2.92,2.72,2.68,5.06
			c-0.11,1.1-0.7,2.2-1.7,2.66c-1.33,0.62-2.86-0.03-4.27-0.41c-3.31-0.89-7-0.22-9.78,1.78c-1.65,1.19-2.95,2.83-3.79,4.67
			c-0.94,2.08-1.11,3.89-0.23,6.01c3.89-4.73,10.37-7.18,16.41-6.21c1.65,0.27,3.33,0.81,4.49,2.01c1.16,1.2,1.61,3.2,0.67,4.58
			c-0.85,1.25-2.66,1.63-4.05,1.04s-2.33-2-2.61-3.48c-1.92,1.56-1.18,4.94,0.86,6.32c2.05,1.38,4.77,1.23,7.17,0.64
			c2.4-0.59,4.73-1.57,7.2-1.69c4.14-0.2,8.28,2.32,10.01,6.09s0.93,8.55-1.92,11.56c5.45-0.55,10.18-5.33,10.67-10.79
			c1.24,5.9-0.4,12.34-4.33,16.93c3.25,0.4,6.34-1.86,8.04-4.65c1.7-2.8,2.35-6.08,3.21-9.24c0.86-3.16,2.04-6.4,4.48-8.58
			c2.2-1.96,5.16-2.81,7.65-4.38c5.54-3.49,8.35-10.8,6.56-17.1c0.46,5.2-3.62,10.39-8.77,11.18c-2.6,0.4-5.23-0.19-7.85-0.37
			s-5.51,0.18-7.35,2.06c-1.12,1.14-1.7,2.68-2.3,4.16c-0.6,1.48-1.29,3-2.55,3.99c-1.26,0.99-3.24,1.23-4.38,0.11
			c-1.25-1.21-0.9-3.39,0.16-4.77c1.06-1.38,2.63-2.25,3.97-3.37c4.58-3.8,6.09-10.85,3.47-16.19c-0.83,2.8-1.7,5.68-3.48,8
			c-1.78,2.32-4.69,4.01-7.57,3.5c-3.85-0.68-6.16-5.35-5-9.09s5.03-6.2,8.93-6.49c-2.12-2.42-5.88-2.47-9-1.67
			c-3.11,0.8-6.14,2.25-9.35,2.18c-3.26-0.07-6.44-1.83-8.22-4.56c-1.76-2.69-2.13-6.49-1.15-9.53c-0.1,0.3-1.03,0.86-1.29,1.13
			c-0.42,0.44-0.8,0.92-1.14,1.43c-0.66,1-1.15,2.12-1.44,3.29C114.32,107.28,114.24,107.74,114.19,108.2z"/>
		<path class="st47" d="M165.75,33.07c0.64,4.08-0.02,8.35,1.11,12.32c1.73,6.07,7.96,10.53,14.26,10.2
			c-3.02-3.03-5.81-6.66-6.24-10.92c-0.33-3.27,0.77-6.49,1.8-9.62c1.03-3.12,2.01-6.41,1.43-9.65c-0.58-3.24-3.22-6.35-6.51-6.31
			c1.7,2.23,2.54,5.08,2.33,7.87c-0.22,2.79-1.49,5.49-3.51,7.42c1.19-5.1-2.61-11.33-4.56-13.21c-2.41-2.32-7.73-4.07-12.15-2.9
			c2.75-0.21,6.41,3.75,7.93,5.63C163.76,26.55,165.22,29.73,165.75,33.07z"/>
		<path class="st47" d="M152.26,10.51c2.27-1.22,4.64-0.98,7.21-1.06c-3.15-2.69-8.88-3.32-12.98-2.69
			c3.97-4.03,10.8-3.89,14.79-1.26c1.9,1.25,3.34,3.12,4.19,5.22c0.98,2.42,0.85,4.68,0.63,7.22c-1.29-2.78-5.41-4.98-7.16-5.73
			C157.64,11.65,154.99,10.84,152.26,10.51z"/>
		<path class="st47" d="M226.33,187.57c4.08-1.7,7.49-4.71,8.25-8.93c-2.61,2.45-6.25,3.62-9.77,2.6c-3.42-1-6.16-4.01-6.83-7.51
			c-0.8-4.2,1.08-9.06-1.39-12.55c-2.5-3.53-7.97-3.44-11.07-6.45c-1.47-1.43-2.27-3.51-2.14-5.55c0.13-2.04,1.19-4,2.83-5.23
			c-2.83,0.14-5.52,1.9-6.78,4.43c-1.26,2.53-1.05,5.74,0.54,8.08c0.87,1.29,2.1,2.29,3.22,3.37c1.12,1.08,2.19,2.31,2.6,3.81
			c0.41,1.5-0.02,3.33-1.35,4.14c-1.42,0.87-3.39,0.26-4.48-0.99c-1.09-1.26-1.45-2.99-1.51-4.66c-0.07-1.66,0.12-3.33-0.05-4.99
			c-0.43-4.1-3.22-7.87-7.02-9.47c-3.8-1.6-8.45-0.97-11.68,1.59c1.73-1.44,4.54-1.19,6.13,0.4s1.87,4.25,0.83,6.25
			c-1.04,1.99-3.25,3.25-5.5,3.35c-2.85,0.12-5.72-1.67-6.75-4.33s-0.03-6,2.36-7.56c-4.48,1.12-7.55,6.19-6.46,10.67
			c1.09,4.49,6.14,7.59,10.63,6.53c2.06-0.49,3.88-1.69,5.9-2.31s4.56-0.48,5.82,1.22c1.21,1.64,0.63,4.12-0.86,5.5
			c-1.49,1.38-3.64,1.82-5.67,1.78c-2.03-0.04-4.03-0.5-6.06-0.67c-2.02-0.17-4.17-0.03-5.9,1.02c-1.8,1.09-2.96,3.09-3.27,5.17
			c-0.32,2.08,0.15,4.24,1.05,6.14c0.3-2.1,1.6-4.04,3.43-5.12c1.47-0.87,3.56-1.32,5.24-0.85c1.83,0.51,3.5,1.86,5.35,2.48
			c1.86,0.62,3.88,0.89,5.78,0.44c1.47-0.35,2.81-1.11,4.23-1.64c2.42-0.89,6.55-1.6,8.73,0.16c1.59,1.29,2.08,3.08,2.9,4.84
			c1.59,3.41,4.48,5.66,8.19,6.25C218.99,189.49,222.9,188.99,226.33,187.57z"/>
		<path class="st47" d="M224.68,225.08c2.66-2.3,4.14-5.9,3.87-9.41c-0.27-3.51-2.3-6.83-5.29-8.69c4.44-1.28,9.61,0.66,12.12,4.54
			c2.51,3.88,2.16,9.39-0.83,12.92c-1.47,1.73-3.61,3.32-3.58,5.59c0.03,1.88,1.78,3.45,3.66,3.65c1.87,0.19,3.73-0.77,5-2.16
			c1.27-1.39,2.03-3.17,2.63-4.95c1.41,5.22-1.53,11.26-6.51,13.36c-1.8,0.76-3.76,1.04-5.65,1.57c-1.88,0.53-3.78,1.38-4.94,2.95
			s-1.31,4.02,0.12,5.36c2.02,1.91,5.26,0.51,8.04,0.4c2.68-0.11,5.38,1.21,6.94,3.39c1.56,2.18,1.94,5.16,0.97,7.66
			c-0.84-1.8-2.12-3.46-3.88-4.38s-4.05-0.95-5.65,0.22c-1.6,1.18-2.2,3.66-1.04,5.27c0.9,1.24,2.54,1.71,4.07,1.75
			s3.06-0.27,4.59-0.23c3.96,0.12,7.7,2.89,8.97,6.64c1.27,3.75-0.01,8.22-3.08,10.73c-0.12-2.24-0.27-4.57-1.36-6.53
			c-1.09-1.96-3.42-3.43-5.57-2.78c-2.73,0.83-3.57,4.44-2.83,7.2c1.05,3.93,4.41,7.15,8.38,8.03c-2.17,2.36-5.67,3.4-8.78,2.62
			s-5.69-3.37-6.48-6.47c-0.61-2.38-0.21-4.89,0.12-7.33c0.33-2.44,0.56-5-0.34-7.29c-0.9-2.29-3.28-4.19-5.69-3.71
			c-2.92,0.58-4.25,4.11-4.08,7.08s1.29,5.88,1.03,8.85c-0.38,4.23-3.91,7.98-8.11,8.6c-4.2,0.62-8.67-1.94-10.26-5.88
			c1.82,1.11,3.84,2.06,5.97,2.05c2.13-0.01,4.37-1.22,5.01-3.25c0.53-1.68-0.17-3.6-1.46-4.81s-3.08-1.77-4.84-1.87
			c-3.19-0.19-6.45,1.09-8.66,3.41c-2.21,2.31-3.34,5.62-3.01,8.8c-0.79-1.02-0.83-1.26-1.03-1.71c-0.34-0.76-0.56-1.57-0.67-2.4
			c-0.22-1.63,0.05-3.16,0.54-4.71c1.44-4.55,4.7-6.86,9.14-8.1c2.59-0.72,5.54-1.48,7.29-3.68c1.93-2.43,2.12-5.9,1.79-8.85
			c-0.52-4.56-2.23-8.94-2.58-13.52c-0.35-4.58,1.1-9.79,5.16-11.94c-0.44,1.36-0.82,2.72-0.78,4.16c0.04,1.43,0.67,2.93,1.91,3.64
			c1.92,1.09,4.51-0.24,5.46-2.23c0.95-1.99,0.66-4.34,0.1-6.48c-0.56-2.13-1.38-4.24-1.43-6.44c-0.05-2.2,0.89-4.62,2.9-5.53
			c-0.69,0.97-0.74,2.35-0.13,3.36C222.54,224.56,223.51,225.23,224.68,225.08z"/>
		<path class="st47" d="M135.47,261c-1.75,3.7,1.05,8.88,5.44,8.29c1.66-0.23,3.17-1.35,3.86-2.88c-0.05,1.91-1.13,3.76-2.77,4.74
			c-1.64,0.98-3.78,1.05-5.48,0.19c-0.69-0.35-1.32-0.85-2.07-1.07c-1.75-0.53-3.6,0.6-4.74,2.04c-1.13,1.43-1.82,3.18-2.95,4.62
			c-1.13,1.44-2.97,2.58-4.72,2.08c1.63-0.64,2.55-2.69,1.92-4.33c-1.21-3.18-5.45-2.31-7.54-0.71c-1.46,1.11-2.59,2.59-3.93,3.86
			c-3.01,2.84-7.08,4.53-11.22,4.64c-3.87,0.1-8.22-1.09-9.38-5.25c-0.09-0.31-0.11-1.49-0.3-1.68c1.33,1.3,2.9,1.35,4.63,1.48
			c2,0.15,3.99,0.25,5.94-0.33c2.21-0.66,4.25-2.25,4.91-4.46c0.84-2.83-0.96-5.23-3.64-5.89c-1.54-0.38-3.16-0.11-4.69,0.29
			c-2.61,0.69-5.14,1.75-7.82,2.08s-5.67-0.19-7.47-2.2c-1.45-1.62-1.9-3.89-3-5.77c-1.84-3.14-5.68-4.99-9.28-4.46
			c4.27-2.36,10.15-1.23,13.26,2.53c1.2,1.45,2.17,3.35,3.98,3.87c2.02,0.58,4.32-1.3,4.15-3.39c-0.17-2.09-2.74-3.58-4.64-2.69
			c3.39-2.49,8.55-2.16,11.59,0.75c1.63,1.56,2.61,3.66,4.05,5.39c1.97,2.35,4.89,3.99,7.95,4.05c3.07,0.06,6.19-1.61,7.54-4.37
			c1.34-2.76,0.58-6.48-1.94-8.22c1.84-0.48,3.9,0.01,5.33,1.25s2.21,3.21,2,5.1c-0.11,0.98-0.46,1.93-0.59,2.91
			s0.02,2.08,0.74,2.76c1.33,1.24,3.62,0.2,4.56-1.36c0.94-1.56,1.13-3.46,1.97-5.07c0.94-1.78,2.7-3.11,4.67-3.51
			c1.97-0.41,4.11,0.12,5.68,1.38C139.05,257.38,136.52,258.79,135.47,261z"/>
		<path class="st47" d="M157.3,281.35c0,0.02-0.01,0.03-0.01,0.05c-0.24,1.43-1.09,3.13-2.82,2.77c-1.7-0.35-2.59-3.22-1.1-4.36
			c-2.35,1.8-3.15,5.08-2.76,8.01c0.75,5.57,4.37,11.2,8.73,14.64c1.4,1.1,2.47,1.49,4.18,1.83c0.94,0.18,1.91,0.24,2.86,0.15
			c0.4-0.04,2.39-0.77,2.59-0.65c-2.06-1.18-4.18-2.42-5.55-4.35c-1.37-1.94-1.75-4.79-0.23-6.61c1.44-1.73,4-1.98,5.88-3.23
			c1.76-1.16,2.87-3.26,2.83-5.37c-0.04-2.11-1.22-4.17-3.02-5.27c0.45,1.33,0.57,2.8,0.15,4.15c-0.41,1.34-1.39,2.54-2.7,3.05
			c-1.99,0.77-3.7-0.28-4.47-2.13c-1.17-2.81-0.96-6.15,0.55-8.79c1.5-2.64,4.27-4.52,7.28-4.95c-2.72-0.61-5.68-0.03-7.96,1.57
			c-2.28,1.6-3.84,4.18-4.19,6.95C157.43,279.65,157.43,280.51,157.3,281.35z"/>
		<path class="st47" d="M42.16,152.82c-2.56-1.37-3.75-4.84-2.57-7.49c-1.91,1.01-3.2,3.1-3.25,5.26c-0.05,2.16,1.14,4.31,3,5.41
			c-1.36,1.2-3.55,0.67-5.02-0.38c-1.47-1.06-2.62-2.56-4.2-3.44c-1.94-1.08-4.46-1.06-6.38,0.05s-3.2,3.28-3.23,5.51
			c0.87-1.39,2.48-2.28,4.12-2.26c1.64,0.01,3.24,0.93,4.09,2.33c1.35,2.24,0.68,5.1,0.87,7.71c0.27,3.7,2.47,7.2,5.68,9.04
			c-1.05-0.87-1.51-2.37-1.15-3.68c0.37-1.31,1.55-2.35,2.9-2.54c1.93-0.28,3.75,1.07,4.88,2.67s1.79,3.48,2.92,5.07
			c2.06,2.9,5.66,4.62,9.2,4.41c-1.13-0.56-2.29-1.14-3.12-2.08c-0.83-0.94-1.27-2.35-0.74-3.49c0.61-1.28,2.22-1.79,3.64-1.66
			s2.73,0.76,4.09,1.15c3.66,1.04,7.78,0.29,10.83-1.98s4.97-5.99,5.04-9.79c-1.75,1.55-3.6,3.09-5.82,3.83s-4.91,0.51-6.57-1.15
			s-1.65-4.87,0.35-6.09c1.19-0.73,2.86-0.57,3.89,0.38c1.03,0.94,1.34,2.59,0.72,3.84c1.89-1.8,2.21-5.01,0.73-7.16
			s-4.61-2.97-6.96-1.84c-1.42,0.69-2.49,1.94-3.4,3.23c-0.92,1.29-1.75,2.66-2.91,3.73c-1.16,1.07-2.74,1.83-4.3,1.57
			c-1.56-0.26-2.93-1.81-2.6-3.35c0.41-1.9,2.73-2.55,4.25-3.76c1.65-1.32,2.43-3.65,1.9-5.7s-2.34-3.71-4.43-4.06
			c0.25,0.1,0.72,3.45,0.77,3.88c0.11,1.01,0.15,1.33-0.65,2.08C47.06,153.62,44.14,153.88,42.16,152.82z"/>
		<path class="st47" d="M37.86,118.97c-3.35,1.05-6.08,3.91-6.98,7.3c-0.9,3.4,0.06,7.23,2.46,9.8c2.4,2.57,6.15,3.8,9.6,3.14
			c-2.68-0.9-4.65-3.13-5.86-5.69c-1.05-2.23-1.77-4.8-1.56-7.25C35.72,123.82,36.74,121.34,37.86,118.97z"/>
		<path class="st47" d="M140.72,191.74c-1.01,1.23-2.37,2.22-3.84,2.96c-1.46,0.73-3,1.26-4.54,1.79c1.82,0.87,3.96,1.06,5.88,0.45
			s3.58-2.02,4.42-3.85c0.43-0.93,0.66-1.97,0.64-3c-0.01-0.51-0.09-1.01-0.24-1.5c-0.08-0.28-0.18-0.55-0.28-0.82
			c-0.09-0.23-0.11-0.38-0.31-0.83C142.49,188.82,141.81,190.42,140.72,191.74z"/>
		<path class="st77" d="M186.82,362.48c0,0-1.28,4.98,3.09,7.03C189.9,369.51,191.82,364.56,186.82,362.48z"/>
		<path class="st5" d="M166.01,353.78c0,0,0.96,5.06,5.78,5.05C171.79,358.83,171.43,353.54,166.01,353.78z"/>
		<path class="st5" d="M198.93,353c0.65,1.42,0.65,2.94,0.35,4.31c0.57-0.33,1.1-0.74,1.53-1.25c1.07-1.26,1.18-3.19,0.28-4.57
			c-0.46-0.71-1.17-1.25-1.97-1.54c-0.85-0.31-1.7-0.27-2.64-0.24C197.4,350.51,198.33,351.7,198.93,353z"/>
		<path class="st47" d="M201.51,335.51c0.92,0.29,1.9,0.3,2.85,0.14c2.16-0.36,4.15-1.64,5.39-3.45c-1.88,1.06-4.12,1.46-6.25,1.11
			c-1.08-0.18-2.13-0.55-3.09-1.08c-0.79-0.44-1.88-1.2-2.4-1.94c-0.01,0.99,0.31,2.18,0.76,2.97
			C199.38,334.31,200.35,335.15,201.51,335.51z"/>
		<path class="st47" d="M83.96,70.38c1.54-1.04,3.46-1.41,5.31-1.26c1.23,0.1,2.47,0.43,3.48,1.15c1.74,1.25,2.53,3.46,2.86,5.58
			c-0.61-0.54-2.04-1.11-2.75-1.35c-1.87-0.62-2.87-1.1-4.84-1.11c-1.82-0.01-3.98,0.32-5.63,1.17c-0.19,0.1-0.63,0.36-1.18,0.77
			C81.33,73.24,82.22,71.55,83.96,70.38z"/>
		<path class="st47" d="M41.39,85.52c2.53,0.83,5.35,0.71,7.8-0.33c-0.72,2.41-2.81,4.36-5.26,4.9c-2.46,0.54-5.17-0.34-6.84-2.22
			c-0.77-0.87-1.31-1.95-1.57-3.09c-0.35-1.51-0.11-3.18,0.39-4.64C36.65,82.8,38.83,84.67,41.39,85.52z"/>
		<path class="st2" d="M148.92,180.46c0,0,2.53,17.19,18.54,12.84C167.46,193.3,167.4,177.91,148.92,180.46z"/>
		<path class="st1" d="M156.2,183.88c-1.33,0.86-2.01,2.62-1.61,4.15c0.2,0.76,0.65,1.46,1.26,1.96c1.04,0.85,2.54,1.09,3.79,0.61
			c1.25-0.48,2.21-1.66,2.41-2.98C162.54,184.45,158.87,182.16,156.2,183.88z"/>
		<path class="st32" d="M157.21,185.43c-0.68,0.44-1.03,1.34-0.82,2.13c0.1,0.39,0.34,0.75,0.65,1c0.53,0.44,1.3,0.56,1.94,0.31
			s1.13-0.85,1.24-1.53C160.47,185.72,158.59,184.55,157.21,185.43z"/>
		<path class="st2" d="M173.36,266.97c0,0,13.85,10.48,22.23-3.84C195.59,263.14,184.76,252.2,173.36,266.97z"/>
		<path class="st47" d="M180.95,264.31c-0.35,1.55,0.4,3.28,1.77,4.09c0.68,0.4,1.49,0.58,2.27,0.51c1.33-0.12,2.57-1,3.13-2.22
			c0.56-1.22,0.41-2.73-0.37-3.82C185.88,260.27,181.65,261.2,180.95,264.31z"/>
		<path class="st32" d="M182.76,264.7c-0.18,0.79,0.2,1.68,0.91,2.1c0.35,0.21,0.76,0.3,1.17,0.26c0.68-0.06,1.32-0.51,1.61-1.14
			c0.29-0.62,0.21-1.4-0.19-1.96C185.29,262.63,183.12,263.11,182.76,264.7z"/>
		<path class="st2" d="M69.86,227.95c-2.18,0.49-4.2,1.63-5.71,3.34c-1.14,1.3-1.87,2.9-2.32,4.56c-0.44,1.6-0.65,3.25-0.88,4.89
			c-0.01,0.09,1.91,0.24,2.09,0.24c0.7,0.01,1.4-0.03,2.1-0.13c1.39-0.2,2.74-0.63,3.99-1.27c0.31-0.16,0.62-0.33,0.91-0.52
			c2.05-1.29,3.7-3.18,4.76-5.35c0.54-1.1,0.93-2.27,1.13-3.47c0.05-0.31,0.21-2.06-0.18-2.19
			C73.94,227.44,71.71,227.54,69.86,227.95z"/>
		<path class="st1" d="M66.51,231.65c-0.81,0.65-1.32,1.65-1.36,2.68c-0.02,0.44,0.04,0.88,0.23,1.28c0.37,0.8,1.22,1.33,2.09,1.43
			c0.88,0.1,1.77-0.19,2.51-0.67c0.69-0.45,1.4-1.18,1.58-2c0.19-0.86-0.04-1.82-0.62-2.49C69.82,230.58,67.78,230.64,66.51,231.65z
			"/>
		<path class="st32" d="M67.57,232.98c-0.34,0.27-0.56,0.7-0.58,1.14c-0.01,0.19,0.02,0.38,0.1,0.54c0.16,0.34,0.52,0.56,0.89,0.61
			s0.75-0.08,1.07-0.29c0.29-0.19,0.59-0.5,0.67-0.85c0.08-0.37-0.02-0.77-0.26-1.06C68.98,232.53,68.11,232.55,67.57,232.98z"/>
		<path class="st47" d="M129.85,234.95c2.11-1.12,3.77-3.05,4.67-5.26c0.87-2.15,1.79-6.42-1.17-7.38c-1.59-0.52-3.3,0.5-4.37,1.79
			c-1.07,1.28-1.77,2.86-2.93,4.07c-1.34,1.41-3.3,2.24-5.24,2.13s-3.83-1.21-4.8-2.89s-0.96-3.92,0.12-5.54
			c-0.68,1.03,1.31,2.71,2.08,3.01c1.21,0.48,2.71,0.2,3.79-0.47c1.59-0.97,2.65-2.58,3.94-3.93c1.6-1.68,3.67-3.02,5.98-3.33
			c2.3-0.31,4.84,0.54,6.15,2.46c0.56,0.82,0.9,1.8,1.63,2.46c1.19,1.08,3.24,0.9,4.34-0.26s1.22-3.09,0.39-4.47
			c-0.83-1.37-2.47-2.16-4.08-2.12c1.95-0.97,4.37-0.95,6.29,0.07c1.93,1.01,3.32,2.99,3.62,5.15c0.22,1.55,0.03,3.43,1.29,4.36
			c1.31,0.97,3.26,0.05,4.17-1.3c0.91-1.35,1.19-3.03,1.95-4.47c1.04-1.99,3-3.48,5.2-3.94c2.2-0.46,4.6,0.12,6.35,1.53
			c-2.63,0.18-5.33,1.19-6.91,3.3s-1.67,5.41,0.26,7.2c1.74,1.62,4.38,1.6,6.65,2.31c2.98,0.93,5.46,3.31,6.52,6.25
			c1.06,2.94,0.66,6.36-1.05,8.97c0.85-3.79-1.29-8.03-4.84-9.6c-1.88-0.83-5.25-0.77-6.05,1.53c-0.25,0.71-0.23,1.48-0.09,2.21
			c0.28,1.45,1.11,2.85,2.44,3.5c1.32,0.65,3.14,0.33,3.94-0.91c-0.77,2.6-0.72,5.44,0.14,8.01c0.42,1.25,1.08,2.51,2.21,3.19
			c0.92,0.56,2.11,0.66,3.11,0.27s1.81-1.26,2.12-2.29c-0.09,0.31,0.18,1.04,0.2,1.39c0.03,0.51,0.02,1.02-0.04,1.52
			c-0.11,1.05-0.4,2.09-0.85,3.05c-0.87,1.89-2.49,3.5-4.09,4.77c-1.37,1.08-3.13,1.59-4.87,1.58c-2.33-0.01-4.65-0.96-6.32-2.59
			c-1.67-1.63-2.68-3.92-2.75-6.25c1.32,0.54,2.68,1.08,4.11,1.1c1.43,0.02,2.96-0.59,3.62-1.86c0.57-1.09,0.39-2.43-0.1-3.56
			c-0.77-1.8-2.3-3.25-4.13-3.94c-1.83-0.69-3.94-0.6-5.7,0.24c-0.97,0.46-1.91,1.25-2.33,2.27c-0.22,0.54-0.53,2.67,0.01,3.09
			c-1.42-1.1-2.89-2.27-3.62-3.91s-0.44-3.89,1.12-4.78c1.03-0.59,2.29-0.46,3.47-0.51c1.18-0.06,2.53-0.47,2.95-1.57
			c0.59-1.57-1.33-3.11-3.01-2.97s-3.09,1.24-4.59,2c-2.83,1.43-6.25,1.67-9.25,0.64c1.33,0.71,3.19,0.13,3.89-1.21
			c0.69-1.34,0.09-3.19-1.26-3.87c-1.84-0.92-3.96,0.31-5.89,1.05c-3.21,1.23-6.95,1-10-0.6
			C128.78,235.45,129.33,235.23,129.85,234.95z"/>
		<path class="st47" d="M164.17,314.44c-0.32,2.07-0.16,4.25,0.77,6.13c0.93,1.87,2.71,3.38,4.77,3.69c0.7-1.99,0.41-4.38-0.62-6.22
			S166.23,314.89,164.17,314.44z"/>
		<path class="st47" d="M179.48,321.47c0.05-1.61-0.54-3.24-1.62-4.44s-2.64-1.96-4.25-2.08
			C173.84,318.06,176.48,320.58,179.48,321.47z"/>
		<path class="st2" d="M29.55,102.37c2.72-2.46,7.57-3.84,11.24-3.92c3.67-0.08,7.35,1.2,10.17,3.54c-1.1,2.31-3.07,4.04-5.46,4.97
			s-5.02,1.08-7.56,0.75c-1.67-0.22-3.57-0.72-4.98-1.65C31.63,105.18,30.19,103.64,29.55,102.37z"/>
		<path class="st1" d="M39.36,100.13c-0.72,0.08-1.43,0.37-1.94,0.88c-0.98,0.97-1.04,2.69-0.2,3.78c0.84,1.09,2.44,1.49,3.73,0.99
			c1.33-0.51,2.5-1.96,2.22-3.46C42.83,100.51,40.99,99.94,39.36,100.13z"/>
		<path class="st32" d="M39.66,101.65c-0.34,0.04-0.68,0.18-0.93,0.42c-0.47,0.46-0.5,1.29-0.1,1.81c0.4,0.52,1.17,0.71,1.79,0.48
			c0.63-0.24,1.2-0.94,1.06-1.65C41.32,101.83,40.44,101.56,39.66,101.65z"/>
		<path class="st2" d="M56.95,81.95c0.64,3.58,2.04,7.12,4.62,9.68c2.58,2.55,6.49,3.94,9.97,2.9c1.17-3.82-0.04-8.24-3.01-10.91
			C65.57,80.95,60.63,80.4,56.95,81.95z"/>
		<g>
			<defs>
				<path id="SVGID_00000062161218959056118380000005671790546035508628_" d="M151.97,67.46c6.17,1.31,12.28,3.23,18.71,3.46
					c6.89,0.25,15.01-1.12,19.01-7.21c3.19-4.86,4.7-11.31,9.77-14.71c3.49-2.34,7.95-2.56,12.16-2.56c4.2,0,8.6,0.1,12.37-1.75
					c2.4-1.17,4.37-3.05,6.56-4.57s4.86-2.71,7.48-2.2c2.65,0.51,4.73,2.71,5.82,5.19c1.09,2.48,1.34,5.22,1.55,7.92
					c-10.24,0.02-20.56,3.16-28.46,9.67c-7.9,6.51-13.45,15.82-15.42,25.86c-0.87,4.42-1.06,9.03-0.06,13.43
					c0.91,4.01,2.96,7.97,6.47,10.11c2.16,1.32,4.7,1.86,7.21,2.17c6.41,0.8,12.67,0.06,18.85-1.79
					c-2.18,7.98-10.98,12.83-19.25,12.62c-5.75-0.15-11.32-2.21-16.16-5.24c-5.07-3.18-7.84-7.41-11.83-11.67
					c-6.14-6.55-13.58-10.44-20.92-15.26c-5.14-3.38-10.76-6.01-16.64-7.8c-2.83-0.86-5.56-1.45-8.46-1.64
					c-2.78-0.17-5.67-0.99-7.87-2.76c-2.7-2.17-4.01-6.42-1.94-9.2c1.4-1.88,3.87-2.59,6.19-2.96
					C142.23,65.76,147.12,66.42,151.97,67.46z"/>
			</defs>
			<clipPath id="SVGID_00000094615348007343333200000003534813320465208759_">
				<use xlink:href="#SVGID_00000062161218959056118380000005671790546035508628_"  style="overflow:visible;"/>
			</clipPath>
			<path style="clip-path:url(#SVGID_00000094615348007343333200000003534813320465208759_);fill:#C64B45;" d="M204.34,98.15
				c0.35,1.14,0.88,2.23,1.44,3.37c0.65,1.32,1.2,2.8,0.87,4.24c-0.13,0.56-0.54,1.47-1.15,1.67c-0.7,0.22-1.33-0.72-1.78-1.22
				c-2.86-3.17-5-6.71-7.16-10.37c-2.16-3.66-4.78-7.05-7.79-10.05c-0.69-0.69-1.33-1.41-2.1-2.02c-0.53-0.42-1.89-1.59-2.62-1.5
				c8.03-1.05,18.24-4.96,23.78-12.04c0.52-0.66,1.04-1.35,1.76-1.79c1.82-1.1,2.88,0.28,2.96,2.07c0.26,6.43-2.48,11.88-5.73,17.19
				c-1.32,2.15-2.51,4.51-2.82,7.04C203.85,95.96,204.01,97.08,204.34,98.15z"/>
		</g>
		<path class="st47" d="M63.8,84.29c-1.09,0.3-2.04,1.15-2.33,2.24c-0.21,0.79-0.07,1.65,0.34,2.35c0.64,1.1,1.95,1.77,3.22,1.64
			c1.27-0.13,2.42-1.05,2.83-2.25c0.39-1.14,0.07-2.35-0.66-3.27C66.48,84.08,64.86,84,63.8,84.29z"/>
		<path class="st32" d="M64.27,85.87c-0.52,0.14-0.98,0.55-1.12,1.08c-0.1,0.38-0.03,0.79,0.16,1.13c0.31,0.53,0.94,0.85,1.55,0.79
			c0.61-0.06,1.16-0.5,1.36-1.08c0.19-0.55,0.03-1.13-0.32-1.58C65.56,85.77,64.78,85.73,64.27,85.87z"/>
		<path class="st2" d="M62.04,56.39c-1.79,3-2.16,6.81-0.96,10.09c1.19,3.28,3.92,5.97,7.22,7.11c2.66-2.67,3.59-6.93,2.31-10.46
			C69.33,59.6,65.79,56.74,62.04,56.39z"/>
		<path class="st47" d="M63.24,63.8c-0.55,1.15-0.23,2.66,0.75,3.48c0.46,0.39,1.04,0.63,1.64,0.69c0.99,0.09,2.02-0.37,2.62-1.16
			c0.6-0.79,0.76-1.9,0.41-2.84c-0.68-1.81-2.85-2.35-4.41-1.32C63.83,62.94,63.47,63.34,63.24,63.8z"/>
		<path class="st32" d="M64.57,64.43c-0.28,0.58-0.11,1.34,0.38,1.76c0.23,0.2,0.53,0.32,0.83,0.35c0.5,0.04,1.02-0.18,1.32-0.59
			c0.3-0.4,0.39-0.96,0.21-1.43c-0.34-0.91-1.44-1.19-2.23-0.66C64.86,63.99,64.68,64.19,64.57,64.43z"/>
		<path class="st2" d="M114.71,66.2c-1.93,0.23-3.87,0.54-5.68,1.24c-1.81,0.7-3.51,1.81-4.65,3.38c-1.58,2.18-1.95,5-1.98,7.68
			c2.83-0.12,6.04,0.06,8.57-1.43c1.91-1.13,3.35-3.03,4.03-5.16c0.34-1.07,0.51-2.23,0.42-3.35
			C115.38,68.24,115.22,66.14,114.71,66.2z"/>
		<path class="st1" d="M107.72,70.24c-0.63,0.65-0.95,1.6-0.84,2.5c0.07,0.54,0.29,1.07,0.68,1.45c0.63,0.62,1.61,0.77,2.5,0.67
			c0.5-0.06,1.01-0.19,1.41-0.5c0.7-0.54,0.93-1.51,0.85-2.39c-0.11-1.13-0.74-2.17-1.87-2.52
			C109.46,69.14,108.43,69.51,107.72,70.24z"/>
		<path class="st32" d="M108.8,71.33c-0.27,0.27-0.4,0.67-0.35,1.05c0.03,0.23,0.12,0.45,0.28,0.61c0.27,0.26,0.67,0.32,1.04,0.28
			c0.21-0.02,0.42-0.08,0.59-0.21c0.29-0.23,0.39-0.63,0.36-1c-0.05-0.47-0.31-0.91-0.78-1.06C109.53,70.87,109.1,71.03,108.8,71.33
			z"/>
		<path class="st2" d="M172.37,104.7c-0.86-2.34-1.3-4.87-1.01-7.34c0.29-2.48,1.36-4.9,3.19-6.6c1.83-1.69,4.73-2.88,7.36-2.91
			c0.55,2.26,0.8,4.6,0.49,6.91c-0.37,2.84-1.49,5.72-3.71,7.52C176.99,103.66,174.55,104.38,172.37,104.7z"/>
		<path class="st47" d="M174.35,94.2c-0.87,1.09-1.01,2.74-0.23,3.89c0.8,1.18,2.44,1.66,3.8,1.22c1.36-0.44,2.37-1.7,2.65-3.1
			c0.22-1.06,0.01-2.35-0.89-3.06c-0.7-0.55-1.66-0.6-2.51-0.48C176.15,92.8,175,93.38,174.35,94.2z"/>
		<path class="st32" d="M175.8,95.17c-0.42,0.52-0.48,1.31-0.11,1.86c0.38,0.57,1.17,0.8,1.82,0.58s1.14-0.82,1.27-1.49
			c0.1-0.51,0-1.13-0.42-1.47c-0.33-0.27-0.79-0.29-1.2-0.23C176.67,94.5,176.12,94.78,175.8,95.17z"/>
		<path class="st5" d="M169.98,77.49c-1.29-1.61-3.35-2.68-5.53-2.87c-2.18-0.19-4.43,0.5-6.03,1.85c1.57,1.36,3.5,2.41,5.66,2.61
			C166.24,79.29,168.14,78.54,169.98,77.49z"/>
		<path class="st2" d="M85.27,147.43c0.29,2.31,1.72,4.38,3.62,5.73c1.89,1.35,4.21,2.01,6.53,2.2c2.32,0.18,4.65-0.1,6.94-0.5
			c0.1-2.59-0.65-5.26-2.6-6.94c-1.95-1.68-4.6-2.38-7.18-2.36C90.01,145.58,87.35,146.28,85.27,147.43z"/>
		<path class="st2" d="M72.19,156.19c2.21-0.41,4.15-2.01,4.99-4.09s0.53-4.58-0.78-6.4c-2.26-0.13-4.23,2.19-4.91,4.35
			S71.36,154.09,72.19,156.19z"/>
		<path class="st1" d="M73.73,149.08c-0.16,0.07-0.31,0.16-0.44,0.28c-0.93,0.83-0.8,2.47,0.27,3.12c0.17,0.1,0.35,0.17,0.54,0.21
			c0.6,0.13,1.25-0.14,1.64-0.61c0.46-0.57,0.55-1.45,0.33-2.13C75.75,148.98,74.58,148.7,73.73,149.08z"/>
		<path class="st2" d="M65.23,251.11c1.34,1.8,3.63,2.85,5.87,2.68c2.24-0.17,4.35-1.54,5.41-3.52c-0.88-2.09-3.83-2.83-6.06-2.5
			C68.2,248.11,66.75,249.44,65.23,251.11z"/>
		<path class="st47" d="M72.04,249.64c-0.11-0.09-0.23-0.16-0.36-0.22c-0.93-0.38-2.07,0.29-2.15,1.3c-0.01,0.16,0,0.31,0.04,0.47
			c0.12,0.48,0.54,0.86,1.02,0.97c0.57,0.13,1.24-0.12,1.66-0.51C72.83,251.07,72.62,250.13,72.04,249.64z"/>
		<path class="st2" d="M249.61,218.99c-3.57,0.12-7.15-1.57-9.33-4.4c-2.17-2.83-2.88-6.73-1.85-10.15
			c3.45,0.08,7.24,1.44,9.34,4.17C249.88,211.34,250.41,215.64,249.61,218.99z"/>
		<path class="st1" d="M243.95,214.54c1.38,0.2,2.65-0.62,2.99-1.99c0.41-1.67-0.94-3.38-2.57-3.69c-0.73-0.14-1.52,0.01-2.14,0.43
			s-1.04,1.11-1.11,1.86c-0.08,0.78,0.24,1.57,0.74,2.17C242.38,213.95,243.13,214.42,243.95,214.54z"/>
		<path class="st32" d="M244.02,212.97c0.62,0.09,1.2-0.28,1.35-0.9c0.18-0.76-0.42-1.53-1.16-1.67c-0.33-0.06-0.69,0-0.97,0.19
			s-0.47,0.5-0.5,0.84c-0.03,0.35,0.11,0.71,0.33,0.98C243.31,212.7,243.65,212.91,244.02,212.97z"/>
		<path class="st2" d="M238.45,158.93c-3.35-0.99-7.17-0.17-9.82,2.11c-2.65,2.27-4.03,5.93-3.56,9.39c3.45,1.05,7.34,0.25,10.15-2
			S238.73,162.52,238.45,158.93z"/>
		<path class="st47" d="M95.07,147.96c-1.03-0.35-2.27-0.11-2.98,0.77c-0.51,0.63-0.67,1.52-0.41,2.29c0.7,2.08,4,2.42,4.93,0.35
			c0.4-0.89,0.2-1.97-0.45-2.69C95.87,148.34,95.49,148.1,95.07,147.96z"/>
		<path class="st32" d="M94.59,149.26c-0.46-0.16-1.01-0.05-1.32,0.34c-0.22,0.28-0.3,0.68-0.18,1.02c0.31,0.92,1.78,1.07,2.19,0.16
			c0.18-0.39,0.09-0.88-0.2-1.2C94.94,149.43,94.77,149.32,94.59,149.26z"/>
		<path class="st2" d="M13.86,136.55c2.32,0.16,4.64-0.84,6.33-2.43c1.69-1.6,2.8-3.74,3.43-5.98c0.63-2.24,0.81-4.58,0.86-6.9
			c0-0.14-1.59-0.18-1.75-0.18c-0.63,0.01-1.26,0.09-1.87,0.24c-0.98,0.24-1.92,0.58-2.8,1.09c-2.51,1.45-4.08,3.81-4.61,6.63
			C12.97,131.54,13.14,134.29,13.86,136.55z"/>
		<path class="st47" d="M16.29,127.04c-0.54,0.94-0.55,2.21,0.18,3.07c0.52,0.62,1.36,0.95,2.16,0.85c2.17-0.28,3.15-3.46,1.31-4.77
			c-0.79-0.57-1.89-0.58-2.73-0.08C16.82,126.33,16.51,126.66,16.29,127.04z"/>
		<path class="st32" d="M17.47,127.77c-0.24,0.42-0.24,0.98,0.08,1.36c0.23,0.28,0.6,0.42,0.96,0.38c0.96-0.12,1.4-1.53,0.58-2.12
			c-0.35-0.25-0.84-0.26-1.21-0.04C17.71,127.45,17.57,127.6,17.47,127.77z"/>
		<path class="st5" d="M72.98,50.84c-1.95-1.31-3.47-3.24-4.29-5.45c-0.82-2.2-0.92-4.66-0.3-6.93c-2.13,1.7-3.83,4.15-3.98,6.87
			c-0.15,2.72,1.16,5.54,3.49,6.96s5.61,1.2,7.57-0.69C74.56,51.35,73.76,51.36,72.98,50.84z"/>
		<path class="st47" d="M139.95,244.26c-1.83,3.77-4.93,6.92-8.67,8.81c2.51,1.06,5.36,0.55,7.27-1.4
			C140.46,249.73,141.06,246.76,139.95,244.26z"/>
		<path class="st47" d="M131.2,295.17c1.11-1.79,1.51-4.01,1.08-6.07c-0.21-1.01-0.67-2.07-1.61-2.59c-0.92-0.5-2.03-0.36-3.03-0.48
			c-2.56-0.3-4.5-2.58-4.13-5.19c-0.02,0.15-0.54,0.56-0.65,0.71c-0.21,0.29-0.39,0.62-0.52,0.95c-0.27,0.66-0.42,1.43-0.32,2.13
			c0.19,1.45,0.74,2.86,2,3.7c1.69,1.13,3.81,0.77,5.4,2.12c0.67,0.57,1.17,1.32,1.48,2.14
			C131.09,293.15,131.55,294.62,131.2,295.17z"/>
		<path class="st47" d="M186.44,286.83c0.22,1.2-0.67,2.36-1.72,2.99s-2.28,0.89-3.39,1.4s-2.19,1.4-2.36,2.61
			c2.22-1.22,4.77,0.17,6.94-1.13c1.03-0.62,1.74-1.76,1.84-2.96C187.86,288.54,187.35,287.62,186.44,286.83z"/>
		<path class="st47" d="M232,193.47c0.34,1.79,1.23,3.5,2.63,4.67c1.4,1.16,3.32,1.74,5.11,1.36c-2.07-1.78-3.54-4.24-4.14-6.91
			c-0.62-2.76-0.18-5.36,0.75-7.97c-1.35,0.77-3.04,2.15-3.78,3.57C231.61,190.02,231.62,191.44,232,193.47z"/>
		<path class="st47" d="M157.84,167.56c-0.11,0.9-0.58,1.73-1.22,2.37c-0.64,0.64-1.43,1.11-2.25,1.49c-1.96,0.9-4.14,1.3-6.28,1.16
			c-0.93-0.06-1.87-0.23-2.65-0.73c1.22,2.21,3.43,3.63,5.95,3.52c2.52-0.11,4.92-1.74,5.94-4.05
			C157.86,170.1,158.02,168.89,157.84,167.56z"/>
		<path class="st47" d="M127.28,236.86c-1.09-0.11-2.26,0.23-3.22,0.9c-1.3,0.91-2.22,2.43-2.34,3.97s0.59,3.04,1.84,3.78
			c1.15,0.68,2.69,0.68,3.99,0.05c1.3-0.63,2.34-1.87,2.78-3.26C131.16,239.73,129.93,237.14,127.28,236.86z"/>
		<path class="st32" d="M126.58,239.48c-0.48-0.07-0.98,0.06-1.39,0.33c-0.55,0.37-0.93,1.01-0.95,1.67s0.31,1.32,0.87,1.66
			c0.51,0.31,1.19,0.34,1.75,0.09s0.99-0.77,1.16-1.36C128.33,240.78,127.74,239.64,126.58,239.48z"/>
		<path class="st2" d="M98.47,231.92c1.64-0.79,3.45-1.3,5.27-1.26c1.82,0.03,3.66,0.64,5.03,1.85c1.36,1.21,2.43,3.23,2.64,5.15
			c-1.61,0.56-3.29,0.91-4.99,0.85c-2.09-0.07-4.26-0.67-5.74-2.16C99.55,235.2,98.85,233.48,98.47,231.92z"/>
		<path class="st1" d="M105.18,232.37c-0.93-0.15-1.95,0.32-2.38,1.16c-0.43,0.87-0.17,2,0.54,2.65c0.71,0.65,1.8,0.83,2.72,0.54
			c0.7-0.23,1.39-0.78,1.52-1.54c0.1-0.6-0.2-1.18-0.55-1.64C106.61,232.96,105.88,232.48,105.18,232.37z"/>
		<path class="st32" d="M105.56,233.61c-0.42-0.2-0.93-0.21-1.28,0.08c-0.36,0.3-0.46,0.84-0.27,1.27c0.19,0.42,0.63,0.71,1.09,0.76
			c0.52,0.05,0.97-0.29,1.12-0.78C106.37,234.37,106.07,233.85,105.56,233.61z"/>
		<path class="st2" d="M117.9,283.82c1.02,1.51,1.78,3.22,2.01,5.03c0.23,1.81-0.1,3.72-1.1,5.24c-1,1.52-2.84,2.88-4.71,3.36
			c-0.79-1.51-1.38-3.12-1.57-4.81c-0.24-2.08,0.05-4.32,1.3-5.99C114.81,285.36,116.41,284.43,117.9,283.82z"/>
		<path class="st1" d="M118.43,290.52c0.01-0.94-0.6-1.89-1.49-2.18c-0.92-0.3-2,0.12-2.54,0.92c-0.54,0.8-0.56,1.9-0.14,2.77
			c0.33,0.66,0.97,1.27,1.75,1.28c0.6,0.01,1.14-0.37,1.55-0.78C118.04,292.02,118.42,291.24,118.43,290.52z"/>
		<path class="st32" d="M117.25,291.08c0.14-0.44,0.07-0.95-0.26-1.25c-0.34-0.31-0.9-0.33-1.29-0.09
			c-0.39,0.25-0.61,0.72-0.59,1.19c0.02,0.52,0.42,0.92,0.93,0.99C116.62,292,117.09,291.62,117.25,291.08z"/>
		<path class="st2" d="M144.96,278.29c0.5,1.75,0.69,3.62,0.34,5.41c-0.35,1.79-1.26,3.5-2.68,4.63c-1.43,1.13-3.6,1.84-5.52,1.72
			c-0.28-1.68-0.33-3.4,0.01-5.06c0.43-2.05,1.39-4.09,3.11-5.28C141.55,278.79,143.36,278.4,144.96,278.29z"/>
		<path class="st47" d="M143.37,284.82c0.31-0.89,0.02-1.98-0.74-2.54c-0.78-0.58-1.94-0.51-2.7,0.08c-0.77,0.59-1.13,1.63-1,2.59
			c0.1,0.73,0.53,1.51,1.26,1.76c0.57,0.2,1.19,0.01,1.71-0.26C142.54,286.13,143.14,285.5,143.37,284.82z"/>
		<path class="st32" d="M142.08,284.98c0.27-0.38,0.37-0.88,0.14-1.27c-0.23-0.4-0.75-0.6-1.2-0.49c-0.45,0.11-0.81,0.5-0.94,0.94
			c-0.14,0.5,0.11,1.01,0.58,1.23C141.19,285.66,141.75,285.45,142.08,284.98z"/>
		<path class="st5" d="M169.22,120.99c1.58-2,2.37-4.62,2.14-7.16c1.47,1.36,2.26,3.44,2.05,5.43c-0.21,2-1.4,3.86-3.13,4.89
			c-1.95,1.16-5.13,1.51-7.25,0.67c0.88-0.66,2.37-0.81,3.41-1.42C167.5,122.77,168.45,121.96,169.22,120.99z"/>
		<path class="st47" d="M207.95,150.24c-0.07-2.14,0.82-4.54,1.98-6.04c1.17-1.49,2.55-2.19,3.87-2.43
			c0.01,2.31-0.69,4.93-1.86,6.68C210.77,150.21,209.25,150.63,207.95,150.24z"/>
		<path class="st47" d="M119.07,6.89c2.8,2.44,4.71,5.88,5.3,9.55c1.74-2.69,2.08-6.23,0.89-9.21c-1.12-2.79-3.58-5.01-6.49-5.87
			c-1.5-0.44-3.1-0.51-4.62-0.16c-1.72,0.4-3.65,0.88-5.11,1.88C112.85,2.81,116.25,4.43,119.07,6.89z"/>
		<path class="st47" d="M170.7,343.82c-1.16-0.23-2.22-0.9-2.93-1.84c-0.71-0.95-1.05-2.16-0.93-3.33c1.19,0.32,2.21,1,2.98,1.96
			C170.58,341.57,170.65,342.6,170.7,343.82z"/>
		<path class="st2" d="M198.81,287.51c-2.05,0.92-3.57,2.92-3.89,5.14c-0.32,2.22,0.56,4.58,2.26,6.04c2.23-0.4,3.6-3.12,3.76-5.37
			S200.11,289.37,198.81,287.51z"/>
		<path class="st77" d="M198.77,294.49c0.11-0.09,0.21-0.19,0.29-0.3c0.57-0.82,0.16-2.08-0.8-2.38c-0.15-0.05-0.31-0.07-0.46-0.06
			c-0.49,0.01-0.95,0.34-1.17,0.79c-0.25,0.53-0.16,1.24,0.14,1.73C197.2,294.95,198.17,294.95,198.77,294.49z"/>
		<path class="st47" d="M251.39,254.18c-2.47-1.36-3.75-4.57-2.89-7.25C250.74,248.55,251.78,251.44,251.39,254.18z"/>
		<path class="st77" d="M45.72,258.7c-3.31,0.56-6.87-1.63-7.85-4.85c-1.11,2.1-0.48,4.64,1.51,5.93S44.26,260.58,45.72,258.7z"/>
		<path class="st47" d="M157.74,327.98c-0.51,2.15-1.02,4.32-1.01,6.52c0.01,2.11,0.5,4.22,1.43,6.11c-1.12-0.22-2.04-0.7-2.74-1.6
			c-0.7-0.89-1.14-1.97-1.39-3.08c-0.36-1.54-0.37-3.21,0.26-4.67C154.91,329.82,156.17,328.19,157.74,327.98z"/>
		<path class="st47" d="M161.57,198.86c0.15,0.82-0.28,1.66-0.9,2.21c-0.62,0.55-1.42,0.87-2.2,1.15c-0.78,0.29-1.58,0.56-2.25,1.06
			c-0.95,0.71-1.55,1.81-1.78,2.97c-0.24,1.16-0.14,2.36,0.12,3.51c-0.12-0.92,0.46-1.6,1.21-2.14s1.66-0.8,2.56-1.04
			c1.42-0.38,2.93-0.8,3.93-1.88c0.73-0.8,1.1-1.91,0.98-2.98C163.13,200.65,162.44,199.48,161.57,198.86z"/>
		<path class="st5" d="M200.4,41.79c-3.81-1.02-8.04,0.8-10.46,3.92c-2.42,3.12-3.17,7.3-2.67,11.22c0.34,2.67,1.25,5.33,2.99,7.38
			c1.74,2.06,4.37,3.44,7.06,3.3c3.83-0.2,6.97-3.41,8.29-7.01C207.78,54.66,208.2,43.87,200.4,41.79z"/>
		<path class="st47" d="M234.97,164.82c0.32-1.36-0.38-2.69-1.73-3.15c-1.63-0.55-3.45,0.64-3.9,2.24
			c-0.21,0.72-0.13,1.51,0.24,2.16c0.37,0.65,1.02,1.14,1.75,1.27c0.77,0.14,1.58-0.1,2.23-0.54
			C234.25,166.34,234.78,165.63,234.97,164.82z"/>
		<path class="st32" d="M233.41,164.62c0.15-0.61-0.17-1.22-0.78-1.42c-0.74-0.25-1.56,0.29-1.77,1.01
			c-0.09,0.32-0.06,0.69,0.11,0.98c0.17,0.29,0.46,0.51,0.79,0.58c0.35,0.06,0.72-0.04,1.01-0.25
			C233.09,165.3,233.33,164.98,233.41,164.62z"/>
		<path class="st5" d="M106.07,45.57c-0.47-0.6-0.63-1.33-0.65-2.07c-0.03-0.86,0.04-1.72,0.2-2.57c0.21-1.14,0.59-2.25,1.11-3.29
			c0.52-1.04,1.26-1.9,1.91-2.85c-2.4,0.7-3.39,1.93-4.12,2.99C102.79,40.27,103.68,43.82,106.07,45.57z"/>
		<path class="st5" d="M137.69,51.16c-0.66-1.65-1.33-3.34-1.38-5.12c-0.05-1.78,0.65-3.68,2.18-4.6c1.02,1.55,1.59,3.3,1.46,5.15
			C139.83,48.45,138.91,49.77,137.69,51.16z"/>
		<path class="st32" d="M195.89,50.69c-0.11,0.98-0.37,1.96-0.61,2.95c-0.43,1.73-0.53,3.58-0.01,5.28s1.74,3.24,3.39,3.9
			c-0.39-1.03-0.78-2.1-0.74-3.2c0.03-1.03,0.43-2.01,0.75-2.99c0.39-1.17,0.67-2.39,0.68-3.63c0-1.24-0.29-2.49-0.98-3.52
			c-0.72-1.08-1.79-1.54-2.91-2.11C195.95,48.47,196.01,49.58,195.89,50.69z"/>
		<path class="st2" d="M202.6,45.52c-0.3-0.5-0.82-0.92-1.29-1.14c-0.3-0.13-0.61-0.24-0.94-0.25c-0.3-0.01-0.67,0.07-0.87,0.31
			c-0.23,0.28-0.19,0.77,0.08,1c0.18,0.16,0.42,0.23,0.65,0.31c0.23,0.08,0.47,0.17,0.62,0.36c0.17,0.2,0.21,0.48,0.29,0.73
			c0.21,0.68,0.97,0.85,1.43,0.26C202.98,46.59,202.9,46.01,202.6,45.52z"/>
		<path class="st2" d="M204,49.04c-0.23-0.7-1.17-1.01-1.42-0.16c-0.09,0.29-0.02,0.62,0.15,0.87c0.11,0.16,0.26,0.29,0.44,0.34
			c0.26,0.07,0.56-0.05,0.72-0.27C204.05,49.6,204.08,49.3,204,49.04z"/>
		<path class="st5" d="M157.03,228.56c-0.86,1.04-2.37,1.77-3.97,1.94c-1.6,0.17-3.25-0.23-4.36-1.06s-1.64-2.06-1.4-3.24
			c-0.62,0.91-0.88,1.93-0.86,2.93c0.02,0.97,0.24,2.04,1.08,2.79c0.02,0.02,0.04,0.03,0.05,0.05c0.45,0.39,1.04,0.68,1.7,0.86
			c0.74,0.2,1.53,0.15,2.32,0.13c1.09-0.03,2.26-0.18,3.19-0.67c0.82-0.43,1.37-1.1,1.71-1.8S156.89,229.29,157.03,228.56z"/>
		<path class="st5" d="M97.46,206.67c-0.45,2.33-2.59,4.56-5.23,5.44c-2.64,0.88-5.62,0.35-7.26-1.29c0.73,1.81,2.09,3.51,4.11,4.29
			c2.02,0.78,4.79,0.52,6.65-0.93c1.22-0.95,1.93-2.29,2.2-3.61C98.19,209.25,97.69,207.93,97.46,206.67z"/>
		<path class="st1" d="M130.58,72.39c-0.32-1.51-1.57-2.81-3.17-3.32c-1.6-0.51-3.5-0.2-4.83,0.78c0.38,1.44,1.46,2.61,2.99,3.16
			C127.09,73.54,129.18,73.2,130.58,72.39z"/>
		<path class="st47" d="M246.83,4.58c-1.14,0.59-2.04,1.61-2.5,2.8s-0.45,2.56,0.01,3.76c1.24-0.45,2.28-1.4,2.8-2.61
			S247.37,5.78,246.83,4.58z"/>
		<path class="st47" d="M108.84,190.41c1.57-1.74,4.07-2.59,6.38-2.17c2.31,0.42,4.34,2.1,5.2,4.28s0.5,4.8-0.91,6.67
			c0.69-2.71-0.48-5.8-2.62-7.6C114.73,189.8,111.39,189.25,108.84,190.41z"/>
	</g>
</g>
</svg>
