<?xml version="1.0" encoding="utf-8"?>
<!-- Generator: Adobe Illustrator 27.0.1, SVG Export Plug-In . SVG Version: 6.00 Build 0)  -->
<svg version="1.1" id="Layer_1" xmlns="http://www.w3.org/2000/svg" xmlns:xlink="http://www.w3.org/1999/xlink" x="0px" y="0px"
	 viewBox="0 0 271.8 325.59" style="enable-background:new 0 0 271.8 325.59;" xml:space="preserve">
<style type="text/css">
	.st0{fill:#0A2B17;}
	.st1{fill:#0E8042;}
	.st2{fill:#FFFFFF;}
	.st3{fill:#1A3826;}
	.st4{fill:#3D1947;}
	.st5{fill:#ECA45C;}
	.st6{fill:#D53D3D;}
	.st7{clip-path:url(#SVGID_00000130639748379125831310000016351951831956522911_);}
	.st8{fill:#802420;}
	.st9{fill:#8C5443;}
	.st10{fill:#3C1948;}
	.st11{fill:none;stroke:#3C1948;stroke-linecap:round;stroke-linejoin:round;stroke-miterlimit:10;}
	.st12{clip-path:url(#SVGID_00000017481128131304176140000000599238429831060898_);}
	.st13{fill:#802421;}
	.st14{opacity:0.29;fill:#92C9E0;}
	.st15{clip-path:url(#SVGID_00000036969373627936807710000017088397459281781142_);fill:#FFFFFF;}
	.st16{clip-path:url(#SVGID_00000036969373627936807710000017088397459281781142_);fill:#D9807E;}
	.st17{opacity:0.29;fill:#92C9E0;stroke:#FFFFFF;stroke-width:5;stroke-miterlimit:10;}
	.st18{opacity:0.29;fill:#92C9E0;stroke:#FFFFFF;stroke-miterlimit:10;}
	.st19{opacity:0.29;fill:#92C9E0;stroke:#FFFFFF;stroke-width:3;stroke-miterlimit:10;}
	.st20{fill:#934F3E;}
	.st21{clip-path:url(#SVGID_00000054947445108108124160000010603933106284737926_);fill:#41164A;}
	.st22{clip-path:url(#SVGID_00000127043482734625050050000017962440379182953141_);fill:#41164A;}
	.st23{clip-path:url(#SVGID_00000029733981782424568240000006079549835989998503_);fill:#FFFFFF;}
	.st24{clip-path:url(#SVGID_00000029733981782424568240000006079549835989998503_);fill:#41164A;}
	.st25{fill:#41164A;}
	.st26{clip-path:url(#SVGID_00000092438735127567701380000008069288338076249775_);fill:#FFFFFF;}
	.st27{clip-path:url(#SVGID_00000092438735127567701380000008069288338076249775_);fill:#E47D7A;}
	.st28{fill:none;}
	.st29{fill:#E09F9E;}
	.st30{fill:#CB8080;}
	.st31{clip-path:url(#SVGID_00000103230383178686032170000013517925961303316874_);fill:#E09F9E;}
	.st32{fill:#3C1947;}
	.st33{fill:#EAC5B1;}
	.st34{clip-path:url(#SVGID_00000049187666985540654900000008719049123934119072_);fill:#CB8080;}
	.st35{fill:#0B8043;}
	.st36{fill:#DBDBDA;}
	.st37{clip-path:url(#SVGID_00000037668316516090060630000002135239070522850981_);fill:#C2C1C1;}
	.st38{clip-path:url(#SVGID_00000088123412278849093130000007422088836480417967_);fill:#C2C1C1;}
	.st39{clip-path:url(#SVGID_00000074419269542692537690000006613255955418184368_);}
	.st40{fill:#C2C1C1;}
	.st41{clip-path:url(#SVGID_00000146497291227808826880000001194643639493491370_);fill:#C2C1C1;}
	.st42{clip-path:url(#SVGID_00000096025002703978837220000016648145180643105434_);fill:#C2C1C1;}
	.st43{clip-path:url(#SVGID_00000152952333914793414290000017712205490086931600_);fill:#0B8043;}
	.st44{clip-path:url(#SVGID_00000104690605328088555880000011195515557490287798_);fill:#0B8043;}
	.st45{fill:#A55933;}
	.st46{fill:#803C26;}
	.st47{fill:#C64B45;}
	.st48{fill:#8B3A37;}
	.st49{clip-path:url(#SVGID_00000177461189389845061490000010429953889625722281_);}
	.st50{clip-path:url(#SVGID_00000092415170394045763720000017225932516115836824_);}
	.st51{clip-path:url(#SVGID_00000159439146549672904790000008081470317989112713_);}
	.st52{clip-path:url(#SVGID_00000108267866158551883100000016734250139373880469_);}
	.st53{clip-path:url(#SVGID_00000126313358797387333600000005422371955279110530_);}
	.st54{clip-path:url(#SVGID_00000096031853338966570090000013294919254228743081_);}
	.st55{clip-path:url(#SVGID_00000151515267412141398320000017677837110942130353_);fill:#41164A;}
	.st56{clip-path:url(#SVGID_00000129912487762174288770000017426179519418288259_);fill:#41164A;}
	.st57{clip-path:url(#SVGID_00000026159769300283683030000006443079760501798828_);fill:#FFFFFF;}
	.st58{clip-path:url(#SVGID_00000026159769300283683030000006443079760501798828_);fill:#41164A;}
	.st59{clip-path:url(#SVGID_00000131363089699398757170000012250759493809514627_);fill:#FFFFFF;}
	.st60{clip-path:url(#SVGID_00000131363089699398757170000012250759493809514627_);fill:#E47D7A;}
	.st61{fill:#C28F5D;}
	.st62{fill:#375A42;}
	.st63{clip-path:url(#SVGID_00000023260210282687061880000001255327111227380122_);fill:#6AA17A;}
	.st64{clip-path:url(#SVGID_00000170239041577046883370000000436507094542223240_);fill:#6AA17A;}
	.st65{fill:#6AA17A;}
	.st66{clip-path:url(#SVGID_00000083788011151857136390000009693999933535216532_);fill:#3D1947;}
	.st67{clip-path:url(#SVGID_00000081636905178669335650000014989386159666237061_);fill:#8B3A37;}
	.st68{clip-path:url(#SVGID_00000100375432339041181270000016563194903725066393_);}
	.st69{clip-path:url(#SVGID_00000086649839661979838120000015378584977828716197_);fill:#FFFFFF;}
	.st70{clip-path:url(#SVGID_00000086649839661979838120000015378584977828716197_);fill:#D9807E;}
	.st71{clip-path:url(#SVGID_00000165196411452836018970000000981497928985537679_);fill:#41164A;}
	.st72{clip-path:url(#SVGID_00000000185411702327293120000007018758629261599625_);fill:#41164A;}
	.st73{clip-path:url(#SVGID_00000132081830783859557690000008783670420262790582_);fill:#FFFFFF;}
	.st74{clip-path:url(#SVGID_00000132081830783859557690000008783670420262790582_);fill:#41164A;}
	.st75{clip-path:url(#SVGID_00000161628088442371068860000001282176182960467870_);fill:#FFFFFF;}
	.st76{clip-path:url(#SVGID_00000161628088442371068860000001282176182960467870_);fill:#E47D7A;}
	.st77{fill:#D2687C;}
	.st78{clip-path:url(#SVGID_00000023989013656379331810000004404879129441826481_);fill:#C64B45;}
	.st79{fill:#D1544C;}
	.st80{clip-path:url(#SVGID_00000117654052303027483840000010140516537734759593_);}
	.st81{clip-path:url(#SVGID_00000137116948274327312900000015697541939234127030_);}
	.st82{fill:#DADAD9;}
	.st83{clip-path:url(#SVGID_00000075142136240228130090000008649592926210064768_);fill:#0E8042;}
	.st84{clip-path:url(#SVGID_00000075142136240228130090000008649592926210064768_);fill:#1A3826;}
	.st85{clip-path:url(#SVGID_00000003084651809935589480000001386683599844775341_);fill:#0E8042;}
	.st86{clip-path:url(#SVGID_00000003084651809935589480000001386683599844775341_);fill:#1A3826;}
	.st87{fill:none;stroke:#0E8042;stroke-linecap:round;stroke-linejoin:round;stroke-miterlimit:10;}
	.st88{clip-path:url(#SVGID_00000158009021323475228950000004442926306855365022_);}
	.st89{clip-path:url(#SVGID_00000107551675380655904700000015598823964061221253_);fill:#0E8042;}
	.st90{clip-path:url(#SVGID_00000116951008575305094190000006816023559006376834_);fill:#0E8042;}
	.st91{clip-path:url(#SVGID_00000116951008575305094190000006816023559006376834_);fill:#1A3826;}
	.st92{clip-path:url(#SVGID_00000109746556026810001020000003046346790885750972_);fill:#0E8042;}
	.st93{clip-path:url(#SVGID_00000109746556026810001020000003046346790885750972_);fill:#1A3826;}
	.st94{clip-path:url(#SVGID_00000150075695112110137960000002971713356917403832_);fill:#0E8042;}
	.st95{clip-path:url(#SVGID_00000150075695112110137960000002971713356917403832_);fill:#1A3826;}
	.st96{clip-path:url(#SVGID_00000134941179230518628050000000087017888310890420_);fill:#0E8042;}
	.st97{clip-path:url(#SVGID_00000134941179230518628050000000087017888310890420_);fill:#1A3826;}
	.st98{clip-path:url(#SVGID_00000087381298402143103560000004669248193189645242_);}
	.st99{clip-path:url(#SVGID_00000175290944696000866830000012542637305535632056_);fill:#0E8042;}
	.st100{clip-path:url(#SVGID_00000175290944696000866830000012542637305535632056_);fill:#1A3826;}
	.st101{clip-path:url(#SVGID_00000078038526941132365960000010592378013408955277_);}
	.st102{clip-path:url(#SVGID_00000091701820635663944870000015798949753704131515_);fill:#FFFFFF;}
	.st103{clip-path:url(#SVGID_00000091701820635663944870000015798949753704131515_);fill:#D9807E;}
	.st104{clip-path:url(#SVGID_00000071560913346772495280000017566799919748485549_);fill:#41164A;}
	.st105{clip-path:url(#SVGID_00000095339987638865891000000017273457460493498247_);fill:#41164A;}
	.st106{clip-path:url(#SVGID_00000074420317731650846080000010027841568500271508_);fill:#FFFFFF;}
	.st107{clip-path:url(#SVGID_00000074420317731650846080000010027841568500271508_);fill:#41164A;}
	.st108{clip-path:url(#SVGID_00000057829844638467569520000004229875597816247709_);fill:#FFFFFF;}
	.st109{clip-path:url(#SVGID_00000057829844638467569520000004229875597816247709_);fill:#E47D7A;}
	.st110{clip-path:url(#SVGID_00000054267486444238210160000006207136662931828642_);fill:#E09F9E;}
	.st111{clip-path:url(#SVGID_00000158741733683621258360000012833113931099103637_);fill:#CB8080;}
	.st112{clip-path:url(#SVGID_00000107585828647808650230000011854060303289235866_);fill:#C2C1C1;}
	.st113{clip-path:url(#SVGID_00000106138280081243108970000011791492694595623064_);fill:#C2C1C1;}
	.st114{clip-path:url(#SVGID_00000070108561818442122550000018426183844220400570_);}
	.st115{clip-path:url(#SVGID_00000137828107449274359190000010444461809657367694_);fill:#C2C1C1;}
	.st116{clip-path:url(#SVGID_00000067927173259462098440000011983785995671337867_);fill:#C2C1C1;}
	.st117{clip-path:url(#SVGID_00000133490506916508800140000015229564709811695794_);fill:#0B8043;}
	.st118{clip-path:url(#SVGID_00000133526108834540735050000001436367733560647810_);fill:#0B8043;}
	.st119{clip-path:url(#SVGID_00000030476574469330231830000012143206000858810541_);}
	.st120{clip-path:url(#SVGID_00000012471476494246323840000005959024726759022512_);}
	.st121{clip-path:url(#SVGID_00000122693320471813805810000007559835208326049435_);}
	.st122{clip-path:url(#SVGID_00000088841816919018407390000006434276834498354826_);}
	.st123{clip-path:url(#SVGID_00000063603471982045666120000018261158854505014437_);}
	.st124{clip-path:url(#SVGID_00000118371280951617396890000010565213312986202768_);}
	.st125{clip-path:url(#SVGID_00000089576582343382921420000014497091640138178196_);fill:#0E8042;}
	.st126{clip-path:url(#SVGID_00000089576582343382921420000014497091640138178196_);fill:#1A3826;}
	.st127{clip-path:url(#SVGID_00000049212843534063460430000013066208005457228217_);}
	.st128{clip-path:url(#SVGID_00000147905517386073384150000007324643128102062228_);fill:#FFFFFF;}
	.st129{clip-path:url(#SVGID_00000147905517386073384150000007324643128102062228_);fill:#D9807E;}
	.st130{clip-path:url(#SVGID_00000142134702280364886310000010994945532759623555_);fill:#41164A;}
	.st131{clip-path:url(#SVGID_00000166659880105930978160000016853536256248422290_);fill:#41164A;}
	.st132{clip-path:url(#SVGID_00000047046978985984408330000004712379523257702330_);fill:#FFFFFF;}
	.st133{clip-path:url(#SVGID_00000047046978985984408330000004712379523257702330_);fill:#41164A;}
	.st134{clip-path:url(#SVGID_00000028298964139108083750000011125698375782663322_);fill:#FFFFFF;}
	.st135{clip-path:url(#SVGID_00000028298964139108083750000011125698375782663322_);fill:#E47D7A;}
	.st136{clip-path:url(#SVGID_00000170239629215320403910000001622104991553972146_);fill:#C64B45;}
	.st137{clip-path:url(#SVGID_00000018916905378537035130000013804062759419860368_);}
	.st138{clip-path:url(#SVGID_00000064322156301280902690000014506944418771668627_);}
	.st139{clip-path:url(#SVGID_00000133504812769298512210000005515220313557737109_);fill:#0E8042;}
	.st140{clip-path:url(#SVGID_00000133504812769298512210000005515220313557737109_);fill:#1A3826;}
	.st141{clip-path:url(#SVGID_00000175289695690643428990000008123566297399019701_);fill:#0E8042;}
	.st142{clip-path:url(#SVGID_00000175289695690643428990000008123566297399019701_);fill:#1A3826;}
	.st143{clip-path:url(#SVGID_00000160879031174088937030000009742265599965825929_);fill:#0E8042;}
	.st144{clip-path:url(#SVGID_00000160879031174088937030000009742265599965825929_);fill:#1A3826;}
	.st145{clip-path:url(#SVGID_00000036211952312503295670000005803144143981212598_);}
	.st146{clip-path:url(#SVGID_00000168800067292905359500000014956972747543566505_);}
	.st147{clip-path:url(#SVGID_00000119828761258758565540000016652630646192993722_);}
	.st148{clip-path:url(#SVGID_00000011720520439894119440000011897834240959315108_);}
	.st149{clip-path:url(#SVGID_00000042729648177570820350000009278685596012388274_);}
	.st150{clip-path:url(#SVGID_00000157297075398362236990000015522554573760641178_);}
	.st151{clip-path:url(#SVGID_00000122683011569792489510000010288074637765254324_);fill:#FFFFFF;}
	.st152{clip-path:url(#SVGID_00000122683011569792489510000010288074637765254324_);fill:#8B3A37;}
	.st153{fill:#DF9E9E;}
	.st154{fill:#C98080;}
	.st155{fill:#DFD5E2;}
	.st156{clip-path:url(#SVGID_00000005974779913300335040000005586175694458506372_);fill:#DF9E9E;}
	.st157{fill:#E9C4B0;}
	.st158{clip-path:url(#SVGID_00000132808031645920706850000015632792450799068087_);fill:#C98080;}
	.st159{clip-path:url(#SVGID_00000043435367359087918660000001767481682212731521_);fill:#C1C0C0;}
	.st160{clip-path:url(#SVGID_00000133520294120772088460000017939463744707282106_);fill:#C1C0C0;}
	.st161{clip-path:url(#SVGID_00000097493765616715477720000015038824521706535096_);}
	.st162{fill:#C1C0C0;}
	.st163{clip-path:url(#SVGID_00000047741282498217053050000007686637277178468754_);fill:#C1C0C0;}
	.st164{clip-path:url(#SVGID_00000052073104005558924750000018114920077791436986_);fill:#C1C0C0;}
	.st165{clip-path:url(#SVGID_00000137822113157401053410000006368400613253627820_);fill:#0E8042;}
	.st166{clip-path:url(#SVGID_00000017488536993679166010000007785525983367314336_);fill:#0E8042;}
	.st167{fill:#7F2420;}
	.st168{clip-path:url(#SVGID_00000078726760607810900700000012840752481189617034_);fill:#FFFFFF;}
	.st169{clip-path:url(#SVGID_00000078726760607810900700000012840752481189617034_);fill:#D8807E;}
	.st170{fill:#7F2421;}
	.st171{clip-path:url(#SVGID_00000084508361423707454250000007844555782717575602_);fill:#ECA45C;}
	.st172{clip-path:url(#SVGID_00000164489552063775178010000017224605383134067855_);fill:#0E8042;}
	.st173{clip-path:url(#SVGID_00000164489552063775178010000017224605383134067855_);fill:#1A3826;}
	.st174{clip-path:url(#SVGID_00000146471219369355531040000015394272068821055934_);fill:#0E8042;}
	.st175{clip-path:url(#SVGID_00000146471219369355531040000015394272068821055934_);fill:#1A3826;}
	.st176{clip-path:url(#SVGID_00000089574693595017820590000013237184838420864676_);fill:#0E8042;}
	.st177{clip-path:url(#SVGID_00000089574693595017820590000013237184838420864676_);fill:#1A3826;}
	.st178{clip-path:url(#SVGID_00000015336687573500923730000004066207392814080952_);fill:#0E8042;}
	.st179{clip-path:url(#SVGID_00000015336687573500923730000004066207392814080952_);fill:#1A3826;}
	.st180{clip-path:url(#SVGID_00000024713080959158456240000003577214994891106208_);fill:#0E8042;}
	.st181{clip-path:url(#SVGID_00000024713080959158456240000003577214994891106208_);fill:#1A3826;}
	.st182{clip-path:url(#SVGID_00000086662437159930947480000005797808415950935966_);fill:#0E8042;}
	.st183{clip-path:url(#SVGID_00000086662437159930947480000005797808415950935966_);fill:#1A3826;}
	.st184{clip-path:url(#SVGID_00000137125261550572415970000018095776546067319711_);fill:#0E8042;}
	.st185{clip-path:url(#SVGID_00000137125261550572415970000018095776546067319711_);fill:#1A3826;}
	.st186{clip-path:url(#SVGID_00000150066769494083376050000014138813143403810206_);fill:#0E8042;}
	.st187{clip-path:url(#SVGID_00000150066769494083376050000014138813143403810206_);fill:#1A3826;}
	.st188{clip-path:url(#SVGID_00000103958152365355691320000008479734910467248522_);fill:#0E8042;}
	.st189{clip-path:url(#SVGID_00000103958152365355691320000008479734910467248522_);fill:#1A3826;}
	.st190{clip-path:url(#SVGID_00000173844607759064348370000016423773830241478546_);fill:#0E8042;}
	.st191{clip-path:url(#SVGID_00000173844607759064348370000016423773830241478546_);fill:#1A3826;}
	.st192{clip-path:url(#SVGID_00000057133645823460844090000018306899193997848970_);fill:#0E8042;}
	.st193{clip-path:url(#SVGID_00000057133645823460844090000018306899193997848970_);fill:#1A3826;}
	.st194{clip-path:url(#SVGID_00000049938191991858962410000015143945839100619659_);fill:#0E8042;}
	.st195{clip-path:url(#SVGID_00000049938191991858962410000015143945839100619659_);fill:#1A3826;}
	.st196{clip-path:url(#SVGID_00000129204331261307962180000001573502864630825406_);fill:#0E8042;}
	.st197{clip-path:url(#SVGID_00000129204331261307962180000001573502864630825406_);fill:#1A3826;}
	.st198{clip-path:url(#SVGID_00000048499633140165235960000004489643594764606115_);}
	.st199{clip-path:url(#SVGID_00000143576744140433763710000007256725448886103965_);fill:#FFFFFF;}
	.st200{clip-path:url(#SVGID_00000143576744140433763710000007256725448886103965_);fill:#D9807E;}
	.st201{clip-path:url(#SVGID_00000057130325026266216640000016882228350158755979_);fill:#41164A;}
	.st202{clip-path:url(#SVGID_00000125569220243806153670000013495492676634077348_);fill:#41164A;}
	.st203{clip-path:url(#SVGID_00000065775758787709907080000000547411135241753776_);fill:#FFFFFF;}
	.st204{clip-path:url(#SVGID_00000065775758787709907080000000547411135241753776_);fill:#41164A;}
	.st205{clip-path:url(#SVGID_00000155139836024438184490000011316522682338109099_);fill:#FFFFFF;}
	.st206{clip-path:url(#SVGID_00000155139836024438184490000011316522682338109099_);fill:#E47D7A;}
	.st207{clip-path:url(#SVGID_00000063616621422582304950000011208738470017969060_);fill:#C64B45;}
	.st208{clip-path:url(#SVGID_00000074440361503447775440000006661768585955881091_);}
	.st209{clip-path:url(#SVGID_00000116954218266825245980000007600871843531719854_);}
	.st210{clip-path:url(#SVGID_00000117677944842878791590000011991249798489892030_);fill:#6AA17A;}
	.st211{clip-path:url(#SVGID_00000018926513397564388220000011710214736441865380_);fill:#6AA17A;}
	.st212{clip-path:url(#SVGID_00000048485589342947816800000015180337416632059025_);fill:#3D1947;}
	.st213{clip-path:url(#SVGID_00000106145313158352483740000005797597075893609883_);fill:#8B3A37;}
	.st214{clip-path:url(#SVGID_00000059300041843807132840000017238098802425773723_);}
	.st215{clip-path:url(#SVGID_00000114044895906381250380000009838586484286368903_);}
	.st216{clip-path:url(#SVGID_00000160899943563172394140000006708030681400778390_);}
	.st217{clip-path:url(#SVGID_00000011014070143249937240000006313589196481940913_);}
	.st218{clip-path:url(#SVGID_00000155139407302574158000000014863440818355227043_);}
	.st219{clip-path:url(#SVGID_00000108280368818720149390000017904130600239338384_);}
	.st220{clip-path:url(#SVGID_00000085224428385796789250000006507241115111649955_);fill:#FFFFFF;}
	.st221{clip-path:url(#SVGID_00000085224428385796789250000006507241115111649955_);fill:#8B3A37;}
	.st222{clip-path:url(#SVGID_00000166660592853564287490000013652984008449765257_);fill:#DF9E9E;}
	.st223{clip-path:url(#SVGID_00000089572144974474515400000009961930883672296888_);fill:#C98080;}
	.st224{clip-path:url(#SVGID_00000042009903942875901680000012048210091298930081_);fill:#C1C0C0;}
	.st225{clip-path:url(#SVGID_00000027568510469189272770000005259073227752595618_);fill:#C1C0C0;}
	.st226{clip-path:url(#SVGID_00000011738819241285863960000015911282361561639579_);}
	.st227{clip-path:url(#SVGID_00000119829395899598170820000010980042117471454610_);fill:#C1C0C0;}
	.st228{clip-path:url(#SVGID_00000128461014190932044050000000488257411051500195_);fill:#C1C0C0;}
	.st229{clip-path:url(#SVGID_00000033332418104529645440000005513373016892092345_);fill:#0E8042;}
	.st230{clip-path:url(#SVGID_00000003822757928551597050000004067101075550284956_);fill:#0E8042;}
	.st231{clip-path:url(#SVGID_00000085933045585252634840000001446103447138838656_);fill:#FFFFFF;}
	.st232{clip-path:url(#SVGID_00000085933045585252634840000001446103447138838656_);fill:#D8807E;}
	.st233{clip-path:url(#SVGID_00000009571836594510882170000018034626618207996296_);fill:#ECA45C;}
</style>
<g>
	<path class="st5" d="M253.95,142.79c0.98,0.01,1.95,0.01,2.93,0.02c-4.52,5.33-12.25,7.7-18.98,5.81
		c-1.14,6.86,0.18,14.22,3.47,20.36c0.92,1.71,2.04,3.69,1.3,5.5c-0.78,1.91-3.16,2.49-5.21,2.68c-10.06,0.93-19.52-1.92-29.35-3.18
		c-10.6-1.37-21.57,0.19-31.32,4.6c-4.22,1.91-8.23,4.33-12.62,5.85c-4.39,1.52-9.35,2.05-13.58,0.12
		c-4.22-1.92-7.28-6.82-5.98-11.27c-6.27,3.67-14.42,3.91-20.9,0.6c1.73-0.67,3.47-1.34,5.2-2.01c-9.18-0.38-17.95-6.12-21.98-14.38
		c3.47,0.44,6.99,0.88,10.47,0.46c3.48-0.42,6.97-1.8,9.26-4.44c2.99-3.44,3.45-8.34,3.79-12.88c1.1-15.15,2.22-30.3,3.33-45.45
		c1.22-16.66-4.41-33.33-10.01-49.26c-0.6-1.68-1.18-3.35-1.77-5.01c-1.52-4.33-0.31-9.5,2.98-12.71c-1.97,1.04-3.94,2.07-5.9,3.11
		c0.21-1.91,1.16-3.72,2.6-4.97c-3.25,1.21-5.84,4.01-6.8,7.34c-0.07-1.27-0.04-2.52,0.08-3.78c0.91-9.93,7.44-19.27,16.63-23.24
		c6.23-2.69,13.2-2.31,18.94,1.32c0.22,0.14,3.99-3.53,4.41-3.89c7.85-6.68,23.08-4.03,31.46,0.13
		c12.37,6.14,20.92,20.46,24.63,33.44c2.21-1.32,3.91-3.48,4.67-5.94c0.3-0.96,0.61-2.14,1.57-2.44c0.83-0.26,1.74,0.34,2.11,1.12
		c0.38,0.79,0.35,1.69,0.32,2.56c-0.29,6.36-1.17,12.7-2.62,18.9c1.31-1.2,1.77-2.97,2.47-4.58c0.14-0.33,0.33-0.7,0.68-0.77
		c0.31-0.06,0.63,0.18,0.76,0.46c0.14,0.29,0.13,0.63,0.13,0.95c-0.09,2.87-0.78,5.51-1.71,8.2c-0.88,2.55-1.43,5.13-2.65,7.61
		c3.47,0.78,6.45,2.86,9.11,5.22c2.66,2.36,5.08,5.01,7.94,7.12c2.85,2.11,6.29,3.69,9.85,3.52c0.96-0.05,1.93-0.23,2.89-0.12
		c0.96,0.11,1.95,0.59,2.35,1.46c0.4,0.88-0.11,2.15-1.07,2.24c3.89-0.23,7.58-2.56,9.46-5.97c0.24-0.43,0.46-0.9,0.82-1.24
		c0.36-0.35,0.91-0.54,1.36-0.34c0.81,0.36,0.69,1.52,0.45,2.37c-0.65,2.24-1.31,4.47-1.96,6.7c0.87-0.33,1.77,0.63,2.02,1.53
		c1.2,4.35-3.26,13-5.32,16.7c-3.05,5.47-7.29,10.27-12.41,13.86c3.37,3.3,5.37,7.74,8.43,11.33c3.05,3.59,8,6.39,12.39,4.67
		C261.58,137.17,258.19,140.9,253.95,142.79z"/>
	<path class="st61" d="M166.43,10.35c-5.48-0.99-11.4,2.74-12.87,8.1c-0.18,0.66-0.3,1.36-0.12,2.01c0.39,1.44,1.98,2.15,3.42,2.56
		c5.24,1.51,10.85,1.71,16.19,0.6c2.57-0.54,2.93-1.41,2.46-3.96c-0.39-2.1-2.24-4.5-3.65-6.1
		C170.22,11.73,168.86,10.8,166.43,10.35z"/>
	<path class="st61" d="M151.3,23.63l-2.63,3.74c-3.62,7.73-10.52,13.87-18.37,17.19c-2.05,0.87-4.27,1.55-6.5,1.36
		c-0.01,0-0.02,0-0.04-0.01c-0.6-1.68-1.18-3.35-1.77-5.01c-1.52-4.33-0.31-9.5,2.98-12.71c-1.97,1.04-3.94,2.07-5.9,3.11
		c0.21-1.91,1.16-3.72,2.6-4.97c-3.25,1.21-5.84,4.01-6.8,7.34c-0.07-1.27-0.04-2.52,0.08-3.78c0.57-1.04,1.27-2.02,1.99-2.95
		c3.61-4.61,8.18-8.54,13.58-10.79c5.4-2.24,11.66-2.67,17.1-0.55c1.68,0.65,3.35,1.6,4.26,3.15
		C152.81,20.29,152.72,22.52,151.3,23.63z"/>
	<path class="st61" d="M207.83,49.88c0.73-0.02,1.46-0.09,2.18-0.22c3.01-0.52,5.9-2.06,7.72-4.51c1.03-1.39,1.7-3.02,2.82-4.33
		c1.13-1.31,2.96-2.26,4.57-1.62c1.59,0.63,2.27,2.47,2.68,4.13c1.13,4.64,1.45,9.82-1.01,13.91c-1.31,2.17-3.29,3.84-5.04,5.67
		c-2.5,2.61-4.62,5.72-5.36,9.25c-0.47,2.23-0.31,4.64,0.56,6.76c0.99,2.4,2.49,3.41,4.76,4.46c4.88,2.26,10.13,3.74,15.47,4.33
		c1.09,0.12,2.25,0.23,3.1,0.92c0.85,0.68,1.14,2.18,0.27,2.83c-0.92,0.69-2.42,0.03-3.29,0.78c-0.68,0.59-0.5,1.78,0.15,2.41
		c0.65,0.63,1.6,0.83,2.49,0.94c1.59,0.19,3.47,0.3,5.03-0.12c1.64-0.43,3.26-1.27,4.84-1.89c0.27-0.11,0.58-0.21,0.84-0.07
		c0.25,0.14,0.33,0.47,0.36,0.76c0.19,2.31-1.49,4.02-3.08,5.43c-1.9,1.69-3.96,3.1-6.29,4.12c-4.61,2.02-9.9,2.56-14.79,1.28
		c0.32,0.08,1.79,5.57,2.1,6.29c0.96,2.19,2.11,4.29,3.38,6.31c2.53,4.04,5.4,8.09,8.87,11.37c1.41,1.33,2.98,2.5,4.65,3.48
		c0.49,0.28,4.57,2.62,4.94,2.21c-1.78,2.02-4.72,2.68-7.39,2.37c-2.67-0.31-5.16-1.47-7.6-2.62c0.62,2.09,2.17,3.54,4.1,4.43
		c1.02,0.47,1.88,0.74,3.02,0.79c0.48,0.02,3.6,0.23,3.82-0.15c-1.84,3.21-5.8,5.07-9.45,4.44c-1.47-0.25-2.86-0.86-4.32-1.18
		c-1.46-0.32-3.11-0.31-4.31,0.58c-1.11,0.81-1.65,2.24-1.71,3.61c-0.26,5.75,2.6,11.91,4.22,17.33c0.37,1.22,0.7,2.65-0.06,3.67
		c-1.01,1.35-3.09,0.99-4.7,0.47c-9.34-3-19.05-6.84-24.92-14.69c-3.46-4.63-5.28-10.25-7.03-15.75
		c-8.02-25.19-16.14-50.98-15.32-77.4c0.08-2.7,0.55-5.69,2.8-7.46c2.7-2.11,5.74-4.92,8.93-6.23c3.13-1.29,7.22,0.92,10.15,1.85
		C203.19,49.54,205.52,49.95,207.83,49.88z"/>
	<g>
		<defs>
			<path id="SVGID_00000083787558758224285120000000511163917937165205_" d="M121.99,40.9c-1.52-4.33-0.31-9.5,2.98-12.71
				c-1.97,1.04-3.93,2.07-5.9,3.11c0.21-1.9,1.16-3.71,2.6-4.97c-3.24,1.21-5.84,4.01-6.8,7.34c-0.63-11.26,6.36-22.55,16.71-27.02
				c6.23-2.69,13.2-2.31,18.95,1.32c0.22,0.14,3.99-3.53,4.41-3.89c7.85-6.68,23.08-4.04,31.46,0.12
				c12.37,6.14,20.92,20.46,24.62,33.44c2.21-1.32,3.91-3.48,4.68-5.94c0.3-0.97,0.61-2.14,1.57-2.45c0.83-0.26,1.73,0.34,2.11,1.12
				c0.38,0.78,0.35,1.69,0.31,2.56c-0.29,6.36-1.17,12.7-2.61,18.9c1.31-1.2,1.77-2.97,2.46-4.58c0.14-0.33,0.33-0.7,0.69-0.77
				c0.31-0.06,0.63,0.17,0.76,0.46s0.13,0.62,0.12,0.94c-0.09,2.87-0.78,5.52-1.71,8.21c-0.88,2.55-1.43,5.12-2.65,7.61
				c3.47,0.78,6.46,2.86,9.11,5.22s5.08,5,7.93,7.12c2.86,2.11,6.29,3.7,9.85,3.52c0.97-0.05,1.93-0.23,2.89-0.11
				c0.96,0.11,1.95,0.59,2.35,1.47s-0.11,2.14-1.07,2.24c3.88-0.23,7.58-2.57,9.46-5.97c0.24-0.43,0.46-0.89,0.82-1.24
				c0.36-0.34,0.91-0.54,1.36-0.34c0.81,0.36,0.69,1.53,0.44,2.37c-0.65,2.23-1.31,4.46-1.96,6.69c0.87-0.33,1.78,0.63,2.02,1.53
				c1.2,4.35-3.26,13-5.32,16.7c-3.04,5.46-7.29,10.26-12.41,13.86c3.37,3.3,5.37,7.74,8.43,11.33s8,6.39,12.39,4.67
				c-1.46,4.41-4.85,8.14-9.09,10.03c0.97,0.01,1.95,0.02,2.92,0.02c-4.52,5.33-12.25,7.7-18.98,5.8
				c-1.14,6.86,0.17,14.23,3.46,20.36c0.92,1.72,2.04,3.69,1.3,5.5c-0.78,1.9-3.16,2.48-5.21,2.67
				c-10.06,0.94-19.52-1.91-29.35-3.18c-10.59-1.36-21.57,0.19-31.31,4.6c-4.23,1.91-8.23,4.34-12.62,5.85
				c-4.39,1.51-9.36,2.04-13.58,0.12c-4.22-1.92-7.28-6.82-5.98-11.28c-6.27,3.68-14.43,3.91-20.9,0.61
				c1.73-0.67,3.47-1.34,5.2-2.01c-9.18-0.39-17.95-6.12-21.98-14.38c3.48,0.44,6.99,0.88,10.47,0.46c3.48-0.42,6.97-1.79,9.26-4.44
				c2.98-3.45,3.45-8.33,3.78-12.88c1.11-15.15,2.22-30.3,3.33-45.45C135.12,76.75,128.1,58.33,121.99,40.9z"/>
		</defs>
		<clipPath id="SVGID_00000096755771441324316160000002572248378572565897_">
			<use xlink:href="#SVGID_00000083787558758224285120000000511163917937165205_"  style="overflow:visible;"/>
		</clipPath>
	</g>
	<path class="st62" d="M229.46,277.42c3.18,1.66,6.87,4.26,6.3,7.8c-0.23,1.45-1.33,3.11-2.36,4.14c-1.14,1.14-2.74,1.84-3.51,3.32
		c-0.73,1.39-0.47,3.06-0.19,4.6c0.91,5.08,1.83,10.15,2.74,15.23c0.4,2.24,0.98,4.53,1.2,6.78c0.18,1.85,1.36,3.58,3.18,4.18
		c1.9,0.63,3.96-0.03,5.93-0.35c6.38-1.04,12.93,1.43,19.32,0.43c1.84-0.29,3.08-1.45,3.63-3.22c0.6,0.18,2,0.13,2.16,0.08
		c0.78-0.24,1.43-0.75,1.9-1.41c1.07-1.49,1.47-3.19,1.74-4.98c0.55-3.6,0.68-8.13-2.49-9.91c-3.31-1.86-7.17,0.88-10.81,1.95
		c-5.9,1.72-12.84-1.82-14.9-7.61c8.75-1.65,16.02-9.32,17.21-18.14c0.58-4.35-0.18-8.77-1.16-13.05
		c-3.97-17.41-11.44-34.01-21.85-48.51c-4.39-6.12-9.57-12.08-16.52-14.96c-6.95-2.89-16.05-1.81-20.52,4.25
		c-1.71,2.31-2.61,5.12-3.26,7.92c-2.15,9.35-1.43,19.26,1.65,28.32c3.33,9.81,9.22,16.62,16.23,23.93
		C219.18,272.49,224.18,274.67,229.46,277.42z"/>
	<path class="st1" d="M101.58,234.66c-1.9,0.77-3.79,1.55-5.72,2.28c-3.78,1.43-7.63,2.7-11.52,3.8c-7.71,2.18-15.6,3.69-23.56,4.51
		c-2.42,0.25-5.05,0.39-7.08-0.94c-2.3-1.5-3.16-4.4-3.73-7.08c-1.43-6.83-2.01-13.92-0.76-20.79c1.24-6.87,4.41-13.51,9.59-18.18
		s12.5-7.15,19.34-5.78c4.87,0.98,9.75,4.59,10.02,9.56c0.08,1.49,0.24,3.6,1.73,3.63c0.91,0.02,1.54-0.9,1.9-1.74
		c2.22-5.09,1.37-11.23-1.57-15.95c-2.93-4.72-7.74-8.09-12.97-9.97c-5.23-1.88-10.87-2.37-16.42-2.23
		C30.08,176.6,9.3,204.52,2.04,232.06c-4.86,18.43-1.17,39.86,12.62,53.02c12.52,11.95,30.83,15.37,48.1,16.47
		c20.34,1.29,40.84,0.11,60.9-3.51c16.06-2.9,31.96-10.44,38.23-26.62c4.42-11.41,2.22-25.45-6.46-34.07
		c-6.55-6.51-16.05-9.5-25.28-9.41c-6,0.06-11.95,1.13-17.71,2.77C108.7,231.78,105.14,233.21,101.58,234.66z"/>
	<g>
		<defs>
			<path id="SVGID_00000111159083198592542240000016679365890274744727_" d="M101.58,234.66c-1.9,0.77-3.79,1.55-5.72,2.28
				c-3.78,1.43-7.63,2.7-11.52,3.8c-7.71,2.18-15.6,3.69-23.56,4.51c-2.42,0.25-5.05,0.39-7.08-0.94c-2.3-1.5-3.16-4.4-3.73-7.08
				c-1.43-6.83-2.01-13.92-0.76-20.79c1.24-6.87,4.41-13.51,9.59-18.18s12.5-7.15,19.34-5.78c4.87,0.98,9.75,4.59,10.02,9.56
				c0.08,1.49,0.24,3.6,1.73,3.63c0.91,0.02,1.54-0.9,1.9-1.74c2.22-5.09,1.37-11.23-1.57-15.95c-2.93-4.72-7.74-8.09-12.97-9.97
				c-5.23-1.88-10.87-2.37-16.42-2.23C30.08,176.6,9.3,204.52,2.04,232.06c-4.86,18.43-1.17,39.86,12.62,53.02
				c12.52,11.95,30.83,15.37,48.1,16.47c20.34,1.29,40.84,0.11,60.9-3.51c16.06-2.9,31.96-10.44,38.23-26.62
				c4.42-11.41,2.22-25.45-6.46-34.07c-6.55-6.51-16.05-9.5-25.28-9.41c-6,0.06-11.95,1.13-17.71,2.77
				C108.7,231.78,105.14,233.21,101.58,234.66z"/>
		</defs>
		<clipPath id="SVGID_00000046308354025151548060000012994342886488275629_">
			<use xlink:href="#SVGID_00000111159083198592542240000016679365890274744727_"  style="overflow:visible;"/>
		</clipPath>
		<path style="clip-path:url(#SVGID_00000046308354025151548060000012994342886488275629_);fill:#6AA17A;" d="M28.44,270.87
			c-17.32-9.81-22.29-28.89-19.6-47.67c1.41-9.82,5-19.34,10.58-27.55c-3.37-0.95-7.06,0.54-9.59,2.96
			c-2.53,2.42-4.11,5.65-5.54,8.84c-2.17,4.86-3.52,10.42-6.01,15.05c-2.48,4.61-5.06,8.67-6.53,13.79
			c-2.69,9.3-2.97,19.1-3.23,28.78c-0.24,9.09-0.34,18.75,4.4,26.51c3.84,6.28,10.46,10.47,17.44,12.76
			c6.99,2.3,14.41,2.89,21.75,3.39c7.19,0.49,14.51,1,21.71,0.32c10.44-0.99,19.76-2.64,30.31-2.55c10.57,0.09,21.15,0,31.7-0.59
			c12.37-0.68,25.06-1.93,36.09-7.55c11.03-5.62,20.16-16.58,20.19-28.96c0.03-12.59-10.45-24.35-22.96-25.76
			c-13.14-1.48-25.03,6.98-36.37,13.8C89.37,270.54,53.72,285.19,28.44,270.87z"/>
	</g>
	<path class="st5" d="M97.08,221.06c-0.58-0.41-1.22-0.84-1.93-0.79c-1.34,0.1-1.9,1.72-2.15,3.04c-0.69,3.61-1.37,7.22-2.06,10.83
		c-0.46,2.41-0.81,5.23,0.85,7.03c1.33,1.45,3.56,1.7,5.5,1.32c3.12-0.61,5.93-2.67,7.45-5.46c1.41-2.58,2.03-6.75,0.61-9.48
		C103.91,224.77,99.53,222.81,97.08,221.06z"/>
	<path class="st61" d="M131.15,159.96c8.02,2.23,16.83,1.52,24.4-1.95c0,4.68-4.08,9.37-2.01,13.56c0.98,1.99,3.2,3.17,5.41,3.34
		s4.41-0.53,6.4-1.51c8.96-4.44,14.27-15.25,12.3-25.05c-1.59-7.92-9.02-16.89-17.54-17.74c-4.02-0.4-6.24,2.11-8.05,5.38
		c-2.46,4.43-4.66,8.73-7.93,12.65C140.44,153.08,136.05,156.93,131.15,159.96z"/>
	<path class="st5" d="M70.91,234.65c0.34-0.71,0.74-1.48,1.48-1.75c1.15-0.44,2.31,0.56,3.14,1.47c1.66,1.82,3.33,3.64,4.99,5.46
		c1.04,1.14,2.15,2.5,1.91,4.02c-0.15,0.94-0.82,1.73-1.63,2.24s-1.74,0.76-2.67,0.97c-3.61,0.83-7.34,1.13-11.04,0.88
		c-0.56-0.04-1.17-0.11-1.59-0.49c-1.05-0.97,1.48-4.63,1.97-5.63C68.62,239.42,69.76,237.04,70.91,234.65z"/>
	<path class="st5" d="M47.01,244.88c-0.82-0.3-2.69-0.87-3.04-1.79c-0.33-0.89,0.57-2.09,1.07-2.72c1.36-1.72,3.24-2.88,4.82-4.36
		c0.96-0.9,2.14-1.87,3.43-1.63c0.8,0.15,1.46,0.75,1.86,1.46c0.41,0.71,0.6,1.51,0.79,2.3c0.4,1.67,0.79,3.33,1.19,5
		c0.25,1.03,0.43,2.28-0.33,3.02c-0.61,0.58-1.57,0.57-2.41,0.48C51.88,246.34,49.39,245.76,47.01,244.88z"/>
	<g>
		<defs>
			<path id="SVGID_00000109020438902733417730000006657572983571383977_" d="M229.46,277.42c3.18,1.66,6.87,4.26,6.3,7.8
				c-0.23,1.45-1.33,3.11-2.36,4.14c-1.14,1.14-2.74,1.84-3.51,3.32c-0.73,1.39-0.47,3.06-0.19,4.6c0.91,5.08,1.83,10.15,2.74,15.23
				c0.4,2.24,0.98,4.53,1.2,6.78c0.18,1.85,1.36,3.58,3.18,4.18c1.9,0.63,3.96-0.03,5.93-0.35c6.38-1.04,12.93,1.43,19.32,0.43
				c1.84-0.29,3.08-1.45,3.63-3.22c0.6,0.18,2,0.13,2.16,0.08c0.78-0.24,1.43-0.75,1.9-1.41c1.07-1.49,1.47-3.19,1.74-4.98
				c0.55-3.6,0.68-8.13-2.49-9.91c-3.31-1.86-7.17,0.88-10.81,1.95c-5.9,1.72-12.84-1.82-14.9-7.61
				c8.75-1.65,16.02-9.32,17.21-18.14c0.58-4.35-0.18-8.77-1.16-13.05c-3.97-17.41-11.44-34.01-21.85-48.51
				c-4.39-6.12-9.57-12.08-16.52-14.96c-6.95-2.89-16.05-1.81-20.52,4.25c-1.71,2.31-2.61,5.12-3.26,7.92
				c-2.15,9.35-1.43,19.26,1.65,28.32c3.33,9.81,9.22,16.62,16.23,23.93C219.18,272.49,224.18,274.67,229.46,277.42z"/>
		</defs>
		<clipPath id="SVGID_00000119811113616435103580000013655984904098987960_">
			<use xlink:href="#SVGID_00000109020438902733417730000006657572983571383977_"  style="overflow:visible;"/>
		</clipPath>
		<path style="clip-path:url(#SVGID_00000119811113616435103580000013655984904098987960_);fill:#6AA17A;" d="M241.74,282.92
			c1.46-1.51,1.11-3.95,0.6-5.99c-3.52-13.99-10.21-27.17-19.43-38.27c-1.15-1.38-2.36-2.75-3.89-3.68
			c-1.54-0.93-3.46-1.37-5.15-0.76c-1.77,0.63-3,2.32-3.56,4.11s-0.53,3.71-0.46,5.59c0.21,5.64,0.77,11.26,1.68,16.82
			c1.02,6.22,2.57,14.83,9.87,16.24c2.35,0.45,4.79,0.35,7.14,0.8c2.57,0.5,5,1.68,6.98,3.39c0.82,0.71,1.57,1.5,2.49,2.05
			C239.33,284.01,240.67,284.04,241.74,282.92z"/>
	</g>
	<path class="st5" d="M37.58,235.61c0.26,0.45,0.64,0.81,1.13,0.99c0.93,0.33,2.08-0.31,2.61-1.05c0.34-0.47,0.61-0.98,0.85-1.51
		c0.22-0.49,0.35-1.04,0.64-1.49c0.65-1.03,1.12-2.22,1.66-3.31c0.11-0.22,0.22-0.44,0.33-0.66c0.56-1.14,1.09-2.61,0.26-3.57
		c-0.53-0.61-1.41-0.74-2.22-0.75c-1.84-0.02-5.2,0.21-5.88,2.31c-0.61,1.89-0.43,3.99-0.15,5.92
		C36.96,233.47,37.07,234.72,37.58,235.61z"/>
	<path class="st5" d="M38.32,212.27c-0.08,0.48-0.17,0.98-0.07,1.45c0.1,0.48,0.42,0.94,0.9,1.06c0.79,0.19,1.44-0.6,1.86-1.29
		c1.4-2.25,2.8-4.5,4.19-6.75c0.55-0.88,1.12-1.86,0.96-2.89c-0.17-1.12-1.19-1.96-2.29-2.25c-2.28-0.61-3.66-0.11-4.07,2.13
		C39.29,206.57,38.82,209.42,38.32,212.27z"/>
	<path class="st5" d="M51.55,192.54c-0.87,0.32-1.92,0.56-2.65-0.01c-0.52-0.41-0.71-1.14-0.62-1.79s0.39-1.26,0.7-1.84
		c1.44-2.68,3.12-5.24,5.01-7.63c0.21-0.27,0.45-0.55,0.78-0.65c0.63-0.18,1.2,0.37,1.62,0.87c0.85,1.02,1.72,2.06,2.2,3.3
		c0.35,0.89,0.48,1.93,0.21,2.86c-0.26,0.9-0.97,1.27-1.68,1.82C55.43,190.76,53.55,191.8,51.55,192.54z"/>
	<path class="st1" d="M212.17,108.17c2.06,2.4,2.86,5.81,2.1,8.88c-0.09,0.35-0.23,0.73-0.56,0.86c-0.38,0.15-0.79-0.1-1.12-0.35
		c-2.98-2.27-5.69-4.9-8.05-7.81c-0.82-1.02-2.47-2.5-1.42-3.86c0.95-1.22,2.76-1.19,4.1-0.82
		C209.13,105.59,210.88,106.67,212.17,108.17z"/>
	<path class="st5" d="M67.19,179.57c-0.26,0.64-0.17,1.47,0.39,1.87c0.42,0.3,0.99,0.28,1.51,0.25c2.48-0.16,4.96-0.32,7.45-0.48
		c0.82-0.05,1.72-0.14,2.28-0.74c0.6-0.64,0.58-1.63,0.52-2.51c-0.13-1.82,0.26-5.23-1.31-6.55c-1.05-0.88-2.24-0.07-3.12,0.65
		c-1.5,1.23-2.91,2.57-4.33,3.89C69.41,177.03,67.81,178.06,67.19,179.57z"/>
	<path class="st5" d="M91.59,182.77c1.09-0.05,2.24,0.07,2.63,0.89c0.74,1.55-1.11,3.86-1.91,5.05c-1.3,1.95-2.51,2.84-4.37,0.66
		c-0.91-1.07-3.64-3.14-2.52-4.67c0.99-1.36,2.82-1.63,4.38-1.75C90.24,182.9,90.9,182.8,91.59,182.77z"/>
	<path class="st1" d="M172.57,111.94c5.26,7.97,12.29,15.66,21.63,17.64c3.63,0.77,7.7,0.52,10.61-1.79
		c3.16-2.51,4.25-6.99,3.55-10.97s-2.92-7.51-5.41-10.69c-2.48-3.18-5.29-6.13-7.45-9.53c-3.24-5.11-4.86-11.02-5.74-16.96
		c-1.14-7.76-0.38-15.24,0.22-23.05c0.15-1.99,0.25-4.19-0.96-5.78c-3.29-4.33-9.44-0.56-12.43,2.04
		c-3.41,2.97-6.22,7.14-8.72,10.88c-2.59,3.89-4.41,8.29-5.31,12.88c-1.48,7.54,0.01,14.64,2.8,21.76
		C167.24,103.15,169.75,107.66,172.57,111.94z"/>
	<path class="st48" d="M222.35,147.47c-0.85,0.24-1.72,0.38-2.57,0.59c-2.52,0.61-5.12,1.05-7.73,0.85
		c-9.11-0.69-16.3-3.24-22.58,5.42c-2.62,3.6-4.09,7.9-5.34,12.17c-10.15,34.53-8.48,71.26-6.74,107.2
		c0.55,11.19,1.09,22.39,1.64,33.58c-3.28,0.04-6.57,0.07-9.85,0.1c-0.06,1.15-0.11,2.3-0.16,3.44c-4.04,0.53-8.1,0.87-12.16,1.02
		c-3.5,0.13-7.5,0.35-10.93-0.4c-1.45-0.31-2.87-1.1-3.6-2.38c-0.82-1.43-0.67-3.19-0.49-4.83c0.82-7.7,1.9-15.39,2.79-23.1
		c3.33-29,11.66-55.14,9.51-84.38c-4.9-2.12-11.31-0.08-18.07,3.09c7.03-10.53,14.08-21.55,21.11-32.07
		c3.47-5.2,6.97-10.48,10.32-15.75c-3.49-5.38-11.4-6.44-14.99-11.75c-1.76-2.6-2.21-5.89-2-9.02c0.21-3.13,1.02-6.19,1.6-9.28
		c1.21-6.62,2.16-14.83,1.13-21.49c2.44-2.61,6.53-3.19,9.94-2.11c3.41,1.07,6.22,3.53,8.54,6.25c0.4,0.47,0.79,0.95,1.16,1.43
		c0.07,0.18,0.13,0.35,0.19,0.52c1.78,5.15,1.6,10.77,1.7,16.15c0.09,4.99,1.13,9.81,3.83,14.15c2.16,3.47,5.75,6.33,9.84,6.52
		c3.36,0.16,6.64-1.46,9.99-1.1c2.95,0.32,5.51,2.13,8.31,3.13c3.41,1.22,7.26,1.21,10.67-0.04c1.48-0.54,2.92-1.32,4.49-1.35
		c0.58-0.01,1.25,0.17,1.8,0.46c-0.48,0.63-1.02,1.24-1.59,1.82C222.06,146.37,222.17,146.82,222.35,147.47z"/>
	<path class="st65" d="M176.14,106.09c0.39,1.16,0.79,2.3,1.21,3.43c2.66,7.22,7.7,14.29,14.99,17.17c2.62,1.04,5.54,1.57,8.27,0.89
		c2.73-0.68,5.22-2.77,5.82-5.53c1.39-6.46-5.04-8.88-8.7-12.5c-4.37-4.33-7.71-9.65-9.96-15.35c-3.03-7.68-4.13-16.04-3.92-24.3
		c0.16-6.02-2.13-13.59-9.23-7.8c-8.4,6.86-5.89,17.46-3.54,26.51C172.59,94.41,174.21,100.37,176.14,106.09z"/>
	<path class="st47" d="M222.2,211.32c-0.61,22.89-0.49,45.8,0.4,68.68c0.35,9.15,0.82,18.3,1.41,27.44c-0.06-1-4.86-2.86-5.72-3.22
		c-2.2-0.9-4.53-1.5-6.89-1.76c-1.92-0.21-4.92-0.57-6.74,0.21c-1.69,0.73-1.52,2.88-3.34,3.76c-1.28,0.62-2.76,0.64-4.18,0.65
		c-3.59,0.04-7.17,0.07-10.76,0.11c-2.45,0.03-4.89,0.06-7.34,0.08c-0.55-11.19-1.09-22.39-1.64-33.58
		c-1.74-35.95-3.41-72.68,6.74-107.2c1.25-4.28,2.72-8.57,5.34-12.17c6.28-8.65,13.47-6.11,22.58-5.42c2.6,0.2,5.2-0.24,7.73-0.85
		c0.85-0.21,1.72-0.35,2.57-0.59c0.49,1.78,1.54,5.08,1.63,5.6c0.46,2.74,0.57,5.5,0.57,8.27c0,5.22-0.55,10.46-0.86,15.67
		C223,188.43,222.51,199.87,222.2,211.32z"/>
	<path class="st47" d="M178.6,136.87c-2.71-4.34-3.75-9.16-3.83-14.15c-0.1-5.38,0.08-11-1.7-16.15c-0.06-0.18-0.13-0.35-0.19-0.52
		c1.84,2.33,3.5,4.78,5.45,7.01c4.58,5.28,10.71,9.2,17.42,11.16c2.28,0.67,4.92,1.07,6.9-0.25c3.15-2.09,2.86-6.54,1.95-9.73
		c-0.47-1.66-1.31-3.1-1.98-4.66c-0.36-0.82-2.41-7.73-3.15-7.71c2.63-0.09,4.11,1.99,5.77,4.03c1.67,2.04,2.85,4.44,4.52,6.48
		c5.89,7.17,15.58,9.09,17.23,19.51c0.76,4.84-0.49,9.02-3.28,12.6c-0.55-0.29-1.22-0.48-1.8-0.46c-1.57,0.04-3.01,0.81-4.49,1.35
		c-3.41,1.25-7.26,1.26-10.67,0.04c-2.8-1-5.36-2.81-8.31-3.13c-3.34-0.36-6.63,1.26-9.99,1.1
		C184.35,143.2,180.77,140.34,178.6,136.87z"/>
	<path class="st1" d="M214.07,161.64c3.72-1.55,7.02-4.09,9.49-7.27c0.84-1.08,1.6-2.3,1.74-3.66c0.16-1.65-0.76-3.54-2.49-2.88
		c-1.53,0.59-3.11,2.54-4.14,3.76C216.29,154.45,214.65,157.96,214.07,161.64z"/>
	<path class="st1" d="M219.79,165.17c3.5-1.84,6.01-5.44,6.52-9.36c0.11-0.84,0.11-1.77-0.41-2.44c-1.88-2.42-3.93,2.35-4.43,3.49
		C220.32,159.47,219.74,162.32,219.79,165.17z"/>
	<path class="st1" d="M222.69,162.96c-0.64,2.24-0.8,4.61-0.46,6.91c1.74-1.16,3.14-2.82,4.01-4.72c0.44-0.95,0.74-2,0.61-3.04
		c-0.13-1.01-0.9-2.55-2.09-2.1C223.62,160.46,223,161.88,222.69,162.96z"/>
	<path class="st1" d="M193.51,49.37c-1.43,3.14-4.99,5.23-6.68,8.05c0.35-0.82-1.18-1.27-0.8-2.08c1-2.17,0.33-3.85-1.49-5.02
		c-1.14-0.74-0.61-2.51-1.97-2.55c-1.36-0.04-2.93,0.43-3.93,1.39c-0.97,0.93-0.83,2.34-1.02,3.56c0.49,7.38-4.46,13.88-9.15,19.6
		c-6.37,7.78-12.75,15.56-19.13,23.33c-4.03,4.91-8.17,9.92-13.58,13.24c-4.7,2.88-10.35,4.49-14.03,8.59
		c-1.44,1.6-2.79,3.68-4.54,4.72c-1.06,0.02-2.1-0.23-2.97-0.84c-1.95-1.38-2.39-4.21-1.66-6.49c0.72-2.27,2.31-4.22,3.9-6
		l2.49-2.91c10.1-9.23,17.92-20.94,22.39-33.87c0.72-2.07,1.35-4.37,0.54-6.41c-1.09-2.73-4.26-3.88-7.09-4.67
		c-4.02-1.13-8.09-2.17-12.16-3.13c-8.15-1.9-16.39-3.44-24.68-4.62c-4.14-0.59-8.31-1.09-12.47-1.49c-2.08-0.2-4.16-0.38-6.25-0.54
		c-0.94-0.07-1.97-0.26-2.89-0.11c-1.01,0.17-1.92,0.35-2.94,0.07c-0.82-0.24-1.57-0.74-2.05-1.43c-0.17-0.24-0.3-0.5-0.39-0.78
		c-0.28-0.87-0.13-1.8,0.14-2.66c0.26-0.85,0.53-1.22,1.19-1.79c1.21-1.05,2.57-1.91,3.99-2.66c0.69-0.36,1.46-0.6,2.01-1.16
		c0.48-0.49,0.71-1.11,1.05-1.69c0.94-1.54,2.92-2.36,4.67-1.94c1.02,0.24,1.97,0.82,3.06,0.71c1.05-0.11,2.16-0.63,3.18-0.93
		c2.27-0.68,4.57-1.3,6.91-1.76c4.59-0.89,9.4-1.09,13.91,0.39c5.26,1.74,9.74,3.54,15.49,2.8c1.88-0.24,3.67-0.79,5.48-1.34
		c1.8-0.55,1.05-2.13,0.74-3.65c-0.24-1.15-0.26-2.34-0.1-3.5c0.18-1.37,0.58-2.01,1.47-3.04c1.71-1.99,3.43-3.98,5.14-5.97
		c1.04-1.21,2.13-2.44,3.47-3.32c1.48-0.96,3.18-1.31,4.88-1.64c5.22-1.01,10.6-0.33,15.84,0.55c6.48,1.1,13.13,2.6,18.35,6.6
		c5.21,4,8.57,11.13,6.29,17.29c2.06,0.15,4.01,1.36,5.06,3.14C194.25,45.2,194.37,47.5,193.51,49.37z"/>
	<path class="st47" d="M168.47,72.32c-6.37,7.78-12.75,15.56-19.13,23.33c-4.03,4.91-8.17,9.92-13.58,13.24
		c-4.7,2.88-10.35,4.49-14.03,8.59c-1.44,1.6-2.79,3.68-4.54,4.72c-0.69,0.4-1.44,0.65-2.28,0.65c-2.47-0.01-4.39-2.43-4.72-4.87
		c-0.32-2.45,0.54-4.88,1.41-7.19c3.35-8.84,7.16-17.5,11.4-25.95c1.65-3.28,3.36-7.26,1.5-10.42c-1.19-2.04-3.53-3.05-5.72-3.95
		c-14.72-6-29.44-11.99-44.16-18c-0.99-0.4-2.01-0.82-2.7-1.63c-0.27-0.31-0.47-0.69-0.57-1.09c-0.18-0.64-0.11-1.32,0.31-1.82
		c0.49-0.59,1.3-0.77,2.06-0.93c3.26-0.65,6.59-1.16,9.74-2.19c9.15-2.99,19.28-3.45,28.48-0.44c7.13,2.33,13.97,5.53,21.38,6.92
		c5.33,1.01,10.8,1.07,16.23,1.13c9.35,0.1,18.71,0.19,28.07,0.28C178.12,60.11,173.17,66.61,168.47,72.32z"/>
	<path class="st48" d="M102.25,58.24c-0.18-0.08-0.36-0.16-0.53-0.24c-0.86-0.39-1.72-0.78-2.58-1.19c-0.64-0.3-1.73-0.59-2.12-1.19
		c-0.77-1.21,0.56-2.81,1.61-3.28c1.44-0.64,3.12-0.61,4.66-0.69c2.61-0.13,5.26,0.18,7.71,1.1c2.66,1,5.19,2.29,7.8,3.4
		c4.6,1.97,9.13,3.66,14.08,4.33c2.48,0.34,5.31,0.15,7.81,0.15c2.54,0,5.01-0.38,7.54,0.1c1.44,0.27,6.28,1.62,4.88,3.95
		c-0.29,0.49-0.8,0.81-1.3,1.09c-2.44,1.32-5,1.6-7.72,1.48c-2.48-0.11-5.04-0.08-7.34,0.76c-3.26,1.2-6.61,0.22-9.88-0.55
		c-5.03-1.19-9.72-2.69-14.42-4.78C109.07,61.17,105.64,59.76,102.25,58.24z"/>
	<path class="st4" d="M136.08,31.69c0.83,0.2,1.63,0.78,1.86,1.6c0.26,0.94-0.29,1.97-1.13,2.47c-0.9,0.53-2.05,0.51-3.03,0.16
		c-0.98-0.36-1.82-1.02-2.58-1.74c-0.62-0.59-1.21-1.23-1.57-2.01c-0.36-0.78-0.46-1.71-0.1-2.48c0.19,0.87,0.79,1.65,1.59,2.05
		c0.71,0.36,1.57,0.41,2.34,0.15C134.35,31.59,135.15,31.47,136.08,31.69z"/>
	<g>
		<path class="st5" d="M149.12,26.19c2.28,0.15,4.36-0.22,6.14-1.06c1.98-0.89,3.21-2.39,5.06-3.69c3.94-3.03,10.64-2.17,12.99,2.28
			c-1.99-1.13-4.03-1.67-5.97-1.6c-3.25,0.01-5.44,1.86-7.95,3.72C156.49,27.94,151.98,28.29,149.12,26.19L149.12,26.19z"/>
	</g>
	<path class="st5" d="M101.47,57.59c0.16,0.56,0.34,1.11,0.53,1.66c0.12,0.35,0.26,0.71,0.53,0.96s0.72,0.35,1.01,0.12
		c0.23-0.18,0.29-0.49,0.34-0.77c0.41-2.37,0.67-4.79,1.25-7.13c0.41-1.66,2.3-3.65,1.21-5.4c-0.26-0.42-0.79-0.59-1.28-0.7
		c-0.94-0.21-1.91-0.31-2.87-0.3c-0.59,0.01-1.21,0.06-1.69,0.4c-1.04,0.74-0.41,2.77-0.28,3.78
		C100.53,52.71,100.76,55.17,101.47,57.59z"/>
	<path class="st5" d="M116.07,50.15c-0.75-0.28-1.66-0.28-2.29,0.23c-0.81,0.65-0.87,1.83-0.83,2.87c0.05,1.31,0.19,2.62,0.33,3.93
		c0.1,0.86-0.02,2.38,0.82,2.92c0.91,0.58,1.65-0.85,2.05-1.48c0.98-1.58,1.9-3.36,2.14-5.22c0.08-0.64,0.17-1.39-0.25-1.93
		C117.59,50.91,116.73,50.4,116.07,50.15z"/>
	<path class="st5" d="M125.73,62.63c0.03,0.27,0.08,0.58,0.32,0.72c0.36,0.21,0.78-0.16,1.04-0.49c1.19-1.53,4.34-7.41,1.18-8.46
		c-1.49-0.49-3.5-0.38-3.29,1.69C125.21,58.27,125.49,60.45,125.73,62.63z"/>
	<path class="st5" d="M157.52,56.28c-0.63,0.58-0.57,1.57-0.41,2.41c0.27,1.45,0.69,2.87,1.25,4.23c0.09,0.21,0.2,0.44,0.41,0.52
		c0.37,0.14,0.7-0.25,0.88-0.6c0.76-1.46,1.17-3.09,1.2-4.73c0.01-0.45-0.02-0.91-0.18-1.33C160.24,55.67,158.38,55.51,157.52,56.28
		z"/>
	<path class="st5" d="M158.98,80.05c0.04-0.98-0.67-1.82-1.44-2.42c-0.79-0.61-1.69-1.08-2.64-1.38c-0.29-0.09-0.59-0.17-0.88-0.13
		c-0.3,0.04-0.6,0.2-0.71,0.48c-0.17,0.41,0.11,0.85,0.37,1.2c0.83,1.13,1.56,2.45,2.56,3.44
		C157.28,82.28,158.91,81.59,158.98,80.05z"/>
	<path class="st5" d="M163.79,76.19c0.71-0.19,1.1-1.02,1-1.74c-0.1-0.73-0.56-1.35-1.06-1.88c-0.51-0.51-1.66-1.92-2.48-1.17
		c-0.55,0.51,0.22,2.57,0.45,3.22C162.03,75.56,162.67,76.48,163.79,76.19z"/>
	<path class="st5" d="M111.43,102.9c-0.68-0.9-0.92-1.71,0.43-1.67c0.91,0.03,1.77,0.22,2.63,0.47c0.68,0.2,1.46,0.23,1.86,0.93
		c0.32,0.57,0.12,1.32-0.31,1.81c-0.66,0.76-1.56,1.21-2.44,0.6C113.24,104.79,112.11,103.81,111.43,102.9z"/>
	<path class="st5" d="M116.53,96.73c0.69,0.38,1.54,0.53,2.26,0.2c0.71-0.33,1.17-1.22,0.86-1.94c-0.27-0.62-0.98-0.91-1.64-1.08
		c-0.83-0.21-1.7-0.32-2.56-0.33c-0.96-0.01-1.65,0.68-0.93,1.58C114.97,95.74,115.9,96.38,116.53,96.73z"/>
	<path class="st5" d="M120.13,90.28c0.33,0.34,0.72,0.7,1.19,0.69c0.54-0.01,0.94-0.49,1.17-0.97c0.25-0.52,0.39-1.13,0.22-1.69
		c-0.2-0.65-0.79-1.12-1.43-1.35c-0.64-0.23-1.34-0.25-2.02-0.27c-0.27-0.01-0.55-0.02-0.81,0.05
		C116.29,87.31,119.64,89.78,120.13,90.28z"/>
	<path class="st5" d="M122.79,82.55c0.26,0.31,0.59,0.65,0.99,0.64c0.39-0.01,0.69-0.36,0.91-0.69c0.34-0.51,0.61-1.06,0.81-1.64
		c0.13-0.35,0.22-0.76,0.03-1.08c-0.14-0.24-0.42-0.38-0.69-0.42c-0.28-0.04-0.56,0-0.84,0.04c-0.67,0.1-1.34,0.19-2,0.29
		c-0.29,0.04-0.6,0.1-0.8,0.31c-0.36,0.39,0.09,0.79,0.33,1.08C121.96,81.55,122.38,82.05,122.79,82.55z"/>
	<path class="st5" d="M78.97,61.49c0.01,0.46,0.03,0.93-0.1,1.37c-0.13,0.44-0.45,0.86-0.9,0.96c-0.48,0.11-0.98-0.18-1.27-0.57
		c-0.29-0.4-0.42-0.89-0.54-1.36c-0.45-1.77-0.9-3.55-1.17-5.35c-0.18-1.19-0.28-2.41-0.03-3.59c0.25-1.18,0.89-2.32,1.91-2.95
		c2.47-1.53,4.96,0.84,3.95,3.44c-0.44,1.12-1.03,2.08-1.32,3.28C79.12,58.26,78.94,59.88,78.97,61.49z"/>
	<path class="st5" d="M88.61,58.16c0.15,0.28,0.31,0.56,0.47,0.83c0.23,0.38,0.49,0.75,0.86,1s0.88,0.33,1.25,0.09
		c0.51-0.32,0.57-1.02,0.57-1.62c0-1.13-0.16-2.27-0.08-3.4c0.14-2.1,0.86-4.07,0.85-6.2c0-0.52-0.03-1.07-0.31-1.5
		c-0.38-0.58-1.13-0.83-1.82-0.78c-0.72,0.05-1.49,0.36-2.17,0.6c-1.95,0.7-1.5,3.95-1.31,5.54C87.15,54.62,87.72,56.47,88.61,58.16
		z"/>
	<g>
		<path class="st5" d="M140.42,31.42c-1.82-2.15-4.79-2.13-6.32-4.67c-0.52-0.87-0.72-2.1-0.12-2.92
			C135.02,27.26,140.79,27.25,140.42,31.42L140.42,31.42z"/>
	</g>
	<path class="st62" d="M60.96,307.79c-2.86-1.12-6.36-0.29-8.42,1.98c-2.37,2.62-2.38,7.12-0.68,10.12c0.66,1.17,1.61,2.17,2.73,2.9
		c1.37,0.89,2.59,1.02,4.19,1.16c4.29,0.36,8.58,0.17,12.87,0.27c4.34,0.1,8.68,0.2,13.01,0.3c2.81,0.06,5.76,0.1,8.27-1.16
		c3.37-1.7,5.34-5.8,4.55-9.5s-4.26-6.64-8.03-6.81c-0.41-3.98,1.16-7.91,3.17-11.37c2.01-3.46,4.49-6.65,6.22-10.26
		c1.73-3.61,2.65-7.84,1.32-11.61c-1.02-2.89-4.19-5.81-7.43-5.78c-3.34,0.03-6.46,3.86-8.45,6.26
		c-5.67,6.8-11.33,13.38-16.13,20.88C65.53,299.23,63.13,303.45,60.96,307.79z"/>
	<path class="st5" d="M70.57,313.62c0.08-0.67,0.2-1.36,0.52-1.96c0.32-0.6,0.87-1.11,1.55-1.22c0.9-0.15,1.8,0.47,2.23,1.27
		c0.44,0.8,0.51,1.75,0.51,2.67c0.01,3.93-1.1,7.86-3.16,11.21c0.23-0.31-0.73-2.73-0.84-3.17c-0.22-0.82-0.44-1.63-0.59-2.47
		C70.43,317.86,70.32,315.73,70.57,313.62z"/>
	<path class="st5" d="M49.52,324.37c-1.48-3.96-0.9-8.64,1.51-12.11c0.77-1.11,1.88-2.18,3.23-2.16c1.16,0.02,2.19,0.88,2.65,1.94
		c0.46,1.06,0.44,2.27,0.22,3.41c-0.19,0.96-0.57,2.76-1.38,3.41c-0.64,0.51-1.7,0.33-2.47,0.61
		C51.25,320.21,49.64,322.19,49.52,324.37z"/>
	<path class="st5" d="M89.69,318.43c-0.83-0.6-1.26-1.66-1.29-2.68c-0.04-1.03,0.27-2.04,0.64-2.99c0.44-1.1,1.1-2.27,2.24-2.59
		c1.06-0.3,2.18,0.25,3.04,0.93c2.05,1.64,3.34,4.2,3.43,6.82c0.09,2.62-1.02,5.27-2.95,7.04c0.57-1.05,1.01-2.23,0.84-3.41
		c-0.16-1.12-1.07-2.22-2.19-2.5C92.14,318.71,90.9,319.31,89.69,318.43z"/>
	<path class="st1" d="M150.36,124.15c-1.88,1.81-5.13,4.31-6.87,6.25c-1.7,1.89-3.42,3.79-5.37,5.42c-0.24,0.2-1.36,1.34-1.64,1.29
		c2.61,0.52,4.62,2.55,6.45,4.47c2.75,2.88,5.49,5.77,8.24,8.65c1.27,1.34,2.5,2.95,3.98,4.04c1.11,0.82,2.26,1.87,3.69,2.03
		c1.42,0.16,2.8-0.56,3.9-1.48c1.1-0.91,2.01-2.03,3.14-2.91c2.82-2.19,6.79-2.61,10.18-1.52c3.4,1.1,6.24,3.57,8.25,6.53
		c2.01,2.96,3.23,6.37,4.1,9.84c-2.08-2.29-4.16-4.58-6.24-6.87c1.22,4.31,1.25,8.94,0.1,13.27c-1.14-0.67-1.82-1.85-2.3-3.05
		c-0.53-1.32-0.35-2.79-0.8-4.16c-0.38-1.13-1.07-2.2-2.08-2.84c-1.01-0.64-2.37-0.78-3.41-0.18c1.5,1.07,2.35,2.93,2.3,4.77
		c-0.06,1.84-0.98,3.61-2.38,4.8s-3.24,1.82-5.08,1.87c0.65-1.08,1.14-2.25,1.45-3.47c0.25-0.99,0.63-2.39,0.26-3.38
		c-0.28-0.73-1.01-1.21-1.77-1.39c-1.36-0.32-2.8,0.1-4.16,0.19c-1.44,0.09-2.89,0.06-4.32-0.1c-5.26-0.58-10.35-2.35-15.06-4.72
		c-6.25-3.14-11.91-7.33-17.53-11.5c-1.91-1.41-3.84-2.85-5.33-4.7c-1.49-1.85-2.51-4.19-2.29-6.56c0.26-2.88,2.24-5.27,4.13-7.45
		c6.76-7.81,13.52-15.63,20.27-23.44c2.1-2.43,4.26-4.91,7.02-6.54c2.77-1.64,6.3-2.32,9.22-0.96c2.9,1.35,4.46,4.46,5.42,7.51
		c0.96,3.05,1.09,6.29,1.11,9.49c0.03,5.22-0.23,10.44-0.78,15.63c-0.12,1.16-0.26,2.34-0.74,3.41s-1.36,2.01-2.49,2.29
		c-1.87,0.46-3.65-0.96-4.97-2.37C154.82,133,152.03,128.65,150.36,124.15z"/>
	<path class="st62" d="M169.5,222.35c-0.56,8.59-3.69,16.84-7.57,24.53c-6.08,12.04-14.18,23.18-24.55,31.82
		c-3.51,2.93-7.29,5.56-11.27,7.81c-7.77,4.41-16.33,7.4-25.19,8.4c-4.5,0.51-9.87,0.1-12.33-3.7c-1.16-1.77-1.42-3.96-1.57-6.06
		c-1.54-20.55,4.48-41.59,16.67-58.2c3.27-4.09,6.51-8.07,10.35-11.68c11.81-11.14,27.58-20.74,44.2-20.94
		c3.31-0.04,6.03,0.59,7.54,3.75c1.5,3.16,1.96,6.64,2.55,10.05c0.05,0.28,0.1,0.57,0.15,0.85
		C169.3,213.37,169.79,217.96,169.5,222.35z"/>
	<path class="st5" d="M110.38,112.4c-0.38-0.05-0.78-0.1-1.15-0.02c-0.38,0.08-0.75,0.3-0.9,0.66c-0.28,0.68,0.32,1.38,0.87,1.87
		c0.87,0.77,1.75,1.55,2.79,2.04c0.92,0.43,1.98,0.63,2.96,0.36c0.98-0.27,1.84-1.08,2-2.08c0.2-1.22-0.66-2.12-1.77-2.25
		C113.58,112.79,111.98,112.61,110.38,112.4z"/>
	<g>
		<defs>
			<path id="SVGID_00000042012581327996418680000017266341637856789149_" d="M153.76,34.01c1.79-4.65,6.82-7.83,11.78-7.46
				c1.87,0.14,3.68,0.73,5.5,1.21c2,0.52,4.07,0.9,6.11,0.66c2.05-0.24,4.09-1.18,5.28-2.86c-0.23,2.02-0.85,4.04-2.09,5.65
				c-1.24,1.61-3.17,2.76-5.21,2.75c-2.03-0.01-3.87-1.13-5.76-1.87c-2.54-1-5.34-1.34-8.05-1.01c-1.2,0.14-2.53,0.38-3.67,0.78
				C156.27,32.33,155.04,33.31,153.76,34.01z"/>
		</defs>
		<clipPath id="SVGID_00000146472321061813734430000008164331965350444433_">
			<use xlink:href="#SVGID_00000042012581327996418680000017266341637856789149_"  style="overflow:visible;"/>
		</clipPath>
		<path style="clip-path:url(#SVGID_00000146472321061813734430000008164331965350444433_);fill:#3D1947;" d="M166.14,26.48
			c-0.11,0.56-0.3,1.11-0.48,1.66c-0.32,0.97-0.46,2.03-0.24,3.03c0.23,1,0.85,1.94,1.78,2.39c-0.18-0.61-0.35-1.24-0.28-1.87
			c0.06-0.59,0.34-1.13,0.56-1.68c0.27-0.66,0.49-1.34,0.55-2.05c0.06-0.71-0.05-1.44-0.4-2.06c-0.37-0.65-0.96-0.96-1.57-1.34
			C166.27,25.22,166.26,25.85,166.14,26.48z"/>
	</g>
	<path class="st5" d="M199.87,51.05c-3.3-0.42-6.47-1.65-8.89-3.56c-2.32-1.83-3.88-4.2-5.41-6.53c-2.53-3.86-4.2-8.21-6.02-12.34
		c-2.29-5.18-4.33-10.29-7.71-15.05c8.19,0.25,17.89,3.65,23.15,10.14c2.6,3.21,4.5,6.91,6.64,10.43c2.14,3.53,4.61,6.98,8.01,9.31
		c0.96,0.66,2.01,1.25,2.75,2.15c3,3.66-3.18,4.67-5.6,5.16C204.54,51.24,202.17,51.35,199.87,51.05z"/>
	<path class="st4" d="M153.76,34.01c1.79-4.65,6.82-7.83,11.78-7.46c1.87,0.14,3.68,0.73,5.5,1.21c2,0.52,4.07,0.9,6.11,0.66
		c2.05-0.24,4.09-1.18,5.28-2.86c-0.23,2.02-0.85,4.04-2.09,5.65c-1.24,1.61-3.17,2.76-5.21,2.75c-2.03-0.01-3.87-1.13-5.76-1.87
		c-2.54-1-5.34-1.34-8.05-1.01c-1.2,0.14-2.53,0.38-3.67,0.78C156.27,32.33,155.04,33.31,153.76,34.01z"/>
	<g>
		<defs>
			<path id="SVGID_00000112600860074569788230000002705168492440281770_" d="M73.71,47.02c-0.75,0.15-1.57,0.33-2.06,0.92
				c-0.68,0.81-0.43,2.11,0.26,2.91s1.72,1.23,2.7,1.63c14.72,6,29.44,12,44.16,18c2.19,0.89,4.53,1.91,5.72,3.95
				c1.85,3.17,0.14,7.14-1.5,10.42c-4.24,8.45-8.05,17.11-11.4,25.95c-0.88,2.31-1.74,4.74-1.41,7.19c0.33,2.45,2.25,4.86,4.72,4.87
				c3,0.01,4.82-3.14,6.82-5.37c3.68-4.1,9.33-5.71,14.03-8.6c5.42-3.32,9.55-8.33,13.58-13.24c6.38-7.78,12.76-15.55,19.14-23.33
				c4.69-5.72,9.64-12.22,9.15-19.59c-9.36-0.09-18.72-0.18-28.07-0.28c-5.43-0.06-10.89-0.12-16.23-1.13
				c-7.41-1.4-14.25-4.6-21.37-6.93c-9.21-3.01-19.33-2.54-28.49,0.45C80.31,45.86,76.98,46.37,73.71,47.02z"/>
		</defs>
		<clipPath id="SVGID_00000010292548242398628040000013512239379635380102_">
			<use xlink:href="#SVGID_00000112600860074569788230000002705168492440281770_"  style="overflow:visible;"/>
		</clipPath>
		<path style="clip-path:url(#SVGID_00000010292548242398628040000013512239379635380102_);fill:#8B3A37;" d="M164.93,53.3
			c1.87,0.79,3.49,2.25,4.29,4.11c0.85,1.96,0.76,4.19,0.5,6.3c-0.48,3.89-1.51,7.7-3.05,11.3c3.25-2.62,6.46-5.36,8.96-8.7
			c2.51-3.34,4.29-7.35,4.36-11.52c0.02-1.02-0.08-2.07-0.5-3.01c-0.42-0.94-1.21-1.75-2.2-1.99c-0.69-0.17-1.41-0.06-2.11,0.05
			c-5.11,0.81-10.6,1.16-15.58,2.5c0.83,0.05,1.73,0.15,2.43,0.22C163.03,52.68,164.01,52.91,164.93,53.3z"/>
	</g>
	<path class="st4" d="M130.87,73.51c-0.14-0.34-0.24-0.7-0.31-1.06c-0.4-2,0.03-3.86,1.46-5.29c3.64-3.66,9.92-5.02,14.9-5.2
		c2.4-0.09,4.95,0.18,6.86,1.64c1.61,1.24,2.56,3.3,2.46,5.33c-0.21,4.2-4.03,6.05-7.63,6.84c-3.2,0.71-6.47,1.12-9.74,1.21
		C135.75,77.08,132.18,76.78,130.87,73.51z"/>
	<path class="st5" d="M137.16,55.64c-0.61,0.1-1.21,0.4-1.53,0.92c-0.46,0.76-0.21,1.72,0.04,2.57c0.59,1.95,1.18,3.9,1.76,5.85
		c0.13,0.43,0.35,0.93,0.79,0.98c0.48,0.05,0.8-0.46,0.98-0.91c0.67-1.65,1.11-3.39,1.3-5.16c0.09-0.83,0.12-1.69-0.11-2.49
		C139.93,55.81,138.7,55.4,137.16,55.64z"/>
	<path class="st48" d="M135.03,73.07c-4.21,2.64-5.58,9.87-6.71,14.03c-1.83,6.76-4.81,13.21-8.76,18.99
		c-0.47,0.69-0.97,1.4-1.15,2.22s0.06,1.79,0.78,2.22c0.94,0.56,2.13-0.04,3.02-0.67c1.68-1.19,3.24-2.55,4.78-3.9
		c2.49-2.18,5-4.38,7.19-6.86c3.45-3.91,6.07-8.47,8.97-12.8c2.9-4.34,6.18-8.56,10.55-11.41c1.04-0.68,2.22-1.67,1.52-3.04
		c-0.7-1.39-2.44-1.91-3.86-2.16c-1.85-0.33-3.78-0.32-5.58,0.24c-1.71,0.53-3.59,1.59-4.58,3.13c-0.46-0.43-1.14-0.63-1.74-0.78
		C137.93,71.9,136.38,72.23,135.03,73.07z"/>
	<path class="st5" d="M146.09,84.35c-0.42-0.22-1-0.38-1.31-0.03c-0.3,0.34-0.09,0.87,0.14,1.27c0.76,1.36,1.52,2.72,2.28,4.09
		c0.25,0.44,0.52,0.91,0.97,1.15c0.72,0.38,1.67-0.03,2.09-0.73C151.73,87.63,147.89,85.28,146.09,84.35z"/>
	<path class="st5" d="M128.83,110.61c1.02-0.26,1.96-1.16,1.9-2.22c-0.06-0.94-0.86-1.65-1.59-2.25c-1.13-0.91-2.25-1.82-3.38-2.73
		c-0.47-0.38-1.11-0.78-1.63-0.46c-0.28,0.17-0.42,0.53-0.42,0.86c0,0.33,0.11,0.66,0.22,0.97c0.56,1.57,1.12,3.14,1.67,4.71
		c0.2,0.58,0.21,0.84,0.77,1.08C127.05,110.85,128.15,110.78,128.83,110.61z"/>
	<path class="st5" d="M135.21,96.95c-0.18-0.66-0.24-1.48,0.3-1.9c0.34-0.27,0.84-0.29,1.26-0.14c0.41,0.15,0.77,0.43,1.11,0.7
		c0.57,0.46,1.14,0.92,1.72,1.38c0.69,0.56,1.42,1.16,1.69,2c0.32,1-0.14,2.19-1.06,2.7c-1.1,0.62-2.43,0.21-3.03-0.83
		C136.46,99.61,135.61,98.36,135.21,96.95z"/>
	<path class="st4" d="M138.22,72.4c1.87,0.95,1.31,3.92,0.79,5.47c-1.32,3.98-3.33,7.74-5.91,11.05c4.58-3.39,7.91-8.43,9.23-13.97
		c0.24-1.01,0.32-2.42,0.99-3.25c0.69-0.86,1.66-1.51,2.72-1.81c0.5-0.14,1.03-0.22,1.45-0.53c0.52-0.39,0.58-1.19,0.21-1.7
		c-0.39-0.54-1.28-0.61-1.88-0.57c-2.11,0.15-4.2,0.65-6.16,1.45c-0.99,0.41-1.95,0.89-2.85,1.47c-0.7,0.44-1.77,1.05-2.17,1.8
		c-0.15,0.28-0.13,0.67,0.13,0.85c0.23,0.16,0.55,0.09,0.82,0.01c0.74-0.23,1.68-0.68,2.46-0.36
		C138.1,72.34,138.17,72.37,138.22,72.4z"/>
	<path class="st4" d="M103.45,37.06c-0.44,0.1-0.85,0.28-1.12,0.61c-0.28,0.35-0.38,0.89-0.17,1.3c0.2,0.39,0.62,0.58,1.02,0.69
		c0.69,0.2,1.53,0.32,2.23,0.23c0.37-0.05,0.73-0.22,0.94-0.55c0.3-0.47,0.21-1.16-0.12-1.6c-0.33-0.45-0.85-0.68-1.37-0.74
		C104.46,36.95,103.94,36.95,103.45,37.06z"/>
	<path class="st4" d="M81.87,39.57c-0.29,0.16-0.54,0.38-0.65,0.68c-0.12,0.32-0.07,0.76,0.16,1.04c0.23,0.26,0.56,0.32,0.86,0.34
		c0.81,0.04,2.02-0.44,1.97-1.44c-0.04-0.71-0.73-1.02-1.36-0.93C82.56,39.3,82.19,39.4,81.87,39.57z"/>
	<path class="st28" d="M186.83,60.06c0.03-1.02,0.06-2.06,0.42-3.02c0.03-0.07,0.06-0.14,0.09-0.21"/>
	<path class="st28" d="M176.66,58.42c1-2.36,0.78-4.51,0.96-5.69"/>
	<path class="st65" d="M187.27,54.48c0.1,3.09-0.84,6.23-2.2,8.96c-2.11,4.24-5.15,6.79-8.75,9.67c-3.45,2.76-6.52,5.97-9.43,9.29
		c-5.86,6.67-11.14,13.95-17.98,19.7c-1.55,1.3-3.17,2.52-4.88,3.61c-4.36,2.79-8.7,5.57-13.06,8.35c-2.14,1.37-4.5,2.61-6.5,4.16
		c-1.64,1.26-2.93,2.75-4.94,3.52c-0.74,0.29-1.55,0.46-2.35,0.47c1.75-1.04,3.1-3.12,4.54-4.72c3.68-4.11,9.32-5.71,14.03-8.59
		c5.42-3.32,9.55-8.33,13.58-13.24c6.38-7.78,12.76-15.56,19.13-23.33c2.11-2.57,4.22-5.18,5.89-8.06c1.63-2.8,2.33-6.54,2.56-9.74
		c0.11-1.44,0.09-2.92-0.4-4.28c-0.49-1.36-1.53-2.58-2.92-2.97c0.33,0.09,1.14-0.25,1.5-0.31c0.56-0.09,1.11-0.15,1.68-0.18
		c2.48-0.14,5.18-0.23,7.32,1.23C186.39,49.56,187.18,51.86,187.27,54.48z"/>
	<path class="st65" d="M169.5,222.35c-0.56,8.59-3.69,16.84-7.57,24.53c-6.08,12.04-14.18,23.18-24.55,31.82
		c-3.51,2.93-7.29,5.56-11.27,7.81c-3.02-0.29-5.84-1.44-8.26-3.77c-3.89-3.72-3.66-10.06-1.94-15.16
		c5.56-16.4,12.1-32.2,24.71-44.57c3.22-3.16,9.76-9.18,16.48-12.72c2.92-1.53,7.45-2.86,11.24-2.19c0.05,0.28,0.1,0.57,0.15,0.85
		C169.3,213.37,169.79,217.96,169.5,222.35z"/>
	<path class="st5" d="M147.33,57.03c-0.44,0.65-0.26,1.52-0.07,2.27c0.37,1.45,0.73,2.9,1.1,4.35c0.12,0.48,0.34,1.06,0.83,1.13
		c0.54,0.08,0.91-0.51,1.13-1c0.52-1.2,1.01-2.43,1.14-3.72c0.11-1.01,0.05-2.93-0.92-3.58C149.69,55.92,147.88,56.2,147.33,57.03z"
		/>
</g>
</svg>
