<?xml version="1.0" encoding="utf-8"?>
<!-- Generator: Adobe Illustrator 27.0.1, SVG Export Plug-In . SVG Version: 6.00 Build 0)  -->
<svg version="1.1" id="Layer_1" xmlns="http://www.w3.org/2000/svg" xmlns:xlink="http://www.w3.org/1999/xlink" x="0px" y="0px"
	 viewBox="0 0 314.83 368.47" style="enable-background:new 0 0 314.83 368.47;" xml:space="preserve">
<style type="text/css">
	.st0{fill:#0A2B17;}
	.st1{fill:#0E8042;}
	.st2{fill:#FFFFFF;}
	.st3{fill:#1A3826;}
	.st4{fill:#3D1947;}
	.st5{fill:#ECA45C;}
	.st6{fill:#D53D3D;}
	.st7{clip-path:url(#SVGID_00000129884521671217773440000006618959389503616951_);}
	.st8{fill:#802420;}
	.st9{fill:#8C5443;}
	.st10{fill:#3C1948;}
	.st11{fill:none;stroke:#3C1948;stroke-linecap:round;stroke-linejoin:round;stroke-miterlimit:10;}
	.st12{clip-path:url(#SVGID_00000059306095397001904270000008221553765319572118_);}
	.st13{fill:#802421;}
	.st14{opacity:0.29;fill:#92C9E0;}
	.st15{clip-path:url(#SVGID_00000064320754838335983490000001890064854909618098_);fill:#FFFFFF;}
	.st16{clip-path:url(#SVGID_00000064320754838335983490000001890064854909618098_);fill:#D9807E;}
	.st17{opacity:0.29;fill:#92C9E0;stroke:#FFFFFF;stroke-width:5;stroke-miterlimit:10;}
	.st18{opacity:0.29;fill:#92C9E0;stroke:#FFFFFF;stroke-miterlimit:10;}
	.st19{opacity:0.29;fill:#92C9E0;stroke:#FFFFFF;stroke-width:3;stroke-miterlimit:10;}
	.st20{fill:#934F3E;}
	.st21{clip-path:url(#SVGID_00000135671568479096105150000006765509247897334196_);fill:#41164A;}
	.st22{clip-path:url(#SVGID_00000044857710476052359230000017378662409670491327_);fill:#41164A;}
	.st23{clip-path:url(#SVGID_00000060030918099388189550000009516593997286180509_);fill:#FFFFFF;}
	.st24{clip-path:url(#SVGID_00000060030918099388189550000009516593997286180509_);fill:#41164A;}
	.st25{fill:#41164A;}
	.st26{clip-path:url(#SVGID_00000113317320069448267050000011581791750721563569_);fill:#FFFFFF;}
	.st27{clip-path:url(#SVGID_00000113317320069448267050000011581791750721563569_);fill:#E47D7A;}
	.st28{fill:none;}
	.st29{fill:#E09F9E;}
	.st30{fill:#CB8080;}
	.st31{clip-path:url(#SVGID_00000138539310388458572090000018160519691007187849_);fill:#E09F9E;}
	.st32{fill:#3C1947;}
	.st33{fill:#EAC5B1;}
	.st34{clip-path:url(#SVGID_00000180331125806705125460000003975602967074016925_);fill:#CB8080;}
	.st35{fill:#0B8043;}
	.st36{fill:#DBDBDA;}
	.st37{clip-path:url(#SVGID_00000048464692980070310140000011802963595619158441_);fill:#C2C1C1;}
	.st38{clip-path:url(#SVGID_00000159434302046509515460000013205859394656271513_);fill:#C2C1C1;}
	.st39{clip-path:url(#SVGID_00000053522076642106238430000015800386545758759818_);}
	.st40{fill:#C2C1C1;}
	.st41{clip-path:url(#SVGID_00000012464128955291694000000004329182039969225652_);fill:#C2C1C1;}
	.st42{clip-path:url(#SVGID_00000137833160223958718890000009052039365379900299_);fill:#C2C1C1;}
	.st43{clip-path:url(#SVGID_00000047021050621524961540000015481507046158476943_);fill:#0B8043;}
	.st44{clip-path:url(#SVGID_00000005232813137343783090000005475012657412837298_);fill:#0B8043;}
	.st45{fill:#A55933;}
	.st46{fill:#803C26;}
	.st47{fill:#C64B45;}
	.st48{fill:#8B3A37;}
	.st49{clip-path:url(#SVGID_00000043454042471248260070000011064583724887304107_);}
	.st50{clip-path:url(#SVGID_00000086670717964513638690000006091157238427313822_);}
	.st51{clip-path:url(#SVGID_00000146474478393210376010000003801229099825682065_);}
	.st52{clip-path:url(#SVGID_00000103984547180809412890000010657153653265497245_);}
	.st53{clip-path:url(#SVGID_00000124153707388508367010000018117123601619971239_);}
	.st54{clip-path:url(#SVGID_00000168827607891218771590000011166349468572503181_);}
	.st55{clip-path:url(#SVGID_00000057856778154619480750000012680159780822922174_);fill:#41164A;}
	.st56{clip-path:url(#SVGID_00000144319264410638867400000002891868688154381476_);fill:#41164A;}
	.st57{clip-path:url(#SVGID_00000075132026995735697210000013836304591540937645_);fill:#FFFFFF;}
	.st58{clip-path:url(#SVGID_00000075132026995735697210000013836304591540937645_);fill:#41164A;}
	.st59{clip-path:url(#SVGID_00000145746229075976915290000011814751428723189128_);fill:#FFFFFF;}
	.st60{clip-path:url(#SVGID_00000145746229075976915290000011814751428723189128_);fill:#E47D7A;}
	.st61{fill:#C28F5D;}
	.st62{fill:#375A42;}
	.st63{clip-path:url(#SVGID_00000183940047249478423970000006413600725241303474_);fill:#6AA17A;}
	.st64{clip-path:url(#SVGID_00000052095291464017572700000003190745061633728906_);fill:#6AA17A;}
	.st65{fill:#6AA17A;}
	.st66{clip-path:url(#SVGID_00000043415757436686517260000002241040681227206040_);fill:#3D1947;}
	.st67{clip-path:url(#SVGID_00000155141319455386467250000016371795629442590337_);fill:#8B3A37;}
	.st68{clip-path:url(#SVGID_00000033351301937372853190000013852453314073445300_);}
	.st69{clip-path:url(#SVGID_00000114781024636499523350000000514615844905629608_);fill:#FFFFFF;}
	.st70{clip-path:url(#SVGID_00000114781024636499523350000000514615844905629608_);fill:#D9807E;}
	.st71{clip-path:url(#SVGID_00000117654321238417261670000009566016047718747573_);fill:#41164A;}
	.st72{clip-path:url(#SVGID_00000023256210977529637270000009493498994948475560_);fill:#41164A;}
	.st73{clip-path:url(#SVGID_00000063633617147111513490000003025431224357124481_);fill:#FFFFFF;}
	.st74{clip-path:url(#SVGID_00000063633617147111513490000003025431224357124481_);fill:#41164A;}
	.st75{clip-path:url(#SVGID_00000178902089557961386160000006553596753232016824_);fill:#FFFFFF;}
	.st76{clip-path:url(#SVGID_00000178902089557961386160000006553596753232016824_);fill:#E47D7A;}
	.st77{fill:#D2687C;}
	.st78{clip-path:url(#SVGID_00000057111244861497069130000009891452214114621859_);fill:#C64B45;}
	.st79{fill:#D1544C;}
	.st80{clip-path:url(#SVGID_00000163784521340535288660000007972844561571447451_);}
	.st81{clip-path:url(#SVGID_00000093871316124900525460000002229934684310500491_);}
	.st82{fill:#DADAD9;}
	.st83{clip-path:url(#SVGID_00000087403185893039095500000000363345172703312269_);fill:#0E8042;}
	.st84{clip-path:url(#SVGID_00000087403185893039095500000000363345172703312269_);fill:#1A3826;}
	.st85{clip-path:url(#SVGID_00000006687307397514334950000009577409008910927771_);fill:#0E8042;}
	.st86{clip-path:url(#SVGID_00000006687307397514334950000009577409008910927771_);fill:#1A3826;}
	.st87{fill:none;stroke:#0E8042;stroke-linecap:round;stroke-linejoin:round;stroke-miterlimit:10;}
	.st88{clip-path:url(#SVGID_00000111164576733644678300000008952249324538706600_);}
	.st89{clip-path:url(#SVGID_00000077305438034477321350000014440114615937324203_);fill:#0E8042;}
	.st90{clip-path:url(#SVGID_00000049208040113532681770000001698185495063427237_);fill:#0E8042;}
	.st91{clip-path:url(#SVGID_00000049208040113532681770000001698185495063427237_);fill:#1A3826;}
	.st92{clip-path:url(#SVGID_00000133530507780020510420000004945918066655815593_);fill:#0E8042;}
	.st93{clip-path:url(#SVGID_00000133530507780020510420000004945918066655815593_);fill:#1A3826;}
	.st94{clip-path:url(#SVGID_00000163039468523899185610000014617474137779347588_);fill:#0E8042;}
	.st95{clip-path:url(#SVGID_00000163039468523899185610000014617474137779347588_);fill:#1A3826;}
	.st96{clip-path:url(#SVGID_00000021090291686708438380000010154185333892961185_);fill:#0E8042;}
	.st97{clip-path:url(#SVGID_00000021090291686708438380000010154185333892961185_);fill:#1A3826;}
	.st98{clip-path:url(#SVGID_00000124863147597678235360000015362738560327128758_);}
	.st99{clip-path:url(#SVGID_00000029737233412052037900000008085965682428137146_);fill:#0E8042;}
	.st100{clip-path:url(#SVGID_00000029737233412052037900000008085965682428137146_);fill:#1A3826;}
	.st101{clip-path:url(#SVGID_00000030462116215751475360000002924654281353248390_);}
	.st102{clip-path:url(#SVGID_00000080190574294146020380000007540349112474088583_);fill:#FFFFFF;}
	.st103{clip-path:url(#SVGID_00000080190574294146020380000007540349112474088583_);fill:#D9807E;}
	.st104{clip-path:url(#SVGID_00000146473489476202870620000005507474371331235760_);fill:#41164A;}
	.st105{clip-path:url(#SVGID_00000171681705259629510120000005312381483281482401_);fill:#41164A;}
	.st106{clip-path:url(#SVGID_00000078036061405794969620000000651592325187084986_);fill:#FFFFFF;}
	.st107{clip-path:url(#SVGID_00000078036061405794969620000000651592325187084986_);fill:#41164A;}
	.st108{clip-path:url(#SVGID_00000052815061126753950940000011035745201686490547_);fill:#FFFFFF;}
	.st109{clip-path:url(#SVGID_00000052815061126753950940000011035745201686490547_);fill:#E47D7A;}
	.st110{clip-path:url(#SVGID_00000144325695538090739870000014911704409508204689_);fill:#E09F9E;}
	.st111{clip-path:url(#SVGID_00000010302131579099298510000000373427725578963639_);fill:#CB8080;}
	.st112{clip-path:url(#SVGID_00000101788279535432160880000016595106959629290924_);fill:#C2C1C1;}
	.st113{clip-path:url(#SVGID_00000049192808158457458620000005081583944134373782_);fill:#C2C1C1;}
	.st114{clip-path:url(#SVGID_00000044871311439515176470000004398386330742780053_);}
	.st115{clip-path:url(#SVGID_00000118368565200666243990000013488602691293387658_);fill:#C2C1C1;}
	.st116{clip-path:url(#SVGID_00000167397678195904557070000002126235719703833743_);fill:#C2C1C1;}
	.st117{clip-path:url(#SVGID_00000101784511715083323400000001326391817774540975_);fill:#0B8043;}
	.st118{clip-path:url(#SVGID_00000025413107010968667280000007750517054091386281_);fill:#0B8043;}
	.st119{clip-path:url(#SVGID_00000037676545823027951850000009425370518548114335_);}
	.st120{clip-path:url(#SVGID_00000086682281711718447340000005390419231130682538_);}
	.st121{clip-path:url(#SVGID_00000151536052448192075060000015233768628556134827_);}
	.st122{clip-path:url(#SVGID_00000005963100793222227710000012629329977495222145_);}
	.st123{clip-path:url(#SVGID_00000153696193416268274670000003607125668500559007_);}
	.st124{clip-path:url(#SVGID_00000054251039022423831430000000830622165794893246_);}
	.st125{clip-path:url(#SVGID_00000102536767507977996900000007474394226502945164_);fill:#0E8042;}
	.st126{clip-path:url(#SVGID_00000102536767507977996900000007474394226502945164_);fill:#1A3826;}
	.st127{clip-path:url(#SVGID_00000087387381563505365510000000863536491747129513_);}
	.st128{clip-path:url(#SVGID_00000168094456229376217160000006993134419596050081_);fill:#FFFFFF;}
	.st129{clip-path:url(#SVGID_00000168094456229376217160000006993134419596050081_);fill:#D9807E;}
	.st130{clip-path:url(#SVGID_00000183231140482004087570000014434087370239591085_);fill:#41164A;}
	.st131{clip-path:url(#SVGID_00000060010511974792708600000004850693244147699378_);fill:#41164A;}
	.st132{clip-path:url(#SVGID_00000119839138894163449380000008239931366080373395_);fill:#FFFFFF;}
	.st133{clip-path:url(#SVGID_00000119839138894163449380000008239931366080373395_);fill:#41164A;}
	.st134{clip-path:url(#SVGID_00000007422964554977029410000007195912273012697246_);fill:#FFFFFF;}
	.st135{clip-path:url(#SVGID_00000007422964554977029410000007195912273012697246_);fill:#E47D7A;}
	.st136{clip-path:url(#SVGID_00000035531066203533373890000013933707176959251585_);fill:#C64B45;}
	.st137{clip-path:url(#SVGID_00000142157180747915151780000002958241882935977910_);}
	.st138{clip-path:url(#SVGID_00000152225661368562957570000017179115042187552688_);}
	.st139{clip-path:url(#SVGID_00000067214469000040368810000011948962725338449558_);fill:#0E8042;}
	.st140{clip-path:url(#SVGID_00000067214469000040368810000011948962725338449558_);fill:#1A3826;}
	.st141{clip-path:url(#SVGID_00000000189281864533567650000013297832716522643635_);fill:#0E8042;}
	.st142{clip-path:url(#SVGID_00000000189281864533567650000013297832716522643635_);fill:#1A3826;}
	.st143{clip-path:url(#SVGID_00000163790447812958443730000009585271542315459491_);fill:#0E8042;}
	.st144{clip-path:url(#SVGID_00000163790447812958443730000009585271542315459491_);fill:#1A3826;}
	.st145{clip-path:url(#SVGID_00000178185216494359878060000000353554947113716358_);}
	.st146{clip-path:url(#SVGID_00000173845012522583048020000007614478547313942950_);}
	.st147{clip-path:url(#SVGID_00000072248775270971813060000007879628157325657482_);}
	.st148{clip-path:url(#SVGID_00000008853624675708257880000016578994230471839126_);}
	.st149{clip-path:url(#SVGID_00000171689141152818519330000001811976448415964825_);}
	.st150{clip-path:url(#SVGID_00000161614911658236975250000011077870633972851631_);}
	.st151{clip-path:url(#SVGID_00000093858427123317039380000010655641680396599685_);fill:#FFFFFF;}
	.st152{clip-path:url(#SVGID_00000093858427123317039380000010655641680396599685_);fill:#8B3A37;}
	.st153{fill:#DF9E9E;}
	.st154{fill:#C98080;}
	.st155{fill:#DFD5E2;}
	.st156{clip-path:url(#SVGID_00000108296268448769615420000003028071257184592807_);fill:#DF9E9E;}
	.st157{fill:#E9C4B0;}
	.st158{clip-path:url(#SVGID_00000053509262928717310180000017624811367171750569_);fill:#C98080;}
	.st159{clip-path:url(#SVGID_00000116236191218029776230000014522301845992228789_);fill:#C1C0C0;}
	.st160{clip-path:url(#SVGID_00000106864265270347083450000013228422382352767414_);fill:#C1C0C0;}
	.st161{clip-path:url(#SVGID_00000065771014612321070070000015791435627067127190_);}
	.st162{fill:#C1C0C0;}
	.st163{clip-path:url(#SVGID_00000182530647928993071440000003690915702896809860_);fill:#C1C0C0;}
	.st164{clip-path:url(#SVGID_00000093173692389675195030000007462290118612118459_);fill:#C1C0C0;}
	.st165{clip-path:url(#SVGID_00000008840379365876335600000015349324533142586753_);fill:#0E8042;}
	.st166{clip-path:url(#SVGID_00000093175168785651051780000018406734281217519009_);fill:#0E8042;}
	.st167{fill:#7F2420;}
	.st168{clip-path:url(#SVGID_00000177461888980254025810000017005641482593556926_);fill:#FFFFFF;}
	.st169{clip-path:url(#SVGID_00000177461888980254025810000017005641482593556926_);fill:#D8807E;}
	.st170{fill:#7F2421;}
	.st171{clip-path:url(#SVGID_00000167363210407279893870000012842948484679746206_);fill:#ECA45C;}
	.st172{clip-path:url(#SVGID_00000170278689766378608050000013811380028406982839_);fill:#0E8042;}
	.st173{clip-path:url(#SVGID_00000170278689766378608050000013811380028406982839_);fill:#1A3826;}
	.st174{clip-path:url(#SVGID_00000065071786063406293260000017654891209340417452_);fill:#0E8042;}
	.st175{clip-path:url(#SVGID_00000065071786063406293260000017654891209340417452_);fill:#1A3826;}
	.st176{clip-path:url(#SVGID_00000060019687713513521890000007079416035394540935_);fill:#0E8042;}
	.st177{clip-path:url(#SVGID_00000060019687713513521890000007079416035394540935_);fill:#1A3826;}
	.st178{clip-path:url(#SVGID_00000088119256400904150350000006874013176831930768_);fill:#0E8042;}
	.st179{clip-path:url(#SVGID_00000088119256400904150350000006874013176831930768_);fill:#1A3826;}
	.st180{clip-path:url(#SVGID_00000107581274805111756660000006376492224979054734_);fill:#0E8042;}
	.st181{clip-path:url(#SVGID_00000107581274805111756660000006376492224979054734_);fill:#1A3826;}
	.st182{clip-path:url(#SVGID_00000176007245831112783850000000852480548264581282_);fill:#0E8042;}
	.st183{clip-path:url(#SVGID_00000176007245831112783850000000852480548264581282_);fill:#1A3826;}
	.st184{clip-path:url(#SVGID_00000011754089720676544900000013655640151077824433_);fill:#0E8042;}
	.st185{clip-path:url(#SVGID_00000011754089720676544900000013655640151077824433_);fill:#1A3826;}
	.st186{clip-path:url(#SVGID_00000174603313689711696130000001661813123186143894_);fill:#0E8042;}
	.st187{clip-path:url(#SVGID_00000174603313689711696130000001661813123186143894_);fill:#1A3826;}
	.st188{clip-path:url(#SVGID_00000027589455636765575610000006575195902482166439_);fill:#0E8042;}
	.st189{clip-path:url(#SVGID_00000027589455636765575610000006575195902482166439_);fill:#1A3826;}
	.st190{clip-path:url(#SVGID_00000109011395401289356180000007779039631118017955_);fill:#0E8042;}
	.st191{clip-path:url(#SVGID_00000109011395401289356180000007779039631118017955_);fill:#1A3826;}
	.st192{clip-path:url(#SVGID_00000163069838355054876940000007342250052804912798_);fill:#0E8042;}
	.st193{clip-path:url(#SVGID_00000163069838355054876940000007342250052804912798_);fill:#1A3826;}
	.st194{clip-path:url(#SVGID_00000026863045130584658530000005759004662012760468_);fill:#0E8042;}
	.st195{clip-path:url(#SVGID_00000026863045130584658530000005759004662012760468_);fill:#1A3826;}
	.st196{clip-path:url(#SVGID_00000021838488509008970580000001035959890137449860_);fill:#0E8042;}
	.st197{clip-path:url(#SVGID_00000021838488509008970580000001035959890137449860_);fill:#1A3826;}
	.st198{clip-path:url(#SVGID_00000101073361546188776870000017593293078061115564_);}
	.st199{clip-path:url(#SVGID_00000158019760909555116760000018106892115469841287_);fill:#FFFFFF;}
	.st200{clip-path:url(#SVGID_00000158019760909555116760000018106892115469841287_);fill:#D9807E;}
	.st201{clip-path:url(#SVGID_00000088092600522986759750000003312232398565663123_);fill:#41164A;}
	.st202{clip-path:url(#SVGID_00000175308671477411345510000009961361809485613967_);fill:#41164A;}
	.st203{clip-path:url(#SVGID_00000015322860349994611000000010221634386848065699_);fill:#FFFFFF;}
	.st204{clip-path:url(#SVGID_00000015322860349994611000000010221634386848065699_);fill:#41164A;}
	.st205{clip-path:url(#SVGID_00000135678010932380049760000008942380330716018852_);fill:#FFFFFF;}
	.st206{clip-path:url(#SVGID_00000135678010932380049760000008942380330716018852_);fill:#E47D7A;}
	.st207{clip-path:url(#SVGID_00000160895040755982818230000001449149370183360428_);fill:#C64B45;}
	.st208{clip-path:url(#SVGID_00000162348503701599302520000005635970973030471097_);}
	.st209{clip-path:url(#SVGID_00000078754409795453664930000011476100369628588720_);}
	.st210{clip-path:url(#SVGID_00000008134307126017583590000006132992304196164017_);fill:#6AA17A;}
	.st211{clip-path:url(#SVGID_00000141436881029156951890000013808383734537842565_);fill:#6AA17A;}
	.st212{clip-path:url(#SVGID_00000042011209691506910910000006508615456231677085_);fill:#3D1947;}
	.st213{clip-path:url(#SVGID_00000122693773118072918240000002168141025053068986_);fill:#8B3A37;}
	.st214{clip-path:url(#SVGID_00000090265917433083436530000002119039397177511808_);}
	.st215{clip-path:url(#SVGID_00000112617203413665703550000002233647052460499344_);}
	.st216{clip-path:url(#SVGID_00000104676062364088701080000013982579244775008912_);}
	.st217{clip-path:url(#SVGID_00000071526458224146124390000000183886273854462121_);}
	.st218{clip-path:url(#SVGID_00000012430055203349637830000001164651911590024611_);}
	.st219{clip-path:url(#SVGID_00000062171619647759257050000012236633367965492884_);}
	.st220{clip-path:url(#SVGID_00000160876629968633212820000008017287404518368667_);fill:#FFFFFF;}
	.st221{clip-path:url(#SVGID_00000160876629968633212820000008017287404518368667_);fill:#8B3A37;}
	.st222{clip-path:url(#SVGID_00000140727877026067708860000015350144309731533225_);fill:#DF9E9E;}
	.st223{clip-path:url(#SVGID_00000135692246222677787380000008456424930892969893_);fill:#C98080;}
	.st224{clip-path:url(#SVGID_00000181788680390836625200000002199688867622277265_);fill:#C1C0C0;}
	.st225{clip-path:url(#SVGID_00000017488076717967897150000009362867245339558332_);fill:#C1C0C0;}
	.st226{clip-path:url(#SVGID_00000016065644281880633690000009054774663213634453_);}
	.st227{clip-path:url(#SVGID_00000083082946188945589160000016679590215589427850_);fill:#C1C0C0;}
	.st228{clip-path:url(#SVGID_00000031901918424049384790000011473144117797700003_);fill:#C1C0C0;}
	.st229{clip-path:url(#SVGID_00000106148943775395128860000014749594428665068944_);fill:#0E8042;}
	.st230{clip-path:url(#SVGID_00000122680387739103684780000017065417969645572498_);fill:#0E8042;}
	.st231{clip-path:url(#SVGID_00000135661282169025834970000018361654823433431229_);fill:#FFFFFF;}
	.st232{clip-path:url(#SVGID_00000135661282169025834970000018361654823433431229_);fill:#D8807E;}
	.st233{clip-path:url(#SVGID_00000058548620438034272000000014551154803456498312_);fill:#ECA45C;}
</style>
<g>
	<g>
		<path class="st153" d="M190.31,156.09c-0.91,1.65-1.69,3.38-2.51,5.06c-1.44,2.93-3.03,5.71-5.64,7.72
			c-4.28,3.31-10.12,3.46-15.53,3.47c-6.18,0.02-12.37,0.03-18.56,0.05c-4.6,0-10.73-0.85-12.05-6.25c-0.28-1.13-0.2-2.36,0.12-3.61
			c0.88-3.59,3.68-7.41,5.44-9.89c4.18-5.9,9.97-10.76,16.51-14.59L190.31,156.09z"/>
		<path class="st153" d="M146.98,276.61c2.36,0.68,4.77,1.28,7.22,1.24c2.45-0.04,4.97-0.79,6.74-2.5c1.76-1.71,2.59-4.47,1.63-6.72
			c-1.99-4.66-9.51-4.47-11.84-8.98c-1.52-2.94-0.1-6.48,1.34-9.46c1.44-2.98,2.91-6.47,1.49-9.46c-1.23-2.59-4.23-3.81-7.03-4.43
			c-7.51-1.67-15.58-0.69-22.47,2.72c-3.75,1.86-7.15,4.44-9.98,7.52c-2.22,2.42-6.93,7.15-4.13,10.38
			c2.78,3.21,7.31,5.71,10.87,7.95c3.79,2.38,7.73,4.51,11.79,6.38C137.27,273.4,142.07,275.19,146.98,276.61z"/>
		<path class="st154" d="M253.09,235.91c8.58,5.06,16.57,14.09,14.63,23.86c-1.47,7.42-8.39,12.71-15.64,14.87
			s-14.96,1.87-22.51,2.26c-10.11,0.53-20.26,2.35-29.45,6.59s-17.4,11.02-22.24,19.91c-1.46,2.68-2.63,5.71-2.13,8.72
			c0.5,3.01,3.2,5.81,6.23,5.46c1.9-0.22,3.46-1.56,5.25-2.24c3.8-1.46,8,0.14,11.88,1.38c21.03,6.76,45.3,2.45,62.71-11.15
			c-4.01,2.57-3.84,8.58-1.96,12.95c1.88,4.37,5,8.36,5.48,13.09c0.43,4.27-1.37,8.42-3.24,12.27c-1.88,3.86-3.92,7.83-4.01,12.11
			c-0.09,4.29,2.46,8.99,6.68,9.74c3.21,0.57,6.43-1.27,8.6-3.7c2.17-2.44,3.56-5.45,5.32-8.2c7.79-12.21,22.26-18.84,30.29-30.89
			c10.13-15.2,6.75-37.85-7.36-49.43c-6.03-4.95-14.25-8.93-15.66-16.6c-0.89-4.88,1.38-9.69,2.73-14.47
			c5.37-19.09-4.82-39.87-20.11-52.49c-15.3-12.62-34.83-18.68-53.96-23.92c-7.35-2.01-14.86-3.44-22.43-4.38
			c-17.97-2.23-36.24-1.74-54.17,0.64c-15.04,2-31.7,5.14-44.36,14.04c-11.07,7.78-18.74,19.3-22.44,32.25
			c-3.81,13.33-17.07,21.66-30.13,26.3c-3.78,1.34-7.63,2.49-11.48,3.62c-6.19,1.82-12.41,3.6-18.36,6.12
			c-4.69,1.99-10.06,4.43-11.1,10c-0.19,1-0.21,2.09,0.25,3c0.46,0.91,1.52,1.57,2.51,1.31c-1.54,1.72-1.18,4.78,0.73,6.09
			c2.1,1.44,4.94,0.65,7.34-0.19c3.93-1.37,7.85-2.74,11.78-4.11c6.44-2.25,12.88-4.49,19.31-6.74c1.61-0.56,3.21-1.15,4.83-1.68
			c1.09-0.36,2.22-0.35,3.34-0.62c2.54-0.62,5.1-1.17,7.67-1.62c10.29-1.79,21.69-2.28,31.35,2.34c7.89,3.78,16.52,6,25.25,6.53
			c9.69,0.6,17.86-1.71,26.83-5.22c19.08-7.46,38.14-15.01,57.26-22.39c15.32-5.92,33.37-5.23,48.34,1.42
			C249.03,233.67,251.1,234.73,253.09,235.91z"/>
		<path class="st154" d="M195.32,235.75l-5.88,24.01c-4.95,0.47-9.97,0.38-14.9-0.28c-7.49-1.01-14.79-3.34-21.5-6.81
			c-0.57-0.29-1.13-0.59-1.69-0.89c-0.71-0.38-1.41-0.78-2.11-1.2c-2.79-1.61-5.48-3.43-7.93-5.54c-2.37-2.04-7.39-5.38-7.19-9.16
			c0.02-0.58,0.18-1.18,0.48-1.79c0.85-1.66,2.51-2.7,4.11-3.68c4.56-2.77,9.79-7.32,14.86-9.01c1.19-0.39,2.38-0.7,3.59-0.93
			c5.85-1.11,11.86-0.33,17.32,2.17c6.3,2.89,11.57,7.59,17.47,11.21c0.2,0.11,0.39,0.23,0.59,0.34c0.15,0.09,0.29,0.18,0.44,0.26
			C193.73,234.93,194.52,235.35,195.32,235.75z"/>
		<path class="st4" d="M107.06,215.71c-0.8,0.89-1.05,2.24-0.23,3.22c1.15,1.38,3.32,0.83,4.2-0.59c1.16-1.87-0.67-3.98-2.72-3.41
			C107.83,215.06,107.4,215.34,107.06,215.71z"/>
		<g>
			<defs>
				<path id="SVGID_00000178915414083810683260000002758309088104425147_" d="M253.09,235.91c8.58,5.06,16.57,14.09,14.63,23.86
					c-1.47,7.42-8.39,12.71-15.64,14.87s-14.96,1.87-22.51,2.26c-10.11,0.53-20.26,2.35-29.45,6.59s-17.4,11.02-22.24,19.91
					c-1.46,2.68-2.63,5.71-2.13,8.72c0.5,3.01,3.2,5.81,6.23,5.46c1.9-0.22,3.46-1.56,5.25-2.24c3.8-1.46,8,0.14,11.88,1.38
					c21.03,6.76,45.3,2.45,62.71-11.15c-4.01,2.57-3.84,8.58-1.96,12.95c1.88,4.37,5,8.36,5.48,13.09
					c0.43,4.27-1.37,8.42-3.24,12.27c-1.88,3.86-3.92,7.83-4.01,12.11c-0.09,4.29,2.46,8.99,6.68,9.74c3.21,0.57,6.43-1.27,8.6-3.7
					c2.17-2.44,3.56-5.45,5.32-8.2c7.79-12.21,22.26-18.84,30.29-30.89c10.13-15.2,6.75-37.85-7.36-49.43
					c-6.03-4.95-14.25-8.93-15.66-16.6c-0.89-4.88,1.38-9.69,2.73-14.47c5.37-19.09-4.82-39.87-20.11-52.49
					c-15.3-12.62-34.83-18.68-53.96-23.92c-7.35-2.01-14.86-3.44-22.43-4.38c-17.97-2.23-36.24-1.74-54.17,0.64
					c-15.04,2-31.7,5.14-44.36,14.04c-11.07,7.78-18.74,19.3-22.44,32.25c-3.81,13.33-17.07,21.66-30.13,26.3
					c-3.78,1.34-7.63,2.49-11.48,3.62c-6.19,1.82-12.41,3.6-18.36,6.12c-4.69,1.99-10.06,4.43-11.1,10c-0.19,1-0.21,2.09,0.25,3
					c0.46,0.91,1.52,1.57,2.51,1.31c-1.54,1.72-1.18,4.78,0.73,6.09c2.1,1.44,4.94,0.65,7.34-0.19c3.93-1.37,7.85-2.74,11.78-4.11
					c6.44-2.25,12.88-4.49,19.31-6.74c1.61-0.56,3.21-1.15,4.83-1.68c1.09-0.36,2.22-0.35,3.34-0.62c2.54-0.62,5.1-1.17,7.67-1.62
					c10.29-1.79,21.69-2.28,31.35,2.34c7.89,3.78,16.52,6,25.25,6.53c9.69,0.6,17.86-1.71,26.83-5.22
					c19.08-7.46,38.14-15.01,57.26-22.39c15.32-5.92,33.37-5.23,48.34,1.42C249.03,233.67,251.1,234.73,253.09,235.91z"/>
			</defs>
			<clipPath id="SVGID_00000156572812567826225870000013131110719367926952_">
				<use xlink:href="#SVGID_00000178915414083810683260000002758309088104425147_"  style="overflow:visible;"/>
			</clipPath>
		</g>
		<path class="st155" d="M213.62,226.34c2.46,0.73,4.93,1.18,7.73,1.26c0.6,0.02,1.27,0.05,1.69,0.48c0.46,0.48,0.4,1.29,0.02,1.83
			s-1.01,0.85-1.64,1.06c-3.65,1.19-7.57-0.53-11.4-0.56c-3.74-0.03-7.23,1.51-10.74,2.58c-1.18,0.36-2.38,0.69-3.61,0.88
			c-0.54,0.09-0.81,0.18-1.3,0.38c-0.44,0.18-0.94,0.2-1.4,0.09c-0.68-0.15-1.28-0.53-1.87-0.89c-0.41-0.25-0.81-0.51-1.22-0.76
			c-5.25-3.28-10-7.38-15.67-9.98c-6.59-3.02-13.99-3.54-20.91-1.24c1.93-3.33,5.6-4.97,9.36-5.8c11.21-2.46,22.85-0.64,33.42,3.55
			c4.24,1.68,8.38,3.6,12.6,5.32C210.37,225.26,211.99,225.86,213.62,226.34z"/>
		<path class="st153" d="M143.74,203.42c-0.92,0.49-1.83,1-2.72,1.5c-2.46,1.4-5.55,3.68-8.53,2.5c-1.85-0.74-2.96-2.79-2.94-4.78
			c0.04-5.07,5.35-8.94,9.28-11.23c5.74-3.34,12.1-5.11,18.61-6.23c9.75-1.67,19.81-1.61,29.52,0.27
			c8.19,1.58,16.26,4.09,23.49,8.31c7.05,4.11,13.56,8.7,22.1,8.77c1.65,0.01,4.8,0.9,3.58,3.17c-0.72,1.33-3.03,1.87-4.4,1.97
			c-7.2,0.53-14.5-0.39-21.37-2.62c-5.99-1.95-11.57-5.07-17.69-6.65c-6.5-1.68-13.49-1.77-20.16-1.62
			c-7.42,0.17-15.11,1.15-22.23,3.67C148.1,201.22,145.89,202.28,143.74,203.42z"/>
		<g>
			<defs>
				<path id="SVGID_00000020399938015306199600000014082501577489217702_" d="M253.09,235.91c8.58,5.06,16.57,14.09,14.63,23.86
					c-1.47,7.42-8.39,12.71-15.64,14.87s-14.96,1.87-22.51,2.26c-10.11,0.53-20.26,2.35-29.45,6.59s-17.4,11.02-22.24,19.91
					c-1.46,2.68-2.63,5.71-2.13,8.72c0.5,3.01,3.2,5.81,6.23,5.46c1.9-0.22,3.46-1.56,5.25-2.24c3.8-1.46,8,0.14,11.88,1.38
					c21.03,6.76,45.3,2.45,62.71-11.15c-4.01,2.57-3.84,8.58-1.96,12.95c1.88,4.37,5,8.36,5.48,13.09
					c0.43,4.27-1.37,8.42-3.24,12.27c-1.88,3.86-3.92,7.83-4.01,12.11c-0.09,4.29,2.46,8.99,6.68,9.74c3.21,0.57,6.43-1.27,8.6-3.7
					c2.17-2.44,3.56-5.45,5.32-8.2c7.79-12.21,22.26-18.84,30.29-30.89c10.13-15.2,6.75-37.85-7.36-49.43
					c-6.03-4.95-14.25-8.93-15.66-16.6c-0.89-4.88,1.38-9.69,2.73-14.47c5.37-19.09-4.82-39.87-20.11-52.49
					c-15.3-12.62-34.83-18.68-53.96-23.92c-7.35-2.01-14.86-3.44-22.43-4.38c-17.97-2.23-36.24-1.74-54.17,0.64
					c-15.04,2-31.7,5.14-44.36,14.04c-11.07,7.78-18.74,19.3-22.44,32.25c-3.81,13.33-17.07,21.66-30.13,26.3
					c-3.78,1.34-7.63,2.49-11.48,3.62c-6.19,1.82-12.41,3.6-18.36,6.12c-4.69,1.99-10.06,4.43-11.1,10c-0.19,1-0.21,2.09,0.25,3
					c0.46,0.91,1.52,1.57,2.51,1.31c-1.54,1.72-1.18,4.78,0.73,6.09c2.1,1.44,4.94,0.65,7.34-0.19c3.93-1.37,7.85-2.74,11.78-4.11
					c6.44-2.25,12.88-4.49,19.31-6.74c1.61-0.56,3.21-1.15,4.83-1.68c1.09-0.36,2.22-0.35,3.34-0.62c2.54-0.62,5.1-1.17,7.67-1.62
					c10.29-1.79,21.69-2.28,31.35,2.34c7.89,3.78,16.52,6,25.25,6.53c9.69,0.6,17.86-1.71,26.83-5.22
					c19.08-7.46,38.14-15.01,57.26-22.39c15.32-5.92,33.37-5.23,48.34,1.42C249.03,233.67,251.1,234.73,253.09,235.91z"/>
			</defs>
			<clipPath id="SVGID_00000091699831484939813000000006271566453826155184_">
				<use xlink:href="#SVGID_00000020399938015306199600000014082501577489217702_"  style="overflow:visible;"/>
			</clipPath>
		</g>
		<g>
			<defs>
				<path id="SVGID_00000062194207534541266530000011907661083068883347_" d="M253.09,235.91c8.58,5.06,16.57,14.09,14.63,23.86
					c-1.47,7.42-8.39,12.71-15.64,14.87s-14.96,1.87-22.51,2.26c-10.11,0.53-20.26,2.35-29.45,6.59s-17.4,11.02-22.24,19.91
					c-1.46,2.68-2.63,5.71-2.13,8.72c0.5,3.01,3.2,5.81,6.23,5.46c1.9-0.22,3.46-1.56,5.25-2.24c3.8-1.46,8,0.14,11.88,1.38
					c21.03,6.76,45.3,2.45,62.71-11.15c-4.01,2.57-3.84,8.58-1.96,12.95c1.88,4.37,5,8.36,5.48,13.09
					c0.43,4.27-1.37,8.42-3.24,12.27c-1.88,3.86-3.92,7.83-4.01,12.11c-0.09,4.29,2.46,8.99,6.68,9.74c3.21,0.57,6.43-1.27,8.6-3.7
					c2.17-2.44,3.56-5.45,5.32-8.2c7.79-12.21,22.26-18.84,30.29-30.89c10.13-15.2,6.75-37.85-7.36-49.43
					c-6.03-4.95-14.25-8.93-15.66-16.6c-0.89-4.88,1.38-9.69,2.73-14.47c5.37-19.09-4.82-39.87-20.11-52.49
					c-15.3-12.62-34.83-18.68-53.96-23.92c-7.35-2.01-14.86-3.44-22.43-4.38c-17.97-2.23-36.24-1.74-54.17,0.64
					c-15.04,2-31.7,5.14-44.36,14.04c-11.07,7.78-18.74,19.3-22.44,32.25c-3.81,13.33-17.07,21.66-30.13,26.3
					c-3.78,1.34-7.63,2.49-11.48,3.62c-6.19,1.82-12.41,3.6-18.36,6.12c-4.69,1.99-10.06,4.43-11.1,10c-0.19,1-0.21,2.09,0.25,3
					c0.46,0.91,1.52,1.57,2.51,1.31c-1.54,1.72-1.18,4.78,0.73,6.09c2.1,1.44,4.94,0.65,7.34-0.19c3.93-1.37,7.85-2.74,11.78-4.11
					c6.44-2.25,12.88-4.49,19.31-6.74c1.61-0.56,3.21-1.15,4.83-1.68c1.09-0.36,2.22-0.35,3.34-0.62c2.54-0.62,5.1-1.17,7.67-1.62
					c10.29-1.79,21.69-2.28,31.35,2.34c7.89,3.78,16.52,6,25.25,6.53c9.69,0.6,17.86-1.71,26.83-5.22
					c19.08-7.46,38.14-15.01,57.26-22.39c15.32-5.92,33.37-5.23,48.34,1.42C249.03,233.67,251.1,234.73,253.09,235.91z"/>
			</defs>
			<clipPath id="SVGID_00000143589116544934538960000006605012566030226874_">
				<use xlink:href="#SVGID_00000062194207534541266530000011907661083068883347_"  style="overflow:visible;"/>
			</clipPath>
			<path style="clip-path:url(#SVGID_00000143589116544934538960000006605012566030226874_);fill:#DF9E9E;" d="M2.77,254.61
				c2.46,0.17,5.67-2.65,7.63-3.87c10.1-6.27,22.18-8.23,33.63-11.44s23.28-8.42,29.41-18.61c4.93-8.19,5.36-18.25,8.27-27.36
				c1.92-6.02,4.97-11.68,8.93-16.59c-1.65-0.85-3.73-0.36-5.24,0.72c-1.51,1.08-2.58,2.65-3.64,4.17
				c-13.05,18.72-30.07,34.66-49.59,46.47c-6.71,4.06-13.72,7.66-20.1,12.24c-3.13,2.25-6.37,4.75-8.85,7.72
				C2.15,249.34-0.41,254.39,2.77,254.61z"/>
			<path style="clip-path:url(#SVGID_00000143589116544934538960000006605012566030226874_);fill:#DF9E9E;" d="M259.22,248.7
				c-5.28-13.32-24.38-17.6-37.22-17.98c-2.98-0.09-3.67-2.36-1.25-3.82c2.61-1.56,7.45-1.62,10.43-1.82
				c17.8-1.17,37.73,7.28,43,25.6c1.19,4.15,1.49,8.62,0.62,12.86c-0.64,3.14-2.11,7.51-4.57,9.68c-6.77,5.97-17.2,8.24-25.86,9.5
				c-9.82,1.43-19.82,1.62-29.54,3.63c-9.72,2.01-19.44,6.11-25.74,13.78c-1.65,2.01-3.06,4.46-3.46,7.1
				c-0.21,1.38-0.12,2.79,0.3,4.12c0.46,1.47,1.15,2.69,0.94,4.31c-0.35,2.69-3.28,4.55-5.98,4.29c-2.7-0.27-5.01-2.24-6.33-4.61
				c-4.67-8.34-2.51-17.86,3.87-24.58c3.57-3.76,8.05-6.55,12.64-8.97c7.75-4.09,15.97-7.28,24.44-9.48
				c10.1-2.63,21.21-2.9,31.41-5.09c3.47-0.75,7.12-1.58,9.76-3.96C260.57,259.74,261.16,253.58,259.22,248.7z"/>
			<path style="clip-path:url(#SVGID_00000143589116544934538960000006605012566030226874_);fill:#DF9E9E;" d="M258.12,309.55
				c-2.4,3.88-3.16,7.39-0.91,12.26c1.69,3.65,4.22,7.01,4.88,10.97c0.57,3.42-0.32,6.92-1.49,10.19c-1.17,3.27-2.62,6.47-3.22,9.88
				c-0.6,3.42-0.23,7.2,1.93,9.91c1.67,2.09,6.28,4.34,8.18,1.14c1.45-2.45-0.81-6.01-1.56-8.35c-1.68-5.23,2.46-8.63,4.33-12.96
				c2.23-5.17,2.51-11.38,1.28-16.82c-0.9-3.98-2.97-7.67-5.36-11.02c-0.87-1.23-5.99-5.02-4.38-9.2c0,0-1.44,1.06-2.39,2.04
				C258.95,308.26,258.51,308.91,258.12,309.55z"/>
		</g>
		<g>
			<path class="st4" d="M2.58,259.1c5.5-3.45,11.29-6.46,17.39-8.8c6.09-2.34,12.48-3.75,18.85-5.11c4.78-0.99,9.6-1.8,14.46-2.28
				c4.81-0.36,9.51-1.31,13.82-3.52c2.86-1.43,5.42-3.45,7.64-5.81c-3.93,5.19-10.02,8.65-16.45,9.99
				c-6.39,1.12-12.77,1.89-19.08,3.43C26.51,249.57,14.53,254.09,2.58,259.1L2.58,259.1z"/>
		</g>
	</g>
	<g>
		<path class="st157" d="M242.23,84.54c-0.12,0.71-0.2,1.42-0.26,2.13c-0.04,0.48-0.18,1.07-0.04,1.54c0.12,0.4,0.4,0.86,0.62,1.22
			c1.4,2.23,4.29,2.94,6.91,3.18c2.18,0.2,4.47,0.17,6.41-0.85c2.65-1.4,4.04-4.33,5.26-7.07c1.94-4.38,3.89-8.76,5.83-13.13
			c0.37-0.83,0.74-1.69,0.77-2.59c0.06-1.88-1.49-3.56-3.3-4.03s-3.78,0.09-5.35,1.11c-1.57,1.03-2.8,2.49-3.96,3.96
			c-1.16,1.48-2.28,3.01-3.68,4.25c-1.31,1.15-2.93,2.04-4.45,2.95c-1.04,0.62-2.19,1.21-2.88,2.24c-0.8,1.19-1.3,2.51-1.62,3.9
			C242.38,83.74,242.3,84.14,242.23,84.54z"/>
		<g>
			<defs>
				<path id="SVGID_00000085211300312726299000000000957830540715632259_" d="M242.23,84.54c-0.12,0.71-0.2,1.42-0.26,2.13
					c-0.04,0.48-0.18,1.07-0.04,1.54c0.12,0.4,0.4,0.86,0.62,1.22c1.4,2.23,4.29,2.94,6.91,3.18c2.18,0.2,4.47,0.17,6.41-0.85
					c2.65-1.4,4.04-4.33,5.26-7.07c1.94-4.38,3.89-8.76,5.83-13.13c0.37-0.83,0.74-1.69,0.77-2.59c0.06-1.88-1.49-3.56-3.3-4.03
					s-3.78,0.09-5.35,1.11c-1.57,1.03-2.8,2.49-3.96,3.96c-1.16,1.48-2.28,3.01-3.68,4.25c-1.31,1.15-2.93,2.04-4.45,2.95
					c-1.04,0.62-2.19,1.21-2.88,2.24c-0.8,1.19-1.3,2.51-1.62,3.9C242.38,83.74,242.3,84.14,242.23,84.54z"/>
			</defs>
			<clipPath id="SVGID_00000011010862812134302800000005461750064216438919_">
				<use xlink:href="#SVGID_00000085211300312726299000000000957830540715632259_"  style="overflow:visible;"/>
			</clipPath>
			<path style="clip-path:url(#SVGID_00000011010862812134302800000005461750064216438919_);fill:#C98080;" d="M268.59,71.72
				c0.96-1.07,1.88-2.26,2.18-3.67s-0.21-3.08-1.5-3.73c-1.48-0.74-3.22,0.09-4.66,0.9c-3.76,2.12-7.52,4.25-11.28,6.37
				c-3.4,1.92-6.8,3.84-10.2,5.76c-1.13,0.64-2.34,1.37-2.83,2.57c-2.01,4.98,12.5,2.36,14.51,1.75
				C260.5,79.94,264.62,76.15,268.59,71.72z"/>
		</g>
		<path class="st1" d="M239.94,120.06c-5.86,5.88-11.86,11.62-17.98,17.23c-1.41,1.29-2.93,2.63-4.79,3
			c-1.87,0.38-4.17-0.61-4.48-2.49c-0.15-0.9,0.16-1.81,0.47-2.68c3-8.31,5.98-16.64,8.98-24.96L239.94,120.06z"/>
		<path class="st154" d="M256.08,101.76c-0.79,2.34-2.52,4.22-4.21,6.02c-3.91,4.15-7.89,8.25-11.93,12.28l-17.81-9.9
			c1.36-3.79,2.72-7.58,4.09-11.38c0.97-2.68,1.98-5.44,3.91-7.53c2.33-2.49,4.91-2.05,7.81-3.07c3.1-1.09,5.09-1.6,7.29,1.19
			c0.84,1.06,1.37,2.6,2.52,3.31c2.03,1.26,4.79,0.93,6.72,2.33C256.46,96.48,256.87,99.41,256.08,101.76z"/>
		<path class="st82" d="M194.45,185.97c-0.55,1.46-0.21,3.2-0.15,4.73c0.26,6.95,0.67,13.9,0.96,20.86
			c0.41,9.75,0.93,19.49,1.71,29.21c1.47,18.5,1.78,37.09,0.94,55.62c-0.51,11.25-1.77,23.29-9.04,31.89
			c9.33,5.54,18.06,10.48,27.39,16.02c7.83-11.21,7.29-26.3,6.94-40.26c-0.5-20.17-1.24-40.38-1.65-60.53
			c-0.06-3.11,0.99-6.55,1.49-9.62c3.62,6.67,6.33,13.83,8.02,21.23c7,30.65,13.05,58.71,13.2,90.14
			c4.94-2.41,10.66-3.01,16.04-2.02c2.67,0.49,5.18,1.4,7.61,2.6c2.73,1.36,4.79,3.75,7,5.83c2.3-16.65,1.65-33.7-1.93-50.12
			c-5.71-26.24-12.6-52.28-16.32-78.91c-0.7-5.02-0.88-10.19-1.77-15.17c-0.72-4.04,0.89-7.91,0.7-12.05
			c-0.16-3.63-1.42-7.36-4.15-9.75c-1.67-1.46-3.77-2.34-5.87-3.08c-8.79-3.12-18.23-4.37-27.54-3.77
			c-4.65,0.3-9.28,1.06-13.78,2.28c-1.87,0.51-3.68,1.3-5.55,1.76c-1.72,0.43-3.51,1.23-4.22,2.98
			C194.48,185.89,194.46,185.93,194.45,185.97z"/>
		<g>
			<defs>
				<path id="SVGID_00000056390889055768618040000000812044171884542091_" d="M194.45,185.97c-0.55,1.46-0.21,3.2-0.15,4.73
					c0.26,6.95,0.67,13.9,0.96,20.86c0.41,9.75,0.93,19.49,1.71,29.21c1.47,18.5,1.78,37.09,0.94,55.62
					c-0.51,11.25-1.77,23.29-9.04,31.89c9.33,5.54,18.06,10.48,27.39,16.02c7.83-11.21,7.29-26.3,6.94-40.26
					c-0.5-20.17-1.24-40.38-1.65-60.53c-0.06-3.11,0.99-6.55,1.49-9.62c3.62,6.67,6.33,13.83,8.02,21.23
					c7,30.65,13.05,58.71,13.2,90.14c4.94-2.41,10.66-3.01,16.04-2.02c2.67,0.49,5.18,1.4,7.61,2.6c2.73,1.36,4.79,3.75,7,5.83
					c2.3-16.65,1.65-33.7-1.93-50.12c-5.71-26.24-12.6-52.28-16.32-78.91c-0.7-5.02-0.88-10.19-1.77-15.17
					c-0.72-4.04,0.89-7.91,0.7-12.05c-0.16-3.63-1.42-7.36-4.15-9.75c-1.67-1.46-3.77-2.34-5.87-3.08
					c-8.79-3.12-18.23-4.37-27.54-3.77c-4.65,0.3-9.28,1.06-13.78,2.28c-1.87,0.51-3.68,1.3-5.55,1.76
					c-1.72,0.43-3.51,1.23-4.22,2.98C194.48,185.89,194.46,185.93,194.45,185.97z"/>
			</defs>
			<clipPath id="SVGID_00000025415273735841489120000000846426420707465601_">
				<use xlink:href="#SVGID_00000056390889055768618040000000812044171884542091_"  style="overflow:visible;"/>
			</clipPath>
			<path style="clip-path:url(#SVGID_00000025415273735841489120000000846426420707465601_);fill:#C1C0C0;" d="M182.9,205.77
				c6.7,13.63,9.01,29.27,7.02,44.3c-1.88,14.13-11.28,25.8-9.44,40.11c0.78,6.07,1.75,12.64-1.25,17.97
				c-4.63,8.23-17.02,10.36-20.15,19.27c-1.75,4.98,0.19,10.7,3.76,14.58c3.57,3.89,8.51,6.22,13.49,7.97
				c9.55,3.36,19.73,4.9,29.85,4.54c3.79-0.14,7.64-0.55,11.14-2.02c3.5-1.47,6.64-4.11,8.01-7.65c0.97-2.5,1.02-5.3,2.12-7.74
				c1.1-2.44,3.99-4.5,6.39-3.3c2.25,5.95,4.73,12.22,9.76,16.11c5.03,3.9,13.46,4.14,16.95-1.18c2.13-3.25,1.84-7.6,0.42-11.22
				c-1.42-3.62-3.82-6.76-5.84-10.08c-7.18-11.81-9.53-25.87-11.18-39.59c-1.65-13.72-2.79-27.74-7.95-40.56
				c-3.59-8.91-9.43-17.28-17.44-22.73c-2-1.36-4.13-2.55-6.38-3.47c-3.18-1.31-4.2-0.55-4.12-3.86c0.14-5.41,3.55-12.23,5.07-17.45
				c0.91-3.12,1.77-6.66,0.11-9.46c-1.79-3.02-5.71-3.85-9.18-4.39c-4.89-0.76-9.95-1.51-14.73-0.23s-9.24,5.15-9.57,10.08
				C179.5,199.3,181.33,202.59,182.9,205.77z"/>
		</g>
		<path class="st82" d="M307.78,158.17c-2.27-10.59-5.7-20.93-10.22-30.77c-2.26-4.93-4.85-9.65-7.56-14.35
			c-2.45-4.25-5.63-6.96-9.69-9.64c-6.31-4.18-12.6-8.35-18.91-12.52c-0.06-0.04-0.13-0.08-0.19-0.12c-1.9,1.83-3.76,3.66-5.6,5.51
			c-0.91,0.91-1.8,1.81-2.71,2.71c0,0-0.02,0-0.02,0.01c-3.27,3.29-6.55,6.6-9.92,9.85c-1.78,1.72-3.56,3.42-5.33,5.15l-0.02,0.01
			c-1.04,1.01-2.07,2.02-3.1,3.04c-0.92,0.91-1.84,1.82-2.76,2.73c-1.09,1.08-2.16,2.17-3.23,3.26c-4.72,4.83-7.73,7.8-12.69,12.37
			c0.42-1.48,0.83-2.93,1.26-4.36c0.26-0.89,0.52-1.77,0.79-2.64l0-0.01c0.41-1.34,0.82-2.66,1.24-3.97
			c0.19-0.58,0.36-1.14,0.56-1.71c0.06-0.18,0.12-0.36,0.17-0.54c1.26-3.77,2.6-7.41,4.09-11.01c1.54-3.74,3.25-7.41,5.2-11.09
			c1.94-3.68,4.11-7.36,6.6-11.12c0.05-0.08,0.1-0.15,0.16-0.23c0.42-0.65,0.87-1.3,1.31-1.95c-0.29,0.07-0.58,0.14-0.87,0.21
			l-0.01,0c-6.82,1.65-13.62,3.29-20.44,4.93c-2.99,0.73-6.01,1.46-8.73,2.9c-2.71,1.45-4.69,3.9-6.6,6.31
			c-7.99,10.03-14.75,21.05-20.06,32.71c-0.19,0.41-0.37,0.81-0.56,1.21c-0.9,2.02-1.77,4.08-2.1,6.27
			c-0.34,2.19-0.1,4.54,1.09,6.41c1.78,2.82,5.48,4.03,8.78,3.52c3.3-0.51,5.8-1.95,8.17-4.3c-0.01,0.06-0.03,0.14-0.03,0.2
			c-1.7,9.4-3.4,18.8-5.09,28.2c-0.84,4.67-1.6,9.84,0.86,13.9c0.69,1.14,1.63,2.09,2.72,2.84c2.88,1.98,6.82,2.47,10,0.95
			c4.77,3.59,9.81,6.81,15.09,9.62c3.37,1.8,7.2,3.48,10.91,2.56c3.82-0.95,6.42-4.35,9.4-6.9c0.03-0.03,0.06-0.06,0.09-0.08
			c3.28-2.79,7.16-5.01,11.33-6.12c0.53-0.14,1.08-0.26,1.63-0.37c-0.06,0.14-0.12,0.28-0.16,0.42c-0.09,0.27-0.17,0.53-0.24,0.79
			c-0.69,2.61-0.41,5.4,0.66,7.88c0.38,0.87,1.06,1.6,1.78,2.27c0.35,0.32,0.7,0.64,1.04,0.96c0.53,0.5,1.07,0.99,1.62,1.47
			c0.75,0.67,1.51,1.32,2.28,1.95c1.15,0.94,2.46,1.88,3.94,1.86c1.22-0.01,2.32-0.69,3.35-1.33c3.06-1.93,6.18-3.79,9.13-5.88
			c8.08-5.74,15.78-12.03,23.01-18.8c2.48-2.33,4.97-4.81,6.78-7.64c1.05-1.62,1.88-3.37,2.35-5.25c0.17-0.68,0.3-1.37,0.37-2.07
			c0.02-0.22,0.04-0.43,0.06-0.65c0.2-2.37-0.07-4.79-0.51-7.17C308.11,159.76,307.95,158.97,307.78,158.17z M260.44,182.73
			c-1.16,0.99-2.34,1.99-3.42,3.06c-0.79-0.47-1.71-0.69-2.29-1.55c-0.82-1.21-1.26-2.58-1.39-4.03c-0.26-3.02,0.62-6.07,1.56-8.91
			c3.52-10.59,7.04-21.17,10.58-31.75c0.16-0.49,0.29-0.47,0.41-0.96c0.81,0.59,1.58,1.21,2.33,1.87c3.17,2.8,5.81,6.2,7.78,9.96
			c0.98,1.88,1.8,3.85,2.42,5.87c0.26,0.8,0.49,1.61,0.66,2.44c0.13,0.67,0.22,1.34,0.43,2c0.09,0.28,0.18,0.59,0.33,0.84
			c0.04,0.06,0.36,0.62,0.56,0.65c-0.53,0.44-0.58,1.3-0.43,1.93c0.07,0.29,0.19,0.59,0.37,0.82c0.06,0.06,0.41,0.44,0.55,0.44
			c0.01,0.01,0.01,0.01,0.02,0.01C274.07,171.19,267.26,176.96,260.44,182.73z"/>
		<g>
			<defs>
				<path id="SVGID_00000017502918891247578370000011547952349957797263_" d="M261.2,90.77c6.37,4.21,12.74,8.43,19.1,12.64
					c4.07,2.69,7.24,5.4,9.7,9.64c2.71,4.69,5.3,9.42,7.56,14.35c4.52,9.84,7.96,20.18,10.22,30.77c0.86,4.04,1.55,8.27,0.54,12.28
					c-1.3,5.18-5.22,9.24-9.12,12.89c-7.24,6.78-14.93,13.07-23.02,18.81c-2.95,2.09-6.06,3.95-9.12,5.88
					c-1.03,0.65-2.13,1.32-3.35,1.34c-1.48,0.02-2.79-0.92-3.94-1.85c-1.34-1.09-2.65-2.23-3.9-3.42c-1.03-0.97-2.26-1.93-2.82-3.23
					c-1.18-2.74-1.41-5.84-0.42-8.67c1.36-3.91,4.65-6.78,7.81-9.45c6.82-5.78,13.65-11.55,20.47-17.33
					c-0.1,0.09-0.53-0.37-0.59-0.44c-0.18-0.23-0.3-0.53-0.36-0.81c-0.15-0.63-0.1-1.48,0.43-1.93c-0.2-0.03-0.53-0.59-0.57-0.65
					c-0.14-0.26-0.24-0.56-0.32-0.85c-0.2-0.65-0.29-1.33-0.43-2c-0.17-0.82-0.4-1.64-0.65-2.44c-0.63-2.02-1.45-3.99-2.43-5.86
					c-1.97-3.75-4.61-7.15-7.78-9.96c-0.75-0.66-1.52-1.29-2.32-1.87c-0.12,0.49-0.25,0.48-0.41,0.96
					c-3.52,10.59-7.05,21.17-10.57,31.76c-0.94,2.84-1.83,5.88-1.56,8.91c0.13,1.46,0.57,2.82,1.39,4.04c0.77,1.15,2.13,1.14,3,2.11
					c0.97,1.08,0.7,3.99-0.55,4.79c-0.77,0.5-1.63,0.22-2.48,0.31c-1.19,0.12-2.38,0.36-3.53,0.66c-4.17,1.11-8.05,3.33-11.33,6.12
					c-0.03,0.03-0.06,0.05-0.1,0.08c-2.99,2.56-5.58,5.95-9.4,6.9c-3.71,0.92-7.54-0.75-10.92-2.56
					c-5.27-2.81-10.32-6.03-15.09-9.62c-4.37,2.1-10.21,0.36-12.72-3.79c-2.46-4.07-1.7-9.23-0.86-13.9
					c1.71-9.47,3.41-18.93,5.12-28.4c-2.37,2.35-4.87,3.79-8.17,4.29c-3.3,0.51-6.99-0.7-8.78-3.52c-1.18-1.87-1.42-4.22-1.09-6.4
					s1.2-4.25,2.1-6.27c5.41-12.12,12.35-23.54,20.61-33.92c1.92-2.41,3.89-4.85,6.61-6.3c2.71-1.45,5.74-2.18,8.73-2.91
					c7.1-1.71,14.21-3.43,21.31-5.14c-11.05,16.01-16.34,30.65-21.39,48.63c4.97-4.57,7.98-7.55,12.69-12.38
					c4.71-4.82,9.57-9.51,14.43-14.19C249.17,102.87,255,96.75,261.2,90.77z"/>
			</defs>
			<clipPath id="SVGID_00000080899597009238912560000003092692341072234891_">
				<use xlink:href="#SVGID_00000017502918891247578370000011547952349957797263_"  style="overflow:visible;"/>
			</clipPath>
			<path style="clip-path:url(#SVGID_00000080899597009238912560000003092692341072234891_);fill:#C1C0C0;" d="M217.66,131.42
				c-0.75,1.12-1.35,2.35-1.81,3.94c-0.12,0.42-0.36,0.95-0.52,1.4c-1.14,3.4-2.24,6.79-3.2,10.24c-2.62,9.44-4.59,19.06-5.96,28.76
				c-0.67,4.76-1.14,9.53-1.6,14.31c-0.33,3.46-1.32,6.78-5.45,7.09c-2.56,0.19-5.04-1.05-7.02-2.69
				c-6.59-5.43-8.53-15.74-4.36-23.2c0.88-1.58,2.01-3.05,2.52-4.79c0.51-1.73,0.23-3.89-1.26-4.91c-2.69-1.86-6.51,1.27-9.56,0.09
				c-2.35-0.91-3.06-3.83-3.44-6.32c-2.01-13.17-3.92-27.21,1.58-39.35c4.26-9.42,12.59-16.52,21.79-21.24
				c9.19-4.73,19.3-7.33,29.32-9.9c2.17-0.56,4.37-1.12,6.61-1.02c2.24,0.09,4.55,0.94,5.9,2.72c2.39,3.15,0.98,7.66-0.7,11.24
				c-4.89,10.47-11.27,20.23-18.89,28.91C220.05,128.5,218.72,129.85,217.66,131.42z"/>
		</g>
		<path class="st82" d="M253.49,0.67c4.66-1.4,9.77-0.47,14.19,1.57c4.42,2.03,8.27,5.09,12.08,8.12c2.46,1.95,4.76,4.09,6.95,6.34
			c2,2.05,4.49,4.2,5.23,7.08c0.58,2.27,0.34,4.7-0.6,6.84c-0.82,1.86-1.68,3.72-3.87,4.26c-2.32,0.57-4.61-0.8-6.65-2.05
			c-13.67-8.4-29.29-13.63-45.26-15.14c-0.98-0.09-1.99-0.18-2.87-0.62c-2.36-1.17-1.65-3.57,0.35-4.52
			c2.27-1.08,4.54-1.57,6.71-3.03C244.25,6.49,248.16,2.27,253.49,0.67z"/>
		<g>
			<defs>
				<path id="SVGID_00000163044274169592729480000011552133805190518660_" d="M253.49,0.67c4.66-1.4,9.77-0.47,14.19,1.57
					c4.42,2.03,8.27,5.09,12.08,8.12c2.46,1.95,4.76,4.09,6.95,6.34c2,2.05,4.49,4.2,5.23,7.08c0.58,2.27,0.34,4.7-0.6,6.84
					c-0.82,1.86-1.68,3.72-3.87,4.26c-2.32,0.57-4.61-0.8-6.65-2.05c-13.67-8.4-29.29-13.63-45.26-15.14
					c-0.98-0.09-1.99-0.18-2.87-0.62c-2.36-1.17-1.65-3.57,0.35-4.52c2.27-1.08,4.54-1.57,6.71-3.03
					C244.25,6.49,248.16,2.27,253.49,0.67z"/>
			</defs>
			<clipPath id="SVGID_00000101105380286842261920000015618643518465524658_">
				<use xlink:href="#SVGID_00000163044274169592729480000011552133805190518660_"  style="overflow:visible;"/>
			</clipPath>
			<g style="clip-path:url(#SVGID_00000101105380286842261920000015618643518465524658_);">
				<path class="st154" d="M263.25,10.65c10.35,5.01,20.01,11.45,28.63,19.06c1.05,0.93,2.17,2.39,1.41,3.57
					c-0.46,0.71-1.44,0.9-2.26,0.69s-1.5-0.75-2.16-1.27c-13.56-10.46-30.52-16.44-47.65-16.79c-2.05-0.04-4.19-0.03-6-0.97
					c-1.82-0.95-3.13-3.22-2.25-5.07c0.88-1.86,3.16-2.23,4.98-2.4c1.92-0.17,3.36-0.67,5.17-1.19c4.13-1.19,9.18,0.1,13.12,1.43
					C258.64,8.52,260.97,9.54,263.25,10.65z"/>
			</g>
		</g>
		<path class="st162" d="M219.4,10.34c-2.47,0.11-4.99,0.32-7.27,1.26s-4.35,2.72-5.05,5.09c-1.17,3.95,1.64,7.95,4.69,10.73
			c8.07,7.38,18.61,11.34,28.98,14.79c18.37,6.11,37.1,11.13,56.06,15.03c2.14,0.44,4.32,0.87,6.49,0.57
			c2.16-0.3,4.33-1.45,5.26-3.42c0.86-1.82,0.53-4.02-0.39-5.8c-0.93-1.78-2.39-3.22-3.86-4.59C286.65,27.6,263.94,15.12,240,11.45
			C233.19,10.41,226.28,10.03,219.4,10.34z"/>
		<path class="st4" d="M258.06,40.14c-0.26,3.9-0.92,7.8-0.58,11.7c0.34,3.89,1.89,7.92,5.11,10.13c3.55,2.43,8.51,2.12,12.24-0.02
			c3.74-2.13,6.38-5.81,8.18-9.72c0.69-1.5,1.28-3.18,0.82-4.77c-0.42-1.43-1.61-2.49-2.78-3.42c-3.55-2.84-7.38-5.35-11.39-7.49
			c-2.42-1.29-4.88-2.52-7.39-3.63c-0.89-0.39-1.76-0.95-2.73-0.45c-0.55,0.28-0.97,0.79-1.26,1.34c-0.2,0.38-0.39,0.77-0.31,1.2
			c0.1,0.52,0.14,1.04,0.16,1.57C258.17,37.77,258.13,38.95,258.06,40.14z"/>
		<path class="st1" d="M236.24,95.55c-0.02,0.05-0.04,0.1-0.05,0.15c-0.37,1.02-0.77,2.11-0.26,3.17c0.52,1.07,1.85,1.55,3.02,1.38
			s2.2-0.89,3.06-1.7c2.28-2.16,3.72-5.41,3.04-8.48c-0.22-1.02-0.78-2.09-1.78-2.41c-0.68-0.22-1.44-0.03-2.06,0.34
			c-0.62,0.37-1.11,0.9-1.6,1.42c-0.78,0.84-1.7,1.5-2.13,2.58C237.01,93.15,236.66,94.36,236.24,95.55z"/>
		<path class="st153" d="M242.42,83.57c-2.19,0.09-4.58,1.14-5.8,2.97c-1.22,1.82-1.12,4.36-0.37,6.43
			c2.43-1.61,4.86-3.22,7.29-4.84c1.01,4.3,1.04,8.83,0.1,13.15c2.32-0.29,4.58-0.81,6.82-1.47c3.29-0.97,6.57-2.41,8.83-4.99
			c2.25-2.58,3.24-6.56,1.58-9.56c-0.92,2.26-3.22,3.79-5.61,4.33c-2.38,0.54-4.87,0.24-7.27-0.21c-1.52-0.29-3.08-0.67-4.28-1.64
			C242.52,86.77,242.15,85.12,242.42,83.57z"/>
		<path class="st1" d="M236.68,98.2c1.19,0.18,2.22,1.15,2.5,2.32c0.28,1.17-0.18,2.48-1.11,3.24c-1.06,0.86-2.7,0.95-3.79,0.14
			C231.76,102.06,233.59,97.73,236.68,98.2z"/>
		<path class="st1" d="M252.09,118.38c1.62-0.2,3.27-0.16,4.76,0.06c2.29,0.34,4.58,1.48,5.75,3.48c0.22,0.37,0.4,0.78,0.36,1.21
			c-0.03,0.43-0.34,0.85-0.77,0.89c-0.55,0.05-1.08-0.56-1.53-0.81c-1.37-0.78-2.97-0.51-4.26,0.29c-1.25,0.77-1.88,2.27-3.23,2.82
			c-1.05,0.42-2.23,0.12-3.31-0.19c-1.24-0.35-2.48-0.7-3.73-1.05c-0.92-0.26-2.1-0.78-2.06-1.94c0.03-0.94,1.22-1.86,1.88-2.39
			C247.63,119.4,249.84,118.66,252.09,118.38z"/>
		<path class="st82" d="M219.87,127.83c-0.47,1.39-1.58,2.34-2.77,3.23c-0.63,0.47-1.29,0.93-1.89,1.43
			c-4.68,3.87-9.87,7.05-14.71,10.7c-1.28,0.97-2.69,1.83-3.81,3c-0.3,0.31-0.57,0.64-0.83,0.98c0.01-0.06,0.02-0.14,0.03-0.2
			c-2.38,2.35-4.87,3.79-8.17,4.3c-3.3,0.51-6.99-0.7-8.78-3.52c-1.18-1.87-1.42-4.22-1.09-6.41c0.33-2.18,1.2-4.24,2.1-6.27
			c0.18-0.41,0.37-0.8,0.56-1.21c0.58-0.52,1.16-1.04,1.72-1.63c2.16-2.3,4.58-4.41,6.9-6.55c4.62-4.23,9.39-8.29,14.37-12.09
			c1.82-1.39,3.78-2.81,6.07-3.03c2.79-0.28,5.51,1.35,7.18,3.6c1.68,2.24,2.48,5,3.05,7.75c0.02,0.1,0.05,0.2,0.06,0.3
			C220.24,124.06,220.47,126.03,219.87,127.83z"/>
		<path class="st154" d="M209.97,112.83c-1.67,1.77-1.99,4.51-1.79,6.84c0.2,2.35,0.97,4.7,2.53,6.47s3.97,2.86,6.3,2.48
			c1.43-0.23,2.72-0.98,3.97-1.72c1.38-0.81,2.85-1.74,3.37-3.25c-1.57-0.2-3.16-0.41-4.66-0.93c-2.03-0.7-3.83-2.23-4.63-4.28
			c-0.97-2.45-0.23-5.07,0.49-7.48c0.07-0.22,0.12-0.48-0.03-0.65c-0.16-0.17-0.44-0.13-0.67-0.06c-0.74,0.21-1.46,0.47-2.16,0.78
			c-0.86,0.38-1.7,0.85-2.4,1.48C210.17,112.63,210.07,112.73,209.97,112.83z"/>
		<path class="st157" d="M222.92,101.76c0.69-0.84,1.43-1.72,2.46-2.06c1.07-0.35,2.24-0.05,3.32,0.26
			c2.58,0.72,5.17,1.45,7.75,2.17c1.88,0.53,3.33,1.14,3.93,3.2c0.53,1.83-0.26,3.51-1,5.15c-0.95,2.1-2.02,4.14-3.22,6.1
			c-1.16,1.9-1.87,3.36-4.45,3.2c-1.1-0.07-2.17-0.43-3.22-0.78c-1.59,2.24-3.65,4.28-6.26,5.13c-2.61,0.85-5.84,0.21-7.41-2.05
			c-1.6-2.3-1.75-6.86-0.77-9.47c0.79-2.12,3.18-3.88,4.58-5.6C220.05,105.28,221.66,103.6,222.92,101.76z"/>
		<path class="st157" d="M221.3,47.07c-1.17,4.49-1.29,8.88-0.4,13.45c0.62,3.2,1.25,6.4,1.87,9.61c0.53,2.7,0.55,6.18,2.14,8.5
			c1.95,2.84,5.89,3.32,9.34,3.37c5.83,0.09,11.77-0.3,17.25-2.31c5.48-2.01,10.49-5.81,12.94-11.11c2.95,0.76,6.21,0.24,8.78-1.4
			c2.57-1.64,4.41-4.38,4.97-7.37c0.27-1.48,0.23-3.08-0.51-4.39c-0.74-1.31-2.28-2.24-3.75-1.92c-1.74,0.37-2.71,2.16-3.82,3.55
			c-1.08,1.35-4.23,2.99-5.33,0.71c-0.39-0.82-0.24-1.8,0.1-2.65c0.34-0.84,0.87-1.6,1.24-2.43c0.73-1.63,0.84-3.56,0.18-5.22
			c-0.44-1.1-1.2-2.07-1.53-3.21c-0.42-1.41-0.17-2.9-0.32-4.34c-0.15-1.37-0.84-2.76-1.55-3.94c-2.35-3.9-6.93-5.83-11.35-6.94
			c-5.63-1.41-11.49-1.9-17.28-1.45c-2.1,0.16-5.39-0.09-6.57,1.87c-1.46,2.44-2.41,5.41-3.4,8.06
			C223.15,40.65,222.14,43.84,221.3,47.07z"/>
		<path class="st4" d="M243.55,32.56c-0.43,0.05-0.86,0.16-1.26,0.34c-1.02,0.48-1.15,1.49-1.18,2.54
			c-0.01,0.58-0.01,1.21,0.37,1.65c0.49,0.57,1.35,0.56,2.1,0.55c1.98,0,3.8,0.47,5.64,1.13c0.96,0.35,1.89,0.8,2.79,1.28
			c0.64,0.35,3.24,2.52,3.24,0.46c0-0.45-0.22-0.87-0.46-1.25c-1.2-1.96-2.43-3.53-4.46-4.75c-1.58-0.95-3.43-1.75-5.3-1.96
			C244.54,32.52,244.04,32.5,243.55,32.56z"/>
		<path class="st4" d="M228.34,39.73c0.36,0.05,0.71,0.14,1.07,0.13s0.74-0.14,0.95-0.42c0.32-0.42,0.19-1.01,0.06-1.51
			c-0.17-0.62-0.38-1.31-0.95-1.62c-0.43-0.24-0.96-0.19-1.45-0.12c-1.2,0.19-2.4,0.52-3.39,1.23c-0.63,0.45-1.19,1-1.65,1.63
			c-0.41,0.55-0.88,1.27-0.93,1.97c-0.02,0.21,0.01,0.45,0.16,0.59c0.33,0.32,0.72,0,0.98-0.24c0.6-0.55,1.28-0.99,2.04-1.28
			C226.22,39.71,227.29,39.58,228.34,39.73z"/>
		<g>
			<path class="st154" d="M224.1,68.53c1.71-1.83,4.81-1.04,6.63,0.22c1.75,1.13,3.5,1.64,5.63,1.32c-1.14,1.45-3.34,1.67-5.05,1.16
				C228.78,70.25,227.03,68.18,224.1,68.53L224.1,68.53z"/>
		</g>
		<path class="st153" d="M224.53,55.4c-0.82,0.98-1.61,2.02-1.15,3.38c0.45,1.32,1.75,1.82,3.02,1.92c1.45,0.12,2.82-0.03,3.92-1.03
			c0.91-0.83,1.42-2.11,1.25-3.33c-0.1-0.75-0.43-1.47-0.48-2.23c-0.04-0.67,0.24-1.26,0.48-1.86c0.36-0.88,0.49-2.07,0.07-2.95
			c-0.46-0.97-1.6-1.13-2.45-0.57c-0.46,0.3-0.63,0.71-0.87,1.17c-0.41,0.82-0.94,1.61-1.45,2.37
			C226.16,53.35,225.37,54.4,224.53,55.4z"/>
		<path class="st4" d="M228.31,64.12c-0.11-0.74,0.43-1.6,1.18-1.55c0.55,0.03,0.95,0.51,1.32,0.9c2.27,2.41,6.09,3.21,9.14,1.91
			c0.52-0.22,0.96-0.54,1.25-1.03c0.31-0.52,0.15-1.13,0.11-1.71c-0.01-0.14-0.01-0.29,0.1-0.38c0.09-0.08,0.23-0.07,0.33-0.01
			c0.1,0.06,0.17,0.16,0.24,0.26c0.65,1.03,0.72,2.38,0.25,3.5c-0.53,1.25-2.05,1.9-3.32,2.13c-1.98,0.37-4.05,0.18-5.98-0.47
			C231.25,67.1,228.6,66.15,228.31,64.12z"/>
		<path class="st82" d="M236.91,355.85c-0.76,1.68-1.41,3.55-0.96,5.34c0.39,1.54,1.58,2.79,2.96,3.58c1.38,0.8,2.94,1.2,4.5,1.55
			c6.54,1.48,13.26,2.2,19.97,2.14c2.52-0.02,5.29-0.26,7.09-2.02c1.24-1.21,1.79-2.94,2.3-4.59c1.31-4.26,2.63-8.82,1.39-13.1
			c-1.07-3.68-4.01-6.67-7.52-8.22c-3.51-1.55-7.52-1.74-11.28-0.99c-3.25,0.65-7.53,1.97-10.09,4.18
			c-0.95,0.82-1.75,2.03-2.57,2.99c-1.12,1.32-2.15,2.72-3.09,4.18C238.58,352.48,237.68,354.14,236.91,355.85z"/>
		<path class="st4" d="M222.2,63.66c-0.32,0.26-0.67,0.41-1.13,0.31c-0.53-0.12-0.84-0.55-1.32-0.76c-0.47-0.2-0.88,0.1-1.01,0.56
			c-0.11,0.41,0.04,0.86,0.31,1.18s0.66,0.53,1.06,0.68c0.9,0.34,1.9,0.4,2.83,0.18c0.5-0.12,0.98-0.32,1.41-0.59
			c0.36-0.22,0.88-0.55,1.09-0.93c0.38-0.67,0.15-1.77-0.53-2.15C223.61,61.4,223.06,62.94,222.2,63.66z"/>
		<path class="st162" d="M248.92,347.03c-0.62,0.34-1.24,0.75-1.6,1.37c-0.36,0.61-0.4,1.46,0.07,1.99c0.35,0.4,0.91,0.54,1.44,0.53
			c0.53-0.02,1.04-0.18,1.55-0.31c3.63-0.92,7.61-0.34,10.83,1.57c0.83,0.49,1.62,1.08,2.53,1.4c0.91,0.32,2,0.34,2.77-0.24
			c0.65-0.49,0.95-1.35,0.89-2.16s-0.45-1.57-0.98-2.19c-1.49-1.74-3.52-2.22-5.66-2.69c-2.07-0.46-4.18-0.71-6.29-0.75
			C252.5,345.5,250.63,346.1,248.92,347.03z"/>
		<path class="st157" d="M243.39,196.93c-0.54,0.21-1.13,0.53-1.27,1.1c-0.12,0.47,0.13,0.96,0.38,1.38
			c1.87,3.24,4.11,6.28,6.65,9.03c0.46,0.5,1.02,1.02,1.7,0.99c0.66-0.03,1.16-0.58,1.59-1.08c0.56-0.67,1.14-1.39,1.23-2.25
			c0.07-0.73-0.23-1.44-0.52-2.11c-1.05-2.43-1.93-5.1-3.22-7.41C249.05,195.02,244.73,196.4,243.39,196.93z"/>
		<path class="st154" d="M250.28,193.53c-0.85,0.34-1.63,0.93-2.02,1.76c-0.5,1.08-0.26,2.35,0.1,3.48
			c0.82,2.57,2.19,4.96,4.01,6.95c0.49,0.54,1.05,1.07,1.77,1.22c1.03,0.21,2.03-0.43,2.88-1.04c0.98-0.7,2.01-1.46,2.4-2.6
			c0.44-1.27-0.04-2.67-0.65-3.88c-0.96-1.91-2.26-3.64-3.81-5.11c-0.54-0.51-1.17-1.23-1.94-1.34
			C252.18,192.87,251.05,193.23,250.28,193.53z"/>
		<path class="st82" d="M184.51,328.69c-1.26,0.41-2.43,1.06-3.66,1.56c-3.22,1.31-6.86,1.58-10.23,0.76
			c-1.64,1.68-1.85,4.43-0.86,6.56c0.99,2.13,2.97,3.67,5.14,4.57s4.52,1.25,6.84,1.55c10.67,1.37,21.45,1.87,32.2,1.51
			c0.68-0.02,1.41-0.07,1.95-0.49c0.91-0.72,0.78-2.15,0.34-3.22c-0.89-2.15-2.67-3.84-4.67-5.04c-2-1.2-4.23-1.95-6.43-2.7
			c-2.94-0.99-5.88-1.99-8.83-2.98c-1.5-0.51-2.99-1.01-4.49-1.52c-1.05-0.35-2.12-0.83-3.23-0.93
			C187.24,328.2,185.79,328.27,184.51,328.69z"/>
		<path class="st153" d="M257.34,126.53c-2-1.29-4.31-1.88-6.57-2.58c-2.68-0.83-5.36-1.65-8.07-2.35c-0.9-0.23-1.82-0.44-2.75-0.36
			c-0.92,0.08-1.86,0.51-2.35,1.3c-0.49,0.79-0.37,1.97,0.39,2.49c0.24,0.16,0.52,0.26,0.79,0.35c2.8,0.94,5.59,1.88,8.39,2.81
			c2.59,0.87,5.17,1.74,7.76,2.6c1.07,0.36,2.33,0.69,3.24,0.04c0.7-0.5,0.95-1.49,0.73-2.32
			C258.68,127.68,258.06,127,257.34,126.53z"/>
		<g>
			<defs>
				<path id="SVGID_00000076575437795517176990000016779523693551025309_" d="M184.51,328.69c-1.26,0.41-2.43,1.06-3.66,1.56
					c-3.22,1.31-6.86,1.58-10.23,0.76c-1.64,1.68-1.85,4.43-0.86,6.56c0.99,2.13,2.97,3.67,5.14,4.57s4.52,1.25,6.84,1.55
					c10.67,1.37,21.45,1.87,32.2,1.51c0.68-0.02,1.41-0.07,1.95-0.49c0.91-0.72,0.78-2.15,0.34-3.22c-0.89-2.15-2.67-3.84-4.67-5.04
					c-2-1.2-4.23-1.95-6.43-2.7c-2.94-0.99-5.88-1.99-8.83-2.98c-1.5-0.51-2.99-1.01-4.49-1.52c-1.05-0.35-2.12-0.83-3.23-0.93
					C187.24,328.2,185.79,328.27,184.51,328.69z"/>
			</defs>
			<clipPath id="SVGID_00000146496338926489437040000013480145125124040368_">
				<use xlink:href="#SVGID_00000076575437795517176990000016779523693551025309_"  style="overflow:visible;"/>
			</clipPath>
			<path style="clip-path:url(#SVGID_00000146496338926489437040000013480145125124040368_);fill:#C1C0C0;" d="M184.5,332.92
				c0.68,0.58,1.31,1.24,2.14,1.58c1.23,0.51,2.63,0.21,3.93-0.1c0.63-0.15,1.28-0.31,1.78-0.72c0.5-0.41,0.79-1.15,0.49-1.72
				c-0.18-0.34-0.52-0.55-0.84-0.75c-1.1-0.68-2.21-1.35-3.31-2.03c-1.08-0.66-2.2-1.33-3.45-1.5c-1.13-0.15-2.29,0.14-3.32,0.63
				c-0.61,0.29-1.19,0.59-1.81,0.86c-0.25,0.11-0.5,0.26-0.62,0.5c-0.3,0.57,0.22,0.76,0.64,0.89c0.53,0.16,1.06,0.35,1.57,0.58
				C182.7,331.6,183.65,332.2,184.5,332.92z"/>
			<path style="clip-path:url(#SVGID_00000146496338926489437040000013480145125124040368_);fill:#C1C0C0;" d="M174.96,335.77
				c1.71,1.04,4.1,1.44,6.06,1.74c4.31,0.65,8.7,0.35,13.02,0.03c0.22-0.02,0.43-0.03,0.65-0.05c6.66-0.49,13.71-0.81,19.63,2.28
				c1.05,0.54,2.06,1.21,2.74,2.18s0.95,2.28,0.43,3.34c-0.79,1.62-2.89,1.98-4.68,2.13c-5.43,0.47-10.86,0.94-16.3,1.41
				c-5.48,0.47-11.07,0.94-16.43-0.3c-3.24-0.75-6.31-2.12-9.19-3.78c-1.36-0.79-3.03-1.61-4.2-2.65c-1.05-0.93-1.34-3.4-1.51-4.76
				c-0.21-1.65-0.08-3.38,0.64-4.88c0.57-1.2,1.56-2.24,2.79-2.77c0.82-0.35,1.04-0.29,1.58,0.41c0.45,0.57,0.81,1.21,1.17,1.84
				C172.18,333.38,173.53,334.91,174.96,335.77z"/>
		</g>
		<g>
			<defs>
				<path id="SVGID_00000156563083969583501760000001183124435551288979_" d="M236.91,355.85c-0.76,1.68-1.41,3.55-0.96,5.34
					c0.39,1.54,1.58,2.79,2.96,3.58c1.38,0.8,2.94,1.2,4.5,1.55c6.54,1.48,13.26,2.2,19.97,2.14c2.52-0.02,5.29-0.26,7.09-2.02
					c1.24-1.21,1.79-2.94,2.3-4.59c1.31-4.26,2.63-8.82,1.39-13.1c-1.07-3.68-4.01-6.67-7.52-8.22c-3.51-1.55-7.52-1.74-11.28-0.99
					c-3.25,0.65-7.53,1.97-10.09,4.18c-0.95,0.82-1.75,2.03-2.57,2.99c-1.12,1.32-2.15,2.72-3.09,4.18
					C238.58,352.48,237.68,354.14,236.91,355.85z"/>
			</defs>
			<clipPath id="SVGID_00000177464061351825502590000005819937264109083549_">
				<use xlink:href="#SVGID_00000156563083969583501760000001183124435551288979_"  style="overflow:visible;"/>
			</clipPath>
			<path style="clip-path:url(#SVGID_00000177464061351825502590000005819937264109083549_);fill:#C1C0C0;" d="M241.31,357.69
				c1.72,1.04,3.76,1.39,5.74,1.69c4.9,0.75,9.82,1.32,14.76,1.7c1.92,0.15,3.94,0.26,5.71-0.51c2.79-1.21,4.25-4.21,5.73-6.86
				c0.45-0.81,1.07-1.7,1.99-1.77c1.29-0.1,2.07,1.41,2.23,2.69c0.46,3.62-1.09,7.15-2.61,10.47c-1.7,3.72-4.2,5.71-8.25,6.65
				c-4.03,0.94-8.79,1.2-12.91,0.97c-7.09-0.4-19.13-2.19-21.28-10.46c-0.91-3.51,0.86-7.17,3.1-10.02c0.54-0.68,1.4-1.58,2.33-1.06
				c0.77,0.43,0.65,1.08,0.59,1.81C238.29,354.95,239.71,356.73,241.31,357.69z"/>
		</g>
		<path class="st153" d="M244.51,42.77c0.25-0.06,0.51-0.09,0.79-0.08c1.39,0.01,2.72,0.06,4.06,0.46c1.85,0.55,3.24,1.93,4.17,3.61
			c0.19,0.34,0.36,0.77,0.14,1.09c-0.22,0.32-0.68,0.33-1.06,0.31c-1.54-0.09-3.07-0.19-4.61-0.28c-1.53-0.09-3.06-0.19-4.59-0.28
			c-0.6-0.04-1.81,0.26-2.17-0.41c-0.43-0.81,0.54-2.22,1.02-2.83C242.89,43.55,243.6,42.98,244.51,42.77z"/>
		<path class="st153" d="M227.9,42.89c-0.31-0.15-0.65-0.24-0.99-0.27c-0.73-0.08-1.47,0.08-2.15,0.33
			c-0.73,0.27-1.49,0.73-1.97,1.34c-0.24,0.3-0.42,0.67-0.37,1.06c0.07,0.57,0.61,0.66,1.11,0.66c1.44,0.01,2.88,0.01,4.32,0.02
			c0.37,0,0.81,0,1.11-0.25c0.35-0.3,0.34-0.91,0.25-1.32c-0.07-0.31-0.21-0.62-0.41-0.87C228.57,43.29,228.26,43.05,227.9,42.89z"
			/>
		<path class="st2" d="M253.78,47.69c0.17,1.13-0.3,2.51-1.13,3.3c-0.83,0.78-1.95,1.21-3.08,1.4c-1.13,0.18-2.28,0.12-3.42,0.04
			c-1.42-0.1-2.93-0.28-4.03-1.18c-1.22-1-1.48-3.18-1.13-4.48c1.63-0.12,3.25-0.3,4.88-0.32
			C248.56,46.41,251.24,46.84,253.78,47.69z"/>
		<g>
			<defs>
				<path id="SVGID_00000181799825297313704180000008926943533462243774_" d="M253.78,47.69c0.17,1.13-0.3,2.51-1.13,3.3
					c-0.83,0.78-1.95,1.21-3.08,1.4c-1.13,0.18-2.28,0.12-3.42,0.04c-1.42-0.1-2.93-0.28-4.03-1.18c-1.22-1-1.48-3.18-1.13-4.48
					c1.63-0.12,3.25-0.3,4.88-0.32C248.56,46.41,251.24,46.84,253.78,47.69z"/>
			</defs>
			<clipPath id="SVGID_00000008131819241896512600000014172118996666779551_">
				<use xlink:href="#SVGID_00000181799825297313704180000008926943533462243774_"  style="overflow:visible;"/>
			</clipPath>
			<path style="clip-path:url(#SVGID_00000008131819241896512600000014172118996666779551_);fill:#0E8042;" d="M247.95,52.38
				c1.68,1.17,4.13,1.07,5.72-0.22c1.07-0.87,1.74-2.31,1.38-3.64c-0.2-0.74-0.69-1.39-1.31-1.84s-1.35-0.74-2.1-0.91
				c-1.13-0.26-2.32-0.27-3.45-0.03c-0.79,0.16-1.47,0.4-1.9,1.14c-0.51,0.87-0.38,2.15-0.09,3.07
				C246.51,50.91,247.11,51.8,247.95,52.38z"/>
		</g>
		<path class="st2" d="M222.39,45.61c0.02,1.01,0.11,2.29,0.77,3.05c0.46,0.53,1.16,0.81,1.86,0.87c1.03,0.1,2.09-0.25,2.86-0.93
			c0.77-0.68,1.25-1.69,1.29-2.72l0,0c-0.24-0.08-0.49-0.15-0.73-0.2C226.46,45.24,224.38,45.21,222.39,45.61L222.39,45.61z"/>
		<g>
			<defs>
				<path id="SVGID_00000041981113387598004110000008007115824004738443_" d="M222.38,45.61c1.99-0.4,4.08-0.37,6.06,0.08
					c0.24,0.05,0.49,0.12,0.73,0.2l0,0c-0.04,1.03-0.51,2.04-1.29,2.72c-0.78,0.68-1.84,1.03-2.86,0.93
					c-0.7-0.07-1.4-0.34-1.86-0.87C222.5,47.91,222.4,46.62,222.38,45.61"/>
			</defs>
			<clipPath id="SVGID_00000128460360158939035820000002936693031411988646_">
				<use xlink:href="#SVGID_00000041981113387598004110000008007115824004738443_"  style="overflow:visible;"/>
			</clipPath>
			<path style="clip-path:url(#SVGID_00000128460360158939035820000002936693031411988646_);fill:#0E8042;" d="M225.84,47.29
				c0.13,0.89,0.77,1.73,1.65,1.91c0.59,0.12,1.22-0.06,1.71-0.42c0.69-0.49,1.14-1.32,1.14-2.17c0-0.85-0.48-1.69-1.22-2.1
				c-0.72-0.39-1.86-0.36-2.53,0.17C225.93,45.21,225.73,46.51,225.84,47.29z"/>
		</g>
		<g>
			<path class="st4" d="M238.91,47.16c5.31-2.23,11.98-1.97,16.83,1.25C250.05,47.18,244.71,47.01,238.91,47.16L238.91,47.16z"/>
		</g>
		<g>
			<path class="st4" d="M229.95,46.13c-1.9-0.55-4.15-0.32-6.11-0.35c-0.7,0-1.4,0.04-2.19-0.03c1.17-1.03,2.7-1.48,4.23-1.49
				C227.34,44.3,229.25,44.7,229.95,46.13L229.95,46.13z"/>
		</g>
	</g>
	<line class="st28" x1="189.44" y1="259.76" x2="188.27" y2="264.59"/>
	<line class="st28" x1="195.55" y1="234.83" x2="195.32" y2="235.75"/>
	<path class="st154" d="M226.18,242.29c-1.11,3.08-3.86,5.25-6.61,7.04c-8.99,5.85-19.45,9.43-30.13,10.43l5.88-24.01
		c5.89,2.88,12.78,4.27,18.58,1.46c2.91-1.42,5.84-3.88,8.96-3.02C226.02,235.07,227.29,239.21,226.18,242.29z"/>
	<path class="st153" d="M223.18,141.41c0.4,2.01-0.48,4.39-2.39,5.13c-2.47,0.96-5.68-1.16-8.11-1.76
		c-7.33-1.8-14.36,1.53-19.3,6.89c-1.23,1.34-2.21,2.84-3.07,4.42l-32.22-18.04c2.78-1.63,5.69-3.08,8.68-4.34
		c7.23-3.06,14.9-5.04,22.06-5.95c11.03-1.41,23.07,0.85,31.1,8.55C221.41,137.73,222.79,139.4,223.18,141.41z"/>
	<path class="st154" d="M301.61,273.5c-6.03-4.95-14.25-8.93-15.66-16.6c-0.08-0.45-0.13-0.9-0.16-1.35l-10.66-0.05
		c0.3,2.68,0.21,5.41-0.33,8.05c-0.64,3.14-2.11,7.51-4.57,9.68c-6.77,5.97-17.2,8.24-25.86,9.5c-9.82,1.43-19.82,1.62-29.54,3.63
		c-9.72,2.01-19.44,6.11-25.74,13.78c-1.65,2.01-3.06,4.46-3.46,7.1c-0.21,1.38-0.12,2.79,0.3,4.12c0.45,1.41,1.08,2.6,0.95,4.12
		c0.11-0.05,0.22-0.1,0.34-0.15c3.8-1.46,8,0.14,11.88,1.38c20.74,6.67,44.6,2.56,61.96-10.58c0.23-0.2,0.48-0.39,0.75-0.57
		c-1.61,4.18,3.5,7.97,4.38,9.2c2.39,3.35,4.45,7.04,5.36,11.02c1.24,5.44,0.95,11.66-1.28,16.82c-1.87,4.33-6.01,7.73-4.33,12.96
		c0.75,2.34,3.01,5.9,1.56,8.35c-0.92,1.55-2.47,1.81-4.02,1.44c0.41,0.17,0.84,0.3,1.3,0.38c3.21,0.57,6.43-1.27,8.6-3.7
		c2.17-2.44,3.57-5.45,5.32-8.2c7.79-12.21,22.26-18.84,30.29-30.89C319.11,307.74,315.73,285.09,301.61,273.5z"/>
	<path class="st153" d="M185.94,311.35c-0.42-1.33-0.5-2.74-0.3-4.12c0.39-2.64,1.81-5.09,3.46-7.1
		c6.29-7.67,16.02-11.77,25.74-13.78c9.72-2.01,19.72-2.2,29.54-3.63c8.65-1.26,19.09-3.52,25.86-9.5c2.46-2.17,3.93-6.54,4.57-9.68
		c0.54-2.64,0.63-5.37,0.33-8.05l-7.18-0.03c0.12,1.41,0.06,2.85-0.23,4.31c-1.47,7.42-8.39,12.71-15.64,14.87
		s-14.96,1.87-22.51,2.26c-10.11,0.53-20.26,2.35-29.46,6.59c-9.19,4.24-17.4,11.02-22.24,19.91c-1.46,2.68-2.63,5.71-2.13,8.72
		c0.5,3.01,3.2,5.81,6.23,5.46c1.78-0.21,3.26-1.39,4.91-2.1C187.02,313.95,186.38,312.77,185.94,311.35z"/>
	<path class="st153" d="M267.49,363.91c1.45-2.45-0.81-6.01-1.56-8.35c-1.68-5.23,2.46-8.63,4.33-12.96
		c2.23-5.17,2.51-11.38,1.28-16.82c-0.9-3.98-2.97-7.67-5.36-11.02c-0.87-1.23-5.99-5.02-4.38-9.2c-0.08,0.06-0.16,0.12-0.24,0.18
		c-0.15,0.11-0.36,0.28-0.59,0.47c-3.13,2.83-2.86,8.26-1.12,12.3c1.88,4.37,5,8.35,5.48,13.09c0.43,4.27-1.37,8.42-3.24,12.27
		c-1.88,3.86-3.92,7.83-4.01,12.11c-0.08,3.83,1.94,7.97,5.38,9.36C265.02,365.72,266.57,365.46,267.49,363.91z"/>
	<path class="st162" d="M308.75,167.74c-0.01,0.22-0.03,0.43-0.06,0.65c-0.07,0.7-0.19,1.39-0.37,2.07
		c-0.48,1.88-1.3,3.62-2.35,5.25c-2.55-2.89-6.15-5.19-9.55-6.94c-5.4-2.76-9.5-4.24-15.5-3.37l-0.04,0.01
		c-0.14,0-0.5-0.38-0.55-0.44c-0.18-0.23-0.29-0.53-0.37-0.82c-0.14-0.63-0.1-1.48,0.43-1.93c5.64-2.23,9.97-1.73,15.87-0.3
		C300.64,162.98,305.46,164.77,308.75,167.74z"/>
</g>
</svg>
