<?xml version="1.0" encoding="utf-8"?>
<!-- Generator: Adobe Illustrator 27.0.1, SVG Export Plug-In . SVG Version: 6.00 Build 0)  -->
<svg version="1.1" id="Layer_1" xmlns="http://www.w3.org/2000/svg" xmlns:xlink="http://www.w3.org/1999/xlink" x="0px" y="0px"
	 viewBox="0 0 264.37 357.08" style="enable-background:new 0 0 264.37 357.08;" xml:space="preserve">
<style type="text/css">
	.st0{fill:#0A2B17;}
	.st1{fill:#0E8042;}
	.st2{fill:#FFFFFF;}
	.st3{fill:#1A3826;}
	.st4{fill:#3D1947;}
	.st5{fill:#ECA45C;}
	.st6{fill:#D53D3D;}
	.st7{clip-path:url(#SVGID_00000092422146906540197680000012777907898940971179_);}
	.st8{fill:#802420;}
	.st9{fill:#8C5443;}
	.st10{fill:#3C1948;}
	.st11{fill:none;stroke:#3C1948;stroke-linecap:round;stroke-linejoin:round;stroke-miterlimit:10;}
	.st12{clip-path:url(#SVGID_00000036954264018591105720000006502481344072571290_);}
	.st13{fill:#802421;}
	.st14{opacity:0.29;fill:#92C9E0;}
	.st15{clip-path:url(#SVGID_00000131358392439660552600000002991842622476522376_);fill:#FFFFFF;}
	.st16{clip-path:url(#SVGID_00000131358392439660552600000002991842622476522376_);fill:#D9807E;}
	.st17{opacity:0.29;fill:#92C9E0;stroke:#FFFFFF;stroke-width:5;stroke-miterlimit:10;}
	.st18{opacity:0.29;fill:#92C9E0;stroke:#FFFFFF;stroke-miterlimit:10;}
	.st19{opacity:0.29;fill:#92C9E0;stroke:#FFFFFF;stroke-width:3;stroke-miterlimit:10;}
	.st20{fill:#934F3E;}
	.st21{clip-path:url(#SVGID_00000176018732116171633460000008677764590947906717_);fill:#41164A;}
	.st22{clip-path:url(#SVGID_00000003106106163147979380000000263054794206592907_);fill:#41164A;}
	.st23{clip-path:url(#SVGID_00000084524699280758336380000015829539396353533826_);fill:#FFFFFF;}
	.st24{clip-path:url(#SVGID_00000084524699280758336380000015829539396353533826_);fill:#41164A;}
	.st25{fill:#41164A;}
	.st26{clip-path:url(#SVGID_00000101822106407979177270000014255374863132451752_);fill:#FFFFFF;}
	.st27{clip-path:url(#SVGID_00000101822106407979177270000014255374863132451752_);fill:#E47D7A;}
	.st28{fill:none;}
	.st29{fill:#E09F9E;}
	.st30{fill:#CB8080;}
	.st31{clip-path:url(#SVGID_00000135673706362130856480000008781200671807041170_);fill:#E09F9E;}
	.st32{fill:#3C1947;}
	.st33{fill:#EAC5B1;}
	.st34{clip-path:url(#SVGID_00000036253061773002730820000009819178678759075718_);fill:#CB8080;}
	.st35{fill:#0B8043;}
	.st36{fill:#DBDBDA;}
	.st37{clip-path:url(#SVGID_00000170990363600545882910000005491159442708311210_);fill:#C2C1C1;}
	.st38{clip-path:url(#SVGID_00000021808619929129388800000017666001026558462363_);fill:#C2C1C1;}
	.st39{clip-path:url(#SVGID_00000119119177588449637940000002390706781485626019_);}
	.st40{fill:#C2C1C1;}
	.st41{clip-path:url(#SVGID_00000108303663225748358990000015813561639557804427_);fill:#C2C1C1;}
	.st42{clip-path:url(#SVGID_00000107580250062875910640000005598411182459992748_);fill:#C2C1C1;}
	.st43{clip-path:url(#SVGID_00000181790839206232417880000004699877730652344960_);fill:#0B8043;}
	.st44{clip-path:url(#SVGID_00000069371376551821140650000012115165635234677931_);fill:#0B8043;}
	.st45{fill:#A55933;}
	.st46{fill:#803C26;}
	.st47{fill:#C64B45;}
	.st48{fill:#8B3A37;}
	.st49{clip-path:url(#SVGID_00000086688496948478972770000006200275147835700648_);}
	.st50{clip-path:url(#SVGID_00000083805020441539927810000004354572750675256725_);}
	.st51{clip-path:url(#SVGID_00000066515069074673393270000008545770132229551541_);}
	.st52{clip-path:url(#SVGID_00000150800570843356387280000012410388322929745571_);}
	.st53{clip-path:url(#SVGID_00000004520788668440546820000009288853808224072872_);}
	.st54{clip-path:url(#SVGID_00000138553168925294951820000005384603161413172106_);}
	.st55{clip-path:url(#SVGID_00000172401136775179652170000010497559872488234628_);fill:#41164A;}
	.st56{clip-path:url(#SVGID_00000121991133683844337180000012697928845562898590_);fill:#41164A;}
	.st57{clip-path:url(#SVGID_00000116234568947730529220000001682542363206233768_);fill:#FFFFFF;}
	.st58{clip-path:url(#SVGID_00000116234568947730529220000001682542363206233768_);fill:#41164A;}
	.st59{clip-path:url(#SVGID_00000120538128537431780010000011929184350680626864_);fill:#FFFFFF;}
	.st60{clip-path:url(#SVGID_00000120538128537431780010000011929184350680626864_);fill:#E47D7A;}
	.st61{fill:#C28F5D;}
	.st62{fill:#375A42;}
	.st63{clip-path:url(#SVGID_00000155143064832823624630000016968491155968179860_);fill:#6AA17A;}
	.st64{clip-path:url(#SVGID_00000053528602512325724680000017858834713792846238_);fill:#6AA17A;}
	.st65{fill:#6AA17A;}
	.st66{clip-path:url(#SVGID_00000182492750107011536950000018121263146008348561_);fill:#3D1947;}
	.st67{clip-path:url(#SVGID_00000000184912499855259800000011959179178782227119_);fill:#8B3A37;}
	.st68{clip-path:url(#SVGID_00000166644224571626465130000000897201357158022807_);}
	.st69{clip-path:url(#SVGID_00000026868040913257819120000004125980362218083746_);fill:#FFFFFF;}
	.st70{clip-path:url(#SVGID_00000026868040913257819120000004125980362218083746_);fill:#D9807E;}
	.st71{clip-path:url(#SVGID_00000155843089727177004400000001294774114073600384_);fill:#41164A;}
	.st72{clip-path:url(#SVGID_00000090275428514222717550000006878141515661629065_);fill:#41164A;}
	.st73{clip-path:url(#SVGID_00000047018001987402436130000004175467869961288889_);fill:#FFFFFF;}
	.st74{clip-path:url(#SVGID_00000047018001987402436130000004175467869961288889_);fill:#41164A;}
	.st75{clip-path:url(#SVGID_00000044863678278145897070000009128218372119045788_);fill:#FFFFFF;}
	.st76{clip-path:url(#SVGID_00000044863678278145897070000009128218372119045788_);fill:#E47D7A;}
	.st77{fill:#D2687C;}
	.st78{clip-path:url(#SVGID_00000149352258231276340010000001228029510703788427_);fill:#C64B45;}
	.st79{fill:#D1544C;}
	.st80{clip-path:url(#SVGID_00000039827244904096664510000016745916635593497529_);}
	.st81{clip-path:url(#SVGID_00000025443450621052644790000015343178223309389502_);}
	.st82{fill:#DADAD9;}
	.st83{clip-path:url(#SVGID_00000038393207420448315280000016678653132749493892_);fill:#0E8042;}
	.st84{clip-path:url(#SVGID_00000038393207420448315280000016678653132749493892_);fill:#1A3826;}
	.st85{clip-path:url(#SVGID_00000110437131868335217520000004927673594783518891_);fill:#0E8042;}
	.st86{clip-path:url(#SVGID_00000110437131868335217520000004927673594783518891_);fill:#1A3826;}
	.st87{fill:none;stroke:#0E8042;stroke-linecap:round;stroke-linejoin:round;stroke-miterlimit:10;}
	.st88{clip-path:url(#SVGID_00000163044729578922571960000015031919660547929002_);}
	.st89{clip-path:url(#SVGID_00000041998908115760336120000009237630302365431454_);fill:#0E8042;}
	.st90{clip-path:url(#SVGID_00000072972007382560635160000003083932470152673979_);fill:#0E8042;}
	.st91{clip-path:url(#SVGID_00000072972007382560635160000003083932470152673979_);fill:#1A3826;}
	.st92{clip-path:url(#SVGID_00000111874971228270901850000007736431916721085114_);fill:#0E8042;}
	.st93{clip-path:url(#SVGID_00000111874971228270901850000007736431916721085114_);fill:#1A3826;}
	.st94{clip-path:url(#SVGID_00000006689495780900949930000008416249356112641978_);fill:#0E8042;}
	.st95{clip-path:url(#SVGID_00000006689495780900949930000008416249356112641978_);fill:#1A3826;}
	.st96{clip-path:url(#SVGID_00000060719871894391932600000001075344414359634331_);fill:#0E8042;}
	.st97{clip-path:url(#SVGID_00000060719871894391932600000001075344414359634331_);fill:#1A3826;}
	.st98{clip-path:url(#SVGID_00000070827767322077822490000009928552785483552170_);}
	.st99{clip-path:url(#SVGID_00000001645464329420839170000009101634012505500556_);fill:#0E8042;}
	.st100{clip-path:url(#SVGID_00000001645464329420839170000009101634012505500556_);fill:#1A3826;}
	.st101{clip-path:url(#SVGID_00000044164215076509162610000013660592828139035321_);}
	.st102{clip-path:url(#SVGID_00000117660878245594212700000004314100780949642422_);fill:#FFFFFF;}
	.st103{clip-path:url(#SVGID_00000117660878245594212700000004314100780949642422_);fill:#D9807E;}
	.st104{clip-path:url(#SVGID_00000180357311592585460510000007662850830362610311_);fill:#41164A;}
	.st105{clip-path:url(#SVGID_00000028283428268110623130000014565903409095821740_);fill:#41164A;}
	.st106{clip-path:url(#SVGID_00000182509780999777163100000014256303641188826042_);fill:#FFFFFF;}
	.st107{clip-path:url(#SVGID_00000182509780999777163100000014256303641188826042_);fill:#41164A;}
	.st108{clip-path:url(#SVGID_00000039115278716792143380000015531890255098956453_);fill:#FFFFFF;}
	.st109{clip-path:url(#SVGID_00000039115278716792143380000015531890255098956453_);fill:#E47D7A;}
	.st110{clip-path:url(#SVGID_00000163765612201186265230000002104444365245003445_);fill:#E09F9E;}
	.st111{clip-path:url(#SVGID_00000078045722514162910370000008082551229044314243_);fill:#CB8080;}
	.st112{clip-path:url(#SVGID_00000044879648534438388960000007459193803332502918_);fill:#C2C1C1;}
	.st113{clip-path:url(#SVGID_00000023266299953400549930000006408668591765289088_);fill:#C2C1C1;}
	.st114{clip-path:url(#SVGID_00000017486418767133273580000009639807837213440959_);}
	.st115{clip-path:url(#SVGID_00000158010204141077681230000017077100601749706385_);fill:#C2C1C1;}
	.st116{clip-path:url(#SVGID_00000039123550001328663460000016400532814944347539_);fill:#C2C1C1;}
	.st117{clip-path:url(#SVGID_00000165946275666494646500000013287719475600700306_);fill:#0B8043;}
	.st118{clip-path:url(#SVGID_00000094609694463736708300000002917560555258196885_);fill:#0B8043;}
	.st119{clip-path:url(#SVGID_00000157270829273981687130000003932206846285252764_);}
	.st120{clip-path:url(#SVGID_00000077304023332117424040000001125473552360708516_);}
	.st121{clip-path:url(#SVGID_00000103230200620563732360000007622047538969415327_);}
	.st122{clip-path:url(#SVGID_00000029739613177279587360000005867403452230894231_);}
	.st123{clip-path:url(#SVGID_00000038413698734452830230000008676580043510775472_);}
	.st124{clip-path:url(#SVGID_00000000934896648912501100000013390425717651142555_);}
	.st125{clip-path:url(#SVGID_00000124879511045643977890000017912246481852449666_);fill:#0E8042;}
	.st126{clip-path:url(#SVGID_00000124879511045643977890000017912246481852449666_);fill:#1A3826;}
	.st127{clip-path:url(#SVGID_00000105413339902213755560000003638320298887930007_);}
	.st128{clip-path:url(#SVGID_00000003072745386239405530000015499090551390921648_);fill:#FFFFFF;}
	.st129{clip-path:url(#SVGID_00000003072745386239405530000015499090551390921648_);fill:#D9807E;}
	.st130{clip-path:url(#SVGID_00000158031220887062051690000005551398879146150547_);fill:#41164A;}
	.st131{clip-path:url(#SVGID_00000008871837534308513370000002305565921251635842_);fill:#41164A;}
	.st132{clip-path:url(#SVGID_00000150104333634077784160000014095526317001012611_);fill:#FFFFFF;}
	.st133{clip-path:url(#SVGID_00000150104333634077784160000014095526317001012611_);fill:#41164A;}
	.st134{clip-path:url(#SVGID_00000103228007380533051990000012414909275810469021_);fill:#FFFFFF;}
	.st135{clip-path:url(#SVGID_00000103228007380533051990000012414909275810469021_);fill:#E47D7A;}
	.st136{clip-path:url(#SVGID_00000173850646961476547810000003549521738424267417_);fill:#C64B45;}
	.st137{clip-path:url(#SVGID_00000166649181095566133170000002480432276504197544_);}
	.st138{clip-path:url(#SVGID_00000053512379838261397140000006181652354022778535_);}
	.st139{clip-path:url(#SVGID_00000049206718421209951220000016161101518979890095_);fill:#0E8042;}
	.st140{clip-path:url(#SVGID_00000049206718421209951220000016161101518979890095_);fill:#1A3826;}
	.st141{clip-path:url(#SVGID_00000132797101525879679740000013841554936406628271_);fill:#0E8042;}
	.st142{clip-path:url(#SVGID_00000132797101525879679740000013841554936406628271_);fill:#1A3826;}
	.st143{clip-path:url(#SVGID_00000083796150585165963450000016496770908434176428_);fill:#0E8042;}
	.st144{clip-path:url(#SVGID_00000083796150585165963450000016496770908434176428_);fill:#1A3826;}
	.st145{clip-path:url(#SVGID_00000025444006846002273140000002275313602267546291_);}
	.st146{clip-path:url(#SVGID_00000061443913134400643430000011526573064571845034_);}
	.st147{clip-path:url(#SVGID_00000090995996547066746910000000510227895067864499_);}
	.st148{clip-path:url(#SVGID_00000155123446216745249320000006938692719247079100_);}
	.st149{clip-path:url(#SVGID_00000029743327436656929450000007621162861341893010_);}
	.st150{clip-path:url(#SVGID_00000143596701744134575590000014690703961436792197_);}
	.st151{clip-path:url(#SVGID_00000060006230439021206880000000531729430450028702_);fill:#FFFFFF;}
	.st152{clip-path:url(#SVGID_00000060006230439021206880000000531729430450028702_);fill:#8B3A37;}
	.st153{fill:#DF9E9E;}
	.st154{fill:#C98080;}
	.st155{fill:#DFD5E2;}
	.st156{clip-path:url(#SVGID_00000015352102204185946330000007972142220009243791_);fill:#DF9E9E;}
	.st157{fill:#E9C4B0;}
	.st158{clip-path:url(#SVGID_00000163763133590928368830000003881735361636496269_);fill:#C98080;}
	.st159{clip-path:url(#SVGID_00000076596249520633191600000002400663479407233202_);fill:#C1C0C0;}
	.st160{clip-path:url(#SVGID_00000155114203716940505920000013923852378026516368_);fill:#C1C0C0;}
	.st161{clip-path:url(#SVGID_00000054260636634264306800000001805565913258168762_);}
	.st162{fill:#C1C0C0;}
	.st163{clip-path:url(#SVGID_00000117666967258643148960000013326302025422765190_);fill:#C1C0C0;}
	.st164{clip-path:url(#SVGID_00000177471006757406037460000014148446088360116390_);fill:#C1C0C0;}
	.st165{clip-path:url(#SVGID_00000121977087478016826830000004348566003828980120_);fill:#0E8042;}
	.st166{clip-path:url(#SVGID_00000169541651893944813650000011233829513336389543_);fill:#0E8042;}
	.st167{fill:#7F2420;}
	.st168{clip-path:url(#SVGID_00000000216157316017090460000005983881219524089231_);fill:#FFFFFF;}
	.st169{clip-path:url(#SVGID_00000000216157316017090460000005983881219524089231_);fill:#D8807E;}
	.st170{fill:#7F2421;}
	.st171{clip-path:url(#SVGID_00000090268073652015567980000015752194618119896721_);fill:#ECA45C;}
	.st172{clip-path:url(#SVGID_00000022548282641468814770000010470802155068248461_);fill:#0E8042;}
	.st173{clip-path:url(#SVGID_00000022548282641468814770000010470802155068248461_);fill:#1A3826;}
	.st174{clip-path:url(#SVGID_00000124120231988000261480000002847079778368134076_);fill:#0E8042;}
	.st175{clip-path:url(#SVGID_00000124120231988000261480000002847079778368134076_);fill:#1A3826;}
	.st176{clip-path:url(#SVGID_00000068670782651742159990000007538451123957536158_);fill:#0E8042;}
	.st177{clip-path:url(#SVGID_00000068670782651742159990000007538451123957536158_);fill:#1A3826;}
	.st178{clip-path:url(#SVGID_00000104668483887975316030000003483964208471671696_);fill:#0E8042;}
	.st179{clip-path:url(#SVGID_00000104668483887975316030000003483964208471671696_);fill:#1A3826;}
	.st180{clip-path:url(#SVGID_00000097498563948784021340000018020379074519259027_);fill:#0E8042;}
	.st181{clip-path:url(#SVGID_00000097498563948784021340000018020379074519259027_);fill:#1A3826;}
	.st182{clip-path:url(#SVGID_00000182530293868647782920000008210901389553431704_);fill:#0E8042;}
	.st183{clip-path:url(#SVGID_00000182530293868647782920000008210901389553431704_);fill:#1A3826;}
	.st184{clip-path:url(#SVGID_00000033366365396153934020000007297051179712197528_);fill:#0E8042;}
	.st185{clip-path:url(#SVGID_00000033366365396153934020000007297051179712197528_);fill:#1A3826;}
	.st186{clip-path:url(#SVGID_00000075870402529415451340000011023588944042850711_);fill:#0E8042;}
	.st187{clip-path:url(#SVGID_00000075870402529415451340000011023588944042850711_);fill:#1A3826;}
	.st188{clip-path:url(#SVGID_00000077323223510020069990000009006021320389637267_);fill:#0E8042;}
	.st189{clip-path:url(#SVGID_00000077323223510020069990000009006021320389637267_);fill:#1A3826;}
	.st190{clip-path:url(#SVGID_00000183243962598825210350000001828118160387304074_);fill:#0E8042;}
	.st191{clip-path:url(#SVGID_00000183243962598825210350000001828118160387304074_);fill:#1A3826;}
	.st192{clip-path:url(#SVGID_00000097494847918605200840000009968804655857827737_);fill:#0E8042;}
	.st193{clip-path:url(#SVGID_00000097494847918605200840000009968804655857827737_);fill:#1A3826;}
	.st194{clip-path:url(#SVGID_00000059296487686905533190000017366117796182286258_);fill:#0E8042;}
	.st195{clip-path:url(#SVGID_00000059296487686905533190000017366117796182286258_);fill:#1A3826;}
	.st196{clip-path:url(#SVGID_00000181773402199448712390000017897015219063848110_);fill:#0E8042;}
	.st197{clip-path:url(#SVGID_00000181773402199448712390000017897015219063848110_);fill:#1A3826;}
	.st198{clip-path:url(#SVGID_00000097502438167594669590000008315116889338605740_);}
	.st199{clip-path:url(#SVGID_00000030446796954955992010000006439183782904560016_);fill:#FFFFFF;}
	.st200{clip-path:url(#SVGID_00000030446796954955992010000006439183782904560016_);fill:#D9807E;}
	.st201{clip-path:url(#SVGID_00000137129307800682092050000001752693955916902793_);fill:#41164A;}
	.st202{clip-path:url(#SVGID_00000047040380253796423190000001900594153170973353_);fill:#41164A;}
	.st203{clip-path:url(#SVGID_00000009560525783182934040000008182382258821455538_);fill:#FFFFFF;}
	.st204{clip-path:url(#SVGID_00000009560525783182934040000008182382258821455538_);fill:#41164A;}
	.st205{clip-path:url(#SVGID_00000029746991261292624190000018012421230789822885_);fill:#FFFFFF;}
	.st206{clip-path:url(#SVGID_00000029746991261292624190000018012421230789822885_);fill:#E47D7A;}
	.st207{clip-path:url(#SVGID_00000084488706695251902650000014708181386068426406_);fill:#C64B45;}
	.st208{clip-path:url(#SVGID_00000022525349070083659930000000272068623618785698_);}
	.st209{clip-path:url(#SVGID_00000170251587089172187640000003753841737631805600_);}
	.st210{clip-path:url(#SVGID_00000024722183414288046620000008886456178094378922_);fill:#6AA17A;}
	.st211{clip-path:url(#SVGID_00000010275314244302911260000017612694887948446134_);fill:#6AA17A;}
	.st212{clip-path:url(#SVGID_00000108997317253023326960000011085545190867804090_);fill:#3D1947;}
	.st213{clip-path:url(#SVGID_00000142879291448189541740000016888698262960508805_);fill:#8B3A37;}
	.st214{clip-path:url(#SVGID_00000046340701379488499460000013425046105689776053_);}
	.st215{clip-path:url(#SVGID_00000032639745330468993630000015789087043314597807_);}
	.st216{clip-path:url(#SVGID_00000105423608315019054450000014088944194293264026_);}
	.st217{clip-path:url(#SVGID_00000101075250825517220220000003977481582600629946_);}
	.st218{clip-path:url(#SVGID_00000026135031073816710740000014144407891152881078_);}
	.st219{clip-path:url(#SVGID_00000050627736213478844410000017550869922840951182_);}
	.st220{clip-path:url(#SVGID_00000085246662599455140770000007410077842686920632_);fill:#FFFFFF;}
	.st221{clip-path:url(#SVGID_00000085246662599455140770000007410077842686920632_);fill:#8B3A37;}
	.st222{clip-path:url(#SVGID_00000121965460450646854690000001556879377632797588_);fill:#DF9E9E;}
	.st223{clip-path:url(#SVGID_00000176020667338237290980000016151387264208775609_);fill:#C98080;}
	.st224{clip-path:url(#SVGID_00000070119921364277863090000010181403937958273186_);fill:#C1C0C0;}
	.st225{clip-path:url(#SVGID_00000016058960705317550670000008752621991763295139_);fill:#C1C0C0;}
	.st226{clip-path:url(#SVGID_00000134245273473906330380000015341396264815317950_);}
	.st227{clip-path:url(#SVGID_00000156581320208214385680000005795055490138450305_);fill:#C1C0C0;}
	.st228{clip-path:url(#SVGID_00000160163642299292478410000008712282557997814411_);fill:#C1C0C0;}
	.st229{clip-path:url(#SVGID_00000149352880293105126860000003837429294245747620_);fill:#0E8042;}
	.st230{clip-path:url(#SVGID_00000040542144673581825890000016413621192322771878_);fill:#0E8042;}
	.st231{clip-path:url(#SVGID_00000085252622146503954230000006631272801878118322_);fill:#FFFFFF;}
	.st232{clip-path:url(#SVGID_00000085252622146503954230000006631272801878118322_);fill:#D8807E;}
	.st233{clip-path:url(#SVGID_00000150789590946287687300000013218876430346181033_);fill:#ECA45C;}
</style>
<g>
	<path class="st8" d="M69.4,74.84c-3.65-2.07-6.04-6.37-5.44-10.52c0.42-2.9,2.18-5.49,4.42-7.39c2.24-1.9,4.93-3.18,7.65-4.27
		c15.36-6.16,32.83-6.91,48.66-2.07c6.97,2.13,13.78,5.42,18.69,10.8c5.29,5.79,8.02,13.84,7.34,21.65
		c-0.34,3.94-1.61,7.95-4.38,10.77c-4.9,5-13.18,4.92-19.65,2.24c-6.47-2.68-11.82-7.44-17.76-11.13
		c-6.14-3.81-12.97-6.49-20.05-7.9c-2.92-0.58-6.25-1.41-9.21-1.15C75.95,76.2,72.87,76.82,69.4,74.84z"/>
	<path class="st6" d="M73.42,78.22c0.81-0.02,1.64-0.13,2.35-0.51s1.31-1.06,1.4-1.87c0.11-0.91-0.44-1.8-1.17-2.35
		c-1.24-0.93-2.61-1.1-3.74-2.25c-0.21-0.21-0.39-0.42-0.57-0.63c-1.25,2.1-2.29,4.33-3.1,6.63C70.11,77.91,71.75,78.26,73.42,78.22
		z"/>
	<path class="st9" d="M200.98,286.14c-0.42,1.89-1.27,3.62-2.27,5.3c-0.67,1.13-1.4,2.23-2.11,3.34c-1.58,2.46-3.08,5.12-3.43,7.99
		c-0.04,0.32-0.07,0.64-0.07,0.96c-0.05,1.87,0.73,3.58,0.02,5.36c-0.67,1.71-2.02,3.12-3.55,4.1c-3.13,2-8.47,3.92-12.03,2.06
		c-1.55-0.81-2.64-2.79-1.86-4.35c0.83-1.65,3.04-1.9,4.66-2.78c2.62-1.43,3.69-4.58,4.52-7.44c0.87-2.96,1.73-6.03,1.19-9.05
		c-0.77-4.23-4.15-7.49-7.68-9.94c-4.81-3.33-10.16-5.76-15.46-8.19c-5.45-2.49-10.5-5.38-15.68-8.44c-2.87-1.7-6.46-3.43-8.62-6.04
		c-3.46-4.2-5.12-10.24-5.83-15.53c-0.32-2.33-0.24-4.67-0.54-6.99c-0.06-0.42-0.13-0.86-0.21-1.29c-0.35-1.73-1.1-3.36-1.19-5.14
		c-0.07-1.47-0.08-2.96,0.29-4.39c0.37-1.42,1.13-2.79,2.34-3.64c1.71-1.22,4.12-1.19,6-0.25c1.89,0.93,3.3,2.65,4.23,4.54
		c0.94,1.88,1.91,4.04,2,6.14c0.29,6.79,0.99,14.44,6.27,18.7c2.82,2.27,6.44,3.13,9.9,4.26c0.5,0.16,1.01,0.34,1.51,0.52
		c4.33,1.59,8.32,4.14,11.6,7.38c1.05,1.04,2.03,2.15,2.93,3.32c2.76,3.62,5.17,8.14,9.55,9.38c3.45,0.98,7.47-0.37,10.55,1.47
		C200.81,279.19,201.68,282.97,200.98,286.14z"/>
	<path class="st6" d="M118.84,230.41c1.28,2.37,2.61,5.19,4.59,7.07c1.57,1.5,3.05,3.11,5.27,3.59c2.33,0.51,4.75-0.16,7.04-0.82
		c0.94-0.27,1.98-0.62,2.44-1.49c0.39-0.75,0.22-1.66,0.04-2.49c-0.35-1.6-0.7-3.19-1.05-4.79c0.63,1.17,1.26,2.36,2.15,3.35
		c0.89,0.99,2.06,1.79,3.38,1.95c1.18,0.15,2.36-0.2,3.45-0.65c1.37-0.56,2.73-1.33,3.56-2.55c1.19-1.76,0.37-3.41-0.04-5.24
		c-0.28-1.23-0.57-2.46-0.86-3.7c-0.12-0.5-0.42-3.31-0.82-3.51c2.01,1.02,3.33,3,4.74,4.76c1.41,1.76,3.23,3.49,5.48,3.64
		c2.31,0.15,4.35-1.39,6.15-2.85c1.26-1.03,2.56-2.07,3.52-3.4c1.05-1.45,1.45-2.46,1.02-4.3c-0.22-0.97-0.6-1.9-0.98-2.82
		c0.84,0.7,1.68,1.39,2.51,2.09c0.34,0.28,0.72,0.58,1.16,0.56c0.49-0.02,1.56-0.99,1.91-1.36c1.55-1.67,0.47-3.85-0.55-5.48
		c-1.29-2.06-2.56-4.08-3.77-6.21c-2.05-3.61-4.1-7.21-6.13-10.83c-0.73-1.3-1.44-2.61-2.2-3.89c-0.37-0.62-0.75-1.24-1.15-1.84
		c-0.26-0.39-0.28-0.43-0.74-0.36c-0.37,0.06-0.75,0.11-1.12,0.17c0.13-0.43,0.26-0.86,0.39-1.29c0.07-0.24,0.12-0.3,0.01-0.5
		c-0.07-0.14-0.22-0.26-0.32-0.38c-0.45-0.52-0.93-1.01-1.44-1.47c-1.08-0.98-2.3-1.8-3.61-2.44c-4.33-2.14-9.32-2.63-14.13-2.2
		c-9.51,0.84-20.6,3.36-27.51,10.36c-1.98,2.01-3.5,4.57-4.12,7.34c-0.7,3.14,0.33,5.1,1.19,7.96c0.61,2.01,1.31,3.99,2.03,5.96
		c0.39,1.08,0.65,2.21,1.06,3.29c0.31,0.83,0.58,2.12,1.31,2.68c0.31,0.24,3.19,0.85,3.44,0.51c-0.48,0.65-1.08,1.22-1.45,1.95
		c-0.59,1.16,0.31,2.26,0.83,3.28C116.6,226.18,117.7,228.3,118.84,230.41z"/>
	<path class="st6" d="M107.71,191.92c-1.35,1.58-2.23,3.39-2.07,5.38c0.21,2.56,2.15,4.73,4.46,5.84c2.31,1.11,4.95,1.32,7.52,1.29
		c6.9-0.06,13.77-1.71,19.99-4.68c4.2-2.01,8.34-4.42,11.75-7.63c2.17-2.04,4.68-4.78,4.88-7.92c0.24-3.7-3.24-6.03-6.62-6.14
		c-3.61-0.12-7.59,1.35-11.08,2.2c-3.91,0.96-7.79,2.04-11.64,3.24c-3.55,1.11-7.16,1.58-10.5,3.37
		C112.28,188.03,109.55,189.76,107.71,191.92z"/>
	<path class="st8" d="M151.83,184.06c-0.08,1.16-0.67,2.32-1.46,3.4c-0.8,1.1-1.8,2.11-2.66,2.91c-2.77,2.6-6.31,4.9-11.14,7.2
		c-2.89,1.38-5.93,2.46-9.04,3.21c-3.28,0.79-6.62,1.2-9.92,1.23c-0.27,0-0.56,0-0.85,0c-1.79-0.03-3.87-0.22-5.61-1.05
		c-1.76-0.85-2.97-2.36-3.1-3.86c-0.08-0.98,0.3-2.03,1.11-3.13c0.12-0.16,0.25-0.32,0.38-0.48c1.29-1.51,3.36-3.06,6-4.47
		c2.02-1.08,4.22-1.64,6.55-2.22c1.15-0.29,2.34-0.6,3.53-0.97c3.78-1.18,7.65-2.26,11.49-3.2c0.88-0.22,1.78-0.47,2.7-0.72
		c0.96-0.26,1.95-0.53,2.92-0.77c1.99-0.48,3.51-0.69,4.81-0.64c0.27,0.01,0.53,0.04,0.79,0.09c1.1,0.18,2.12,0.7,2.76,1.41
		C151.64,182.6,151.88,183.28,151.83,184.06z"/>
	<path class="st8" d="M196.19,291.32c-0.06,0.44-0.26,0.9-0.54,1.32c-0.47,0.69-0.9,1.39-1.32,2.1c-0.84,1.4-1.65,2.83-2.25,4.35
		c-0.3,0.76-0.56,1.54-0.73,2.35c-0.19,0.88-0.23,1.85-1.45,1.73c-0.68-0.06-1.27-0.58-1.57-1.19c-0.32-0.61-0.4-1.31-0.44-2
		c-0.13-2.45,0.32-4.93,1.31-7.17c0.55-1.22,1.27-2.41,2.38-3.15c1.11-0.74,2.67-0.93,3.77-0.17
		C196.06,289.97,196.29,290.64,196.19,291.32z"/>
	<path class="st9" d="M246.85,117.34c-1.08,2.3-4.39,1.75-6.91,1.51c-6.92-0.68-13.9,4.61-15.13,11.44
		c-0.32,1.82-0.28,3.7-0.63,5.51c-0.34,1.82-1.17,3.67-2.73,4.65c-1.57,0.98-3.99,0.7-4.86-0.94c-1.64-3.11,3.29-6.2,2.93-9.7
		c-0.28-2.65-3.3-3.94-5.85-4.68c-10.48-3.07-20.97-6.14-31.45-9.22c-3.6-1.06-7.28-2.12-11.03-1.93c-5.51,0.27-8.2,4.03-12.4,6.86
		c-5.43,3.66-10.87,7.33-16.31,10.98c-2.61,1.76-5.34,3.66-6.62,6.52c-0.02,0.06-0.05,0.11-0.07,0.17
		c-0.52,1.23-0.75,2.53-0.77,3.86c-0.06,2.02,0.35,4.12,0.81,6.11c0.68,2.95,1.48,5.88,2.39,8.76c0.79,2.52,1.66,5,2.62,7.45
		c0.11,0.26,0.2,0.52,0.32,0.78c0.42,1.08,0.87,2.15,1.32,3.21c0.49,1.13,1,2.26,1.52,3.38c0.81,1.7,1.65,3.39,2.54,5.05
		c0.03,0.07,0.07,0.13,0.11,0.2c0.03,0.05,0.06,0.11,0.09,0.16c0.11,0.2,0.21,0.39,0.32,0.59c0.44,0.82,0.88,1.66,1.28,2.52
		c0.13,0.28,0.26,0.55,0.39,0.83c0.62,1.38,1.15,2.8,1.42,4.23c0.12,0.6,0.19,1.2,0.22,1.8c-0.16,0.22-0.33,0.44-0.5,0.65
		c-0.69,0.85-1.46,1.62-2.15,2.27c-2.77,2.6-6.31,4.9-11.15,7.21c-2.89,1.38-5.93,2.47-9.03,3.21c-0.56,0.14-1.12,0.26-1.69,0.37
		c-1.23,0.25-2.46,0.44-3.69,0.58c-0.91,0.11-1.83,0.19-2.74,0.23c-0.6,0.04-1.2,0.06-1.8,0.06c-0.27,0-0.56,0-0.85-0.01
		c-0.5-0.3-0.98-0.62-1.45-0.97c-0.13-0.1-0.27-0.21-0.4-0.32c-1.59-1.27-2.95-2.83-4.18-4.49c-0.54-0.73-1.06-1.49-1.56-2.26
		c-0.03-0.05-0.07-0.11-0.1-0.17c-0.16-0.24-0.31-0.49-0.47-0.74c-0.03-0.06-0.07-0.12-0.11-0.18c-0.22-0.36-0.45-0.72-0.67-1.09
		c-0.05-0.07-0.09-0.14-0.14-0.22c-1.52-2.53-2.91-5.14-4.17-7.82c-0.44-0.93-0.87-1.88-1.28-2.82c-0.49-1.13-0.96-2.28-1.39-3.44
		c-0.32-0.82-0.62-1.64-0.91-2.46c-0.8-2.29-1.52-4.61-2.14-6.96c-0.4-1.51-0.76-3.03-1.08-4.56c-0.81-3.86-1.03-7.73-1.38-11.6
		c-0.12-1.3-0.25-2.59-0.42-3.89c-0.03-0.21-0.05-0.43-0.09-0.65c-0.61-4.15-4.69-6.42-8.15-8.23c-7.63-4.03-15.26-8.07-22.88-12.1
		c-1.12-0.59-2.31-1.2-3.58-1.19c-2.38,0.01-4.16,2.07-5.6,3.96c-5.2,6.8-10.4,13.6-15.6,20.39c-1.05,1.39-2.14,3.22-1.27,4.72
		c1.01,1.72,3.71,1.38,5.21,2.7c1.46,1.29,1.14,3.88-0.36,5.13c-1.5,1.24-3.74,1.26-5.52,0.47c-1.79-0.78-3.18-2.23-4.4-3.75
		c-1.22-1.52-2.32-3.15-3.73-4.48c-4.62-4.35-12.58-4.5-17.37-0.33c-1.2,1.04-2.22,2.32-3.61,3.06c-1.4,0.74-3.39,0.75-4.32-0.53
		c-0.91-1.26-0.39-3.02,0.36-4.38c3.49-6.38,11.47-9.94,18.55-8.26c2.24,0.53,4.62,1.53,6.77,0.67c1.81-0.72,2.88-2.55,3.81-4.25
		c2.95-5.39,5.92-10.77,8.87-16.16c2.11-3.84,4.9-9.28,8.53-11.83c2.12-1.5,4.65-2.06,7.27-2.11c2.14-0.03,4.36,0.26,6.44,0.66
		c2.65,0.51,5.27,1.16,7.85,1.94c9.79,2.94,19.01,7.74,27.02,14.09c1.69,1.35,3.54,2.84,5.7,2.77c2.85-0.08,4.95-3.02,5.16-5.85
		c0.06-0.83-0.26-2.09-0.65-3.49c-1.02-3.75-2.44-8.51,2.16-8.93c1.9-0.17,3.67,1.1,4.77,2.67c0.78,1.09,1.31,2.33,1.85,3.55
		c0.23,0.52,0.46,1.05,0.72,1.55c0.41,0.82,0.9,1.62,1.49,2.31c0.65,0.76,1.44,1.39,2.37,1.74c2.14,0.81,4.34,0.02,6.34-1.26
		c1-0.63,1.96-1.39,2.82-2.12c5.36-4.59,10.74-9.18,16.12-13.77c0.76-0.65,1.53-1.31,2.31-1.94c3.81-3.13,7.95-5.97,12.78-6.58
		c5.39-0.69,10.69,1.52,15.68,3.69c0.59,0.25,1.18,0.51,1.76,0.77c4.02,1.74,8.03,3.49,12.05,5.23c2.68,1.17,5.36,2.33,8.04,3.49
		c2.91,1.27,5.8,2.52,8.71,3.78c3.95,1.71,8.38,3.45,12.43,1.97c2.34-0.85,4.17-2.68,6.28-4.01c4.59-2.9,10.65-3.31,15.59-1.06
		C245.68,113.02,247.84,115.25,246.85,117.34z"/>
	<path class="st8" d="M176.86,266.63c-0.04,0.61-0.19,1.19-0.5,1.72c-0.62,1.05-1.98,1.72-3.12,1.27c-1-0.39-1.54-1.44-2.3-2.19
		c-0.92-0.9-2.2-1.35-3.44-1.69c-1.24-0.35-2.53-0.63-3.64-1.28c-1.11-0.65-2.05-1.78-2.07-3.07c-0.02-1.26,0.86-2.41,1.98-2.96
		c0.08-0.04,0.16-0.07,0.24-0.1c0.5,0.18,1,0.37,1.49,0.56C169.78,260.62,173.68,263.29,176.86,266.63z"/>
	<path class="st10" d="M47.9,86.32c-0.98,1.38-2.21,2.8-3.88,3.06c-1.53,0.23-3.01-0.59-4.35-1.38c-1.64-0.97-3.45-2.19-3.7-4.08
		c-0.18-1.31,0.47-2.58,1.14-3.72c0.99-1.67,2.06-3.29,3.22-4.85c2.72-3.65,10.57-1.84,11.73,2.46c0.23,0.84,0.13,1.79-0.24,2.58
		C50.8,82.52,49.26,84.41,47.9,86.32z"/>
	<path class="st1" d="M43.37,75.3c-0.1,0.06-0.2,0.13-0.29,0.21c-0.3,0.28-0.51,0.67-0.56,1.08c-0.08,0.61,0.35,0.78,0.79,1.1
		c1.37,0.99,2.98,1.75,4.59,2.27c0.6,0.19,1.31,0.34,1.83-0.02c0.74-0.51,0.56-1.57,0.12-2.22c-0.58-0.85-1.44-1.43-2.38-1.82
		C46.38,75.44,44.54,74.61,43.37,75.3z"/>
	<path class="st11" d="M87.52,67.42c0.8-1.18,2.09-2.02,3.49-2.27c1.41-0.24,2.9,0.11,4.05,0.95"/>
	<path class="st11" d="M107.16,67.25c0.77-1.29,2.13-2.22,3.62-2.47c1.49-0.25,3.07,0.19,4.22,1.16"/>
	<g>
		<defs>
			<path id="SVGID_00000114772817015509436610000008696002431587966133_" d="M89.32,70.1c-0.93-0.25-1.94,0.36-2.46,1.49
				c-0.38,0.82-0.5,1.83-0.61,2.81c-0.16,1.43-0.33,2.9-0.15,4.33c0.18,1.43,0.78,2.84,1.73,3.35c0.96,0.51,2.09-0.05,2.78-1.13
				s0.99-2.6,1.02-4.07C91.68,74.41,91.41,70.65,89.32,70.1z"/>
		</defs>
		<clipPath id="SVGID_00000005981609945175141480000017510954611123440051_">
			<use xlink:href="#SVGID_00000114772817015509436610000008696002431587966133_"  style="overflow:visible;"/>
		</clipPath>
		<g style="clip-path:url(#SVGID_00000005981609945175141480000017510954611123440051_);">
			<path class="st10" d="M87.79,71.7c-0.72-0.17-1.5,0.26-1.9,1.05c-0.29,0.58-0.39,1.29-0.48,1.97c-0.13,1-0.26,2.03-0.12,3.03
				c0.14,1,0.6,1.99,1.34,2.35c0.74,0.36,1.62-0.03,2.15-0.79c0.53-0.76,0.77-1.82,0.79-2.86C89.61,74.72,89.4,72.08,87.79,71.7z"/>
		</g>
	</g>
	<path class="st3" d="M148.25,202.86c2.34,0.29,4.81-0.76,6.21-2.66c1.4-1.9,1.69-4.57,0.72-6.72c-2.16,0.32-4.14,1.49-5.48,3.22
		C148.36,198.42,148.02,200.68,148.25,202.86z"/>
	<path class="st6" d="M121.97,171.62c0.01,1.55,0.36,3.46-0.11,4.92c-0.54,1.69-1.77,3.39-2.6,4.97c0.31-0.6,2.82,0.51,3.07,0.95
		c0.56,0.98,0.3,3.31,0.41,4.45c0.35,3.6,1.2,7.12,2.07,10.62c0.59,2.39,2.25,5.98,0.5,8.26c-0.88,1.15-2.45,1.46-3.87,1.69
		c-3.47,0.56-4.37-0.14-5.31-3.34c-2.18-7.4-3.19-15.5-4.16-23.15c-0.55-4.32-0.93-8.67-0.97-13.03c-0.04-3.67,1.07-7.2,4.16-9.48
		c-0.52,0.38-2.16-1.83-2.4-2.21c-1.12-1.76-0.62-3.88-0.11-5.75c0.62-2.23,0.81-4.56,1.28-6.83c1.32-6.43,3.01-12.79,5.15-19
		c0.38-1.09,0.8-2.23,1.65-3.01c1.53-1.4,3.38-0.03,5.13-0.5c1.99-0.53,3.06-0.3,3.19,2.01c0.12,2.17-1.14,4.77-1.68,6.89
		c-0.12,0.48-0.21,0.49-0.68,0.69c-0.12,0.05-1.17,0.41-1.17,0.5c0.16,0.58,0.32,1.16,0.48,1.73c0.14,0.51,0.4,1.03,0.26,1.55
		c-0.3,1.12-0.53,2.27-0.78,3.4c-2.38,10.74-3.51,21.75-3.52,32.74C121.97,170.99,121.97,171.3,121.97,171.62z"/>
	<circle class="st13" cx="120.85" cy="202.73" r="1.64"/>
	<path class="st6" d="M136.67,94.62c-0.3-0.06-0.6-0.14-0.9-0.23c-1.82-0.53-3.52-1.42-5.32-2.01c-2.1-0.69-4.55-0.91-6.39,0.31
		c-1.29,0.85-2.5,3.37-1.39,4.81c0.91,1.19,4.17,1.85,5.57,2.32c1.86,0.62,3.77,1.06,5.66,1.28c1.3,0.15,2.58,0.18,3.83,0.1
		c0.49-2.09,0.56-4.29,0.18-6.4C137.51,94.76,137.1,94.71,136.67,94.62z"/>
	<path class="st10" d="M78.8,84.39c-1.21-0.64-1.8-2.09-1.85-3.45c-0.05-1.37,0.35-2.71,0.64-4.04s0.47-2.77,0-4.05
		c-0.87-2.38-3.68-3.62-4.59-5.99c-0.52-1.35-0.3-2.97,0.57-4.13s2.35-1.84,3.79-1.73c-1.33-0.42-2.05-2-1.79-3.37
		s1.31-2.48,2.53-3.16s2.6-0.99,3.96-1.29c4.44-0.98,8.87-1.97,13.31-2.95c2.4-0.53,4.83-1.07,7.28-0.94
		c3.12,0.16,6.05,1.39,8.72,2.95c1.32,0.78,2.79,1.6,3.94,2.63c1.64,1.45,3.62,2.4,5.34,3.76c1.9,1.5,3.87,2.93,5.89,4.27
		c2.79,1.86,5.71,3.78,8.66,5.38c2.98,1.61,5.61,3.42,5.84,7.17c0.18,2.81-1.15,5.47-2.44,7.97c-0.62,1.2-1.38,2.27-2.04,3.43
		c-0.75,1.3-0.9,2.83-1.76,4.11c-0.91,1.35-2.42,2.42-4.05,2.36c-1.19-0.04-2.28-0.66-3.26-1.33c-5.96-4.05-10.05-10.76-10.91-17.91
		c-0.28-2.27-0.26-4.66-1.3-6.7c-1.62-3.19-5.49-4.72-9.06-4.6c-2.48,0.08-4.88,0.82-7.17,1.72c-2.04,0.8-4.4,1.31-6.28,2.43
		c-1.56,0.93-2.71,2.4-3.77,3.87c-1.92,2.67-3.65,5.47-5.19,8.37C82.82,80.98,81.86,85.99,78.8,84.39z"/>
	<g>
		<path class="st10" d="M64.86,91.98c-2.15-0.13-4.3-0.44-6.43-0.75c-3.57-0.52-6.75-1.88-9.8-3.8c-0.78-0.49-1.57-1-2.17-1.7
			s-0.99-1.64-0.83-2.55s0.99-1.72,1.91-1.66c0.62,0.04,1.15,0.44,1.65,0.82c2.23,1.72,4.32,3.73,6.87,4.94
			c4.03,1.92,8.96,2.22,13.35,1.73c0.8-0.09,1.52,0.49,1.61,1.3c0.09,0.8-0.49,1.52-1.3,1.61C68.1,92.07,66.48,92.08,64.86,91.98z"
			/>
	</g>
	<path class="st14" d="M52.1,94.77c-4.7,0.79-9.61,1.32-14.17-0.07s-8.69-5.18-9.12-9.93c-1.24,4.13-0.45,9.21,2.38,12.47
		c2.83,3.26,7.38,4.93,11.65,4.28S50.37,98.72,52.1,94.77z"/>
	<path class="st14" d="M70.97,79.59c-2.51,0.94-5.17,1.77-7.84,1.48c-2.67-0.28-5.36-1.93-6.11-4.51c-0.24,2.42,0.74,5.14,2.66,6.63
		c1.91,1.5,4.61,1.93,6.9,1.11S70.44,81.96,70.97,79.59z"/>
	<path class="st6" d="M183.26,72.98c-0.92-0.03-2,0.15-2.46,0.95c-0.62,1.06,0.25,2.32,0.65,3.48c0.75,2.14-0.44,4.23-1.58,5.96
		c-4.86,7.38-15.58,0.02-16.17-6.76c-0.28-3.27,0.78-6.51,2.02-9.55c1.21-2.97,2.71-5.96,3.2-9.16c0.47-3.07,0.32-6.29,0.13-9.38
		c-0.15-2.44-0.45-4.87-0.92-7.26c-0.15-0.77-0.38-1.99-1.13-2.44c-0.41-0.25-2.87-0.43-3.09-0.12c0.61-1.3,1.22-2.6,1.83-3.9
		c0.75-1.61-0.54-3.04-1.24-4.45c-4.59-9.24-11.8-17.32-20.72-22.55c-11.1-6.51-25.81-5.94-37.35-0.89
		c-0.65,0.28-1.63,3.33-1.09,3.63c-1.31-0.98-1.88-1.91-3.38-1.28c-1.08,0.46-2.15,1.41-3.08,2.13c-1.93,1.48-3.71,3.15-5.3,4.99
		c-3.1,3.6-5.49,7.92-6.32,12.63c-2.98-3.25-7.62-4.53-11.92-3.93c-2.09,0.29-4.14,1.02-5.89,2.21c-3.24,2.19-4.99,5.35-4.99,9.26
		c0,4.13,2.41,8.24,6.07,10.17c-2.82,1.57-5.38,4.21-7.19,6.89c-0.43,0.65-1.78,2.32-1.67,3.12c0.12,0.88,1.87,2.29,2.45,2.97
		c-0.86,0.2-2.65,0.26-3.34,0.78c-0.68,0.5-0.61,1.73-0.66,2.61c-0.11,2.08,0.16,4.18,0.87,6.14c1.29,3.57,4.14,6.58,7.59,8.04
		c0.82-2.3,1.85-4.53,3.1-6.63c-6.62-7.79,6.35-15.51,12.88-17.43c6.36-1.87,13.22-1.57,19.64,0.07c6.42,1.63,12.45,4.55,18.19,7.85
		c8.28,4.76,16.6,10.66,20.8,19.52c1.05,2.22,1.86,4.6,1.86,7.05c-0.01,4.55-2.88,7.43-7.14,7.1c0.38,2.12,0.31,4.31-0.18,6.4
		c0.62-0.04,1.24-0.1,1.85-0.2c0.5-0.08,4.39-1.16,5.59-2.03c1.98,4.58,6.74,7.53,11.65,8.42c1.91,0.35,4.3,0.67,6.23,0.28
		c1.52-0.31,2.06-2.03,2.83-3.28c0.48,0.75,1.13,2.36,1.96,2.59c0.87,0.24,2.89-0.68,3.77-0.92c3.65-1.01,7.26-2.29,10.46-4.32
		c6.3-3.99,11.04-10.71,10.46-18.33C192.13,78.18,188.89,73.17,183.26,72.98z"/>
	<g>
		<path class="st9" d="M130.17,89.86c-1.11-1.31-0.88-3.54,0.47-4.6c-2.21,0.52-4.7-0.89-5.4-3.05c-0.7-2.16,0.49-4.76,2.58-5.64
			c-3.55,0.17-6.26-3.26-7.39-6.63c-0.73-2.17-0.72-4.46-1.83-6.51c-1.67-3.08-4.95-5.05-8.24-6.01c-2.51-0.73-5.21-0.88-7.75-0.25
			c-1.31,0.32-2.56,0.85-3.7,1.57c-0.98,0.61-1.81,1.34-3.04,1.29c-1.85-0.09-3.28-1.61-4.98-2.35c-1.95-0.85-4.35-0.57-6.06,0.69
			c-3.79,2.8-3.45,8.45-3.13,12.62c0.37,4.67-1.22,8.78-2.82,13.08c-2.46,6.6-1.29,12.48,2.01,18.48
			c2.71,4.92,6.58,9.21,11.25,12.33c4.62,3.09,9.69,6.03,15.4,6.15c7.19,0.16,13.94-3.95,18.65-9.37
			c4.63-5.32,7.62-11.83,10.53-18.27c-0.84-0.93-1.56-1.97-2.12-3.09C133.3,91.3,131.23,91.12,130.17,89.86z"/>
		<path class="st9" d="M145.54,83.57c-2.49-2.14-6.91-1.44-8.45,1.45c-0.89,1.68-0.91,3.87-2.31,5.14
			c-0.06,0.05-0.12,0.09-0.18,0.13c0.56,1.12,1.28,2.16,2.12,3.09c0.05-0.12,0.11-0.24,0.17-0.37c2.64,1.95,6.72,1.72,8.98-0.66
			C148.12,89.99,148.03,85.71,145.54,83.57z"/>
	</g>
	<g>
		<path class="st8" d="M94.21,90.31c-0.33-0.13-0.65-0.27-0.97-0.42c-2.31-1.11-4.8-3.19-7.32-1.21c-1.55,1.22-2.38,3.41-2.41,5.34
			c-0.05,2.64,1.14,5.18,2.77,7.26c3.24,4.12,8.34,6.71,13.58,6.88c5.24,0.17,10.5-2.07,14-5.97c1.98-2.2,3.43-5.09,3.12-8.03
			c-0.35-3.24-2.92-5.81-6.25-5.78c-1.75,0.02-3.3,1.24-4.83,1.94c-1.53,0.7-3.25,1.03-4.92,1.12
			C98.67,91.54,96.34,91.16,94.21,90.31z"/>
	</g>
	<path class="st8" d="M96.35,83.3c0.42,1.89,3.13,2.86,4.34,1.12c1.24-1.78-0.86-4.93-3-3.98C96.66,80.89,96.11,82.23,96.35,83.3z"
		/>
	<path class="st10" d="M105.27,70.29c0.82-1.78,2.79-2.96,4.74-2.84c1.95,0.12,3.77,1.53,4.37,3.39c0.02-1.52-0.66-3.16-1.93-4
		s-2.97-0.99-4.37-0.37C106.68,67.08,105.51,68.78,105.27,70.29z"/>
	<path class="st10" d="M84.75,69.27c0.82-1.78,2.79-2.96,4.74-2.84c1.95,0.12,3.77,1.53,4.37,3.39c0.02-1.52-0.66-3.16-1.93-4
		s-2.97-0.99-4.37-0.37C86.16,66.06,84.99,67.76,84.75,69.27z"/>
	<path class="st8" d="M105.63,142.01c0.12,0.95,0.81,1.81,0.76,2.77c-0.1,1.87-2.75,2.62-3.2,4.44c-0.23,0.91,0.24,1.95,1.07,2.38
		c0.83,0.43,1.95,0.22,2.57-0.48c0.68-0.78,0.71-1.94,1.33-2.76c0.47-0.62,1.22-0.97,1.82-1.47c1.9-1.59,2.16-4.85,0.21-6.5
		c-0.83-0.7-2.3-1.22-3.37-0.79C105.95,139.93,105.52,141.14,105.63,142.01z"/>
	<path class="st8" d="M71.21,117.58c-1.11,0.54-2.45,0.09-3.54-0.53c-1.08-0.62-2.13-1.4-3.36-1.53c-1.79-0.19-3.54,1.06-5.31,0.71
		c-1.61-0.31-2.76-2.12-2.36-3.71c0.19-0.74,0.59-1.27,1.14-1.65c2.14-0.03,4.36,0.26,6.44,0.66c2.65,0.51,5.27,1.16,7.85,1.94
		c0.16,0.27,0.3,0.56,0.38,0.87C72.81,115.55,72.34,117.03,71.21,117.58z"/>
	<path class="st8" d="M132.37,181.7c-0.31-2.45-4.34-2.36-4.63,0.07c-0.18,1.49,1.21,2.78,1.2,4.28c0,0.88-0.49,1.7-0.54,2.58
		c-0.07,1.24,0.86,2.46,2.07,2.72c1.21,0.26,2.56-0.47,3.01-1.62c0.38-0.98,0.14-2.09-0.21-3.09c-0.35-0.99-0.82-1.97-0.89-3.02
		C132.35,182.98,132.45,182.34,132.37,181.7z"/>
	<path class="st8" d="M152.74,116.32c0.58-0.15,1.12-0.34,1.47-0.82c0.68-0.93,0.03-2.34-1-2.86c-2.4-1.22-5.28,0.56-7.06,2.14
		c-0.89,0.79-1.62,1.8-1.88,2.96c-0.26,1.16,0.01,2.47,0.86,3.3c0.86,0.82,2.33,1,3.25,0.26c1.32-1.06,1.11-3.37,2.51-4.34
		C151.42,116.59,152.1,116.48,152.74,116.32z"/>
	<path class="st8" d="M121.68,98.5c-0.17,0.24-0.33,0.49-0.48,0.74c-0.49,0.83-0.84,1.78-0.71,2.73c0.16,1.14,1.1,2.14,2.24,2.32
		c1.14,0.18,2.37-0.51,2.76-1.59c0.39-1.09-0.03-2.32,0.27-3.43c0.19-0.72,0.67-1.33,1.07-1.96c0.73-1.16,1.12-3.68-1.03-3.36
		c-1.23,0.18-2.39,1.92-2.98,2.91C122.47,97.42,122.06,97.95,121.68,98.5z"/>
	<g>
		<defs>
			<path id="SVGID_00000078033669613311354530000000876417148372009645_" d="M94.21,90.31c-0.33-0.13-0.65-0.27-0.97-0.42
				c-2.31-1.11-4.8-3.19-7.32-1.21c-1.55,1.22-2.38,3.41-2.41,5.34c-0.05,2.64,1.14,5.18,2.77,7.26c3.24,4.12,8.34,6.71,13.58,6.88
				c5.24,0.17,10.5-2.07,14-5.97c1.98-2.2,3.43-5.09,3.12-8.03c-0.35-3.24-2.92-5.81-6.25-5.78c-1.75,0.02-3.3,1.24-4.83,1.94
				c-1.53,0.7-3.25,1.03-4.92,1.12C98.67,91.54,96.34,91.16,94.21,90.31z"/>
		</defs>
		<clipPath id="SVGID_00000160183469040740956520000008419053716558333613_">
			<use xlink:href="#SVGID_00000078033669613311354530000000876417148372009645_"  style="overflow:visible;"/>
		</clipPath>
		<path style="clip-path:url(#SVGID_00000160183469040740956520000008419053716558333613_);fill:#FFFFFF;" d="M90.51,93.63
			c0.75,0.96,2,1.38,3.18,1.7c3.45,0.95,7.04,1.6,10.61,1.33c3.57-0.26,7.15-1.5,9.8-3.92c0.84-0.77,1.62-1.72,1.77-2.86
			c0.18-1.35-0.59-2.71-1.67-3.53c-1.69-1.29-3.99-1.46-6.1-1.2s-4.17,0.89-6.29,1.02c-1.71,0.1-3.43-0.12-5.15-0.13
			c-1.62,0-4.15,0.09-5.33,1.42C89.96,89.02,89.12,91.85,90.51,93.63z"/>
		<path style="clip-path:url(#SVGID_00000160183469040740956520000008419053716558333613_);fill:#D9807E;" d="M100.05,100.81
			c4.6,0.04,9.29,1.71,12.39,5.1c-3.09,3.49-8.13,4.85-12.74,4.21c-3.29-0.46-6.39-1.83-9.15-3.66c-0.67-0.45-3.23-1.78-2.39-2.83
			c0.43-0.53,1.91-0.84,2.55-1.07c0.93-0.34,1.88-0.64,2.85-0.9C95.67,101.11,97.86,100.79,100.05,100.81z"/>
	</g>
	<g>
		<path class="st3" d="M215.05,168.78c0.43-2.71-0.7-5.62-2.86-7.32s-5.24-2.14-7.78-1.1c0.29,2.53,1.57,4.87,3.53,6.49
			S212.51,168.97,215.05,168.78z"/>
		<path class="st3" d="M117.06,240.32c-0.99-2.56-3.42-4.51-6.14-4.91c-2.72-0.4-5.61,0.78-7.28,2.95c1.52,2.04,3.8,3.43,6.3,3.85
			C112.44,242.64,114.95,241.75,117.06,240.32z"/>
		<path class="st3" d="M188.86,237c-2.33-1.45-5.45-1.53-7.86-0.21c-2.41,1.32-4.01,4-4.03,6.75c2.44,0.71,5.1,0.45,7.35-0.73
			C186.58,241.63,188.05,239.41,188.86,237z"/>
		<path class="st17" d="M166.59,301.38c0.74-0.83,1.38-1.69,1.88-2.57c2.18-3.87-0.81-6.86-6.89-6.3c-5.69,0.52-11.42,2.91-16.53,5
			c-5.59,2.28-10.9,5.04-15.38,8.32c-3.74,2.73-9.86,7.09-8.97,10.62c1.41,5.59,10.13,2.24,16.08,0.48
			c7.55-2.24,14.92-5.14,21.28-8.92C161.25,306.11,164.39,303.85,166.59,301.38z"/>
		<path class="st17" d="M231.45,254.49c0.66-1.21,1.21-2.47,1.61-3.78c1.77-5.76-1.67-10.78-7.84-10.66
			c-5.78,0.11-11.37,3.14-16.36,5.77c-5.46,2.87-10.58,6.53-14.77,11.08c-3.5,3.8-9.25,9.84-7.91,15.45
			c2.13,8.88,10.68,4.73,16.57,2.71c7.48-2.56,14.69-6.19,20.76-11.3C226.54,261.2,229.49,258.07,231.45,254.49z"/>
		<path class="st18" d="M69.52,208.31c1.77-2.95,4.87-4.82,7.92-6.42c10.69-5.6,22.36-9.32,34.31-10.95c1.29-0.18,2.81-0.5,3.3-1.7
			c0.44-1.1-0.25-2.31-0.92-3.29c-2.49-3.66-5.43-7.62-9.78-8.44c-2.68-0.5-5.42,0.31-8.01,1.19
			c-12.59,4.27-24.61,10.21-35.66,17.61c-2.05,1.38-4.19,2.95-5,5.28c-0.59,1.69-0.39,3.56,0.03,5.29
			c1.32,5.39,4.88,10.19,9.64,13.03c1.04,0.62,2.24,1.17,3.43,0.93c3.71-0.74,0.59-3.94-0.03-5.55
			C67.89,213.05,68.3,210.34,69.52,208.31z"/>
		<path class="st17" d="M159.73,172.37c6.34-1.73,13.14-2.27,19.46-0.47c6.32,1.8,12.08,6.15,14.63,12.21
			c4.28-3.09,8.27-6.99,9.91-12c1.64-5.02,0.27-11.3-4.25-14.04c-3.07-1.87-6.91-1.81-10.5-1.6c-15.68,0.89-31.26,3.47-46.39,7.67
			c-2.85,0.79-6.08,2-7.02,4.81c-0.71,2.13,0.19,4.46,1.33,6.39c0.91,1.54,1.22,3.13,3.18,3.74c2.7,0.84,7.06-1.92,9.51-2.99
			C152.85,174.64,156.25,173.21,159.73,172.37z"/>
		<path class="st18" d="M51.57,225.28c2.71,5.06,7.74,8.61,13.2,10.38c5.46,1.77,11.33,1.89,17.04,1.3
			c11.17-1.14,22.05-4.96,31.49-11.04c-11.38,2.44-23.16,4.25-34.63,2.25c-7.63-1.33-15.12-4.54-20.93-9.72
			c-1.66-1.48-5.55-7.92-7.56-5.37C47.98,215.84,50.16,222.66,51.57,225.28z"/>
		<path class="st17" d="M104.92,240.6c-3.94,9.05-13.17,15.56-23.02,16.24c-4.96,0.34-9.95-0.69-14.63-2.38
			c-2.29-0.82-4.51-1.8-6.7-2.85c-1.94-0.93-4.73-1.86-6.29-3.3c0.19,0.18,2.95,0.51,3.4,0.63c1.41,0.38,2.83,0.69,4.26,0.94
			c4.18,0.73,8.47,0.88,12.7,0.66c6.93-0.37,13.8-1.91,20.22-4.57c1.76-0.73,3.48-1.54,5.16-2.44
			C101.06,242.98,104.45,241.68,104.92,240.6z"/>
		<path class="st14" d="M198.64,147.94c11.64-5.27,22.9,1.58,28.07,12.34c6.18,12.85,2.68,27.86-7.59,37.59
			c-7.67,7.26-18.34,11-28.9,11.08c1.06-0.48,2.12-0.99,3.15-1.53c16.93-8.88,44.11-37.11,18.98-53.08
			c-5.84-3.71-13.46-4.48-19.93-2.02C193.76,150.39,196.46,148.92,198.64,147.94z"/>
		<path class="st17" d="M206.8,229.9c-0.4-3.32-1.61-6.47-3.81-9c-0.73-0.84-1.57-1.61-2.51-2.29c-7.78-5.6-18.07-2.51-26.58-0.62
			c-0.46,0.1-0.92,0.21-1.37,0.32c-0.51,0.11-1.01,0.22-1.52,0.36c-0.69,0.16-1.39,0.33-2.08,0.51c-5.84,1.48-11.59,3.29-17.2,5.45
			c-0.9,0.35-1.79,0.69-2.69,1.07c-1.07,0.43-2.13,0.88-3.19,1.34c-3.23,1.4-6.4,2.92-9.51,4.57c-0.82,0.43-1.64,0.88-2.48,1.34
			c-3.08,1.67-6.3,3.5-9.45,5.48c-6.31,3.96-12.41,8.52-16.89,13.67c-1.53,1.76-3.08,3.93-4.31,6.29c-1.65,3.17-2.72,6.7-2.35,10.08
			c0.01,0.15,0.03,0.3,0.05,0.46c0.12,0.81,0.32,1.62,0.63,2.41c0.29,0.75,0.64,1.46,1.05,2.11c3.38,5.43,10.54,7.62,16.73,8.78
			c0.74,0.14,1.47,0.26,2.17,0.37c12.57,1.97,25.68,0.22,37.66-4.34c1.65-0.63,3.26-1.32,4.85-2.08c4.89-2.32,9.5-5.19,13.92-8.34
			c2.37-1.69,4.67-3.44,6.94-5.22c6.78-5.35,14.25-10.51,18.67-18.07c0.37-0.63,0.72-1.27,1.04-1.93
			C206.44,238.78,207.31,234.2,206.8,229.9z M179.38,253.5c-3.47,2.42-7.03,4.77-10.78,6.84c-3.23,1.79-6.59,3.38-10.12,4.64
			c-2.99,1.07-6.06,1.96-9.17,2.64c-5.2,1.14-10.52,1.7-15.76,1.61c-1.76-0.04-3.51-0.14-5.25-0.33c-0.85-0.09-1.75-0.2-2.66-0.34
			c-5.29-0.79-11.15-2.49-13.01-7.02c-0.64-1.55-0.82-3.09-0.62-4.59c0.42-3.24,2.57-6.36,5.56-9.24c2.72-2.62,6.15-5.05,9.62-7.17
			c2.56-1.57,5.13-2.96,7.47-4.17c1.15-0.59,2.22-1.13,3.22-1.62c0.34-0.17,0.67-0.32,0.98-0.47c0.94-0.46,1.79-0.86,2.49-1.2
			c2.01-0.97,4.06-1.89,6.13-2.76c0.81-0.34,1.62-0.67,2.44-0.99c1.47-0.58,2.95-1.14,4.44-1.66c4.33-1.54,8.75-2.87,13.22-3.99
			c1.36-0.34,2.73-0.67,4.1-0.97c6.84-1.5,15.13-3.91,21.21-0.2c1.31,0.81,2.33,1.8,3.09,2.93c2.65,3.92,2.1,9.42-0.38,13.68
			c-0.4,0.68-0.84,1.34-1.3,1.97c-1.31,1.77-2.87,3.37-4.59,4.85C186.52,248.69,182.85,251.07,179.38,253.5z"/>
		<path class="st17" d="M195.59,239.11c-3.57,6.11-10.2,10.18-16.21,14.39c-6.45,4.51-13.26,8.77-20.9,11.49
			c-9.67,3.45-20.18,4.99-30.18,3.91c-5.81-0.63-13.48-2.04-15.68-7.36c-2.01-4.86,0.55-9.61,4.94-13.82
			c7.05-6.79,18.79-12.22,23.78-14.64c9.59-4.63,19.84-8.04,30.32-10.36c6.84-1.51,15.13-3.91,21.21-0.2
			C198.77,226.1,198.79,233.63,195.59,239.11z"/>
		<path class="st17" d="M195.59,239.11c-3.57,6.11-10.2,10.18-16.21,14.39c-6.45,4.51-13.26,8.77-20.9,11.49
			c-9.67,3.45-20.18,4.99-30.18,3.91c-5.81-0.63-13.48-2.04-15.68-7.36c-2.01-4.86,0.55-9.61,4.94-13.82
			c7.05-6.79,18.79-12.22,23.78-14.64c9.59-4.63,19.84-8.04,30.32-10.36c6.84-1.51,15.13-3.91,21.21-0.2
			C198.77,226.1,198.79,233.63,195.59,239.11z"/>
		<path class="st17" d="M118.1,297.36c2.65,3.38,7.28,4.41,11.54,4.91c16.36,1.93,33.23-0.9,48.25-7.6
			c13.36-5.96,27.33-15.22,34.56-28.3c2.59-4.69,4.71-9.1,2.64-14.37c-4.02-10.27-17.51-7.6-25.85-5.98
			c-17.06,3.31-34.71,9.33-49.31,18.9C131.85,270.22,108.55,285.2,118.1,297.36z"/>
		<path class="st17" d="M218.85,275.41c-3.08,9.89-10.35,19.95-19,25.14c-14.96,8.98-32.04,11.37-49.38,13.33
			c2.45,2.86,5.99,4.63,9.66,5.49c3.67,0.85,7.48,0.85,11.24,0.65c8.32-0.44,16.66-1.87,24.32-5.16s14.6-8.54,19.08-15.56
			c4.48-7.02,6.29-15.9,4.04-23.92"/>
		<path class="st17" d="M216.49,299.99c-15.49,2.87-30.34,9.53-42.56,18.77c-1.39,1.05-2.76,2.15-3.78,3.47
			c-1.01,1.33-1.64,2.92-1.37,4.42c0.39,2.11,2.54,3.62,4.93,4.12s4.97,0.17,7.45-0.31c11.3-2.2,21.77-7.32,32.03-12.37
			c5-2.46,10.32-5.2,12.93-9.63c1.38-2.34,1.77-5.33-0.05-7.19C223.93,299.1,219.9,299.36,216.49,299.99z"/>
		<path class="st17" d="M233.76,309.45c1.79,5.34,0.31,11.47-3.16,15.91c-3.46,4.44-8.7,7.29-14.18,8.59
			c-2.63,0.62-5.33,0.91-8.03,0.97c-2.24,0.04-5.52,0.36-7.59-0.55c5.09-2.25,10.17-3.84,14.94-6.89c4.65-2.97,8.78-5.44,12.43-9.58
			C229.01,316.96,234.16,310.64,233.76,309.45z"/>
		<path class="st17" d="M222.66,342.27c-0.96,1.41-1.78,3.16-1.23,4.77c0.49,1.43,1.98,2.35,3.48,2.51s3.01-0.29,4.39-0.9
			c3.74-1.64,6.97-4.43,9.14-7.89c1.18-1.88,2.2-4.57,0.84-6.65c-1.18-1.82-3.14-1.2-4.91-0.62
			C229.66,335.05,225.45,338.15,222.66,342.27z"/>
		<path class="st17" d="M261.03,346.44c-5.38,6.91-15.35,8.8-23.91,6.98c-8.57-1.82-16.13-6.65-23.6-11.22
			c-7.47-4.57-15.34-9.05-24.05-10.02c-5.27-0.59-10.61,0.16-15.9-0.22c-5.29-0.37-10.9-2.15-13.97-6.48
			c-2.5-3.53-2.93-8.19-5.32-11.8c-4.92-7.43-15.46-7.54-24.03-9.98c-9.93-2.83-18.57-9.91-23.29-19.09
			c-4.58-8.91-5.68-19.7-12.2-27.3c-4.2-4.89-10.16-7.86-15.19-11.89c-5.03-4.03-9.41-10.08-8.31-16.44
			c1.15-6.61,7.59-10.76,13.51-13.92c26.43-14.11,54.61-24.92,83.7-32.1c8.15-2.01,16.37-3.74,24.65-5.09
			c3.38-0.55,6.87-1.04,10.21-0.26s6.53,3.13,7.32,6.46c1.1,4.6-4.34,7.92-5.74,12.05c-1.9,5.6-2.04,11.84-0.24,17.48
			c2.43,7.6,8.03,13.91,10.3,21.56c4.79,16.18-6.2,34.54,0.55,50c3.44,7.88,10.87,13.29,15.25,20.68
			c3.18,5.38,4.62,11.58,6.26,17.62s3.62,12.18,7.63,16.97s10.54,7.97,16.59,6.36"/>
		<path class="st17" d="M77,185.82c-5.13-1.72-10.54-2.77-15.94-2.41c-5.4,0.36-10.79,2.21-14.87,5.75
			c-7.26,6.31-9.18,17.94-4.34,26.24c0.89-8.17,5.96-15.39,12.81-19.92S69.13,188.19,77,185.82z"/>
		<path class="st14" d="M179.47,137.92c0.92,2.97,0.64,6.29-0.78,9.06c-1.42,2.77-3.94,4.95-6.89,5.94
			c2.82,0.78,5.78,0.29,8.26-1.26c2.49-1.55,4.21-4.35,4.22-7.28C184.29,141.44,182.19,138.99,179.47,137.92z"/>
		<path class="st19" d="M175.57,143.7c-0.06-2.97-2.45-5.5-5.2-6.61c-2.75-1.13-5.82-1.1-8.8-1c-8.63,0.29-17.24,1.1-25.77,2.42
			c-3.62,0.57-7.22,1.22-10.81,1.97c-0.01,0-0.02,0.01-0.03,0.01c-3.63,0.76-7.24,1.49-10.83,2.27c-6.49,1.41-12.92,3-19.22,5.28
			c-1.2,0.43-2.39,0.88-3.57,1.37c-5.31,2.17-11.39,4.61-16.16,8.34c-2.43,1.89-4.52,4.12-6.01,6.81
			c-2.96,5.36,1.18,11.39,6.71,12.62c3.26,0.73,6.64,0.31,9.95-0.13c4.69-0.61,9.41-1.27,14.11-2c3.76-0.58,7.53-1.22,11.28-1.92
			c3.61-0.67,7.2-1.41,10.77-2.23c5.06-1.17,10.06-2.49,14.97-4.03c1.41-0.44,2.81-0.9,4.2-1.38c2.79-0.96,5.56-1.99,8.29-3.11
			c6.83-2.8,13.42-6.14,19.69-10.15C172.26,150.2,175.62,147.42,175.57,143.7z M159.36,147.85c-6.87,3.52-13.93,6.65-21.15,9.39
			c-5.27,2-10.61,3.78-16.02,5.34c-3.65,1.06-7.33,2.02-11.03,2.87c-4.43,1.02-8.89,1.9-13.37,2.63c-2.47,0.4-4.95,0.76-7.44,1.07
			c-2.13,0.26-4.32,0.5-6.39-0.05c-2.07-0.55-4.03-2.04-4.51-4.13c-0.78-3.41,2.46-6.33,5.45-8.15c3.29-2,6.81-3.6,10.43-4.9
			c2.39-0.86,4.83-1.6,7.29-2.25c3.57-0.94,7.17-1.91,10.77-2.84c2.75-0.71,5.51-1.4,8.28-2.02c0.86-0.19,1.71-0.38,2.57-0.55
			c3.57-0.75,7.16-1.38,10.77-1.89c4.63-0.66,9.29-1.12,13.95-1.4c3.26-0.19,9.83-1.58,12.79,0.01
			C165.47,142.97,161.65,146.67,159.36,147.85z"/>
		<path class="st17" d="M213.36,169.37c-0.08-0.2-0.16-0.4-0.26-0.59c-1.7-3.64-4.77-5.59-8.28-6.55c-0.61-0.17-1.22-0.3-1.85-0.41
			c-1.68-0.3-3.43-0.4-5.15-0.4c-8.08,0.01-16.12,0.54-24.1,1.48c-3.3,0.38-6.6,0.85-9.87,1.38c-7.18,1.16-14.31,2.64-21.36,4.39
			c-2.05,0.51-4.1,1.04-6.14,1.59c-0.34,0.09-0.67,0.18-1.01,0.28c-4.43,1.2-8.84,2.47-13.22,3.8c-3.52,1.06-7.03,2.18-10.51,3.35
			c-1.25,0.41-2.5,0.83-3.74,1.27c-1.87,0.64-3.75,1.3-5.61,1.98c-2.51,0.92-5.01,1.86-7.49,2.84c-6.89,2.7-13.79,5.44-20.46,8.66
			c-3.6,1.73-7.53,3.54-11.08,5.78c-2.79,1.74-5.34,3.74-7.36,6.16c-0.15,0.19-0.32,0.39-0.47,0.59c-1.52,2.01-2.89,4.77-3.57,7.61
			c-0.8,3.29-0.68,6.69,1.19,9.16c3.84,5.05,11.25,6.88,17.25,7.3c0.33,0.02,0.66,0.04,0.99,0.06c13.3,0.84,26.51,0.17,39.58-1.67
			c1.99-0.27,3.98-0.58,5.96-0.92c18.95-3.17,37.57-8.67,55.62-15.42c0.11-0.05,0.23-0.08,0.34-0.13
			c9.58-3.59,19.16-7.9,27.18-14.36c3.54-2.85,7.86-7.08,10.83-11.84C213.8,179.9,215.43,174.46,213.36,169.37z M200.26,182.75
			c-8.32,9.94-20.74,15.37-33,19.64c-0.18,0.06-0.36,0.12-0.54,0.19c-17.59,6.08-36.15,11.33-54.94,14.2
			c-11.16,1.72-22.4,2.6-33.56,2.32c-2.02-0.04-4.05-0.13-6.07-0.26c-0.55-0.03-1.11-0.07-1.66-0.13c-1.86-0.17-3.72-0.48-5.42-1.24
			c-3.99-1.77-5.64-5.54-4.47-9.7c1.25-4.44,4.73-7.09,8.43-9.52c0.66-0.44,1.33-0.85,2.01-1.26c8.1-4.84,17.22-7.71,26.05-10.95
			c2.13-0.78,4.28-1.54,6.43-2.28c2.37-0.81,4.75-1.61,7.13-2.38c0.45-0.15,0.89-0.29,1.34-0.43c3.05-0.97,6.11-1.91,9.19-2.82
			c4.97-1.46,9.97-2.83,14.97-4.14c0.01-0.01,0.04-0.01,0.05-0.01c2.59-0.68,5.2-1.32,7.8-1.93c4.7-1.1,9.42-2.09,14.17-2.95
			c4.17-0.76,8.37-1.42,12.58-1.96c6.51-0.85,13.07-1.43,19.64-1.69c4.87-0.19,10.72,0.31,13.06,4.59c0.22,0.39,0.39,0.79,0.51,1.2
			c0.67,2.06,0.33,4.28-0.54,6.41C202.68,179.5,201.52,181.26,200.26,182.75z"/>
		<path class="st17" d="M133.98,285.39c-12.94,7.3-29.47,7.84-42.86,1.38c5.22,7.01,12.27,11.79,21.01,11.44
			S129.33,292.79,133.98,285.39z"/>
		<path class="st17" d="M235.69,280.49c-3.79,14.86-15.19,27.57-29.56,32.94c8.96,1.11,17.55-0.74,23.52-7.5
			S237.89,289.24,235.69,280.49z"/>
		<path class="st17" d="M213.79,318.71c-9.68,11.9-25.36,18.64-40.66,17.49c7.66,4.76,16.24,6.7,24.5,3.07
			S212.12,327.57,213.79,318.71z"/>
		<path class="st17" d="M181.62,144.63c-8.38,34.15-47.75,58.25-81.96,50.08c8.51-1.54,16.53-3.5,24.2-6.31
			C147.25,180.01,166.77,164.63,181.62,144.63L181.62,144.63z"/>
		<path class="st14" d="M198.1,282.54c13.74-2.22,26.1-11.65,31.87-24.31c-0.36,7.9-4.1,15.64-10.32,20.52
			C213.42,283.63,205.86,284.08,198.1,282.54z"/>
		<path class="st18" d="M63.12,245.62c-5.69,0.02-11.32-2.65-14.92-7.05s-5.08-10.46-3.93-16.03c-4.32,3.4-7,8.67-6.02,14.07
			c0.98,5.41,5.11,10.12,10.34,11.8C53.81,250.09,59.18,249.46,63.12,245.62z"/>
		<g>
			<path class="st14" d="M69.25,262.71c21.08-2.61,41.99-4.55,62.59-10.17c6.44-1.76,13.29-3.92,19.64-6.26
				c14.81-5.47,28.74-11.74,42.48-19.67c10.8-6.23,20.45-13.7,28.9-22.94c-2.2,7.65-5.96,14.12-10.74,20.46
				C177.08,264.56,119.78,279.08,69.25,262.71C69.27,262.72,69.25,262.71,69.25,262.71z"/>
		</g>
		<path class="st3" d="M252.9,297.96c-3.41,1.45-5.92,4.83-6.32,8.51s1.31,7.52,4.32,9.68c2.68-2.14,4.44-5.28,4.89-8.68
			C256.24,304.06,254.93,300.72,252.9,297.96z"/>
		<path class="st3" d="M90.41,310.79c-0.08,3.7,1.97,7.38,5.16,9.26c3.19,1.88,7.4,1.9,10.6,0.04c-0.85-3.32-2.98-6.22-5.9-8.03
			C97.35,310.25,93.76,310.07,90.41,310.79z"/>
		<path class="st3" d="M241.41,218.62c-3.7,0.18-7.22,2.49-8.87,5.8s-1.36,7.51,0.72,10.58c3.26-1.08,5.99-3.42,7.59-6.46
			S242.36,221.92,241.41,218.62z"/>
		<path class="st3" d="M25.02,119.25c-2.69-0.53-5.64,0.49-7.43,2.58c-1.78,2.09-2.34,5.16-1.39,7.74c2.54-0.19,4.92-1.38,6.62-3.28
			C24.52,124.38,25.11,121.79,25.02,119.25z"/>
	</g>
	<g>
		<path class="st13" d="M113.66,86.15c3-1.09,6.6,2.02,5.94,5.14C118.6,88.47,116.6,86.73,113.66,86.15L113.66,86.15z"/>
	</g>
	<g>
		<path class="st13" d="M80.96,91.11c-0.92-3.06,2.4-6.47,5.48-5.63C83.56,86.31,81.7,88.21,80.96,91.11L80.96,91.11z"/>
	</g>
	<g>
		<path class="st10" d="M89.42,70.1c-1.08-0.25-2.26,0.37-2.87,1.5c-0.44,0.82-0.59,1.83-0.72,2.81c-0.19,1.43-0.39,2.9-0.18,4.33
			s0.91,2.84,2.01,3.35c1.12,0.51,2.44-0.05,3.24-1.13c0.81-1.08,1.16-2.6,1.19-4.07C92.16,74.4,91.85,70.65,89.42,70.1z"/>
	</g>
	<path class="st2" d="M86.46,75.59c-0.23,1.35,0.83,2.66,1.8,1.79c0.99-0.88,0.71-3.48-0.52-3.37
		C87.15,74.06,86.59,74.82,86.46,75.59z"/>
	<g>
		<path class="st10" d="M110.11,70.68c-1.08-0.25-2.26,0.37-2.87,1.5c-0.44,0.82-0.59,1.83-0.72,2.81c-0.19,1.43-0.39,2.9-0.18,4.33
			c0.21,1.43,0.91,2.84,2.01,3.35c1.12,0.51,2.44-0.05,3.24-1.13c0.81-1.08,1.16-2.6,1.19-4.07
			C112.85,74.99,112.53,71.23,110.11,70.68z"/>
	</g>
	<path class="st2" d="M107.09,76.32c-0.23,1.35,0.83,2.66,1.8,1.79c0.99-0.88,0.71-3.48-0.52-3.37
		C107.79,74.79,107.22,75.55,107.09,76.32z"/>
	<path class="st8" d="M197.88,114.8c-1.67,0.11-3.65-0.74-4.6-1.16c-0.68-0.3-1.31-0.86-1.64-1.74c-0.33-0.88-0.31-2.1,0.15-3.04
		c0.21-0.41,0.46-0.73,0.74-0.96c2.68,1.17,5.36,2.33,8.04,3.49C200.88,113.32,199.17,114.72,197.88,114.8z"/>
	<path class="st8" d="M97.01,43.83c8.33,0.23,17.47,0.85,25.01,4.38c6.84,3.2,12.22,9.04,17.42,14.51
		c-1.45-8.88-10.52-17.4-19.14-19.98C111.21,40.01,104.56,41.01,97.01,43.83z"/>
	<path class="st14" d="M45.3,56.09c0.92,2.77,1.97,5.53,1.74,8.5c-0.06,0.72-0.23,1.41-0.58,2.05c-0.3,0.55-0.91,0.92-1.19,1.43
		c0.87-1.57,0.53-3.6-0.44-5.11c-0.96-1.52-2.45-2.61-3.95-3.61c-3.1-2.07-5.6-4.34-6.91-7.96c-1.2-3.33-1.76-9,1.61-11.32
		c1.03-0.71,2.43-0.95,3.57-0.43c1.14,0.52,1.9,1.88,1.56,3.08c-0.34,1.21-1.89,1.96-2.98,1.34c0.66,0.57,1.83-0.25,1.68-1.11
		c-0.15-0.86-1.25-1.32-2.07-1.01c-0.82,0.31-1.32,1.17-1.46,2.03c-0.24,1.51,0.56,3.12,1.9,3.86c1.34,0.73,3.13,0.54,4.27-0.48
		c2.36-2.08,2.34-7.7,1.45-10.44c-0.45-1.4-1.52-2.68-2.95-2.98c-1.44-0.3-3.13,0.72-3.19,2.19c-0.67-0.52-0.8-1.54-0.47-2.32
		s1.04-1.34,1.8-1.73c2.87-1.46,6.71-0.44,8.65,2.13c1.94,2.57,1.93,6.38,0.15,9.07c-1.09,1.64-2.42,2.88-3.03,4.8
		c-0.6,1.9-0.35,3.98,0.17,5.86C44.83,54.66,45.06,55.37,45.3,56.09z"/>
	<g>
		<path class="st13" d="M163.72,76.83c1.15,2.16,2.26,4.03,4.23,5.41c0,0,1.4,1.05,1.4,1.05c3.04,2.19,6.75,3.52,10.5,3.53
			c2.13-0.02,4.31-0.54,6.42-2.04c-1.75,5.52-9.34,6.62-14.14,4.55C167.28,87.38,162.63,82.4,163.72,76.83L163.72,76.83z"/>
	</g>
	<g>
		<path class="st13" d="M68.51,48.04c3-4.28,9.4-6.14,14.15-3.86C77.99,46.14,73.53,47.43,68.51,48.04L68.51,48.04z"/>
	</g>
	<g>
		<path class="st13" d="M89.76,22.18c-0.6,3.94-1.88,7.52-0.83,11.5C85.13,30.95,86.48,24.8,89.76,22.18L89.76,22.18z"/>
	</g>
	<path class="st14" d="M45.13,52.99c0.48-0.25,1.01-0.42,1.58-0.49c0.47-0.05,0.94,0.01,1.41-0.1c0.83-0.18,1.47-0.61,2-1.27
		c0.58-0.73,0.81-1.76,0.47-2.62c-0.35-0.86-1.33-1.47-2.23-1.26c-0.91,0.21-1.53,1.32-1.13,2.16c-0.8-0.85-0.67-2.33,0.13-3.19
		c0.8-0.85,2.11-1.11,3.25-0.84c1.75,0.41,3.13,1.97,3.46,3.74s-0.33,3.65-1.58,4.94c-1.38,1.41-3.52,2.23-5.5,2.07
		c-1.87-0.15-3.72,0.59-4.45,2.47C42.05,56.38,43.18,54.01,45.13,52.99z"/>
</g>
</svg>
