<?xml version="1.0" encoding="utf-8"?>
<!-- Generator: Adobe Illustrator 27.0.1, SVG Export Plug-In . SVG Version: 6.00 Build 0)  -->
<svg version="1.1" id="Layer_1" xmlns="http://www.w3.org/2000/svg" xmlns:xlink="http://www.w3.org/1999/xlink" x="0px" y="0px"
	 viewBox="0 0 328.65 345.43" style="enable-background:new 0 0 328.65 345.43;" xml:space="preserve">
<style type="text/css">
	.st0{fill:#0A2B17;}
	.st1{fill:#0E8042;}
	.st2{fill:#FFFFFF;}
	.st3{fill:#1A3826;}
	.st4{fill:#3D1947;}
	.st5{fill:#ECA45C;}
	.st6{fill:#D53D3D;}
	.st7{clip-path:url(#SVGID_00000102512636017494638660000007587601042918978468_);}
	.st8{fill:#802420;}
	.st9{fill:#8C5443;}
	.st10{fill:#3C1948;}
	.st11{fill:none;stroke:#3C1948;stroke-linecap:round;stroke-linejoin:round;stroke-miterlimit:10;}
	.st12{clip-path:url(#SVGID_00000068637162121366303230000011364836493373779862_);}
	.st13{fill:#802421;}
	.st14{opacity:0.29;fill:#92C9E0;}
	.st15{clip-path:url(#SVGID_00000027597010877961150810000005250079232294550430_);fill:#FFFFFF;}
	.st16{clip-path:url(#SVGID_00000027597010877961150810000005250079232294550430_);fill:#D9807E;}
	.st17{opacity:0.29;fill:#92C9E0;stroke:#FFFFFF;stroke-width:5;stroke-miterlimit:10;}
	.st18{opacity:0.29;fill:#92C9E0;stroke:#FFFFFF;stroke-miterlimit:10;}
	.st19{opacity:0.29;fill:#92C9E0;stroke:#FFFFFF;stroke-width:3;stroke-miterlimit:10;}
	.st20{fill:#934F3E;}
	.st21{clip-path:url(#SVGID_00000145033481695734564320000017086094321740031932_);fill:#41164A;}
	.st22{clip-path:url(#SVGID_00000151515063064154314220000001582572320688091294_);fill:#41164A;}
	.st23{clip-path:url(#SVGID_00000151516499199696063620000000346696821764546221_);fill:#FFFFFF;}
	.st24{clip-path:url(#SVGID_00000151516499199696063620000000346696821764546221_);fill:#41164A;}
	.st25{fill:#41164A;}
	.st26{clip-path:url(#SVGID_00000140693612193582724150000008801843556287515786_);fill:#FFFFFF;}
	.st27{clip-path:url(#SVGID_00000140693612193582724150000008801843556287515786_);fill:#E47D7A;}
	.st28{fill:none;}
	.st29{fill:#E09F9E;}
	.st30{fill:#CB8080;}
	.st31{clip-path:url(#SVGID_00000123419115254176827700000010591857079623855512_);fill:#E09F9E;}
	.st32{fill:#3C1947;}
	.st33{fill:#EAC5B1;}
	.st34{clip-path:url(#SVGID_00000023971844680197904760000013334813539125871788_);fill:#CB8080;}
	.st35{fill:#0B8043;}
	.st36{fill:#DBDBDA;}
	.st37{clip-path:url(#SVGID_00000030476842291876828380000008477471178047511978_);fill:#C2C1C1;}
	.st38{clip-path:url(#SVGID_00000011022911200768850460000008722053734926172086_);fill:#C2C1C1;}
	.st39{clip-path:url(#SVGID_00000111873785260266768350000011961395649885573015_);}
	.st40{fill:#C2C1C1;}
	.st41{clip-path:url(#SVGID_00000130632513353845280520000008300646953581782971_);fill:#C2C1C1;}
	.st42{clip-path:url(#SVGID_00000049219233859152181850000006384899608053775510_);fill:#C2C1C1;}
	.st43{clip-path:url(#SVGID_00000129199829000109854470000007913697523651478174_);fill:#0B8043;}
	.st44{clip-path:url(#SVGID_00000064314428866590180750000008224223154896426915_);fill:#0B8043;}
	.st45{fill:#A55933;}
	.st46{fill:#803C26;}
	.st47{fill:#C64B45;}
	.st48{fill:#8B3A37;}
	.st49{clip-path:url(#SVGID_00000077283541211473649830000005132118682730109067_);}
	.st50{clip-path:url(#SVGID_00000043446385013800679030000001922523202107641238_);}
	.st51{clip-path:url(#SVGID_00000129908280441002734940000006119104873221159857_);}
	.st52{clip-path:url(#SVGID_00000014604415956395122530000006085597547539633796_);}
	.st53{clip-path:url(#SVGID_00000176721772665592896510000007238102680773198742_);}
	.st54{clip-path:url(#SVGID_00000143588685027750602300000012963339002705578662_);}
	.st55{clip-path:url(#SVGID_00000134963321500892619650000005037280749554847133_);fill:#41164A;}
	.st56{clip-path:url(#SVGID_00000168839291660223398520000004012370669346159029_);fill:#41164A;}
	.st57{clip-path:url(#SVGID_00000153695101779812872970000017753731494355186053_);fill:#FFFFFF;}
	.st58{clip-path:url(#SVGID_00000153695101779812872970000017753731494355186053_);fill:#41164A;}
	.st59{clip-path:url(#SVGID_00000125598065692716985580000007255944532931361445_);fill:#FFFFFF;}
	.st60{clip-path:url(#SVGID_00000125598065692716985580000007255944532931361445_);fill:#E47D7A;}
	.st61{fill:#C28F5D;}
	.st62{fill:#375A42;}
	.st63{clip-path:url(#SVGID_00000180353845423944935180000005360556458125220795_);fill:#6AA17A;}
	.st64{clip-path:url(#SVGID_00000007412531836722191170000012893301658535044738_);fill:#6AA17A;}
	.st65{fill:#6AA17A;}
	.st66{clip-path:url(#SVGID_00000152949451274038182040000004865140698067034544_);fill:#3D1947;}
	.st67{clip-path:url(#SVGID_00000067208593403324920610000013068999389008390047_);fill:#8B3A37;}
	.st68{clip-path:url(#SVGID_00000043435274976710285400000005878931988018982565_);}
	.st69{clip-path:url(#SVGID_00000085955800949924310610000013868526760022263178_);fill:#FFFFFF;}
	.st70{clip-path:url(#SVGID_00000085955800949924310610000013868526760022263178_);fill:#D9807E;}
	.st71{clip-path:url(#SVGID_00000083784907328800418700000007261651918701589120_);fill:#41164A;}
	.st72{clip-path:url(#SVGID_00000145768049239522992080000010724347406407670430_);fill:#41164A;}
	.st73{clip-path:url(#SVGID_00000100361383254447508580000007119977471484276382_);fill:#FFFFFF;}
	.st74{clip-path:url(#SVGID_00000100361383254447508580000007119977471484276382_);fill:#41164A;}
	.st75{clip-path:url(#SVGID_00000118372178674896998190000001243669161860860322_);fill:#FFFFFF;}
	.st76{clip-path:url(#SVGID_00000118372178674896998190000001243669161860860322_);fill:#E47D7A;}
	.st77{fill:#D2687C;}
	.st78{clip-path:url(#SVGID_00000077323900206788746230000000267189343084162177_);fill:#C64B45;}
	.st79{fill:#D1544C;}
	.st80{clip-path:url(#SVGID_00000008116595213238329550000017436760724593008537_);}
	.st81{clip-path:url(#SVGID_00000041270762636196183280000014120309085404138633_);}
	.st82{fill:#DADAD9;}
	.st83{clip-path:url(#SVGID_00000062184655453188339540000005858507051706734722_);fill:#0E8042;}
	.st84{clip-path:url(#SVGID_00000062184655453188339540000005858507051706734722_);fill:#1A3826;}
	.st85{clip-path:url(#SVGID_00000105405942744425188790000007711740550250967684_);fill:#0E8042;}
	.st86{clip-path:url(#SVGID_00000105405942744425188790000007711740550250967684_);fill:#1A3826;}
	.st87{fill:none;stroke:#0E8042;stroke-linecap:round;stroke-linejoin:round;stroke-miterlimit:10;}
	.st88{clip-path:url(#SVGID_00000066477011930123857430000003639240842108210826_);}
	.st89{clip-path:url(#SVGID_00000135688409724801785550000012969391653324660117_);fill:#0E8042;}
	.st90{clip-path:url(#SVGID_00000138538929632874373550000015291161590718492848_);fill:#0E8042;}
	.st91{clip-path:url(#SVGID_00000138538929632874373550000015291161590718492848_);fill:#1A3826;}
	.st92{clip-path:url(#SVGID_00000074402729624777452670000018202736574979850168_);fill:#0E8042;}
	.st93{clip-path:url(#SVGID_00000074402729624777452670000018202736574979850168_);fill:#1A3826;}
	.st94{clip-path:url(#SVGID_00000111873969392512356360000005238215260000104866_);fill:#0E8042;}
	.st95{clip-path:url(#SVGID_00000111873969392512356360000005238215260000104866_);fill:#1A3826;}
	.st96{clip-path:url(#SVGID_00000096779021816917147590000007790703773955163544_);fill:#0E8042;}
	.st97{clip-path:url(#SVGID_00000096779021816917147590000007790703773955163544_);fill:#1A3826;}
	.st98{clip-path:url(#SVGID_00000116919794358059674240000008483734989634723749_);}
	.st99{clip-path:url(#SVGID_00000057861504512414713340000001203452694114927512_);fill:#0E8042;}
	.st100{clip-path:url(#SVGID_00000057861504512414713340000001203452694114927512_);fill:#1A3826;}
	.st101{clip-path:url(#SVGID_00000176043975165205417780000009603739318736091788_);}
	.st102{clip-path:url(#SVGID_00000070810211017287378040000016072530726760680108_);fill:#FFFFFF;}
	.st103{clip-path:url(#SVGID_00000070810211017287378040000016072530726760680108_);fill:#D9807E;}
	.st104{clip-path:url(#SVGID_00000137850873632815820910000013072034105139668098_);fill:#41164A;}
	.st105{clip-path:url(#SVGID_00000142148180277078991830000016207714933784614798_);fill:#41164A;}
	.st106{clip-path:url(#SVGID_00000090257981404179082760000013139899757811341471_);fill:#FFFFFF;}
	.st107{clip-path:url(#SVGID_00000090257981404179082760000013139899757811341471_);fill:#41164A;}
	.st108{clip-path:url(#SVGID_00000125600093515268471790000007520414540232574605_);fill:#FFFFFF;}
	.st109{clip-path:url(#SVGID_00000125600093515268471790000007520414540232574605_);fill:#E47D7A;}
	.st110{clip-path:url(#SVGID_00000103953612444750307460000014961074861534834335_);fill:#E09F9E;}
	.st111{clip-path:url(#SVGID_00000005970452964440988950000015324061984352769938_);fill:#CB8080;}
	.st112{clip-path:url(#SVGID_00000072278912704416380980000017995594825024385963_);fill:#C2C1C1;}
	.st113{clip-path:url(#SVGID_00000097473830513803110830000015057924307474205616_);fill:#C2C1C1;}
	.st114{clip-path:url(#SVGID_00000052794880519685597760000005819160264537625776_);}
	.st115{clip-path:url(#SVGID_00000068676744454038707210000014943285166595130013_);fill:#C2C1C1;}
	.st116{clip-path:url(#SVGID_00000096038028160750500380000017465991359901206155_);fill:#C2C1C1;}
	.st117{clip-path:url(#SVGID_00000121964087704148378120000003602060370622579585_);fill:#0B8043;}
	.st118{clip-path:url(#SVGID_00000148626911231731722590000000733066503542269082_);fill:#0B8043;}
	.st119{clip-path:url(#SVGID_00000067228511445684109540000016657979241939232174_);}
	.st120{clip-path:url(#SVGID_00000095336865703392130400000006919482793350441346_);}
	.st121{clip-path:url(#SVGID_00000067208845020073725780000014255027481388687279_);}
	.st122{clip-path:url(#SVGID_00000173853699904317479740000012024682712043406723_);}
	.st123{clip-path:url(#SVGID_00000099634070320241639370000005174798960349774780_);}
	.st124{clip-path:url(#SVGID_00000046329778556476184060000001753516685399123334_);}
	.st125{clip-path:url(#SVGID_00000121986825107778319500000002334800665418973109_);fill:#0E8042;}
	.st126{clip-path:url(#SVGID_00000121986825107778319500000002334800665418973109_);fill:#1A3826;}
	.st127{clip-path:url(#SVGID_00000039110414688540279150000010694906844477765267_);}
	.st128{clip-path:url(#SVGID_00000155106551933847296960000007784784647485649328_);fill:#FFFFFF;}
	.st129{clip-path:url(#SVGID_00000155106551933847296960000007784784647485649328_);fill:#D9807E;}
	.st130{clip-path:url(#SVGID_00000067952520955124699500000016814170095332811661_);fill:#41164A;}
	.st131{clip-path:url(#SVGID_00000076577186250275729960000009892467587414917267_);fill:#41164A;}
	.st132{clip-path:url(#SVGID_00000127037440313302091350000009104090454794661772_);fill:#FFFFFF;}
	.st133{clip-path:url(#SVGID_00000127037440313302091350000009104090454794661772_);fill:#41164A;}
	.st134{clip-path:url(#SVGID_00000057852540189788613160000007639775150704396443_);fill:#FFFFFF;}
	.st135{clip-path:url(#SVGID_00000057852540189788613160000007639775150704396443_);fill:#E47D7A;}
	.st136{clip-path:url(#SVGID_00000067222262098768130140000011585805617599332227_);fill:#C64B45;}
	.st137{clip-path:url(#SVGID_00000135680008633138601700000011355009716555562120_);}
	.st138{clip-path:url(#SVGID_00000134221099175247137380000001952698740897160590_);}
	.st139{clip-path:url(#SVGID_00000178901267989449053090000000444847097554225821_);fill:#0E8042;}
	.st140{clip-path:url(#SVGID_00000178901267989449053090000000444847097554225821_);fill:#1A3826;}
	.st141{clip-path:url(#SVGID_00000053535742518031518650000013100598933538913955_);fill:#0E8042;}
	.st142{clip-path:url(#SVGID_00000053535742518031518650000013100598933538913955_);fill:#1A3826;}
	.st143{clip-path:url(#SVGID_00000129183122015835806750000006348676759816443551_);fill:#0E8042;}
	.st144{clip-path:url(#SVGID_00000129183122015835806750000006348676759816443551_);fill:#1A3826;}
	.st145{clip-path:url(#SVGID_00000083791625063969534180000008723351023273420733_);}
	.st146{clip-path:url(#SVGID_00000001661161486476013430000003507726971013135540_);}
	.st147{clip-path:url(#SVGID_00000175286680226789313920000014484768157731064458_);}
	.st148{clip-path:url(#SVGID_00000052788458985066616090000018164783058504232592_);}
	.st149{clip-path:url(#SVGID_00000005978605996184690220000017833710027208406914_);}
	.st150{clip-path:url(#SVGID_00000038410021595629215110000016724024066085559185_);}
	.st151{clip-path:url(#SVGID_00000000943408231612645270000010502816359945578123_);fill:#FFFFFF;}
	.st152{clip-path:url(#SVGID_00000000943408231612645270000010502816359945578123_);fill:#8B3A37;}
	.st153{fill:#DF9E9E;}
	.st154{fill:#C98080;}
	.st155{fill:#DFD5E2;}
	.st156{clip-path:url(#SVGID_00000112614305534602262050000014068007094844495786_);fill:#DF9E9E;}
	.st157{fill:#E9C4B0;}
	.st158{clip-path:url(#SVGID_00000154394034000515202550000010233025900359911053_);fill:#C98080;}
	.st159{clip-path:url(#SVGID_00000175289605320408072450000017311045362475300019_);fill:#C1C0C0;}
	.st160{clip-path:url(#SVGID_00000057828833325568104610000013551741173251057820_);fill:#C1C0C0;}
	.st161{clip-path:url(#SVGID_00000129911542828101738910000012918547080951045806_);}
	.st162{fill:#C1C0C0;}
	.st163{clip-path:url(#SVGID_00000135651311310539249020000006371461412343703228_);fill:#C1C0C0;}
	.st164{clip-path:url(#SVGID_00000085973200121303919920000004214805005633787318_);fill:#C1C0C0;}
	.st165{clip-path:url(#SVGID_00000058555030518813419960000014781597238290324658_);fill:#0E8042;}
	.st166{clip-path:url(#SVGID_00000145765475805357875380000012221540638268026003_);fill:#0E8042;}
	.st167{fill:#7F2420;}
	.st168{clip-path:url(#SVGID_00000087394122844055417250000005471121980208548779_);fill:#FFFFFF;}
	.st169{clip-path:url(#SVGID_00000087394122844055417250000005471121980208548779_);fill:#D8807E;}
	.st170{fill:#7F2421;}
	.st171{clip-path:url(#SVGID_00000001643223380827714910000001912494946438409882_);fill:#ECA45C;}
	.st172{clip-path:url(#SVGID_00000088094333885499763870000005947613204381321638_);fill:#0E8042;}
	.st173{clip-path:url(#SVGID_00000088094333885499763870000005947613204381321638_);fill:#1A3826;}
	.st174{clip-path:url(#SVGID_00000072255132652472855740000003195438024035242912_);fill:#0E8042;}
	.st175{clip-path:url(#SVGID_00000072255132652472855740000003195438024035242912_);fill:#1A3826;}
	.st176{clip-path:url(#SVGID_00000016067839189660445460000008231820591289835452_);fill:#0E8042;}
	.st177{clip-path:url(#SVGID_00000016067839189660445460000008231820591289835452_);fill:#1A3826;}
	.st178{clip-path:url(#SVGID_00000068674163289933323380000009136321369858531725_);fill:#0E8042;}
	.st179{clip-path:url(#SVGID_00000068674163289933323380000009136321369858531725_);fill:#1A3826;}
	.st180{clip-path:url(#SVGID_00000103234311688699951720000001689011800852428977_);fill:#0E8042;}
	.st181{clip-path:url(#SVGID_00000103234311688699951720000001689011800852428977_);fill:#1A3826;}
	.st182{clip-path:url(#SVGID_00000107568780009497690640000007763941713241276324_);fill:#0E8042;}
	.st183{clip-path:url(#SVGID_00000107568780009497690640000007763941713241276324_);fill:#1A3826;}
	.st184{clip-path:url(#SVGID_00000180349001597112050890000009202707651718331819_);fill:#0E8042;}
	.st185{clip-path:url(#SVGID_00000180349001597112050890000009202707651718331819_);fill:#1A3826;}
	.st186{clip-path:url(#SVGID_00000162352576426648593860000010029759311992052868_);fill:#0E8042;}
	.st187{clip-path:url(#SVGID_00000162352576426648593860000010029759311992052868_);fill:#1A3826;}
	.st188{clip-path:url(#SVGID_00000091003344087919421860000010616592857704574879_);fill:#0E8042;}
	.st189{clip-path:url(#SVGID_00000091003344087919421860000010616592857704574879_);fill:#1A3826;}
	.st190{clip-path:url(#SVGID_00000059299319764178709680000009736091992996612543_);fill:#0E8042;}
	.st191{clip-path:url(#SVGID_00000059299319764178709680000009736091992996612543_);fill:#1A3826;}
	.st192{clip-path:url(#SVGID_00000047029239293157521220000010602367435045490620_);fill:#0E8042;}
	.st193{clip-path:url(#SVGID_00000047029239293157521220000010602367435045490620_);fill:#1A3826;}
	.st194{clip-path:url(#SVGID_00000067949654511282988610000016416579142971206285_);fill:#0E8042;}
	.st195{clip-path:url(#SVGID_00000067949654511282988610000016416579142971206285_);fill:#1A3826;}
	.st196{clip-path:url(#SVGID_00000072258585554312450530000002880715078767427504_);fill:#0E8042;}
	.st197{clip-path:url(#SVGID_00000072258585554312450530000002880715078767427504_);fill:#1A3826;}
	.st198{clip-path:url(#SVGID_00000031200938223862694620000009337405203431905707_);}
	.st199{clip-path:url(#SVGID_00000140012875438660749010000016488711299194510745_);fill:#FFFFFF;}
	.st200{clip-path:url(#SVGID_00000140012875438660749010000016488711299194510745_);fill:#D9807E;}
	.st201{clip-path:url(#SVGID_00000156567414415115332180000011592543303752309176_);fill:#41164A;}
	.st202{clip-path:url(#SVGID_00000121274850332736533040000004583209266452538281_);fill:#41164A;}
	.st203{clip-path:url(#SVGID_00000117647260299323877040000005996822144366593213_);fill:#FFFFFF;}
	.st204{clip-path:url(#SVGID_00000117647260299323877040000005996822144366593213_);fill:#41164A;}
	.st205{clip-path:url(#SVGID_00000056404177110475969130000012051831236458458558_);fill:#FFFFFF;}
	.st206{clip-path:url(#SVGID_00000056404177110475969130000012051831236458458558_);fill:#E47D7A;}
	.st207{clip-path:url(#SVGID_00000092416190027483606900000016177238378921791384_);fill:#C64B45;}
	.st208{clip-path:url(#SVGID_00000164475642174505787760000003479217095210211755_);}
	.st209{clip-path:url(#SVGID_00000133512575348826071510000001317973915513232785_);}
	.st210{clip-path:url(#SVGID_00000061433073730533044310000016840695737314652582_);fill:#6AA17A;}
	.st211{clip-path:url(#SVGID_00000119821312279555977370000011430419312171790499_);fill:#6AA17A;}
	.st212{clip-path:url(#SVGID_00000108302732307879057130000004694590277630918576_);fill:#3D1947;}
	.st213{clip-path:url(#SVGID_00000047023803480054648660000005501751327565105334_);fill:#8B3A37;}
	.st214{clip-path:url(#SVGID_00000034081245037403270790000017027170378617042320_);}
	.st215{clip-path:url(#SVGID_00000124159515323482244650000010981189375950041490_);}
	.st216{clip-path:url(#SVGID_00000050651415745865528290000007068189667308834721_);}
	.st217{clip-path:url(#SVGID_00000014593484028280586370000012169732656736917633_);}
	.st218{clip-path:url(#SVGID_00000091733351253323672800000011380758880341253516_);}
	.st219{clip-path:url(#SVGID_00000158720893809651071730000008870079143027915188_);}
	.st220{clip-path:url(#SVGID_00000068655055877551660090000017687831700885601932_);fill:#FFFFFF;}
	.st221{clip-path:url(#SVGID_00000068655055877551660090000017687831700885601932_);fill:#8B3A37;}
	.st222{clip-path:url(#SVGID_00000001640735528492737670000012998381409614980518_);fill:#DF9E9E;}
	.st223{clip-path:url(#SVGID_00000076566624935806615710000002869563293709819578_);fill:#C98080;}
	.st224{clip-path:url(#SVGID_00000083769308977301457370000004977091514408786567_);fill:#C1C0C0;}
	.st225{clip-path:url(#SVGID_00000002342246274458924090000006674194821319035820_);fill:#C1C0C0;}
	.st226{clip-path:url(#SVGID_00000168805912248504462330000000052611307404106685_);}
	.st227{clip-path:url(#SVGID_00000095333900221003726470000013337870984327711933_);fill:#C1C0C0;}
	.st228{clip-path:url(#SVGID_00000021100875257495193770000004629868801945321629_);fill:#C1C0C0;}
	.st229{clip-path:url(#SVGID_00000170985775149278701020000017005555198259715721_);fill:#0E8042;}
	.st230{clip-path:url(#SVGID_00000068674831642517824130000001967032223929335698_);fill:#0E8042;}
	.st231{clip-path:url(#SVGID_00000124153017045645578470000010121211289919215264_);fill:#FFFFFF;}
	.st232{clip-path:url(#SVGID_00000124153017045645578470000010121211289919215264_);fill:#D8807E;}
	.st233{clip-path:url(#SVGID_00000124139977430072462340000012670015251486174371_);fill:#ECA45C;}
</style>
<g>
	<path class="st5" d="M124.5,236.23c-0.07-0.95-2.06-31.32-10.71-48.56L124.5,236.23z"/>
	<path class="st47" d="M53.38,281.03c-1.69-0.68-3.88-1.35-5.37,0.02c-0.86,0.79-1.2,2.1-0.84,3.21c-1.26-0.6-2.87-0.34-3.88,0.63
		s-1.34,2.56-0.81,3.85c-1.51,0.54-2.81,1.61-3.64,2.98c-0.25,0.42-0.47,0.89-0.49,1.38c-0.07,1.19,1.51,2.59,2.53,3
		c1.03,0.41,2.19,0.42,3.3,0.32c7.11-0.6,13.72-5.28,16.66-11.78c0.61-1.35,1.24-3.51,0.06-4.75c-0.97-1.02-3.57-1.07-4.8-0.63
		c-0.96,0.34-1.78,1.05-2.25,1.95C53.69,281.16,53.54,281.1,53.38,281.03z"/>
	<path class="st1" d="M52.24,287.2c-0.08,1.45-0.92,2.85-2.17,3.59c-1.25,0.75-2.88,0.83-4.19,0.2c-0.57,1.27-1.96,2.13-3.35,2.06
		c-1.25-0.06-1.73-0.78-2.64-1.44c-1.01-0.73-1.36-0.74-2.77-0.97c-2.32-0.37-4.61-1.31-6.99-0.86c-3.72,0.7-5.45,4.01-7.5,6.74
		c-2.14,2.85-6.36,4.94-9.33,6.89c-5.06,3.34-10.65,6.9-12.59,12.65c-1.33,3.95-0.65,8.36,1.01,12.19s4.21,7.19,6.74,10.51
		c1.52,2,3.1,4.04,5.22,5.38c2.13,1.34,4.97,1.84,7.15,0.61c1.85-1.05,2.9-3.12,3.37-5.19c0.47-2.07,0.46-4.22,0.77-6.33
		c1.02-6.91,5.33-12.83,9.52-18.43c2.92-3.9,6-7.95,10.38-10.08c3.78-1.84,8.11-2.05,12.28-2.64c6.57-0.92,12.99-2.86,18.97-5.72
		c4.57-2.18,7.05-4.7,9.51-8.96c1.13-1.95,3.41-3.47,5.02-5.14c1.83-1.9,3.52-3.94,4.88-6.2c2.56-4.26,3.89-9.5,2.51-14.28
		c-0.76-2.64-2.63-5.24-5.34-5.67c-2.53-0.4-4.91,1.17-6.99,2.66c-7.25,5.2-14.49,10.31-21.56,15.68c-1.14,0.87-2.28,1.73-3.42,2.6
		c-0.77,0.59-2.91,1.65-3.29,2.52c-0.72,1.66,0.67,3.53-0.66,5.45C55.78,286.48,53.99,287.34,52.24,287.2z"/>
	<path class="st1" d="M106.74,283.04c-0.75,0.25-1.51,0.48-2.29,0.68c-3.67,0.94-9.24,1.86-12.14-1.32
		c-1.91-2.09-1.98-5.38-0.89-7.99c1.1-2.61,3.15-4.68,5.22-6.62c8.85-8.31,18.73-15.52,29.35-21.39c4.13-2.28,8.74-4.43,13.38-3.6
		c8.94,1.6,11.16,12.3,5.09,18.35c-2.58,2.58-6.15,3.85-9.43,5.45c-6.17,3-11.6,7.31-17.39,10.99
		C114.23,279.77,110.6,281.75,106.74,283.04z"/>
	<path class="st62" d="M175.04,122c1.27,0.28,2.56,0.79,3.39,1.8c1.18,1.43,1.16,3.47,1.66,5.26c0.64,2.3,2.17,4.22,3.49,6.21
		c1.32,1.99,2.48,4.27,2.24,6.64c-0.25,2.49-2.01,4.57-3.9,6.22c-0.89,0.78-1.86,1.53-3,1.85c-1.45,0.41-3.02,0.09-4.42-0.47
		c-2.74-1.09-5.07-3.05-6.98-5.29c-1.91-2.24-3.45-4.78-4.96-7.31c-0.89-1.5-1.54-2.96-2.15-4.57c-0.56-1.48-1.98-2.82-2.98-4.07
		c-0.38-0.47-0.76-0.96-0.97-1.53c-0.21-0.57-0.22-1.24,0.11-1.75c0.49-0.73,1.49-0.86,2.37-0.91c1.69-0.11,3.39-0.18,5.07-0.33
		c1.33-0.12,2.64-0.84,3.92-1.25C170.23,121.74,172.67,121.49,175.04,122z"/>
	<path class="st1" d="M262.08,66.76c3.23-2.31,6.44-4.65,9.52-7.16c2.98-2.44,5.35-5.39,8.27-7.87c0.73-0.62,1.47-1.12,2.09-1.88
		c0.15-0.18,1.57-2.3,1.47-2.34c1,0.39,2.18,0.24,3.06-0.38c0.87-0.62,1.41-1.69,1.37-2.76c1.28-0.06,2.45-0.16,3.7-0.46
		c1.13-0.27,2.25-0.6,3.34-1c1.11-0.41,2.2-0.9,3.24-1.46c0.54-0.29,1.06-0.59,1.58-0.92c0.25-0.16,1.17-0.99,1.43-0.96
		c2.91,0.38,5.75,1.23,8.39,2.51c-1.35,0.94-2.7,1.87-4.06,2.81c-0.43,0.3-0.91,0.74-0.75,1.24c0.17,0.53,0.89,0.57,1.44,0.49
		c1.58-0.23,3.14-0.65,4.63-1.23c0.75-0.29,1.44-0.7,2.18-1c0.61-0.25,1.11-0.4,1.31-1.13c0.19-0.7-0.05-1.47-0.47-2.06
		c-0.42-0.59-1.01-1.04-1.59-1.49c-2.44-1.88-5.01-3.81-8.03-4.4c-0.59-0.12-1.23-0.19-1.72-0.55c-0.49-0.36-0.75-1.12-0.35-1.57
		c1.15-0.09,2.39-0.05,3.52-0.32c1-0.25,1.94-0.67,2.97-0.86c2.09-0.38,4.27-0.24,6.3,0.24c0.25,0.06,3.14,0.44,3.13,0.16
		c0.09,1.54,0.85,3.04,2.04,4.02c1.29,1.05,4.82,2.39,5.11-0.26c0.09-0.83-0.32-1.62-0.78-2.32c-1.27-1.96-2.93-3.74-4.85-5.08
		c-0.64-0.45-1.32-0.97-2.08-1.2c-0.73-0.22-1.54-0.44-2.29-0.52c-0.87-0.09-1.78-0.04-2.65-0.06c-0.93-0.02-1.92-0.13-2.84-0.03
		c-1.89,0.21-3.76,0.43-5.61,0.89c-1.14,0.28-2.31,0.64-3.48,0.5s-2.36-0.94-2.51-2.11c-0.15-1.18,0.77-2.2,1.62-3.04
		c1.59-1.57,3.34-3.22,5.55-3.57c1.13-0.18,2.29,0,3.44,0.04c2.85,0.1,5.73-0.71,8.11-2.28c2.73,1.55,5.97,2.19,9.09,1.8
		c0.58-0.07,1.16-0.19,1.67-0.47c0.51-0.28,0.93-0.76,1.03-1.33c0.27-1.63-1.95-1.84-3-2.23c-1.6-0.61-3.29-0.93-4.96-1.25
		c-3.99-0.76-8.16-1.51-12.07-0.39c-1.47,0.42-2.85,1.09-4.22,1.76c-2.22,1.08-4.44,2.17-6.66,3.25c-1.11,0.54-2.22,1.08-3.33,1.62
		c-0.74,0.36-1.93,1.01-2.76,0.61c-0.66-0.32-0.86-1.17-0.83-1.91c0.07-2.15,1.32-4.09,2.75-5.7s3.1-3.02,4.3-4.81
		c0.83-1.24,0.9-2.7,2.22-3.42c0.82-0.45,1.79-0.62,2.72-0.49c1.04,0.14,1.98,0.65,2.97,1c0.97,0.35,2.08,0.45,3.11,0.38
		c0.27-0.02,2.61-0.93,2.26-1.25c-2.52-2.31-5.81-4.26-9.29-4.6c-3.36-0.33-5.8,1.38-7.49,4.13c-2.78,4.54-5.2,8.32-8.06,12.8
		c-1.59,2.49-3.18,4.98-4.77,7.46c-0.73,1.15-1.96,2.01-2.92,0.59c-0.47-0.7-0.94-1.39-1.42-2.09c-0.23-0.33-0.46-0.7-0.45-1.1
		c0.01-0.32,0.18-0.6,0.34-0.87c0.26-0.44,0.52-0.88,0.79-1.32c0.09-0.15,0.18-0.31,0.32-0.43c0.43-0.39,1.11-0.28,1.67-0.11
		c0.56,0.17,1.19,0.36,1.7,0.07c0.33-0.19,0.53-0.56,0.58-0.94c0.11-0.81-0.63-1.43-1.09-2.04c-0.58-0.77-1.16-1.55-1.74-2.32
		c-0.39-0.52-0.82-1.07-1.43-1.3c-0.88-0.33-1.9,0.12-2.51,0.84c-0.61,0.72-0.89,1.64-1.15,2.54c-0.26,0.9-0.53,1.83-1.12,2.56
		c-0.53,0.67-1.28,1.12-1.95,1.64c-0.67,0.53-1.31,1.19-1.45,2.03c-0.12,0.71,0.13,1.44,0.53,2.05c0.4,0.6,0.93,1.1,1.43,1.62
		c1.35,1.38,2.53,2.93,3.48,4.61c0.84,1.5,2.09,2.86,2.19,4.66c0.11,1.99-1.09,3.81-2.36,5.34c-2.86,3.44-6.38,6.32-10.3,8.45
		c-2.07,1.12-4.26,2.07-6.37,3.11c0.72,1.11,1.18,2.43,1.03,3.75s-0.98,2.59-2.22,3.03c-1.25,0.44-2.83-0.17-3.28-1.41
		c0.84,1.81-0.34,4.25-2.28,4.72s-4.1-1.16-4.18-3.16c0-0.01-3.19,2.12-3.48,2.31c-11.18,7.15-22.06,14.75-33.19,21.99
		c-2.93,1.9-5.91,3.86-8,6.66c-2.09,2.8-3.12,6.65-1.71,9.83c1.86,4.19,7.31,5.75,11.77,4.68c4.46-1.08,8.13-4.12,11.63-7.08
		c2.71-2.29,7.24-4.73,5.29-9.06c3.04-0.3,5.83-2.44,6.92-5.3c2.19-0.05,4.35,0.36,6.06-1.06c1.99-1.66,3.97-3.35,5.96-5.01
		C252.9,73.24,257.51,70.03,262.08,66.76z"/>
	<path class="st4" d="M195.64,118.99c2.96-2.48,5.93-4.96,9.14-7.1c3.74-2.5,7.77-4.53,11.5-7.03s7.22-5.59,9.28-9.59
		c-2.55,0.9-5.17,1.81-7.87,1.75c-2.7-0.07-5.55-1.33-6.73-3.76c-0.28-0.58-0.46-1.22-0.49-1.87c-0.09-1.98,1.23-3.81,2.9-4.87
		c1.67-1.07,3.65-1.51,5.58-1.94c-5.08-1.15-10.48-0.89-15.42,0.76c-4.19,1.4-8,3.74-11.6,6.3c-6.34,4.51-12.17,9.75-17.33,15.57
		c-1.7,1.92-3.4,4.07-3.62,6.62c-0.22,2.54,1.06,4.95,2.44,7.09c1.55,2.41,5.26,9.45,8.91,8.74c2.17-0.42,4.47-3.29,6.1-4.65
		C190.83,123.01,193.23,121,195.64,118.99z"/>
	<path class="st48" d="M138.36,257.18c-0.73,3.09-0.18,6.45,1.48,9.15c8.12-4.69,16.25-9.38,24.38-14.07c1.71-0.9,3.23-2.07,5-2.82
		c-1.4-1.72-1.93-4.1-1.43-6.26c0.94,0.87,2.2,1.68,3.46,1.96c0.64,0.14,2.15,0.52,3.29,0.12c-1.21-1.28-2.02-2.95-2.25-4.69
		c1.14,0.95,2.66,1.43,4.14,1.3c3.03-0.25,4.09-2.33,4.88-4.94c1.81-5.95-1.19-12.09-5.16-16.43c-4.62-5.06-10.82-7.73-17.49-8.97
		c-0.4-0.07-0.8-0.14-1.21-0.19c-11.21-1.48-22.67-6.83-31.49-13.91c-4.05-3.26-7.77-7.07-12.17-9.74
		c8.65,17.24,10.64,47.61,10.71,48.58c1.84,0.75,3.84,1.09,5.82,1c-0.7,0.03-2.42,2-2.98,2.48c-0.92,0.78-1.85,1.36-2.93,1.96
		c-2.5,1.4-5.01,2.8-7.51,4.2c2.15,1.06,4.39,1.94,6.69,2.61c0.49,0.14,6.53,1.33,6.52,1.61c-0.14,3.75-0.27,7.5-0.39,11.25
		C132.6,259.97,135.47,258.57,138.36,257.18z"/>
	<path class="st47" d="M78.95,290.32c-0.65,3.08-0.79,6.42-1.44,9.5c9.65-2.98,18.98-6.98,27.8-11.88
		c3.68-2.04,7.27-4.28,10.51-6.97c1.6-1.33,3.12-2.76,4.47-4.34c1.04-1.21,1.66-2.48,2.82-3.59c-3.78-0.89-7.05-3.13-8.39-6.93
		c2.42,1.61,5.47,2.23,8.33,1.72c3.3-0.6,3.5-3.13,3.92-6c0.67-4.62,0.16-9.3-0.57-13.88c-0.98-6.19-1.57-12.44-2.27-18.66
		c-0.52-4.66-1.22-9.29-2.01-13.91c-1.62-9.52-3.98-19.03-8.33-27.7c-1.03-0.63-2.1-1.19-3.23-1.66
		c-5.91-2.51-12.48-0.07-17.75,3.58c-12.64,8.75-5.42,26.45-5.75,38.88c2.13-1.33,4.71-1.91,7.2-1.62
		c-5.08,3.49-6.89,8.92-6.8,14.88c0.05,2.91,0.43,5.8,0.76,8.68c0.41,3.54,0.83,7.38,2.17,10.7c-1.95-1.33-3.65-3.03-4.97-4.99
		c-0.01-0.02-4.65,2.23-4.98,2.43c-1.99,1.25-3.93,2.6-5.77,4.05c-3.78,2.96-7.24,6.34-10.29,10.05c3.88,0.55,7.75,1.11,11.63,1.66
		c-2.18,3.21-5.75,5.42-9.59,5.95c1.26,3.51,5.55,5.59,9.08,4.41c-2.21,2.94-4.43,5.89-6.64,8.83
		C72.22,292.45,75.58,291.38,78.95,290.32z"/>
	<path class="st1" d="M184.26,184.12c0.45,0.22,0.94,0.39,1.47,0.5c1.92,0.38,3.88,0.05,5.81-0.03c2.27-0.1,4.54-0.09,6.8,0.02
		c10.01,0.49,19.25,3.77,28.95,5.88c2.8,0.61,5.77,1.11,8.61,0.51c6.28-1.31,8.38-5.09,10.03-10.93c0.77-2.71,1.47-5.48,2.85-7.93
		s3.57-4.61,6.31-5.25c0.78-0.18,1.73-0.18,2.24,0.44c0.53,0.66,0.27,1.68-0.29,2.31c-0.56,0.63-1.34,1.02-2.01,1.53
		c-2.18,1.68-3.19,5.52-1.86,8.01c0.43,0.8,1.28,1.43,2.19,1.37c1.23-0.09,2.02-1.29,2.71-2.31c0.98-1.46,2.1-2.82,3.33-4.07
		c-0.23,0.77,0.29,1.86,0.98,2.25c0.9,0.51,2.15,0.16,2.75-0.68s0.57-2.04,0.03-2.92c0.85,0.49,1.85,0.77,2.82,0.65
		c0.97-0.12,1.92-0.68,2.37-1.55c0.45-0.87,0.33-2.04-0.39-2.71c2.22-0.65,4.38-1.13,6.7-1.19c1.13-0.03,2.26,0.02,3.38,0.16
		c0.54,0.06,3.05,0.18,3.32,0.65c1.18,0.32,2.36,0.76,3.26,1.59c0.9,0.82,1.45,2.12,1.12,3.29c-0.78,2.71-4.56,1.45-6.38,0.95
		c-2.68-0.75-5.7-1.29-8.38-0.25c-2.87,1.11-5.37,3.13-7.06,5.7c0.44-0.67,2.87-1.02,3.61-1.17c2.34-0.5,4.75-0.43,7.12-0.2
		c1.43,0.14,3.02,0.24,4.47,0.57c1.57,0.36,2.87,1.11,4.28,1.85c1.31,0.69,2.64,1.39,3.69,2.42c1.06,1.03,1.83,2.46,1.73,3.93
		c-0.07,1-0.72,2.08-1.71,2.15c-0.94,0.06-1.67-0.76-2.31-1.45c-2.1-2.25-4.95-3.77-7.98-4.28c-3.48-0.58-7.42,0.28-10.44,2.07
		c-0.74,0.44-1.32,0.85-2.09,1.66c2.63-1.37,6.12-1.62,9.04-1.36c1.37,0.12,2.74,0.23,4.04,0.73c2.11,0.82,4.04,2.14,5.51,3.87
		c0.76,0.89,1.43,1.95,1.48,3.12c0.06,1.17-0.69,2.44-1.85,2.63c-1.38,0.22-2.48-1.04-3.44-2.07c-2.01-2.16-4.76-3.78-7.71-3.89
		c-1.87-0.07-5.55,0.84-6.31,2.89c-0.77,2.08,3.97,2.21,5.48,2.88c1.96,0.87,8.23,1.74,7.89,4.85c-0.14,1.27-1.29,2.27-2.55,2.54
		c-1.25,0.27-2.56-0.07-3.73-0.6c-1.17-0.53-2.24-1.24-3.4-1.8c-1.39-0.66-3.02-1.08-4.45-0.5c-0.98,0.4-1.72,1.21-2.43,2
		c-2.03,2.27-3.89,5.32-6.87,6.24c-2.91,0.89-5.88,1.65-8.89,0.73c-2.54-0.78-5.09-2.23-7.46-3.42c0.26-1.89-0.19-4-1.66-5.21
		s-4.03-1.08-4.98,0.57c-1.07-1.56-3.27-2.23-5.02-1.52c-1.75,0.7-2.88,2.71-2.57,4.57c-0.02-0.1-6.95,0.7-7.48,0.78
		c-3.19,0.52-6.37,1.11-9.59,1.47c-11.81,1.3-24.19,0.96-35.03-4.46c-5.04-2.52-9.71-6.25-12.06-11.37
		c-2.35-5.12-1.87-11.77,2.16-15.71c2.84-2.77,7.9-3.74,11.47-1.84c2.31,1.23,3.34,3.88,4.49,6.07
		C181.36,181.62,182.52,183.26,184.26,184.12z"/>
	<path class="st47" d="M185.37,189.55c-0.62-0.86-1.79-1.45-2.86-1.38c-0.35,0.02-2.9,1.39-2.33,1.89c-1.24-1.08-3.2-1.33-4.57-0.43
		c-1.37,0.9-1.89,2.97-0.95,4.32c0.94,1.35,3.24,1.51,4.23,0.2c-0.42,0.77-0.26,1.76,0.23,2.5c0.49,0.73,1.24,1.24,2.02,1.65
		c1.64,0.86,3.45,1.34,5.25,1.81c1.89,0.5,4.52,0.98,5.67-1.09c0.7-1.27,0.49-2.61-0.91-3.03c-1.02-0.31-2.06-0.21-2.98-0.75
		c-0.92-0.54-1.47-1.36-1.74-2.39c-0.28-1.08-0.36-2.26-0.97-3.2C185.42,189.62,185.4,189.59,185.37,189.55z"/>
	<path class="st4" d="M177.42,118.81c-1.08,7.85,1.52,16.13,6.89,21.95c-2.46-1.33-4.92-2.67-7.38-4c2,3.14,1.96,7.46-0.1,10.57
		c-4.18-5.02-8.36-10.05-12.54-15.07c-2.39-2.87-5.02-5.9-8.64-6.79c-2.81-0.69-5.83,0.07-8.34,1.39c-3.25,1.7-6.48,4.07-8.38,7.27
		c-2.03,3.42-3.18,7.25-4.91,10.81c-1.93,3.96-4.42,7.62-7.08,11.12c-1.12,1.48-3.11,3.18-3.79,4.9c-0.79,2.01-0.34,4.27-0.63,6.34
		c0.09-0.65-1.8-1.58-2.34-1.59c-1-0.01-1.63,0.81-2.28,1.44c-2.39,2.3-2.58,3.28-1.69,6.35c-1.59,0.13-3.62-0.05-5.04,0.76
		c-1.16,0.66-2.2,2.16-3.27,3.02c-2.75,2.21-5.78,3.91-8.84,5.65c0.69,0.78,1.39,1.57,2.08,2.35c-1.28,0.56-2.85,0.42-4-0.36
		c-0.38-0.26-0.73-0.58-1.15-0.76c-0.82-0.34-5.88,1.49-6.15,0.84c1.19,2.81,3.4,5.15,6.11,6.55c3.05,1.57,6.21,1.47,9.42,0.38
		c-0.22,0.08-5.06,6.79-7.35,9.41c-0.58,0.66-1.16,1.32-1.73,1.98c5.07,0.96,10.14,1.93,15.21,2.89c0.42,4.54,0.84,9.09,1.26,13.63
		c4.77,0.6,9.78-1.19,13.09-4.66c0.68,0.74,1.31,1.49,1.8,2.37c0.18,0.33,0.41,1.43,0.8,1.58c0.61,0.24,3.43-3.09,3.26-3.41
		c0.81,1.73,0.53,3.93-0.7,5.4c1.49-0.69,2.99-1.37,4.48-2.06c-0.16,1.61-0.62,3.18-1.34,4.63c-0.5,1.01-1.8,2.13-2.01,3.2
		c-0.26,1.3,0.56,3.32,0.64,4.69c0.05,0.78,0.47,4.23-0.14,4.75c6.91-5.88,12.76-13,17.18-20.92c2.33,3.23,4.66,6.47,6.99,9.7
		c5.07-14.02,11.63-27.66,20-40c4.1-6.04,8.59-11.88,11.63-18.52c0.07-0.15,0.74-1.59,0.68-1.65c-1.4-1.34-2.8-2.68-4.21-4.01
		c2.54-0.06,5.04-1.19,6.77-3.06c-2.33-0.6-4.48-1.91-6.07-3.72c1.76,0.23,5.47-0.34,6.23-2.29c0.6-1.56-0.61-5.03-1.09-6.54
		C187.62,135.59,183.6,126.91,177.42,118.81z"/>
	<path class="st62" d="M206.76,192.51c1.18,0.64,2.37,1.34,3.69,1.56c1.11,0.19,2.25,0.02,3.38-0.03c1.29-0.06,2.62,0.04,3.79,0.59
		c1.17,0.55,2.16,1.6,2.36,2.88c0.2,1.28-0.57,2.71-1.82,3.02c-1.61,0.4-3.09-1-4.73-1.25c-1.52-0.23-3,0.55-4.39,1.2
		c-1.4,0.65-3.06,1.19-4.44,0.5c-1.53-0.76-2.01-3.05-0.91-4.35c-0.47,0.56-3.14-1.12-3.45-1.51c-0.58-0.73-0.83-1.69-0.27-2.49
		C201.58,190.32,204.8,191.45,206.76,192.51z"/>
	<path class="st62" d="M137.53,181.29c0.23-0.4,1.96,0.46,2.24,0.64c0.96,0.63,1.57,1.76,1.45,2.92c-1.78-0.7-3.95-0.29-5.34,1.01
		c1.02,0.26,3.72,1.04,3.86,2.33c0.05,0.43-0.21,0.83-0.51,1.14c-0.69,0.72-1.63,1.25-2.63,1.11c-0.63-0.09-2.29-0.56-2.54-1.24
		c0.41,1.15,0.25,2.49-0.42,3.51c-0.92,1.39-2.47,1.8-4.02,1.35c-1.13-0.33-2.43-1.12-3.37-1.82c-1.12-0.83-2.02-1.95-2.57-3.23
		c1.89-0.85,3.51-2.31,4.53-4.12c-1.41,0.14-2.91,0.11-4.16-0.56c-2.12-1.14-1.91-3.22-1.51-5.23c0.4-2.04,1.67-3.97,3.79-4.46
		c1.97-0.46,3.54,0.71,4.29,2.41c0.74-1.21,2.15-1.98,3.56-1.94c1.42,0.04,2.78,0.87,3.46,2.12
		C138.31,178.48,138.27,180.08,137.53,181.29z"/>
	<path class="st5" d="M170.88,84.16c4.05,1.35,8.51,1.11,12.65,0.07c1.85-0.47,3.68-1.1,5.58-1.15c0.53-0.02,1.07,0.02,1.59,0.12
		l-0.36-3.21c-2.73-0.33-5.56,0.06-8.32-0.21c-4.43-0.44-8.6-2.76-11.48-6.13c-0.71-0.83-1.34-1.72-1.89-2.67
		c-0.45-0.77-0.76-2.26-1.38-2.84c-1.53-1.45-4.25,0.58-5.01,2.01c-0.87,1.65-0.81,3.67-0.26,5.45
		C163.24,79.69,166.84,82.81,170.88,84.16z"/>
	<path class="st61" d="M170.55,61.7c2.34,0.08,4.53,1.14,6.56,2.31c2.03,1.17,4.01,2.48,6.26,3.16c1.46,0.44,3.24,0.51,4.3-0.58
		c0.83-0.85,0.96-2.24,0.5-3.34c-0.45-1.1-1.4-1.94-2.44-2.52c-0.46-0.26-0.96-0.48-1.32-0.87c-0.36-0.39-0.53-1.02-0.23-1.45
		c0.28-0.41,0.85-0.49,1.34-0.48c3.15,0.05,6.11,2.48,6.78,5.56c0.67,3.08-1.02,6.51-3.87,7.86c-2.72,1.28-5.93,0.72-8.81-0.13
		c-2.88-0.85-5.79-1.97-8.79-1.72c-1.51,0.13-3.07,0.6-4.52,0.14c-1.59-0.5-2.98-2.4-2.47-4.06
		C164.61,63.06,168.14,61.62,170.55,61.7z"/>
	<path class="st61" d="M104.7,38.35c0.98-3.55,3.48-6.55,6.52-8.63s6.58-3.3,10.18-4.11c8.62-1.94,19.65-1.8,27.42,2.85
		c8.9,5.32,15.62,14.23,18.14,24.3c0.97,3.89,1.35,7.93,2.6,11.75c1.25,3.81,3.57,7.53,7.22,9.19c3.13,1.43,7.07,1.29,9.53,3.7
		c2.63,2.57,2.36,6.83,1.54,10.41s-2,7.41-0.61,10.81c1.34,3.28,4.78,5.32,6.23,8.55c1.25,2.79,0.73,6.28-1.27,8.59
		c-2,2.31-5.38,3.31-8.32,2.47c-1-0.29-0.29-1.18,0.37-1.98s1.71-1.16,2.55-1.75c2.32-1.64,2.87-4.98,2.13-7.73
		c-0.74-2.75-2.48-5.09-4.02-7.48c-1.54-2.39-2.95-5.05-2.88-7.9c0.08-3.08,1.9-6.1,1.15-9.09c-1.03-4.09-5.96-5.49-9.47-7.84
		c-3.8-2.53-6.24-6.64-8.09-10.81c-1.86-4.17-3.27-8.56-5.64-12.46c-3.26-5.37-8.42-9.68-14.47-11.38c-3.24-0.91-6.64-1.07-10-1.22
		c-4.36-0.2-8.72-0.4-13.07-0.6c-2.98-0.14-6.1-0.24-8.78,1.08c-1.55,0.77-2.91,2.01-4.61,2.35
		C107.33,41.77,104.24,40.02,104.7,38.35z"/>
	<path class="st5" d="M109.31,139.43c2.07,1.76,3.29,4.29,4.33,6.8c1.04,2.51,1.98,5.11,3.67,7.24c1.69,2.12,4.3,3.74,7,3.42
		c2.69-0.33,5.06-3.17,4.21-5.75c-0.9,1.81-2.92,3.01-4.95,2.94c-2.04-0.08-3.95-1.42-4.72-3.3c-1.14-2.77,0.19-6.07-0.9-8.87
		c-1.17-2.98-4.58-4.29-7.01-6.37c-3.09-2.64-4.71-6.89-4.17-10.91c0.55-4.02,3.25-7.68,6.93-9.39c0.8,7.25,1.71,14.81,5.78,20.86
		c1.89,2.82,4.46,5.18,7.39,6.89l1.67-2.82c-0.71-0.28-1.38-0.65-2-1.11c-3.53-2.62-4.13-7.57-4.44-11.95
		c-0.37-5.08-0.72-10.16-1.09-15.24c-0.34-4.81,0.7-9.05-0.7-13.66c-2.36-7.74-7.86-14.04-12.61-20.6
		c-4.73-6.56-8.98-14.23-8.16-22.28c0.05-0.47,0.11-0.94,0.19-1.4c0.55-3.08,1.88-6.02,3.79-8.5c0.96-1.23,2.05-2.37,3.27-3.35
		c1.41-1.13,3.07-1.52,4.77-2.1c0.66-0.23,1.35-0.46,1.9-0.89c0.56-0.43,0.98-1.1,0.91-1.81c-0.05-0.63-0.49-1.16-1.05-1.48
		c-0.2-0.11-0.4-0.19-0.62-0.25c-0.94-0.25-2.01-0.09-2.97-0.16c-1.09-0.07-2.3,0.2-3.36,0.45c-2.22,0.51-4.35,1.42-6.3,2.61
		c-3.97,2.41-7.2,5.86-10.12,9.46c-5.84,7.2-10.77,15.42-12.36,24.54c-1.6,9.13,0.61,19.26,7.3,25.67c3,2.88,6.72,4.88,10.17,7.22
		c3.92,2.66,7.57,5.44,7.18,10.79c-0.21,2.82-1.58,5.39-2.57,8.04c-0.99,2.65-1.57,5.72-0.26,8.23
		C101.33,136.03,106.19,136.77,109.31,139.43z"/>
	<path class="st1" d="M106.66,103.02c-0.02,0.25-0.04,0.5-0.02,0.75c0.08,1.06,0.69,1.99,1.35,2.82c0.66,0.82,1.41,1.6,1.86,2.56
		c0.75,1.6,0.24,3.39-1.12,4.45c-1.26,0.98-2.94,1.32-4.53,1.19c-1.59-0.13-3.11-0.71-4.56-1.39c-1.49-0.71-2.92-1.52-4.23-2.53
		c-1.35-1.04-2.47-2.31-3.65-3.54c0.1,0.13,1.51-1.34,1.64-1.6c0.38-0.72,0.48-1.58,0.11-2.33c-0.55-1.12-1.81-1.33-3.18-1.21
		c0.74-0.57,1.42-1.21,1.64-2.09c0.22-0.88-0.05-1.9-0.77-2.45c-0.72-0.55-1.88-0.49-2.45,0.22c1.65-3.7,5.41-4.49,9.05-3.54
		c2.99,0.78,8.74,3.24,8.99,6.87C106.86,101.81,106.72,102.41,106.66,103.02z"/>
	<path class="st47" d="M98.76,60.81c2-0.19,3.67-1.53,5.2-2.82c1.67-1.39,3.37-2.82,4.54-4.66c1.53-2.4,1.52-5.54,0.5-8.12
		c-1.07-2.71-3.72-5.6-6.92-4.87c-1.52,0.35-2.73,1.48-2.36,3.36c-1.41-0.53-3.16,0.26-3.68,1.66c-0.47,1.24,0.11,2.76,1.22,3.44
		c-0.52-0.15-1.04,0.02-1.52,0.25c-0.61,0.3-1.1,0.81-1.51,1.36c-1.41,1.92-1.91,4.54-1.04,6.76C94.06,59.41,96.4,61.04,98.76,60.81
		z"/>
	<path class="st1" d="M173.18,79.92c2.82,2.09,2.74,6.3,2.05,9.74c-0.4,1.99-0.89,4-0.9,6.04c-0.01,1.6,0.19,3.78,1.69,4.71
		c0.62,0.38,1.34,0.57,2.05,0.76c1.9,0.51,3.69,1.63,4.91,3.23c1.32,1.73,2.02,3.99,1.79,6.17c-0.35,3.34-4.29,4.83-6.45,7.4
		c-2.03,2.42-2.45,5.83-4.23,8.44c-1.4,2.04-3.49,3.23-5.69,4.21c0.72-0.63,0.55-1.86-0.06-2.59c-0.7-0.85-1.87-1.27-2.95-1.05
		c-1.07,0.21-2,1.05-2.32,2.1c0.02-1.13-0.75-2.23-1.82-2.58c-1.07-0.35-2.35,0.07-3,0.98c-0.66,0.93-0.6,2.2,0.03,3.13
		c-0.74-0.38-1.57-0.3-2.37-0.48c-1.23-0.28-2.44-0.69-3.64-1.06c-3.48-1.05-6.97-2.11-10.45-3.16c-5.55-1.68-11.63-3.76-14.51-8.8
		c-1.05-1.84-1.58-3.93-2.41-5.88c-0.38-0.88-0.82-1.76-1.41-2.53c-0.61-0.8-2.05-1.46-2.47-2.27c-0.75-1.46-0.44-4.16-1.05-5.86
		c-1.44-4.02-4.17-7.49-7.14-10.5c-4.45-4.5-9.64-8.37-13.12-13.66c-3.27-4.97-4.84-11.04-4.37-16.97c0.18-1.34,0.45-2.69,0.58-4.03
		c1.11,0.59,2.61,0.33,3.46-0.59c0.85-0.93,0.99-2.44,0.31-3.5c1.17,0.83,2.99,0.54,3.84-0.63s0.56-2.99-0.59-3.84
		c1.14,0.46,2.56,0.24,3.42-0.64c0.77-0.78,0.99-1.99,0.51-2.99c-0.23-0.48-0.61-0.89-1.09-1.14c-0.38-0.2-0.98-0.47-1.82-0.3
		c3.14-2.77,6.57-5.13,10.11-7.34c2.15-1.34,4.35-2.7,6.8-3.34c3.24-0.85,6.67-0.39,9.99,0.08c3.47,0.49,6.93,0.98,10.4,1.47
		c2.28,0.32,4.62,0.66,6.65,1.75c2.05,1.1,3.65,2.88,5.19,4.62c3.22,3.63,6.5,7.36,8.28,11.88c0.87,2.2,1.71,4.92,4,5.52
		c2.02,0.53,3.82-0.83,5.88,0.06c2.61,1.13,3.99,4.52,4.19,7.18c0.18,2.38-0.36,5.38-1.65,7.41c-0.61,0.97-1.56,1.8-2.66,2.16
		c-1.04,0.35-1.99,0.04-3.04,0.02c-1.86-0.02-3.09,0.73-2.1,2.68C167.23,78.38,171.18,78.44,173.18,79.92z"/>
	<path class="st5" d="M204.22,112.37c-0.22,0.85,0.43,1.76,1.26,2.04c0.83,0.29,1.76,0.07,2.54-0.32c1.67-0.83,2.89-2.53,3.15-4.38
		c0.26-1.85-0.43-3.81-1.8-5.08c-1.44-1.34-3.42-1.86-5.26-2.52c-1.84-0.68-3.76-1.7-4.51-3.52c-0.86-2.09,0.12-4.45,0.4-6.7
		c0.61-4.93-2.75-10.06-7.51-11.47c-0.71-0.2-1.42-0.34-2.14-0.42l0.36,3.21c1.38,0.27,2.66,0.91,3.43,2.05
		c1.45,2.12,0.64,4.96,0.52,7.52c-0.24,5.46,3.39,10.88,8.54,12.74c1,0.36,2.08,0.61,2.93,1.26c0.86,0.63,1.43,1.83,0.97,2.79
		C206.5,110.79,204.56,111.05,204.22,112.37z"/>
	<path class="st4" d="M161.05,61.7c1.6-2.37,1.07-5.86-0.55-8.09c-1.47-2.01-2.98-4.02-4.84-5.69c-1.95-1.76-5.49-4.19-8.29-3.35
		c-1.71,0.52-3.07,2.24-3.91,3.73c-2.22,3.95,0.06,8.27,2.95,11.11c2.02,1.98,4.29,3.86,7.02,4.6
		C156.17,64.74,159.46,64.04,161.05,61.7z"/>
	<path class="st2" d="M156.59,59.73c0.35-0.18,0.63-0.42,0.82-0.71c0.74-1.09,0.37-2.9-0.39-3.95c-1.11-1.52-2.21-2.98-3.53-4.17
		c-2.13-1.93-4.62-3.35-6.37-0.23c-1.44,2.57,1.14,5.41,1.97,6.22c1.29,1.27,2.85,2.63,4.62,3.1
		C154.69,60.24,155.79,60.15,156.59,59.73z"/>
	<path class="st4" d="M134.31,63.08c1.62,2.16,2.18,5.01,1.83,7.69c-0.57,4.31-3.51,8.24-7.48,9.99c-3.98,1.76-8.86,1.29-12.43-1.19
		c-2.36-1.64-4.16-4.17-4.64-7c-0.48-2.84,0.48-5.94,2.68-7.8c2.93-2.48,7.06-2.38,10.5-3.69c1.75-0.66,2.65-1.46,4.59-1.1
		C131.31,60.34,133.11,61.5,134.31,63.08z"/>
	<path class="st2" d="M127.45,76.72c2.29-1.21,3.99-3.63,4.32-6.17c0.28-2.11-0.42-4.23-2.39-5.27c-1.31-0.7-3.04-0.75-4.3,0.04
		c-1.12,0.7-2.28,1.52-3.6,1.51c-1.58-0.01-2.58-0.31-3.9,0.8c-1.13,0.96-1.7,2.69-1.43,4.31c0.27,1.61,1.34,3.2,2.86,4.26
		c2.29,1.59,5.41,1.89,7.96,0.76C127.14,76.88,127.3,76.8,127.45,76.72z"/>
	<path class="st4" d="M170.84,81.54c-1.53-0.63-3.28-0.49-4.87-0.03c-2.85,0.83-5.3,2.63-7.55,4.57
		c-6.38,5.49-11.61,12.33-15.24,19.93c-1.22,2.57-2.28,5.3-2.32,8.14c-0.04,2.84,1.12,5.84,3.52,7.37c1.79,1.14,4.03,1.34,6.15,1.23
		c3.9-0.21,7.74-1.36,11.11-3.35c1.88-1.11,3.6-2.46,5.53-3.47c3.57-1.87,7.79-2.54,10.92-5.09c0.96-0.78,1.81-1.75,2.23-2.92
		c0.43-1.16,0.39-2.54-0.3-3.57c-0.99-1.49-2.97-1.9-4.42-2.95c-1.81-1.3-2.71-3.58-2.87-5.8C172.42,91.31,176.58,83.9,170.84,81.54
		z"/>
	<g>
		<defs>
			<path id="SVGID_00000101086355517807702650000008419139931658582679_" d="M170.84,81.54c-1.53-0.63-3.28-0.49-4.87-0.03
				c-2.85,0.83-5.3,2.63-7.55,4.57c-6.38,5.49-11.61,12.33-15.24,19.93c-1.22,2.57-2.28,5.3-2.32,8.14
				c-0.04,2.84,1.12,5.84,3.52,7.37c1.79,1.14,4.03,1.34,6.15,1.23c3.9-0.21,7.74-1.36,11.11-3.35c1.88-1.11,3.6-2.46,5.53-3.47
				c3.57-1.87,7.79-2.54,10.92-5.09c0.96-0.78,1.81-1.75,2.23-2.92c0.43-1.16,0.39-2.54-0.3-3.57c-0.99-1.49-2.97-1.9-4.42-2.95
				c-1.81-1.3-2.71-3.58-2.87-5.8C172.42,91.31,176.58,83.9,170.84,81.54z"/>
		</defs>
		<clipPath id="SVGID_00000079458183779592382760000009080189699520759952_">
			<use xlink:href="#SVGID_00000101086355517807702650000008419139931658582679_"  style="overflow:visible;"/>
		</clipPath>
		<path style="clip-path:url(#SVGID_00000079458183779592382760000009080189699520759952_);fill:#FFFFFF;" d="M173.39,83.84
			c0.27,0.47,0.55,0.98,0.49,1.52c-0.07,0.69-0.76,1.26-1.46,1.19c-0.69-0.07-1.25-0.78-1.17-1.47c0.5,0.76,0.64,1.79,0.24,2.61
			s-1.38,1.36-2.27,1.14c-0.89-0.22-1.52-1.25-1.22-2.11c0.29,1.73-0.73,3.59-2.34,4.28c-0.47,0.2-0.99,0.3-1.49,0.19
			c-0.49-0.11-0.95-0.48-1.06-0.98c0.5,1.24-0.01,2.8-1.15,3.5c-1.14,0.7-2.77,0.44-3.64-0.57c0.39,0.49,0.33,1.22,0.02,1.77
			c-0.31,0.55-0.81,0.95-1.3,1.33c-0.65,0.51-1.41,1.06-2.23,0.93c-0.97-0.15-1.54-1.14-1.96-2.03c0.12,1.17-0.26,2.42-1.12,3.23
			c-0.85,0.82-2.19,1.14-3.28,0.68c-1.51-0.63-2.22-2.89-1.81-4.39c0.2-0.75,0.62-1.41,1.06-2.05c3.9-5.75,9.63-10.58,16.02-13.35
			c1.14-0.5,2.36-0.91,3.61-0.87C170.58,78.51,171.99,81.4,173.39,83.84z"/>
		<path style="clip-path:url(#SVGID_00000079458183779592382760000009080189699520759952_);fill:#8B3A37;" d="M143.26,113.93
			c0.89-2.04,2.67-3.66,4.78-4.38c2.08-0.7,4.33-0.53,6.52-0.59c2.19-0.07,4.54-0.46,6.1-2c0.63-0.62,1.09-1.4,1.67-2.07
			c1.84-2.13,4.98-3.03,7.68-2.2c1.04,0.32,2.04,0.9,2.68,1.78c0.76,1.05,0.95,2.43,0.74,3.71c-0.21,1.28-0.77,2.47-1.41,3.6
			c-3.57,6.3-9.75,11.06-16.74,12.92c-1.54,0.41-3.14,0.68-4.72,0.47c-2.25-0.31-4.2-1.59-5.93-2.98c-0.69-0.56-1.34-1.05-1.58-1.93
			c-0.25-0.94-0.44-1.97-0.46-2.94C142.57,116.16,142.79,114.99,143.26,113.93z"/>
		<path style="clip-path:url(#SVGID_00000079458183779592382760000009080189699520759952_);fill:#FFFFFF;" d="M145.98,118.91
			c0.06-0.02,0.12-0.05,0.18-0.07c0.53-0.18,1.12-0.26,1.65-0.08c0.53,0.18,0.98,0.68,0.98,1.24c0.05-0.62,0.52-1.18,1.12-1.35
			c0.89-0.25,1.42,0.32,1.9,0.95c0.72,0.95,1.45,2.01,1.42,3.2c-0.03,1.17-0.86,2.25-1.95,2.69c-1.09,0.44-2.37,0.27-3.39-0.32
			c-0.93-0.54-1.68-1.49-2.2-2.42c-0.29-0.52-0.48-1.06-0.6-1.63c-0.11-0.5-0.35-0.99-0.07-1.48
			C145.23,119.3,145.59,119.07,145.98,118.91z"/>
		<path style="clip-path:url(#SVGID_00000079458183779592382760000009080189699520759952_);fill:#FFFFFF;" d="M161.58,120.08
			c-0.02-0.35-0.18-0.71-0.33-0.99c-0.3-0.54-0.71-1.06-1.07-1.56c-0.28-0.38-0.58-0.75-0.9-1.1c-0.26-0.29-0.43-0.53-0.84-0.49
			c-0.56,0.06-1.25,0.56-1.49,1.06c-0.24,0.5-0.18,1.13,0.16,1.46c-0.21-0.32-0.59-0.52-0.97-0.45c-0.25,0.05-0.45,0.22-0.64,0.39
			c-0.49,0.43-1.29,0.95-1.5,1.6c-0.13,0.39,0.12,0.75,0.33,1.06c0.24,0.36,0.42,0.76,0.72,1.07c0.59,0.64,1.44,1.12,2.32,1.14
			c1.14,0.03,2.26-0.93,3.06-1.68c0.36-0.34,0.86-0.6,1.08-1.06C161.57,120.4,161.59,120.24,161.58,120.08z"/>
		<path style="clip-path:url(#SVGID_00000079458183779592382760000009080189699520759952_);fill:#FFFFFF;" d="M178.25,102.27
			c-0.51-0.42-1.12-0.78-1.78-0.79c-0.87-0.01-2.2,0.85-2.73,1.52c-0.32,0.4-0.47,0.94-0.35,1.44c-0.09-0.24-0.34-0.37-0.58-0.39
			c-0.25-0.02-0.48,0.11-0.69,0.23c-0.21,0.13-0.42,0.25-0.63,0.39c-0.4,0.26-0.8,0.61-0.92,1.09c-0.09,0.35-0.03,0.6,0.26,1.01
			c-0.29-0.42-0.6-0.59-1.01-0.53c-0.43,0.06-0.78,0.33-1.16,0.5c-0.34,0.15-0.63,0.41-0.84,0.72c-0.2,0.3-0.33,0.64-0.39,1
			c-0.03,0.2-0.11,0.93,0.09,1.06c-0.32-0.22-0.78-0.72-1.19-0.7c-0.31,0.01-0.67,0.34-0.91,0.51c-0.33,0.23-0.63,0.5-0.86,0.83
			c-0.45,0.64-0.54,1.59,0,2.15c-0.36-0.84-1.59-0.92-2.39-0.49c-0.7,0.38-1.95,1.21-1.78,2.16c0.1,0.59,0.98,1.29,1.34,1.77
			c0.61,0.79,1.23,1.59,1.84,2.38c0.42,0.54,0.89,1.11,1.55,1.25c0.61,0.13,1.23-0.15,1.79-0.41c1.85-0.88,3.7-1.75,5.55-2.63
			c1.59-0.75,3.19-1.51,4.58-2.59c1.6-1.24,3.75-3.54,3.93-5.68C181.16,105.97,179.81,103.54,178.25,102.27z"/>
	</g>
	<path class="st62" d="M138.92,41.37c0.61-0.78,1.33-1.48,2.06-2.13c0.88-0.78,1.85-1.39,2.9-1.92c1-0.51,1.79-0.58,2.93-0.4
		c1.9,0.31,3.68,1.27,4.97,2.7c0.93,1.02,1.62,2.49,1.1,3.77c-0.41,0.99-1.41,1.56-2.3,2.15c-2.5,1.64-4.59,3.91-6.03,6.54
		c-0.25,0.46-0.49,0.94-0.84,1.33s-0.84,0.69-1.37,0.67c-0.81-0.03-1.41-0.78-1.67-1.54c-0.27-0.77-0.34-1.66-0.74-2.38
		c-0.55-0.98-1.54-1.56-2.13-2.49C136.45,45.57,137.53,43.14,138.92,41.37z"/>
	<path class="st62" d="M116.02,50.65c2.84-0.95,5.78-1.53,8.71-2.11c2.01-0.4,4.06-0.8,6.09-0.54c1.6,0.2,3.14,0.82,4.44,1.78
		c0.99,0.73,1.86,1.69,2.22,2.87c0.63,2.05-0.42,4.32-2.04,5.73c-1.62,1.41-3.7,2.14-5.73,2.84c-4.01,1.38-8.01,2.76-12.02,4.15
		c-2.83,0.98-5.74,2-7.92,4.05c-0.72,0.68-1.35,1.46-2.11,2.1c-0.76,0.64-1.7,1.15-2.69,1.13c-2.6-0.05-4.69-3.4-5.26-5.62
		c-0.74-2.88,0.01-5.5,2.08-7.48c2.51-2.4,5.14-4.55,8.19-6.24C111.91,52.23,113.93,51.34,116.02,50.65z"/>
	<path class="st4" d="M157.31,72.46c1,1.31,1.94,3,1.32,4.52c-0.39,0.95-1.39,1.6-2.41,1.58s-1.99-0.73-2.34-1.69
		c-0.17,1.35-0.44,2.74-1.22,3.85c-0.79,1.11-2.22,1.86-3.52,1.48c-1.52-0.45-2.26-2.2-2.33-3.78c-0.07-1.58,0.34-3.16,0.2-4.74
		c-0.13-1.51-0.9-2.87-1.41-4.27c-0.61-1.64-1.91-6.82,1.38-6.37c1.2,0.16,2.06,1.17,2.9,1.94
		C152.49,67.34,155.17,69.64,157.31,72.46z"/>
	<path class="st62" d="M134.92,117.16c-1.05-3.29-0.24-6.91,1.12-10.08s3.27-6.1,4.54-9.31c1.27-3.21,1.87-6.91,0.53-10.09
		s-5.1-5.49-8.35-4.31c-3.29,1.2-4.83,5.22-8.07,6.54c-2.59,1.05-5.89-0.17-7.18-2.65c0.38,3.68,4.16,6.73,7.84,6.44
		c1.35-0.11,2.72-0.6,4.03-0.27c1.93,0.47,3.07,2.56,3.24,4.54c0.17,1.98-0.38,3.94-0.61,5.91
		C131.53,107.96,132.81,113.63,134.92,117.16z"/>
	<path class="st47" d="M26.27,301.72c-0.77,0.63-1.49,1.33-2.13,2.09c-0.64,0.76-1.07,1.68-1.68,2.44c-1.14,1.4-3.43,1.6-4.83,2.71
		c-1.38,1.09-2.34,2.74-2.47,4.5c-0.1,1.36,0.34,2.87,1.52,3.56c1.44,0.84,3.25,0.13,4.76-0.58c1.62-0.77,3.29-1.57,4.52-2.88
		c1.23-1.31,1.95-3.26,1.3-4.94c1.18,0.32,2.42,0.49,3.61,0.25c1.19-0.24,2.34-0.95,2.88-2.04c0.54-1.09,0.34-2.57-0.61-3.32
		c1.21,0.31,2.39-1.06,2.17-2.29c-0.22-1.23-1.45-2.09-2.7-2.22c-1.24-0.13-2.47,0.33-3.58,0.9
		C28.05,300.41,27.12,301.02,26.27,301.72z"/>
	<path class="st47" d="M124.68,36.74c0.97-1.16,2.51-1.82,4.02-1.72c0.94,0.06,1.9,0.44,2.42,1.22c0.57,0.86,0.43,2.11-0.3,2.82
		c-0.73,0.72-1.99,0.82-2.83,0.24c0.67,0.51,0.85,1.51,0.55,2.3c-0.3,0.79-1.01,1.37-1.78,1.71c-2.18,0.95-5.02-0.11-6.05-2.26
		c0.21,1.52-1.41,2.91-2.92,2.67c-3.53-0.56-2.6-4.87-0.72-6.62C119.17,35.15,122.77,33.78,124.68,36.74z"/>
	<path class="st4" d="M144.11,158.63c-0.41-0.58-0.78-1.17-1.12-1.8c-1.76-3.31-2.12-7.33-0.98-10.9c1.68-5.29,7.11-9.56,12.18-11.4
		c3.05-1.11,6.57-1.44,9.47,0.01c2.18,1.08,3.79,3.04,5.21,5.02c5.72,8.01,8.73,16.89,10.53,26.47c1.63,8.69,9.64,16.93,16.81,21.62
		c-3.78,2.69-9.41,1.23-12.31-2.39c2.88,3.76,3.57,9.08,1.75,13.46c-3.37-2.79-6.73-5.59-10.1-8.38c-0.62,4.92-1.23,9.84-1.85,14.75
		c-4.95-3.37-8.7-8.47-10.44-14.2c-0.59,2.42-1.17,4.85-1.76,7.27c-2.67-1.6-3.97-4.8-4.47-7.87c-0.74-4.58-0.62-9.23-1.87-13.74
		c-1.23-4.45-3.38-8.64-6.29-12.22C147.31,162.4,145.53,160.64,144.11,158.63z"/>
	<path class="st62" d="M164.07,158.08c-2.71,0.44-5.26,2.59-6.27,5.13c-0.9,2.28-0.84,6.16,1.19,7.89c0.51,0.44,1.17,0.75,1.85,0.79
		c0.37,0.02,1.86-0.17,1.91-0.71c-0.15,1.58-0.28,3.25,0.37,4.7c0.66,1.45,2.4,2.53,3.86,1.9c1.48-0.65,1.85-2.57,1.84-4.18
		c0.84,1.74,3.51,2.04,4.95,0.76c1.45-1.29,1.2-2.94,1.1-4.65c-0.05-0.91-0.33-1.79-0.79-2.58c-0.83-1.39-1.81-1.83-1.81-1.83
		s-3.89,1.24-5.45,0.07c1.49,0.29,3.01-0.94,3.29-2.43c0.27-1.49-0.54-3.05-1.78-3.92C167.01,158.09,165.52,157.85,164.07,158.08z"
		/>
	<path class="st5" d="M145.86,172.64c0.02,0.01,0.04,0.03,0.06,0.04c0.43,0.28,0.99,0.47,1.46,0.25c0.64-0.31,0.72-1.2,0.48-1.87
		s-0.71-1.23-0.9-1.91c-0.39-1.41,1.12-2.29,2.08-2.97c1.27-0.9,2.58-1.77,3.57-2.99c1.36-1.68,1.83-4.4,0.27-5.89
		c-1.28-1.22-3.28-1.1-5.05-0.99c-1.77,0.1-3.84-0.03-4.85-1.49c-1.36-1.98,0.3-4.62,0.16-7.01c-0.2-3.34-3.79-5.37-7.06-6.04
		c-2.5-0.52-5.2-0.66-7.52-1.59l-1.67,2.82c0.06,0.03,0.11,0.07,0.16,0.1c1.46,0.84,2.87,1.3,4.44,1.77c1.59,0.48,3.2,1.83,4.35,3
		c1.29,1.3,2.27,3.01,2.35,4.84c0.05,1.26-0.32,2.49-0.44,3.74c-0.14,1.26,0.02,2.65,0.93,3.52c0.83,0.81,2.08,0.98,3.23,1
		c1.16,0.01,2.35-0.09,3.44,0.33c1.15,0.45,2.17,1.72,1.52,2.91c-0.7,1.29-1.99,2.14-2.54,3.54
		C143.63,169.47,144.32,171.62,145.86,172.64z"/>
	<path class="st47" d="M284.39,35.35c-0.85-0.16-1.78,0.3-2.17,1.06c-0.4,0.77-0.24,1.78,0.38,2.39c0.66,0.65,1.74,0.77,2.6,0.41
		c0.86-0.36,1.49-1.14,1.83-2.01c0.38,1.11,1.62,1.85,2.78,1.65c1.15-0.2,2.08-1.31,2.07-2.48c-0.01-0.42-0.56-2.27-1.28-2.13
		c1.1-0.22,1.95-1.33,1.88-2.45c-0.07-1.12-1.06-2.11-2.18-2.19c-0.02-1.41-1.3-2.78-2.75-2.55c-1.62,0.26-2.78,1.9-2.59,3.48
		c-0.47,0.03-0.91,0.29-1.18,0.67C283.1,32.2,283.77,34.45,284.39,35.35z"/>
	<path class="st47" d="M252.23,189.99c0.13-0.85-0.35-1.77-1.13-2.14s-1.79-0.18-2.38,0.45c-0.63,0.68-0.72,1.77-0.33,2.61
		c0.39,0.85,1.19,1.46,2.06,1.77c-1.1,0.41-1.8,1.68-1.56,2.83c0.23,1.15,1.37,2.04,2.54,1.99c0.42-0.02,2.25-0.63,2.09-1.35
		c0.25,1.09,1.39,1.91,2.5,1.8c1.12-0.11,2.08-1.12,2.12-2.24c1.41-0.06,2.74-1.38,2.47-2.82c-0.31-1.61-1.99-2.72-3.56-2.48
		c-0.05-0.47-0.32-0.9-0.71-1.16C255.34,188.6,253.11,189.34,252.23,189.99z"/>
</g>
</svg>
