<?xml version="1.0" encoding="utf-8"?>
<!-- Generator: Adobe Illustrator 27.0.1, SVG Export Plug-In . SVG Version: 6.00 Build 0)  -->
<svg version="1.1" id="Layer_1" xmlns="http://www.w3.org/2000/svg" xmlns:xlink="http://www.w3.org/1999/xlink" x="0px" y="0px"
	 viewBox="0 0 292.95 364.46" style="enable-background:new 0 0 292.95 364.46;" xml:space="preserve">
<style type="text/css">
	.st0{fill:#0A2B17;}
	.st1{fill:#0E8042;}
	.st2{fill:#FFFFFF;}
	.st3{fill:#1A3826;}
	.st4{fill:#3D1947;}
	.st5{fill:#ECA45C;}
	.st6{fill:#D53D3D;}
	.st7{clip-path:url(#SVGID_00000171693781886968816890000000743531233736745901_);}
	.st8{fill:#802420;}
	.st9{fill:#8C5443;}
	.st10{fill:#3C1948;}
	.st11{fill:none;stroke:#3C1948;stroke-linecap:round;stroke-linejoin:round;stroke-miterlimit:10;}
	.st12{clip-path:url(#SVGID_00000107561432175585244580000009355010218275365546_);}
	.st13{fill:#802421;}
	.st14{opacity:0.29;fill:#92C9E0;}
	.st15{clip-path:url(#SVGID_00000051360631941555436590000001769685404691166868_);fill:#FFFFFF;}
	.st16{clip-path:url(#SVGID_00000051360631941555436590000001769685404691166868_);fill:#D9807E;}
	.st17{opacity:0.29;fill:#92C9E0;stroke:#FFFFFF;stroke-width:5;stroke-miterlimit:10;}
	.st18{opacity:0.29;fill:#92C9E0;stroke:#FFFFFF;stroke-miterlimit:10;}
	.st19{opacity:0.29;fill:#92C9E0;stroke:#FFFFFF;stroke-width:3;stroke-miterlimit:10;}
	.st20{fill:#934F3E;}
	.st21{clip-path:url(#SVGID_00000159435133574350880340000003621949233995358598_);fill:#41164A;}
	.st22{clip-path:url(#SVGID_00000120540423238327119780000000750645204546870677_);fill:#41164A;}
	.st23{clip-path:url(#SVGID_00000170244547915816698540000014514054351107671230_);fill:#FFFFFF;}
	.st24{clip-path:url(#SVGID_00000170244547915816698540000014514054351107671230_);fill:#41164A;}
	.st25{fill:#41164A;}
	.st26{clip-path:url(#SVGID_00000163773740597604132130000000024159869179134599_);fill:#FFFFFF;}
	.st27{clip-path:url(#SVGID_00000163773740597604132130000000024159869179134599_);fill:#E47D7A;}
	.st28{fill:none;}
	.st29{fill:#E09F9E;}
	.st30{fill:#CB8080;}
	.st31{clip-path:url(#SVGID_00000021115510718818974800000003169245340633571482_);fill:#E09F9E;}
	.st32{fill:#3C1947;}
	.st33{fill:#EAC5B1;}
	.st34{clip-path:url(#SVGID_00000096020008803256135840000010070855918807941770_);fill:#CB8080;}
	.st35{fill:#0B8043;}
	.st36{fill:#DBDBDA;}
	.st37{clip-path:url(#SVGID_00000155131769948978285720000008823395464586638783_);fill:#C2C1C1;}
	.st38{clip-path:url(#SVGID_00000176723711034491644880000018312786500748548285_);fill:#C2C1C1;}
	.st39{clip-path:url(#SVGID_00000054966648966369539950000004642218214413031324_);}
	.st40{fill:#C2C1C1;}
	.st41{clip-path:url(#SVGID_00000009575237995175118770000006566920906100862394_);fill:#C2C1C1;}
	.st42{clip-path:url(#SVGID_00000047044227993202576800000003917620450779443074_);fill:#C2C1C1;}
	.st43{clip-path:url(#SVGID_00000031925021664974425070000017989056547018733239_);fill:#0B8043;}
	.st44{clip-path:url(#SVGID_00000169524792158876528990000015064035069092819589_);fill:#0B8043;}
	.st45{fill:#A55933;}
	.st46{fill:#803C26;}
	.st47{fill:#C64B45;}
	.st48{fill:#8B3A37;}
	.st49{clip-path:url(#SVGID_00000032647426558096075800000001786161180652169629_);}
	.st50{clip-path:url(#SVGID_00000143576376063330395460000001067014109992358835_);}
	.st51{clip-path:url(#SVGID_00000127765629649334369230000001742381964732626821_);}
	.st52{clip-path:url(#SVGID_00000106140822619712033440000000483795450141582253_);}
	.st53{clip-path:url(#SVGID_00000023274903476586664130000017535343928340982459_);}
	.st54{clip-path:url(#SVGID_00000065771757387917006170000008247107520678872752_);}
	.st55{clip-path:url(#SVGID_00000176757772790366289350000003506142950673381505_);fill:#41164A;}
	.st56{clip-path:url(#SVGID_00000002367683817093607610000013935791048205360559_);fill:#41164A;}
	.st57{clip-path:url(#SVGID_00000025426326173777557820000014105155814172932520_);fill:#FFFFFF;}
	.st58{clip-path:url(#SVGID_00000025426326173777557820000014105155814172932520_);fill:#41164A;}
	.st59{clip-path:url(#SVGID_00000169550441024240865880000011626208118572470161_);fill:#FFFFFF;}
	.st60{clip-path:url(#SVGID_00000169550441024240865880000011626208118572470161_);fill:#E47D7A;}
	.st61{fill:#C28F5D;}
	.st62{fill:#375A42;}
	.st63{clip-path:url(#SVGID_00000165224622819573804890000005927874683477027519_);fill:#6AA17A;}
	.st64{clip-path:url(#SVGID_00000178895938849561643010000005909163344718757558_);fill:#6AA17A;}
	.st65{fill:#6AA17A;}
	.st66{clip-path:url(#SVGID_00000175311247508267082810000016858901855744914353_);fill:#3D1947;}
	.st67{clip-path:url(#SVGID_00000139979631875461900800000007437857064535113638_);fill:#8B3A37;}
	.st68{clip-path:url(#SVGID_00000129180150885734634430000011079219725484015794_);}
	.st69{clip-path:url(#SVGID_00000183951107289152714190000000201658790424356224_);fill:#FFFFFF;}
	.st70{clip-path:url(#SVGID_00000183951107289152714190000000201658790424356224_);fill:#D9807E;}
	.st71{clip-path:url(#SVGID_00000159443668707955933140000005678624486011920808_);fill:#41164A;}
	.st72{clip-path:url(#SVGID_00000062904294229237948780000014619787623427109788_);fill:#41164A;}
	.st73{clip-path:url(#SVGID_00000054242285992996438510000003804685863523576476_);fill:#FFFFFF;}
	.st74{clip-path:url(#SVGID_00000054242285992996438510000003804685863523576476_);fill:#41164A;}
	.st75{clip-path:url(#SVGID_00000018930272746218864290000003025066451749866652_);fill:#FFFFFF;}
	.st76{clip-path:url(#SVGID_00000018930272746218864290000003025066451749866652_);fill:#E47D7A;}
	.st77{fill:#D2687C;}
	.st78{clip-path:url(#SVGID_00000169520006401285155840000015600576099881448598_);fill:#C64B45;}
	.st79{fill:#D1544C;}
	.st80{clip-path:url(#SVGID_00000098218703019680631720000016757482997509087150_);}
	.st81{clip-path:url(#SVGID_00000059301317122072880230000004128436874434047650_);}
	.st82{fill:#DADAD9;}
	.st83{clip-path:url(#SVGID_00000140002673534425156730000008427561956073479308_);fill:#0E8042;}
	.st84{clip-path:url(#SVGID_00000140002673534425156730000008427561956073479308_);fill:#1A3826;}
	.st85{clip-path:url(#SVGID_00000028289253815843013520000010375479760302226872_);fill:#0E8042;}
	.st86{clip-path:url(#SVGID_00000028289253815843013520000010375479760302226872_);fill:#1A3826;}
	.st87{fill:none;stroke:#0E8042;stroke-linecap:round;stroke-linejoin:round;stroke-miterlimit:10;}
	.st88{clip-path:url(#SVGID_00000046340670907880477790000009131046244953043084_);}
	.st89{clip-path:url(#SVGID_00000048497389462234090920000000595692089000194737_);fill:#0E8042;}
	.st90{clip-path:url(#SVGID_00000106836857168270916630000012547421129800998023_);fill:#0E8042;}
	.st91{clip-path:url(#SVGID_00000106836857168270916630000012547421129800998023_);fill:#1A3826;}
	.st92{clip-path:url(#SVGID_00000095324715565788791900000003444958851438151595_);fill:#0E8042;}
	.st93{clip-path:url(#SVGID_00000095324715565788791900000003444958851438151595_);fill:#1A3826;}
	.st94{clip-path:url(#SVGID_00000116237815673821890940000012973015151908697786_);fill:#0E8042;}
	.st95{clip-path:url(#SVGID_00000116237815673821890940000012973015151908697786_);fill:#1A3826;}
	.st96{clip-path:url(#SVGID_00000057869346537231259820000006575759819935344555_);fill:#0E8042;}
	.st97{clip-path:url(#SVGID_00000057869346537231259820000006575759819935344555_);fill:#1A3826;}
	.st98{clip-path:url(#SVGID_00000096042292162735691660000017854023966853784238_);}
	.st99{clip-path:url(#SVGID_00000046321586378080907700000015912745075817074560_);fill:#0E8042;}
	.st100{clip-path:url(#SVGID_00000046321586378080907700000015912745075817074560_);fill:#1A3826;}
	.st101{clip-path:url(#SVGID_00000101795329581280409570000001071861905352971446_);}
	.st102{clip-path:url(#SVGID_00000078016211780261938660000017004540433779000705_);fill:#FFFFFF;}
	.st103{clip-path:url(#SVGID_00000078016211780261938660000017004540433779000705_);fill:#D9807E;}
	.st104{clip-path:url(#SVGID_00000046341953749566344570000004311999825122732687_);fill:#41164A;}
	.st105{clip-path:url(#SVGID_00000079478176901486068840000010369068009830328227_);fill:#41164A;}
	.st106{clip-path:url(#SVGID_00000059290241923039529260000003504791832720163502_);fill:#FFFFFF;}
	.st107{clip-path:url(#SVGID_00000059290241923039529260000003504791832720163502_);fill:#41164A;}
	.st108{clip-path:url(#SVGID_00000013879385406780336160000013622810429366377386_);fill:#FFFFFF;}
	.st109{clip-path:url(#SVGID_00000013879385406780336160000013622810429366377386_);fill:#E47D7A;}
	.st110{clip-path:url(#SVGID_00000162333516536222758060000000560531598783059638_);fill:#E09F9E;}
	.st111{clip-path:url(#SVGID_00000016756458582062010520000005674848416045734534_);fill:#CB8080;}
	.st112{clip-path:url(#SVGID_00000068652867687660785880000016332722092414832570_);fill:#C2C1C1;}
	.st113{clip-path:url(#SVGID_00000170972180145975313170000002251583589506669226_);fill:#C2C1C1;}
	.st114{clip-path:url(#SVGID_00000003087148977350112040000015156246891395450758_);}
	.st115{clip-path:url(#SVGID_00000049221153573263496740000004747250444231452827_);fill:#C2C1C1;}
	.st116{clip-path:url(#SVGID_00000156564656667997354950000016110728012054222757_);fill:#C2C1C1;}
	.st117{clip-path:url(#SVGID_00000149345310849010314660000011818715237344502405_);fill:#0B8043;}
	.st118{clip-path:url(#SVGID_00000011738241555599738480000008459401322417395130_);fill:#0B8043;}
	.st119{clip-path:url(#SVGID_00000158741008856232060410000015315133852781798576_);}
	.st120{clip-path:url(#SVGID_00000071528301904066749150000016863996162785510535_);}
	.st121{clip-path:url(#SVGID_00000096048300191029256550000010366656374723152312_);}
	.st122{clip-path:url(#SVGID_00000065068104530284822010000008585841455082684070_);}
	.st123{clip-path:url(#SVGID_00000104673483261681426880000001300711301984481206_);}
	.st124{clip-path:url(#SVGID_00000001633865063845495150000000061538707140458395_);}
	.st125{clip-path:url(#SVGID_00000160891096979548510500000015483774512096650901_);fill:#0E8042;}
	.st126{clip-path:url(#SVGID_00000160891096979548510500000015483774512096650901_);fill:#1A3826;}
	.st127{clip-path:url(#SVGID_00000059297580918256444180000007554538563135146144_);}
	.st128{clip-path:url(#SVGID_00000008135897346129182980000006885266622166527136_);fill:#FFFFFF;}
	.st129{clip-path:url(#SVGID_00000008135897346129182980000006885266622166527136_);fill:#D9807E;}
	.st130{clip-path:url(#SVGID_00000087412505891058061500000005607404649258242708_);fill:#41164A;}
	.st131{clip-path:url(#SVGID_00000006674770189506259280000015013721369774862503_);fill:#41164A;}
	.st132{clip-path:url(#SVGID_00000183938215855315106870000001113914404290542733_);fill:#FFFFFF;}
	.st133{clip-path:url(#SVGID_00000183938215855315106870000001113914404290542733_);fill:#41164A;}
	.st134{clip-path:url(#SVGID_00000171690080919631134070000017777867741063351743_);fill:#FFFFFF;}
	.st135{clip-path:url(#SVGID_00000171690080919631134070000017777867741063351743_);fill:#E47D7A;}
	.st136{clip-path:url(#SVGID_00000018216588608532164540000001408771195295211431_);fill:#C64B45;}
	.st137{clip-path:url(#SVGID_00000102516750646661140530000011726518553605387663_);}
	.st138{clip-path:url(#SVGID_00000173851530807910011330000000578071384948268191_);}
	.st139{clip-path:url(#SVGID_00000001657574510378169050000018430304212243464376_);fill:#0E8042;}
	.st140{clip-path:url(#SVGID_00000001657574510378169050000018430304212243464376_);fill:#1A3826;}
	.st141{clip-path:url(#SVGID_00000062910818295813119040000007376816573629871249_);fill:#0E8042;}
	.st142{clip-path:url(#SVGID_00000062910818295813119040000007376816573629871249_);fill:#1A3826;}
	.st143{clip-path:url(#SVGID_00000022534543361343777880000015878643391392501678_);fill:#0E8042;}
	.st144{clip-path:url(#SVGID_00000022534543361343777880000015878643391392501678_);fill:#1A3826;}
	.st145{clip-path:url(#SVGID_00000029730090565569663090000013887451173397892009_);}
	.st146{clip-path:url(#SVGID_00000141454961938994461960000001979347132941977230_);}
	.st147{clip-path:url(#SVGID_00000081628348514999340910000014886775331027626384_);}
	.st148{clip-path:url(#SVGID_00000083070275278381688190000018407023114082678412_);}
	.st149{clip-path:url(#SVGID_00000169553735544665904380000010447814340180462244_);}
	.st150{clip-path:url(#SVGID_00000135692048354786367900000015554566541876099249_);}
	.st151{clip-path:url(#SVGID_00000057144501835381866000000008792166359662358406_);fill:#FFFFFF;}
	.st152{clip-path:url(#SVGID_00000057144501835381866000000008792166359662358406_);fill:#8B3A37;}
	.st153{fill:#DF9E9E;}
	.st154{fill:#C98080;}
	.st155{fill:#DFD5E2;}
	.st156{clip-path:url(#SVGID_00000080897016054607346960000018299798610185189248_);fill:#DF9E9E;}
	.st157{fill:#E9C4B0;}
	.st158{clip-path:url(#SVGID_00000173872949564282361090000005703348933220723628_);fill:#C98080;}
	.st159{clip-path:url(#SVGID_00000098202706296466272180000014904221321019913897_);fill:#C1C0C0;}
	.st160{clip-path:url(#SVGID_00000035506797645372301980000018431825761453166238_);fill:#C1C0C0;}
	.st161{clip-path:url(#SVGID_00000044148747285658064870000008501273180968997055_);}
	.st162{fill:#C1C0C0;}
	.st163{clip-path:url(#SVGID_00000033349733804162519670000015335581574485454229_);fill:#C1C0C0;}
	.st164{clip-path:url(#SVGID_00000106827934581202052820000006151413958140233902_);fill:#C1C0C0;}
	.st165{clip-path:url(#SVGID_00000039102780814391770060000007415681129784729776_);fill:#0E8042;}
	.st166{clip-path:url(#SVGID_00000114766810781577611630000003537771102289927578_);fill:#0E8042;}
	.st167{fill:#7F2420;}
	.st168{clip-path:url(#SVGID_00000085971465578552340350000003925741135728298938_);fill:#FFFFFF;}
	.st169{clip-path:url(#SVGID_00000085971465578552340350000003925741135728298938_);fill:#D8807E;}
	.st170{fill:#7F2421;}
	.st171{clip-path:url(#SVGID_00000167376011035848902230000001756058264092397990_);fill:#ECA45C;}
	.st172{clip-path:url(#SVGID_00000111158714482403206950000001000604135273788061_);fill:#0E8042;}
	.st173{clip-path:url(#SVGID_00000111158714482403206950000001000604135273788061_);fill:#1A3826;}
	.st174{clip-path:url(#SVGID_00000171695429211782594720000016125120182888035219_);fill:#0E8042;}
	.st175{clip-path:url(#SVGID_00000171695429211782594720000016125120182888035219_);fill:#1A3826;}
	.st176{clip-path:url(#SVGID_00000048488896532136668920000004533937451730366628_);fill:#0E8042;}
	.st177{clip-path:url(#SVGID_00000048488896532136668920000004533937451730366628_);fill:#1A3826;}
	.st178{clip-path:url(#SVGID_00000062159969905498669820000014057834507940754051_);fill:#0E8042;}
	.st179{clip-path:url(#SVGID_00000062159969905498669820000014057834507940754051_);fill:#1A3826;}
	.st180{clip-path:url(#SVGID_00000021828032198222196950000006609897693510506122_);fill:#0E8042;}
	.st181{clip-path:url(#SVGID_00000021828032198222196950000006609897693510506122_);fill:#1A3826;}
	.st182{clip-path:url(#SVGID_00000075129506469545799480000005395087050890616960_);fill:#0E8042;}
	.st183{clip-path:url(#SVGID_00000075129506469545799480000005395087050890616960_);fill:#1A3826;}
	.st184{clip-path:url(#SVGID_00000033332019384765477780000010685493281874300550_);fill:#0E8042;}
	.st185{clip-path:url(#SVGID_00000033332019384765477780000010685493281874300550_);fill:#1A3826;}
	.st186{clip-path:url(#SVGID_00000141439197018042174080000006237475216324976525_);fill:#0E8042;}
	.st187{clip-path:url(#SVGID_00000141439197018042174080000006237475216324976525_);fill:#1A3826;}
	.st188{clip-path:url(#SVGID_00000138567246962111868220000006481076204090391721_);fill:#0E8042;}
	.st189{clip-path:url(#SVGID_00000138567246962111868220000006481076204090391721_);fill:#1A3826;}
	.st190{clip-path:url(#SVGID_00000034073965501998043940000017789650818282588322_);fill:#0E8042;}
	.st191{clip-path:url(#SVGID_00000034073965501998043940000017789650818282588322_);fill:#1A3826;}
	.st192{clip-path:url(#SVGID_00000170981931564495521960000011274609673845823629_);fill:#0E8042;}
	.st193{clip-path:url(#SVGID_00000170981931564495521960000011274609673845823629_);fill:#1A3826;}
	.st194{clip-path:url(#SVGID_00000158735787929952309680000009029142091646207115_);fill:#0E8042;}
	.st195{clip-path:url(#SVGID_00000158735787929952309680000009029142091646207115_);fill:#1A3826;}
	.st196{clip-path:url(#SVGID_00000033348312126029422030000005396437321708381085_);fill:#0E8042;}
	.st197{clip-path:url(#SVGID_00000033348312126029422030000005396437321708381085_);fill:#1A3826;}
	.st198{clip-path:url(#SVGID_00000139997257192323245930000018437429950495813770_);}
	.st199{clip-path:url(#SVGID_00000173160223483946013430000005553396826425454720_);fill:#FFFFFF;}
	.st200{clip-path:url(#SVGID_00000173160223483946013430000005553396826425454720_);fill:#D9807E;}
	.st201{clip-path:url(#SVGID_00000127742844420037220920000008087620145292422568_);fill:#41164A;}
	.st202{clip-path:url(#SVGID_00000085967661372141528190000013633784446042570681_);fill:#41164A;}
	.st203{clip-path:url(#SVGID_00000091011247653955519490000002279657479696886179_);fill:#FFFFFF;}
	.st204{clip-path:url(#SVGID_00000091011247653955519490000002279657479696886179_);fill:#41164A;}
	.st205{clip-path:url(#SVGID_00000030468642363671192220000007239945672445874086_);fill:#FFFFFF;}
	.st206{clip-path:url(#SVGID_00000030468642363671192220000007239945672445874086_);fill:#E47D7A;}
	.st207{clip-path:url(#SVGID_00000067227059493912934740000015322645573195446156_);fill:#C64B45;}
	.st208{clip-path:url(#SVGID_00000098183676232311485920000002550283349985802420_);}
	.st209{clip-path:url(#SVGID_00000118359987215762439720000007139369293196545967_);}
	.st210{clip-path:url(#SVGID_00000174576445619859660610000006350362604539422612_);fill:#6AA17A;}
	.st211{clip-path:url(#SVGID_00000067214312376874508140000006068899291541658808_);fill:#6AA17A;}
	.st212{clip-path:url(#SVGID_00000021088379497038047220000006346070802699204233_);fill:#3D1947;}
	.st213{clip-path:url(#SVGID_00000007410927689368783410000006247966139271847561_);fill:#8B3A37;}
	.st214{clip-path:url(#SVGID_00000041976644939657471290000002131227584927398280_);}
	.st215{clip-path:url(#SVGID_00000025436619959419807660000008338285623964662687_);}
	.st216{clip-path:url(#SVGID_00000120521431086323069130000016886122755472049590_);}
	.st217{clip-path:url(#SVGID_00000054247951244693284090000001318013089384354180_);}
	.st218{clip-path:url(#SVGID_00000008128617867123931860000010009842713441341622_);}
	.st219{clip-path:url(#SVGID_00000035512799196352072290000004164937363129413261_);}
	.st220{clip-path:url(#SVGID_00000149367095668280654900000013601529577019605121_);fill:#FFFFFF;}
	.st221{clip-path:url(#SVGID_00000149367095668280654900000013601529577019605121_);fill:#8B3A37;}
	.st222{clip-path:url(#SVGID_00000014605071382663717260000004857945157788646289_);fill:#DF9E9E;}
	.st223{clip-path:url(#SVGID_00000155143988511479517750000011112316226461543063_);fill:#C98080;}
	.st224{clip-path:url(#SVGID_00000113337191539053794050000008930961742812887945_);fill:#C1C0C0;}
	.st225{clip-path:url(#SVGID_00000070102976210617635990000017157687174745046147_);fill:#C1C0C0;}
	.st226{clip-path:url(#SVGID_00000152959039593723285100000017072530748876139653_);}
	.st227{clip-path:url(#SVGID_00000053526088866028316300000013147738860230300545_);fill:#C1C0C0;}
	.st228{clip-path:url(#SVGID_00000131340147367438591950000003901352107295927450_);fill:#C1C0C0;}
	.st229{clip-path:url(#SVGID_00000144300194713617357870000014414328300975297464_);fill:#0E8042;}
	.st230{clip-path:url(#SVGID_00000080885898148250262780000002020823797016468412_);fill:#0E8042;}
	.st231{clip-path:url(#SVGID_00000099638757538576658770000016194100648004309888_);fill:#FFFFFF;}
	.st232{clip-path:url(#SVGID_00000099638757538576658770000016194100648004309888_);fill:#D8807E;}
	.st233{clip-path:url(#SVGID_00000090279499628908515400000016710030602209760162_);fill:#ECA45C;}
</style>
<g>
	<g>
		<path class="st5" d="M287.14,201.87c2.5-3.56,3.04-8.4,1.39-12.42c2.5,1.83,4.64,4.83,4.39,7.92
			C292.69,200.46,290.24,201.91,287.14,201.87z"/>
		<g>
			<g>
				<path class="st6" d="M56.9,39.31c-0.2-0.09-1.02,0.26-1.24,0.32c-0.38,0.1-0.71,0.11-1.09,0.15c-0.8,0.08-1.61,0.33-2.38,0.56
					c-1.59,0.48-3.12,1.17-4.51,2.09c-1.89,1.25-3.25,3-5.22,4.13c-2.18,1.26-4.58,2.14-7.06,2.57c-2.42,0.43-3.89,0.35-6.05-0.89
					c-2.06-1.18-4.04-2.74-6.46-3.1c-1.93-0.28-3.98,0.32-5.45,1.6c-1.47,1.28-2.34,3.23-2.32,5.18c-1.54-2.22-1.77-5.29-0.58-7.71
					s3.74-4.13,6.44-4.28c1.48-0.08,2.95,0.26,4.43,0.49c1.47,0.22,3.02,0.32,4.4-0.25s2.51-1.95,2.36-3.42
					c-0.17-1.58-1.77-2.72-3.35-2.82c-1.59-0.09-3.11,0.64-4.41,1.56c-1.3,0.91-2.46,2.03-3.81,2.86
					c-3.36,2.06-7.83,2.13-11.25,0.18s-5.64-5.84-5.57-9.78c-0.09,2.14,1.73,4.13,3.86,4.41c2.13,0.28,4.31-1.05,5.21-3
					s0.58-4.35-0.65-6.11c-1.56-2.23-4.59-3.37-7.2-2.6c-2.61,0.77-4.56,3.46-4.37,6.18c-1.75-4.04,0.31-9.31,4.34-11.09
					s9.32,0.25,11.12,4.27c0.83,1.84,0.97,3.92,1.67,5.82c0.7,1.89,2.28,3.74,4.3,3.7c3.17-0.06,3.94-3.45,3.63-5.88
					c-0.42-3.3-0.08-6.77,1.48-9.75c1.17-2.23,3.26-4.52,5.7-5.3c1.28-0.41,2.71-0.53,4.04-0.37c0.69,0.08,1.38,0.25,2.04,0.48
					c0.44,0.16,1.12,0.7,1.55,0.73c-2.47-0.18-4.86,1.34-6.17,3.44c-1.32,2.1-1.69,4.67-1.58,7.14c0.1,2.27,0.62,4.6,1.95,6.45
					c1.55,2.16,4.19,3.44,6.83,3.46c2.47,0.02,4.85,0.25,6.92,1.88c0.96,0.76,1.74,1.71,2.6,2.58C52.72,36.89,54.72,38.3,56.9,39.31
					z"/>
				<path class="st5" d="M50.68,31.35c-0.14-1.55,0.13-3.11,0.02-4.65c-0.21-3.25-2.16-6.33-5-7.93c-2.84-1.59-6.49-1.64-9.37-0.13
					c3.22-0.23,6.36,2.49,6.6,5.7c0.19,2.52-1.17,4.97-0.96,7.49c0.25,3.11,2.89,5.61,5.83,6.66c0.95,0.34,7.53,1.94,6.79-0.58
					c-0.23-0.78-2.09-1.96-2.61-2.79C51.27,33.98,50.8,32.69,50.68,31.35z"/>
				<path class="st20" d="M109.24,233.58c5.31,3.23,9.86,8.02,13.34,13.13c2.81,4.13,6.32,7.69,8.85,12.09
					c5.58,9.73,9.09,20.48,12.56,31.14c1.18,3.62,2.35,7.64,0.84,11.14c-1.45,3.37-4.95,5.27-7.82,7.57
					c-6.43,5.17-10.14,13.12-11.74,21.22c-0.84,4.26-1.15,8.6-1.24,12.94c-0.04,2.02,0.04,4.03,0.05,6.04
					c0.01,1.8-0.21,3.17,0.68,4.87c0.76,1.45,1.81,2.8,2.15,4.4c0.39,1.85-0.31,3.88-1.75,5.1c-1.44,1.22-3.56,1.58-5.32,0.9
					c-1.41-0.55-2.5-1.66-3.7-2.57c-3.26-2.48-7.36-3.55-11.41-4.13c-4.01-0.58-8-0.66-11.88-2.06c-3.21-1.16-6.22-3.14-8.02-6.03
					c-1.72-2.76-2.2-6.16-1.79-9.38c0.41-3.22,1.67-6.28,3.22-9.13c1.69,5.99,5.93,11.05,11.08,14.54c2.94,1.99,6.18,3.51,9.53,4.67
					c1.66,0.58,3.35,1.06,5.06,1.48c0.84,0.21,1.7,0.34,2.53,0.58c0.36,0.1,2.1,0.33,2.27,0.56c-6.46-9.02-9.07-20.42-6.59-31.23
					c2.48-10.81,9.77-20.43,19.51-25.74c-18.43-12.95-31.15-33.75-34.28-56.06c-0.39-2.8-0.55-6.52,1.9-8.46
					c3.36-2.66,8.87,0.54,11.91,2.37C109.18,233.55,109.21,233.57,109.24,233.58z"/>
				<path class="st1" d="M110.12,321.42c-1.21,5.26-1.21,10.64-0.15,15.83c1.27-0.73,3.69-0.14,4.88,0.04
					c1.88,0.29,3.77,0.58,5.65,0.87c1.04,0.16,2.67,0.07,3.67,0.65c0.17-3,0.5-6,1.08-8.95c0.67-3.39,1.71-6.76,3.17-9.91
					c-0.01,0-0.04,0-0.05,0.01c-1.04,0.02-2.01-0.91-2.86-1.43c-2.42-1.46-5.04-2.51-7.65-3.58c-1.07-0.45-2.08-0.63-3.19-0.95
					c-0.54-0.15-1.22-0.36-1.68-0.77C111.74,315.85,110.77,318.59,110.12,321.42z"/>
				<g>
					<path class="st20" d="M96.68,231.13c-0.28,1.67-1.08,3.24-1.88,4.69c-2.91,5.26-6.4,10.17-10.17,14.83
						c-3.91,4.85-8.08,9.33-13.48,12.5c-9.18,5.39-19.21,7.3-29.57,9.25c-2.74,0.51-5.54,0.84-8-0.67c-2-1.23-2.84-3.38-3.6-5.51
						c-2.64-7.44-4.63-14.65-6.76-22.37s-4.38-16.02-6.9-23.74c-0.49-1.5-0.79-3.02-1.33-4.45c-0.54-1.43-1.22-2.62-1.46-4.13
						c-1.67-0.38-3.21-0.89-4.3-2.29c-0.91-1.17-1.37-2.97-0.51-4.24c1.02-1.5,2.77-2.02,4.06-3.19c2.71-2.43,3.54-5.79,4.79-9.03
						c2.25-5.82,8.48-9.1,14.53-9.19c5.39-0.08,10.63,2.13,14.93,5.37c-1.53-0.14-3.41-0.17-4.32-0.12
						c-1.52,0.09-3.02,0.31-4.5,0.66c-3.04,0.71-5.95,1.95-8.57,3.64c-5.98,3.84-9.78,9.55-10.95,16.58
						c4.02,2.37,7.89,4.48,11.34,7.75c3.42,3.25,6.19,7.1,8.25,11.34c4.62,9.49,5.64,18.77,4.24,29.09
						c1.18-4.12,4.08-8.23,6.66-11.39c3.17-3.88,5.97-6.82,9.76-9.87c5.4-4.34,10.49-7.44,17.14-10.33
						c5.6-2.44,13.67-6.07,19.17-1.42C97.29,226.62,97.07,228.88,96.68,231.13z"/>
				</g>
				<path class="st20" d="M185.16,137.36c1.36,2.43,3.97,4.1,6.43,4.58c2.46,0.48,4.77-0.09,6.74-1.08
					c2.73-1.38,4.93-3.59,6.35-6.37c-3.57-2.73-7.47-4.16-11.24-3.76C189.67,131.12,186.81,134.08,185.16,137.36z"/>
				<path class="st5" d="M235.43,148.34c-0.01-1.54-0.71-2.98-1.43-4.35c-0.72-1.37-1.48-2.23-1.34-3.9
					c0.09-1.07,0.39-2.11,0.45-3.18c0.1-1.81-0.51-3.95-1.85-5.22c-0.71-0.67-1.58-1.17-2.51-1.45c-0.42-0.13-0.89-0.24-1.33-0.24
					c-0.38,0-0.67,0-1.19,0.04c1.32,0.48,2.32,1.68,2.65,3.03c0.43,1.76-0.61,3.32-1.34,4.85c-1.28,2.7-1.39,5.6-0.24,8.37
					c0.88,2.13,2.47,3.97,4.43,5.19c0.97,0.6,1.51,0.66,2.4-0.11C234.98,150.62,235.44,149.48,235.43,148.34z"/>
				<path class="st6" d="M224.36,143.47c-1.03-1.31-2.11-2.59-3.08-3.88c2.05,0.96,4.11,1.93,6.3,2.49c2.19,0.56,4.55,0.68,6.7-0.04
					s4.04-2.38,4.68-4.55c0.39-1.31,0.25-2.87-0.71-3.83c2.21,0.79,4.29,2.25,5.26,4.38c0.98,2.13,0.56,4.98-1.33,6.36
					c-1.06,0.77-2.44,1.03-3.42,1.89c-1.08,0.94-1.49,2.58-0.99,3.92c0.67,1.79,3.27,3.07,5.06,2.17c0.91-0.45,1.17-1.27,1.09-2.2
					c-0.07-0.73-0.18-2.35-0.79-2.87c3.25,2.72,4.9,7.23,4.17,11.41c-0.33,1.87-1.08,3.64-1.53,5.49c-0.45,1.85-0.56,3.89,0.35,5.56
					c-4.7-5.49-9.54-10.56-14.17-16.11c-1.9-2.28-3.81-4.57-5.38-7.1C225.92,145.5,225.15,144.47,224.36,143.47z"/>
				<path class="st6" d="M268.83,222.6c3.88-6.86,11.47-11.53,19.32-12.34c-1.82-1.58-3.9-2.19-6.09-2.99
					c-1.74-0.63-4.18-1.28-5.95-0.24c2.48-1.46,4.76-3.35,6.3-5.78s2.28-5.45,1.61-8.24c-0.67-2.8-2.89-5.27-5.71-5.86
					c1.33,1.36,1.6,3.63,0.63,5.27c-1.07,1.8-3.78,2.77-5.64,1.69c-1.92-1.12-2.97-3.8-2.79-5.93c0.21-2.52,2.01-4.84,4.41-5.66
					c-0.58,0.2-1.26-0.06-1.86-0.04c-0.7,0.02-1.41,0.2-2.07,0.42c-5.45,1.79-6.66,7.67-6.76,12.74c-0.06,2.8,0.2,5.38,1.09,8.03
					s2.08,5.22,2.63,7.97c0.79,3.95,0.2,8.03-0.4,12.02C268.07,223.47,268.55,223.14,268.83,222.6z"/>
				<path class="st20" d="M78.72,115.35c6.81,20.37,19.87,38.58,37.36,51.12c3.15,2.25,6.44,4.83,5.1,9.16
					c-0.73,2.38-2.49,4.3-4.2,6.12c-4.42,4.72-8.84,9.44-13.25,14.16c-2.21,2.36-4.42,4.72-6.63,7.08
					c-0.24,0.25-0.53,0.52-0.83,0.81c-0.74,0.7-1.5,1.48-1.52,2.33c-0.03,1.1,1.41,3.1,1.98,4.01c1.45,2.32,2.92,4.64,4.37,6.96
					c1.56,2.48,3.17,5.02,5.51,6.79c4.96,3.75,13.53,3.25,16.91-1.97c3.01-4.64,6.75-8.79,10.94-12.39
					c1.29-1.11,2.55-2.27,3.97-3.22c1.47-0.99,3.06-1.44,4.65-2.17c3.15-1.45,6.11-3.33,8.75-5.58c2.72-2.31,6.99-9.89,10.72-4.87
					c0.73,0.99,1.17,2.16,1.68,3.28c3.36,7.36,10.46,12.82,17.88,15.6c1.34,0.5,2.72,0.95,3.84,1.84c1.73,1.34,1.84,3.59,2.52,5.53
					c0.78,2.23,1.61,4.44,2.85,6.47c1.97,3.24,4.4,6.16,7.08,8.83c3.23,3.21,6.79,6.06,10.42,8.8c1.4,1.05,2.78,1.77,3.41,3.41
					c0.62,1.59,0.42,3.49,0.76,5.14c0.46,2.15,1.11,4.28,2.11,6.24c1.71,3.35,4.52,6.27,8.11,7.43c-2.11-3.71-3.06-7.12-4.02-11.25
					c3.11,4.43,8.28,7.35,13.68,7.73c5.4,0.38,10.93-1.79,14.63-5.74c-6.16-1.32-12.12-3.58-17.61-6.68
					c-2.59-1.46-5.1-3.13-7.15-5.29c-2.81-2.96-3.47-6.18-4.67-9.91c-1.16-3.6-3.15-6.68-4.72-10.06c-0.4-0.83-0.81-1.66-1.25-2.47
					c-1.54-2.83-3.51-5.38-5.72-7.71c-1.13-1.19-2.29-2.43-3.57-3.46c-1.3-1.05-2.92-1.66-4.14-2.83c-1.45-1.39-2.29-3.73-3.29-5.48
					c-2.36-4.14-4.9-8.19-7.98-11.84c-4.44-5.26-10.16-9.68-16.82-11.43c-2.3-0.6-4.73-0.9-6.78-2.1c-1.81-1.04-3.21-2.99-3.08-5.14
					c0.05-0.73,2.06-7.01,1.78-7.1c-2.52-1.39-4.87-3.12-7.59-4.09c-2.71-0.97-5.66-1.41-8.46-2.04c-0.42,1.08-0.85,2.18-1.58,3.08
					c-2.56,3.14-6.46,0.37-7.5-2.7c-0.82-2.4-1.51-4.2-3.3-6.17c-3.13-3.45-7.54-5.78-12.21-6.13c-1.33-0.1-2.8-0.11-3.76-1.03
					c-0.96-0.92-1.03-2.4-1.11-3.72c-0.43-6.45-2.85-12.76-6.79-17.88c-3.77-4.9-8.05-9.6-13.75-12.26
					c4.09-1.86,8.07-3.11,11.74-5.9c6.19-4.7,11.3-10.72,16.28-16.65c1.32-1.58,2.63-3.16,3.95-4.73l-6.38-7.52
					c-1.85,0.75-3.72,1.47-4.05,1.58c-2.44,0.78-4.81,1.75-7.26,2.57c-5.81,1.96-11.52,4.21-17.11,6.72
					c-5.12,2.31-10.3,4.98-13.81,9.36C75.22,103.73,76.51,108.77,78.72,115.35z"/>
				<path class="st1" d="M82.89,220.8c-0.45,0.6-1.23,0.93-2.11,0.79c-1.32-0.21-2.48-1.03-3.63-1.66c-1.46-0.8-2.97-1.51-4.6-1.89
					c-3.22-0.74-6.74-0.04-9.43,1.89c-2.68,1.92-4.49,5.03-4.82,8.31c0.93-2.31,2.99-4.13,5.4-4.79c2.4-0.65,5.1-0.12,7.07,1.41
					c2.97,2.3,4.48,6.7,8.15,7.5c1.9,0.42,3.86-0.3,5.8-0.25c1.95,0.04,4.2,1.52,3.77,3.41c-0.25,1.09-1.34,1.82-2.44,2.02
					c-1.1,0.2-2.23-0.01-3.34-0.16c-4.48-0.61-9.42-0.11-12.86,2.83c-3.43,2.94-4.47,8.85-1.2,11.97c-0.12-1.73-0.21-3.59,0.72-5.06
					c0.93-1.46,3.31-2.09,4.39-0.73c0.99,1.24,0.27,3.04-0.19,4.56c-1.25,4.13-0.06,8.9,2.97,11.97c3.04,3.06,7.8,4.3,11.94,3.09
					c-4.39,0.29-8.33-3.76-8.71-8.15c-0.37-4.39,2.25-8.67,5.91-11.12c2.34-1.58,5.92-2.31,7.69-0.12c1.47,1.83,0.67,4.73-1.09,6.29
					c-1.76,1.55-4.16,2.11-6.45,2.62c3.5,2.27,8.05,2.84,12,1.49c1.78-0.61,3.42-1.6,4.8-2.87c-0.2,0.8-0.32,1.62-0.31,2.45
					c0.01,3.14,1.58,6.24,4.12,8.09c1.25,0.91,2.69,1.52,3.96,2.4c1.27,0.87,2.42,2.12,2.62,3.65c0.2,1.53-0.91,3.28-2.46,3.27
					c1.98,0.56,4.24,0.06,5.79-1.28c1.56-1.34,2.39-3.5,2.12-5.54c-0.32-2.52-2.12-4.58-3.09-6.92c-0.97-2.35-0.64-5.75,1.77-6.54
					c-0.87,3.8,2.91,7.88,6.77,7.28c-1.78-0.18-3.32-1.77-3.45-3.56c-0.13-1.79,1.17-3.59,2.92-4.02c2.55-0.64,5.12,1.57,5.85,4.1
					c0.73,2.53,0.13,5.23-0.47,7.79c3.23-1.39,5.64-4.53,6.15-8.02c0.5-3.48-0.92-7.17-3.63-9.42c-0.9-0.75-1.94-1.36-2.66-2.28
					c-0.72-0.93-1.01-2.34-0.26-3.24c0.81-0.98,2.42-0.85,3.46-0.12c1.04,0.73,1.68,1.88,2.41,2.92c3.72,5.24,10.73,7.91,16.99,6.46
					c-2.02,0.47-5.37-1.96-6.75-3.18c-2.01-1.78-3.45-4.1-4.14-6.7c-0.61-2.27-0.79-4.57-1.47-6.83c-0.56-1.85-1.95-3.08-3.38-4.34
					c-1.81-1.59-3.79-2.75-5.88-3.71c2.37,0.51,4.81,0.47,7.33-0.47c1.85-0.69,3.52-1.87,4.84-3.36c1.83-2.08,2.97-4.76,2.92-7.53
					c-2.38,2.71-5.93,4.33-9.53,4.38c-3.65,0.04-11.5-2.38-9.74-7.37c0.67-1.89,2.46-3.21,4.39-3.74c1.93-0.53,3.98-0.36,5.94-0.01
					c-3.76-2.14-8.3-2.86-12.54-2c-4.25,0.87-8.15,3.3-10.77,6.74c-0.72,0.95-1.42,2.02-2.53,2.42c-1.52,0.55-3.23-0.38-4.17-1.69
					c-0.94-1.31-1.32-2.92-1.83-4.45c-1.58-4.62-6.6-7.96-10.86-9.88c-5.91-2.66-12.53-3.38-19-3.2c-2.14,0.06-4.47,0.3-5.99,1.81
					c5.05,0.22,10.11,1.65,14.24,4.55c4.14,2.9,7.28,7.35,8.14,12.33c-3.81-5.97-10.77-9.8-17.85-9.83
					c-1.84-0.01-3.69,0.22-5.5-0.06c-1.82-0.29-3.81-1.17-4.61-2.82c-0.59,3.76,1.4,7.8,4.74,9.62c2.88,1.57,6.35,1.52,9.49,2.46
					c1.26,0.37,2.51,0.86,3.67,1.48c1.14,0.61,2.7,1.45,2.91,2.86C83.38,219.77,83.22,220.36,82.89,220.8z"/>
				<path class="st1" d="M82.89,220.8c-0.45,0.6-1.23,0.93-2.11,0.79c-1.32-0.21-2.48-1.03-3.63-1.66c-1.46-0.8-2.97-1.51-4.6-1.89
					c-3.22-0.74-6.74-0.04-9.43,1.89c-2.68,1.92-4.49,5.03-4.82,8.31c0.93-2.31,2.99-4.13,5.4-4.79c2.4-0.65,5.1-0.12,7.07,1.41
					c2.97,2.3,4.48,6.7,8.15,7.5c1.9,0.42,3.86-0.3,5.8-0.25c1.95,0.04,4.2,1.52,3.77,3.41c-0.25,1.09-1.34,1.82-2.44,2.02
					c-1.1,0.2-2.23-0.01-3.34-0.16c-4.48-0.61-9.42-0.11-12.86,2.83c-3.43,2.94-4.47,8.85-1.2,11.97c-0.12-1.73-0.21-3.59,0.72-5.06
					c0.93-1.46,3.31-2.09,4.39-0.73c0.99,1.24,0.27,3.04-0.19,4.56c-1.25,4.13-0.06,8.9,2.97,11.97c3.04,3.06,7.8,4.3,11.94,3.09
					c-4.39,0.29-8.33-3.76-8.71-8.15c-0.37-4.39,2.25-8.67,5.91-11.12c2.34-1.58,5.92-2.31,7.69-0.12c1.47,1.83,0.67,4.73-1.09,6.29
					c-1.76,1.55-4.16,2.11-6.45,2.62c3.5,2.27,8.05,2.84,12,1.49c1.78-0.61,3.42-1.6,4.8-2.87c-0.2,0.8-0.32,1.62-0.31,2.45
					c0.01,3.14,1.58,6.24,4.12,8.09c1.25,0.91,2.69,1.52,3.96,2.4c1.27,0.87,2.42,2.12,2.62,3.65c0.2,1.53-0.91,3.28-2.46,3.27
					c1.98,0.56,4.24,0.06,5.79-1.28c1.56-1.34,2.39-3.5,2.12-5.54c-0.32-2.52-2.12-4.58-3.09-6.92c-1.28-3.11,1.92-6.91,4.75-7.77
					c3.73-1.14,8.02,1.31,9.1,5.03c0.73,2.53,0.13,5.23-0.47,7.79c3.23-1.39,5.64-4.53,6.15-8.02c0.5-3.48-0.92-7.17-3.63-9.42
					c-0.9-0.75-1.94-1.36-2.66-2.28c-0.72-0.93-1.01-2.34-0.26-3.24c0.81-0.98,2.42-0.85,3.46-0.12c1.04,0.73,1.68,1.88,2.41,2.92
					c3.72,5.24,10.73,7.91,16.99,6.46c-2.02,0.47-5.37-1.96-6.75-3.18c-2.01-1.78-3.45-4.1-4.14-6.7c-0.61-2.27-0.79-4.57-1.47-6.83
					c-0.56-1.85-1.95-3.08-3.38-4.34c-1.81-1.59-3.79-2.75-5.88-3.71c2.37,0.51,4.81,0.47,7.33-0.47c1.85-0.69,3.52-1.87,4.84-3.36
					c1.83-2.08,2.97-4.76,2.92-7.53c-2.38,2.71-5.93,4.33-9.53,4.38c-3.65,0.04-11.5-2.38-9.74-7.37c0.67-1.89,2.46-3.21,4.39-3.74
					c1.93-0.53,3.98-0.36,5.94-0.01c-3.76-2.14-8.3-2.86-12.54-2c-4.25,0.87-8.15,3.3-10.77,6.74c-0.72,0.95-1.42,2.02-2.53,2.42
					c-1.52,0.55-3.23-0.38-4.17-1.69c-0.94-1.31-1.32-2.92-1.83-4.45c-1.58-4.62-6.6-7.96-10.86-9.88c-5.91-2.66-12.53-3.38-19-3.2
					c-2.14,0.06-4.47,0.3-5.99,1.81c5.05,0.22,10.11,1.65,14.24,4.55c4.14,2.9,7.28,7.35,8.14,12.33
					c-3.81-5.97-10.77-9.8-17.85-9.83c-1.84-0.01-3.69,0.22-5.5-0.06c-1.82-0.29-3.81-1.17-4.61-2.82c-0.59,3.76,1.4,7.8,4.74,9.62
					c2.88,1.57,6.35,1.52,9.49,2.46c1.26,0.37,2.51,0.86,3.67,1.48c1.14,0.61,2.7,1.45,2.91,2.86
					C83.38,219.77,83.22,220.36,82.89,220.8z"/>
				<path class="st5" d="M76.48,214.53c4.67,8.26,13.42,6.1,17.89-0.69c1.86-2.82,1.83-5.78,1.71-9.09
					c-0.06-1.72-0.26-8.68-1.95-9.64c4.82,2.74,8.51,7.38,10.1,12.69c1.59,5.31,1.06,11.22-1.45,16.15
					c7.33-0.53,14.78,3.67,18.12,10.21c-3.64-1.91-7.88-3.87-11.71-2.37c-2.86,1.12-4.82,4.22-4.58,7.29
					c0.24,3.06,2.65,5.83,5.65,6.49c-3.52-0.78-6.66-2.87-8.91-5.67c-0.98-1.23-1.9-2.56-2.38-4.07c-0.55-1.74-0.1-3.44-0.38-5.2
					c-6.17,1.15-11.8,6.69-14.38,12.19c-1.68-6.09,0.85-13.12,6.04-16.73c-2.37,1.65-7.8-0.57-9.39-2.32
					C78.56,221.24,76.93,217.94,76.48,214.53z"/>
				<path class="st5" d="M121.13,255.62c-0.01-1.77-0.17-3.54-0.58-5.27c-1.17-4.94-4.93-10.27-10.61-9.49
					c2.05-2.09,5-3.27,7.93-3.18c2.93,0.09,5.8,1.46,7.71,3.68c-1.51-1.77-2.15-4.24-1.69-6.52c0.46-2.28,2.02-4.31,4.1-5.34
					c-0.58,2.35,0.13,4.98,1.82,6.72c1.1,1.14,2.6,1.87,4.17,2.09c1.62,0.23,2.66-0.24,4.06-0.96c2.46-1.25,5.62-3.26,7.09-5.69
					c-1.71,2.83-2.98,5.91-4.71,8.73c-1.96,3.2-4.45,6.29-8.44,6.62c-2.01,0.17-4.07-0.37-5.74-1.5c1.53,2.94,1.81,6.5,0.76,9.64
					c-1.05,3.14-3.41,5.82-6.39,7.26C120.9,260.17,121.14,257.89,121.13,255.62z"/>
				<g>
					<defs>
						<path id="SVGID_00000093157125122193601750000000303561340886943391_" d="M93.53,200.92c0.37-0.29,0.89-0.41,1.31-0.61
							c0.52-0.25,1.01-0.57,1.54-0.84c1.47-0.73,2.91-1.5,4.33-2.34c2.82-1.68,5.5-3.58,8.01-5.69c3.07-2.57,5.88-5.44,8.39-8.55
							c1.25-1.56,2.43-3.18,3.53-4.85c0.77-1.18,2.28-2.84,1.76-4.32c-0.2-0.56-0.62-1.02-1.1-1.38c-1.75-1.28-4-1.98-5.93-2.97
							c-1.98-1.02-3.92-2.13-5.79-3.33c-7.48-4.77-14.08-10.93-19.31-18.1c-8.31-11.39-13.14-25.29-13.67-39.38
							c-0.21-5.61-0.31-6.16,3.2-10.54c3.51-4.38,8.69-7.05,13.81-9.36c5.59-2.52,11.3-4.77,17.11-6.72
							c2.45-0.83,4.82-1.79,7.26-2.58c0.7-0.23,8.22-3.23,8.12-3.35c-3.41-4.13,1.3-9.12,4.24-11.83c1.11-1.02,2.49-2.06,4.01-2.32
							c0.74-0.12,1.49,0,2.1,0.46c0.15,0.12,1.43,1.62,1.03,1.77c0.68-0.25,1.43-0.36,2.15-0.22c0.71,0.14,1.39,0.54,1.8,1.14
							c0.46,0.68,0.38,1.38,0.34,2.16c1-0.35,2.18,0.08,2.85,0.9s0.89,1.95,0.75,3c-0.15,1.15-0.74,2.34-1.26,3.37
							c-0.81,1.62-1.8,3.12-3.18,4.3c-1.29,1.11-2.82,1.94-4.45,2.43c-1.45,0.43-3.08,0.56-4.44-0.11
							c-2.59,2.93-5.07,5.96-7.58,8.96c-4.97,5.93-10.08,11.95-16.28,16.65c-2.79,2.12-5.69,3.67-8.94,4.89
							c-2.01,0.75-3.75,1.51-5.95,1.61c-2.12,0.1-3.83-0.78-5.83-0.98c7.65,0.78,14.99,4.34,20.33,9.87
							c5.35,5.53,8.66,12.98,9.18,20.66c0.09,1.32,0.16,2.8,1.12,3.71c0.96,0.92,2.44,0.93,3.76,1.03
							c4.67,0.35,9.08,2.69,12.21,6.13c1.79,1.97,2.49,3.77,3.3,6.16c1.04,3.07,4.94,5.84,7.5,2.7c0.73-0.9,1.16-2,1.58-3.08
							c2.8,0.63,5.75,1.07,8.46,2.04c2.72,0.98,5.08,2.71,7.59,4.09c0.29,0.09-1.72,6.37-1.77,7.09c-0.14,2.15,1.26,4.09,3.07,5.14
							c2.06,1.19,4.49,1.49,6.79,2.09c6.66,1.75,12.37,6.17,16.82,11.43c3.08,3.64,5.62,7.69,7.98,11.83c1,1.76,1.84,4.09,3.29,5.48
							c1.55,1.49,3.83,2.27,5.46,3.71c3.27,2.88,5.89,6.48,7.96,10.3c0.44,0.81,0.86,1.63,1.25,2.47c1.57,3.38,3.56,6.46,4.72,10.06
							c0.85,2.66,1.44,5.44,2.84,7.85c1.24,2.14,2.9,3.27,5.1,4.22c2.1,0.9,3.89,2.3,5.88,3.51c3.93,2.41,8.04,4.52,12.28,6.31
							c-4.79,2.24-10.93,1.19-14.7-2.53c3.77,3.82,8.86,6.31,14.19,6.96c-5.65,1.62-12.08,0.18-16.5-3.7
							c3.88,3.78,8.2,7.1,12.85,9.88c-8.43,0.06-16.7-4.93-20.57-12.42c-0.2,3.94,1.81,7.62,3.77,11.05
							c-3.58-1.15-6.39-4.07-8.1-7.43c-1-1.96-1.66-4.08-2.11-6.23c-0.35-1.66-0.14-3.55-0.76-5.15c-0.64-1.64-2.02-2.37-3.41-3.42
							c-3.63-2.74-7.2-5.59-10.43-8.81c-2.67-2.67-5.11-5.59-7.08-8.82c-1.23-2.03-2.07-4.24-2.85-6.48
							c-0.68-1.94-0.79-4.19-2.51-5.53c-1.12-0.88-2.51-1.34-3.84-1.84c-5.92-2.22-11.52-5.63-16.4-9.64
							c-4.6-3.78-9.03-12.22-15.02-5.33c-2.12,2.43-4.71,4.11-7.49,5.7c-7.91,4.53-14.72,10.98-19.67,18.64
							c-3.38,5.22-11.95,5.72-16.91,1.96c-2.34-1.77-3.95-4.31-5.51-6.79c-1.46-2.32-2.93-4.63-4.38-6.96
							c-1.37-2.2-2.26-4.85-3.32-7.22c-0.2-0.46-0.41-0.96-0.27-1.44C93.21,201.24,93.35,201.06,93.53,200.92z"/>
					</defs>
					<clipPath id="SVGID_00000141440739931873438640000005593706756336884102_">
						<use xlink:href="#SVGID_00000093157125122193601750000000303561340886943391_"  style="overflow:visible;"/>
					</clipPath>
					<path style="clip-path:url(#SVGID_00000141440739931873438640000005593706756336884102_);fill:#41164A;" d="M163.27,177.85
						c-1.84,2.43-5.45,2.95-8.33,1.95c-2.88-1-5.16-3.21-7.17-5.51c-2.86-3.26-5.38-6.82-7.5-10.6c-0.54-0.97,0-1.35,0.76-2.16
						s1.96-1.1,3.07-0.97c1.11,0.13,2.14,0.62,3.1,1.18c1.91,1.11,3.63,2.51,5.34,3.9c3.18,2.58,6.37,5.17,9.55,7.75
						c0.67,0.54,1.35,1.11,1.71,1.89C164.16,176.06,163.78,177.16,163.27,177.85z"/>
				</g>
				<path class="st5" d="M162.65,171.08c2.37,2.82,1.98,7.26,0.12,10.3c-3.4,5.8-10.14,5.45-14.84,1.58
					c-1.74-1.43-3.76-2.64-6.08-2.89c-2.17-0.24-4.36,0.17-6.4,0.89c-1.47,0.52-3.02,1.02-4.6,0.93c-1.8-0.11-3.13-1.03-4.42-2.21
					c-3.35-3.08-3.69-9.6,0.84-11.8c1.53-0.77,3.64-0.48,5.08-0.4c0.71,0.03,1.21-0.05,1.67-0.23c1.3-0.6,1.95-2,3.06-3.14
					c1.32-1.4,3-2.35,4.72-2.84c1.72-0.51,3.5-0.61,5.2-0.39l0.01,0.33c-1.64,0.35-3.2,0.87-4.57,1.63
					c-1.37,0.76-2.53,1.75-3.35,2.93c-0.94,1.44-1.78,3.31-3.53,4.29c-1.76,1.09-3.95,0.79-5.65,0.82
					c-1.09-0.02-1.91,0.59-2.37,1.53c-1.07,2.4,0.47,5.28,2.54,6.64c2.79,1.5,6-0.15,9.02-0.52c3.52-0.68,6.85,1.36,9.81,2.88
					c3.14,1.48,7.35,2.39,10.23,0.08c2.82-2.43,4.46-6.33,3.23-10.25C162.36,171.24,162.65,171.08,162.65,171.08z"/>
				<g>
					<g>
						<g>
							<path class="st20" d="M194.31,128.66c-0.52,2.64-1.25,5.26-1.94,7.79c-1.08,3.96-2.39,7.86-3.91,11.68
								c-1.4,3.49-2.7,7.62-4.92,10.65c-1.95,2.66-4.62,4.67-7.25,6.65c-3.61,2.71-7.25,5.44-11.31,7.42
								c-1.91,0.93-4.03,1.71-6.12,1.35c-3.54-0.6-5.69-4.07-7.99-6.82c-2.42-2.88-5.45-5.28-7.42-8.49
								c-4.67-7.66-4.09-16.7-2.46-24.91c-3.82,0.18-7.17-1.76-10.01-4.84c-2.85-3.08-4.33-7.38-3.98-11.57
								c0.02-0.27,3.91-0.17,4.3-0.15c3.43,0.26,8.67,3.16,9.8,6.27c-1.07-4.03-0.63-8.92,0.74-13.14c0.58-1.8,1.34-4.23,2.76-5.54
								c1.58-1.45,3.31-2.86,5.17-3.95c8.34-4.91,19.62-4.66,28.3-0.8c5.33,2.37,9.99,6.19,13.41,10.9
								c1.68,2.31,2.92,4.45,3.34,7.26C195.32,121.82,194.98,125.26,194.31,128.66z"/>
							<g>
								<path class="st6" d="M169.44,123.99c-0.43,0.66-0.94,1.27-1.64,1.79c-1.72,1.27-3.91,1.97-6.05,1.68
									c0.19,0.02-0.64-3.19-0.72-3.44c-0.95-3.16-3.75-6.89-7.5-6.32c-5.04,0.77-6.74,7.39-4.7,11.44c-4-0.94-6.94-3.4-9.42-6.56
									c-1.66,0.58-3.18,1.12-4.55,2.26c-1.24,1.04-2.27,2.35-2.94,3.82c0.13-0.28-0.6-1.89-0.68-2.28
									c-0.17-0.82-0.26-1.65-0.27-2.48c-0.04-1.67,0.22-3.35,0.76-4.93c1.15-3.39,3.83-5.64,7.01-7.15
									c-0.99,0.47-3.63-0.97-4.47-1.45c-1.46-0.84-2.74-2-3.7-3.39c-1.79-2.58-3.33-5.48-2.89-8.72c0.35-2.55,1.79-4.94,3.88-6.45
									c-1.32,2.48-1.12,5.71,0.49,8.01c1.62,2.3,4.58,3.58,7.37,3.19c1.47-0.21,2.56-0.58,3.3-1.93c0.98-1.79,0.71-3.9-0.37-5.58
									c-1.11-1.74-3-2.35-4.34-3.82c-1.66-1.82-1.55-5.33-0.91-7.5c0.86-2.93,2.85-5.4,5.05-7.53c-0.29,0.28,0.66,2.62,0.8,2.99
									c0.41,1.08,0.94,2.11,1.57,3.08c1.23,1.88,2.85,3.51,4.73,4.75c0.93,0.61,1.94,0.98,2.91,1.5c1.03,0.55,1.92,1.29,2.99,1.82
									c2.54,1.26,5.28,2.21,8.1,2.6c4.85,0.67,9.87-0.08,14.33-2.09c1.93-0.87,3.47-1.59,4.21-3.61c0.82-2.24,1.09-4.74,2.59-6.68
									c1.72-2.24,4.8-3.08,7.61-2.81s5.44,1.47,8,2.65c-2.51-0.08-5.1,0.69-6.95,2.39c-1.85,1.7-2.83,4.39-2.2,6.82
									c0.64,2.43,3.05,4.36,5.55,4.16c1.69-0.14,3.21-1.16,4.24-2.5c1.03-1.34,1.62-2.97,2.03-4.61
									c3.57,5.78,0.06,13.63-4.59,17.63c2.67-2.3,7.52-2.07,10.55-0.7c1.89,0.86,3.63,2.02,5.15,3.43c0.76,0.7,1.46,1.47,2.1,2.29
									c0.41,0.53,1.05,2.09,1.58,2.39c-2.42-1.34-5.02-2.44-7.76-2.83c-2.74-0.39-5.65-0.02-8.02,1.4s-4.12,4-4.2,6.77
									c-0.05,1.86,1.05,4.63,2.77,5.58c1.79,1,4.46,0.5,5.96-0.79c1.53-1.32,2.21-3.56,1.67-5.5c2.17,2.89,2.62,6.98,1.11,10.27
									c-2.29,5.01-9.93,8.29-14.55,4.36c-0.71-0.6-1.2-1.49-1.83-2.18c-0.87-0.96-1.65-2-2.49-2.99
									c-2.44-2.85-5.48-5.29-9.05-6.54c-2.58-0.9-7.48-1.98-9.45,0.65C170.72,121.52,170.2,122.83,169.44,123.99z"/>
							</g>
							<g>
								<path class="st2" d="M169.13,144.67c2.59,1.65,5.92,2.11,8.86,1.2s5.44-3.14,6.66-5.97c-2.71-1.37-5.9-1.9-8.81-1.04
									S170.66,142.05,169.13,144.67z"/>
								<g>
									<defs>
										<path id="SVGID_00000150810767374763354450000001390116710370101928_" d="M169.13,144.67c2.59,1.65,5.92,2.11,8.86,1.2
											s5.44-3.14,6.66-5.97c-2.71-1.37-5.9-1.9-8.81-1.04S170.66,142.05,169.13,144.67z"/>
									</defs>
									<clipPath id="SVGID_00000051343787605104557980000005354803323467329722_">
										<use xlink:href="#SVGID_00000150810767374763354450000001390116710370101928_"  style="overflow:visible;"/>
									</clipPath>
									<path style="clip-path:url(#SVGID_00000051343787605104557980000005354803323467329722_);fill:#41164A;" d="M177.74,148.21
										c-0.09,0.12-0.19,0.23-0.29,0.34c-0.45,0.49-1.07,0.85-1.73,0.88c-0.55,0.02-1.1-0.2-1.49-0.6
										c-1.17-1.22-0.65-3.86-0.09-5.25c0.32-0.79,0.78-1.62,1.41-2.2c0.4-0.37,0.92-0.65,1.47-0.7c1.71-0.14,2.39,1.69,2.28,3.09
										C179.19,145.28,178.71,146.98,177.74,148.21z"/>
								</g>
							</g>
							<g>
								<defs>
									<path id="SVGID_00000111155477269942015580000006607710277252611744_" d="M162.22,143.67c-3.26,0.1-6.54-1.3-8.74-3.72
										c-2.19-2.42-3.26-5.82-2.83-9.06c3.22,0.22,6.41,1.47,8.61,3.84S162.24,140.44,162.22,143.67z"/>
								</defs>
								<clipPath id="SVGID_00000088825645606155017890000002420461332652817840_">
									<use xlink:href="#SVGID_00000111155477269942015580000006607710277252611744_"  style="overflow:visible;"/>
								</clipPath>
								<path style="clip-path:url(#SVGID_00000088825645606155017890000002420461332652817840_);fill:#FFFFFF;" d="M162.22,143.67
									c-3.26,0.1-6.54-1.3-8.74-3.72c-2.19-2.42-3.26-5.82-2.83-9.06c3.22,0.22,6.41,1.47,8.61,3.84S162.24,140.44,162.22,143.67z
									"/>
								<path style="clip-path:url(#SVGID_00000088825645606155017890000002420461332652817840_);fill:#41164A;" d="M158.08,143.84
									c-0.09,0.12-0.19,0.23-0.29,0.34c-0.45,0.49-1.07,0.85-1.73,0.88c-0.55,0.02-1.1-0.2-1.49-0.6
									c-1.17-1.22-0.65-3.86-0.09-5.25c0.32-0.79,0.78-1.62,1.41-2.2c0.4-0.37,0.92-0.65,1.47-0.7c1.71-0.14,2.39,1.69,2.28,3.09
									C159.52,140.91,159.04,142.61,158.08,143.84z"/>
							</g>
							<g>
								<path class="st6" d="M187.12,132.07c-3.59,4.28-10.7,5.3-15.33,2.17C177.11,134.53,182.09,133.83,187.12,132.07
									L187.12,132.07z"/>
							</g>
							<path class="st5" d="M155.44,120.08c-3.23-1.19-5.99-3.65-7.54-6.73s-1.89-6.75-0.93-10.06c-1.46,1.28-2.72,2.51-3.7,4.18
								s-1.57,3.62-1.4,5.56c0.25,3.01,2.38,5.72,5.13,6.98C149.74,121.27,152.63,121.2,155.44,120.08z"/>
							<g>
								<path class="st6" d="M153.91,122.92c3.28,4.2,7.09,7.48,11.71,10.13C160.03,133.17,154.6,128.46,153.91,122.92
									L153.91,122.92z"/>
							</g>
						</g>
						<path class="st5" d="M177.9,109.19c2.12-2.1,2.94-4.57,2.06-7.44c-0.53-1.74-1.41-4.48,0.75-5.55
							c1.32-0.65,2.99-0.36,4.17,0.53c1.18,0.89,1.9,2.29,2.19,3.74c1.23-2.04,1.29-4.75,0.14-6.84c-1.8-3.27-6.56-4.59-9.96-3.41
							c0.09-1.89,0.99-3.73,2.43-4.95c1.44-1.23,3.4-1.82,5.28-1.61c-2.6-1.81-6.07-2.29-9.07-1.27c-1.54,0.52-2.8,1.43-3.97,2.53
							c-1.2,1.12-2.17,2.08-2.42,3.82c-1.28-1.02-2.13-2.55-2.33-4.18c-0.14-1.2,0.09-2.41,0.52-3.53c0.45-1.17,1.11-2.26,1.91-3.22
							c0.27-0.33,0.56-0.64,0.86-0.93c0.15-0.14,0.3-0.28,0.45-0.41c0.14-0.12,0.33-0.23,0.45-0.37c-0.27-0.06-0.57-0.03-0.84-0.03
							c-0.31,0.01-0.63,0.02-0.94,0.04c-1.4,0.08-2.85,0.21-4.16,0.75c-0.55,0.23-1.08,0.51-1.58,0.84
							c-2.01,1.35-3.13,3.27-3.67,5.57c-0.29,1.25-0.79,2.37-2.15,2.76c-1.85,0.53-3.07-0.74-3.72-2.28
							c-0.25-0.58-1.23-3.36-0.64-3.89c-2.14,1.9-3.4,4.74-3.39,7.6c0.01,1.94,0.7,3.79,1.91,5.31c1.43,1.78,3.27,2.27,5.01,3.53
							c2.77,2.01,2,7.66-0.98,9.1c-1.68,0.81-3.89,0.32-5.07-1.13c0.47,0.59,0.63,1.49,1.15,2.12c0.61,0.73,1.38,1.32,2.22,1.75
							c1.52,0.77,3.49,1.12,5.1,0.55c3.66-1.29,6.51-4.82,7.01-8.66c2.87-0.05,5.71,1.52,7.2,3.98c1.48,2.46,1.55,5.71,0.17,8.22
							C175.28,111.34,176.71,110.36,177.9,109.19z"/>
						<path class="st5" d="M180.04,130.19c-4.11-1.91-8.21-5.42-6.83-10.47c0.55-2.02,2.03-3.77,3.92-4.66
							c2.17-1.02,4.35-0.42,6.54-0.97c1.91-0.47,3.78-1.65,4.77-3.37c1.08-1.86,1.15-4.26,0.2-6.19c0.3,0.61,1.44,1.25,1.9,1.85
							c0.49,0.63,1.05,1.42,1.37,2.16c0.76,1.77,0.85,4.24,0.57,6.12c-0.31,2.14-1.37,4.23-3.16,5.45c-1.19,0.82-2.62,1.2-4.01,1.57
							c-2.15,0.57-3.58,0.91-4.82,2.89c-0.52,0.83-0.83,1.78-0.92,2.76C179.54,127.75,179.5,130.03,180.04,130.19z"/>
						<path class="st25" d="M170.4,156.67c1.29,3.26-2.23,7.48-4.72,9.16c-1.53,1.03-3.5,1.55-5.26,0.99
							c-2.52-0.79-3.7-3.17-4.16-5.6c-0.24-1.27-0.32-2.57-0.34-3.86c-0.03-1.71-0.08-3.59,1.67-4.5c2.55-1.34,6.02-0.24,8.57,0.6
							c1.24,0.41,2.48,0.94,3.39,1.89C169.94,155.76,170.22,156.2,170.4,156.67z"/>
						<g>
							<defs>
								<path id="SVGID_00000052815866507095837180000007542529294348054145_" d="M170.4,156.67c1.29,3.26-2.23,7.48-4.72,9.16
									c-1.53,1.03-3.5,1.55-5.26,0.99c-2.52-0.79-3.7-3.17-4.16-5.6c-0.24-1.27-0.32-2.57-0.34-3.86
									c-0.03-1.71-0.08-3.59,1.67-4.5c2.55-1.34,6.02-0.24,8.57,0.6c1.24,0.41,2.48,0.94,3.39,1.89
									C169.94,155.76,170.22,156.2,170.4,156.67z"/>
							</defs>
							<clipPath id="SVGID_00000067917027382587472520000005102588148040714938_">
								<use xlink:href="#SVGID_00000052815866507095837180000007542529294348054145_"  style="overflow:visible;"/>
							</clipPath>
							<path style="clip-path:url(#SVGID_00000067917027382587472520000005102588148040714938_);fill:#FFFFFF;" d="M170.39,153.37
								c0.06,0.7,0.12,1.41-0.03,2.1c-0.15,0.69-0.53,1.36-1.16,1.68c-0.23,0.12-0.49,0.18-0.75,0.2c-0.25,0.02-0.57-0.05-0.78,0.07
								c-0.25,0.15-0.47,0.56-0.66,0.78c-0.23,0.28-0.47,0.55-0.7,0.83c-0.12-0.34-0.25-0.68-0.37-1.02
								c-0.1-0.26-0.16-0.72-0.34-0.93c-0.17-0.21-0.57-0.21-0.82-0.26c-0.37-0.07-0.75-0.14-1.12-0.23
								c-0.43-0.1-1.27-0.5-1.66-0.33c-0.26,0.11-0.53,0.45-0.74,0.63c-0.26,0.22-0.53,0.44-0.79,0.67
								c-0.22-0.62-0.41-1.26-0.65-1.88c-0.19-0.49-0.65-0.43-1.07-0.61c-0.46-0.19-0.86-0.51-1.14-0.93
								c-0.2-0.31-0.33-0.66-0.38-1.03c-0.06-0.4,0.07-0.76,0.07-1.15c0-0.86-0.03-1.72,0.44-2.49c2.28-1.01,4.86-0.45,7.1,0.66
								C166.79,151.11,168.59,152.17,170.39,153.37z"/>
							<path style="clip-path:url(#SVGID_00000067917027382587472520000005102588148040714938_);fill:#E47D7A;" d="M163.07,162.97
								c-1.41-0.99-3.24-1.36-4.93-1c-0.89,0.19-1.78,0.6-2.33,1.33c-1,1.3-0.61,3.33,0.58,4.46c1.19,1.13,2.97,1.46,4.6,1.23
								c1.05-0.14,4.56-0.9,4.64-2.09C165.73,165.48,164.11,163.7,163.07,162.97z"/>
						</g>
					</g>
					<path class="st25" d="M163.8,146.36c-0.11,0.37-0.24,0.74-0.47,1.05c-0.45,0.61-1.5,0.72-1.46,1.62
						c0.03,0.73,0.64,1.35,1.31,1.56c0.42,0.13,0.87,0.15,1.31,0.13c0.91-0.03,1.85-0.28,2.25-1.19c0.42-0.95,0.29-2.29,0.13-3.29
						c-0.08-0.5-0.2-1.01-0.51-1.4c-0.31-0.4-0.83-0.67-1.32-0.54c-0.42,0.11-0.72,0.48-0.89,0.87
						C164.01,145.54,163.92,145.95,163.8,146.36z"/>
				</g>
				<g>
					<path class="st25" d="M263.94,205.51c0.83,0.41,1.89,0.44,2.57-0.17c1.16-1.05,0.47-2.94-0.29-4.31
						c-1.35-2.42-2.51-5.3-4.33-7.36c-1.53-1.73-2.3-3.7-2.82-5.89c-0.35-1.46-0.85-2.81-1.72-4.05c-0.86-1.22-2.05-2.16-2.86-3.38
						c-0.86-1.28-1.62-2.58-2.63-3.76c-4.13-4.81-6.95-8.58-9.15-14.58c-1.47-4-4.08-6.6-6.76-9.74c-1.24-0.88-2.68-1.69-3.74-2.76
						c-3.07-3.08-6.1-6.24-8.6-9.82c-2.35-3.36-3.21-8.13-6.08-10.96c-2.42-2.39-5.39-4.11-8.34-5.81
						c-8.98-5.18-16.33-13.72-24.45-20.3c-1.58-1.28-3.17-2.55-4.78-3.81c-1.6-1.25-3.06-1.83-4.85-2.73
						c-1.59-0.8-3.07-1.81-4.4-2.98c-1.38-1.22-2.3-2.95-3.65-4.12c-1.34-1.16-3.13-2.09-4.6-3.11c-1.81-1.25-3.62-2.49-5.45-3.71
						c-7.52-5.06-15.18-9.93-23.03-14.47c-2.72-1.58-5.78-2.65-8.41-4.37c-4.16-2.72-7.54-6.27-11.93-8.66
						c-8.55-4.66-16.11-7.86-25.96-8.92c-4.31-0.46-8.52-1.52-12.7-2.64c-5.52-1.48-10.09-4.62-15.32-6.85
						c-2.8-1.19-6-0.59-8.98,0.03c-1.94,0.4-3.96,0.07-5.85-0.39c-1.06-0.26-2.11-0.58-3.15-0.92c-0.4-0.13-0.8-0.28-1.21-0.38
						c-0.39-0.09-0.75-0.28-1.15-0.34c-0.77-0.12-1.79,0.45-2.07,1.19c-0.19,0.5-0.35,0.99-0.39,1.52
						c-0.06,0.87-0.13,2.54,0.62,3.15c0.57,0.46,1.5,0.3,2.19,0.32c0.86,0.02,1.72,0.08,2.58,0.2c1.5,0.2,2.88,0.76,4.41,0.91
						c2.97,0.29,6,0.07,8.88,0.85c3.87,1.06,7.17,2.9,10.91,4.33c3.23,1.23,6.59,2.12,10.01,2.64c3.51,0.53,6.81,1.73,10.19,2.83
						c3.94,1.27,8.41,0.72,12.22,2.21c3.27,1.28,5.54,4.01,8.3,6.06c1.96,1.46,4.32,2.11,6.62,2.81c2.51,0.77,4.54,1.9,6.85,3.1
						c7.91,4.14,15.6,8.68,23.13,13.46c3.46,2.19,6.88,4.44,10.28,6.72c2.18,1.46,4.25,3.07,6.23,4.8c0.94,0.82,1.97,1.64,2.78,2.59
						c0.96,1.13,1.78,2.41,2.65,3.61c0.96,1.3,1.98,2.66,3.45,3.33c1.22,0.56,2.61,0.58,3.94,0.72c3.2,0.33,6.09,2.81,8.5,4.81
						c2.72,2.26,5.21,4.78,7.89,7.09c6.84,5.89,13.44,12.04,19.78,18.47c6.14,6.23,12.02,12.7,17.62,19.42
						c2.3,2.76,5.07,5.34,7.22,8.14c2.11,2.74,2.71,5.65,4.12,8.62c0.88,1.86,1.94,3.71,3.37,5.19c0.69,0.71,1.11,1.69,1.66,2.52
						c0.57,0.84,1.19,1.65,1.86,2.42c0.24,0.28,0.49,0.55,0.73,0.82c0.68,0.76,1.38,1.51,1.95,2.35c0.6,0.87,0.8,1.74,1.19,2.69
						c0.42,1.04,1.32,2.04,1.95,2.97c0.72,1.07,1.44,2.14,2.16,3.22c2.88,4.29,5.76,8.58,8.64,12.87c0.55,0.83,1.14,1.68,1.98,2.2
						C263.79,205.43,263.86,205.47,263.94,205.51z"/>
				</g>
				<path class="st25" d="M267.87,224.02c-0.17-0.02-0.31-0.15-0.39-0.3c-0.22-0.41-0.24-0.94-0.4-1.37c-0.24-0.7-0.5-1.4-0.77-2.09
					c-0.54-1.38-1.14-2.74-1.8-4.07c-1.3-2.67-2.82-5.23-4.53-7.66c-0.87-1.24-1.79-2.44-2.76-3.6c-0.86-1.03-1.81-2.18-1.71-3.52
					c0.09-1.26,1.1-2.25,2.15-2.95c2.11-1.41,4.7-2.18,7.24-2.12c2.61,0.06,3.33,1.39,4.21,3.67c1.94,5.04,2.48,10.6,1.61,15.93
					c-0.23,1.37-0.54,2.72-0.96,4.05c-0.36,1.14-0.79,2.26-1.21,3.38c-0.06,0.15-0.12,0.31-0.22,0.44c-0.1,0.13-0.25,0.23-0.42,0.22
					C267.9,224.02,267.89,224.02,267.87,224.02z"/>
				<line class="st28" x1="122.03" y1="77.78" x2="121.06" y2="76.63"/>
				<line class="st28" x1="129.78" y1="86.91" x2="128.42" y2="85.3"/>
				<path class="st20" d="M122.03,77.78l6.38,7.52c0.75-0.91,1.52-1.81,2.29-2.7c0.62-0.72,1.13-1.37,2.18-1.22
					c1.24,0.17,2.39,0.16,3.6-0.19c1.63-0.48,3.16-1.32,4.45-2.43c1.38-1.18,2.37-2.67,3.18-4.3c0.79-1.6,1.83-3.77,1.22-5.6
					c-0.64-1.92-2.65-3.86-4.24-5.02c-1.68-1.22-3.84-2.15-5.95-2.13c-1.8,0.02-3.53,1.31-4.79,2.48c-1.28,1.18-2.52,2.42-3.53,3.83
					c-0.69,0.97-1.28,2.04-1.54,3.22c-0.29,1.32,0.1,2.61-0.01,3.93c-0.06,0.74-0.48,1.48-1.18,1.77
					C123.4,77.22,122.72,77.5,122.03,77.78z"/>
				<path class="st6" d="M83.07,46.66c-0.16-3.18,2-6.34,5.02-7.34c-0.88,1.74-1.78,3.54-1.95,5.49c-0.17,1.95,0.57,4.11,2.27,5.06
					c1.71,0.95,4.33,0.08,4.65-1.85c0.21-1.23-0.49-2.42-1.32-3.35s-1.82-1.73-2.42-2.82c-1.37-2.5,0.16-6.09,2.91-6.83
					c-1.15,1.01-0.91,2.98,0.11,4.12c2.53,2.82,7.21,1.63,9.57,4.7c1.06,1.38,1.43,3.25,0.98,4.92c2.7-0.66,5.69,0,7.84,1.74
					c2.16,1.74,3.44,4.53,3.35,7.3c-0.84-1.89-2.47-3.42-4.42-4.13c-1.95-0.71-4.18-0.59-6.04,0.32c0.51-0.25,1.89,3.26,1.99,3.64
					c0.38,1.47,0.29,2.86-0.02,4.33c-0.53,2.54-2.7,4.96-5.57,4.19c1.88-1.06,2.89-3.51,2.19-5.55c-0.7-2.04-3.09-3.37-5.17-2.79
					c-2.08,0.58-3.44,3.06-2.72,5.1c-2.24-2.08-2.68-5.82-0.98-8.36C88.77,53.96,83.35,52.26,83.07,46.66z"/>
				<path class="st5" d="M99.29,47.41c-0.46-1.63-1.29-3.15-1.56-4.82c-0.38-2.36,0.49-4.89,2.23-6.53c1.75-1.64,4.33-2.33,6.66-1.8
					c-0.94,0.21-1.64,1.04-1.91,1.96s-0.17,1.91,0.04,2.84c0.21,0.93,0.54,1.84,0.71,2.79c0.41,2.21-0.06,4.57-1.28,6.47
					c-1.21,1.87-3.3,3.62-5.58,3.89C99.85,50.97,99.74,48.99,99.29,47.41z"/>
				<path class="st5" d="M269.52,208.31c0.91-0.66,1.98-1.14,2.93-1.75c1.27-0.8,2.39-1.83,3.18-3.11c1.41-2.32,2.1-5,1.47-7.69
					c-0.56-2.38-2.21-4.51-4.43-5.55c0.42,0.2,0.66,1.09,0.73,1.5c0.1,0.62-0.07,1.15-0.21,1.74c-0.31,1.29-0.92,2.41-2.1,3.11
					c-2.62,1.55-4.61,4.09-5.39,7.04c-0.44,1.68-0.46,3.5-0.21,5.21c0.11,0.76,0.34,1.5,0.69,2.19c0.18,0.35,0.39,0.69,0.62,1
					c0.13,0.18,0.67,0.6,0.7,0.8c-0.19-1.15,0.1-2.37,0.8-3.31C268.63,209.03,269.05,208.65,269.52,208.31z"/>
				<path class="st5" d="M117.06,144.15c-1.1-0.07-2.04,0.72-2.84,1.47c-2.73,2.56-5.28,5.3-7.66,8.19
					c-0.45,0.55-0.85,1.18-1.22,1.81c-0.35,0.6-0.87,1.29-0.9,2c-0.02,0.49,0.18,0.96,0.48,1.35c0.29,0.39,0.67,0.7,1.05,1.01
					c0.52,0.43,1.1,0.88,1.77,0.85c0.9-0.04,1.29-0.78,1.78-1.4c0.58-0.72,1.21-1.47,1.85-2.14c0.75-0.78,1.49-1.58,2.24-2.36
					c1.53-1.61,3.05-3.22,4.58-4.84c0.87-0.92,1.75-1.6,1.6-2.94C119.64,145.82,118.48,144.24,117.06,144.15z"/>
				<path class="st25" d="M197.58,204.03c-0.06-0.03-0.13-0.06-0.2-0.08c-1.03-0.36-1.93,0.34-2.73,0.89
					c-0.97,0.67-1.93,1.36-2.87,2.07c-1.47,1.11-2.91,2.26-4.31,3.46c-0.74,0.63-1.51,1.24-2.24,1.89
					c-0.55,0.49-1.73,1.33-1.51,2.22c0.08,0.31,0.31,0.4,0.55,0.57c0.26,0.19,0.5,0.4,0.71,0.64c0.27,0.3,0.51,0.64,0.7,1
					c0.19,0.38,0.3,0.77,0.66,1.03c0.38,0.28,0.92,0.27,1.35,0.09c0.72-0.3,1.23-0.96,1.84-1.43c2.79-2.17,5.59-4.35,8.38-6.52
					c0.75-0.58,1.83-1.09,2-2.13c0.11-0.65-0.25-1.29-0.6-1.85C198.86,205.21,198.36,204.4,197.58,204.03z"/>
				<path class="st5" d="M128.39,319.96c-1.04,0.02-2.01-0.91-2.86-1.42c-2.42-1.46-5.04-2.51-7.65-3.58
					c-1.08-0.44-2.08-0.63-3.19-0.94c-0.8-0.22-1.88-0.57-2.14-1.47c-0.13-0.43-0.04-0.9,0.11-1.33c0.28-0.8,0.82-1.53,1.57-1.91
					c1.31-0.66,2.87,0.29,4.1,0.78c1.69,0.67,3.38,1.35,5.06,2.02c1.53,0.61,3.07,1.22,4.49,2.06c0.73,0.43,1.77,0.67,2.32,1.36
					c0.51,0.63,0.54,1.72,0.34,2.49c-0.2,0.81-0.78,1.55-1.56,1.83C128.77,319.92,128.58,319.96,128.39,319.96z"/>
				<path class="st5" d="M120.88,343.94c-3.03,0.12-6.06-0.33-9.03-0.92c-0.51-0.1-1.02-0.23-1.45-0.52
					c-0.86-0.59-1.22-2.21-1.31-3.19c-0.05-0.57,0.05-1.19,0.4-1.64c1.02-1.32,4-0.58,5.37-0.37c1.88,0.29,3.77,0.58,5.65,0.87
					c1.2,0.18,3.17,0.05,4.08,0.95c0.62,0.62,0.67,1.6,0.68,2.48c0,0.65-0.04,1.39-0.55,1.79c-0.3,0.24-0.71,0.29-1.09,0.34
					C122.71,343.83,121.8,343.9,120.88,343.94z"/>
				<path class="st25" d="M22.32,211.45c-0.09,0.17-0.24,0.32-0.39,0.44c-0.9,0.73-2.06,1.3-3.13,1.73
					c-1.3,0.52-2.69,0.79-4.04,1.14c-0.38,0.1-0.8,0.19-1.14,0c-0.34-0.19-0.48-0.59-0.6-0.96c-0.15-0.48-0.3-0.99-0.17-1.47
					c0.13-0.47,0.52-0.8,0.98-0.93c0.49-0.14,0.98-0.32,1.47-0.5c1.37-0.49,2.75-0.98,4.12-1.47c0.55-0.2,1.02-0.28,1.55,0.02
					c0.35,0.2,0.63,0.49,0.91,0.77c0.27,0.28,0.57,0.62,0.51,1.01C22.38,211.31,22.36,211.39,22.32,211.45z"/>
				<path class="st25" d="M138.91,185.34c-0.86,3.43-5.93,7.62-9.35,8.54C130.93,190.74,135.79,186.34,138.91,185.34z"/>
			</g>
			<path class="st5" d="M181.56,73.28c0.92-2.11,0.9-4.64-0.54-6.76c-0.74-1.09-1.65-2.07-2.21-3.26c-0.56-1.19-0.7-2.7,0.09-3.75
				c-1.37,0.95-2.25,2.58-2.29,4.26c-0.03,1.26,0.39,2.48,0.83,3.66s0.89,2.38,0.94,3.64c0.06,1.43-0.7,4.7-3.85,6.51
				C177.74,77.93,180.39,75.94,181.56,73.28z"/>
			<path class="st6" d="M156.48,60.72c-1.28,1.37-1.11,3.58-0.37,5.31c0.74,1.72,1.96,3.23,2.61,4.99c0.65,1.76,0.57,4.03-0.91,5.18
				c0.6-1.04,0.04-2.27-0.91-3c-0.95-0.73-2.15-1.07-3.15-1.73c-1.98-1.3-3-3.9-2.45-6.2C151.85,62.96,154.13,60.99,156.48,60.72z"
				/>
			<path class="st6" d="M207.02,99.54c1.41-1.74,3.27-3.16,5.42-3.79c2.15-0.63,4.59-0.41,6.45,0.83c1.86,1.24,3.03,3.56,2.67,5.77
				c-1.58-2.13-4.19-3.34-6.84-3.44C212.07,98.81,209.58,98.86,207.02,99.54z"/>
			<path class="st5" d="M21.75,15.71c0.53-2.14,1.07-4.36,0.71-6.53s-1.85-4.33-4.02-4.74c-1.56-0.3-3.15,0.33-4.74,0.32
				C11,4.74,8.46,2.65,7.92,0c-2.11,2.61-1.33,7.32,1.4,9.27c1.42,1.01,3.19,1.37,4.91,1.62c1.72,0.25,3.49,0.41,5.09,1.11
				C20.92,12.69,21.48,13.99,21.75,15.71z"/>
			<path class="st6" d="M38.57,52.54c2.36,0.55,4.92,0.16,7.02-1.05c2.1-1.21,3.7-3.25,4.4-5.57c1.03,2.85-0.42,6.65-3.1,8.07
				C44.21,55.42,41.04,54.31,38.57,52.54z"/>
			<path class="st5" d="M127.03,113.15c-2.73-2.27-3.98-6.19-3.06-9.63c-2.06,1.1-3.16,3.85-2.57,6.11
				C121.99,111.89,124.69,113.2,127.03,113.15z"/>
			<path class="st6" d="M216.22,160.75c1.58-1.64,4.3-2.38,6.96-1.91c2.66,0.47,5.19,2.15,6.48,4.3c1.1-2.2,0.02-5.34-2.38-7.08
				c-2.41-1.74-5.98-2.02-8.19-0.63C217.23,156.6,216.63,158.7,216.22,160.75z"/>
			<path class="st25" d="M17.09,222.49c2.11,6.68,4.03,13.71,5.86,20.35c6.54,0.7,13.31-1.04,18.71-4.8
				c-0.77-3.09-1.9-6.15-3.4-9.24c-2.06-4.23-4.84-8.09-8.25-11.33c-0.33-0.31-0.66-0.61-0.99-0.9
				C24.65,217.57,20.52,219.61,17.09,222.49z"/>
			<path class="st25" d="M197.65,196.83c-0.7-2.05-2.35-3.75-4.38-4.51c-1.02-0.38-2.12-0.53-3.2-0.67
				c-1.78-0.24-3.57-0.48-5.35-0.71c0.85,1.77,2.42,3.08,4.06,4.16c1.64,1.08,3.4,2,4.88,3.28c0.82,0.71,1.55,1.54,2.07,2.49
				c0.34,0.62,0.5,1.73,1.44,1.29C198.59,201.52,198.02,197.92,197.65,196.83z"/>
			<path class="st25" d="M200.4,199.01c0.45-1.66,0.11-3.51-0.89-4.91c-0.51-0.7-1.16-1.29-1.81-1.86
				c-1.07-0.95-2.14-1.89-3.21-2.84c-0.22,1.54,0.23,3.1,0.83,4.54c0.6,1.44,1.35,2.82,1.77,4.32c0.23,0.83,0.34,1.7,0.26,2.56
				c-0.05,0.56-0.44,1.36,0.38,1.49C198.95,202.52,200.16,199.89,200.4,199.01z"/>
			<path class="st25" d="M197.39,206.92c0.52-0.03,1.03-0.23,1.42-0.57c0.52-0.46,0.81-1.13,1.01-1.79
				c0.17-0.56,0.29-1.17,0.17-1.74c-0.17-0.8-0.88-1.36-1.59-1.66c-0.75-0.32-1.76-0.57-2.47-0.04c-0.69,0.51-1.02,1.85-1.11,2.66
				c-0.07,0.67,0.03,1.38,0.37,1.96c0.36,0.6,0.98,1.03,1.67,1.15C197.03,206.92,197.21,206.93,197.39,206.92z"/>
			<path class="st5" d="M44.35,257.29c-0.86,3.92-1.72,7.85-2.59,11.77c-0.37,1.69-0.86,3.55-2.31,4.48
				c-1.6,1.02-3.72,0.49-5.46-0.28c-1.18-0.53-2.34-1.17-3.2-2.13c-0.86-0.96-1.4-2.28-1.16-3.55c0.22-1.14,1.01-2.08,1.78-2.95
				c2.38-2.72,4.76-5.44,7.13-8.17c1.04-1.19,2.69-3.41,4.55-2.7c0.61,0.23,1.3,0.82,1.47,1.48
				C44.71,255.84,44.48,256.69,44.35,257.29z"/>
		</g>
	</g>
	<path class="st1" d="M256.66,190.73c-1.07,0.53-2.39,0.7-3.44,0.13c-0.91-0.49-1.47-1.42-1.99-2.31c-0.9-1.55-1.81-3.1-2.71-4.65
		c-0.31-0.54-0.64-1.12-0.6-1.74c0.07-1.24,1.45-1.92,2.63-2.33c1.22-0.43,2.61-0.86,3.76-0.26c0.69,0.35,1.16,1.02,1.6,1.65
		c1,1.44,2,2.88,3.01,4.32c0.67,0.96,1.44,2.06,0.61,3.08C258.87,189.41,257.57,190.28,256.66,190.73z"/>
	<path class="st1" d="M245.93,182.77c-1.38,0.97-0.97,2.71-0.48,4.11c0.38,1.09,1.12,1.59,2.28,1.46c0.69-0.08,1.46,0.07,2.11-0.23
		c0.69-0.32,0.89-1.09,0.96-1.78c0.08-0.83,0.03-1.68-0.14-2.5c-0.08-0.39-0.13-0.7-0.45-0.95c-0.34-0.28-0.69-0.48-1.12-0.57
		c-0.51-0.11-1.02-0.05-1.52,0.04C246.96,182.47,246.47,182.4,245.93,182.77z"/>
	<path class="st1" d="M240.21,184.72c-0.34-1.14-0.08-2.36-0.2-3.55c-0.18-1.95-1.44-3.76-3.19-4.62c2.12,0.23,4.11,1.5,5.21,3.33
		c0.8,1.35,1.19,3.02,2.43,3.99c1.29,1.01,2.74,2.38,0.29,3.19C242.87,187.69,240.78,186.63,240.21,184.72z"/>
	<path class="st1" d="M243.74,184.59c-0.81-0.68-1.3-1.73-1.3-2.79c-0.01-1.75,1.16-3.29,0.48-5.03c-0.58-1.48-1.85-2.7-3.37-3.17
		c1.31-0.34,2.72-0.25,3.97,0.25c0.92,0.37,1.76,0.96,2.42,1.7c0.68,0.76,0.79,1.84,0.66,2.84c-0.16,1.23-0.81,2.46-0.49,3.66
		c0.22,0.8,1.71,2.55,0.72,3.31C246.06,185.96,244.33,185.09,243.74,184.59z"/>
	<g>
		<path class="st25" d="M172.34,153.07c-1.12-4.1,6.39-5.64,7.21-1.6C177.16,150.46,173.98,150.97,172.34,153.07L172.34,153.07z"/>
	</g>
	<g>
		<path class="st25" d="M155.77,149.94c-0.37-2.64-2.88-4.67-5.45-4.98C153.04,141.87,158.78,146.94,155.77,149.94L155.77,149.94z"
			/>
	</g>
</g>
</svg>
