<?xml version="1.0" encoding="utf-8"?>
<!-- Generator: Adobe Illustrator 27.0.1, SVG Export Plug-In . SVG Version: 6.00 Build 0)  -->
<svg version="1.1" id="Layer_1" xmlns="http://www.w3.org/2000/svg" xmlns:xlink="http://www.w3.org/1999/xlink" x="0px" y="0px"
	 viewBox="0 0 243.75 394.51" style="enable-background:new 0 0 243.75 394.51;" xml:space="preserve">
<style type="text/css">
	.st0{fill:#0A2B17;}
	.st1{fill:#0E8042;}
	.st2{fill:#FFFFFF;}
	.st3{fill:#1A3826;}
	.st4{fill:#3D1947;}
	.st5{fill:#ECA45C;}
	.st6{fill:#D53D3D;}
	.st7{clip-path:url(#SVGID_00000142174044785021365640000011082895305268633766_);}
	.st8{fill:#802420;}
	.st9{fill:#8C5443;}
	.st10{fill:#3C1948;}
	.st11{fill:none;stroke:#3C1948;stroke-linecap:round;stroke-linejoin:round;stroke-miterlimit:10;}
	.st12{clip-path:url(#SVGID_00000136376696080642719350000005849131614072781968_);}
	.st13{fill:#802421;}
	.st14{opacity:0.29;fill:#92C9E0;}
	.st15{clip-path:url(#SVGID_00000068640546687617887430000006496529510744757929_);fill:#FFFFFF;}
	.st16{clip-path:url(#SVGID_00000068640546687617887430000006496529510744757929_);fill:#D9807E;}
	.st17{opacity:0.29;fill:#92C9E0;stroke:#FFFFFF;stroke-width:5;stroke-miterlimit:10;}
	.st18{opacity:0.29;fill:#92C9E0;stroke:#FFFFFF;stroke-miterlimit:10;}
	.st19{opacity:0.29;fill:#92C9E0;stroke:#FFFFFF;stroke-width:3;stroke-miterlimit:10;}
	.st20{fill:#934F3E;}
	.st21{clip-path:url(#SVGID_00000097493614640286516920000003224061768933744828_);fill:#41164A;}
	.st22{clip-path:url(#SVGID_00000170246046070873475930000007490821287156724134_);fill:#41164A;}
	.st23{clip-path:url(#SVGID_00000139256777376233504410000006194615503210106278_);fill:#FFFFFF;}
	.st24{clip-path:url(#SVGID_00000139256777376233504410000006194615503210106278_);fill:#41164A;}
	.st25{fill:#41164A;}
	.st26{clip-path:url(#SVGID_00000079448103568636251700000015906432350876441016_);fill:#FFFFFF;}
	.st27{clip-path:url(#SVGID_00000079448103568636251700000015906432350876441016_);fill:#E47D7A;}
	.st28{fill:none;}
	.st29{fill:#E09F9E;}
	.st30{fill:#CB8080;}
	.st31{clip-path:url(#SVGID_00000065760087675068256070000007683901094429629843_);fill:#E09F9E;}
	.st32{fill:#3C1947;}
	.st33{fill:#EAC5B1;}
	.st34{clip-path:url(#SVGID_00000061434752535461772180000016217911706974670227_);fill:#CB8080;}
	.st35{fill:#0B8043;}
	.st36{fill:#DBDBDA;}
	.st37{clip-path:url(#SVGID_00000043448770864974290550000017234083784723286185_);fill:#C2C1C1;}
	.st38{clip-path:url(#SVGID_00000131352380641898657410000007979995384394002621_);fill:#C2C1C1;}
	.st39{clip-path:url(#SVGID_00000082358705146787919510000000067259396670863755_);}
	.st40{fill:#C2C1C1;}
	.st41{clip-path:url(#SVGID_00000069357773075495946920000004939982301202841261_);fill:#C2C1C1;}
	.st42{clip-path:url(#SVGID_00000104695583893026972900000013955028831662343351_);fill:#C2C1C1;}
	.st43{clip-path:url(#SVGID_00000020376649302011680100000003836234216307207870_);fill:#0B8043;}
	.st44{clip-path:url(#SVGID_00000095315843659931335190000011099752627003140028_);fill:#0B8043;}
	.st45{fill:#A55933;}
	.st46{fill:#803C26;}
	.st47{fill:#C64B45;}
	.st48{fill:#8B3A37;}
	.st49{clip-path:url(#SVGID_00000148621150681708676360000012437942698321791619_);}
	.st50{clip-path:url(#SVGID_00000075139513127548293810000013846463184762226834_);}
	.st51{clip-path:url(#SVGID_00000032629939682034585040000015352507241170168966_);}
	.st52{clip-path:url(#SVGID_00000182508602260341067580000007107324632708252805_);}
	.st53{clip-path:url(#SVGID_00000096035874137322340510000014286651618969679233_);}
	.st54{clip-path:url(#SVGID_00000017485888462929418420000004478780213739316904_);}
	.st55{clip-path:url(#SVGID_00000156580161903108179240000017083789804025209992_);fill:#41164A;}
	.st56{clip-path:url(#SVGID_00000131349712274173749320000000006347299166831039_);fill:#41164A;}
	.st57{clip-path:url(#SVGID_00000021108315366790972000000016163869811059897278_);fill:#FFFFFF;}
	.st58{clip-path:url(#SVGID_00000021108315366790972000000016163869811059897278_);fill:#41164A;}
	.st59{clip-path:url(#SVGID_00000004521731486553727420000006725369230357312669_);fill:#FFFFFF;}
	.st60{clip-path:url(#SVGID_00000004521731486553727420000006725369230357312669_);fill:#E47D7A;}
	.st61{fill:#C28F5D;}
	.st62{fill:#375A42;}
	.st63{clip-path:url(#SVGID_00000114070697692326532750000002511883696167609518_);fill:#6AA17A;}
	.st64{clip-path:url(#SVGID_00000123413467376641336740000010254513604143023018_);fill:#6AA17A;}
	.st65{fill:#6AA17A;}
	.st66{clip-path:url(#SVGID_00000116936111350917334940000000586745739896222374_);fill:#3D1947;}
	.st67{clip-path:url(#SVGID_00000005263700065918423370000017958672537435818173_);fill:#8B3A37;}
	.st68{clip-path:url(#SVGID_00000094600846679703515370000016912219875290649273_);}
	.st69{clip-path:url(#SVGID_00000042698158982640747750000011237145659732366752_);fill:#FFFFFF;}
	.st70{clip-path:url(#SVGID_00000042698158982640747750000011237145659732366752_);fill:#D9807E;}
	.st71{clip-path:url(#SVGID_00000152977779767518531390000002980774924423091338_);fill:#41164A;}
	.st72{clip-path:url(#SVGID_00000016044121754886559400000012938233073013305513_);fill:#41164A;}
	.st73{clip-path:url(#SVGID_00000142159324653501382970000018270878954352650925_);fill:#FFFFFF;}
	.st74{clip-path:url(#SVGID_00000142159324653501382970000018270878954352650925_);fill:#41164A;}
	.st75{clip-path:url(#SVGID_00000079452837343237198910000014725029794330679937_);fill:#FFFFFF;}
	.st76{clip-path:url(#SVGID_00000079452837343237198910000014725029794330679937_);fill:#E47D7A;}
	.st77{fill:#D2687C;}
	.st78{clip-path:url(#SVGID_00000176023978956429252800000010515377731705702283_);fill:#C64B45;}
	.st79{fill:#D1544C;}
	.st80{clip-path:url(#SVGID_00000133504586832076742370000009162622362961201033_);}
	.st81{clip-path:url(#SVGID_00000029006528766616069240000001693355958908742051_);}
	.st82{fill:#DADAD9;}
	.st83{clip-path:url(#SVGID_00000152259563657726513650000000326921234275201704_);fill:#0E8042;}
	.st84{clip-path:url(#SVGID_00000152259563657726513650000000326921234275201704_);fill:#1A3826;}
	.st85{clip-path:url(#SVGID_00000065038895791457159760000007384630340972055177_);fill:#0E8042;}
	.st86{clip-path:url(#SVGID_00000065038895791457159760000007384630340972055177_);fill:#1A3826;}
	.st87{fill:none;stroke:#0E8042;stroke-linecap:round;stroke-linejoin:round;stroke-miterlimit:10;}
	.st88{clip-path:url(#SVGID_00000137130251441597763550000014999230604289827203_);}
	.st89{clip-path:url(#SVGID_00000106128238271125568030000011945340923447395220_);fill:#0E8042;}
	.st90{clip-path:url(#SVGID_00000160906872720800468570000003144413286494393531_);fill:#0E8042;}
	.st91{clip-path:url(#SVGID_00000160906872720800468570000003144413286494393531_);fill:#1A3826;}
	.st92{clip-path:url(#SVGID_00000035501841109995365260000003506452683348454060_);fill:#0E8042;}
	.st93{clip-path:url(#SVGID_00000035501841109995365260000003506452683348454060_);fill:#1A3826;}
	.st94{clip-path:url(#SVGID_00000045603590004805004360000016652235679548608142_);fill:#0E8042;}
	.st95{clip-path:url(#SVGID_00000045603590004805004360000016652235679548608142_);fill:#1A3826;}
	.st96{clip-path:url(#SVGID_00000041974812197710370610000004953878299348998030_);fill:#0E8042;}
	.st97{clip-path:url(#SVGID_00000041974812197710370610000004953878299348998030_);fill:#1A3826;}
	.st98{clip-path:url(#SVGID_00000165940371608046636370000018320661743513291940_);}
	.st99{clip-path:url(#SVGID_00000109722797473868924300000002687898324739677615_);fill:#0E8042;}
	.st100{clip-path:url(#SVGID_00000109722797473868924300000002687898324739677615_);fill:#1A3826;}
	.st101{clip-path:url(#SVGID_00000136389226752268412310000015275527878044894080_);}
	.st102{clip-path:url(#SVGID_00000085952149095740875120000004191845174654833795_);fill:#FFFFFF;}
	.st103{clip-path:url(#SVGID_00000085952149095740875120000004191845174654833795_);fill:#D9807E;}
	.st104{clip-path:url(#SVGID_00000062871421370666539010000014585048883047805839_);fill:#41164A;}
	.st105{clip-path:url(#SVGID_00000030487414003720442730000000044593570752096394_);fill:#41164A;}
	.st106{clip-path:url(#SVGID_00000147940971931272422970000012012257534455293600_);fill:#FFFFFF;}
	.st107{clip-path:url(#SVGID_00000147940971931272422970000012012257534455293600_);fill:#41164A;}
	.st108{clip-path:url(#SVGID_00000121966483437748767710000004429801312620774844_);fill:#FFFFFF;}
	.st109{clip-path:url(#SVGID_00000121966483437748767710000004429801312620774844_);fill:#E47D7A;}
	.st110{clip-path:url(#SVGID_00000089551105068993445260000005816156347573191305_);fill:#E09F9E;}
	.st111{clip-path:url(#SVGID_00000178922947788235326990000003773485378226999208_);fill:#CB8080;}
	.st112{clip-path:url(#SVGID_00000141435075635658519930000002356821071360928908_);fill:#C2C1C1;}
	.st113{clip-path:url(#SVGID_00000074406869924399039790000004853269529677323400_);fill:#C2C1C1;}
	.st114{clip-path:url(#SVGID_00000064324585475092051270000008413626215322588555_);}
	.st115{clip-path:url(#SVGID_00000134210938638913064100000013762379818912392112_);fill:#C2C1C1;}
	.st116{clip-path:url(#SVGID_00000041976455676079435990000011092348764855350674_);fill:#C2C1C1;}
	.st117{clip-path:url(#SVGID_00000011750188046161002130000013033229983565251743_);fill:#0B8043;}
	.st118{clip-path:url(#SVGID_00000119098246321105974740000008813947597353585806_);fill:#0B8043;}
	.st119{clip-path:url(#SVGID_00000064347592346060513410000010332325186488029335_);}
	.st120{clip-path:url(#SVGID_00000105388844759618246780000018253842516264271285_);}
	.st121{clip-path:url(#SVGID_00000168837987964323239940000001524936353426081962_);}
	.st122{clip-path:url(#SVGID_00000003810455929149240060000017755334946757182382_);}
	.st123{clip-path:url(#SVGID_00000168807942661658334500000015493409909071153552_);}
	.st124{clip-path:url(#SVGID_00000004525712127463720570000009245940162411853996_);}
	.st125{clip-path:url(#SVGID_00000053540878296853780760000002130650813271107504_);fill:#0E8042;}
	.st126{clip-path:url(#SVGID_00000053540878296853780760000002130650813271107504_);fill:#1A3826;}
	.st127{clip-path:url(#SVGID_00000038393651963740839750000009528507926688897208_);}
	.st128{clip-path:url(#SVGID_00000044173499227515796290000017708736360446629262_);fill:#FFFFFF;}
	.st129{clip-path:url(#SVGID_00000044173499227515796290000017708736360446629262_);fill:#D9807E;}
	.st130{clip-path:url(#SVGID_00000147178918863922827890000006742552699924640175_);fill:#41164A;}
	.st131{clip-path:url(#SVGID_00000129901138555983106810000007654961112892794758_);fill:#41164A;}
	.st132{clip-path:url(#SVGID_00000134967620402730375940000015434680103337693835_);fill:#FFFFFF;}
	.st133{clip-path:url(#SVGID_00000134967620402730375940000015434680103337693835_);fill:#41164A;}
	.st134{clip-path:url(#SVGID_00000083800590542509253620000002721425485569240748_);fill:#FFFFFF;}
	.st135{clip-path:url(#SVGID_00000083800590542509253620000002721425485569240748_);fill:#E47D7A;}
	.st136{clip-path:url(#SVGID_00000139265191493242025160000018336884624359671721_);fill:#C64B45;}
	.st137{clip-path:url(#SVGID_00000041276407820778055540000017458514833169642932_);}
	.st138{clip-path:url(#SVGID_00000096738761119621140430000016071944146282378631_);}
	.st139{clip-path:url(#SVGID_00000019672249897370371600000006515930275014131344_);fill:#0E8042;}
	.st140{clip-path:url(#SVGID_00000019672249897370371600000006515930275014131344_);fill:#1A3826;}
	.st141{clip-path:url(#SVGID_00000164516432036864363750000000578578959907881091_);fill:#0E8042;}
	.st142{clip-path:url(#SVGID_00000164516432036864363750000000578578959907881091_);fill:#1A3826;}
	.st143{clip-path:url(#SVGID_00000008107671207461157800000016279547404321158281_);fill:#0E8042;}
	.st144{clip-path:url(#SVGID_00000008107671207461157800000016279547404321158281_);fill:#1A3826;}
	.st145{clip-path:url(#SVGID_00000155828002824370435550000005559914374919824319_);}
	.st146{clip-path:url(#SVGID_00000073001854256471829010000007384499250399023006_);}
	.st147{clip-path:url(#SVGID_00000005257546768018727770000005282504975797424773_);}
	.st148{clip-path:url(#SVGID_00000088850519876813607570000004363595114834893199_);}
	.st149{clip-path:url(#SVGID_00000021091572676849063980000004883744774796525728_);}
	.st150{clip-path:url(#SVGID_00000175283840501547561280000006760547240951160963_);}
	.st151{clip-path:url(#SVGID_00000098188787896811227850000001680193848643290802_);fill:#FFFFFF;}
	.st152{clip-path:url(#SVGID_00000098188787896811227850000001680193848643290802_);fill:#8B3A37;}
	.st153{fill:#DF9E9E;}
	.st154{fill:#C98080;}
	.st155{fill:#DFD5E2;}
	.st156{clip-path:url(#SVGID_00000174565267478747258380000008881185037532901780_);fill:#DF9E9E;}
	.st157{fill:#E9C4B0;}
	.st158{clip-path:url(#SVGID_00000121992709481876200400000008211113965292682678_);fill:#C98080;}
	.st159{clip-path:url(#SVGID_00000154421580013722401490000017798074279262236832_);fill:#C1C0C0;}
	.st160{clip-path:url(#SVGID_00000152265503112808580760000008523406505759157167_);fill:#C1C0C0;}
	.st161{clip-path:url(#SVGID_00000142864268125207514090000004217453729665495977_);}
	.st162{fill:#C1C0C0;}
	.st163{clip-path:url(#SVGID_00000063621256085933187700000016632768533477658035_);fill:#C1C0C0;}
	.st164{clip-path:url(#SVGID_00000076595920702576183570000005266499964676345266_);fill:#C1C0C0;}
	.st165{clip-path:url(#SVGID_00000152233871635366459260000018188854455252344967_);fill:#0E8042;}
	.st166{clip-path:url(#SVGID_00000021085593414943439980000001008571120486784689_);fill:#0E8042;}
	.st167{fill:#7F2420;}
	.st168{clip-path:url(#SVGID_00000073706219561712573830000015858116350739745452_);fill:#FFFFFF;}
	.st169{clip-path:url(#SVGID_00000073706219561712573830000015858116350739745452_);fill:#D8807E;}
	.st170{fill:#7F2421;}
	.st171{clip-path:url(#SVGID_00000098914093889094402390000017420130678279695755_);fill:#ECA45C;}
	.st172{clip-path:url(#SVGID_00000026121822938173072040000014523951894494470060_);fill:#0E8042;}
	.st173{clip-path:url(#SVGID_00000026121822938173072040000014523951894494470060_);fill:#1A3826;}
	.st174{clip-path:url(#SVGID_00000019655635424236625310000013824525822893747859_);fill:#0E8042;}
	.st175{clip-path:url(#SVGID_00000019655635424236625310000013824525822893747859_);fill:#1A3826;}
	.st176{clip-path:url(#SVGID_00000005251629771327497370000007856698949304463009_);fill:#0E8042;}
	.st177{clip-path:url(#SVGID_00000005251629771327497370000007856698949304463009_);fill:#1A3826;}
	.st178{clip-path:url(#SVGID_00000030480799608939727340000012483310205195171755_);fill:#0E8042;}
	.st179{clip-path:url(#SVGID_00000030480799608939727340000012483310205195171755_);fill:#1A3826;}
	.st180{clip-path:url(#SVGID_00000134248362778181256440000003684353298810130608_);fill:#0E8042;}
	.st181{clip-path:url(#SVGID_00000134248362778181256440000003684353298810130608_);fill:#1A3826;}
	.st182{clip-path:url(#SVGID_00000056407740018930091840000016776037766128151689_);fill:#0E8042;}
	.st183{clip-path:url(#SVGID_00000056407740018930091840000016776037766128151689_);fill:#1A3826;}
	.st184{clip-path:url(#SVGID_00000021112521857087190550000006391837415495674508_);fill:#0E8042;}
	.st185{clip-path:url(#SVGID_00000021112521857087190550000006391837415495674508_);fill:#1A3826;}
	.st186{clip-path:url(#SVGID_00000119108391278883758660000011212637670252385696_);fill:#0E8042;}
	.st187{clip-path:url(#SVGID_00000119108391278883758660000011212637670252385696_);fill:#1A3826;}
	.st188{clip-path:url(#SVGID_00000163060967658630507770000001551929007964611715_);fill:#0E8042;}
	.st189{clip-path:url(#SVGID_00000163060967658630507770000001551929007964611715_);fill:#1A3826;}
	.st190{clip-path:url(#SVGID_00000011016064975282845220000017913683004149351854_);fill:#0E8042;}
	.st191{clip-path:url(#SVGID_00000011016064975282845220000017913683004149351854_);fill:#1A3826;}
	.st192{clip-path:url(#SVGID_00000171699115691062429720000004419010288847773870_);fill:#0E8042;}
	.st193{clip-path:url(#SVGID_00000171699115691062429720000004419010288847773870_);fill:#1A3826;}
	.st194{clip-path:url(#SVGID_00000062175103310733089240000010379441876609141931_);fill:#0E8042;}
	.st195{clip-path:url(#SVGID_00000062175103310733089240000010379441876609141931_);fill:#1A3826;}
	.st196{clip-path:url(#SVGID_00000062902745373559349680000005003605396181048194_);fill:#0E8042;}
	.st197{clip-path:url(#SVGID_00000062902745373559349680000005003605396181048194_);fill:#1A3826;}
	.st198{clip-path:url(#SVGID_00000178170695348424166140000004555357524429144961_);}
	.st199{clip-path:url(#SVGID_00000057830246166320372610000006319615218483099274_);fill:#FFFFFF;}
	.st200{clip-path:url(#SVGID_00000057830246166320372610000006319615218483099274_);fill:#D9807E;}
	.st201{clip-path:url(#SVGID_00000063635345673188766660000017725701862478211482_);fill:#41164A;}
	.st202{clip-path:url(#SVGID_00000135673648701992692110000001852977550404579205_);fill:#41164A;}
	.st203{clip-path:url(#SVGID_00000070833512526124771350000001046477567809595829_);fill:#FFFFFF;}
	.st204{clip-path:url(#SVGID_00000070833512526124771350000001046477567809595829_);fill:#41164A;}
	.st205{clip-path:url(#SVGID_00000129924938864038903970000005358158244858076317_);fill:#FFFFFF;}
	.st206{clip-path:url(#SVGID_00000129924938864038903970000005358158244858076317_);fill:#E47D7A;}
	.st207{clip-path:url(#SVGID_00000093157145398585146740000009052423573359535520_);fill:#C64B45;}
	.st208{clip-path:url(#SVGID_00000106865378514811851470000013129733693048766614_);}
	.st209{clip-path:url(#SVGID_00000086651713821338865720000013968660777017121197_);}
	.st210{clip-path:url(#SVGID_00000038375635475740809000000012305408147833222305_);fill:#6AA17A;}
	.st211{clip-path:url(#SVGID_00000019673036561984045120000017778743793333286545_);fill:#6AA17A;}
	.st212{clip-path:url(#SVGID_00000121253732496935444250000004122678033002387388_);fill:#3D1947;}
	.st213{clip-path:url(#SVGID_00000075163704076251671760000017148625619981407144_);fill:#8B3A37;}
	.st214{clip-path:url(#SVGID_00000104669654541719872850000017955732819055257525_);}
	.st215{clip-path:url(#SVGID_00000081629995618117771740000005905811304427764890_);}
	.st216{clip-path:url(#SVGID_00000068671103891998717050000018283585858534080130_);}
	.st217{clip-path:url(#SVGID_00000020400785970638651620000012259250858743355807_);}
	.st218{clip-path:url(#SVGID_00000140706937729975228900000017348385208628557703_);}
	.st219{clip-path:url(#SVGID_00000132806516180207557890000004156809543622469506_);}
	.st220{clip-path:url(#SVGID_00000129924851943921215240000017870872515892042650_);fill:#FFFFFF;}
	.st221{clip-path:url(#SVGID_00000129924851943921215240000017870872515892042650_);fill:#8B3A37;}
	.st222{clip-path:url(#SVGID_00000132057111285133164980000004785057623288343199_);fill:#DF9E9E;}
	.st223{clip-path:url(#SVGID_00000086680261735317608660000000290724258872681900_);fill:#C98080;}
	.st224{clip-path:url(#SVGID_00000064343866356502035860000007513574578986103971_);fill:#C1C0C0;}
	.st225{clip-path:url(#SVGID_00000168812148859307813890000003472390313111453314_);fill:#C1C0C0;}
	.st226{clip-path:url(#SVGID_00000013904850407398077720000003107280986257156273_);}
	.st227{clip-path:url(#SVGID_00000181783792480843323230000005597896129202399657_);fill:#C1C0C0;}
	.st228{clip-path:url(#SVGID_00000084502511224298014590000017907330730803247236_);fill:#C1C0C0;}
	.st229{clip-path:url(#SVGID_00000133506286329215833930000003521290683301426594_);fill:#0E8042;}
	.st230{clip-path:url(#SVGID_00000170246378730612953800000000664209633748938908_);fill:#0E8042;}
	.st231{clip-path:url(#SVGID_00000173882954210445486390000008382914702907789758_);fill:#FFFFFF;}
	.st232{clip-path:url(#SVGID_00000173882954210445486390000008382914702907789758_);fill:#D8807E;}
	.st233{clip-path:url(#SVGID_00000016034492139230731620000010323896301392524943_);fill:#ECA45C;}
</style>
<g>
	<path class="st47" d="M80.52,232.74c-1.44,0.19-2.74,1.21-3.26,2.56c-0.02-2.3-0.06-4.63-0.71-6.82c-0.66-2.2-2.02-4.29-4.08-5.3
		c-2.06-1.02-4.84-0.69-6.27,1.11c1.82-0.21,3.8,0.49,4.85,1.99c1.05,1.51,0.91,3.82-0.51,4.98s-3.95,0.65-4.59-1.07
		c-1.18,2.5-2.37,5-3.55,7.49c3.38,0.1,6.91,0.24,9.85,1.9c1.99,1.12,3.55,2.87,4.88,4.72c0.52,0.72,1.84,1.81,2.34,0.47
		c0.31-0.82-0.63-2.76-0.73-3.63C78.41,238.25,79.03,235.24,80.52,232.74z"/>
	<path class="st5" d="M82.97,230.08c-1.95,1.96-3.24,4.58-3.58,7.33c-0.35,2.75,0.24,5.6,1.65,7.99c-2.11-0.72-3.96-2.19-5.15-4.08
		c-1.38-2.2-1.36-5.66,0.2-7.77c0.79-1.08,1.93-1.96,3.12-2.55c0.58-0.29,1.2-0.52,1.83-0.68
		C81.37,230.23,82.78,230.26,82.97,230.08z"/>
	<path class="st1" d="M62.06,237.46c3.52,3.72,7.06,3.56,11.73,4.64c2.74,0.64,3.29,3.78,4.4,6.01c0,0,12.7-4.01,13.89-4.34
		c5.02-1.38,10.07-2.67,15.06-4.18c0.07-0.03,0.15-0.04,0.23-0.07l-3.13-5.32c-1.08,0.37-2.15,0.76-3.22,1.16
		c-4.95,1.82-9.85,3.82-14.69,5.92c-1.65,0.71-3.28,1.44-4.92,2.18c-2.5,1.13-4.06,0.34-4.53-2.91c-0.24-1.68-0.72-3.25-1.21-4.88
		c-1.24-0.53-2.51-0.83-3.84-0.99c-1.31-0.16-2.49-0.34-3.83-0.13C65.61,234.92,63.89,235.97,62.06,237.46z"/>
	<path class="st47" d="M161.34,251.1c-0.62-1.65-1.96-3.07-3.58-3.83c3.17,0,6.78,1.33,8.79,3.87c-0.52-2.44,0.1-5.09,1.63-7.06
		c1.54-1.96,3.97-3.19,6.46-3.28c-1.84,0.92-3.28,2.62-3.87,4.59c-0.59,1.97-0.34,4.19,0.69,5.97c0.69,1.2,1.76,2.41,1.51,3.77
		c-0.19,0.97-1.03,1.7-1.93,2.11c-0.99,0.46-1.84,0.52-2.76,1.22c-0.84,0.64-1.56,1.43-2.12,2.32c-0.44,0.7-0.79,1.48-1.38,2.04
		s-1.56,0.88-2.26,0.43c-0.63-0.4-0.81-1.21-0.94-1.95c-0.3-1.73-0.45-3.49-0.18-5.23C161.66,254.5,161.93,252.68,161.34,251.1z"/>
	<path class="st47" d="M171.09,387.49c0.56-3.62-1.22-7.35-4-9.74c-1.13-0.97-2.42-1.76-3.54-2.75c-1.12-0.99-2.08-2.27-2.28-3.75
		c-0.22-1.65,0.57-3.32,1.75-4.49c1.18-1.17,2.72-1.92,4.27-2.54c-3.48-1.84-7.95-1.67-11.28,0.44c0.52-1.91,1.05-3.86,1.01-5.84
		c-0.04-1.98-0.74-4.04-2.28-5.29c-2.37-1.92-5.79-1.4-8.81-1.83c-4.8-0.69-9.06-4.26-10.59-8.86c-0.85,4.86,1.33,10.11,5.37,12.94
		c2.09,1.46,4.58,2.3,6.52,3.95c1.94,1.65,3.18,4.63,1.76,6.75c-1.18,1.76-3.78,2.12-5.7,1.23c-1.92-0.89-3.25-2.72-4.16-4.63
		c0.09,3.97,1.63,7.88,4.27,10.85c-4-0.74-7.5-3.73-8.86-7.56c-0.51,3.41,1.53,6.78,4.21,8.95s5.97,3.43,9.07,4.93
		c3.11,1.5,6.21,3.39,8,6.34c1.01,1.67,1.55,3.59,2.58,5.24C162.08,397.71,170.22,393.13,171.09,387.49z"/>
	<path class="st5" d="M66.08,278.67c-0.49,4.27-0.88,8.66,0.16,12.82c1.05,4.17,3.82,8.15,7.89,9.54c1.55,0.53,3.23,0.66,4.72,1.37
		c1.48,0.69,2.79,2.23,2.48,3.83c-0.47,2.35-3.78,2.97-4.83,5.12c-1.65,3.41,2.57,6.64,4.89,8.3c2.9,2.07,6.02,3.86,9.28,5.31
		c3.02,1.34,5.64,3.47,7.79,5.98c1.75,2.04,3.45,4.38,4.64,6.8c0.77,1.57,0.88,3.79,2,5.15c3.45,4.17,9.72-0.04,12.13-3.13
		c4.48-5.74,5.58-13.91,2.81-20.64c0.9,3.71-1.71,7.9-5.44,8.73c2.02-2.67,0.46-6.72-2.18-8.79c-3.48-2.73-8.1-2.84-10.08-7.34
		c-0.93-2.11-1-4.6-0.19-6.76c-3.76,1.61-6.07,6.05-5.26,10.06c0.15,0.74,0.4,1.47,0.43,2.23c0.02,0.76-0.22,1.58-0.85,2.01
		c-0.48,0.33-1.09,0.37-1.66,0.35c-3.56-0.15-6.91-2.57-8.18-5.9c-1.04-2.77-0.59-6.02,1.07-8.46l0.29-20.51
		c-1.45-0.85-2.71-2.04-3.43-3.55c-0.91-1.91-0.81-4.37,0.58-5.96c-2.96,0.88-5.5,3.07-6.8,5.86c-1.3,2.8-1.34,6.16-0.1,8.98
		c-0.39-0.74-3.38-1.79-4.2-2.1c-1.34-0.52-2.36-1.02-3.47-2.01C68.4,284.04,66.78,281.48,66.08,278.67z"/>
	<path class="st5" d="M162.75,378.5c1.23-0.89,2.26-2.02,3.03-3.33c0.97-1.65,1.07-3.89,1.19-5.77c1.51,1.97,2.34,4.47,2.3,6.96
		c-0.08,4.95-4.09,11.11-9.69,10.35c-1.65-0.22-3.14-1.09-4.57-1.93c-0.61-0.36-3.7-1.66-3.71-2.4c-0.01-0.97,1.86-0.98,2.51-1.03
		c3.08-0.24,6.26-0.95,8.83-2.76C162.67,378.56,162.71,378.53,162.75,378.5z"/>
	<path class="st5" d="M160.62,253.04c-1.82-0.81-3.94-1.23-5.8-0.51s-3.25,2.85-2.6,4.73c-0.02-0.07,0.2-0.33,0.24-0.39
		c0.12-0.17,0.25-0.32,0.39-0.47c0.22-0.22,0.53-0.44,0.8-0.6c0.61-0.34,1.35-0.4,2.03-0.25c2.15,0.48,3.68,2.49,4.58,4.37
		c0.84,1.76,1.33,3.65,1.84,5.52c0.02,0.09,0.24,0.63,0.19,0.69c1.01-1.34,2.5-2.8,3.51-4.14c0.44-0.58,1.28-1.33,1.53-2.01
		c0.27-0.73,0.01-1-0.46-1.69C165.33,256.01,163.15,254.16,160.62,253.04z"/>
	<path class="st5" d="M148.2,369.5c-0.75-3.32-4.23-2.62-6.54-4.81c-2.02-1.92-3.24-4.55-5.03-8.7c-0.26,4.42,0.29,9.01,2.4,12.9
		c1.65,3.05,4.36,5.64,7.65,6.83c1.22,0.44,3.41,1.1,4.71,0.71c1.68-0.49,0.96-2.6-0.04-3.49
		C150.07,371.79,148.62,371.4,148.2,369.5z"/>
	<path class="st4" d="M155.36,211.72c-0.06,11.32-0.13,22.63-0.19,33.95c-0.03,5.07-0.18,10.15,0.11,15.22
		c0.15,2.54,0.41,5.08,0.85,7.59c0.22,1.27,0.5,2.53,0.82,3.78c0.29,1.12,0.96,2.04,1.3,3.15c0.15,0.5,0.26,1.02,0.3,1.54
		c0.11,1.34-0.25,2.75-1.13,3.78c-0.88,1.02-2.33,1.58-3.63,1.25c-1.08-0.28-2.05-0.65-3.19-0.64c-0.63,0-1.3,0.1-1.79,0.5
		c-0.69,0.56-0.69,2.09-0.86,2.92c-0.28,1.4-0.42,2.83-0.49,4.25c-0.13,2.82,0.06,5.64,0.14,8.46c0.14,5.6,0.28,11.21,0.42,16.81
		c0.26,10.38,0.83,20.74,1.38,31.11c0.28,5.24,0.55,10.47,0.76,15.71c0.15,3.67-0.24,8.99,2.48,11.87c1.65,1.75,4.23,2.36,5.88,4.12
		c4.17,4.45-0.2,12.74,3.71,17.42c-6.14-1.19-11.98-3.92-16.82-7.87c-0.96-0.79-1.94-1.7-2.2-2.92c-0.3-1.4,0.42-2.79,0.85-4.16
		c0.67-2.1,0.67-4.35,0.67-6.56c-0.01-9.72-0.01-19.44-0.02-29.15c0-2.14-0.01-4.29-0.01-6.43c-0.04-11.28-0.14-22.56-0.29-33.84
		c-0.07-5.64-0.16-11.28-0.25-16.92c-0.05-2.82-0.1-5.64-0.15-8.46c-0.03-1.41-0.05-2.82-0.08-4.23c-0.02-1.15-0.27-2.59,0.42-3.6
		c0.35-0.5,0.92-0.86,1.53-0.87c1.19-0.02,1.75,1.41,2.92,1.56c1.01,0.13,1.93-0.76,2.19-1.75c0.26-0.99,0.03-2.03-0.2-3.02
		c-3.47-14.73-8.08-29.27-9.6-44.32c-0.28-2.76-0.45-5.58,0.27-8.26s2.45-5.22,5.03-6.24C149.04,206.45,155.37,208.95,155.36,211.72
		z"/>
	<path class="st5" d="M71.11,105.81c-2.96,3.11-4.53,7.31-5.4,11.52c0.19-2.32-1.6-4.59-3.87-5.11c-2.27-0.52-4.78,0.65-5.99,2.64
		c-1.21,1.99-1.13,4.65,0.05,6.66c1.18,2.01,3.36,3.35,5.67,3.67c-3.43,0.3-7.06-0.36-9.8-2.44c-2.74-2.09-4.39-5.77-3.49-9.09
		c0.88-3.27,3.87-5.51,6.84-7.14c4.03-2.22,8.41-3.8,12.92-4.71c1.55-0.31,12.81-1.92,12.74-0.2
		C77.04,101.89,73.78,103.01,71.11,105.81z"/>
	<path class="st5" d="M64.38,81.93c-1.03,2.08-1.41,4.49-1.06,6.79c-0.05-0.32-1.57-1.29-1.86-1.57c-0.65-0.63-1.25-1.31-1.83-2.01
		c-1.12-1.37-2.38-2.91-3.19-4.49c-1.56-3.03-4-5.97-6.73-8.05c-4.45-3.38-10.61-4.37-15.89-2.54c2.08-0.14,4.26,0.45,5.78,1.88
		c1.51,1.43,2.22,3.77,1.46,5.71c-1.36,3.45-5.74,4.08-8.61,2.22c-1.49-0.96-2.56-2.54-2.92-4.27c-0.43,2.27-0.36,4.6-0.15,6.89
		c0.21,2.16,0.48,4.08-0.07,6.22c-0.89,3.5-3.88,6-6.69,8.26c4.1,0.79,8.41,0.39,12.3-1.13c3.05-1.2,5.81-3.07,8.86-4.27
		c3.05-1.2,6.65-1.67,9.51-0.05c1.84,1.04,3.14,2.8,4.67,4.24c2.83,2.66,6.49,4.19,10.29,4.81c3.68,0.61,7.64,1.26,11.2-0.13
		c1.45-0.57,1.62-2.17,0.23-3c-0.44-0.27-0.95-0.41-1.44-0.56c-5.12-1.61-9.24-4.95-11.79-9.66C65.98,86.36,63.91,82.87,64.38,81.93
		z"/>
	<path class="st47" d="M104.33,25.16c-4.98-3.01-8.87-8.11-9.55-13.89c0.81,0.98,1.64,1.98,2.71,2.65s2.47,0.98,3.63,0.47
		c1.09-0.47,1.81-1.6,1.97-2.77c0.16-1.17-0.18-2.38-0.76-3.4c-1.91-3.35-6.63-4.74-10.04-2.94c0.64-3.11,3.84-5.29,7.01-5.35
		c3.18-0.05,6.19,1.69,8.28,4.09c2.09,2.39,3.38,5.37,4.41,8.38c1.04,3,1.86,6.09,3.18,8.98c0.84,1.84,1.9,3.61,3.27,5.11
		c1.48,1.61,2.72,2.84-0.46,2.64C113.23,28.81,108.45,27.64,104.33,25.16z"/>
	<path class="st47" d="M169.85,17.63c-1.41-1.07-2.69-2.49-2.98-4.23c-0.35-2.08,0.96-4.32,2.94-5.04c-1.59-0.61-3.46-0.2-4.84,0.81
		s-2.28,2.56-2.78,4.19c-0.49,1.63-0.59,3.35-0.6,5.06c0-1.1-1.22-2.7-1.85-3.54c-0.83-1.1-1.84-2.07-2.97-2.86
		c-2.37-1.63-5.64-2.49-8.51-2.33c2.93,0.9,4.57,4.64,3.31,7.43c-1.27,2.79-5.11,4.02-7.79,2.53c-2.68-1.49-3.67-5.34-2.09-7.97
		c-3.17,1.57-4.44,5.77-3.33,9.12s4.12,5.82,7.43,7.05c3.65,1.37,7.4,1.06,11.17,1.62c3.83,0.57,7.7,1.09,11.58,0.94
		c2.47-0.09,5,0.06,7.43-0.48c0.6-0.13,1.25-0.34,1.58-0.87c0.26-0.41,0.26-0.93,0.22-1.41c-0.17-2.13-1.02-4.2-2.37-5.86
		c-1.44-1.76-3.71-2.78-5.51-4.14C169.88,17.65,169.86,17.64,169.85,17.63z"/>
	<path class="st47" d="M80.11,127.9c0.4-3.44,3.28-6.23,6.56-7.32s6.89-0.72,10.23,0.15c3.35,0.88,6.55,2.24,9.88,3.17
		c3.33,0.93,6.91,1.41,10.24,0.47c-3.82-1.33-7.02-4.34-8.59-8.07c3.11,4.04,9.19,5.35,13.78,3.12c4.58-2.23,7.3-7.66,6.54-12.7
		c-0.76-5.04-4.83-9.36-9.77-10.63c3.83,2.96,4.44,9.26,1.25,12.9c-0.01-6.44-6.14-11.37-12.38-12.98
		c-5.56-1.44-11.42-0.84-16.89-2.54c-5.4-1.68-10.26-5.19-13.34-9.96c-1.47,4.87-1.34,10.2,0.36,14.99
		c-5.24-1.17-11.47-2.19-15.83-5.5c-3.68-2.78-5.89-7.13-9.79-9.66c-2.98-1.93-6.73-2.54-10.22-1.89c-3.49,0.66-6.7,2.54-9.16,5.09
		c-3.6,3.74-6.87,7.02-11.89,8.87c-3.7,1.37-8.51,0.77-10.65-2.55c-0.54,4.17,3.02,8.02,7.07,9.13s8.37,0.13,12.36-1.18
		c3.99-1.32,7.94-2.98,12.13-3.25c4.19-0.27,8.82,1.19,10.97,4.8c-4.58,0.88-9.44,0.28-13.67-1.69c0.99,5.59,7.3,8.86,12.97,8.71
		c5.68-0.15,10.95-2.75,16.26-4.77c5.31-2.02,11.32-3.46,16.58-1.33c1.19,0.48,2.43,1.29,2.68,2.56c0.31,1.58-1.17,3.06-2.75,3.35
		s-3.19-0.26-4.7-0.8c3.5,3.51,9.28,4.49,13.73,2.31c-3.08,3.66-8.36,4.31-13.08,5.06c-4.73,0.75-10.06,2.39-11.93,6.79
		c-1.76,4.14,0.58,9.15,4.27,11.72c1.67,1.16,3.56,1.93,5.52,2.44c1.74,0.45,3.96,1.08,5.7,0.45c0.32-0.11,0.66-0.24,0.86-0.51
		c0.26-0.34,0.22-0.84,0.01-1.22c-0.65-1.16-1.99-1-2.91-1.75C80.82,132.37,79.86,130.04,80.11,127.9z"/>
	<path class="st47" d="M108.1,331.08c0.19-0.99,0.44-1.97,0.78-2.92c0.66-1.8,1.72-3.49,3.29-4.58c1.57-1.09,3.69-1.49,5.44-0.72
		c-0.79-0.85-1.43-1.22-2.23-1.63c-0.84-0.43-1.73-0.68-2.67-0.81c-1.96-0.28-3.94,0.02-5.65,1.03c-0.37-2.29-1.94-4.35-4.04-5.34
		c-2.1-0.99-4.67-0.91-6.72,0.18c2,0.17,3.92,1.12,5.26,2.62c1.34,1.49,2.08,3.51,2.03,5.51c-0.03,1.23-0.38,2.51-1.21,3.42
		s-2.21,1.38-3.36,0.93c-0.1,0.64,0.25,1.29,0.74,1.72c0.49,0.43,1.11,0.67,1.71,0.91c0.96,0.38,1.92,0.76,2.88,1.15
		c0.45,0.18,0.99,0.31,1.4,0.57c0.37,0.23,0.62,0.44,1.1,0.35C108.07,333.23,107.92,331.99,108.1,331.08z"/>
	<path class="st47" d="M81.73,321.8c-1.11,0.19-2.21,0.26-3.29-0.22c-0.99-0.44-1.76-1.29-2.26-2.25c-0.5-0.96-0.75-2.03-0.9-3.1
		c-1.08,1.83-1.42,4-0.64,5.99c0.8,2.06,2.45,3.78,4.46,4.72c1.92,0.91,4.13,0.88,6.18,0.52c2.12-0.38,4.15-0.35,6.16,0.58
		c1.74,0.8,3.21,2.24,3.87,4.04c0.55-2.79-0.29-5.83-2.21-7.94c-1.37-1.51-3.26-2.51-5.26-2.86c-1.61-0.28-3.26,0-4.86,0.29
		C82.56,321.65,82.15,321.73,81.73,321.8z"/>
	<path class="st4" d="M228.05,214.01c-0.06,2.41-2.35,4.05-4.09,5.71c-3.31,3.17-5.07,7.51-5.84,11.95
		c-0.41,2.32-0.57,4.66-0.59,7.02c-0.03,2.17-0.19,4.68,0.29,6.8c0.22,0.99,0.45,1.73,0.2,2.77c-0.24,0.97-0.73,1.86-1.26,2.71
		c-0.6,0.97-1.35,2-2.46,2.29c-1.01,0.26-2.09-0.14-2.95-0.74c-0.86-0.61-1.59-1.38-2.44-1.99c-1.47-1.04-3.27-1.51-5.07-1.64
		c-1.79-0.13-3.58,0.06-5.37,0.25c-4.4,0.47-8.89,0.75-13.29,0.74c-2.86,0-6.76,1.18-7.67,4.24c-0.62,2.11,0.35,4.59,2.25,5.71
		c-6.06,1.82-11.69,5.08-16.26,9.44c-0.12,0.11-1.53-3.92-1.59-4.32c-0.26-1.57-0.21-3.2,0.15-4.75c0.73-3.22,3.04-5.43,6.07-6.61
		c2.25-0.88,4.67-1.18,7.06-1.48c0.12-0.01-0.05-1.69-0.07-1.86c-0.05-0.68-0.14-1.37-0.34-2.03c-0.2-0.68-0.61-1.29-0.74-1.99
		c-0.14-0.81,0.11-1.75,0.81-2.17c0.65-0.4,1.47-0.26,2.23-0.15c3.9,0.61,7.88,0.34,11.79-0.04c3.98-0.39,7.98-0.69,11.95-1.11
		c0.05-0.01,0.09-0.01,0.13-0.01c1.74-0.19,3.49-0.39,5.24-0.59c1.09-0.12,2.26-0.27,3.08-1c1.11-0.97,1.24-2.62,1.28-4.09
		c0.17-6.74,0.05-13.49-0.37-20.23c-12.26,2.05-25.03,2.17-37.44,1.59c-7.2-0.34-14.38-1.3-21.37-3.09
		c-6.53-1.67-13.68-3.95-18.89-8.43c-0.74-0.63-1.45-1.37-1.74-2.31c-0.29-0.93-0.07-2.08,0.76-2.62c0.84-0.55,1.95-0.29,2.94-0.15
		c2.2,0.31,4.51-0.1,6.47-1.16c-6.56-6.07-12.99-12.28-19.29-18.63c0.2,4.52-2.47,9.91-5.01,13.54c-1.34,1.92-3.1,3.69-5.34,4.4
		c-2,0.62-4.16,0.34-6.21-0.07c-4.15-0.81-8.22-2.11-12.07-3.84c0.15,1.35,0.31,2.71,0.47,4.07c1,8.72,1.64,17.47,2.82,26.17
		c1.49,10.95,5.47,21.34,7.03,32.23c0.14,1,0.26,2.03,0.03,3.02c-0.81,3.31-5.28,1.76-6.85,5.06c-0.78,1.64-0.88,3.51-0.95,5.32
		c-0.75,16.43-1.47,32.96,0.48,49.29c0.44,3.69,6.48,2.79,9.22,5.29c2.36,2.17,2.69,5.74,2.6,8.95c-0.09,3.2-0.4,6.61,1.14,9.43
		c-8.06,0.18-16.01-4.85-19.3-12.22c2.04-3.05,4.13-6.95,2.36-10.16c-0.58-1.06-1.51-1.88-2.11-2.92c-1.04-1.82-0.92-4.07-0.76-6.16
		c0.08-1.01,0.16-2.03,0.24-3.04c0.64-8.46,1.3-16.92,1.94-25.39c0.32-4.23,0.65-8.46,0.97-12.69c0.3-4.02,0.29-7.83,0.27-11.84
		c0-0.65,0.04-1.41,0.56-1.81c0.72-0.57,1.79-0.03,2.68-0.23c0.85-0.19,1.42-1.04,1.55-1.9c0.38-2.38-0.75-5.09-1.45-7.32
		c-0.89-2.78-1.82-5.55-2.78-8.31c-1.3-3.7-2.69-7.54-4.07-11.27c-1.37-3.77-3.07-7.59-4.05-11.48c-1.91-7.64-3.82-15.25-5.11-23.03
		c-0.58-3.54-1.07-7.09-1.46-10.66c-0.12-1.09-0.24-2.21,0.08-3.26c0.32-1.05,1.17-2,2.26-2.11c1.61-0.15,2.75,1.45,3.65,2.78
		c3.38,4.97,8.41,8.81,14.11,10.76c0,0,14.87-20.35-5.27-28c0,0,9.81,10.35,2.87,19.5c-2.39-4.72-6.2-8.97-9.69-12.97
		c-5.46-6.27-11.31-12.99-12.31-21.24c-0.62-5.16,0.84-10.56,3.99-14.7c3.15-4.14,7.96-7,13.1-7.77c9.13-1.37,17.92,3.51,25.87,8.21
		c12.53,7.41,25.06,14.83,37.6,22.25c-2.65-7.84-6.1-16.29-8.75-24.12c10.19-3.97,22.57-1.59,30.56,5.88
		c4.79,4.48,7.92,10.42,10.72,16.35c3.21,6.79,6.08,13.74,8.62,20.8c1.6,4.42,3.07,9.16,2.01,13.74c-1.04,4.52-4.49,8.22-8.55,10.48
		c-1.96,1.1-4.04,1.9-6.2,2.52c1.35-2.27,3.23-5.07,3.72-7.37c2.08-9.8-0.7-24.45-13.56-27.65c4.63,3.86,7.71,9.79,8.26,16.13
		c0.59,6.72-1.16,12.96-5.49,20.37h0.01c13.57,3.99,27.88,5.46,41.97,4.28c2.08-0.17,4.23-0.4,6.22,0.25
		C226.3,210.16,228.11,211.92,228.05,214.01z"/>
	<path class="st5" d="M182.66,147c0.31,2.02-0.33,4.16-1.69,5.67c-2.1,2.33-5.61,2.97-8.67,2.31c-3.06-0.66-5.77-2.43-8.28-4.31
		c-6.82-5.13-12.12-10.72-18-16.91c2.12-0.79,5.11-0.99,6.91-2.27c1.79-1.27,2.7-3.94,2.56-6.05c0.35,0.81,0.72,1.64,1.32,2.29
		s1.45,1.13,2.33,1.06c1.4-0.11,2.4-1.64,2.23-3.03c-0.16-1.39-1.25-2.55-2.52-3.14s-2.71-0.71-4.11-0.73
		c1.8-0.66,3.76-1.1,5.65-0.75c1.89,0.34,3.7,1.61,4.26,3.44c0.38,1.24,0.09,2.55,0.23,3.81c0.15,1.37,0.45,2.6,1.33,3.7
		c1.21,1.51,2.99,1.87,4.62,2.73c1.9,1,3.69,2.2,5.35,3.57C178.78,140.51,182.13,143.51,182.66,147z"/>
	<path class="st47" d="M172.91,152.16c2.36,0.51,4.68-0.05,5.91-1.42c0.79-0.87,1.16-2.14,0.98-3.3c-0.41-2.67-3.94-5.58-5.45-6.83
		c-3.28-2.71-7.16-4.67-11.24-5.69l-0.29-0.07c-3.58-0.85-7.3-0.77-11.51,0.28c4.65,4.84,9.03,9.17,14.44,13.23
		c1.99,1.49,4.35,3.1,6.84,3.72C172.59,152.08,172.8,152.13,172.91,152.16z"/>
	<path class="st1" d="M173.51,149.33c1.46,0.32,2.72-0.04,3.16-0.53c0.21-0.23,0.32-0.62,0.28-0.93c-0.14-0.91-0.94-1.74-1.54-2.38
		c-0.72-0.77-1.5-1.48-2.31-2.17c-0.92-0.79-1.85-1.6-2.84-2.31c-2.67-1.91-5.65-2.97-8.86-3.53c-1.34-0.23-2.68-0.36-4.04-0.33
		c3.34,3.32,6.49,6.15,10.13,8.88c1.75,1.32,3.81,2.73,5.78,3.22L173.51,149.33z"/>
	<path class="st5" d="M170.51,130.37c5.69,0.09,10.9,2.97,15.9,5.67c5.01,2.7,10.41,5.36,16.08,4.92
		c5.67-0.43,11.39-5.25,10.67-10.89c0.08,2.06-1.14,4.11-2.99,5.03c-1.85,0.92-4.22,0.65-5.81-0.66c-3.09-2.54-2.21-7.96,0.94-10.43
		c3.16-2.47,7.61-2.53,11.5-1.57c3.89,0.96,7.51,2.81,11.37,3.85s8.28,1.17,11.59-1.09c2.64-1.8,4.21-5.06,3.98-8.25
		c-0.22-3.12-2.19-6.09-4.95-7.57c-1.49-0.79-3.27-0.8-4.87-1.47c-1.75-0.73-3.33-1.84-4.6-3.26c-2.3-2.58-3.48-6.13-3.18-9.58
		c-3.56,3.28-4.57,9.02-2.34,13.32c0.76,1.47,1.89,2.93,1.67,4.57c-0.24,1.81-2.14,3.02-3.96,3.11c-4.81,0.23-9.97-4.15-11.65-8.42
		c-1.54-3.88-0.99-8.52,1.4-11.94c3.23-4.61,9.13-6.63,12.77-10.92c4.37-5.15,4.59-13.14,1.16-18.96s-10.03-9.41-16.77-9.95
		c-4.47-0.36-8.29,1.91-12.73,1.87c-2.34-0.02-4.75-0.67-6.5-2.23c-1.75-1.56-2.69-4.12-1.94-6.34c-0.2,0.58-1.2,1.32-1.6,1.82
		c-0.47,0.57-0.95,1.13-1.35,1.75c-0.91,1.43-1.72,2.96-2.15,4.6c-0.4,1.53-0.63,3.87,0.22,5.28c0.5,0.81,1.15,1.56,1.85,2.2
		c0.24,0.23,1.84,1.73,2.16,1.57c-2.39,1.22-4.7,2.45-6.93,3.94c-2.1,1.4-4.14,2.91-6.14,4.44c-1.71,1.3-3.41,1.97-5.37,2.82
		c-4.34,1.88-9.14,2.72-13.86,2.4c-6.33-0.43-13.57-3.65-14.72-10.56c-0.42-2.53-0.19-5.13-0.34-7.69c-0.15-2.56-0.76-5.25-2.54-7.1
		c0.43,0.45,2.55,0.55,3.2,0.71c1.27,0.32,2.53,0.69,3.78,1.11c2.39,0.79,4.72,1.75,6.97,2.87c3.37,1.67,8.31,2.44,12,1.31
		c3.2-0.98,5.84-4.66,4.37-7.66c-2.63-5.4-13.03-1.38-15.8-6.71c-1.4-2.69,0.53-6.18,3.31-7.41c2.77-1.22,5.99-0.74,8.91,0.11
		c5.89,1.71,12.51,4.72,18.29,0.98c3.42-2.21,5.41-6.72,4.1-10.58c-0.62,2.47-2.82,4.46-5.33,4.83c0.34-1.79-1.65-4.48-2.76-5.72
		c-4.57-5.08-11.69-6.47-18.25-6.26c-7.37,0.24-13.94,3.93-21.3,4.68c-5.11,0.52-10.49-0.13-14.9-2.76
		c-4.41-2.64-7.67-7.49-7.54-12.63c0.13-5.14,4.22-10.14,9.35-10.5c-4.84-2.31-11.07-0.9-14.74,3.01s-4.76,9.92-3.09,15.02
		s5.91,9.18,10.92,11.09c3.37,1.29,7.03,1.66,10.49,2.7c3.46,1.04,6.93,3,8.42,6.29c1.49,3.29,0,8-3.52,8.79
		c-0.91-7.34-8.74-13.04-16.01-11.66c2.26,0.74,2.96,3.94,1.7,5.95c-1.26,2.01-3.81,2.89-6.18,2.85c-2.37-0.04-4.66-0.82-6.96-1.44
		c-6.49-1.74-14.42-1.72-18.78,3.4c-3.4,3.99-3.46,10.07-1.29,14.85c2.17,4.78,6.19,8.45,10.42,11.56
		c9.28,6.82,20.11,11.44,31.4,13.64c11.63,2.27,23.04,1.21,34.57-1.2c-0.46,4.47-4.53,8.02-8.95,8.8c-4.42,0.78-9-0.8-12.71-3.33
		c2.25,4.07,6.13,7.21,10.59,8.55c4.45,1.34,9.43,0.87,13.55-1.28c3.63-1.89,6.49-4.95,9.82-7.33c4.59-3.29,9.31-4.12,14.43-1.66
		c5.95,2.85,9.05,9.49,10.76,15.87c0.91,3.41,1.49,7.26-0.34,10.27s-7.04,3.86-8.68,0.74c-1.36-2.6,0.53-5.61,1.12-8.48
		c1.1-5.38-3.48-11.18-8.97-11.36c4.41,2.14,5.23,9.18,1.44,12.28c-3.06,2.5-7.66,2.23-10.84,4.57
		C168.98,116.87,168.59,125.21,170.51,130.37z"/>
	<path class="st47" d="M226.42,86.54c6.23-2.68,10.59-8.73,9.44-16.27c0.25,2.16-1.94,3.93-4.08,3.68
		c-2.14-0.25-3.96-2.05-4.78-4.09c-1.66-4.14,0.71-9.22,4.83-10.34c4.12-1.11,9.1,1.98,10.12,6.29c-1.12-3.48-2.66-6.91-5.07-9.7
		c-2.41-2.79-5.77-4.9-9.33-5.17s-7.22,1.55-8.55,4.81c-0.7,1.71-0.74,3.65-1.11,5.48c-0.38,1.83-1.25,3.71-2.96,4.4
		c-2.81,1.13-6.03-1.71-7.01-4.73c-1.02-3.14-0.53-6.66,1.29-9.23c1.82-2.57,4.93-4.12,8.15-4.06c-2.82-3.07-7.37-4.36-11.14-3.17
		s-6.53,4.82-6.77,8.86c-0.13,2.34,0.43,5.01-1.01,6.77c-1.21,1.48-3.49,1.68-5.37,1.01c-1.88-0.67-3.45-2.04-4.97-3.38
		c0.44,13.03,18.22,21.78,28.62,16.19c-0.51,5.49-5.82,9.78-11.31,9.13c4.34,3.64,10.08,5.47,15.5,4.93
		C222.86,87.76,224.71,87.27,226.42,86.54z"/>
	<path class="st47" d="M139.5,80.25c1.11-0.61,2.11-1.45,2.92-2.43c1.43-1.73,2.32-3.86,2.82-6.06c-1.2,1.9-3.27,3.22-5.5,3.53
		c-2.23,0.3-4.57-0.43-6.24-1.94c-3.69-3.34-3-9.57-1.22-13.71c-3.44,1.52-6.05,4.78-6.79,8.47c-0.19,0.95-0.28,1.97-0.85,2.77
		c-0.87,1.22-2.64,1.49-4.06,1.04c-1.86-0.58-3.18-2.32-3.57-4.19c-0.47-2.22,0.63-4.22,2.13-5.8c0.15-0.16,0.31-0.32,0.48-0.46
		c0.99-0.84,2.35-1.35,3.6-0.99c-0.31-0.26-0.49-0.4-0.66-0.53c-0.27-0.2-0.54-0.39-0.82-0.57c-0.54-0.35-1.1-0.66-1.68-0.94
		c-1.13-0.53-2.32-0.93-3.55-1.16c-2.22-0.4-4.61-0.17-6.58,0.99c-0.1,0.06-0.19,0.12-0.29,0.18c-2.49,1.63-3.9,5-2.77,7.76
		c-0.32-0.79-1.51-1.59-1.97-2.41c-0.57-1.01-0.85-2.07-1.09-3.19c-0.54-2.54,0.47-4.85,0.25-7.38c-0.16-1.84-1.2-3.59-2.74-4.6
		c-3.37-2.22-6.3-0.24-9.11,1.77c1.46-1.04,4.37,1.13,5.06,2.27c1.33,2.2,0.25,4.87-1.32,6.62c-1.25,1.39-3.02,1.58-4.59,0.66
		c-1.46-0.85-2.4-2.34-3.29-3.77c-1.29,3.09,0.28,6.78,2.82,8.96s5.85,3.2,9.06,4.17c-2.95,1.71-6.61,2.16-9.89,1.21
		c0.36,0.1,0.92,0.9,1.21,1.17c0.44,0.4,0.9,0.78,1.37,1.14c0.91,0.7,1.88,1.34,2.88,1.9c6.37,3.6,13.78,4.15,20.71,1.95
		c-0.03,1.19-0.14,2.39-0.54,3.51s-1.13,2.15-2.16,2.73c-1.04,0.58-2.41,0.62-3.38-0.06c0.6,1.53,1.75,2.81,3.13,3.7
		c2.2,1.44,4.68,1.9,7.13,0.77c1.7-0.79,3.1-2.12,4.32-3.54c0.6-0.7,1.17-1.42,1.89-1.99c1.36-1.08,3.07-1.09,4.71-0.86
		c1.78,0.25,3.63,0.56,5.42,0.28C137.72,81.05,138.65,80.71,139.5,80.25z"/>
	<path class="st47" d="M180.46,124.7c1.96-1.38,3.71-3.04,5.18-4.93c0.99-1.28,2.09-2.76,2.65-4.29c0.29-0.79,0.57-1.65,0.78-2.47
		c0.08-0.31,0.66-2.46,0.39-2.65c1.74,1.19,2.99,3.06,3.43,5.12c0.64,2.97-0.57,6.3-2.61,8.5c0.25-0.27,1.72-0.34,2.13-0.47
		c0.67-0.22,1.31-0.5,1.91-0.86c1.24-0.75,2.07-1.76,2.76-3.01c1.34-2.43,1.59-6.31,0.31-8.84c-0.69-1.38-1.86-2.45-2.68-3.76
		c-1-1.62-1.43-3.58-1.18-5.47c0.53,0.91,1.06,1.84,1.78,2.6c0.72,0.77,1.66,1.38,2.71,1.51c1.92,0.24,3.77-1.29,4.32-3.15
		c0.54-1.86-0.02-3.9-1.06-5.54c-0.85-1.33-1.98-2.45-3.15-3.5c-0.69-0.63-2.63-2.32-3.6-2.21c3.47-0.38,7.1,0.97,9.48,3.53
		c2.38,2.56,3.46,6.27,2.82,9.71c-0.24,1.32-0.73,2.6-0.87,3.94s0.12,2.82,1.12,3.72c1.41,1.27,3.66,0.28,4.85-0.86
		c0.81-0.78,1.33-1.81,1.64-2.88c0.17-0.56,0.83-2.73,0.45-3.24c2.33,3.16,2.37,7.82,0.1,11.02c-2.27,3.2-6.68,4.71-10.43,3.56
		c1.16,1.64,2.8,3.45,4.61,4.36c0.88,0.45,1.86,0.72,2.85,0.79c0.49,0.04,2.5,0.15,2.8-0.33c-3.25,5.19-9.85,6.99-15.4,4.61
		c-1.05-0.45-2.04-1.04-3.13-1.35c-1.1-0.3-2.37-0.27-3.25,0.45c-1.1,0.9-1.23,2.62-0.6,3.9s1.82,2.17,3.06,2.87
		c-0.62-0.34-1.95-0.25-2.68-0.43c-0.96-0.25-1.9-0.6-2.8-1.03c-1.36-0.66-2.63-1.61-3.74-2.62c-1.07-0.97-2-2.2-3.19-3.02
		c-1.28-0.88-2.8-1.45-4.32-1.69C178.78,125.81,179.64,125.28,180.46,124.7z"/>
	<path class="st47" d="M181.55,71.85c1.65,0.85,3.52,2,3.7,3.85c0.19,1.84-1.63,3.46-3.48,3.51c-1.85,0.04-3.55-1.15-4.6-2.67
		c-1.05-1.52-1.58-3.33-2.08-5.11c-2.39,2.96-2.18,7.68,0.46,10.42c-4.43-4.57-10.96-7.02-17.3-6.48c4.27,0.48,7.98,4.11,8.56,8.36
		s-2.02,8.74-6,10.36c4.28,0.63,8.83-1.12,11.59-4.45c1-1.21,1.78-2.61,2.88-3.74c1.1-1.13,2.66-1.98,4.21-1.67
		c1.78,0.36,2.99,2.26,2.91,4.07s-1.23,3.46-2.71,4.51c3.51-1.03,6.57-3.5,8.33-6.7c1.6-2.92,3.84-5.59,7.35-6.06
		c-1.02-1.22-1.97-2.4-3.17-3.42C189.19,74.06,185.46,72.36,181.55,71.85z"/>
	<path class="st47" d="M162.46,30.35c1.84,0.76,3.61,1.7,5.27,2.8c1.34,0.89,2.58,1.98,3.58,3.25c0.2,0.26,0.56,0.7,0.79,1.12
		c-3.73-2.04-8.74-2.17-12.46-0.01c3.19,0.83,6.28,2.58,8.14,5.38c1.8,2.71,2.22,6.43,0.6,9.25c-1.17-2.26-2.43-4.51-4.19-6.36
		s-4.09-3.26-6.63-3.45c-2.54-0.2-5.26,1.01-6.42,3.28c-0.91,1.78-0.76,3.98,0.09,5.78c0.85,1.8,2.35,3.24,4.02,4.33
		c-2.65-0.58-5.35-1.19-7.71-2.53c-2.36-1.34-4.37-3.56-4.79-6.25c-0.31-2.02,0.29-4.18-0.43-6.1c-0.71-1.92-2.7-3.2-4.74-3.38
		c-2.04-0.18-4.08,0.62-5.69,1.88c1.23-6.95,8.77-10.2,14.99-11.04C152.15,27.61,157.57,28.34,162.46,30.35z"/>
	<path class="st5" d="M90.71,103.63c0.43,3.32,2.12,6.42,4.35,8.87c4,4.41,9.38,5.61,15.1,4.27c2.11-0.5,4.16-1.48,5.64-3.07
		s2.31-3.86,1.9-5.99c-0.71,1.25-1.62,2.44-2.86,3.17c-1.25,0.72-2.89,0.89-4.11,0.13c-1.22-0.76-1.76-2.58-0.9-3.74
		c0.65-0.87,1.8-1.16,2.71-1.75c1.18-0.77,1.94-2.08,2.28-3.45s0.3-2.8,0.18-4.21c-0.11-1.28-0.3-2.58-0.79-3.77
		c-0.49-1.19-1.33-2.28-2.47-2.86c0.38,2.06,0.02,4.29-1.15,6.02c-1.18,1.73-3.21,2.91-5.31,2.86c-5.08-0.12-6.38-6.61-6.29-10.63
		c-2.22,2.25-3.01,5.63-2.66,8.77c0.35,3.14,1.72,6.07,3.33,8.79C96.39,106.98,93.17,105.75,90.71,103.63z"/>
	<path class="st47" d="M77.24,31.39c-0.12,1.02-0.02,2.16,0.51,3.06c0.75,1.27,2.11,1.94,2.44,3.47c0.3,1.39-0.44,2.94-1.71,3.59
		c-1.27,0.64-2.96,0.32-3.9-0.74c0.19,0.22,0.29,0.65,0.44,0.91c0.19,0.31,0.4,0.6,0.64,0.87c0.49,0.56,1.09,1.03,1.74,1.38
		c1.45,0.78,2.87,0.77,4.39,0.13c1.28-0.54,2.37-1.51,3.1-2.69c1.17-1.89,0.56-4.36,2.25-5.99c1.34-1.29,3.9-0.99,4.11,1.18
		c0.05,0.57-0.29,1.2-0.85,1.3c1.57,0.02,2.9-1.33,3.37-2.74c0.49-1.47,0.33-3.03-0.75-4.15c-1.1-1.15-2.45-1.98-4.1-1.89
		c-1.39,0.08-2.73,0.83-3.53,1.98c-1.11,1.59-1.88,3.69-4.31,2.8c-1.1-0.4-1.91-1.41-2.22-2.53c-0.31-1.12-0.16-2.34,0.27-3.43
		c-1.02,0.86-1.71,2.1-1.88,3.42C77.25,31.35,77.25,31.37,77.24,31.39z"/>
	<path class="st47" d="M169.76,61.41c-0.57,0.89-1.35,1.65-2.4,2.21c-0.23,0.12-1.38,0.77-1.62,0.61c1.41,0.94,3.35,0.99,4.83,0.15
		c1.51-0.85,2.4-2.46,2.4-4.18c0-0.87-0.21-1.74-0.61-2.52c-0.17-0.34-0.37-0.66-0.61-0.95c-0.13-0.16-0.26-0.39-0.57-0.73
		C171.12,57.95,170.75,59.87,169.76,61.41z"/>
	<path class="st47" d="M231.14,112.52c-0.4-2.23,0.1-4.45,1.11-6.43c0.93-1.83,2.34-3.51,4.35-4.55s4.69-1.35,7.04-0.52
		c-3.05,0.34-5.12,2.52-6.39,4.79c-2.37,4.2-3.01,9.09-0.66,13.77c-1.16-0.88-2.31-1.78-3.26-2.81
		C232.18,115.52,231.41,114.02,231.14,112.52z"/>
	<g>
		<path class="st5" d="M36.03,93.38c1.39-2.73,3.49-5.3,6.71-5.83c4.32-0.71,7.68,1.65,10,5.09c-0.48-0.33-1.28-0.77-1.77-0.97
			c-0.77-0.31-1.36-0.55-2.09-0.73c-1.39-0.35-2.76-0.7-4.19-0.64C41.55,90.42,38.7,91.85,36.03,93.38z"/>
	</g>
	<path class="st47" d="M125.77,48.48c-0.18,0.5-0.4,0.99-0.67,1.45c-1.01,1.74-2.84,3.02-4.85,3.26c-2.54,0.3-5.19-1.06-6.42-3.3
		c1.92,0.65,4.11,0.92,5.91,0c1.53-0.78,2.4-2.23,3.06-3.75c0.35-0.81,0.56-1.69,0.62-2.57c0.03-0.39,0.17-1.58-0.26-2.53
		c1.11,0.61,2.01,1.58,2.54,2.74C126.38,45.27,126.3,46.96,125.77,48.48z"/>
	<path class="st5" d="M224.5,76.87c0.34,0.85,0.36,1.88-0.1,2.76c-0.31,0.59-0.82,1.08-1.39,1.46c-1.28,0.88-2.89,1.25-4.34,1
		c1.49-0.59,2.9-1.59,3.73-2.95c0.88-1.45,0.86-3.1,0.22-4.48C223.54,75.11,224.13,75.96,224.5,76.87z"/>
	<path class="st47" d="M212.6,40.73c1.81-2.29,5.32-3.03,7.9-1.66c2.47,1.32,4.05,4.72,3.03,7.42c-0.76-1.9-1.53-3.06-3.28-4.15
		c-1.16-0.72-2.4-1.25-3.73-1.53C215.89,40.69,213.06,40.14,212.6,40.73z"/>
	<path class="st5" d="M224.17,130.4c4,2.6,8.29,4.28,13.56,0.87c-0.21,1.58-1.02,3.31-2.42,4.06c-1.4,0.75-3.05,0.93-4.64,0.8
		c-1.61-0.14-3.24-0.61-4.5-1.63C224.91,133.49,224,132.01,224.17,130.4z"/>
	<path class="st47" d="M167.68,114.87c-0.36-1.79,0.94-3.53,2.5-4.48c1.99-1.22,4.59-1.4,6.21-3.16c1.45-1.57,2.2-3.81,1.88-5.94
		c0.09,0.59-1.3,1.92-1.68,2.31c-0.75,0.76-1.64,1.38-2.6,1.85c-1.91,0.92-4.26,1.05-5.73,2.77c-0.8,0.93-1.13,2.19-1.15,3.42
		C167.09,112.86,167.42,113.67,167.68,114.87z"/>
	<path class="st47" d="M121.73,16.75c1.11,1.42,2.97,2.22,4.76,2.06c-1.62-0.58-2.88-1.84-3.76-3.31c-0.91-1.52-1.27-3.07-1.14-4.81
		C119.98,12.29,120.41,15.08,121.73,16.75z"/>
	<path class="st5" d="M10.93,104.57c-1.52-1.27-2.71-2.97-4.44-3.94c-1.99-1.11-4.57-1.07-6.51,0.1c1.42,0.01,2.7,0.88,3.67,1.92
		c0.96,1.04,1.7,2.27,2.65,3.33c1.91,2.12,4.64,3.4,7.48,3.58c1.29,0.08,2.17,0.15,3.39-0.35c1.54-0.64,3.03-1.39,4.47-2.24
		C18.17,107.35,13.7,106.89,10.93,104.57z"/>
	<path class="st47" d="M64.66,130.11c-1.45,1.9-1.95,4.74-0.58,6.82c1.77,2.69,4.77,2.32,7.53,1.8c-1.48-0.34-2.82-0.86-3.86-1.98
		c-0.96-1.03-1.74-2.24-2.28-3.54c-0.21-0.51-0.39-1.03-0.53-1.57C64.87,131.4,64.72,130.86,64.66,130.11z"/>
	<path class="st5" d="M87.99,284.75l-0.29,20.51c0.33-0.49,0.72-0.96,1.15-1.37c1.59-1.53,3.67-2.43,5.41-3.78
		c1.91-1.49,3.42-3.6,3.81-6c0.37-2.3-0.42-4.44-2.03-6.07c-1.78-1.81-4.6-1.66-6.87-2.68C88.76,285.18,88.37,284.98,87.99,284.75z"
		/>
	<path class="st47" d="M81.1,283.02c0.32,1.14,1.11,1.83,1.47,2.22c0.6,0.65,1.3,1.19,2.03,1.68c0.69,0.46,1.41,0.94,2.11,1.38
		c0.94,0.59,2.01,0.9,2.92,1.56c0.93,0.68,1.72,1.6,2.05,2.7c0.4,1.34,0.05,2.83-0.74,3.98c-0.91,1.33-2.32,2.21-3.49,3.32
		c-1.48,1.41-2.58,3.22-3.15,5.18c-0.18-1.41,0.2-2.83,0.7-4.15c0.5-1.33,1.12-2.61,1.46-3.99c0.32-1.3,0.38-2.77-0.32-3.96
		c-0.81-1.38-2.34-2.31-3.25-3.67C81.57,287.32,80.7,285.52,81.1,283.02z"/>
	<path class="st47" d="M77.39,271.15c2.41-1.74,7.04-2.41,9.96-1.81c-1.97-1.71-4.47-2.86-7.13-3.14c-2.4-0.24-5.17,0.57-6.75,2.31
		c-1.48,1.63-2.29,3.84-2.25,6.03c0.04,2.26,0.81,4.33,1.87,6.47C73.34,276.94,74.64,273.13,77.39,271.15z"/>
	<path class="st47" d="M69.99,291.83c-1.94-0.11-3.96-0.12-5.79-0.83c-3.84-1.49-6.06-6.22-4.75-10.12c-2.79,1.49-4.46,4.74-4.3,7.9
		c0.16,3.16,2.03,6.12,4.67,7.86c2.64,1.74,5.98,2.28,9.1,1.75c-2.83,1.3-6.18,1.4-9.08,0.26c0.89,2.25,2.88,4.03,5.21,4.66
		c2.33,0.63,4.95,0.1,6.85-1.39c0.95-0.75,1.59-1.88,2.59-2.52c0.89-0.57,1.97-0.85,3.02-0.8c1.36,0.06,2.69,0.68,3.61,1.68
		c-0.27-2.67-2.01-5.05-4.28-6.48c-1.9-1.2-4.12-1.77-6.35-1.93C70.34,291.85,70.17,291.84,69.99,291.83z"/>
	<path class="st47" d="M175.71,141.27c0.82,0.22,1.78,0.06,2.37-0.56c0.59-0.62,0.65-1.72,0.01-2.29c0.85,0.22,1.58,0.87,1.9,1.69
		c0.32,0.82,0.22,1.79-0.26,2.53c2.24-0.81,3.89-3.04,4-5.41c0.85,0.74,1.16,1.99,0.93,3.1s-0.92,2.08-1.78,2.81
		c-1.41,1.21-3.42,1.83-5.18,1.24c-0.98-0.33-1.79-1-2.46-1.77c-0.45-0.52-1.6-1.78-1.48-2.44
		C174.41,140.57,174.94,141.07,175.71,141.27z"/>
	<path class="st5" d="M160.23,347.57c-0.99-2.49-2.68-4.74-5-5.89c2.75-0.27,4.76-0.3,7.04,1.51c2.15,1.7,3.14,5.27,2.5,7.73
		c-0.63,2.41-2.17,4.58-4.25,5.96c0.77-0.52,0.73-3.56,0.72-4.39C161.21,350.89,160.87,349.18,160.23,347.57z"/>
	<path class="st1" d="M94.61,196.74c0,0,0.84,3.38,0.93,3.7c0.47,1.61,1.01,3.19,1.63,4.74c1.27,3.21,2.85,6.29,4.68,9.21
		c1.57,2.51,3.39,4.87,5.24,7.2c0.93,1.18,1.89,2.35,2.81,3.55c0.79,1.03,1.84,2.11,2.45,3.26c0.33,0.63,0.48,1.39,0.24,2.06
		c-0.21,0.58-0.7,1.03-1.24,1.33c-0.9,0.48-1.94,0.66-2.9,0.97c-1.41,0.46-2.81,0.94-4.21,1.44l3.13,5.32
		c2.42-0.74,4.83-1.52,7.2-2.39c1.06-0.39,1.96-0.76,3.05-1.01c1.03-0.23,2.07-0.63,2.76-1.47c0.71-0.87,0.9-2.08,0.8-3.2
		c-0.13-1.61-0.82-3.16-1.88-4.38c-0.7-0.79-1.57-1.38-2.29-2.16c-0.83-0.9-1.64-1.82-2.42-2.76c-1.54-1.85-2.99-3.79-4.34-5.79
		c-1.36-2-2.62-4.06-3.8-6.15c-0.59-1.06-1.17-2.13-1.72-3.22c-0.29-0.56-0.58-1.14-0.86-1.7c-0.15-0.31-0.42-1.28-0.71-1.46
		c6.68,4.26,15.09,4.95,21.53,0.07c1.94-1.48,3.27-3.05,4.46-5.18c2.37-4.27,3.63-9.14,3.67-14.03c0.04-4.71-0.68-9.65-2.79-13.91
		c-0.61-1.22-1.3-2.38-2.08-3.48c-1.53-2.17-3.4-4.1-5.53-5.68c-2.17-1.61-4.91-3.3-7.48-4.09c-1.02-0.31-2.09-0.51-3.16-0.56
		c-0.54-0.03-1.69-0.05-2.62,0.14c2.06,1.18,4.1,2.43,5.86,4.02c5.43,4.91,7.79,13.52,6.79,20.6c-0.63,4.4-2.5,8.6-5.34,12.02
		c-2.67,3.23-7.19,4.63-11.24,4.62C101.55,198.36,94.61,196.74,94.61,196.74z"/>
</g>
</svg>
