<?xml version="1.0" encoding="utf-8"?>
<!-- Generator: Adobe Illustrator 27.0.1, SVG Export Plug-In . SVG Version: 6.00 Build 0)  -->
<svg version="1.1" id="Layer_1" xmlns="http://www.w3.org/2000/svg" xmlns:xlink="http://www.w3.org/1999/xlink" x="0px" y="0px"
	 viewBox="0 0 341.17 339.77" style="enable-background:new 0 0 341.17 339.77;" xml:space="preserve">
<style type="text/css">
	.st0{fill:#0A2B17;}
	.st1{fill:#0E8042;}
	.st2{fill:#FFFFFF;}
	.st3{fill:#1A3826;}
	.st4{fill:#3D1947;}
	.st5{fill:#ECA45C;}
	.st6{fill:#D53D3D;}
	.st7{clip-path:url(#SVGID_00000176040311404317154210000004780594579809102464_);}
	.st8{fill:#802420;}
	.st9{fill:#8C5443;}
	.st10{fill:#3C1948;}
	.st11{fill:none;stroke:#3C1948;stroke-linecap:round;stroke-linejoin:round;stroke-miterlimit:10;}
	.st12{clip-path:url(#SVGID_00000181799040516032866740000015577102587400600498_);}
	.st13{fill:#802421;}
	.st14{opacity:0.29;fill:#92C9E0;}
	.st15{clip-path:url(#SVGID_00000145049545437773472560000000565225835680441994_);fill:#FFFFFF;}
	.st16{clip-path:url(#SVGID_00000145049545437773472560000000565225835680441994_);fill:#D9807E;}
	.st17{opacity:0.29;fill:#92C9E0;stroke:#FFFFFF;stroke-width:5;stroke-miterlimit:10;}
	.st18{opacity:0.29;fill:#92C9E0;stroke:#FFFFFF;stroke-miterlimit:10;}
	.st19{opacity:0.29;fill:#92C9E0;stroke:#FFFFFF;stroke-width:3;stroke-miterlimit:10;}
	.st20{fill:#934F3E;}
	.st21{clip-path:url(#SVGID_00000011743185770929967520000004090495292309511836_);fill:#41164A;}
	.st22{clip-path:url(#SVGID_00000125586463132146585060000001735713966062060174_);fill:#41164A;}
	.st23{clip-path:url(#SVGID_00000065072733750080873860000014880293849815414418_);fill:#FFFFFF;}
	.st24{clip-path:url(#SVGID_00000065072733750080873860000014880293849815414418_);fill:#41164A;}
	.st25{fill:#41164A;}
	.st26{clip-path:url(#SVGID_00000162349689057839822380000003307998761765717132_);fill:#FFFFFF;}
	.st27{clip-path:url(#SVGID_00000162349689057839822380000003307998761765717132_);fill:#E47D7A;}
	.st28{fill:none;}
	.st29{fill:#E09F9E;}
	.st30{fill:#CB8080;}
	.st31{clip-path:url(#SVGID_00000143616896234992856720000017711372030069479562_);fill:#E09F9E;}
	.st32{fill:#3C1947;}
	.st33{fill:#EAC5B1;}
	.st34{clip-path:url(#SVGID_00000010999263003954625010000000031720879226891683_);fill:#CB8080;}
	.st35{fill:#0B8043;}
	.st36{fill:#DBDBDA;}
	.st37{clip-path:url(#SVGID_00000075134858128654924010000011025936517608560542_);fill:#C2C1C1;}
	.st38{clip-path:url(#SVGID_00000010296585932754139930000005786507180778545844_);fill:#C2C1C1;}
	.st39{clip-path:url(#SVGID_00000075865982657662529760000015705748372009377441_);}
	.st40{fill:#C2C1C1;}
	.st41{clip-path:url(#SVGID_00000122695671698597782560000016274979355561165196_);fill:#C2C1C1;}
	.st42{clip-path:url(#SVGID_00000000185492885638359120000012421521261331854993_);fill:#C2C1C1;}
	.st43{clip-path:url(#SVGID_00000168819064041258682760000009926769484497708445_);fill:#0B8043;}
	.st44{clip-path:url(#SVGID_00000005982616151840302410000013332032926622085817_);fill:#0B8043;}
	.st45{fill:#A55933;}
	.st46{fill:#803C26;}
	.st47{fill:#C64B45;}
	.st48{fill:#8B3A37;}
	.st49{clip-path:url(#SVGID_00000072974606036174341430000001619243766079947157_);}
	.st50{clip-path:url(#SVGID_00000124848212400230577810000018268660897323153592_);}
	.st51{clip-path:url(#SVGID_00000069362620549665218170000002930400631632878472_);}
	.st52{clip-path:url(#SVGID_00000093869209711767141850000010335461743266118846_);}
	.st53{clip-path:url(#SVGID_00000059999781661659001350000005444412864559693231_);}
	.st54{clip-path:url(#SVGID_00000038402509424727016660000005696552212998218378_);}
	.st55{clip-path:url(#SVGID_00000081649837758183777530000010609302468761455748_);fill:#41164A;}
	.st56{clip-path:url(#SVGID_00000062156341340978502980000013065751760654945721_);fill:#41164A;}
	.st57{clip-path:url(#SVGID_00000134945921726427421220000002090043363954989960_);fill:#FFFFFF;}
	.st58{clip-path:url(#SVGID_00000134945921726427421220000002090043363954989960_);fill:#41164A;}
	.st59{clip-path:url(#SVGID_00000118388675289192517220000016019058325319516302_);fill:#FFFFFF;}
	.st60{clip-path:url(#SVGID_00000118388675289192517220000016019058325319516302_);fill:#E47D7A;}
	.st61{fill:#C28F5D;}
	.st62{fill:#375A42;}
	.st63{clip-path:url(#SVGID_00000056429180944666354770000004859836223572550814_);fill:#6AA17A;}
	.st64{clip-path:url(#SVGID_00000129893883634030748110000010518269966432382629_);fill:#6AA17A;}
	.st65{fill:#6AA17A;}
	.st66{clip-path:url(#SVGID_00000183206981679334324970000015117633047805817266_);fill:#3D1947;}
	.st67{clip-path:url(#SVGID_00000168836366370293877960000001047065097442387100_);fill:#8B3A37;}
	.st68{clip-path:url(#SVGID_00000075135266172956627920000003723827802067544984_);}
	.st69{clip-path:url(#SVGID_00000108997854915845447820000009056488476402694278_);fill:#FFFFFF;}
	.st70{clip-path:url(#SVGID_00000108997854915845447820000009056488476402694278_);fill:#D9807E;}
	.st71{clip-path:url(#SVGID_00000090256442092082074420000005052569504174100128_);fill:#41164A;}
	.st72{clip-path:url(#SVGID_00000138546803528785713210000003208066471196672143_);fill:#41164A;}
	.st73{clip-path:url(#SVGID_00000080167234641724926190000000080864297252805792_);fill:#FFFFFF;}
	.st74{clip-path:url(#SVGID_00000080167234641724926190000000080864297252805792_);fill:#41164A;}
	.st75{clip-path:url(#SVGID_00000150790442594061037980000015039525168075091094_);fill:#FFFFFF;}
	.st76{clip-path:url(#SVGID_00000150790442594061037980000015039525168075091094_);fill:#E47D7A;}
	.st77{fill:#D2687C;}
	.st78{clip-path:url(#SVGID_00000005236584371013163780000006946063907882297265_);fill:#C64B45;}
	.st79{fill:#D1544C;}
	.st80{clip-path:url(#SVGID_00000027565856525404117440000014420898188587552662_);}
	.st81{clip-path:url(#SVGID_00000026879400741725050730000000806812498168416900_);}
	.st82{fill:#DADAD9;}
	.st83{clip-path:url(#SVGID_00000005244284262610688800000016021897298138854328_);fill:#0E8042;}
	.st84{clip-path:url(#SVGID_00000005244284262610688800000016021897298138854328_);fill:#1A3826;}
	.st85{clip-path:url(#SVGID_00000114058995778230514310000010137383433549216665_);fill:#0E8042;}
	.st86{clip-path:url(#SVGID_00000114058995778230514310000010137383433549216665_);fill:#1A3826;}
	.st87{fill:none;stroke:#0E8042;stroke-linecap:round;stroke-linejoin:round;stroke-miterlimit:10;}
	.st88{clip-path:url(#SVGID_00000020395149232606686760000009099778209818033298_);}
	.st89{clip-path:url(#SVGID_00000144304060127392037250000008326578603944183424_);fill:#0E8042;}
	.st90{clip-path:url(#SVGID_00000150813508875971213380000009677397477093661878_);fill:#0E8042;}
	.st91{clip-path:url(#SVGID_00000150813508875971213380000009677397477093661878_);fill:#1A3826;}
	.st92{clip-path:url(#SVGID_00000178177020872409083790000007985768426473728148_);fill:#0E8042;}
	.st93{clip-path:url(#SVGID_00000178177020872409083790000007985768426473728148_);fill:#1A3826;}
	.st94{clip-path:url(#SVGID_00000060708566926306555040000006836354878580278187_);fill:#0E8042;}
	.st95{clip-path:url(#SVGID_00000060708566926306555040000006836354878580278187_);fill:#1A3826;}
	.st96{clip-path:url(#SVGID_00000018915314520511886980000016319225232411455655_);fill:#0E8042;}
	.st97{clip-path:url(#SVGID_00000018915314520511886980000016319225232411455655_);fill:#1A3826;}
	.st98{clip-path:url(#SVGID_00000079460037280530130010000002832851870108061609_);}
	.st99{clip-path:url(#SVGID_00000156556702826762714460000017043813773984706698_);fill:#0E8042;}
	.st100{clip-path:url(#SVGID_00000156556702826762714460000017043813773984706698_);fill:#1A3826;}
	.st101{clip-path:url(#SVGID_00000102518879599960768110000013133203482920434865_);}
	.st102{clip-path:url(#SVGID_00000045612526975756524550000018302574371256662439_);fill:#FFFFFF;}
	.st103{clip-path:url(#SVGID_00000045612526975756524550000018302574371256662439_);fill:#D9807E;}
	.st104{clip-path:url(#SVGID_00000142139788350910233880000018248326686906429100_);fill:#41164A;}
	.st105{clip-path:url(#SVGID_00000120532240834312851440000014738780379695563154_);fill:#41164A;}
	.st106{clip-path:url(#SVGID_00000035507872713993835900000002831107460467075261_);fill:#FFFFFF;}
	.st107{clip-path:url(#SVGID_00000035507872713993835900000002831107460467075261_);fill:#41164A;}
	.st108{clip-path:url(#SVGID_00000123417431552418474580000003261330627537985459_);fill:#FFFFFF;}
	.st109{clip-path:url(#SVGID_00000123417431552418474580000003261330627537985459_);fill:#E47D7A;}
	.st110{clip-path:url(#SVGID_00000000927369183744143850000003298166396890746812_);fill:#E09F9E;}
	.st111{clip-path:url(#SVGID_00000174563194570329545030000013990828609758246537_);fill:#CB8080;}
	.st112{clip-path:url(#SVGID_00000086674217782287219940000015576827365393068945_);fill:#C2C1C1;}
	.st113{clip-path:url(#SVGID_00000124158280365535214370000006877093603678433452_);fill:#C2C1C1;}
	.st114{clip-path:url(#SVGID_00000070079165700422981360000008983479798986752438_);}
	.st115{clip-path:url(#SVGID_00000083060387059761754470000002621519220728067504_);fill:#C2C1C1;}
	.st116{clip-path:url(#SVGID_00000161620011300450317120000013717336540216753582_);fill:#C2C1C1;}
	.st117{clip-path:url(#SVGID_00000119115475751340158840000015241114842804942261_);fill:#0B8043;}
	.st118{clip-path:url(#SVGID_00000033339231332754130600000001589590644207582879_);fill:#0B8043;}
	.st119{clip-path:url(#SVGID_00000177481932972046181170000005053009019724552371_);}
	.st120{clip-path:url(#SVGID_00000152253231448016879770000001742554950200918689_);}
	.st121{clip-path:url(#SVGID_00000147178631376602002670000007606551251876500916_);}
	.st122{clip-path:url(#SVGID_00000134972737591513946320000011084269059492322470_);}
	.st123{clip-path:url(#SVGID_00000126297497589318763440000002049878367280652698_);}
	.st124{clip-path:url(#SVGID_00000036942671529682645720000013049332631600247425_);}
	.st125{clip-path:url(#SVGID_00000108308175374233665910000008815096079742992292_);fill:#0E8042;}
	.st126{clip-path:url(#SVGID_00000108308175374233665910000008815096079742992292_);fill:#1A3826;}
	.st127{clip-path:url(#SVGID_00000090977822472214632860000001892667764783904642_);}
	.st128{clip-path:url(#SVGID_00000174591828331286111550000017585222891842093463_);fill:#FFFFFF;}
	.st129{clip-path:url(#SVGID_00000174591828331286111550000017585222891842093463_);fill:#D9807E;}
	.st130{clip-path:url(#SVGID_00000180365958340115888400000004185437104772791198_);fill:#41164A;}
	.st131{clip-path:url(#SVGID_00000034789471899195482460000012941547398833513137_);fill:#41164A;}
	.st132{clip-path:url(#SVGID_00000069388175616438770930000001552683989576646289_);fill:#FFFFFF;}
	.st133{clip-path:url(#SVGID_00000069388175616438770930000001552683989576646289_);fill:#41164A;}
	.st134{clip-path:url(#SVGID_00000039109553579338429820000018124332529930116520_);fill:#FFFFFF;}
	.st135{clip-path:url(#SVGID_00000039109553579338429820000018124332529930116520_);fill:#E47D7A;}
	.st136{clip-path:url(#SVGID_00000093865725708396008040000007639321036298245764_);fill:#C64B45;}
	.st137{clip-path:url(#SVGID_00000030468493459335073020000014655777137312639368_);}
	.st138{clip-path:url(#SVGID_00000142855367985815100810000005999708087819776664_);}
	.st139{clip-path:url(#SVGID_00000060729164724573784050000015301688756206007936_);fill:#0E8042;}
	.st140{clip-path:url(#SVGID_00000060729164724573784050000015301688756206007936_);fill:#1A3826;}
	.st141{clip-path:url(#SVGID_00000124839954537910120340000004912697516193767563_);fill:#0E8042;}
	.st142{clip-path:url(#SVGID_00000124839954537910120340000004912697516193767563_);fill:#1A3826;}
	.st143{clip-path:url(#SVGID_00000152249894819237262220000011925524949932455069_);fill:#0E8042;}
	.st144{clip-path:url(#SVGID_00000152249894819237262220000011925524949932455069_);fill:#1A3826;}
	.st145{clip-path:url(#SVGID_00000159451989394710572540000013719240100494422164_);}
	.st146{clip-path:url(#SVGID_00000176018998327382004940000007386130131296149179_);}
	.st147{clip-path:url(#SVGID_00000021798938691038953080000008136184697326559663_);}
	.st148{clip-path:url(#SVGID_00000036211603667376957420000011772964974090836409_);}
	.st149{clip-path:url(#SVGID_00000034075484424395040080000003812103909512943272_);}
	.st150{clip-path:url(#SVGID_00000012455106748621316350000004233941467095130527_);}
	.st151{clip-path:url(#SVGID_00000158024869263454507070000005210295261612431801_);fill:#FFFFFF;}
	.st152{clip-path:url(#SVGID_00000158024869263454507070000005210295261612431801_);fill:#8B3A37;}
	.st153{fill:#DF9E9E;}
	.st154{fill:#C98080;}
	.st155{fill:#DFD5E2;}
	.st156{clip-path:url(#SVGID_00000000210172074129604560000016013253959684220310_);fill:#DF9E9E;}
	.st157{fill:#E9C4B0;}
	.st158{clip-path:url(#SVGID_00000164480369946599803750000011340915736367319481_);fill:#C98080;}
	.st159{clip-path:url(#SVGID_00000104694359346837818830000011354178405902636962_);fill:#C1C0C0;}
	.st160{clip-path:url(#SVGID_00000082368090999520296570000002135090782017488266_);fill:#C1C0C0;}
	.st161{clip-path:url(#SVGID_00000047032395980137934390000000134792538433269401_);}
	.st162{fill:#C1C0C0;}
	.st163{clip-path:url(#SVGID_00000157995535414231519420000001069396965497365419_);fill:#C1C0C0;}
	.st164{clip-path:url(#SVGID_00000168117595370526033910000008662511342608385979_);fill:#C1C0C0;}
	.st165{clip-path:url(#SVGID_00000132083429233616083570000011383951112517186741_);fill:#0E8042;}
	.st166{clip-path:url(#SVGID_00000111185830133215353840000012844737923992266903_);fill:#0E8042;}
	.st167{fill:#7F2420;}
	.st168{clip-path:url(#SVGID_00000181076733494301374040000004049803054564291997_);fill:#FFFFFF;}
	.st169{clip-path:url(#SVGID_00000181076733494301374040000004049803054564291997_);fill:#D8807E;}
	.st170{fill:#7F2421;}
	.st171{clip-path:url(#SVGID_00000045591691537779722510000005745147098699424939_);fill:#ECA45C;}
	.st172{clip-path:url(#SVGID_00000177460088809078269970000002721247484902171056_);fill:#0E8042;}
	.st173{clip-path:url(#SVGID_00000177460088809078269970000002721247484902171056_);fill:#1A3826;}
	.st174{clip-path:url(#SVGID_00000106115420223196164840000014184888665182579629_);fill:#0E8042;}
	.st175{clip-path:url(#SVGID_00000106115420223196164840000014184888665182579629_);fill:#1A3826;}
	.st176{clip-path:url(#SVGID_00000105409456702396627870000014325077915370548406_);fill:#0E8042;}
	.st177{clip-path:url(#SVGID_00000105409456702396627870000014325077915370548406_);fill:#1A3826;}
	.st178{clip-path:url(#SVGID_00000023260232631744886910000010204842074833068928_);fill:#0E8042;}
	.st179{clip-path:url(#SVGID_00000023260232631744886910000010204842074833068928_);fill:#1A3826;}
	.st180{clip-path:url(#SVGID_00000036240889522983859030000014077152280336915086_);fill:#0E8042;}
	.st181{clip-path:url(#SVGID_00000036240889522983859030000014077152280336915086_);fill:#1A3826;}
	.st182{clip-path:url(#SVGID_00000132807103084805383540000017276261548481110411_);fill:#0E8042;}
	.st183{clip-path:url(#SVGID_00000132807103084805383540000017276261548481110411_);fill:#1A3826;}
	.st184{clip-path:url(#SVGID_00000183959947668313585070000011118997166507198382_);fill:#0E8042;}
	.st185{clip-path:url(#SVGID_00000183959947668313585070000011118997166507198382_);fill:#1A3826;}
	.st186{clip-path:url(#SVGID_00000106111960243802674480000003017427273970552219_);fill:#0E8042;}
	.st187{clip-path:url(#SVGID_00000106111960243802674480000003017427273970552219_);fill:#1A3826;}
	.st188{clip-path:url(#SVGID_00000008142218822586783150000016735350893940501943_);fill:#0E8042;}
	.st189{clip-path:url(#SVGID_00000008142218822586783150000016735350893940501943_);fill:#1A3826;}
	.st190{clip-path:url(#SVGID_00000029008457796475734510000011726831096504717214_);fill:#0E8042;}
	.st191{clip-path:url(#SVGID_00000029008457796475734510000011726831096504717214_);fill:#1A3826;}
	.st192{clip-path:url(#SVGID_00000174561241241061530530000002734659952357043389_);fill:#0E8042;}
	.st193{clip-path:url(#SVGID_00000174561241241061530530000002734659952357043389_);fill:#1A3826;}
	.st194{clip-path:url(#SVGID_00000134929180842085496920000000235168186610618556_);fill:#0E8042;}
	.st195{clip-path:url(#SVGID_00000134929180842085496920000000235168186610618556_);fill:#1A3826;}
	.st196{clip-path:url(#SVGID_00000160175128964747004270000015202633129295368617_);fill:#0E8042;}
	.st197{clip-path:url(#SVGID_00000160175128964747004270000015202633129295368617_);fill:#1A3826;}
	.st198{clip-path:url(#SVGID_00000062191699609662277930000000720287378349103797_);}
	.st199{clip-path:url(#SVGID_00000104692285194493327420000013391955394605386388_);fill:#FFFFFF;}
	.st200{clip-path:url(#SVGID_00000104692285194493327420000013391955394605386388_);fill:#D9807E;}
	.st201{clip-path:url(#SVGID_00000070094987450822374090000001029139461892116408_);fill:#41164A;}
	.st202{clip-path:url(#SVGID_00000043415281075670583230000010718714247576745643_);fill:#41164A;}
	.st203{clip-path:url(#SVGID_00000019649149155036147680000005173950490838174356_);fill:#FFFFFF;}
	.st204{clip-path:url(#SVGID_00000019649149155036147680000005173950490838174356_);fill:#41164A;}
	.st205{clip-path:url(#SVGID_00000111191456974950933050000008035129043398300330_);fill:#FFFFFF;}
	.st206{clip-path:url(#SVGID_00000111191456974950933050000008035129043398300330_);fill:#E47D7A;}
	.st207{clip-path:url(#SVGID_00000129906905084534552190000004264314041300382368_);fill:#C64B45;}
	.st208{clip-path:url(#SVGID_00000041265839013918629750000003900633436284676260_);}
	.st209{clip-path:url(#SVGID_00000089539499587226383390000009424138042378623115_);}
	.st210{clip-path:url(#SVGID_00000081618926569400715910000007764800808601467047_);fill:#6AA17A;}
	.st211{clip-path:url(#SVGID_00000179642245939355317650000005023568579855665063_);fill:#6AA17A;}
	.st212{clip-path:url(#SVGID_00000097465397090718383710000004273792585592295103_);fill:#3D1947;}
	.st213{clip-path:url(#SVGID_00000181047191376061697040000011086322660851923076_);fill:#8B3A37;}
	.st214{clip-path:url(#SVGID_00000012461664570551376580000013025004285982149554_);}
	.st215{clip-path:url(#SVGID_00000103944244526729818340000002305795167837030844_);}
	.st216{clip-path:url(#SVGID_00000079461916445695697280000016124305401262262433_);}
	.st217{clip-path:url(#SVGID_00000005989144136683891970000001960531260892482705_);}
	.st218{clip-path:url(#SVGID_00000134215392823258248440000010233377732346938026_);}
	.st219{clip-path:url(#SVGID_00000177457438048389653650000013504327431357569197_);}
	.st220{clip-path:url(#SVGID_00000003078925396771840260000003077057823505627833_);fill:#FFFFFF;}
	.st221{clip-path:url(#SVGID_00000003078925396771840260000003077057823505627833_);fill:#8B3A37;}
	.st222{clip-path:url(#SVGID_00000049184784728249591450000010216869087594622135_);fill:#DF9E9E;}
	.st223{clip-path:url(#SVGID_00000051356423161155572670000002007268843330386077_);fill:#C98080;}
	.st224{clip-path:url(#SVGID_00000042732340835016502720000003426946433815518107_);fill:#C1C0C0;}
	.st225{clip-path:url(#SVGID_00000042728639051360789300000003316262058430395582_);fill:#C1C0C0;}
	.st226{clip-path:url(#SVGID_00000034784792668530815220000012267998899863233165_);}
	.st227{clip-path:url(#SVGID_00000046305007558431110370000017711050875331393693_);fill:#C1C0C0;}
	.st228{clip-path:url(#SVGID_00000108268173670574464090000003398987880137123774_);fill:#C1C0C0;}
	.st229{clip-path:url(#SVGID_00000056416224692111371920000013377452166378951356_);fill:#0E8042;}
	.st230{clip-path:url(#SVGID_00000166658960508092594140000011608763818538599315_);fill:#0E8042;}
	.st231{clip-path:url(#SVGID_00000054254921891034521430000017892921668276147643_);fill:#FFFFFF;}
	.st232{clip-path:url(#SVGID_00000054254921891034521430000017892921668276147643_);fill:#D8807E;}
	.st233{clip-path:url(#SVGID_00000014609758645336148880000005502769381284228284_);fill:#ECA45C;}
</style>
<g>
	<g>
		<path class="st4" d="M266.98,330.06c-5.18-5.76-7.59-13.59-6.22-20.75c1.32-6.91,5.6-12.13,9.73-17.17
			c2.79-3.4,5.42-6.61,7.06-10.19c3.03-6.62,2.37-14.81-1.68-20.86c-4.05-6.05-11.37-9.78-18.65-9.5c-2.11,0.08-3.89-1.56-3.97-3.67
			c-0.08-2.11,1.56-3.89,3.67-3.97c9.87-0.38,19.8,4.68,25.3,12.89c5.5,8.21,6.39,19.32,2.28,28.3c-2.05,4.47-5.12,8.23-8.1,11.85
			c-3.69,4.5-7.18,8.76-8.13,13.76c-1.05,5.48,1.41,11.86,6.12,15.88c4.47,3.82,10.91,5.81,17.68,5.46
			c2.11-0.11,3.91,1.51,4.02,3.62c0.11,2.11-1.51,3.91-3.62,4.02c-8.71,0.45-17.1-2.2-23.04-7.28
			C268.55,331.69,267.74,330.9,266.98,330.06z"/>
	</g>
	<g>
		<path class="st5" d="M293.81,301.91c-4.79-5.33-7.85-12.36-8.59-19.93c-0.26-2.74-0.22-5.44-0.18-8.05
			c0.06-3.65,0.11-7.11-0.66-10.32c-1.3-5.44-5.25-10.3-10.31-12.68c-5.06-2.38-11.32-2.34-16.34,0.12
			c-1.9,0.93-4.19,0.15-5.12-1.75c-0.93-1.9-0.14-4.19,1.75-5.12c7.17-3.51,15.75-3.57,22.97-0.17c7.22,3.4,12.63,10.06,14.49,17.82
			c0.99,4.14,0.93,8.24,0.87,12.21c-0.04,2.51-0.07,4.89,0.15,7.2c0.7,7.22,4.24,14.02,9.46,18.2c5.44,4.35,12.97,5.89,19.18,3.93
			c6.42-2.03,11.38-7.86,12.06-14.19c0.23-2.1,2.11-3.62,4.21-3.39c2.1,0.23,3.62,2.11,3.39,4.21c-1.01,9.4-7.99,17.7-17.37,20.66
			c-8.7,2.75-18.77,0.74-26.26-5.24C296.2,304.36,294.96,303.18,293.81,301.91z"/>
	</g>
	<g>
		<path class="st79" d="M250.58,247.84c-1.35-1.5-1.3-3.82,0.15-5.26c5.3-5.28,13.19-7.88,21.11-6.97
			c10.71,1.24,19.64,8.07,25.15,19.24c1.2,2.43,1.96,4.95,2.71,7.38c0.72,2.36,1.4,4.59,2.39,6.48c1.83,3.47,5.67,7.32,10.03,10.02
			c3.15,1.95,4.89,2.32,8.47,1.79c4.72-0.7,9.16-3.46,11.87-7.4c1.2-1.74,3.58-2.18,5.32-0.98c1.74,1.2,2.18,3.58,0.98,5.32
			c-3.89,5.65-10.27,9.62-17.05,10.63c-5.38,0.79-8.95,0.05-13.63-2.86c-5.53-3.44-10.3-8.28-12.76-12.96
			c-1.33-2.53-2.15-5.22-2.94-7.81c-0.68-2.24-1.33-4.36-2.25-6.23c-3.06-6.2-8.87-13.84-19.17-15.03
			c-5.54-0.64-11.23,1.19-14.84,4.79c-1.5,1.49-3.92,1.48-5.41-0.01C250.67,247.94,250.62,247.89,250.58,247.84z"/>
	</g>
	<g>
		<g>
			<path class="st1" d="M87.27,86.72c8.67,9.24,13.83,20.21,18.03,32.17c4.19,11.96,8.49,26.26,19.79,32
				c14.37,7.31,29.66-0.56,43.9,11.62c22.89,19.58,7.36,31.86,34.13,48.31c11.19,6.88,18.1,6.09,29.55,9.45
				c13.37,3.93,26.1,15.08,34.6,28.25c1.22-10.17-0.2-20.94-4.39-29.19c-5.39-10.61-17.34-15.2-27.44-20.02
				c-7.28-3.47-14.41-9-16.14-16.87c-2.72-12.37,8.6-23,12.57-35.02c3.02-9.14,1.51-19.62-3.95-27.54
				c-4.58-6.65-11.84-11.39-19.77-12.91c-10.58-2.02-22.36,1.36-31.8-3.83c-7.96-4.37-11.77-13.52-15.28-21.89
				c-6.99-16.7-20.24-26.8-38.54-28.6C99.52,50.39,78,61.94,58.09,74.97C68.87,74.64,79.86,78.82,87.27,86.72z"/>
		</g>
		<g>
			<path class="st79" d="M238.44,288.95c8.24-6.71,17.56-12.69,22.93-21.86c3.11-5.31,5.08-11.8,5.89-18.56
				c-8.5-13.18-21.23-24.33-34.6-28.25c-11.45-3.36-18.36-2.57-29.55-9.45c-26.77-16.45-11.24-28.74-34.13-48.31
				c-14.24-12.18-29.53-4.31-43.9-11.62c-11.29-5.74-15.59-20.05-19.79-32c-4.19-11.96-9.36-22.93-18.03-32.17
				c-7.41-7.89-18.39-12.08-29.18-11.75c-10.02,6.55-19.63,13.48-28.82,19.21C18.39,100.97-0.54,112.74,0,127.74
				c0.22,5.95,2.91,11.57,6.36,16.42c7.32,10.3,18.64,17.18,30.33,21.5c5.88,2.17,12.4,2.64,18.1,5.08
				c17.39,7.42,31.72,22.37,37.3,40.56c3.04,9.9,3.85,20.86,10,29.19c6.38,8.66,17.21,12.67,27.59,15.5
				c10.38,2.83,21.32,5.13,29.81,11.73c10.62,8.26,15.48,21.69,20.51,34.17c5.02,12.48,12.14,23.86,24.24,29.74
				C212.44,315.21,224.19,300.55,238.44,288.95z"/>
		</g>
	</g>
	<g>
		<defs>
			<path id="SVGID_00000163772919237549699390000016568979493616854447_" d="M204.23,331.64c-12.1-5.89-19.21-17.26-24.24-29.74
				c-5.02-12.48-9.89-25.91-20.51-34.17c-8.49-6.6-19.43-8.9-29.81-11.73s-21.21-6.84-27.59-15.5c-6.14-8.33-6.96-19.29-10-29.19
				c-5.58-18.18-19.91-33.13-37.3-40.56c-5.7-2.43-12.22-2.91-18.1-5.08c-11.69-4.32-23.01-11.2-30.33-21.5
				c-3.45-4.85-6.14-10.47-6.36-16.42c-0.54-15,18.39-26.77,29.27-33.56c27.44-17.12,58.67-44.93,93.26-41.53
				c18.3,1.8,31.55,11.9,38.54,28.6c3.5,8.38,7.32,17.52,15.28,21.89c9.44,5.19,21.22,1.8,31.8,3.83
				c7.93,1.52,15.2,6.26,19.77,12.91c5.45,7.92,6.96,18.41,3.95,27.54c-3.97,12.02-15.29,22.66-12.57,35.02
				c1.73,7.88,8.86,13.4,16.14,16.87c10.1,4.82,22.05,9.41,27.44,20.02c6.97,13.72,6.28,34.46-1.5,47.75
				c-5.37,9.17-14.69,15.15-22.93,21.86C224.19,300.55,212.44,315.21,204.23,331.64z"/>
		</defs>
		<clipPath id="SVGID_00000006708135222405646600000005917160306832032901_">
			<use xlink:href="#SVGID_00000163772919237549699390000016568979493616854447_"  style="overflow:visible;"/>
		</clipPath>
		<g style="clip-path:url(#SVGID_00000006708135222405646600000005917160306832032901_);">
			<path class="st2" d="M82.9,82.66c8.16,6.65,13.47,16.14,17.87,25.71c4.4,9.57,8.14,19.53,14.04,28.25s14.4,16.29,24.74,18.32
				c6.41,1.26,13.16,0.34,19.45,2.13c8.51,2.43,14.93,9.5,19.44,17.11c4.51,7.61,7.58,16.01,12.2,23.56s11.28,14.46,19.88,16.53
				c12.65,3.03,23.05,5.03,34.32,11.53c11.27,6.5,21,16.78,23.91,29.46c2.91,12.68-2.53,27.62-14.32,33.13
				c-2.99,1.4-6.6,2.13-9.52,0.59c-3.24-1.71-4.56-5.57-5.89-8.99c-7.03-18.04-22.41-32.61-40.8-38.66
				c-8.75-2.88-18.3-4.01-25.93-9.16c-6.86-4.63-11.37-12.01-14.82-19.54c-3.45-7.53-6.07-15.46-10.28-22.59
				c-4.21-7.13-10.36-13.58-18.31-15.89c-8.22-2.39-18.67-1.49-26.3-5.51c-7.79-4.11-14.01-11.31-17.98-19.07
				c-3.82-7.46-6.07-15.59-8.62-23.57s-5.47-15.98-10.41-22.75c-4.94-6.77-12.18-12.24-20.48-13.35c-3.09-0.41-6.73-0.46-8.56-2.98
				c-1.13-1.55-1.18-3.71-0.47-5.49c3.6-9,16.82-8.59,24.71-7.8C68.81,74.45,76.63,77.55,82.9,82.66z"/>
		</g>
		<g style="clip-path:url(#SVGID_00000006708135222405646600000005917160306832032901_);">
			<path class="st79" d="M91.29,162.7c-2.47-2.75-3.56-7.61-1.02-12.59c1.72-3.39,4.49-5.89,7.16-8.31
				c0.52-0.47,1.04-0.94,1.55-1.41c4.12-3.84,8.17-9.87,6.01-14.21c-2.69-5.43-8.84-4.06-16.59-1.7c-1.03,0.31-2.01,0.61-2.9,0.85
				c-3.23,0.87-6.74,0.38-9.38-1.31c-2.23-1.42-3.64-3.54-4.1-6.12c-1.26-7.19,5.05-10.18,9.66-12.36c1.73-0.82,3.37-1.6,4.53-2.47
				c2.38-1.79,4.1-5.03,2.83-7.34c-1.26-2.31-4.96-2.62-7.8-1.57c-1.64,0.6-3.18,1.51-4.81,2.47c-1.66,0.98-3.37,1.99-5.28,2.71
				c-4.37,1.65-10.07,1.12-12.54-3.08c-1.59-2.71-1.14-5.73-0.74-8.4c0.16-1.1,0.32-2.14,0.34-3.12c0.08-3.58-1.94-7.21-5.03-9.04
				c-3.09-1.82-7.24-1.84-10.34-0.04l-1.92-3.31c4.32-2.51,9.9-2.48,14.2,0.06c4.3,2.54,7.01,7.41,6.91,12.41
				c-0.03,1.22-0.21,2.43-0.38,3.59c-0.35,2.34-0.64,4.36,0.26,5.91c1.33,2.26,5.05,2.51,7.88,1.44c1.6-0.6,3.1-1.49,4.69-2.43
				c1.71-1.01,3.47-2.05,5.44-2.77c4.3-1.58,10.14-0.95,12.48,3.33c2.34,4.28-0.26,9.5-3.89,12.23c-1.47,1.11-3.28,1.96-5.2,2.87
				c-5.16,2.44-8.24,4.21-7.53,8.25c0.27,1.52,1.07,2.72,2.39,3.56c1.73,1.1,4.15,1.42,6.33,0.84c0.86-0.23,1.79-0.51,2.78-0.82
				c6.69-2.03,16.79-5.11,21.13,3.66c0.98,1.98,3.39,9.17-6.83,18.71c-0.52,0.49-1.05,0.97-1.59,1.45
				c-2.53,2.29-4.91,4.45-6.32,7.21c-1.45,2.86-1.45,7.07,1.1,8.88c2.78,1.98,7.19,0.23,9.85-2.61c0.87-0.93,1.77-2.07,2.71-3.28
				c3.77-4.83,8.93-11.43,17.05-7.29c7.3,3.73,5.15,10.33,3.57,15.15c-0.32,0.96-0.61,1.88-0.85,2.75
				c-0.92,3.44-0.64,5.94,0.81,7.49c2.97,3.11,10.71,2.45,14.11-0.31c2.18-1.77,3.62-4.33,5.15-7.04c0.74-1.32,1.51-2.68,2.38-3.98
				c3.09-4.6,8.59-8.35,13.9-6.38c4.02,1.49,7.27,6.83,5.51,12.85c-1.44,4.92-5.49,8.39-8.41,10.57c-0.43,0.32-0.87,0.64-1.31,0.96
				c-1.89,1.37-3.67,2.67-4.99,4.33c-1.22,1.54-2.31,4.09-1.37,6.21c1.17,2.65,5.03,3.38,8.08,2.55c2.22-0.6,4.27-1.77,6.44-3.01
				c1.27-0.72,2.57-1.47,3.94-2.11c5.11-2.39,9.96-2.36,13.3,0.1c4.86,3.57,4.7,10.7,2.09,15.6c-1.57,2.94-3.79,5.35-5.94,7.67
				c-1.19,1.29-2.31,2.51-3.34,3.81c-1.2,1.52-4.94,6.85-2.95,11.44c1.77,4.08,7.6,5.31,11.64,3.69c4.93-1.98,8.08-6.99,9.85-10.85
				l0.32-0.71c1.41-3.11,3.01-6.64,6.6-8.03c4.24-1.64,8.81,0.95,10.77,4.4c2.94,5.16,1.14,9.95-0.46,13.11
				c-2.26,4.43-3.06,11.31-0.22,15.88c1.6,2.58,4.5,4.39,7.39,4.6c2.46,0.18,5.69-1.79,8.63-5.29c1.04-1.23,1.97-2.55,2.96-3.94
				c1.39-1.97,2.83-4,4.6-5.79c3.86-3.89,8.63-5.56,12.78-4.47c5.66,1.5,8.58,7.76,8.13,12.94c-0.39,4.44-2.74,8.89-6.98,13.21
				c-1.58,1.61-3.28,3.09-4.93,4.52c-1.88,1.63-3.65,3.18-5.27,4.9c-1.07,1.14-2.38,2.68-2.95,4.44c-0.51,1.55-0.33,3.14,0.45,4.14
				c1.98,2.52,6.78,1.03,8.2,0.52c7.41-2.67,14.14-7.57,18.95-13.81l3.03,2.33c-5.25,6.81-12.59,12.16-20.68,15.07
				c-5.52,1.99-10.08,1.35-12.51-1.76c-1.56-1.99-1.98-4.94-1.08-7.69c0.81-2.48,2.46-4.44,3.8-5.87c1.75-1.86,3.68-3.54,5.54-5.17
				c1.59-1.38,3.23-2.82,4.71-4.32c3.61-3.67,5.59-7.33,5.9-10.86c0.31-3.53-1.63-7.93-5.3-8.91c-3.3-0.87-6.85,1.21-9.08,3.46
				c-1.55,1.57-2.84,3.39-4.2,5.31c-0.99,1.4-2.01,2.84-3.15,4.2c-2.23,2.64-6.73,7.02-11.85,6.64c-4.13-0.31-8.1-2.76-10.36-6.4
				c-3.75-6.04-2.6-14.41,0.06-19.63c1.97-3.86,2.13-6.7,0.55-9.48c-1.14-2.01-3.85-3.58-6.06-2.72c-2.14,0.83-3.34,3.48-4.5,6.04
				l-0.33,0.73c-2.95,6.43-7.07,10.86-11.9,12.8c-7.18,2.88-14.37-0.63-16.58-5.72c-2.76-6.36,1.49-12.84,3.45-15.33
				c1.12-1.42,2.35-2.76,3.54-4.04c2.08-2.25,4.04-4.37,5.37-6.88c1.88-3.53,2.03-8.51-0.98-10.72c-3.18-2.34-8.01-0.37-9.41,0.28
				c-1.23,0.58-2.42,1.25-3.67,1.97c-2.28,1.3-4.64,2.65-7.33,3.38c-4.54,1.23-10.5,0-12.57-4.7c-1.62-3.66-0.1-7.63,1.87-10.12
				c1.64-2.08,3.72-3.59,5.74-5.06c0.42-0.31,0.85-0.62,1.27-0.93c2.48-1.86,5.91-4.77,7.03-8.58c0.87-2.99-0.21-7.09-3.17-8.19
				c-3.34-1.24-7.21,1.68-9.39,4.92c-0.78,1.17-1.48,2.4-2.21,3.71c-1.63,2.91-3.32,5.91-6.07,8.14c-2.3,1.86-5.86,3.06-9.53,3.22
				c-4.13,0.18-7.6-0.98-9.76-3.24c-2.44-2.56-3.02-6.3-1.74-11.11c0.26-0.98,0.59-1.99,0.91-2.96c1.74-5.31,2.51-8.41-1.68-10.55
				c-4.95-2.53-7.95,0.67-12.29,6.24c-1,1.28-1.94,2.49-2.94,3.55c-3.73,3.98-10.2,6.42-14.85,3.11
				C92.11,163.51,91.68,163.13,91.29,162.7z"/>
		</g>
		<g style="clip-path:url(#SVGID_00000006708135222405646600000005917160306832032901_);">
			<path class="st62" d="M46.77,81.19l-2.92-7.07c15.63-6.45,34.63-2.35,46.21,9.98c10.03,10.7,15.35,23.53,18.85,33.52
				c0.28,0.8,0.56,1.6,0.84,2.42c3.7,10.68,7.9,22.78,17.07,27.44c5.47,2.78,11.26,3.08,17.4,3.4c8.51,0.44,18.17,0.95,27.26,8.72
				c11.58,9.91,14.11,18.3,16.35,25.7c2.31,7.66,4.31,14.28,17.29,22.26c7.01,4.31,12.01,5.32,18.35,6.61
				c3.16,0.64,6.42,1.3,10.27,2.43c22.12,6.5,43.3,31.53,47.2,55.8l-7.55,1.21c-3.42-21.28-22.57-44.03-41.81-49.68
				c-3.53-1.04-6.63-1.67-9.63-2.28c-6.52-1.32-12.68-2.57-20.84-7.59c-15.46-9.5-18.08-18.18-20.61-26.56
				c-2.12-7.02-4.12-13.65-14-22.1c-7.11-6.08-14.68-6.48-22.68-6.9c-6.66-0.35-13.55-0.71-20.47-4.22
				c-11.92-6.06-16.65-19.71-20.83-31.76c-0.28-0.81-0.56-1.6-0.83-2.39c-4.9-13.97-10.05-23.19-17.21-30.82
				C75.18,79.43,59.32,76,46.77,81.19z"/>
		</g>
		<g style="clip-path:url(#SVGID_00000006708135222405646600000005917160306832032901_);">
			<path class="st48" d="M24.6,94.63l-2.56-7.21c15.94-5.65,34.7-0.58,45.64,12.31c9.48,11.19,14.14,24.28,17.13,34.43
				c0.24,0.81,0.48,1.63,0.72,2.46c3.16,10.85,6.74,23.15,15.66,28.27c5.32,3.05,11.09,3.65,17.2,4.28
				c8.48,0.87,18.09,1.86,26.78,10.09c11.06,10.48,13.17,18.99,15.03,26.5c1.92,7.77,3.58,14.48,16.15,23.1
				c6.78,4.65,11.73,5.92,18,7.53c3.12,0.8,6.35,1.63,10.13,2.95c21.77,7.61,41.65,33.68,44.32,58.12l-7.6,0.83
				c-2.34-21.42-20.31-45.11-39.24-51.73c-3.48-1.22-6.54-2-9.51-2.76c-6.45-1.65-12.53-3.21-20.43-8.63
				c-14.96-10.27-17.14-19.07-19.24-27.57c-1.76-7.12-3.43-13.85-12.86-22.78c-6.8-6.44-14.33-7.21-22.3-8.03
				c-6.64-0.68-13.5-1.39-20.23-5.25c-11.6-6.66-15.64-20.53-19.2-32.77c-0.24-0.82-0.47-1.63-0.71-2.43
				c-4.19-14.2-8.86-23.67-15.63-31.65C53.08,94.3,37.41,90.09,24.6,94.63z"/>
		</g>
		<g style="clip-path:url(#SVGID_00000006708135222405646600000005917160306832032901_);">
			<path class="st5" d="M231.05,316.18c-16.75-8.08-27.59-27.03-26.06-45.57c0.93-11.21,5.92-22.19,4.29-33.33
				c-1.84-12.56-13.34-22.43-25.66-24.01c-13.25-1.7-20.48,8.96-31.77,12.33c-10.33,3.08-22.52-0.01-30.13-7.62
				c-10.86-10.87-8.64-24.04-5.99-37.49c2.42-12.29,5.78-24.03-5.39-33.24c-13.58-11.19-30.97-0.79-46.36-1.32
				c-13.79-0.47-27.05-8.71-33.57-20.86s-6.07-27.76,1.15-39.51l-59.99,47.8l223.77,248.99L231.05,316.18z"/>
		</g>
		<g style="clip-path:url(#SVGID_00000006708135222405646600000005917160306832032901_);">
			<path class="st4" d="M8.75,94.9c-2.15,16.31,3.12,33.45,14.05,45.74c10.93,12.29,27.34,19.52,43.79,19.28
				c10.06-0.14,21.83-2.33,28.76,4.96c7.02,7.4,4.03,19.21,3.62,29.41c-0.56,14.08,5.66,27.91,15.58,37.74
				c4.96,4.92,10.75,8.62,17.18,11.32c10.53,4.43,21.84-4.67,32.06-6.42c7.69-1.31,16.96-0.68,21.96,5.9
				c5.64,7.42,7.11,17.05,7.71,26.12c0.47,7.09-0.29,14.49,1.1,21.46c2.02,10.14,5.68,20.14,11.16,28.93
				c0.39,0.62,5.01,5.83,5.04,5.75l-9.26,41.84L-24.73,118.43L8.75,94.9z"/>
		</g>
	</g>
	<g>
		<path class="st4" d="M228.03,79.73c4.2-2.11,7.69-5.59,9.81-9.78c0.6-1.18,1.33-2.6,2.65-2.73c1.42-0.14,2.44,1.35,2.92,2.7
			c1.95,5.54,0.36,11.86-2.87,16.77c-3.24,4.91-7.94,8.65-12.68,12.12c-2.65,1.94-5.4,3.85-8.54,4.78s-6.79,0.74-9.39-1.26
			c-3.19-2.47-4.01-7.16-2.81-11.01c1.1-3.52,3.42-7.48,7.04-8.97c2.07-0.85,4.03-0.26,6.15-0.45
			C222.98,81.65,225.62,80.94,228.03,79.73z"/>
	</g>
	<g>
		<path class="st5" d="M175.16,139.09c5.58-8.1,13.41-14.55,20.34-21.46c8-7.98,16.33-16.52,19.11-27.47
			c3-11.8-1.59-25.17-11.21-32.64c-3.15-2.44-6.73-4.27-9.9-6.69c-4.88-3.72-8.67-8.75-13.76-12.17c-7.07-4.76-15.7-5.8-24.03-5.49
			c-9.97,0.38-19.94,1.79-29.47,4.79c-8.02,2.53-21.1,6.29-21.7,16.54c-0.2,3.43,1.34,6.77,3.54,9.41s5,4.69,7.78,6.71
			c-1.59,1.77-3.02,2.99-4.89,4.38c-7.48,5.56-16.57,9.83-22.43,17.42c-2.73,3.54-4.98,8.59-3.9,13.17
			c1.29,5.45,7.55,9.34,12.12,11.82c5.38,2.93,11.51,4.08,16.85,6.82c6.14,3.15,12.29,6.11,18.15,9.78
			c3.76,2.35,7.46,4.56,10.23,7.99c3.37,4.17,7.26,8.03,10.87,11.99c1.88,2.07,3.97,4.25,6.72,4.73c2.88,0.5,5.81-1.08,7.69-3.32
			c3.53-4.2,3.87-10.03,6.75-14.6C174.39,140.22,174.77,139.65,175.16,139.09z"/>
	</g>
	<g>
		<path class="st61" d="M196.27,77.85c-6.03,1.19-10.91,5.13-14.46,10.21c-3.05,4.38-4.96,9.57-2.78,14.78
			c2,4.79,7.05,7.94,12.18,8.15c6.15,0.25,11.74-3.35,15.44-8.04c3.55-4.5,6.63-11.26,5.5-17.08c-1.25-6.45-7.72-8.79-13.64-8.32
			C197.75,77.6,197,77.7,196.27,77.85z"/>
	</g>
	<g>
		<path class="st2" d="M129.52,86.98c-3.91-3.05-9.61-4.74-14.32-2.85c-4.77,1.91-8.65,5.41-12.6,8.59
			c-3.01,2.42-7.33,5.09-7.41,9.42c-0.05,2.67,1.75,5.09,3.97,6.57c2.22,1.48,4.84,2.21,7.37,3.05
			c14.47,4.74,27.64,13.41,37.72,24.82c2.15,2.43,4.31,4.86,6.48,7.28c1.39,1.56,3.05,2.99,5.05,3.57
			c5.78,1.67,9.85-5.63,12.78-9.33c2.28-2.9,4.68-6.12,4.61-9.81c-0.06-3.28-2.09-6.17-4.16-8.71c-7.42-9.1-16.75-16.36-26.29-23.1
			c-4.37-3.09-8.85-6.01-13.01-9.35C129.64,87.07,129.58,87.03,129.52,86.98z"/>
	</g>
	<g>
		<defs>
			<path id="SVGID_00000085215746724471424020000015671375018023917750_" d="M128.1,88.26c-3.91-3.05-9.61-4.74-14.32-2.85
				c-4.77,1.91-8.65,5.41-12.6,8.59c-3.01,2.42-7.33,5.09-7.41,9.42c-0.05,2.67,1.75,5.09,3.97,6.57c2.22,1.48,4.84,2.21,7.37,3.05
				c14.47,4.74,27.64,13.41,37.72,24.82c2.15,2.43,4.31,4.86,6.48,7.28c1.39,1.56,3.05,2.99,5.05,3.57
				c5.78,1.67,9.85-5.63,12.78-9.33c2.28-2.9,4.68-6.12,4.61-9.81c-0.06-3.28-2.09-6.17-4.16-8.71c-7.42-9.1-16.75-16.36-26.29-23.1
				c-4.37-3.09-8.85-6.01-13.01-9.35C128.22,88.35,128.16,88.3,128.1,88.26z"/>
		</defs>
		<clipPath id="SVGID_00000023252899433389195750000004925171579692702397_">
			<use xlink:href="#SVGID_00000085215746724471424020000015671375018023917750_"  style="overflow:visible;"/>
		</clipPath>
		<g style="clip-path:url(#SVGID_00000023252899433389195750000004925171579692702397_);">
			<path class="st82" d="M100.13,91.84c28.52,2.1,56.52,25.13,67.27,51.17c-10.4-9.97-20.35-19.68-31.61-28.41
				C124.61,105.78,112.88,98.55,100.13,91.84L100.13,91.84z"/>
		</g>
	</g>
	<g>
		<g>
			<path class="st48" d="M183.65,119.97c-2.62-0.22-5.23-0.53-7.86-0.73c-1.96-0.15-4.11-0.75-5.97,0.08
				c-1.38,0.62-2.52,1.68-3.73,2.59c-0.72,0.54-1.7,0.91-2.35,1.52c-0.79,0.75-1.06,1.73-2.07,2.33c-1.03,0.62-2.25,0.81-3.43,0.99
				c-2.28,0.34-4.48,0.59-6.74-0.06c-2.05-0.59-3.94-1.62-5.88-2.47c-2.46-1.07-4.72-2.61-6.59-4.54
				c-2.96-3.04-4.93-6.91-6.39-10.89c-1.78-4.86-2.33-11.42,2.28-15.03c1.51-1.19,3.31-1.82,5.09-2.47
				c0.97-0.36,1.94-0.72,2.86-1.18c2.47-1.24,4.64-3.18,6.26-5.34c1.71-2.29,3.52-4.53,6.36-5.35c4.91-1.41,9.48,0.07,13.25,3.34
				c3.84,3.33,6.69,7.63,10.03,11.43c1.18,1.35,2.42,2.65,3.8,3.8c1.41,1.18,3.02,2.04,4.68,2.8c3.99,1.82,8.49,2.25,12.26,4.6
				c3.34,2.08,5.09,5.45,5.93,9.19c0.37,1.65,0.56,3.4,0.02,5c-0.54,1.6-1.96,3-3.65,3.05c-0.82,0.03-1.22-0.53-1.89-0.85
				c-0.75-0.36-1.38-0.9-2.13-1.25c-0.73-0.34-1.5-0.23-2.26-0.16c-1.87,0.17-3.77,0.1-5.64,0.02
				C187.81,120.3,185.73,120.15,183.65,119.97z"/>
		</g>
		<g>
			<path class="st79" d="M151.47,102.91c-2.83,1.91-5.66,3.81-8.49,5.72c-1.82,1.22-3.72,2.55-4.64,4.54
				c-1.11,2.4-0.5,5.3,0.84,7.58c2.09,3.53,5.7,5.85,9.33,7.77c3.63,1.92,7.45,3.6,10.49,6.36c3.97,3.61,6.54,9.02,11.51,11.06
				c3.2,1.32,6.91,0.94,10.12-0.35s6.01-3.42,8.67-5.63c4.14-3.44,8.07-7.16,11.74-11.1c1.91-2.05,3.86-4.47,3.72-7.27
				c-0.29-5.68-6.94-6.73-11.09-8.31c-5.16-1.96-10.01-4.75-14.28-8.24c-3.69-3.01-7.16-6.65-11.75-7.92
				C160.99,95.28,156.52,99.52,151.47,102.91z"/>
		</g>
		<g>
			<path class="st48" d="M153.93,116.68c-0.39,2.13,0.67,4.38,2.41,5.66c3.42,2.5,7.77,1.12,10.79-1.33
				c1.59-1.29,2.84-3.09,3.21-5.11c0.49-2.71-0.86-5.5-3.26-6.85C162.6,106.53,154.75,112.21,153.93,116.68z"/>
		</g>
		<g>
			<path class="st48" d="M174.72,128.6c-0.39,2.13,0.67,4.38,2.41,5.66c3.42,2.5,7.77,1.12,10.79-1.33
				c1.59-1.29,2.84-3.09,3.21-5.11c0.49-2.71-0.86-5.5-3.26-6.85C183.39,118.45,175.54,124.12,174.72,128.6z"/>
		</g>
	</g>
	<g>
		<path class="st61" d="M167.22,49.18c-6.41,0.76-11.33,4.66-14.71,9.93c-2.9,4.54-4.5,10.08-1.68,16.01
			c2.6,5.44,8.34,9.37,13.9,10.06c6.67,0.82,12.39-2.63,15.96-7.46c3.43-4.63,6.15-11.79,4.41-18.29
			c-1.93-7.21-9.14-10.37-15.49-10.38C168.79,49.04,168,49.09,167.22,49.18z"/>
	</g>
	<g>
		<path class="st2" d="M202.23,82.16c-6.03,1.19-10.91,5.13-14.46,10.21c-3.05,4.38-4.96,9.57-2.78,14.78
			c2,4.79,7.05,7.94,12.18,8.15c6.15,0.25,11.74-3.35,15.44-8.04c3.55-4.5,6.63-11.26,5.5-17.08c-1.25-6.45-7.72-8.79-13.64-8.32
			C203.7,81.91,202.96,82.02,202.23,82.16z"/>
	</g>
	<g>
		<path class="st4" d="M210.29,92.4c-1.53-1.69-3.92-2.4-6.08-1.5c-1.21,0.51-2.2,1.5-2.74,2.68c-0.55,1.19-0.32,2.61-1.07,3.7
			c-1.11,1.62-3.54,1.64-5.04,2.91c-2.75,2.32-0.97,7.31,1.8,8.76c2.68,1.4,5.88,0.3,8.41-0.9
			C211.28,105.33,215.09,97.68,210.29,92.4z"/>
	</g>
	<g>
		<path class="st62" d="M186.41,49.58c3.8,2.94,7.66,5.95,10.33,9.94c1.52,2.27,2.59,4.84,3.01,7.55c0.67,4.23-0.06,9.49-2.77,12.92
			c-1.55,1.96-3.58,3.13-5.39,4.77c-1.58,1.43-3.11,3.09-4.59,4.64c-1.63,1.7-3.28,3.42-4.53,5.42c-1.11,1.78-1.29,5.38-2.97,6.61
			c-1.92,1.4-4.87-0.69-5.96-2.28c-1.34-1.97-1.45-4.7-0.27-6.77c1.28-2.26,3.75-3.5,5.94-4.9c3.61-2.32,6.7-5.54,8.82-9.28
			c1.97-3.48,3.48-7.47,2.25-11.43c-0.83-2.66-2.4-5.21-4.45-7.16c-2.1-2.01-5.01-2.99-7-5.08c-1.95-2.04-2.51-5.29-1.34-7.86
			c0.38-0.83,1.28-2.11,2.33-2.11c0.98,0,1.81,1.32,2.54,1.89C183.71,47.49,185.06,48.54,186.41,49.58z"/>
	</g>
	<g>
		<path class="st1" d="M175.55,98.09c0.35-3.54,4.74-4.48,7.26-6.03c3.37-2.08,6.39-4.77,8.67-8.02c2.85-4.09,4.49-9.08,4.21-14.06
			c-0.37-6.64-4.75-13.63-10.77-16.55c-1.54-0.75-3.2-1.29-4.61-2.27s-2.55-2.58-2.4-4.28c0.25-2.84,3.42-4.09,5.7-4.99
			c2.43-0.96,5.15-1.49,7.69-0.65c2.47,0.82,4.41,2.82,5.69,5.09c1.05,1.85,1.68,3.88,2.28,5.92c0.56,1.92,1.41,3.77,2,5.7
			c1.27,4.15,2.19,8.4,2.74,12.71c-0.08-0.66,7.47-1.15,8.15-1.11c3.29,0.19,6.55,1.09,9.47,2.63c1.22,0.65,2.49,1.46,3.41,2.51
			c0.72,0.81,1.02,2.02,1.22,3.08c0.45,2.35,0.17,4.85-0.85,7.02c-0.45,0.96-1.09,1.91-2.06,2.35c-1.39,0.64-2.48-0.27-3.39-1.23
			c-0.98-1.03-1.93-2.26-3.07-3.11c-1.2-0.89-2.79-1.35-4.2-1.75c-1.96-0.54-4.02-0.72-6.04-0.5c-4.32,0.47-8.68,3.38-12.18,5.83
			c-4.04,2.84-7.29,6.57-9.18,11.16c-0.57,1.39-1.06,2.89-2.15,3.94c-1.45,1.4-3.88,1.65-5.59,0.57
			C176.04,101.1,175.41,99.57,175.55,98.09z"/>
	</g>
	<g>
		<path class="st4" d="M162.5,36.84c1.1,3.6,1.03,6.19-2.62,8.25c-4.19,2.36-9.54,2.84-13.86,0.72c-4.32-2.11-7.31-6.97-6.72-11.75
			c0.5-4.06,2.16-7.33,4.17-10.9c2.38-4.23,5.24-8.21,8.64-11.68c4.91-5.01,11.48-9.16,18.36-10.63c2.29-0.49,10.18-2.29,10.64,1.47
			c0.28,2.32-2.61,3.39-4.13,4.59c-4.59,3.63-8.86,8.09-11.81,13.18c-2.82,4.88-4.45,11.06-2.72,16.6
			C162.47,36.75,162.48,36.79,162.5,36.84z"/>
	</g>
	<g>
		<path class="st2" d="M172.05,54.55c-6.41,0.76-11.33,4.66-14.71,9.93c-2.9,4.54-4.5,10.08-1.68,16.01
			c2.6,5.44,8.34,9.37,13.9,10.06c6.67,0.82,12.39-2.63,15.96-7.46c3.43-4.63,6.15-11.79,4.41-18.29
			c-1.93-7.21-9.14-10.37-15.49-10.38C173.62,54.41,172.82,54.45,172.05,54.55z"/>
	</g>
	<g>
		<path class="st4" d="M173.68,64.47c-1.32,0.27-2.51,0.91-3.34,1.97c-1.11,1.43-0.68,3.29-1.64,4.62
			c-0.96,1.33-2.32,1.38-3.79,1.82c-0.95,0.29-1.9,0.7-2.6,1.41c-1.1,1.12-1.22,3.12-0.83,4.57c0.89,3.3,4.02,5.62,7.51,5.91
			c3.49,0.28,7.19-1.33,9.78-3.96c2.81-2.85,4.85-7.65,4.02-11.42C181.97,65.76,177.32,63.72,173.68,64.47z"/>
	</g>
	<g>
		<path class="st2" d="M119.49,66.43c-0.67-0.74-1.19-1.59-1.56-2.51c-0.77-1.94-0.76-4.04-0.11-5.92c-0.38-2.35,0.17-4.85,1.66-6.9
			c1.04-1.43,2.46-2.54,4.1-3.26c1.6-2.6,4.38-4.43,7.6-4.66c2.46-0.17,4.92,0.64,6.9,2.3c0.36,0.3,0.71,0.63,1.03,0.99
			c0.67,0.17,1.33,0.42,1.96,0.75c0.97,0.5,1.85,1.18,2.6,2.02c2.26,2.51,3.11,6.03,2.22,9.18c-0.24,0.85-0.6,1.65-1.06,2.38
			c0.05,1.08-0.09,2.17-0.46,3.2c-1.03,2.93-3.6,5.21-6.87,6.09c-0.31,0.08-0.61,0.15-0.92,0.21c-0.55,0.55-1.18,1.04-1.87,1.45
			c-3.11,1.84-7.07,1.74-10.09-0.25c-0.66-0.44-1.27-0.96-1.8-1.56c-0.5-0.56-0.93-1.17-1.29-1.81
			C120.8,67.67,120.1,67.11,119.49,66.43z"/>
	</g>
	<g>
		<path class="st79" d="M140.03,56.75c-0.35,1.23-1.5,2.19-2.77,2.31c1.18,0.27,1.77,1.76,1.37,2.9c-0.4,1.14-1.53,1.9-2.69,2.21
			c-0.5,0.13-1.03,0.2-1.53,0.07c-0.5-0.13-0.96-0.49-1.11-0.98c0.1,1.26-0.57,2.55-1.66,3.2c-1.09,0.64-2.55,0.61-3.6-0.09
			s-1.66-2.02-1.5-3.28c-1.14,0.33-2.47-0.33-2.91-1.43c-0.44-1.1,0.09-2.49,1.14-3.04c-1.13-0.91-1.18-2.76-0.33-3.93
			c0.85-1.17,2.38-1.71,3.84-1.69c-0.07-1.85,1.51-3.6,3.35-3.73c0.93-0.07,1.84,0.3,2.55,0.89c0.36,0.3,0.67,0.66,0.93,1.05
			c0.23,0.36,0.62,0.86,0.6,1.31c0.82-0.34,1.8-0.3,2.59,0.11C139.65,53.35,140.44,55.27,140.03,56.75z"/>
	</g>
	<g>
		<path class="st2" d="M55.44,120.61c-0.27,0.94-1.14,1.67-2.12,1.77c0.9,0.2,1.36,1.35,1.05,2.22c-0.31,0.87-1.17,1.45-2.06,1.69
			c-0.38,0.1-0.79,0.16-1.17,0.06c-0.38-0.1-0.74-0.37-0.85-0.75c0.08,0.96-0.44,1.95-1.27,2.44c-0.83,0.49-1.95,0.46-2.75-0.07
			c-0.81-0.53-1.27-1.55-1.14-2.5c-0.87,0.25-1.89-0.25-2.22-1.09c-0.33-0.84,0.07-1.9,0.87-2.32c-0.86-0.7-0.9-2.11-0.25-3.01
			c0.65-0.9,1.82-1.31,2.93-1.29c-0.05-1.41,1.15-2.75,2.56-2.85c0.71-0.05,1.41,0.23,1.95,0.68c0.27,0.23,0.51,0.5,0.71,0.8
			c0.18,0.28,0.47,0.66,0.45,1c0.63-0.26,1.37-0.23,1.98,0.09C55.15,118.02,55.76,119.48,55.44,120.61z"/>
	</g>
	<g>
		<path class="st2" d="M133.02,196.77c-0.61-0.43-1.44-0.56-2.12-0.26c-0.68,0.3-1.15,1.06-1.06,1.8c-0.35-0.55-1-0.91-1.66-0.86
			c-0.65,0.05-1.26,0.51-1.45,1.14c-0.19,0.63,0.08,1.37,0.64,1.7c-1.12-0.01-2.25,0.55-2.86,1.5c-0.61,0.94-0.64,2.24-0.03,3.19
			c0.61,0.94,1.86,1.44,2.94,1.12c-0.45,0.4-0.35,1.13-0.1,1.67c0.33,0.71,0.9,1.32,1.61,1.63c0.71,0.31,1.58,0.3,2.25-0.09
			c0.67-0.4,1.1-1.2,0.98-1.98c0.74,0.59,1.85,0.62,2.66,0.13c0.81-0.49,1.29-1.45,1.28-2.4c0-0.41-0.11-0.79-0.25-1.18
			c-0.05-0.13-0.39-1.01-0.52-0.96c0.72-0.26,1.29-0.91,1.45-1.66c0.16-0.75-0.09-1.57-0.64-2.1c-0.55-0.53-1.38-0.76-2.12-0.57
			C134,197.86,133.59,197.18,133.02,196.77z"/>
	</g>
	<g>
		<path class="st2" d="M224.56,275.72c-0.56-0.38-1.35-0.46-2.02-0.14c-0.67,0.32-1.15,1.06-1.1,1.75
			c-0.31-0.51-0.92-0.81-1.54-0.74c-0.63,0.08-1.23,0.54-1.44,1.14c-0.21,0.6,0.01,1.29,0.53,1.58c-1.07,0.04-2.18,0.63-2.81,1.55
			s-0.72,2.16-0.18,3.02c0.54,0.86,1.71,1.28,2.76,0.92c-0.45,0.4-0.39,1.08-0.17,1.58c0.29,0.65,0.8,1.2,1.47,1.47
			c0.67,0.26,1.5,0.21,2.16-0.2c0.66-0.41,1.11-1.19,1.04-1.92c0.68,0.53,1.75,0.5,2.54,0c0.8-0.51,1.3-1.43,1.34-2.33
			c0.02-0.39-0.06-0.75-0.18-1.11c-0.04-0.12-0.33-0.94-0.45-0.89c0.7-0.28,1.27-0.92,1.46-1.64c0.19-0.72-0.01-1.49-0.51-1.96
			c-0.5-0.48-1.29-0.65-2.01-0.44C225.45,276.7,225.09,276.08,224.56,275.72z"/>
	</g>
	<g>
		<path class="st2" d="M205.84,187.89c2.31,0.9,4.05,3.1,4.4,5.55c0.35,2.45-0.72,5.05-2.68,6.55c-1.84-1.37-3.08-3.43-3.45-5.69
			C203.74,192.03,204.55,189.78,205.84,187.89z"/>
	</g>
	<g>
		<path class="st2" d="M201.73,157.61c-1.23,2.15-3.68,3.54-6.15,3.51c-2.47-0.03-4.89-1.47-6.07-3.64
			c1.64-1.61,3.86-2.52,6.15-2.55C197.94,154.9,200.05,156.04,201.73,157.61z"/>
	</g>
	<g>
		<path class="st2" d="M218.18,142.08c-2.46,0.23-5.01-0.97-6.41-3.01s-1.61-4.84-0.52-7.06c2.26,0.41,4.28,1.7,5.63,3.56
			C218.22,137.43,218.5,139.81,218.18,142.08z"/>
	</g>
	<g>
		<path class="st2" d="M250.95,215.57c-2.1,1.32-4.9,1.41-7.08,0.23s-3.63-3.59-3.66-6.06c2.2-0.66,4.59-0.43,6.63,0.62
			C248.87,211.41,250.21,213.4,250.95,215.57z"/>
	</g>
	<g>
		<path class="st2" d="M100.36,72.4c-1.74,1.76-4.45,2.49-6.84,1.84c-2.39-0.65-4.35-2.66-4.95-5.07c1.99-1.14,4.37-1.46,6.6-0.91
			S99.14,70.46,100.36,72.4z"/>
	</g>
</g>
</svg>
