<?xml version="1.0" encoding="utf-8"?>
<!-- Generator: Adobe Illustrator 27.0.1, SVG Export Plug-In . SVG Version: 6.00 Build 0)  -->
<svg version="1.1" id="Layer_1" xmlns="http://www.w3.org/2000/svg" xmlns:xlink="http://www.w3.org/1999/xlink" x="0px" y="0px"
	 viewBox="0 0 283.63 360.62" style="enable-background:new 0 0 283.63 360.62;" xml:space="preserve">
<style type="text/css">
	.st0{fill:#0A2B17;}
	.st1{fill:#0E8042;}
	.st2{fill:#FFFFFF;}
	.st3{fill:#1A3826;}
	.st4{fill:#3D1947;}
	.st5{fill:#ECA45C;}
	.st6{fill:#D53D3D;}
	.st7{clip-path:url(#SVGID_00000180349505245145988600000006492257465221016976_);}
	.st8{fill:#802420;}
	.st9{fill:#8C5443;}
	.st10{fill:#3C1948;}
	.st11{fill:none;stroke:#3C1948;stroke-linecap:round;stroke-linejoin:round;stroke-miterlimit:10;}
	.st12{clip-path:url(#SVGID_00000016769831763215209680000009740338778492279737_);}
	.st13{fill:#802421;}
	.st14{opacity:0.29;fill:#92C9E0;}
	.st15{clip-path:url(#SVGID_00000020391676653915777820000010774193742989063061_);fill:#FFFFFF;}
	.st16{clip-path:url(#SVGID_00000020391676653915777820000010774193742989063061_);fill:#D9807E;}
	.st17{opacity:0.29;fill:#92C9E0;stroke:#FFFFFF;stroke-width:5;stroke-miterlimit:10;}
	.st18{opacity:0.29;fill:#92C9E0;stroke:#FFFFFF;stroke-miterlimit:10;}
	.st19{opacity:0.29;fill:#92C9E0;stroke:#FFFFFF;stroke-width:3;stroke-miterlimit:10;}
	.st20{fill:#934F3E;}
	.st21{clip-path:url(#SVGID_00000041254491412299410480000010836866673765034428_);fill:#41164A;}
	.st22{clip-path:url(#SVGID_00000127754675803631288610000003543411658460241327_);fill:#41164A;}
	.st23{clip-path:url(#SVGID_00000130648713039425655150000008489665683362533818_);fill:#FFFFFF;}
	.st24{clip-path:url(#SVGID_00000130648713039425655150000008489665683362533818_);fill:#41164A;}
	.st25{fill:#41164A;}
	.st26{clip-path:url(#SVGID_00000141440685457796902530000004468465833711639736_);fill:#FFFFFF;}
	.st27{clip-path:url(#SVGID_00000141440685457796902530000004468465833711639736_);fill:#E47D7A;}
	.st28{fill:none;}
	.st29{fill:#E09F9E;}
	.st30{fill:#CB8080;}
	.st31{clip-path:url(#SVGID_00000056400561088988092990000014141242411826635648_);fill:#E09F9E;}
	.st32{fill:#3C1947;}
	.st33{fill:#EAC5B1;}
	.st34{clip-path:url(#SVGID_00000012467439924838671990000009155920846784172179_);fill:#CB8080;}
	.st35{fill:#0B8043;}
	.st36{fill:#DBDBDA;}
	.st37{clip-path:url(#SVGID_00000111182767345724053310000016333877003817535638_);fill:#C2C1C1;}
	.st38{clip-path:url(#SVGID_00000118356458359803243130000016578555858752191638_);fill:#C2C1C1;}
	.st39{clip-path:url(#SVGID_00000044135509596881895320000009147654634811986353_);}
	.st40{fill:#C2C1C1;}
	.st41{clip-path:url(#SVGID_00000070820796137018751820000015238450020268456854_);fill:#C2C1C1;}
	.st42{clip-path:url(#SVGID_00000016061143893318388090000006648626265078698410_);fill:#C2C1C1;}
	.st43{clip-path:url(#SVGID_00000150083411992365536390000010046096735149248676_);fill:#0B8043;}
	.st44{clip-path:url(#SVGID_00000148663346423260509580000001432618883351214759_);fill:#0B8043;}
	.st45{fill:#A55933;}
	.st46{fill:#803C26;}
	.st47{fill:#C64B45;}
	.st48{fill:#8B3A37;}
	.st49{clip-path:url(#SVGID_00000137099741148141720430000001004156447508667798_);}
	.st50{clip-path:url(#SVGID_00000174597979031248864130000015477998408809196431_);}
	.st51{clip-path:url(#SVGID_00000089545640659889698760000007867660521026595263_);}
	.st52{clip-path:url(#SVGID_00000165201058892763036190000016835169448575860880_);}
	.st53{clip-path:url(#SVGID_00000069388528429462837570000000486138756791168906_);}
	.st54{clip-path:url(#SVGID_00000137100854578940272550000016123826236287629742_);}
	.st55{clip-path:url(#SVGID_00000137820028826448689110000007525851726246646421_);fill:#41164A;}
	.st56{clip-path:url(#SVGID_00000026879472414630435010000004679501087219736463_);fill:#41164A;}
	.st57{clip-path:url(#SVGID_00000084496867942220903860000001543228861792441765_);fill:#FFFFFF;}
	.st58{clip-path:url(#SVGID_00000084496867942220903860000001543228861792441765_);fill:#41164A;}
	.st59{clip-path:url(#SVGID_00000094600950318774970730000011514823426216344236_);fill:#FFFFFF;}
	.st60{clip-path:url(#SVGID_00000094600950318774970730000011514823426216344236_);fill:#E47D7A;}
	.st61{fill:#C28F5D;}
	.st62{fill:#375A42;}
	.st63{clip-path:url(#SVGID_00000061445632498622413590000006881608495316530597_);fill:#6AA17A;}
	.st64{clip-path:url(#SVGID_00000126321407245066337020000015796453153919948185_);fill:#6AA17A;}
	.st65{fill:#6AA17A;}
	.st66{clip-path:url(#SVGID_00000138531610664509092080000004920847368609746876_);fill:#3D1947;}
	.st67{clip-path:url(#SVGID_00000180329736462718170250000011313915831493172153_);fill:#8B3A37;}
	.st68{clip-path:url(#SVGID_00000137826664591276986680000002080854777478377661_);}
	.st69{clip-path:url(#SVGID_00000074420612629072013920000008168128847473442187_);fill:#FFFFFF;}
	.st70{clip-path:url(#SVGID_00000074420612629072013920000008168128847473442187_);fill:#D9807E;}
	.st71{clip-path:url(#SVGID_00000070111188393312831630000009334286627670836869_);fill:#41164A;}
	.st72{clip-path:url(#SVGID_00000124148181742012103600000015320820933703773862_);fill:#41164A;}
	.st73{clip-path:url(#SVGID_00000012457603867538537170000002275515206879063214_);fill:#FFFFFF;}
	.st74{clip-path:url(#SVGID_00000012457603867538537170000002275515206879063214_);fill:#41164A;}
	.st75{clip-path:url(#SVGID_00000075128567391359093240000015023439973516153001_);fill:#FFFFFF;}
	.st76{clip-path:url(#SVGID_00000075128567391359093240000015023439973516153001_);fill:#E47D7A;}
	.st77{fill:#D2687C;}
	.st78{clip-path:url(#SVGID_00000034791396433737875130000010643762142994300313_);fill:#C64B45;}
	.st79{fill:#D1544C;}
	.st80{clip-path:url(#SVGID_00000012430777282066192960000013245159045402418856_);}
	.st81{clip-path:url(#SVGID_00000182507782304281111400000014826280327329025409_);}
	.st82{fill:#DADAD9;}
	.st83{clip-path:url(#SVGID_00000024695693936000450150000004974723480665215115_);fill:#0E8042;}
	.st84{clip-path:url(#SVGID_00000024695693936000450150000004974723480665215115_);fill:#1A3826;}
	.st85{clip-path:url(#SVGID_00000100383317540342026570000006129189894248039309_);fill:#0E8042;}
	.st86{clip-path:url(#SVGID_00000100383317540342026570000006129189894248039309_);fill:#1A3826;}
	.st87{fill:none;stroke:#0E8042;stroke-linecap:round;stroke-linejoin:round;stroke-miterlimit:10;}
	.st88{clip-path:url(#SVGID_00000018197586188915618630000009869370928342343048_);}
	.st89{clip-path:url(#SVGID_00000125561440704626622190000017642119055919074201_);fill:#0E8042;}
	.st90{clip-path:url(#SVGID_00000131356581465403637560000000337287940366022320_);fill:#0E8042;}
	.st91{clip-path:url(#SVGID_00000131356581465403637560000000337287940366022320_);fill:#1A3826;}
	.st92{clip-path:url(#SVGID_00000178201864279545243850000010078453067715401356_);fill:#0E8042;}
	.st93{clip-path:url(#SVGID_00000178201864279545243850000010078453067715401356_);fill:#1A3826;}
	.st94{clip-path:url(#SVGID_00000031207088399948307600000014046718502974042268_);fill:#0E8042;}
	.st95{clip-path:url(#SVGID_00000031207088399948307600000014046718502974042268_);fill:#1A3826;}
	.st96{clip-path:url(#SVGID_00000142167645363401602250000017648369229452007607_);fill:#0E8042;}
	.st97{clip-path:url(#SVGID_00000142167645363401602250000017648369229452007607_);fill:#1A3826;}
	.st98{clip-path:url(#SVGID_00000179640412085258659440000001913972050371305402_);}
	.st99{clip-path:url(#SVGID_00000072262779846795781670000011970758409671545767_);fill:#0E8042;}
	.st100{clip-path:url(#SVGID_00000072262779846795781670000011970758409671545767_);fill:#1A3826;}
	.st101{clip-path:url(#SVGID_00000126285564461285647250000013778887035807630760_);}
	.st102{clip-path:url(#SVGID_00000072282440674863328420000004114306591175923866_);fill:#FFFFFF;}
	.st103{clip-path:url(#SVGID_00000072282440674863328420000004114306591175923866_);fill:#D9807E;}
	.st104{clip-path:url(#SVGID_00000140714808202458089270000004975742078602330020_);fill:#41164A;}
	.st105{clip-path:url(#SVGID_00000183927333722394954070000009773411565936381075_);fill:#41164A;}
	.st106{clip-path:url(#SVGID_00000183207179696364898310000001245359897850618552_);fill:#FFFFFF;}
	.st107{clip-path:url(#SVGID_00000183207179696364898310000001245359897850618552_);fill:#41164A;}
	.st108{clip-path:url(#SVGID_00000003097191191471788880000003199819721433824446_);fill:#FFFFFF;}
	.st109{clip-path:url(#SVGID_00000003097191191471788880000003199819721433824446_);fill:#E47D7A;}
	.st110{clip-path:url(#SVGID_00000011745658484324464510000012641610484217250980_);fill:#E09F9E;}
	.st111{clip-path:url(#SVGID_00000029758068099311375320000008643963521415112595_);fill:#CB8080;}
	.st112{clip-path:url(#SVGID_00000068668507389950974030000012868657144643604873_);fill:#C2C1C1;}
	.st113{clip-path:url(#SVGID_00000148644654327696937860000018244133383335028886_);fill:#C2C1C1;}
	.st114{clip-path:url(#SVGID_00000065775403615559498910000003640506280513428362_);}
	.st115{clip-path:url(#SVGID_00000041278025563903451110000007234558289435214209_);fill:#C2C1C1;}
	.st116{clip-path:url(#SVGID_00000004540365171063041630000008394878182606347198_);fill:#C2C1C1;}
	.st117{clip-path:url(#SVGID_00000074436681165360330300000000746429516458949305_);fill:#0B8043;}
	.st118{clip-path:url(#SVGID_00000029043337515662609000000009765440270530330523_);fill:#0B8043;}
	.st119{clip-path:url(#SVGID_00000043455058650956556610000003620091199466388144_);}
	.st120{clip-path:url(#SVGID_00000145044066354477063230000015465326405268604066_);}
	.st121{clip-path:url(#SVGID_00000066510632665770217660000007365053224299861684_);}
	.st122{clip-path:url(#SVGID_00000132087022876608124530000009863323174323969450_);}
	.st123{clip-path:url(#SVGID_00000170972430573570841600000000412165809768944256_);}
	.st124{clip-path:url(#SVGID_00000141457055908451331270000011505808009529551523_);}
	.st125{clip-path:url(#SVGID_00000036967531819468845110000012008946154429038267_);fill:#0E8042;}
	.st126{clip-path:url(#SVGID_00000036967531819468845110000012008946154429038267_);fill:#1A3826;}
	.st127{clip-path:url(#SVGID_00000007422887894024246700000011368005860945190800_);}
	.st128{clip-path:url(#SVGID_00000172434449305950248560000006413337402238265776_);fill:#FFFFFF;}
	.st129{clip-path:url(#SVGID_00000172434449305950248560000006413337402238265776_);fill:#D9807E;}
	.st130{clip-path:url(#SVGID_00000106134473849383261740000016091279043178374305_);fill:#41164A;}
	.st131{clip-path:url(#SVGID_00000135672217362814451320000000343044270816549763_);fill:#41164A;}
	.st132{clip-path:url(#SVGID_00000139262871496607674850000008634035251173664911_);fill:#FFFFFF;}
	.st133{clip-path:url(#SVGID_00000139262871496607674850000008634035251173664911_);fill:#41164A;}
	.st134{clip-path:url(#SVGID_00000160189621776893520720000012976128337278216349_);fill:#FFFFFF;}
	.st135{clip-path:url(#SVGID_00000160189621776893520720000012976128337278216349_);fill:#E47D7A;}
	.st136{clip-path:url(#SVGID_00000176742370597851611320000016680666483035748024_);fill:#C64B45;}
	.st137{clip-path:url(#SVGID_00000052796101131881504180000005904750395658497193_);}
	.st138{clip-path:url(#SVGID_00000108278671992515081470000016497304868609047445_);}
	.st139{clip-path:url(#SVGID_00000181067248719802699590000013263500011199320251_);fill:#0E8042;}
	.st140{clip-path:url(#SVGID_00000181067248719802699590000013263500011199320251_);fill:#1A3826;}
	.st141{clip-path:url(#SVGID_00000147913012994138893500000008595388363025975201_);fill:#0E8042;}
	.st142{clip-path:url(#SVGID_00000147913012994138893500000008595388363025975201_);fill:#1A3826;}
	.st143{clip-path:url(#SVGID_00000147916722694891115860000006207790846784845746_);fill:#0E8042;}
	.st144{clip-path:url(#SVGID_00000147916722694891115860000006207790846784845746_);fill:#1A3826;}
	.st145{clip-path:url(#SVGID_00000012450736449382027180000003579378044343701130_);}
	.st146{clip-path:url(#SVGID_00000000215313759887970600000000719000801955698875_);}
	.st147{clip-path:url(#SVGID_00000046330133795072748800000011330044761132754352_);}
	.st148{clip-path:url(#SVGID_00000027605715470262022140000011540706709045460919_);}
	.st149{clip-path:url(#SVGID_00000058576143605783483290000000418971436124733622_);}
	.st150{clip-path:url(#SVGID_00000078727973256870383410000006958230547190205828_);}
	.st151{clip-path:url(#SVGID_00000093143498407082512390000009810126773753060495_);fill:#FFFFFF;}
	.st152{clip-path:url(#SVGID_00000093143498407082512390000009810126773753060495_);fill:#8B3A37;}
	.st153{fill:#DF9E9E;}
	.st154{fill:#C98080;}
	.st155{fill:#DFD5E2;}
	.st156{clip-path:url(#SVGID_00000131357778591827999080000011207249612796824496_);fill:#DF9E9E;}
	.st157{fill:#E9C4B0;}
	.st158{clip-path:url(#SVGID_00000095337871996044442430000005404989646851049611_);fill:#C98080;}
	.st159{clip-path:url(#SVGID_00000029021941286171558440000000333151193312900006_);fill:#C1C0C0;}
	.st160{clip-path:url(#SVGID_00000052804639757506720060000010811193757888704919_);fill:#C1C0C0;}
	.st161{clip-path:url(#SVGID_00000106826625903334518640000012329153172936463286_);}
	.st162{fill:#C1C0C0;}
	.st163{clip-path:url(#SVGID_00000131329704331822266290000005509020789050536339_);fill:#C1C0C0;}
	.st164{clip-path:url(#SVGID_00000126281414587244403140000010476900635156265131_);fill:#C1C0C0;}
	.st165{clip-path:url(#SVGID_00000016049112031034890860000013819315493312850053_);fill:#0E8042;}
	.st166{clip-path:url(#SVGID_00000039119218032792800980000016467982186387557050_);fill:#0E8042;}
	.st167{fill:#7F2420;}
	.st168{clip-path:url(#SVGID_00000116935724773655145770000015471178627919869350_);fill:#FFFFFF;}
	.st169{clip-path:url(#SVGID_00000116935724773655145770000015471178627919869350_);fill:#D8807E;}
	.st170{fill:#7F2421;}
	.st171{clip-path:url(#SVGID_00000178187295733642819620000010999898305496871558_);fill:#ECA45C;}
	.st172{clip-path:url(#SVGID_00000062153617247169577400000015865149107296806537_);fill:#0E8042;}
	.st173{clip-path:url(#SVGID_00000062153617247169577400000015865149107296806537_);fill:#1A3826;}
	.st174{clip-path:url(#SVGID_00000117660511756677174310000015580066007684496565_);fill:#0E8042;}
	.st175{clip-path:url(#SVGID_00000117660511756677174310000015580066007684496565_);fill:#1A3826;}
	.st176{clip-path:url(#SVGID_00000048496746842683641530000012048812473617578397_);fill:#0E8042;}
	.st177{clip-path:url(#SVGID_00000048496746842683641530000012048812473617578397_);fill:#1A3826;}
	.st178{clip-path:url(#SVGID_00000049906467370153787350000013031575139492126087_);fill:#0E8042;}
	.st179{clip-path:url(#SVGID_00000049906467370153787350000013031575139492126087_);fill:#1A3826;}
	.st180{clip-path:url(#SVGID_00000132788267076160657170000018164941298005191814_);fill:#0E8042;}
	.st181{clip-path:url(#SVGID_00000132788267076160657170000018164941298005191814_);fill:#1A3826;}
	.st182{clip-path:url(#SVGID_00000000217387615227332740000008201580958673777324_);fill:#0E8042;}
	.st183{clip-path:url(#SVGID_00000000217387615227332740000008201580958673777324_);fill:#1A3826;}
	.st184{clip-path:url(#SVGID_00000043419140065968265910000011148897172937669279_);fill:#0E8042;}
	.st185{clip-path:url(#SVGID_00000043419140065968265910000011148897172937669279_);fill:#1A3826;}
	.st186{clip-path:url(#SVGID_00000080928340032726370030000001377752451623755421_);fill:#0E8042;}
	.st187{clip-path:url(#SVGID_00000080928340032726370030000001377752451623755421_);fill:#1A3826;}
	.st188{clip-path:url(#SVGID_00000116920080192320334730000003314223804676402859_);fill:#0E8042;}
	.st189{clip-path:url(#SVGID_00000116920080192320334730000003314223804676402859_);fill:#1A3826;}
	.st190{clip-path:url(#SVGID_00000120556138296495973460000014317430511130974857_);fill:#0E8042;}
	.st191{clip-path:url(#SVGID_00000120556138296495973460000014317430511130974857_);fill:#1A3826;}
	.st192{clip-path:url(#SVGID_00000130637895279313745480000003786800864158411916_);fill:#0E8042;}
	.st193{clip-path:url(#SVGID_00000130637895279313745480000003786800864158411916_);fill:#1A3826;}
	.st194{clip-path:url(#SVGID_00000009547848088648772080000013887834921730839479_);fill:#0E8042;}
	.st195{clip-path:url(#SVGID_00000009547848088648772080000013887834921730839479_);fill:#1A3826;}
	.st196{clip-path:url(#SVGID_00000104701189246675307500000014776583988346883744_);fill:#0E8042;}
	.st197{clip-path:url(#SVGID_00000104701189246675307500000014776583988346883744_);fill:#1A3826;}
	.st198{clip-path:url(#SVGID_00000134239314525138904390000009332967472435003573_);}
	.st199{clip-path:url(#SVGID_00000034074616155325359040000012117811708934207375_);fill:#FFFFFF;}
	.st200{clip-path:url(#SVGID_00000034074616155325359040000012117811708934207375_);fill:#D9807E;}
	.st201{clip-path:url(#SVGID_00000095298139314686004370000015408861824442373053_);fill:#41164A;}
	.st202{clip-path:url(#SVGID_00000121997889436211933370000008259009861458241161_);fill:#41164A;}
	.st203{clip-path:url(#SVGID_00000095312452944194234090000007273804656810684558_);fill:#FFFFFF;}
	.st204{clip-path:url(#SVGID_00000095312452944194234090000007273804656810684558_);fill:#41164A;}
	.st205{clip-path:url(#SVGID_00000170961260315674054270000005868533753109409967_);fill:#FFFFFF;}
	.st206{clip-path:url(#SVGID_00000170961260315674054270000005868533753109409967_);fill:#E47D7A;}
	.st207{clip-path:url(#SVGID_00000098220500709570287320000009749419568816267191_);fill:#C64B45;}
	.st208{clip-path:url(#SVGID_00000141447673325926835530000013276720815549271203_);}
	.st209{clip-path:url(#SVGID_00000114793472594668674850000014686282332687621815_);}
	.st210{clip-path:url(#SVGID_00000069394518393875273780000015319272162149655691_);fill:#6AA17A;}
	.st211{clip-path:url(#SVGID_00000170978251682398063460000017175843781976355972_);fill:#6AA17A;}
	.st212{clip-path:url(#SVGID_00000183938114096263226920000000769814730248919692_);fill:#3D1947;}
	.st213{clip-path:url(#SVGID_00000032606981477270120530000004855946934578620810_);fill:#8B3A37;}
	.st214{clip-path:url(#SVGID_00000062193498328788889340000006682324016141863079_);}
	.st215{clip-path:url(#SVGID_00000090265864370821668000000013327761546800938686_);}
	.st216{clip-path:url(#SVGID_00000165198711556590438090000016205526180937509029_);}
	.st217{clip-path:url(#SVGID_00000023279854047316656380000013314286023871013250_);}
	.st218{clip-path:url(#SVGID_00000032647276323934478010000016294997569435019655_);}
	.st219{clip-path:url(#SVGID_00000047021131643192873590000007891605320428611002_);}
	.st220{clip-path:url(#SVGID_00000099637986959300569630000007870766790948413572_);fill:#FFFFFF;}
	.st221{clip-path:url(#SVGID_00000099637986959300569630000007870766790948413572_);fill:#8B3A37;}
	.st222{clip-path:url(#SVGID_00000095298939711719983260000017447941873698081167_);fill:#DF9E9E;}
	.st223{clip-path:url(#SVGID_00000062194662322224360620000008579138517158864545_);fill:#C98080;}
	.st224{clip-path:url(#SVGID_00000180337540031047741540000010183658872931082411_);fill:#C1C0C0;}
	.st225{clip-path:url(#SVGID_00000001659331262017882750000000523016858556156834_);fill:#C1C0C0;}
	.st226{clip-path:url(#SVGID_00000059284904217182893680000002627306249821035965_);}
	.st227{clip-path:url(#SVGID_00000131360539098477242420000009525270034333541541_);fill:#C1C0C0;}
	.st228{clip-path:url(#SVGID_00000064352574903199624040000014974082994078498452_);fill:#C1C0C0;}
	.st229{clip-path:url(#SVGID_00000103243477542055619980000007159998766206912137_);fill:#0E8042;}
	.st230{clip-path:url(#SVGID_00000161612515676535888100000001659031160480222359_);fill:#0E8042;}
	.st231{clip-path:url(#SVGID_00000155119296521546310610000015390851163169971617_);fill:#FFFFFF;}
	.st232{clip-path:url(#SVGID_00000155119296521546310610000015390851163169971617_);fill:#D8807E;}
	.st233{clip-path:url(#SVGID_00000172413636380768389950000003104029768317292711_);fill:#ECA45C;}
</style>
<g>
	<path class="st167" d="M248.61,41.12c-2.08,3.71-2.06,8.51,0.06,12.19c-1.89,0.47-3.95-0.19-5.48-1.39
		c-1.53-1.21-2.61-2.91-3.44-4.67c-0.94-2-1.62-4.18-1.55-6.39c0.07-2.21,0.97-4.47,2.71-5.83c1.91-1.5,4.5-1.75,6.92-1.72
		c3.48,0.05,7.18,0.45,10.49,1.58C254.35,35.19,250.56,37.66,248.61,41.12z"/>
	<path class="st47" d="M253.1,46.48c3.55,2.3,5.36,6.99,4.28,11.07c-0.23,0.89-0.65,1.81-1.47,2.24c-1.29,0.66-2.81-0.23-3.95-1.13
		c-2.01-1.58-3.93-3.27-5.74-5.06c-1.26-1.24-4.59-3.77-4.65-5.67C241.43,43.34,250.98,45.11,253.1,46.48z"/>
	<path class="st61" d="M153.58,342.43c-3.67,1.05-7.68,0.19-11.09-1.53c-2.44-1.23-4.67-2.88-6.55-4.87
		c1.43-1.8,2.22-3.14,2.57-5.18c0.34-2.03,0.92-3.9,1.49-5.88c0.41-1.44,1.22-2.72,1.88-4.06c2.1-4.3,2.49-9.34,1.3-13.95
		c-0.77-3-3.2-5.09-4.32-7.92c-0.61-1.55-0.3-3.01-0.58-4.58c-0.37-1.99-1.5-3.84-2.41-5.62c-2.35-4.61-5.61-8.74-9.42-12.22
		c-2.25-2.05-4.74-3.85-6.98-5.94c-1.84-1.71-3.56-3.74-4.11-6.2c-0.53-2.46,0.49-5.41,2.84-6.34
		c-11.98-14.02-22.88-29.01-32.15-44.96c-3.62-6.22-4-13.48-4.03-20.66c9.9,16.62,23.26,29.94,40.07,39.44
		c0.65,9.68,5.35,18.89,11.88,26.06c1.76,1.93,3.74,3.78,4.68,6.2c1.2,3.08,0.53,6.5,0.35,9.8c-0.3,5.4,2.4,10.56,4.19,15.64
		c1.96,5.57,3.92,11.13,5.88,16.7c0.57,1.61,0.98,3.45,1.68,4.97c0.87,1.85,2.58,3.59,3.77,5.24c0.44,0.6,0.9,1.29,0.82,2.02
		c-0.07,0.63-0.51,1.15-0.7,1.75c-0.36,1.14,0.31,1.75,0.91,2.56c0.61,0.84,0.95,1.82,1.38,2.77c1.2,2.73,2.4,5.47,3.6,8.2
		C162.08,337.39,157.25,341.36,153.58,342.43z"/>
	<path class="st45" d="M108.93,62.19c-0.05-2.77,0.19-5.77,1.65-7.69c2.16-2.82,6.63-2.73,9.65-1.78c2.46,0.77,4.62,2.27,6.73,3.76
		c0.22-2.36,0.47-4.8,1.64-6.86c1.15-2.02,3.21-2.64,5.48-2.41c1.37,0.14,2.75,0.87,3.32,2.12c1.57,3.46-3.12,9.2,3.26,10.18
		c1.81,0.28,3.63-0.23,5.43-0.53c1.8-0.29,3.8-0.33,5.29,0.74c2.29,1.65,2.28,5.07,1.57,7.81c-1.82,7.09-6.54,13.02-10.32,19.29
		c-3.78,6.27-6.77,13.8-4.65,20.81c0.77,2.55,2.2,5.2,1.36,7.72c-0.69,2.07-2.74,3.37-4.74,4.25c-5.56,2.43-11.93,2.86-17.8,1.34
		c-2.38-0.62-4.82-1.08-5.59-3.55c-0.95-3.04-1.3-6.51-1.8-9.66c-1.17-7.32-1.81-14.73-1.91-22.14c-0.09-6.75,1.97-12.97,1.62-19.76
		C109.05,64.77,108.96,63.51,108.93,62.19z"/>
	<path class="st2" d="M148.51,124.61c-0.69,2.66-1.62,5.32-3.23,7.55c-1.61,2.24-3.99,4.02-6.71,4.43c-2.76,0.42-5.5-0.56-8.2-1.16
		c-8.41-1.86-17.19,0.03-24.97,3.94l-12.6-12.12c4.2-3.29,8.69-6.18,13.4-8.66c-0.24,0.02,0.21-1.59,0.3-1.72
		c0.28-0.4,0.68-0.8,1.14-0.96c0.55-0.2,1.21,0,1.78-0.07c0.76-0.1,1.5-0.4,2.15-0.81c1.68-1.06,2.42-1.96,4.42-2.47
		c2.26-0.58,4.57-0.99,6.89-1.24c3.24-0.34,6.5-0.36,9.74-0.05c2.15,0.2,6.22,0.13,7.67,2.08c0.31,0.4,0.49,0.89,0.83,1.28
		c1.97,2.28,7.13,1.7,7.78,5.07C149.21,121.31,148.92,123.02,148.51,124.61z"/>
	<path class="st4" d="M125.02,96.95c0.14,5.58,0.89,10.82,2.3,16.22C124.46,108.39,123.61,102.33,125.02,96.95L125.02,96.95z"/>
	<path class="st4" d="M130.73,66.33c-2.02,5.2-3.35,10.33-4.12,15.86C125.82,76.68,127.36,70.76,130.73,66.33L130.73,66.33z"/>
	<path class="st5" d="M147.32,20.96c2.43-1.07,5.51-0.44,7.31,1.51"/>
	<path class="st5" d="M139.97,21.02c-1.66-2.25-4.68-3.39-7.41-2.8"/>
	<path class="st45" d="M132.64,53.56c0.18,0.05,0.35,0.09,0.54,0.13c2.41,0.47,4.85-0.45,7.14-1.35c2.5-0.98,5.05-1.99,7.17-3.64
		c2.01-1.56,3.19-3.47,3.89-5.88c0.76-2.62,1.69-5.2,2.26-7.9c1.21-5.75,1.29-11.78-0.74-17.36c-0.52-1.42-0.91-2.56-2.17-3.4
		c-1.42-0.95-2.83-1.92-4.38-2.66c-5.29-2.53-11.52-2.91-17.19-1.39c-1.39,0.37-2.79,0.88-3.83,1.87c-1.04,0.99-1.63,2.57-1.1,3.9
		c0.53,1.33,2.4,2.05,3.52,1.15c-1.29,1.05-2.28,3.25-3.03,4.71c-1.13,2.19-1.83,4.32-2.5,6.68c-0.78-1.73-2.8-2.8-4.67-2.48
		c-1.87,0.33-3.41,2.02-3.56,3.91c-0.33,4.23,4.42,7.53,7.81,4.25c-1.06,2.73-0.72,5.86,0.42,8.56c1.14,2.7,3.02,5.02,5.04,7.14
		C128.8,51.4,130.54,52.97,132.64,53.56z"/>
	<path class="st4" d="M130.19,23.26c1.62-3.07,8.52-1.76,7.76,2.07c-0.9-1.44-2.05-1.64-3.5-2.04
		C133.02,22.97,131.7,22.84,130.19,23.26L130.19,23.26z"/>
	<path class="st4" d="M142.53,26.2c1.62-3.07,8.52-1.76,7.76,2.07c-0.9-1.44-2.05-1.64-3.5-2.04
		C145.36,25.91,144.04,25.78,142.53,26.2L142.53,26.2z"/>
	<g>
		<g>
			<path class="st167" d="M133.6,36.23c-0.19-0.12-0.38-0.25-0.56-0.38c-1.33-0.97-2.65-2.58-4.47-1.63
				c-1.12,0.58-1.9,1.87-2.15,3.08c-0.34,1.66,0.11,3.4,0.89,4.9c1.55,2.98,4.47,5.21,7.75,5.93c3.28,0.72,6.86-0.07,9.53-2.12
				c1.5-1.15,2.76-2.8,2.91-4.69c0.16-2.08-1.15-4.01-3.26-4.38c-1.11-0.19-2.23,0.39-3.27,0.66c-1.05,0.26-2.17,0.27-3.23,0.12
				C136.26,37.53,134.84,37.02,133.6,36.23z"/>
		</g>
		<g>
			<defs>
				<path id="SVGID_00000097494089535578065910000008387773232177674151_" d="M133.6,36.23c-0.19-0.12-0.38-0.25-0.56-0.38
					c-1.33-0.97-2.65-2.58-4.47-1.63c-1.12,0.58-1.9,1.87-2.15,3.08c-0.34,1.66,0.11,3.4,0.89,4.9c1.55,2.98,4.47,5.21,7.75,5.93
					c3.28,0.72,6.86-0.07,9.53-2.12c1.5-1.15,2.76-2.8,2.91-4.69c0.16-2.08-1.15-4.01-3.26-4.38c-1.11-0.19-2.23,0.39-3.27,0.66
					c-1.05,0.26-2.17,0.27-3.23,0.12C136.26,37.53,134.84,37.02,133.6,36.23z"/>
			</defs>
			<clipPath id="SVGID_00000170245581977365930960000016135348339185951385_">
				<use xlink:href="#SVGID_00000097494089535578065910000008387773232177674151_"  style="overflow:visible;"/>
			</clipPath>
			<path style="clip-path:url(#SVGID_00000170245581977365930960000016135348339185951385_);fill:#FFFFFF;" d="M130.88,37.88
				c0.36,0.7,1.1,1.1,1.8,1.45c2.06,1.01,4.25,1.83,6.53,2.09s4.68-0.1,6.63-1.31c0.62-0.39,1.22-0.9,1.45-1.59
				c0.27-0.83-0.05-1.77-0.64-2.42c-0.91-1.01-2.34-1.39-3.7-1.47s-2.73,0.07-4.09-0.1c-1.09-0.14-2.15-0.48-3.23-0.68
				c-1.02-0.19-2.63-0.43-3.52,0.27C131.07,34.92,130.21,36.6,130.88,37.88z"/>
			<path style="clip-path:url(#SVGID_00000170245581977365930960000016135348339185951385_);fill:#D8807E;" d="M136.04,43.53
				c2.89,0.57,5.66,2.17,7.21,4.67c-2.36,1.83-5.69,2.1-8.52,1.15c-2.02-0.68-3.81-1.91-5.33-3.38c-0.37-0.36-1.83-1.5-1.17-2.06
				c0.33-0.29,1.3-0.3,1.73-0.37c0.63-0.1,1.26-0.18,1.9-0.23C133.25,43.2,134.67,43.26,136.04,43.53z"/>
		</g>
	</g>
	<path class="st5" d="M65.48,188.29c-5.39,5.22-13.04,8.23-20.5,7.43c-4.5-0.48-8.92-2.37-12.01-5.67c-3.09-3.3-4.69-8.09-3.71-12.5
		c0.54-2.46,1.82-4.69,2.84-7c1.02-2.31,1.79-4.87,1.24-7.34c-1.54-6.97-6.04-12.83-12.27-16.3S6.99,143,0.41,145.75
		c8.13-0.26,16.07,5.5,18.35,13.31c-2.35-3.88-7.36-5.93-11.76-4.8c4.09,0.47,6.81,4.95,6.6,9.06c-0.38,7.57-6.8,10.82-10.27,16.62
		c-3.24,5.41-4.07,12.35-1.68,18.25c3.49,8.59,13.46,14.01,22.57,12.27c-1.56,2.67-4.49,4.48-7.58,4.69
		c6.92,1.63,13.89,3.26,21,3.38c7.1,0.12,14.44-1.4,20.19-5.57c4.07-2.94,7.14-7.04,10.11-11.08c6.09-8.27,12.31-17.23,12.87-27.48
		c0.1-1.82-0.02-3.75-1.04-5.26c-1.01-1.48-3.4-2.56-4.67-0.97c-1.1,1.39-1.06,5.21-1.63,6.97
		C71.89,180.07,69.21,184.68,65.48,188.29z"/>
	<path class="st4" d="M185.58,3.82c-0.22-0.44-0.46-0.89-0.49-1.38c-0.03-0.49,0.23-1.04,0.71-1.16c0.49-0.12,0.96,0.24,1.33,0.59
		c4.61,4.35,7.41,10.57,7.59,16.91c0.05,1.67-0.12,3.46-1.19,4.75c-1.53,1.85-4.39,1.99-6.66,1.22c-1.53-0.52-4.19-1.92-3.48-3.89
		c0.68-1.89,2.24-3.39,2.89-5.39C187.51,11.69,187.33,7.42,185.58,3.82z"/>
	<path class="st2" d="M257.78,51.66c0.07,0.42,0.14,0.84,0.21,1.27c1.72-0.11,3.45-0.22,5.17-0.33c0.05,0.15,0.1,0.3,0.15,0.45
		c2.01-0.44,4.01-0.88,6.02-1.33c-0.41,2.24-0.84,4.53-1.93,6.53c-1.09,2-2.97,3.71-5.23,4c-2.93,0.37-5.46-1.62-7.68-3.25
		c-1.92-1.41-2.52-3.87-2.66-6.17C253.7,52.23,255.83,52.03,257.78,51.66z"/>
	<path class="st2" d="M276.12,45.84c-3.46,0.43-6.93,0.86-10.39,1.29c-0.07-0.49-0.14-0.98-0.21-1.47c-2.3,0.4-4.6,0.81-6.89,1.21
		c-0.16-0.57-0.32-1.14-0.48-1.72c-1.77-0.02-3.55-0.03-5.32-0.05c-0.59-2.07-0.89-4.22-0.89-6.38c0-1.49,0.22-3.14,1.36-4.11
		c0.73-0.61,1.7-0.83,2.63-1.02c5.04-1.05,10.18-2.11,15.31-1.63c1.2,0.11,2.57,0.49,2.79,1.87c0.17,1.07,0.09,2.16,0.32,3.28
		C274.5,37.86,276.02,45.86,276.12,45.84z"/>
	<path class="st5" d="M184.26,19.36c-3.91-0.52-7.89,0.13-11.72,1.09c-1.93,0.48-3.87,1.05-5.61,2.02c-1.74,0.96-3.3,2.36-4.16,4.16
		c3.29-1.11,6.81-1.57,10.28-1.35c-4.75,0.6-9.09,3.8-11.06,8.16c6.98-1.92,14.64-1.26,21.18,1.85c-7.44-1.53-15.42-0.24-22,3.56
		c-3.04,1.76-7.69,5.56-8.13,9.34c2.85-0.74,5.7-1.47,8.55-2.21c-3.99,3.33-7.98,6.67-11.98,10c2.54-0.86,5.09-1.72,7.63-2.58
		c-2.34,1.93-4.68,3.86-7.02,5.78c3.83,0.09,7.68-1.52,10.3-4.31c-0.24,1.91-1.51,3.56-3.06,4.7c-1.55,1.13-3.38,1.82-5.18,2.49
		c-4.61,1.72-9.23,3.44-13.84,5.16c3.41,0.95,6.82,1.9,10.22,2.85c-5.57,1.77-11.14,3.54-16.71,5.32
		c5.36,2.52,10.22,3.36,15.68,1.06c-5.33,5.53-11.87,9.89-19.02,12.7c3.95,0.31,7.61,1.44,11.63,1.01
		c4.38-0.47,8.63-2.13,12.11-4.84c-5.76,5.4-8.38,13.94-6.64,21.64c1.38-1.81,2.75-3.63,4.13-5.44c1.65,2.35,0.99,5.65-0.43,8.15
		c-0.96,1.7-2.26,3.2-3.77,4.44c-1.29,1.06-2.75,1.91-4.3,2.54c-0.77,0.31-1.57,0.56-2.39,0.75c-0.9,0.21-1.69,0.4-2.62,0.21
		c0.45,0.9,1.25,1.51,2.03,2.04c0.61,0.42,1.48,0.58,2.21,0.83c1.94,0.69,4,1.04,6.05,1.04c8.94,0.04,15.48-3.32,19.85-11.17
		c5.71-10.28,8.99-21.91,9.48-33.66c0.19-4.51,0.11-9.42,2.9-12.97c2.08-2.64,5.36-3.97,8.19-5.8
		C200.32,49.29,204.19,22.03,184.26,19.36z"/>
	<path class="st61" d="M165.05,262.4c1.7,2.72,3.44,5.53,4.03,8.68c0.25,2.96-0.12,6.67,0.72,9.52c1.08,3.66,4.81,7.11,7.07,10.1
		c1.89,2.5,3.88,5.31,3.63,8.44c-0.25,3.13-2.68,5.66-3.45,8.7c-0.63,2.51-0.02,5.29,1.6,7.31c3.81,4.74,8.45,3.44,10.68-1.67
		c4.59-10.5-0.71-24.49-2.58-35.21c-1.29-7.38-2.61-14.84-5.67-21.68c-3.06-6.83-8.11-13.08-15-16.02c-2.35-1-5.05-1.6-7.45-0.71
		c-4.82,1.77-3.8,6.23-1.74,9.51C159.61,253.71,162.33,258.05,165.05,262.4z"/>
	<g>
		<path class="st4" d="M283.35,354.91c0.04,0.54-0.17,1.07-0.43,1.52c-1.26,2.17-3.7,3.5-6.2,3.94c-4.26,0.74-11.91,0.04-14.59-3.91
			c-1.83-2.72-1.98-6.98-2.24-10.15c-0.11-1.3,0.26-2.61,0.13-3.93c-0.15-1.5-0.7-3-1.78-4.02c-0.91-0.85-2.17-1.37-2.78-2.46
			c-0.83-1.48-0.13-3.3,0.35-4.91c1.59-5.52-1.02-10.28-2.83-15.35l-6.13-17.09c-1.52-4.28-3.7-7.65-7.44-10.28
			c-2.15-1.5-4.46-2.93-5.94-5.11c-0.98-1.46-1.52-3.39-1.17-5.15c0.65-3.22,3.26-5.41-0.02-8.15c-2.02-1.7-3.35-4-4.91-6.15
			c-2.13-2.89-4.22-5.8-6.3-8.72c-4.11-5.72-8.22-11.44-12.44-17.11c-1.61,2.26-4.48,3.8-7.13,4.61
			c-6.09,1.87-12.94-0.98-18.98,1.11c-0.7,0.24,3.11,5.04,3.48,5.41c1.67,1.61,3.5,2.78,4.83,4.74c2.72,4.04,3.57,9.33,2.02,13.96
			c-0.78,2.39-2.11,4.52-2.98,6.87c-0.89,2.44-0.02,5.87,0.15,8.44c0.24,3.41,0.46,6.85,0.7,10.26c0.17,2.46,0.39,5.09,1.93,7
			c1.13,1.41,2.91,2.3,3.83,3.91c0.96,1.7,0.61,4.04-0.8,5.41c3.11,3.37,4.39,9,3.61,13.5c-0.48,2.67-2.48,4.96-4.91,6.11
			c-2.46,1.15-5.3,1.37-7.96,0.85c-5.02-0.91-10.74-4.67-10.78-10.15c-0.04-5.13,2.91-10.3,7.59-12.54
			c5.87-12.44,3.33-28.35-6.11-38.35c-1.41-1.48-3-2.96-3.54-4.91c-0.65-2.41,0.43-5.07-0.28-7.46c-0.8-2.57-3.54-4.09-6.2-4.59
			c-2.67-0.48-5.41-0.22-8.09-0.57c-2.57-0.35-5.02-1.54-7.04-3.13c-2.13-1.7-2.59-3.61-3.3-6.22c-1.67-6.24-2.5-12.72-2.39-19.18
			c0.02-2.43,0.2-4.89,0.91-7.22c0.74-2.33,2.07-4.52,4.09-5.89c-3.17,0.11-6.15,1.83-8.28,4.2c-2.13,2.35-3.5,5.3-4.48,8.3
			c-2.15,6.48-2.07,12.63-1.74,19.33c-2-0.85-3.74-0.89-5.8-1.41c-2.8-0.72-5.57-1.78-8.24-2.83c-5.54-2.15-10.89-4.78-15.96-7.89
			c-10.04-6.17-19.91-14.11-26.26-24.39c-7.57-12.24-5.7-23.91-6.7-37.5c-0.43-6.09-0.8-12.54,2.13-17.91
			c3.39-6.22,10.65-9.52,17.72-10.22c7.04-0.7,14.11,0.78,21.13,1.89c7,1.11,14.33,1.85,21.09-0.28c0.2-0.07,0.93-3.94,1.11-4.41
			c1.07-3.11,2.33-6.24,4.26-8.91c1.85-2.59,4.17-4.67,5.96-7.35c3.72-5.63,6.22-12.04,7.39-18.68c2.13-12.07,5.48-23.89,9.09-35.57
			c1.83-5.87,3.72-11.74,5.61-17.59c0.91-2.91,1.85-5.83,2.74-8.76c0.41-1.28,1.17-2.85,1.28-4.2c0.15-1.7-0.78-1.52-1.85-2.83
			c-1.17-1.43-0.76-2.89-0.74-4.67c0.04-2.26-0.15-4.54-0.52-6.78c-0.91-5.28-2.74-10.13-4.76-15.04c-0.22-0.48-0.41-1.02-0.17-1.5
			c0.35-0.67,1.35-0.61,2.09-0.39c4.94,1.43,8.85,5.54,10.74,10.33c1.89,4.78,1.91,10.15,0.83,15.2c5.17-1.5,9.94-4.43,13.61-8.37
			c1.93-2.07,3.72-4.52,6.41-5.39c2.57-0.83,5.41,0.02,7.78,1.3c1.35,0.7,2.67,2.17,4.09,2.61c1.43,0.46,3.61,0.07,5.13,0.07
			c3.83-0.04,7.65-0.17,11.46-0.41c7.83-0.5,16.94-0.41,23.81-4.52c2.07-1.26,4.15-2.61,6.54-3.09c2.35-0.48,5.13,0.17,6.46,2.15
			c0-0.41,3.11-1,3.37-1.04c1.3-0.11,2.5,0.02,3.54,0.93c1.52,1.33,1.41,2.96,1.22,4.74c-0.24,2,0.24,4.09,1.35,5.76
			c0.67,0.96,1.57,1.96,1.41,3.11c-0.07,0.57-0.41,1.22-0.11,1.7c0.28,0.43,0.89,0.48,1.39,0.41c0.5-0.07,1.02-0.24,1.5-0.07
			c1.02,0.39,0.61,2.17,0.37,2.93c-0.37,1.17-1.26,2.43-2.57,2.67c-1.22,0.24-2.52-0.37-3.72-0.5c-0.87-0.11-1.72-0.11-2.57-0.07
			c-0.83,0.07-1.65,0.33-2.48,0.33c-2.78,0-5.54,0.85-8.28,1.26c-3.09,0.48-6.22,0.46-9.33,0.17c-1.59-0.15-3.15-0.39-4.72-0.63
			c-0.89-0.13-2.76-0.87-3.44,0.07c-0.37,0.54-0.37,1.26-0.28,1.91c0.37,3.35,1.93,6.48,3.96,9.17c2.04,2.7,4.52,5,7,7.28
			c1.89,1.78,3.8,3.57,6.07,4.85c2.26,1.3,4.89,2.09,7.46,1.7c1.04-0.15,2.07-0.5,3.11-0.43s2.17,0.7,2.3,1.74
			c0.13,0.85-0.46,1.67-1.2,2.09c-0.76,0.43-1.65,0.54-2.5,0.63c-0.65,2.11-1.72,3.54-3.74,4.43c-2.02,0.87-4.24,1.15-6.44,1.35
			c-2.98,0.26-6.02,0.41-8.94-0.26c-2.91-0.67-5.74-2.26-7.3-4.8c-0.76-1.2-1.35-2.59-2.13-3.78c-0.11-0.2-0.22-0.39-0.35-0.57
			c-0.54-0.74-1.2-1.37-2.02-1.8c-0.39-0.22-0.83-0.37-1.33-0.48c-3.09-0.67-6.83,0.72-8.91,3.09c-1.26,1.43-2.09,3.2-3.11,4.83
			c-3.87,6.11-10.85,10.13-18.07,10.39c-2.93,0.13-5.94-0.37-8.52-1.76c-2.59-1.39-4.09-3.59-5.5-6.59
			c0.74,1.57,0.52,4.22,0.96,5.96c0.5,1.93,1.2,3.85,2.13,5.61c1.91,3.52,4.83,6.3,8.48,7.96c4.76,2.15,10.17,3.15,15.37,2.72
			c0,0.91,0.04,1.87,0.11,2.85c0.85,14.04,1.85,28.07,2.72,42.11c0.35,5.52,1.48,9.28,6.63,11.59c4.65,2.09,7.52,7.11,8.44,11.98
			c0.54,2.87,0.57,5.81,0.39,8.72c-0.13,2.63-0.04,5.65-0.87,8.15c-1.63,5.15-1.96,10.67-0.76,15.94
			c2.35,10.48,7.72,20.11,8.89,30.87c0.98,8.91-0.43,17.91-0.04,26.89c0.24,5.48,1.24,11.09,3.72,16.02
			c0.98,1.98,2.17,4.02,3.8,5.57c1.74,1.63,3.5,2.59,3.59,5.3c0.07,2.63-1.59,4.76-1.85,7.22c-0.24,2.37,0.59,5.11,1,7.46
			c0.89,5.17,1.89,10.33,3.3,15.37c0.96,3.46,1.89,7.78,3.89,10.8c2.02,3.02,3.37,5.48,4.48,9.04c0.8,2.61,1.89,4.76,3.57,6.89
			c1.72,2.15,3.87,3.33,6.28,4.65c2.09,1.13,4.2,2.57,5.15,4.74c0.65,1.52,0.3,2.93,0.61,4.43c0.41,2.02,1.61,4.13,2.37,6.02
			C283.2,354.26,283.33,354.58,283.35,354.91z"/>
	</g>
	<path class="st2" d="M194.84,31.49c0.2-5.42,8.73-7.78,11.54-3.11C202.17,27.05,197.88,28.34,194.84,31.49L194.84,31.49z"/>
	<path class="st155" d="M126.18,218.01c4.41-10.38,4.85-22.05,0.55-32.32c-2.18-5.23-6.02-9.92-7.45-15.72
		c-1.6-5.74,0.89-14.13,7.54-14.86c-5.3,2.38-6.05,9.04-4.23,13.85c1.82,4.96,5.76,9.26,8.19,15.01
		C135.48,195.02,134.02,208.92,126.18,218.01L126.18,218.01z"/>
	<path class="st155" d="M167.58,97.42c1.93,8.04,3.43,16.14,4.78,24.26c1.44,7.92,2.07,16.18,4.71,23.73
		c3.44,11.45,14.92,19.08,20.54,29.8c1.96,3.73,3.27,7.96,3.03,12.11c-0.75-4.08-2.53-7.75-4.87-10.99
		c-4.76-6.73-11.34-11.64-16.56-18.16c-8.4-9.99-9.16-23.69-10.24-36.07C168.25,113.91,167.7,105.69,167.58,97.42L167.58,97.42z"/>
	<path class="st45" d="M77.12,158.46c-1.51,0.8-3.14,1.5-4.27,2.79c-1.32,1.51-1.73,3.59-2.51,5.45
		c-2.63,6.28-10.5,10.63-15.47,14.98c-4.24,3.71-8.42,7.5-12.5,11.38c-1.53,1.46-2.66,3.17-4.14,4.68c-1.75,1.78-3.15,3.9-4.08,6.22
		c-0.69,1.73-1.15,3.6-2.31,5.05c-1.16,1.45-3.37,2.31-4.91,1.27c-1.32-0.89-1.58-2.67-2.01-4.2c-1.23-2.86-2.5-4.92-5.02-6.85
		c-2.46-1.88-4.43-2.32-7.51-2.92c-1.98-0.39-4.02-0.8-5.66-1.98c-3.41-2.44-2.8-8.8,0.27-11.34c1.83-1.52,4.46-1.61,6.81-1.25
		c3.9,0.6,7.64,2.25,10.73,4.71c1.34,1.06,2.68,2.12,4.02,3.18c0.81,0.64,3.81,3.87,4.73,3.73c0.52-0.08,0.9-0.51,1.24-0.92
		c3.42-4.13,7.08-8.08,10.4-12.29c3.74-4.73,6.85-9.81,9.67-15.13c1.31-2.47,3.41-4.7,4.99-7.06c1.35-2.02,2.57-4.12,4.02-6.06
		c1.33-1.77,1.66-4.11,2.26-6.23c0.28-0.97,0.61-2.02,1.45-2.59c1.17-0.78,2.74-0.26,4.15-0.38c2.74-0.23,4.61-2.83,7.09-4
		c2.62-1.24,5.97-0.69,8.06,1.32C93.51,146.66,82.6,155.55,77.12,158.46z"/>
	<path class="st2" d="M105.4,139.36c-2.48,1.24-4.85,2.69-7.06,4.28c-1.8,1.3-3.56,2.72-5.6,3.58c-2.04,0.88-4.47,1.14-6.45,0.11
		c-2.83-1.47-3.96-5.2-4.13-8.19c-0.16-3.1,2.57-4.91,4.68-6.86c1.91-1.77,3.9-3.46,5.96-5.05L105.4,139.36z"/>
	<path class="st82" d="M81.27,136.05c-0.9-0.15-1.85-0.22-2.7,0.09c-0.86,0.31-1.6,1.08-1.65,1.99c-1.4-0.59-3.13-0.27-4.23,0.78
		c-1.1,1.05-1.33,2.31-0.8,3.73c2.68-0.6,5.33-1.24,7.9-0.13s4.53,3.53,5.09,6.27c0.25,1.22,0.22,2.52-0.28,3.65
		s-1.52,1.85-2.39,2.59c2.28,1.52,5.16,0.26,7-1.76c2.6-2.85,3.79-7.74,1.92-11.28C89.29,138.5,84.97,136.69,81.27,136.05z"/>
	<path class="st79" d="M61.9,35.29c0.36-0.92,1.05-1.7,1.92-2.16s2.24-0.59,3.21-0.39c-0.15-0.49-0.43-0.81-0.77-1.06
		c-0.33-0.26-0.76-0.36-1.18-0.38c-1.02-0.05-2.05,0.4-2.71,1.17C61.71,33.25,61.68,34.29,61.9,35.29z"/>
	<path class="st5" d="M63.1,49.83c-1.79,0.13-3.67-1.48-4.37-3.03c-0.74-1.61-0.52-3.65,0.58-5.04c0.54-0.67,1.12-1.04,1.31-1.95
		c0.1-0.46,0.14-2.04-0.46-2.27c1.41,0.56,2.2,2.34,1.67,3.76c0.56,0.11,1.11-0.32,1.33-0.84c0.22-0.52,0.17-1.12,0.09-1.68
		c-0.08-0.56-0.2-1.13-0.13-1.69c0.12-0.84,0.7-1.59,1.47-1.92c0.78-0.33,1.72-0.21,2.4,0.3c-0.92-0.03-1.78,0.75-1.89,1.66
		c-0.12,0.91,0.48,1.85,1.33,2.2c0.85,0.35,1.89,0.12,2.57-0.5s0.98-1.6,0.86-2.52c0.93,1.08,1.27,2.63,0.88,3.99
		c-0.26,0.89-0.82,1.69-1.56,2.25c-0.3,0.23-0.62,0.51-0.97,0.65c-0.54,0.22-1.06,0.37-1.53,0.72c-0.55,0.41-0.99,1.01-1.08,1.69
		c-0.07,0.5,0.06,1.01,0.05,1.52c-0.02,0.85-0.46,1.68-1.16,2.18C64.04,49.64,63.57,49.8,63.1,49.83z"/>
	<path class="st79" d="M70.29,43.08c0.05-0.03,0.09-0.06,0.14-0.09c0.43-0.3,0.85-0.72,1.18-1.13c0.14-0.17,0.95-1.18,0.83-1.39
		c0.55,1.03,0.93,2.19,0.79,3.35c-0.14,1.16-0.9,2.28-2.02,2.61c-0.77,0.22-1.59,0.06-2.38,0.17c-1.77,0.24-3.12,1.8-4.87,2.12
		c-1.39,0.26-2.9-0.37-3.69-1.53c1.01-0.01,2.01-0.45,2.7-1.2c0.48-0.52,0.84-1.31,0.78-2.03c-0.04-0.44-0.17-0.88-0.18-1.32
		c-0.02-1.15,0.92-2.24,2.06-2.38c-0.01,1.15,0.65,2.27,1.65,2.82C68.14,43.54,69.41,43.61,70.29,43.08z"/>
	<path class="st45" d="M72.22,81.81c0.18,0.12,0.36,0.24,0.54,0.35c2.55,1.66,5,3.4,7.95,4.28c5.5,1.64,11.4,0.36,16.39-2.25
		c7.34-3.85,13.93-9.12,19.29-15.44c1.49-1.76,2.91-3.63,3.77-5.78s1.11-4.61,0.27-6.76c-0.84-2.15-2.92-3.88-5.23-3.91
		c-3.07-0.04-5.39,2.63-7.33,5.02c-2.88,3.54-5.92,6.95-9.12,10.21c-2.86,2.92-5.74,6.48-9.94,7.32c-2.22,0.44-4.52,0.3-6.77,0
		c-3.81-0.5-7.57-1.43-11.18-2.76c-1.28-0.47-2.59-1.03-3.52-2.03c-1.62-1.74-0.43-3.71-1.29-5.68c-0.62-1.41-1.91-2.75-3.4-3.26
		c-1.42-0.48-2.89-0.19-4.24-1.09c-0.67-0.44-1.11-1.2-2.04-1.07c-0.71,0.1-1.3,0.64-1.65,1.27c-0.35,0.63-0.5,1.35-0.64,2.05
		c-0.37,1.8-0.73,3.62-0.74,5.46c-0.01,2.94,0.85,5.43,3.76,6.5c1.26,0.46,2.58,0.15,3.83,0.57c1.18,0.4,2.24,1.09,3.27,1.77
		C66.87,78.32,69.55,80.06,72.22,81.81z"/>
	<path class="st5" d="M52.25,73.12c0,2.9,0.53,5.9,2.98,6.52c2.32,0.58,6.01-0.57,5.49-3.52c-0.38-2.17-0.84-4.13-0.89-6.35
		c-0.05-2.32,0.04-4.65,0.34-6.96c0.18-1.38,0.52-2.76,0.92-4.09c0.35-1.2,1.1-2.53,0.88-3.81c-0.35-1.95-2.9-2.77-4.6-2.91
		c-2.32-0.19-2.86,2.11-3.12,3.98c-0.59,4.14-1.42,8.39-1.72,12.62C52.45,69.71,52.26,71.4,52.25,73.12z"/>
	<g>
		<path class="st4" d="M59.01,53.87c-0.2-0.03-0.42-0.07-0.54-0.24c-0.12-0.17-0.05-0.33,0-0.5c0.12-0.41,0.23-0.82,0.38-1.23
			c0.17-0.45,0.37-0.9,0.6-1.32c0.57-1.07,1.27-2.05,2.25-2.8c0.11-0.08,0.22-0.16,0.35-0.19c0.13-0.03,0.28,0.02,0.35,0.13
			c0.09,0.16-0.02,0.36-0.13,0.52c-0.79,1.09-1.61,2.16-2.17,3.39c-0.17,0.37-0.31,0.75-0.43,1.14c-0.06,0.19-0.1,0.39-0.16,0.59
			c-0.04,0.14-0.02,0.36-0.14,0.46C59.28,53.9,59.14,53.89,59.01,53.87z"/>
	</g>
	<path class="st45" d="M49.4,65.64c-0.35,1.93,0,3.99,0.88,5.64c0.99,1.86,4.41,3.39,5.94,1.35c1.39-1.86-0.62-4.78-0.23-6.88
		c0.14-0.76,0.49-1.44,0.75-2.16c0.85-2.39-1.14-4.46-3.18-3.66C51.5,60.73,49.83,63.25,49.4,65.64z"/>
	<path class="st155" d="M238.17,61.39c-0.54-0.74-1.2-1.37-2.02-1.8C237.02,60,237.67,60.63,238.17,61.39z"/>
	<path class="st170" d="M129.47,26.98c1.74-2.66,6.99-2,7.15,1.47C134.29,26.65,132.16,26.85,129.47,26.98L129.47,26.98z"/>
	<path class="st170" d="M141.85,29.97c1.73-2.65,6.95-2,7.1,1.46C146.71,29.66,144.41,29.85,141.85,29.97L141.85,29.97z"/>
	<path class="st170" d="M147.13,36.4c1.89-0.06,3.13,2.62,1.86,4.02C148.93,38.69,148.41,37.56,147.13,36.4L147.13,36.4z"/>
	<path class="st170" d="M125.19,34.85c-0.39-1.85,2.03-3.54,3.63-2.53C127.13,32.69,126.12,33.39,125.19,34.85L125.19,34.85z"/>
	<path class="st2" d="M259.1,16.7c-1.15,0.14-2.18,0.76-3.11,1.44c-1.3,0.95-2.49,2.04-3.54,3.26c-0.36,0.41-0.71,0.86-0.81,1.4
		c-0.2,1.04,0.7,2.08,1.75,2.25c1.04,0.17,2.11-0.36,2.82-1.14c0.71-0.78,1.13-1.79,1.47-2.79c0.23-0.66,0.44-1.34,0.78-1.95
		c0.35-0.61,0.85-1.16,1.51-1.41c0.41-0.15,0.79-0.13,1.21-0.05c0.43,0.08,0.79,0.11,0.33-0.36
		C260.93,16.77,259.87,16.61,259.1,16.7z"/>
	<path class="st82" d="M109.55,112.56c0.79-1.34,2.35-1.99,3.83-2.47c8.16-2.66,17.15-2.72,25.35-0.18
		c1.54,0.48,3.38,1.56,3.08,3.15c-0.17,0.9-1.04,1.53-1.93,1.72c-0.89,0.19-1.82,0.03-2.72-0.11c-5.64-0.87-11.4-0.92-17.06-0.16
		c-2.77,0.37-5.53,1.43-8.27,1.72C109.82,116.43,108.37,114.55,109.55,112.56z"/>
	<g>
		<path class="st4" d="M159.72,23.69c-0.96,1.87-2.37,3.47-4.55,3.58c-4.07,0.21-4.99-3.86-3.86-7.14
			c-1.49,0.41-2.86,0.45-4.27-0.26c-1.41-0.71-2.27-1.87-2.81-3.33c-1.42,0.85-3.01,1.43-4.66,1.01c-1.65-0.43-2.54-1.58-3.28-3.01
			c-0.88,1.35-1.98,2.49-3.52,3.02c-1.54,0.53-2.87,0.28-4.28-0.4c0.57,1.31,0.72,2.61,0.26,4c-0.46,1.39-1.4,2.33-2.67,3.03
			c0.73,2.38-0.21,4.69-2.55,5.66c-1.78,0.73-3.57,0.19-4.88-1.12c-0.96-0.96-1.23-2.18-1.18-3.57c0.06-1.39,0.58-2.63,1.8-3.43
			c-1.8-1.21-2.68-3.06-2.04-5.25c0.64-2.19,2.51-3.34,4.72-3.69c-0.59-1.01-1.28-2.25-0.87-4.29c0.43-2.14,1.34-3.25,2.56-4.12
			c2.1-1.5,4.43-0.68,6.18,0.85c0.47-2.26,1.78-4.1,4.06-4.72c1.14-0.31,1.99-0.1,3.01,0.43c1.02,0.53,1.39,1.81,1.86,2.8
			c0.92-1.99,2.35-3.79,4.77-3.72c2.41,0.07,3.94,1.91,4.83,3.99c0.46-0.68,2.25-0.96,2.74-0.94c1.49,0.07,2.26,0.23,3.23,1.09
			c1.9,1.68,2.43,3.96,1.69,6.32c1.85-1,3.87-0.79,5.02,1.23c1.15,2.01,0.34,4.41-1.34,5.91C160.53,19.55,160.68,21.82,159.72,23.69
			z"/>
	</g>
	<g>
		<defs>
			<path id="SVGID_00000049182646026065962340000017090670872301924263_" d="M278.24,32.77c-0.36,1.18-1.27,2.45-2.57,2.69
				c-1.22,0.22-2.53-0.37-3.72-0.5c-0.86-0.1-1.71-0.12-2.57-0.06c-0.82,0.06-1.64,0.33-2.46,0.32c-2.79-0.01-5.56,0.84-8.3,1.26
				c-3.08,0.48-6.22,0.46-9.32,0.17c-1.58-0.15-3.16-0.38-4.73-0.62c-0.89-0.15-2.75-0.87-3.42,0.07c-0.39,0.53-0.37,1.25-0.29,1.9
				c0.37,3.35,1.94,6.48,3.97,9.17c2.03,2.69,4.51,5,6.98,7.29c1.91,1.76,3.83,3.55,6.08,4.85c2.25,1.29,4.9,2.09,7.46,1.68
				c1.04-0.15,2.06-0.51,3.1-0.44c1.04,0.07,2.17,0.7,2.31,1.74c0.13,0.85-0.47,1.68-1.22,2.1c-0.75,0.42-1.64,0.52-2.49,0.63
				c-0.65,2.1-1.73,3.54-3.74,4.42c-2.01,0.89-4.24,1.15-6.43,1.35c-2.98,0.26-6.02,0.42-8.93-0.25c-2.92-0.67-5.74-2.26-7.31-4.8
				c-1.69-2.72-2.54-6.3-6.39-6.66c-1.93-0.18-3.92,0.75-5.01,2.36c-1.75,2.55-1.17,6.28-3.21,8.6c-1.44,1.64-3.87,2.14-5.31,3.77
				c-1.03,1.17-1.43,2.75-1.79,4.26c-1.37,5.69-1.54,10.25-1.19,16.08c0.85,14.05,1.86,28.07,2.73,42.12
				c0.34,5.51,1.48,9.27,6.61,11.58c4.65,2.1,7.53,7.1,8.44,11.97c0.54,2.87,0.57,5.81,0.4,8.72c-0.13,2.64-0.05,5.65-0.87,8.17
				c-1.65,5.14-1.95,10.66-0.77,15.93c2.35,10.48,7.73,20.1,8.9,30.87c0.97,8.92-0.44,17.92-0.06,26.89
				c0.24,5.49,1.25,11.08,3.72,16.03c0.99,1.98,2.17,4.03,3.81,5.56c1.75,1.63,3.5,2.59,3.59,5.3c0.08,2.64-1.59,4.75-1.84,7.22
				c-0.24,2.38,0.58,5.1,0.99,7.47c0.89,5.17,1.9,10.31,3.31,15.35c0.97,3.47,1.89,7.8,3.89,10.8c2.01,3.03,3.36,5.49,4.47,9.05
				c0.8,2.6,1.89,4.76,3.58,6.88c1.72,2.17,3.86,3.33,6.27,4.66c2.09,1.14,4.21,2.56,5.15,4.74c0.66,1.53,0.3,2.93,0.61,4.44
				c0.41,2.02,1.62,4.12,2.39,6.02c0.13,0.32,0.25,0.64,0.28,0.98c0.05,0.54-0.18,1.05-0.44,1.51c-1.26,2.18-3.71,3.51-6.19,3.94
				c-4.27,0.74-11.91,0.05-14.59-3.9c-1.83-2.72-1.98-6.99-2.25-10.17c-0.11-1.3,0.27-2.61,0.13-3.94
				c-0.15-1.49-0.69-2.99-1.79-4.02c-0.91-0.85-2.17-1.36-2.78-2.45c-0.83-1.48-0.12-3.3,0.35-4.92c1.59-5.52-1.01-10.27-2.82-15.34
				c-2.05-5.7-4.09-11.4-6.13-17.1c-1.53-4.28-3.7-7.65-7.46-10.28c-2.15-1.5-4.45-2.94-5.91-5.11c-1-1.46-1.53-3.39-1.19-5.15
				c0.66-3.23,3.27-5.42-0.01-8.15c-2.03-1.7-3.37-4.02-4.93-6.16c-2.11-2.9-4.2-5.8-6.29-8.71c-4.12-5.72-8.23-11.45-12.44-17.11
				c-1.61,2.25-4.47,3.8-7.12,4.61c-6.1,1.86-12.95-0.99-18.98,1.09c-0.7,0.25,3.09,5.05,3.46,5.41c1.68,1.62,3.5,2.79,4.82,4.76
				c2.72,4.03,3.57,9.33,2.04,13.96c-0.78,2.38-2.12,4.52-2.98,6.86c-0.9,2.43-0.03,5.87,0.15,8.43c0.23,3.42,0.47,6.85,0.7,10.27
				c0.16,2.45,0.39,5.07,1.94,6.99c1.14,1.43,2.91,2.32,3.81,3.91c0.97,1.71,0.63,4.06-0.79,5.43c3.1,3.36,4.39,8.98,3.6,13.49
				c-0.48,2.67-2.47,4.96-4.91,6.11c-2.46,1.15-5.29,1.36-7.95,0.86c-5.01-0.93-10.73-4.68-10.77-10.16
				c-0.04-5.13,2.91-10.32,7.59-12.55c5.86-12.44,3.33-28.36-6.12-38.36c-1.41-1.48-3-2.95-3.54-4.92
				c-0.66-2.41,0.44-5.04-0.29-7.44c-0.79-2.58-3.53-4.1-6.19-4.6c-2.66-0.48-5.4-0.21-8.09-0.57c-2.61-0.36-5.88-1.86-7.75-3.79
				c-1.21-1.25-1.11-2.81-2.55-3.55c-1.5-0.78-4.33-0.66-6.03-1c-12.7-2.49-24.86-6.8-35.9-13.59
				c-10.05-6.18-19.93-14.11-26.27-24.39c-7.55-12.24-5.7-23.92-6.68-37.51c-0.43-6.08-0.8-12.55,2.12-17.9
				c3.4-6.22,10.65-9.53,17.71-10.23c7.06-0.71,14.13,0.78,21.13,1.89c7.01,1.11,14.33,1.84,21.09-0.27
				c0.2-0.07,0.95-3.95,1.11-4.42c0.55-1.61,1.24-3.18,2-4.69c0.65-1.32,1.29-2.86,2.1-4.06c0.84-1.23,2.14-2.26,3.09-3.42
				c5.4-6.59,8.93-14.39,10.42-22.78c2.13-12.06,5.47-23.88,9.09-35.56c1.83-5.88,3.72-11.73,5.59-17.6
				c0.93-2.91,1.85-5.83,2.76-8.76c0.4-1.29,1.16-2.85,1.27-4.2c0.15-1.69-0.78-1.53-1.84-2.82c-1.17-1.45-0.76-2.9-0.74-4.68
				c0.03-2.27-0.15-4.54-0.53-6.78c-0.91-5.29-2.74-10.13-4.77-15.04c-0.21-0.48-0.4-1.04-0.16-1.5c0.35-0.68,1.34-0.62,2.08-0.41
				c4.94,1.44,8.85,5.56,10.74,10.34s1.92,10.15,0.83,15.19c5.18-1.5,9.94-4.42,13.61-8.37c1.93-2.07,3.72-4.53,6.41-5.39
				c2.57-0.82,5.41,0.03,7.79,1.3c1.33,0.7,2.66,2.17,4.07,2.62c1.45,0.45,3.62,0.07,5.15,0.05c3.82-0.03,7.65-0.17,11.46-0.41
				c7.81-0.49,16.93-0.4,23.79-4.52c2.08-1.26,4.17-2.61,6.55-3.08c2.38-0.47,5.17,0.17,6.49,2.21c-0.27-0.42,3.08-1.06,3.35-1.09
				c1.31-0.12,2.5,0.01,3.54,0.93c1.52,1.32,1.41,2.97,1.21,4.75c-0.23,2,0.25,4.07,1.37,5.74c0.66,0.96,1.55,1.96,1.4,3.11
				c-0.07,0.58-0.41,1.22-0.1,1.71c0.27,0.43,0.88,0.48,1.38,0.4c0.49-0.07,1.02-0.23,1.5-0.06
				C278.88,30.23,278.48,32.01,278.24,32.77z"/>
		</defs>
		<clipPath id="SVGID_00000044138970709420482250000011147089615396537988_">
			<use xlink:href="#SVGID_00000049182646026065962340000017090670872301924263_"  style="overflow:visible;"/>
		</clipPath>
		<path style="clip-path:url(#SVGID_00000044138970709420482250000011147089615396537988_);fill:#ECA45C;" d="M234.94,266.64
			c-3.35-1.31-7.69,0.03-9.46,3.19c-1.91,3.4-1.22,7.61-0.48,11.44c3.47,17.98,6.93,35.95,10.4,53.93
			c1.75,9.09,3.84,18.82,10.6,25.15c6.75,6.32,16.63,7.8,25.87,8.18c7.61,0.31,15.86-0.15,21.78-4.94
			c5.37-4.36,7.72-11.56,7.99-18.47c0.6-15.51-7.72-29.8-15.76-43.07c-7.84-12.94-15.67-25.87-23.51-38.81
			c-1.74-2.87-3.83-5.77-6.53-7.81c-1.32-1-2.82-1.95-4.51-1.6c-1.94,0.4-3.66,1.61-4.94,3.08c-1.65,1.9-2.7,4.23-3.73,6.53
			c-1.29-1.16-3.27-1.5-4.87-0.83C236.18,263.27,235.03,264.9,234.94,266.64z"/>
		<path style="clip-path:url(#SVGID_00000044138970709420482250000011147089615396537988_);fill:#ECA45C;" d="M182.53,251.82
			c-1.1-0.52-2.43-0.55-3.53-0.03c-1.44,0.68-2.41,2.28-2.33,3.88c-1.33-0.46-2.86,0.16-3.74,1.25c-0.88,1.09-1.18,2.56-1.11,3.96
			c0.18,3.46,2.35,6.44,3.86,9.56c1.4,2.88,2.22,5.97,2.56,9.15c0.3,2.86,1.96,5.19,1.32,8.25c-0.82,3.9-4.32,6.54-7.02,9.47
			c-6.78,7.36-9.07,18.66-5.4,27.97c3.67,9.31,13.25,16.07,23.27,16.08s19.74-6.91,22.72-16.47c2.43-7.8,0.57-16.26-2.05-24
			c-1.83-5.42-4.03-10.74-5.43-16.3c-0.66-2.62-1.42-5.6-1.28-8.32c0.12-2.38-1.01-4.04-2.83-5.62c-1.56-1.35-3.34-2.46-4.61-4.08
			c-1.65-2.09-2.26-4.79-2.84-7.39c-0.58-2.6-1.2-5.29-2.87-7.37c-1.16-1.45-2.97-2.53-4.85-2.6c-0.83-0.03-1.66,0.08-2.24,0.66
			c-0.37,0.38-1.2,2.09-0.65,2.58C183.19,252.19,182.87,251.98,182.53,251.82z"/>
	</g>
	<path class="st167" d="M138.47,31.58c-0.13,0.29-0.29,0.57-0.51,0.79c-0.45,0.44-1.31,0.39-1.4,1.13c-0.07,0.6,0.35,1.18,0.86,1.44
		c0.32,0.16,0.69,0.23,1.05,0.28c0.75,0.09,1.54,0.01,1.99-0.68c0.47-0.72,0.53-1.82,0.53-2.66c0-0.41-0.04-0.84-0.23-1.21
		s-0.59-0.65-1-0.61c-0.35,0.03-0.65,0.29-0.83,0.59C138.74,30.94,138.62,31.27,138.47,31.58z"/>
</g>
</svg>
