<?xml version="1.0" encoding="utf-8"?>
<!-- Generator: Adobe Illustrator 27.0.1, SVG Export Plug-In . SVG Version: 6.00 Build 0)  -->
<svg version="1.1" id="Layer_1" xmlns="http://www.w3.org/2000/svg" xmlns:xlink="http://www.w3.org/1999/xlink" x="0px" y="0px"
	 viewBox="0 0 364.36 396.81" style="enable-background:new 0 0 364.36 396.81;" xml:space="preserve">
<style type="text/css">
	.st0{fill:#0A2B17;}
	.st1{fill:#0E8042;}
	.st2{fill:#FFFFFF;}
	.st3{fill:#1A3826;}
	.st4{fill:#3D1947;}
	.st5{fill:#ECA45C;}
	.st6{fill:#D53D3D;}
	.st7{clip-path:url(#SVGID_00000168097830931871929210000007886483632476550800_);}
	.st8{fill:#802420;}
	.st9{fill:#8C5443;}
	.st10{fill:#3C1948;}
	.st11{fill:none;stroke:#3C1948;stroke-linecap:round;stroke-linejoin:round;stroke-miterlimit:10;}
	.st12{clip-path:url(#SVGID_00000093152629918832732080000001372408898681955479_);}
	.st13{fill:#802421;}
	.st14{opacity:0.29;fill:#92C9E0;}
	.st15{clip-path:url(#SVGID_00000119099846289924823860000008557187006740114830_);fill:#FFFFFF;}
	.st16{clip-path:url(#SVGID_00000119099846289924823860000008557187006740114830_);fill:#D9807E;}
	.st17{opacity:0.29;fill:#92C9E0;stroke:#FFFFFF;stroke-width:5;stroke-miterlimit:10;}
	.st18{opacity:0.29;fill:#92C9E0;stroke:#FFFFFF;stroke-miterlimit:10;}
	.st19{opacity:0.29;fill:#92C9E0;stroke:#FFFFFF;stroke-width:3;stroke-miterlimit:10;}
	.st20{fill:#934F3E;}
	.st21{clip-path:url(#SVGID_00000091695114042776152860000005253372391043946134_);fill:#41164A;}
	.st22{clip-path:url(#SVGID_00000007400004177115721990000005890106398459457686_);fill:#41164A;}
	.st23{clip-path:url(#SVGID_00000008125788918831194860000001549987175393424310_);fill:#FFFFFF;}
	.st24{clip-path:url(#SVGID_00000008125788918831194860000001549987175393424310_);fill:#41164A;}
	.st25{fill:#41164A;}
	.st26{clip-path:url(#SVGID_00000017495318308315535950000013468883228242412462_);fill:#FFFFFF;}
	.st27{clip-path:url(#SVGID_00000017495318308315535950000013468883228242412462_);fill:#E47D7A;}
	.st28{fill:none;}
	.st29{fill:#E09F9E;}
	.st30{fill:#CB8080;}
	.st31{clip-path:url(#SVGID_00000132081848450920058920000011679022277206337215_);fill:#E09F9E;}
	.st32{fill:#3C1947;}
	.st33{fill:#EAC5B1;}
	.st34{clip-path:url(#SVGID_00000166671008653063107820000005483419881722865064_);fill:#CB8080;}
	.st35{fill:#0B8043;}
	.st36{fill:#DBDBDA;}
	.st37{clip-path:url(#SVGID_00000060727567739956242890000004938275685684865427_);fill:#C2C1C1;}
	.st38{clip-path:url(#SVGID_00000157283199970674770500000012382953297145547691_);fill:#C2C1C1;}
	.st39{clip-path:url(#SVGID_00000127750160949899673530000006820038789296879526_);}
	.st40{fill:#C2C1C1;}
	.st41{clip-path:url(#SVGID_00000140737456137197580880000006692362017946627007_);fill:#C2C1C1;}
	.st42{clip-path:url(#SVGID_00000067201551944680495940000014315872381341797790_);fill:#C2C1C1;}
	.st43{clip-path:url(#SVGID_00000106148070334975604960000009179709282782246328_);fill:#0B8043;}
	.st44{clip-path:url(#SVGID_00000160874027906408996370000016538111498851363984_);fill:#0B8043;}
	.st45{fill:#A55933;}
	.st46{fill:#803C26;}
	.st47{fill:#C64B45;}
	.st48{fill:#8B3A37;}
	.st49{clip-path:url(#SVGID_00000173120470691888864480000011833448636103946417_);}
	.st50{clip-path:url(#SVGID_00000183935369293308416120000007487237905309208238_);}
	.st51{clip-path:url(#SVGID_00000138532664679722521390000007036924282511144834_);}
	.st52{clip-path:url(#SVGID_00000132048062867262039590000002663096418704841115_);}
	.st53{clip-path:url(#SVGID_00000044884723660413494460000011316143926808796079_);}
	.st54{clip-path:url(#SVGID_00000132777645525555947450000012064326931488419254_);}
	.st55{clip-path:url(#SVGID_00000080205383468246646310000017102854758729310373_);fill:#41164A;}
	.st56{clip-path:url(#SVGID_00000124124418576345669500000015521819210892707006_);fill:#41164A;}
	.st57{clip-path:url(#SVGID_00000143610738969636421270000009644934696262695859_);fill:#FFFFFF;}
	.st58{clip-path:url(#SVGID_00000143610738969636421270000009644934696262695859_);fill:#41164A;}
	.st59{clip-path:url(#SVGID_00000090267799332883071640000000513681891324759201_);fill:#FFFFFF;}
	.st60{clip-path:url(#SVGID_00000090267799332883071640000000513681891324759201_);fill:#E47D7A;}
	.st61{fill:#C28F5D;}
	.st62{fill:#375A42;}
	.st63{clip-path:url(#SVGID_00000021840316923306600660000004492596608327622320_);fill:#6AA17A;}
	.st64{clip-path:url(#SVGID_00000043458753210485039560000007856076022223246227_);fill:#6AA17A;}
	.st65{fill:#6AA17A;}
	.st66{clip-path:url(#SVGID_00000169550638289157833650000002691980611617495948_);fill:#3D1947;}
	.st67{clip-path:url(#SVGID_00000121969936949064019140000016242108518299442616_);fill:#8B3A37;}
	.st68{clip-path:url(#SVGID_00000065046574110214384880000013917076785875412111_);}
	.st69{clip-path:url(#SVGID_00000085955058708910274540000014226572144329876669_);fill:#FFFFFF;}
	.st70{clip-path:url(#SVGID_00000085955058708910274540000014226572144329876669_);fill:#D9807E;}
	.st71{clip-path:url(#SVGID_00000141448474947138491040000001121219487156885182_);fill:#41164A;}
	.st72{clip-path:url(#SVGID_00000121986914169514379370000014128191245712961709_);fill:#41164A;}
	.st73{clip-path:url(#SVGID_00000108998412758695826800000000691526217296487316_);fill:#FFFFFF;}
	.st74{clip-path:url(#SVGID_00000108998412758695826800000000691526217296487316_);fill:#41164A;}
	.st75{clip-path:url(#SVGID_00000130643526864185473150000011199198960246986174_);fill:#FFFFFF;}
	.st76{clip-path:url(#SVGID_00000130643526864185473150000011199198960246986174_);fill:#E47D7A;}
	.st77{fill:#D2687C;}
	.st78{clip-path:url(#SVGID_00000072985910110037116440000017893990271647359371_);fill:#C64B45;}
	.st79{fill:#D1544C;}
	.st80{clip-path:url(#SVGID_00000092429008251237811340000004352274321131550350_);}
	.st81{clip-path:url(#SVGID_00000116205208916480534250000000592180553499884694_);}
	.st82{fill:#DADAD9;}
	.st83{clip-path:url(#SVGID_00000126313936740604989150000005398346041783135919_);fill:#0E8042;}
	.st84{clip-path:url(#SVGID_00000126313936740604989150000005398346041783135919_);fill:#1A3826;}
	.st85{clip-path:url(#SVGID_00000147220125219842363180000006864004146243384197_);fill:#0E8042;}
	.st86{clip-path:url(#SVGID_00000147220125219842363180000006864004146243384197_);fill:#1A3826;}
	.st87{fill:none;stroke:#0E8042;stroke-linecap:round;stroke-linejoin:round;stroke-miterlimit:10;}
	.st88{clip-path:url(#SVGID_00000109017332722239221500000003473225429287544750_);}
	.st89{clip-path:url(#SVGID_00000119837264274826401470000007761423260538390192_);fill:#0E8042;}
	.st90{clip-path:url(#SVGID_00000060723391073163305350000002361921329444501167_);fill:#0E8042;}
	.st91{clip-path:url(#SVGID_00000060723391073163305350000002361921329444501167_);fill:#1A3826;}
	.st92{clip-path:url(#SVGID_00000146459228793616795910000017257676102815321764_);fill:#0E8042;}
	.st93{clip-path:url(#SVGID_00000146459228793616795910000017257676102815321764_);fill:#1A3826;}
	.st94{clip-path:url(#SVGID_00000037657855541523233680000015272676777893454242_);fill:#0E8042;}
	.st95{clip-path:url(#SVGID_00000037657855541523233680000015272676777893454242_);fill:#1A3826;}
	.st96{clip-path:url(#SVGID_00000138552900625603697310000003265189509887067287_);fill:#0E8042;}
	.st97{clip-path:url(#SVGID_00000138552900625603697310000003265189509887067287_);fill:#1A3826;}
	.st98{clip-path:url(#SVGID_00000078765800839195486050000004233981320584144305_);}
	.st99{clip-path:url(#SVGID_00000007409247848437966370000014459228154986066596_);fill:#0E8042;}
	.st100{clip-path:url(#SVGID_00000007409247848437966370000014459228154986066596_);fill:#1A3826;}
	.st101{clip-path:url(#SVGID_00000005242031880720696060000015147919984640328606_);}
	.st102{clip-path:url(#SVGID_00000163764194880283474480000016661209355080149689_);fill:#FFFFFF;}
	.st103{clip-path:url(#SVGID_00000163764194880283474480000016661209355080149689_);fill:#D9807E;}
	.st104{clip-path:url(#SVGID_00000121245014170202595400000004410380403178563969_);fill:#41164A;}
	.st105{clip-path:url(#SVGID_00000058583099486883557340000009743036853652846476_);fill:#41164A;}
	.st106{clip-path:url(#SVGID_00000106855082163314462700000014868744390291401859_);fill:#FFFFFF;}
	.st107{clip-path:url(#SVGID_00000106855082163314462700000014868744390291401859_);fill:#41164A;}
	.st108{clip-path:url(#SVGID_00000155863081265432308410000008717487097383865999_);fill:#FFFFFF;}
	.st109{clip-path:url(#SVGID_00000155863081265432308410000008717487097383865999_);fill:#E47D7A;}
	.st110{clip-path:url(#SVGID_00000172401723794903520160000002757028170017536128_);fill:#E09F9E;}
	.st111{clip-path:url(#SVGID_00000078745793381024277190000016256573922363529362_);fill:#CB8080;}
	.st112{clip-path:url(#SVGID_00000164487677914089466540000002261572201332114361_);fill:#C2C1C1;}
	.st113{clip-path:url(#SVGID_00000097466682377414285400000010490090993046146229_);fill:#C2C1C1;}
	.st114{clip-path:url(#SVGID_00000073704508948183662260000002188867369535803026_);}
	.st115{clip-path:url(#SVGID_00000111900394176072203110000004929118358899637892_);fill:#C2C1C1;}
	.st116{clip-path:url(#SVGID_00000093872564064329338380000017495497962136900522_);fill:#C2C1C1;}
	.st117{clip-path:url(#SVGID_00000014605944421457762790000014716072925443054728_);fill:#0B8043;}
	.st118{clip-path:url(#SVGID_00000051356493268261913590000009571810869683924384_);fill:#0B8043;}
	.st119{clip-path:url(#SVGID_00000175310590397022646080000018424406379030620341_);}
	.st120{clip-path:url(#SVGID_00000106125444153252368620000003522539857667533999_);}
	.st121{clip-path:url(#SVGID_00000116207629010892060340000012652339355969668250_);}
	.st122{clip-path:url(#SVGID_00000179617669153924791110000006409478081262383802_);}
	.st123{clip-path:url(#SVGID_00000137815935504842059540000013360853607976350895_);}
	.st124{clip-path:url(#SVGID_00000125574011941661582260000013741567674096500630_);}
	.st125{clip-path:url(#SVGID_00000057136832427639975720000009729631066435357078_);fill:#0E8042;}
	.st126{clip-path:url(#SVGID_00000057136832427639975720000009729631066435357078_);fill:#1A3826;}
	.st127{clip-path:url(#SVGID_00000139260831480901070450000014127423734573577883_);}
	.st128{clip-path:url(#SVGID_00000129176989979947084920000010241238724396204213_);fill:#FFFFFF;}
	.st129{clip-path:url(#SVGID_00000129176989979947084920000010241238724396204213_);fill:#D9807E;}
	.st130{clip-path:url(#SVGID_00000060749528584793992620000010808770429483366787_);fill:#41164A;}
	.st131{clip-path:url(#SVGID_00000179647454142226959760000017804476921917999765_);fill:#41164A;}
	.st132{clip-path:url(#SVGID_00000070085948762771742970000006074892332887230351_);fill:#FFFFFF;}
	.st133{clip-path:url(#SVGID_00000070085948762771742970000006074892332887230351_);fill:#41164A;}
	.st134{clip-path:url(#SVGID_00000109021692920999139400000005259377937857953664_);fill:#FFFFFF;}
	.st135{clip-path:url(#SVGID_00000109021692920999139400000005259377937857953664_);fill:#E47D7A;}
	.st136{clip-path:url(#SVGID_00000177451033689596902550000002456434977822063529_);fill:#C64B45;}
	.st137{clip-path:url(#SVGID_00000027603257125198509350000009234010795605976761_);}
	.st138{clip-path:url(#SVGID_00000114051594386342701310000009941765920340607886_);}
	.st139{clip-path:url(#SVGID_00000029734220619373115750000013779125454653506744_);fill:#0E8042;}
	.st140{clip-path:url(#SVGID_00000029734220619373115750000013779125454653506744_);fill:#1A3826;}
	.st141{clip-path:url(#SVGID_00000049187752978685093820000016428500240865775264_);fill:#0E8042;}
	.st142{clip-path:url(#SVGID_00000049187752978685093820000016428500240865775264_);fill:#1A3826;}
	.st143{clip-path:url(#SVGID_00000178922276030428575820000006398819911924329628_);fill:#0E8042;}
	.st144{clip-path:url(#SVGID_00000178922276030428575820000006398819911924329628_);fill:#1A3826;}
	.st145{clip-path:url(#SVGID_00000019638676927005996710000001769495162943957427_);}
	.st146{clip-path:url(#SVGID_00000150077951087335930910000010323291124717596597_);}
	.st147{clip-path:url(#SVGID_00000174571628452623261980000007675714240119038608_);}
	.st148{clip-path:url(#SVGID_00000109717655881752676100000001025432999288779908_);}
	.st149{clip-path:url(#SVGID_00000127018319498517078180000016511919021185692306_);}
	.st150{clip-path:url(#SVGID_00000142165617459018628200000014725893609240540547_);}
	.st151{clip-path:url(#SVGID_00000168819722363080395560000010481530385737439930_);fill:#FFFFFF;}
	.st152{clip-path:url(#SVGID_00000168819722363080395560000010481530385737439930_);fill:#8B3A37;}
	.st153{fill:#DF9E9E;}
	.st154{fill:#C98080;}
	.st155{fill:#DFD5E2;}
	.st156{clip-path:url(#SVGID_00000065034393738713041110000004072133282293882288_);fill:#DF9E9E;}
	.st157{fill:#E9C4B0;}
	.st158{clip-path:url(#SVGID_00000046317469826071674370000011664782812705044355_);fill:#C98080;}
	.st159{clip-path:url(#SVGID_00000061451873718539356650000011512166695122466472_);fill:#C1C0C0;}
	.st160{clip-path:url(#SVGID_00000023271184942807270600000004353203246329464465_);fill:#C1C0C0;}
	.st161{clip-path:url(#SVGID_00000020389997424454691780000004877941856983882126_);}
	.st162{fill:#C1C0C0;}
	.st163{clip-path:url(#SVGID_00000155860272012417103070000010225877428596947115_);fill:#C1C0C0;}
	.st164{clip-path:url(#SVGID_00000138562676861938838030000003956304859813854623_);fill:#C1C0C0;}
	.st165{clip-path:url(#SVGID_00000027597108649442369640000012591953695272643490_);fill:#0E8042;}
	.st166{clip-path:url(#SVGID_00000170270554639086858260000012409918548583978929_);fill:#0E8042;}
	.st167{fill:#7F2420;}
	.st168{clip-path:url(#SVGID_00000026147112202905033780000009668920364431214729_);fill:#FFFFFF;}
	.st169{clip-path:url(#SVGID_00000026147112202905033780000009668920364431214729_);fill:#D8807E;}
	.st170{fill:#7F2421;}
	.st171{clip-path:url(#SVGID_00000127740982210744371700000002128316187804710274_);fill:#ECA45C;}
	.st172{clip-path:url(#SVGID_00000106834379591707072320000009992552739077719230_);fill:#0E8042;}
	.st173{clip-path:url(#SVGID_00000106834379591707072320000009992552739077719230_);fill:#1A3826;}
	.st174{clip-path:url(#SVGID_00000095335075083955328690000007400920508219025792_);fill:#0E8042;}
	.st175{clip-path:url(#SVGID_00000095335075083955328690000007400920508219025792_);fill:#1A3826;}
	.st176{clip-path:url(#SVGID_00000026149614600133799100000006738661638430649017_);fill:#0E8042;}
	.st177{clip-path:url(#SVGID_00000026149614600133799100000006738661638430649017_);fill:#1A3826;}
	.st178{clip-path:url(#SVGID_00000152961561889751336050000014136468690330369453_);fill:#0E8042;}
	.st179{clip-path:url(#SVGID_00000152961561889751336050000014136468690330369453_);fill:#1A3826;}
	.st180{clip-path:url(#SVGID_00000128483486084664532730000003320039938391037091_);fill:#0E8042;}
	.st181{clip-path:url(#SVGID_00000128483486084664532730000003320039938391037091_);fill:#1A3826;}
	.st182{clip-path:url(#SVGID_00000140728116690592782730000011536880414834677642_);fill:#0E8042;}
	.st183{clip-path:url(#SVGID_00000140728116690592782730000011536880414834677642_);fill:#1A3826;}
	.st184{clip-path:url(#SVGID_00000030484784462146596730000010998017738332371084_);fill:#0E8042;}
	.st185{clip-path:url(#SVGID_00000030484784462146596730000010998017738332371084_);fill:#1A3826;}
	.st186{clip-path:url(#SVGID_00000079479597702995015600000000388390458960047778_);fill:#0E8042;}
	.st187{clip-path:url(#SVGID_00000079479597702995015600000000388390458960047778_);fill:#1A3826;}
	.st188{clip-path:url(#SVGID_00000162335695846716516810000012410755296123469743_);fill:#0E8042;}
	.st189{clip-path:url(#SVGID_00000162335695846716516810000012410755296123469743_);fill:#1A3826;}
	.st190{clip-path:url(#SVGID_00000082335605726283194330000012080307218626489497_);fill:#0E8042;}
	.st191{clip-path:url(#SVGID_00000082335605726283194330000012080307218626489497_);fill:#1A3826;}
	.st192{clip-path:url(#SVGID_00000037668179894881356160000004373377148179141307_);fill:#0E8042;}
	.st193{clip-path:url(#SVGID_00000037668179894881356160000004373377148179141307_);fill:#1A3826;}
	.st194{clip-path:url(#SVGID_00000031205346637631937870000007578594069337301918_);fill:#0E8042;}
	.st195{clip-path:url(#SVGID_00000031205346637631937870000007578594069337301918_);fill:#1A3826;}
	.st196{clip-path:url(#SVGID_00000168099791634870657860000013045868633620647863_);fill:#0E8042;}
	.st197{clip-path:url(#SVGID_00000168099791634870657860000013045868633620647863_);fill:#1A3826;}
	.st198{clip-path:url(#SVGID_00000181082114055110125640000016423179921539787667_);}
	.st199{clip-path:url(#SVGID_00000013894376229651289020000005692447881801472698_);fill:#FFFFFF;}
	.st200{clip-path:url(#SVGID_00000013894376229651289020000005692447881801472698_);fill:#D9807E;}
	.st201{clip-path:url(#SVGID_00000021803666267799589470000005838296384103983289_);fill:#41164A;}
	.st202{clip-path:url(#SVGID_00000071541184040143311860000012540560152903845563_);fill:#41164A;}
	.st203{clip-path:url(#SVGID_00000001637364405441215100000001287999331540266132_);fill:#FFFFFF;}
	.st204{clip-path:url(#SVGID_00000001637364405441215100000001287999331540266132_);fill:#41164A;}
	.st205{clip-path:url(#SVGID_00000045594608215416300270000003122504092548228767_);fill:#FFFFFF;}
	.st206{clip-path:url(#SVGID_00000045594608215416300270000003122504092548228767_);fill:#E47D7A;}
	.st207{clip-path:url(#SVGID_00000067201807652431797780000006921535144483350962_);fill:#C64B45;}
	.st208{clip-path:url(#SVGID_00000088102097658940102390000001143148595986841002_);}
	.st209{clip-path:url(#SVGID_00000149359529014481723840000003485696609347543982_);}
	.st210{clip-path:url(#SVGID_00000040547216593487940770000006630692098820064413_);fill:#6AA17A;}
	.st211{clip-path:url(#SVGID_00000002371652584310144460000008550652490307349138_);fill:#6AA17A;}
	.st212{clip-path:url(#SVGID_00000093166472405089527320000013404812131413168063_);fill:#3D1947;}
	.st213{clip-path:url(#SVGID_00000001626995090498258670000001791384347090060418_);fill:#8B3A37;}
	.st214{clip-path:url(#SVGID_00000142868253149161062950000016868047329580043160_);}
	.st215{clip-path:url(#SVGID_00000046311472505244024410000018166244647006115737_);}
	.st216{clip-path:url(#SVGID_00000162319983234424617740000017552237537603789976_);}
	.st217{clip-path:url(#SVGID_00000181781169501241883500000003116549360195838369_);}
	.st218{clip-path:url(#SVGID_00000103968307160278877800000005983350659035198646_);}
	.st219{clip-path:url(#SVGID_00000100348037367164394470000014303675684191753889_);}
	.st220{clip-path:url(#SVGID_00000114768625575059619490000015290137146411150997_);fill:#FFFFFF;}
	.st221{clip-path:url(#SVGID_00000114768625575059619490000015290137146411150997_);fill:#8B3A37;}
	.st222{clip-path:url(#SVGID_00000126300687643839296250000016663647107468097684_);fill:#DF9E9E;}
	.st223{clip-path:url(#SVGID_00000085951516353931227710000014473548043480455103_);fill:#C98080;}
	.st224{clip-path:url(#SVGID_00000172441037814804142560000012208735389968768402_);fill:#C1C0C0;}
	.st225{clip-path:url(#SVGID_00000110435385936354823000000010086793851906412440_);fill:#C1C0C0;}
	.st226{clip-path:url(#SVGID_00000034791974439315563430000015789774375138047935_);}
	.st227{clip-path:url(#SVGID_00000064352707991043755130000014299039535675597711_);fill:#C1C0C0;}
	.st228{clip-path:url(#SVGID_00000151502411436349928230000009889318045157616512_);fill:#C1C0C0;}
	.st229{clip-path:url(#SVGID_00000066476818386891698840000009586819180967306415_);fill:#0E8042;}
	.st230{clip-path:url(#SVGID_00000044878465358392744190000000046744281377085861_);fill:#0E8042;}
	.st231{clip-path:url(#SVGID_00000063619608006304345990000013142996461967577259_);fill:#FFFFFF;}
	.st232{clip-path:url(#SVGID_00000063619608006304345990000013142996461967577259_);fill:#D8807E;}
	.st233{clip-path:url(#SVGID_00000063596827941760193280000017285662779926658182_);fill:#ECA45C;}
</style>
<g>
	<g>
		<g>
			<path class="st4" d="M39.26,100.35c2.17-4.26,1.17-9.91-2.35-13.15c-1.84-1.7-4.45-3.08-4.79-5.57c-0.4-2.94,2.67-5.21,3.24-8.12
				c1.02-5.2-6.11-9.42-5.07-14.62c0.76-3.81,5.64-5.91,5.95-9.78c0.19-2.3-1.37-4.59-0.74-6.81c0.64-2.25,3.27-3.44,4.04-5.65
				c0.83-2.38-0.78-5.06-0.14-7.5c0.56-2.14,2.66-3.47,3.84-5.34c1.35-2.13,1.44-4.82,2.38-7.16c1.19-2.98,3.66-5.23,6.05-7.37
				c2.49-2.23,5.14-4.54,8.41-5.2c2.53-0.51,5.21,0.02,7.69-0.71c2.87-0.84,5.24-3.31,8.23-3.38c2.64-0.06,4.91,1.78,7.41,2.63
				c2.28,0.78,4.74,0.73,7.1,1.22s4.81,1.74,5.6,4.01c4.52-2.08,9.99,0.38,13.59,3.82s6.41,7.78,10.66,10.36
				c5.63,3.43,13.37,2.95,18.54-1.14c-1.38,4.7-6.07,8.22-10.97,8.23c3.47,2.36,5.08,7.12,3.76,11.1c-1.12,3.37-3.94,5.83-6.27,8.5
				s-4.35,6.22-3.35,9.63c1.27,4.38,6.87,6.4,8.12,10.78c1.24,4.37-1.27,8.42,0.73,12.8c2.61,5.72,8.74,12.72,15.51,12.83
				c2.52,0.04,5.27-0.19,7.31,1.29c2.81,2.03,2.91,6.28,5.23,8.86c2.93,3.25,8.59,2.98,11.25,6.46c3.02,3.94,0.43,9.32,0.42,13.71
				c-0.01,5.42,2.4,12.27,4.38,17.28c1.66,4.2,3.3,7.27,6.62,10.18c3.6,3.16,6.23,7.12,6.95,11.94c0.58,3.84-0.04,7.76-0.03,11.65
				c0.01,3.89,0.81,8.06,3.61,10.76s8.06,2.99,10.23-0.24c0.49,4.3-4.64,7.31-8.96,7c-4.32-0.32-8.23-2.64-12.47-3.55
				c-4.72-1.02-8.8-0.38-13.28,0.64c-4.01,0.92-8.62-0.57-11.02-4c-1.04-1.48-1.74-3.29-3.25-4.29c-2.05-1.35-4.75-0.71-7.15-0.21
				c-4.97,1.03-8.6-1.92-10.95-6.21c-1.84-3.35-2.3-7.68-4.35-10.85c-2.2-3.41-5.74-6.81-10.16-5.73c-6.52,1.58-5.3,7.88-1.74,11.78
				c1.53,1.67,3.38,2.84,5.05,4.32c2.44,2.17,1.49,5.6,0.64,8.41c-1.09,3.59-0.87,6.79,1.29,9.93c1.81,2.64,4.6,4.41,6.62,6.86
				c2.86,3.47,3.91,8.35,2.74,12.69c-1.17,4.34-4.55,8.02-8.76,9.57c1.15-1.7,2.32-3.43,2.89-5.4c0.97-3.36-0.76-6.72-4.53-6.88
				c-1.88-0.08-3.71,0.56-5.55,0.93c-1.85,0.36-3.92,0.4-5.43-0.73c-4.5-3.38-1.33-10.88-6.87-14.28c-2.16-1.33-4.69-1.87-7.07-2.76
				c-2.38-0.89-4.77-2.28-5.82-4.58c-1.45-3.17,0.07-6.91-0.45-10.36c-0.77-5.15-5.72-8.49-8.45-12.93
				c-2.96-4.83-3.17-10.88-2.35-16.49c0.82-5.61,2.58-11.05,3.27-16.68c0.59-4.86,0.7-12.86-3.53-16.21
				c-4.41-3.5-11.51-3.43-16.79-3.16c-5.79,0.29-11.76,0.97-17.24-0.9S36.62,105.51,39.26,100.35z"/>
		</g>
		<g>
			<path class="st45" d="M109.15,55.16c-0.38,2.16-0.79,3.88-1.77,5.83c-1.12,2.23-1.81,4.67-2.92,6.87
				c-2.21,4.37-6.67,7.06-10.91,9.52c-1.57,0.91-3.22,1.84-5.03,1.94c-2.37,0.12-4.54-1.2-6.53-2.47c-3.37-2.15-6.86-4.41-8.94-7.83
				c-1.54-2.52-2.19-5.48-2.62-8.41c-1.09-7.38-0.99-14.93,0.32-22.27c0.63-3.55,1.63-7.22,4.13-9.82c2.02-2.11,4.85-3.3,7.73-3.8
				c2.87-0.5,5.82-0.36,8.73-0.14c4.43,0.33,8.95,0.87,12.91,2.88c2.43,1.23,4.6,3.11,6.08,5.4c1.95,3.02,1.7,6.22,1.1,9.6
				c-0.75,4.21-1.5,8.42-2.25,12.64C109.15,55.11,109.15,55.13,109.15,55.16z"/>
		</g>
		<g>
			<path class="st45" d="M62.14,77.75c1.93-3.27,3.27-6.9,4.29-10.54c1.21,2.33,3.16,4.47,4.94,6.38c1.88,2.02,4.25,3.59,6.86,4.5
				c-0.81,1.12-1.06,3.92-1.06,4.32c0.03,1.61,0.76,3.04,2,4.06c1.31,1.08,2.97,1.62,4.62,2.02c8.38,2.09,12.32,10.43,14.01,18.19
				c2.34,10.75,3.21,21.84,4.5,32.8c0.65,5.59,1.31,11.2,2.56,16.7c1.25,5.52,1.21,6.34,2.84,11.73c0.24,0.79,2.84,7.97,3.47,8.44
				c2.69,1.12,5.2,2.69,7.39,4.61c2.04,1.79,4.31,3.64,5.78,5.95c1.93,3.04,2.28,7.54-0.46,9.88c-4.54,3.89-10.93-0.97-14.31-4.11
				c-8.16-7.58-14.31-17.29-17.81-27.86c-1.73-5.24-2.72-10.75-3.99-16.09c-1.52-6.41-2.75-12.89-3.97-19.36
				c-2.3,8.27-4.98,16.19-7.78,24.29c-1.39,4-3.24,7.88-4.95,11.77c-0.95,2.17-2.17,4.35-3.98,5.93c-3.48,3.06-9.14,0.96-13.03,0.14
				c-6.03-1.27-12.31-1.65-18.39-2.77c-2.99-0.55-6.92-0.9-8.58-3.87c-0.64-1.14-0.77-2.52-0.61-3.83c0.55-4.4,1.85-8.82,2.51-13.26
				c0.71-4.73,1.21-9.5,1.22-14.29c0.02-10.05-0.95-20.2,0.86-30.08c0.95-5.19,3.23-10.63,8.4-12.85c3.2-1.38,6.81-1.35,10.15-2.33
				C54.95,86.66,59.3,82.55,62.14,77.75z"/>
		</g>
		<g>
			<path class="st28" d="M98.37,56.04c-0.92,1.22-0.91,3.06,0.03,4.27c0.53,0.69,1.34,1.24,1.49,2.1c0.09,0.53-0.11,1.08-0.46,1.49
				c-0.35,0.41-0.83,0.68-1.34,0.87c-1.16,0.42-2.46,0.38-3.64,0.01s-2.23-1.09-3.12-1.95c-0.34-0.33-0.67-0.7-0.84-1.15
				c-0.17-0.45-0.16-0.99,0.13-1.37"/>
		</g>
		<g>
			<path class="st46" d="M97,58.06c0.09,0.72,0.31,1.43,0.65,2.07c0.2,0.38,0.45,0.74,0.55,1.15c0.34,1.28-1.16,2.19-2.27,2.17
				c-0.56-0.01-1.11-0.17-1.64-0.37c-1.09-0.41-2.12-1.1-2.24-2.36c-0.12-1.33,0.59-2.89,1.18-4.04c0.3-0.57,0.66-1.13,1.19-1.49
				c0.53-0.36,1.28-0.47,1.82-0.11c0.81,0.53,0.7,1.49,0.71,2.32C96.96,57.62,96.97,57.84,97,58.06z"/>
		</g>
		<g>
			<path class="st47" d="M94.54,72.37c0.97-0.58,1.36-1.25,1.55-2.34c0.43,0.01,0.81-0.39,0.85-0.82c0.05-0.43-0.18-0.86-0.5-1.15
				c-0.32-0.29-0.74-0.45-1.15-0.58c-1.61-0.5-3.32-0.49-4.97-0.27c-0.84,0.11-1.52,0.14-2.34-0.08c-0.77-0.21-1.5-0.56-2.15-1.03
				c0.79,1.85,1.99,3.52,3.5,4.85c0.72,0.63,1.51,1.2,2.42,1.5C92.65,72.75,93.68,72.78,94.54,72.37z"/>
		</g>
		<g>
			<path class="st48" d="M85.79,66.11c1.99,3.01,6.81,4.91,10.31,3.95c0,0-0.01-0.08-0.01-0.08c-2.72-0.6-5.62-0.77-8.08-2.13
				c-0.8-0.48-1.55-1.07-2.15-1.79L85.79,66.11L85.79,66.11z"/>
		</g>
		<g>
			<path class="st1" d="M111.08,67.98c0.34,1.53,1.24,2.88,2.26,4.08c0.5,0.58,1.06,1.34,0.74,2.04c-0.29,0.64-1.13,0.77-1.84,0.75
				c-0.93-0.03-1.87-0.18-2.7-0.59s-1.55-1.1-1.87-1.97c-0.52-1.46,0.16-3.04,0.61-4.52c0.29-0.97,0.49-1.97,0.91-2.89
				c0.31-0.68,0.78-1.34,1.42-1.75c0.45-0.3,1.75-0.74,1.65,0.22c-0.06,0.62-0.88,1.33-1.09,1.97
				C110.9,66.16,110.88,67.1,111.08,67.98z"/>
		</g>
		<g>
			<path class="st5" d="M113.51,75.93c3.91,3.68,8.17,7.14,10.92,11.74c-0.5-0.21-1-0.41-1.5-0.62c0.79,1.02,1.59,2.04,2.38,3.06
				c-0.52-0.28-1.13-0.37-1.71-0.25c0.93,0.89,1.69,1.87,2.45,2.9c-0.35-0.19-0.71-0.38-1.06-0.58c0.88,1.3,1.68,2.69,2.04,4.22
				c0.36,1.53,0.22,3.23-0.66,4.53c-0.24,0.36-0.58,0.7-1.01,0.74c-0.37,0.03-0.71-0.16-1.02-0.35c-1.48-0.91-2.94-1.93-3.97-3.33
				s-1.58-3.25-1.06-4.91c-0.27,0.84-0.54,1.68-0.82,2.53c-0.54-1.68-0.58-3.52-0.11-5.22c-0.74,0.66-1.29,1.52-1.59,2.46
				c-0.69-1.69-0.48-3.72,0.54-5.24c-0.81,0.24-1.46,0.94-1.65,1.76c-0.09-2.05,0.21-4.12,0.88-6.05c0.53-1.53,0.61-2.37-0.77-3.36
				c-1.42-1.02-2.71-2.22-3.82-3.57c-0.52-0.63-1.01-1.33-1.13-2.14c-0.12-0.78,0.69-1.89,1.12-0.82
				C112.37,74.45,112.66,75.13,113.51,75.93z"/>
		</g>
		<g>
			<path class="st4" d="M51.46,93.15c0.11,0.03,0.22,0.05,0.33,0.07c2.51,0.5,5.14,0.41,8.28-0.26c0.78-0.17,1.45-0.34,2.07-0.49
				c1.42-0.36,2.54-0.65,4.27-0.7c1.84-0.06,3.66,0.19,5.59,0.46c1.62,0.23,3.3,0.46,5,0.5c3.72,0.07,8.39-1.2,10.35-4.99
				l-2.25-1.17c-1.43,2.76-5.1,3.68-8.05,3.62c-1.55-0.03-3.08-0.24-4.7-0.47c-1.95-0.27-3.97-0.56-6.03-0.49
				c-2,0.07-3.3,0.4-4.81,0.78c-0.6,0.15-1.23,0.31-1.98,0.47c-2.79,0.6-5.09,0.68-7.25,0.25c-2.12-0.43-4.29-2.95-4.71-4.84
				l-2.48,0.55C45.68,89.11,48.35,92.35,51.46,93.15z"/>
		</g>
		<g>
			<path class="st4" d="M22.44,125.15c10.39,2.65,21.93,1.21,31.16-4.21l-0.43-0.73c-11.38,6.68-26.36,7.19-38.16,1.28l-0.38,0.76
				C17.12,123.49,19.74,124.46,22.44,125.15z"/>
		</g>
		<g>
			<path class="st4" d="M15.27,127.59c2.29,0.58,4.25-0.75,6.15-2.04c2.11-1.43,4.11-2.78,6.5-1.64c0.81,0.39,1.5,0.96,2.24,1.56
				l0.39,0.32c3.91,3.17,8.57,5.44,13.46,6.57l0.19-0.82c-4.77-1.1-9.31-3.32-13.12-6.4l-0.38-0.32c-0.74-0.61-1.51-1.24-2.41-1.67
				c-2.83-1.35-5.12,0.2-7.34,1.7c-2,1.35-3.89,2.63-6.06,1.72l-0.33,0.78C14.8,127.45,15.04,127.53,15.27,127.59z"/>
		</g>
		<g>
			<path class="st2" d="M67.43,78.61c-0.47-2.19-0.44-4.49,0.07-6.68c0.1-0.45-0.45-0.83-0.89-0.7s-0.71,0.57-0.89,1
				c-0.73,1.71-0.66,3.66-0.29,5.47c0.07,0.36,0.16,0.73,0.37,1.03s0.57,0.53,0.93,0.48C67.1,79.16,67.5,78.97,67.43,78.61z"/>
		</g>
		<g>
			<path class="st2" d="M69.96,65.37c-0.1,0.76-0.42,1.54-0.95,2.04c-0.51,0.49-0.88,1.15-1.04,1.83c-0.05,0.2-0.08,0.4-0.16,0.58
				c-0.2,0.46-0.73,0.52-1.06,0.14c-0.2-0.23-0.26-0.55-0.26-0.85c0.02-1.32,1.06-2.33,1.61-3.45c0.14-0.28,0.25-0.57,0.31-0.88
				c0.06-0.29,0.08-0.61,0.26-0.86c0.18-0.26,0.51-0.31,0.79-0.2c0.37,0.15,0.46,0.37,0.51,0.74C70,64.75,70,65.06,69.96,65.37z"/>
		</g>
		<g>
			<path class="st4" d="M39.31,126.72c4.44,1.13,8.73,1.11,12.06-0.12l-0.29-0.79c-3.77,1.39-8.87,1.15-13.99-0.65
				c-2.74-0.96-9.15-3.87-9.65-10.12l-0.84,0.07c0.53,6.75,7.32,9.84,10.21,10.85C37.64,126.26,38.48,126.51,39.31,126.72z"/>
		</g>
		<g>
			<path class="st1" d="M70.41,54.66c0.13,0.62,0.29,1.23,0.49,1.86c0.41,1.34,0.44,2.75,0.36,4.13c-0.08,1.33-0.11,2.76-0.64,4
				c-0.13,0.29-0.31,0.58-0.6,0.71c-0.27,0.12-0.6,0.05-0.85-0.1s-0.46-0.38-0.64-0.61c-1.49-1.84-2.17-4.23-2.17-6.58
				c0-1.3,0.23-2.59,0.58-3.84c0.33-1.18,0.59-2.42,1.12-3.53c0.23-0.49,0.75-1.05,1.35-0.83c1,0.37,0.76,1.43,0.75,2.27
				C70.14,53.01,70.24,53.84,70.41,54.66z"/>
		</g>
		<g>
			<path class="st47" d="M71.8,50.1c0.08,0.96-0.51,1.94-1.39,2.35c-0.88,0.4-1.99,0.21-2.71-0.44c-0.93-0.84-0.95-2.44-0.11-3.35
				C68.94,47.18,71.63,48.1,71.8,50.1z"/>
		</g>
		<g>
			<defs>
				<path id="SVGID_00000115490171641087702350000009591313991929890199_" d="M109.15,55.16c-0.38,2.16-0.79,3.88-1.77,5.83
					c-1.12,2.23-1.81,4.67-2.92,6.87c-2.21,4.37-6.67,7.06-10.91,9.52c-1.57,0.91-3.22,1.84-5.03,1.94
					c-2.37,0.12-4.54-1.2-6.53-2.47c-3.37-2.15-6.86-4.41-8.94-7.83c-1.54-2.52-2.19-5.48-2.62-8.41
					c-1.09-7.38-0.99-14.93,0.32-22.27c0.63-3.55,1.63-7.22,4.13-9.82c2.02-2.11,4.85-3.3,7.73-3.8c2.87-0.5,5.82-0.36,8.73-0.14
					c1.97,0.15,3.94,0.33,5.89,0.67c1.72,0.3,3.19,0.96,4.98,0.66c1.19-0.2,2.44-0.5,3.58-0.1c1.03,0.36,1.8,1.25,2.26,2.24
					c0.42,0.89,0.4,1.94,0.78,2.81c0.31,0.71,1.07,1.32,1.5,1.99c1.95,3.02,1.7,6.22,1.1,9.6c-0.75,4.21-1.5,8.42-2.25,12.64
					C109.15,55.11,109.15,55.13,109.15,55.16z"/>
			</defs>
			<clipPath id="SVGID_00000142878117520034094040000011908566778123362457_">
				<use xlink:href="#SVGID_00000115490171641087702350000009591313991929890199_"  style="overflow:visible;"/>
			</clipPath>
			<g style="clip-path:url(#SVGID_00000142878117520034094040000011908566778123362457_);">
				<path class="st47" d="M67.35,45.45c4.14,5.36,12.03,8.57,18.43,10.8c2.39,0.84,4.99,1.63,7.41,0.89c1.2-0.37,2.44-1.1,3.61-0.64
					c0.65,0.25,1.11,0.83,1.63,1.3c1.71,1.51,4.25,1.79,6.48,1.26s4.22-1.73,6.17-2.92l5.04-26.16L95.63,19.93l-22.58,3.18
					L67.35,45.45z"/>
			</g>
		</g>
		<g>
			<path class="st48" d="M92.98,57.18c0.06-0.01,0.13-0.03,0.19-0.05c1.19-0.37,2.44-1.1,3.61-0.64c0.06,0.02,0.11,0.05,0.16,0.07
				c-0.02-0.58-0.15-1.14-0.69-1.49c-0.54-0.36-1.29-0.24-1.82,0.11c-0.54,0.36-0.9,0.92-1.2,1.49C93.15,56.84,93.07,57,92.98,57.18
				z"/>
		</g>
		<g>
			<path class="st4" d="M67.35,45.45c4.93,6.71,13.23,9.77,20.9,12.23c2,0.56,4.45,0.5,6.32-0.4c0.93-0.36,1.75-0.54,2.39-0.06
				c2.33,2.48,5.65,3.08,8.77,1.93c1.97-0.72,3.69-1.84,5.35-3.02c-1.8,0.93-3.59,1.94-5.53,2.43c-2.34,0.63-4.98,0.45-6.78-1.17
				c-0.7-0.75-1.76-1.76-2.95-1.61c-1.58,0.11-2.91,1.07-4.42,1.03c-2.96,0.01-5.75-1.31-8.55-2.26
				C77.22,52.43,71.47,49.98,67.35,45.45L67.35,45.45z"/>
		</g>
		<g>
			<path class="st2" d="M110.99,53.91c-0.6,0.56-0.8,1.51-0.49,2.27c-0.5-0.59-1.53-0.48-2.06,0.08c-0.53,0.57-0.63,1.43-0.46,2.19
				c0.07,0.32,0.19,0.65,0.41,0.89c0.22,0.25,0.56,0.4,0.89,0.34c-0.75,0.32-1.28,1.09-1.33,1.9c-0.04,0.81,0.41,1.63,1.13,2.02
				c0.71,0.39,1.65,0.34,2.31-0.12c0.15,0.75,0.93,1.31,1.68,1.23c0.76-0.08,1.39-0.79,1.39-1.55c0.86,0.37,1.92-0.15,2.34-0.99
				c0.41-0.84,0.27-1.87-0.18-2.69c1.07-0.51,1.6-1.93,1.13-3.02c-0.24-0.55-0.72-0.96-1.27-1.18c-0.28-0.12-0.57-0.19-0.87-0.21
				c-0.28-0.03-0.68-0.1-0.92,0.05c-0.05-0.57-0.37-1.11-0.83-1.44C113.03,53.11,111.71,53.23,110.99,53.91z"/>
		</g>
		<g>
			<path class="st47" d="M112.49,64.06c0.07,0.82-0.43,1.64-1.17,1.98s-1.68,0.18-2.29-0.37c-0.78-0.71-0.81-2.06-0.1-2.84
				C110.08,61.59,112.35,62.37,112.49,64.06z"/>
		</g>
		<g>
			<path class="st4" d="M112.19,39.81c-0.68,1.91-1.83,3.64-3.51,4.74c0.48-2.08-0.25-4.43-0.37-6.53c0.08,1.43-0.38,2.94-1.44,3.91
				c-1.07,0.96-2.78,1.24-3.98,0.45c2.68-4.58,3.69-10.11,2.8-15.34c-1.09,2.49-2.19,5.01-3.79,7.2s-3.78,4.07-6.39,4.83
				c1.85-3.58,3.55-7.36,3.85-11.38c-0.99,2.45-1.99,4.93-3.56,7.05c-1.03,1.39-2.31,2.62-3.84,3.45c-0.55,0.3-1.72,1-2.36,0.86
				c-0.73-0.15-0.94-0.55-1.75-1.19c-1.68,1.59-3.99,1.46-6.28,1.08c1.52-0.62,3.03-1.26,4.39-2.16c1.58-1.04,3.46-2.57,3.82-4.51
				c-0.49,0.01-1.82-0.05-1.82-0.05s-0.55,0.64-0.96,1.11c-0.76,0.86-1.74,1.52-2.76,2.07c-2.2,1.19-4.73,1.78-7.23,1.61
				c1.99-1.8,3.43-4.19,4.16-6.78c-1.08,2.68-3.37,4.84-6.11,5.75c-2.74,0.91-5.87,0.56-8.34-0.94c2.78-5.25,6.33-9.98,10.68-14.03
				c7.08-6.59,19.39-9.91,27.75-3.61c3.33,2.51,5.96,6.22,7.08,10.25c0.9,3.23,1.1,6.97,0.47,10.27
				C112.58,38.54,112.41,39.18,112.19,39.81z"/>
		</g>
		<g>
			<path class="st47" d="M68.94,70.38c0.19,0.75-0.06,1.6-0.64,2.1c-0.59,0.5-1.48,0.62-2.17,0.26c-0.84-0.45-1.23-1.56-0.92-2.47
				c0.24-0.72,1.11-1.63,1.94-1.6C67.94,68.7,68.76,69.67,68.94,70.38z"/>
		</g>
		<g>
			<path class="st4" d="M93.1,45.29c-2.73-3.84-8.43-5.42-12.74-3.53C84.85,42.32,88.96,43.45,93.1,45.29L93.1,45.29z"/>
		</g>
		<g>
			<path class="st4" d="M102.33,49.48c1.22-0.04,2.57-0.21,3.74-0.31c1.17-0.11,2.52-0.18,3.74-0.35
				C107.84,46.75,103.91,47.1,102.33,49.48L102.33,49.48z"/>
		</g>
		<g>
			<path class="st2" d="M88.9,49.53c-1.21-1.44-3.07-2.45-5.19-2.75c-2.02-0.29-4.22-0.1-5.73,0.92c0,0,0.97,0.91,1.26,1.15
				c0.75,0.6,1.61,1.07,2.49,1.52c1.05,0.54,2.17,0.94,3.31,1.3c0.14,0.04,0.28,0.09,0.43,0.13c0.79,0.22,1.61,0.37,2.42,0.44
				c0.2,0.02,2.36,0.09,2.34,0C90.03,51.24,89.56,50.32,88.9,49.53z"/>
		</g>
		<g>
			<defs>
				<path id="SVGID_00000014600321727640611480000014299535417021664139_" d="M88.9,49.53c-1.21-1.44-3.07-2.45-5.19-2.75
					c-2.02-0.29-4.22-0.1-5.73,0.92c0,0,0.97,0.91,1.26,1.15c0.75,0.6,1.61,1.07,2.49,1.52c1.05,0.54,2.17,0.94,3.31,1.3
					c0.14,0.04,0.28,0.09,0.43,0.13c0.79,0.22,1.61,0.37,2.42,0.44c0.2,0.02,2.36,0.09,2.34,0C90.03,51.24,89.56,50.32,88.9,49.53z"
					/>
			</defs>
			<clipPath id="SVGID_00000000926428570676999800000014200326626426116265_">
				<use xlink:href="#SVGID_00000014600321727640611480000014299535417021664139_"  style="overflow:visible;"/>
			</clipPath>
			<g style="clip-path:url(#SVGID_00000000926428570676999800000014200326626426116265_);">
				<path class="st4" d="M86.31,48.42c0.1,0.44,0.1,0.91-0.03,1.34c-0.24,0.78-0.88,1.4-1.63,1.69c-0.77,0.3-1.44,0.11-2.19-0.11
					c-1.33-0.39-2.76-1.24-2.74-2.8c0.01-1.09,0.76-1.89,1.76-2.22c0.97-0.31,2.05-0.19,2.98,0.22
					C85.29,46.92,86.08,47.47,86.31,48.42z"/>
			</g>
		</g>
		<g>
			<path class="st4" d="M90.24,52.24c0.14-5.75-8.51-8.39-12.26-4.54c1.24-0.39,2.41-0.43,3.59-0.37
				C85.1,47.56,88.44,48.82,90.24,52.24L90.24,52.24z"/>
		</g>
		<g>
			<path class="st2" d="M99.19,55.1c0.22-0.59,0.68-1.46,1.3-1.96c0.73-0.59,1.58-1.05,2.5-1.24c0.71-0.15,1.45-0.17,2.17-0.09
				c1.01,0.11,2.04,0.5,2.87,1.08c-0.39,1.97-2.08,3.28-4.01,3.56c-1.69,0.25-3.43-0.23-4.95-1.01
				C99.07,55.45,99.19,55.12,99.19,55.1z"/>
		</g>
		<g>
			<defs>
				<path id="SVGID_00000177469387163376065830000015927397494137858740_" d="M99.19,55.1c0.22-0.59,0.68-1.46,1.3-1.96
					c0.73-0.59,1.58-1.05,2.5-1.24c0.71-0.15,1.45-0.17,2.17-0.09c1.01,0.11,2.04,0.5,2.87,1.08c-0.39,1.97-2.08,3.28-4.01,3.56
					c-1.69,0.25-3.43-0.23-4.95-1.01C99.07,55.45,99.19,55.12,99.19,55.1z"/>
			</defs>
			<clipPath id="SVGID_00000162328864038975273800000012790654888946521230_">
				<use xlink:href="#SVGID_00000177469387163376065830000015927397494137858740_"  style="overflow:visible;"/>
			</clipPath>
			<g style="clip-path:url(#SVGID_00000162328864038975273800000012790654888946521230_);">
				<path class="st4" d="M105.17,52.41c0.17,1.24-1.05,2.97-1.79,3.6c-0.34,0.3-0.75,0.53-1.18,0.67c-0.42,0.13-0.81,0.09-1.24,0.11
					c-0.76,0.03-1.67-0.07-2.01-0.87c-0.14-0.34-0.11-0.74-0.02-1.1c0.28-1.19,1.06-2.26,2.1-2.89c0.84-0.51,2.48-1.06,3.41-0.54
					C104.9,51.62,105.11,51.99,105.17,52.41z"/>
			</g>
		</g>
		<g>
			<path class="st4" d="M99.08,55.45c1.04-1.41,2.32-2.36,3.98-2.7c1.66-0.35,3.24-0.26,4.98,0.14
				C105.61,49.35,99.01,50.95,99.08,55.45L99.08,55.45z"/>
		</g>
		<g>
			<path class="st2" d="M75.03,39.52c0.63,0.32,1.11,0.97,1.16,1.68c0.04,0.71-0.39,1.45-1.05,1.69c0.62,0.05,1.21,0.45,1.46,1.02
				c0.25,0.57,0.13,1.3-0.32,1.73c-0.45,0.44-1.19,0.54-1.72,0.21c0.51,0.95,0.53,2.15,0,3.08c-0.53,0.93-1.62,1.54-2.69,1.44
				c-1.07-0.1-2.04-0.94-2.25-1.99c-0.14,0.55-0.8,0.8-1.37,0.82c-0.75,0.03-1.51-0.18-2.09-0.64c-0.58-0.47-0.96-1.2-0.92-1.95
				c0.04-0.74,0.53-1.47,1.24-1.71c-0.83-0.36-1.35-1.3-1.29-2.2c0.06-0.9,0.66-1.73,1.46-2.15c0.35-0.18,0.72-0.26,1.11-0.32
				c0.13-0.02,1.03-0.11,1.05,0.01c-0.1-0.72,0.2-1.49,0.76-1.96c0.56-0.47,1.37-0.62,2.07-0.39c0.69,0.23,1.25,0.83,1.43,1.54
				C73.68,39.17,74.44,39.21,75.03,39.52z"/>
		</g>
		<g>
			<path class="st4" d="M51.04,98.76c1.67,0.43,3.37,0.58,5.05,0.42c1.77-0.17,3.35-0.47,4.88-0.75c2.14-0.39,4.16-0.77,6.51-0.79
				c1.68-0.01,3.34,0.31,5.1,0.66c1.43,0.28,2.92,0.57,4.43,0.67c5.56,0.37,11.39-2.93,14.5-8.19l-2.19-1.29
				c-2.63,4.46-7.51,7.26-12.15,6.95c-1.36-0.09-2.69-0.35-4.11-0.63c-1.81-0.35-3.67-0.72-5.61-0.71c-2.58,0.02-4.8,0.43-6.95,0.83
				c-1.48,0.27-3,0.55-4.67,0.72c-5.8,0.57-12.39-3.68-14.38-9.27l-2.39,0.85C40.89,93.35,45.75,97.41,51.04,98.76z"/>
		</g>
		<g>
			<path class="st5" d="M76.36,102.06c1.04,1.05,2.21,2.1,2.64,3.52c0.11,0.35,0.14,0.79-0.12,1.05c-0.23,0.22-0.58,0.23-0.9,0.19
				c-2.17-0.22-4.14-1.46-5.6-3.08c-1.46-1.62-2.46-3.59-3.33-5.59c-0.17,2.8-1.18,5.54-2.87,7.77c-0.27,0.35-0.56,0.7-0.95,0.91
				s-0.9,0.25-1.26-0.01c-0.34-0.24-0.46-0.68-0.54-1.09c-0.29-1.58-0.1-3.2,0.09-4.79c0.76-6.43,1.53-12.86,2.29-19.29
				c0.08-0.65,0.6-1.19,1.3-0.95c0.39,0.13,0.69,0.49,0.81,0.89c0.14,0.43,0.04,0.84,0.04,1.27c0.01,0.51,0.1,1.03,0.13,1.54
				c0.08,1.02,0.16,2.04,0.37,3.05c0.76,3.54,2.18,6.95,4.16,9.99C73.72,99.1,74.97,100.65,76.36,102.06z"/>
		</g>
		<g>
			<path class="st47" d="M68.69,79.46c0.38,0.81,0.19,1.84-0.44,2.47c-0.63,0.63-1.65,0.82-2.47,0.47s-1.39-1.22-1.39-2.11
				C64.38,77.76,67.68,77.31,68.69,79.46z"/>
		</g>
		<path class="st1" d="M29.83,248.5c0.71,0.95,1.44,1.89,2.18,2.81c42.81,52.73,109.26,21.67,162.67,8.09
			c6.03-1.53,18.38-2.74,19.83-10.57c0.66-3.57-1.09-7.31-3.88-9.64s-6.44-3.4-10.06-3.68c-3.62-0.28-7.25,0.16-10.86,0.52
			c-24.48,2.47-50.77,2.36-73.48-8.29c-21.32-9.99-37.42-29.74-41.14-53.2c-0.55-3.45-0.88-7.07-2.72-10.04
			c-3.45-5.58-7.96-1.84-12.22-4.43c-1.94-1.18-3.79-2.91-6.2-2.92c-3.07-0.01-5.54,2.97-8.61,2.97c-3.62,0-5.9-3.96-9.23-5.38
			c-6.97-2.97-14.32,10.08-16.85,15.11c-4.04,8.05-5.87,17.17-6.1,26.13C12.7,214.68,18.69,233.48,29.83,248.5z"/>
		<g>
			<defs>
				<path id="SVGID_00000109748558699751957570000016941865508182820481_" d="M29.83,248.5c0.71,0.95,1.44,1.89,2.18,2.81
					c42.81,52.73,109.26,21.67,162.67,8.09c6.03-1.53,18.38-2.74,19.83-10.57c0.66-3.57-1.09-7.31-3.88-9.64s-6.44-3.4-10.06-3.68
					c-3.62-0.28-7.25,0.16-10.86,0.52c-24.48,2.47-50.77,2.36-73.48-8.29c-21.32-9.99-37.42-29.74-41.14-53.2
					c-0.55-3.45-0.88-7.07-2.72-10.04c-3.45-5.58-7.96-1.84-12.22-4.43c-1.94-1.18-3.79-2.91-6.2-2.92
					c-3.07-0.01-5.54,2.97-8.61,2.97c-3.62,0-5.9-3.96-9.23-5.38c-6.97-2.97-14.32,10.08-16.85,15.11
					c-4.04,8.05-5.87,17.17-6.1,26.13C12.7,214.68,18.69,233.48,29.83,248.5z"/>
			</defs>
			<clipPath id="SVGID_00000180337749293652009470000003834692380315378051_">
				<use xlink:href="#SVGID_00000109748558699751957570000016941865508182820481_"  style="overflow:visible;"/>
			</clipPath>
			<g style="clip-path:url(#SVGID_00000180337749293652009470000003834692380315378051_);">
				<path class="st3" d="M206.46,245.37c-29.09,7.77-59.63,10.13-89.57,6.92c-13.9-1.49-28.09-4.34-39.74-12.06
					c-13.33-8.84-22.14-23.45-26.23-38.91s-3.49-33.4,1.41-48.04c-9.39-2.46-18.61-7.56-28.29-6.88
					c-9.69,0.68-19.44,4.1-26.34,10.93c-6.8,6.74-10.31,16.29-11.21,25.82s0.62,19.13,2.68,28.49
					c9.32,42.29,30.15,81.98,59.64,113.69c8.12,8.73,17.1,17.01,27.98,21.87c13.8,6.16,29.6,6.31,44.53,3.93
					c30.19-4.81,58.17-19.42,82.38-38.1c7.63-5.89,15.05-12.32,20.24-20.43c5.2-8.12,7.98-18.19,5.65-27.54
					C227.24,255.7,215.77,242.88,206.46,245.37z"/>
			</g>
		</g>
		<g>
			<g>
				<path class="st5" d="M278.4,210.73c8.95,0.38,17.98,1.9,26.07,5.75c8.09,3.84,15.21,10.19,18.8,18.4
					c3.39,7.76,3.45,16.48,4.05,24.93c0.96,13.56,3.53,27.17,9.43,39.41c5.9,12.24,15.35,23.08,27.62,28.92
					c-18.85,6.02-41.08-0.61-53.56-15.98c-5.47-6.74-9.23-14.97-15.88-20.55c-6.54-5.48-15.08-7.75-22.93-11.09
					c-13.27-5.65-24.86-14.54-37.14-22.1c-7.77-4.78-15.98-9.08-24.8-11.57c-1.99-0.56-4.12-0.22-6.14-0.64
					c-0.45-0.09-0.74-0.1-0.97-0.51c-0.27-0.49-0.46-1.03-0.64-1.55c-0.35-1.04-0.55-2.12-0.62-3.21c-0.07-1.2,0.09-2.02-0.58-3.08
					c-0.36-0.57-0.7-1.29-0.37-1.88c0.3-0.54,1.01-0.67,1.61-0.79c3.6-0.72,6.42-3.48,9.38-5.47c5.7-3.83,11.76-7.13,18.06-9.86
					c6.27-2.71,12.79-4.86,19.45-6.4C258.78,211.26,268.61,210.31,278.4,210.73z"/>
			</g>
			<g>
				<path class="st47" d="M205.31,258.54c1.36,0.24,2.52,0.48,2.8,0.57c2.66,0.85,5.43,1.35,8.09,2.22
					c15.24,4.98,24.83,20.29,29.41,35.65c4.58,15.36,5.45,31.66,10.21,46.97c4.92,15.81,14.19,30.5,27.44,40.42
					c13.25,9.92,30.62,14.71,46.84,11.36c5.01-1.04,9.97-2.87,13.91-6.14c3.95-3.26,6.78-8.1,6.82-13.22
					c-10.91,9.95-29.19,8.53-40.62-0.82c-15.43-12.61-18.3-34.04-16.65-52.74c0.85-9.61,2.87-19.13,5.79-28.31
					c3.59-11.28,0.64-24.86-4.69-35.24c-8.65-16.85-26.17-28.82-45.02-30.73c-9.96-1.01-19.93,0.63-29.57,3.03
					c-1.6,0.4-15.4,4.22-21.13,3.61c0,0,0.66,1.76,0.8,2.2c0.19,0.61,0.37,1.23,0.53,1.85c0.32,1.24,0.58,2.5,0.77,3.76
					c0.78,5.12,0.5,10.4-0.86,15.39C201.96,258.33,203.51,258.23,205.31,258.54z"/>
			</g>
			<g>
				<defs>
					<path id="SVGID_00000068637157630047603790000005032425830114653854_" d="M205.31,258.54c1.36,0.24,2.52,0.48,2.8,0.57
						c2.66,0.85,5.43,1.35,8.09,2.22c15.24,4.98,24.83,20.29,29.41,35.65c4.58,15.36,5.45,31.66,10.21,46.97
						c4.92,15.81,14.19,30.5,27.44,40.42c13.25,9.92,30.62,14.71,46.84,11.36c5.01-1.04,9.97-2.87,13.91-6.14
						c3.95-3.26,6.78-8.1,6.82-13.22c-10.91,9.95-29.19,8.53-40.62-0.82c-15.43-12.61-18.3-34.04-16.65-52.74
						c0.85-9.61,2.87-19.13,5.79-28.31c3.59-11.28,0.64-24.86-4.69-35.24c-8.65-16.85-26.17-28.82-45.02-30.73
						c-9.96-1.01-19.93,0.63-29.57,3.03c-1.6,0.4-15.4,4.22-21.13,3.61c0,0,0.66,1.76,0.8,2.2c0.19,0.61,0.37,1.23,0.53,1.85
						c0.32,1.24,0.58,2.5,0.77,3.76c0.78,5.12,0.5,10.4-0.86,15.39C201.96,258.33,203.51,258.23,205.31,258.54z"/>
				</defs>
				<clipPath id="SVGID_00000080166026090776137630000002319987966635363487_">
					<use xlink:href="#SVGID_00000068637157630047603790000005032425830114653854_"  style="overflow:visible;"/>
				</clipPath>
				<g style="clip-path:url(#SVGID_00000080166026090776137630000002319987966635363487_);">
					<path class="st48" d="M231.54,249.99c19.95,9.29,34.45,29.37,36.99,51.22c1.72,14.77-1.68,29.86,0.69,44.54
						c3.23,20.05,16.84,36.97,32.25,50.21c-21.69-1.12-42.24-14.98-51.42-34.66c-6.14-13.17-7.3-28.02-10.32-42.24
						s-8.67-28.99-20.71-37.13c-4.13-2.79-8.81-4.66-13.2-7.03c-4.39-2.37-8.64-5.41-11.05-9.78c-4.03-7.29-1.5-15.71,6.24-18.28
						C210.98,243.54,222.23,245.66,231.54,249.99z"/>
				</g>
			</g>
		</g>
		<g>
			<g>
				<path class="st45" d="M47.5,109.2c-10.78,9.62-21.91,19.75-27.28,33.16c-0.7,1.75-1.3,3.55-1.51,5.43
					c-0.26,2.32,0.07,4.67,0.41,6.98c1.74,12,3.49,24,5.23,36c3.61-1.04,7.04,1.87,9.44,4.14c1.76,1.67,3.17,3.54,4.56,5.51
					c1.82,2.58,2.47,6.17,0.67,8.94c-0.88,1.35-2.26,2.36-3.79,2.84c-1.65,0.52-3.12,0.13-4.7-0.46c-2.2-0.83-4.13-2.23-5.91-3.76
					c-12.63-10.87-17.06-28.58-20.44-44.18c-0.29-1.33-0.57-2.67-0.85-4c-0.65-3.12-1.27-6.25-1.89-9.38
					c-0.09-0.48-0.19-0.97-0.28-1.45c-0.58-2.98-1.14-6.08-0.44-9.04c2.15-9.06,6.85-16.48,11.9-24.3
					C18.84,106,27.7,98.94,36.88,92.08c1.62-1.22,4,0.11,5.64,1.3c1.64,1.19,2.83,2.9,3.85,4.66c1.04,1.8,1.94,3.68,2.69,5.62
					c0.35,0.9,0.66,1.85,0.58,2.81C49.55,107.42,48.21,108.56,47.5,109.2z"/>
			</g>
			<g>
				<defs>
					<path id="SVGID_00000042720027382694897360000017000272322501138819_" d="M47.5,109.2c-10.78,9.62-21.91,19.75-27.28,33.16
						c-0.7,1.75-1.3,3.55-1.51,5.43c-0.26,2.32,0.07,4.67,0.41,6.98c1.74,12,3.49,24,5.23,36c3.61-1.04,7.04,1.87,9.44,4.14
						c1.76,1.67,3.17,3.54,4.56,5.51c1.82,2.58,2.47,6.17,0.67,8.94c-0.88,1.35-2.26,2.36-3.79,2.84c-1.65,0.52-3.12,0.13-4.7-0.46
						c-2.2-0.83-4.13-2.23-5.91-3.76c-12.63-10.87-17.06-28.58-20.44-44.18c-0.29-1.33-0.57-2.67-0.85-4
						c-0.65-3.12-1.27-6.25-1.89-9.38c-0.09-0.48-0.19-0.97-0.28-1.45c-0.58-2.98-1.14-6.08-0.44-9.04
						c2.15-9.06,6.85-16.48,11.9-24.3C18.84,106,27.7,98.94,36.88,92.08c1.62-1.22,4,0.11,5.64,1.3c1.64,1.19,2.83,2.9,3.85,4.66
						c1.04,1.8,1.94,3.68,2.69,5.62c0.35,0.9,0.66,1.85,0.58,2.81C49.55,107.42,48.21,108.56,47.5,109.2z"/>
				</defs>
				<clipPath id="SVGID_00000094598677430404372390000006275147327514701221_">
					<use xlink:href="#SVGID_00000042720027382694897360000017000272322501138819_"  style="overflow:visible;"/>
				</clipPath>
				<g style="clip-path:url(#SVGID_00000094598677430404372390000006275147327514701221_);">
					<path class="st4" d="M0.52,148.18l0.77,0.35c0.74-1.62,1.7-2.91,2.55-3.91c0.06,0.25,0.12,0.5,0.18,0.75
						c0.54,2.26,1.05,4.39,2.2,6.54l0.39,0.73l0.36-0.74c0.95-1.93,1.85-3.43,3.04-5.01c0.43,0.85,0.79,1.5,1.14,2.12
						c0.47,0.84,0.91,1.63,1.45,2.82l0.53,1.16l0.27-1.24c0.4-1.83,1.15-3.19,2.64-4.69c0.42,1.62,1.11,2.88,2.29,4.23l0.64-0.56
						c-1.25-1.43-1.91-2.76-2.27-4.58l-0.15-0.74l-0.56,0.51c-1.61,1.49-2.57,2.86-3.13,4.53c-0.35-0.69-0.66-1.26-0.99-1.84
						c-0.42-0.76-0.86-1.55-1.42-2.7l-0.3-0.61l-0.42,0.54c-1.27,1.63-2.22,3.1-3.16,4.94c-0.85-1.82-1.29-3.66-1.75-5.6
						c-0.12-0.51-0.24-1.02-0.38-1.54l-0.19-0.77l-0.53,0.59C2.74,144.56,1.47,146.1,0.52,148.18z"/>
				</g>
				<g style="clip-path:url(#SVGID_00000094598677430404372390000006275147327514701221_);">
					<path class="st4" d="M-1.87,141.67c6.98,4.61,16.01,6.21,24.15,4.27l-0.59-2.47c-7.47,1.77-15.76,0.31-22.17-3.92L-1.87,141.67
						z"/>
				</g>
				<g style="clip-path:url(#SVGID_00000094598677430404372390000006275147327514701221_);">
					<path class="st4" d="M-1.48,149.47c7.14,4.18,16.08,5.06,23.9,2.35l-0.83-2.4c-7.13,2.48-15.27,1.68-21.79-2.14L-1.48,149.47z"
						/>
				</g>
			</g>
		</g>
		<g>
			<path class="st4" d="M106.74,93.07c-1.94-2.56-5.44-3.54-8.5-2.67c-1.54,0.44-2.84,1.33-3.84,2.57
				c-1.39,1.72-0.65,3.93-0.56,6.02c0.24,5.49,0.09,10.63-4.25,14.67c-3.4,3.17-8.19,4.89-12.83,4.24
				c-2.97-0.42-5.64-1.61-8.26-3.01c-2.3-1.23-4.71-2.51-7.4-2.32c-2.09,0.15-4.01,1.18-6.01,1.82c-6.13,1.96-13.04,0.15-18.26-3.63
				c-1.2-0.87-2.48-1.9-3.45-3.02c-0.98-1.12-1.25-2.7-1.99-4c-0.73-1.27-1.75-2.42-3.08-3.06c-1.09-0.53-2.31-0.68-3.49-0.96
				c-2.76-0.66-4.32-3.01-5.69-5.38c-1.41-2.44-2.98-4.75-5.98-5.19c-3.55-0.52-5.48-1.74-8.37,0.38c2.45-0.8,5.09,1.43,5.64,3.95
				c0.92,4.23-1.45,6.21-3.16,9.61c-0.9,1.79-1.43,3.77-1.57,5.77c-0.08,1.08,0.08,4.01,0.64,5.3c-2.66-1-3.83-3.91-4.33-7.49
				c-2.28,4.1-2.52,8.6-1.3,11.37c1.18,2.69,4.57,5.33,7.73,6.83c2.53,1.2,5.4,2.67,6.02,5.4c0.29,1.27,0,2.6,0.11,3.9
				c0.24,2.88,2.42,5.31,4.97,6.65c2.47,1.3,5.1,1.4,7.7,2.18c2.04,0.61,3.83,1.17,6.02,1.31c4.77,0.3,9.61-0.54,13.98-2.46
				c-1.31,2.31-3.45,4.13-5.93,5.07c3.24,2.02,7.49,0.8,10.9-0.93c3.42-1.72,6.86-3.94,10.67-3.76c3.15,0.15,5.95,1.93,8.93,2.92
				c6.2,2.04,13.23,0.57,18.71-2.99c5.48-3.55,9.54-8.98,12.43-14.83c2.89-5.85,5.22-12.46,6.6-18.83
				C110.72,103.32,110.03,97.38,106.74,93.07z"/>
		</g>
		<g>
			<path class="st47" d="M78.55,116.84c0.63,1.05,1.3,2.21,1.14,3.42c-0.24,1.83-2.34,2.92-4.18,2.82
				c-3.19-0.16-5.81-2.84-6.89-5.85c-1.09-3-0.96-6.29-0.82-9.48c0.11-2.62,0.23-5.24,0.34-7.85c0.03-0.66-0.21-3.4,0.73-3.54
				c0.75-0.11,1.45,1.86,1.68,2.38c0.72,1.62,0.92,3.36,1.56,4.99c0.85,2.14,1.78,4.25,2.79,6.32
				C75.98,112.3,77.06,114.84,78.55,116.84z"/>
		</g>
	</g>
</g>
</svg>
