<?xml version="1.0" encoding="utf-8"?>
<!-- Generator: Adobe Illustrator 27.0.0, SVG Export Plug-In . SVG Version: 6.00 Build 0)  -->
<svg version="1.1" id="Layer_1" xmlns="http://www.w3.org/2000/svg" xmlns:xlink="http://www.w3.org/1999/xlink" x="0px" y="0px"
	 viewBox="0 0 1080 1080" style="enable-background:new 0 0 1080 1080;" xml:space="preserve">
<style type="text/css">
	.st0{fill:#0A2B17;}
	.st1{fill:#0E8042;}
	.st2{fill:#FFFFFF;}
	.st3{fill:#1A3826;}
	.st4{fill:#3D1947;}
	.st5{fill:#ECA45C;}
	.st6{fill:#D53D3D;}
	.st7{clip-path:url(#SVGID_00000126296444225420910670000009430594096467721638_);}
	.st8{fill:#802420;}
	.st9{fill:#8C5443;}
	.st10{fill:#3C1948;}
	.st11{fill:none;stroke:#3C1948;stroke-linecap:round;stroke-linejoin:round;stroke-miterlimit:10;}
	.st12{clip-path:url(#SVGID_00000093173170202963848940000016551992024161039796_);}
	.st13{fill:#802421;}
	.st14{opacity:0.29;fill:#92C9E0;}
	.st15{clip-path:url(#SVGID_00000161616496569794921400000010790393589731061162_);fill:#FFFFFF;}
	.st16{clip-path:url(#SVGID_00000161616496569794921400000010790393589731061162_);fill:#D9807E;}
	.st17{opacity:0.29;fill:#92C9E0;stroke:#FFFFFF;stroke-width:5;stroke-miterlimit:10;}
	.st18{opacity:0.29;fill:#92C9E0;stroke:#FFFFFF;stroke-miterlimit:10;}
	.st19{opacity:0.29;fill:#92C9E0;stroke:#FFFFFF;stroke-width:3;stroke-miterlimit:10;}
	.st20{fill:#934F3E;}
	.st21{clip-path:url(#SVGID_00000011029840999171589660000004802487790957678999_);fill:#41164A;}
	.st22{clip-path:url(#SVGID_00000150081937469392447520000004942596243400119220_);fill:#41164A;}
	.st23{clip-path:url(#SVGID_00000175285137730743148520000002964798884712189861_);fill:#FFFFFF;}
	.st24{clip-path:url(#SVGID_00000175285137730743148520000002964798884712189861_);fill:#41164A;}
	.st25{fill:#41164A;}
	.st26{clip-path:url(#SVGID_00000060731908738356536890000003167467050649973431_);fill:#FFFFFF;}
	.st27{clip-path:url(#SVGID_00000060731908738356536890000003167467050649973431_);fill:#E47D7A;}
	.st28{fill:none;}
	.st29{fill:#E09F9E;}
	.st30{fill:#CB8080;}
	.st31{clip-path:url(#SVGID_00000163053494546764796070000012576950096418082209_);fill:#E09F9E;}
	.st32{fill:#3C1947;}
	.st33{fill:#EAC5B1;}
	.st34{clip-path:url(#SVGID_00000155831941555027549820000000426720094856056473_);fill:#CB8080;}
	.st35{fill:#0B8043;}
	.st36{fill:#DBDBDA;}
	.st37{clip-path:url(#SVGID_00000034071452740091361320000013188956783375671986_);fill:#C2C1C1;}
	.st38{clip-path:url(#SVGID_00000076564154192124924080000007126135072661218982_);fill:#C2C1C1;}
	.st39{clip-path:url(#SVGID_00000153688027443032848180000001403605449977750956_);}
	.st40{fill:#C2C1C1;}
	.st41{clip-path:url(#SVGID_00000101821553319913269040000006496208084639114397_);fill:#C2C1C1;}
	.st42{clip-path:url(#SVGID_00000178897724042338023640000011278449544161492147_);fill:#C2C1C1;}
	.st43{clip-path:url(#SVGID_00000093894504508342819530000000730652624850640568_);fill:#0B8043;}
	.st44{clip-path:url(#SVGID_00000080175081861784616010000017775326196708196247_);fill:#0B8043;}
	.st45{fill:#A55933;}
	.st46{fill:#803C26;}
	.st47{fill:#C64B45;}
	.st48{fill:#8B3A37;}
	.st49{clip-path:url(#SVGID_00000119802174108955915360000009747910996367534490_);}
	.st50{clip-path:url(#SVGID_00000117643587982863497050000001725011916124807869_);}
	.st51{clip-path:url(#SVGID_00000151518232931830556360000014300846628245445279_);}
	.st52{clip-path:url(#SVGID_00000021099736493472665530000010905671389512087961_);}
	.st53{clip-path:url(#SVGID_00000181769999232774706310000005231735488683085748_);}
	.st54{clip-path:url(#SVGID_00000130647932760589218100000015426389906862301086_);}
	.st55{clip-path:url(#SVGID_00000054949390658939499840000001672540362094596757_);fill:#41164A;}
	.st56{clip-path:url(#SVGID_00000031204027271339345120000004651230044739676307_);fill:#41164A;}
	.st57{clip-path:url(#SVGID_00000005253269080407300620000007395404975025992583_);fill:#FFFFFF;}
	.st58{clip-path:url(#SVGID_00000005253269080407300620000007395404975025992583_);fill:#41164A;}
	.st59{clip-path:url(#SVGID_00000172411843554406222600000012353688758055992729_);fill:#FFFFFF;}
	.st60{clip-path:url(#SVGID_00000172411843554406222600000012353688758055992729_);fill:#E47D7A;}
	.st61{fill:#C28F5D;}
	.st62{fill:#375A42;}
	.st63{clip-path:url(#SVGID_00000155826795368953178000000008112007462702292885_);fill:#6AA17A;}
	.st64{clip-path:url(#SVGID_00000083768913443078691310000008874713090267290805_);fill:#6AA17A;}
	.st65{fill:#6AA17A;}
	.st66{clip-path:url(#SVGID_00000095335347000958510620000000185113598012865421_);fill:#3D1947;}
	.st67{clip-path:url(#SVGID_00000016760794576328134520000007798566353249410472_);fill:#8B3A37;}
	.st68{clip-path:url(#SVGID_00000145040689671006598760000015846416343846897085_);}
	.st69{clip-path:url(#SVGID_00000162331818622450368210000001167576497727254462_);}
	.st70{clip-path:url(#SVGID_00000110457895975578011320000018250147131811399831_);}
	.st71{clip-path:url(#SVGID_00000105392240855527706330000008327455733458052001_);}
	.st72{clip-path:url(#SVGID_00000142149594126185000180000010374201519434568597_);}
	.st73{clip-path:url(#SVGID_00000173146098998649801470000003727670152374755721_);}
	.st74{clip-path:url(#SVGID_00000033344288778225823450000003437536942645128579_);fill:#FFFFFF;}
	.st75{clip-path:url(#SVGID_00000033344288778225823450000003437536942645128579_);fill:#8B3A37;}
	.st76{fill:#DF9E9E;}
	.st77{fill:#C98080;}
	.st78{fill:#DFD5E2;}
	.st79{clip-path:url(#SVGID_00000080923210624263088410000016025830076019943072_);fill:#DF9E9E;}
	.st80{fill:#E9C4B0;}
	.st81{clip-path:url(#SVGID_00000122721867914536522730000013383663802767971263_);fill:#C98080;}
	.st82{fill:#DADAD9;}
	.st83{clip-path:url(#SVGID_00000032611416091205001790000005435155905246868123_);fill:#C1C0C0;}
	.st84{clip-path:url(#SVGID_00000069378726287985922050000005729016647591020697_);fill:#C1C0C0;}
	.st85{clip-path:url(#SVGID_00000091716369127112901310000016033347302556793487_);}
	.st86{fill:#C1C0C0;}
	.st87{clip-path:url(#SVGID_00000095302400438244397130000002905932384300868529_);fill:#C1C0C0;}
	.st88{clip-path:url(#SVGID_00000099634366123648205060000001800815527611560354_);fill:#C1C0C0;}
	.st89{clip-path:url(#SVGID_00000022547573104385050560000016214636210066551989_);fill:#0E8042;}
	.st90{clip-path:url(#SVGID_00000128486472414406882470000003644562987774097302_);fill:#0E8042;}
	.st91{fill:#7F2420;}
	.st92{clip-path:url(#SVGID_00000116196060372103020760000005122229413502286999_);fill:#FFFFFF;}
	.st93{clip-path:url(#SVGID_00000116196060372103020760000005122229413502286999_);fill:#D8807E;}
	.st94{fill:#D1544C;}
	.st95{fill:#7F2421;}
	.st96{clip-path:url(#SVGID_00000072977645902140429900000004179462244479582606_);fill:#ECA45C;}
	.st97{clip-path:url(#SVGID_00000076584216886422098300000017461572077948834209_);}
	.st98{clip-path:url(#SVGID_00000108287653924805809690000010314572788542953629_);fill:#FFFFFF;}
	.st99{clip-path:url(#SVGID_00000108287653924805809690000010314572788542953629_);fill:#D9807E;}
	.st100{clip-path:url(#SVGID_00000096780988371440742490000016923779056499768735_);fill:#41164A;}
	.st101{clip-path:url(#SVGID_00000177465110642409042550000003852245857732492734_);fill:#41164A;}
	.st102{clip-path:url(#SVGID_00000066514780548040044280000002884053452733347727_);fill:#FFFFFF;}
	.st103{clip-path:url(#SVGID_00000066514780548040044280000002884053452733347727_);fill:#41164A;}
	.st104{clip-path:url(#SVGID_00000170267062292679010390000014434281324503651226_);fill:#FFFFFF;}
	.st105{clip-path:url(#SVGID_00000170267062292679010390000014434281324503651226_);fill:#E47D7A;}
	.st106{fill:#D2687C;}
	.st107{clip-path:url(#SVGID_00000054245080977907998050000002158754003562464422_);fill:#C64B45;}
	.st108{clip-path:url(#SVGID_00000178910420425580059160000007429527973005022399_);}
	.st109{clip-path:url(#SVGID_00000036229367433665819280000011902351357584971439_);}
	.st110{clip-path:url(#SVGID_00000060738350126694909630000003684382696033955754_);}
	.st111{clip-path:url(#SVGID_00000037692218811835865430000002831832800784543412_);fill:#FFFFFF;}
	.st112{clip-path:url(#SVGID_00000037692218811835865430000002831832800784543412_);fill:#D9807E;}
	.st113{clip-path:url(#SVGID_00000173126950667738117930000004276031849115839121_);fill:#41164A;}
	.st114{clip-path:url(#SVGID_00000077307898625480607120000000766700259434716596_);fill:#41164A;}
	.st115{clip-path:url(#SVGID_00000129915385550554139810000018228943368768385967_);fill:#FFFFFF;}
	.st116{clip-path:url(#SVGID_00000129915385550554139810000018228943368768385967_);fill:#41164A;}
	.st117{clip-path:url(#SVGID_00000098196888317024280450000009540382088064831406_);fill:#FFFFFF;}
	.st118{clip-path:url(#SVGID_00000098196888317024280450000009540382088064831406_);fill:#E47D7A;}
	.st119{clip-path:url(#SVGID_00000011720254040588214050000016765215997565514679_);fill:#C64B45;}
	.st120{clip-path:url(#SVGID_00000099651564526743223530000007143447459473422764_);}
	.st121{clip-path:url(#SVGID_00000155107322896612930000000002527336931915136439_);}
	.st122{clip-path:url(#SVGID_00000065041768518880514740000002588674095707958970_);fill:#0E8042;}
	.st123{clip-path:url(#SVGID_00000065041768518880514740000002588674095707958970_);fill:#1A3826;}
	.st124{clip-path:url(#SVGID_00000041991558173212877400000011196867347885949119_);fill:#0E8042;}
	.st125{clip-path:url(#SVGID_00000041991558173212877400000011196867347885949119_);fill:#1A3826;}
	.st126{fill:none;stroke:#0E8042;stroke-linecap:round;stroke-linejoin:round;stroke-miterlimit:10;}
	.st127{clip-path:url(#SVGID_00000176761945283327970610000012871704910800707221_);}
	.st128{clip-path:url(#SVGID_00000069388607479545691560000004168678831191391633_);fill:#0E8042;}
	.st129{clip-path:url(#SVGID_00000178181371272856232640000007280128879327453064_);fill:#0E8042;}
	.st130{clip-path:url(#SVGID_00000178181371272856232640000007280128879327453064_);fill:#1A3826;}
	.st131{clip-path:url(#SVGID_00000024723354761094083670000006622613584284103565_);fill:#0E8042;}
	.st132{clip-path:url(#SVGID_00000024723354761094083670000006622613584284103565_);fill:#1A3826;}
	.st133{clip-path:url(#SVGID_00000139253524233090230120000011030870846483189663_);fill:#0E8042;}
	.st134{clip-path:url(#SVGID_00000139253524233090230120000011030870846483189663_);fill:#1A3826;}
	.st135{clip-path:url(#SVGID_00000114784107740025071510000011376284989802588088_);fill:#0E8042;}
	.st136{clip-path:url(#SVGID_00000114784107740025071510000011376284989802588088_);fill:#1A3826;}
	.st137{clip-path:url(#SVGID_00000017503164163125113480000006596896815064824731_);fill:#0E8042;}
	.st138{clip-path:url(#SVGID_00000017503164163125113480000006596896815064824731_);fill:#1A3826;}
	.st139{clip-path:url(#SVGID_00000109721121730395631940000018281392905196927132_);fill:#0E8042;}
	.st140{clip-path:url(#SVGID_00000109721121730395631940000018281392905196927132_);fill:#1A3826;}
	.st141{clip-path:url(#SVGID_00000115495889230911658810000010885622011767363263_);fill:#0E8042;}
	.st142{clip-path:url(#SVGID_00000115495889230911658810000010885622011767363263_);fill:#1A3826;}
	.st143{clip-path:url(#SVGID_00000059268847669195977070000007603324276804607645_);fill:#0E8042;}
	.st144{clip-path:url(#SVGID_00000059268847669195977070000007603324276804607645_);fill:#1A3826;}
	.st145{clip-path:url(#SVGID_00000062168484260879844480000006300264772083339649_);fill:#0E8042;}
	.st146{clip-path:url(#SVGID_00000062168484260879844480000006300264772083339649_);fill:#1A3826;}
	.st147{clip-path:url(#SVGID_00000153670391658728630150000002960836803181234878_);fill:#0E8042;}
	.st148{clip-path:url(#SVGID_00000153670391658728630150000002960836803181234878_);fill:#1A3826;}
	.st149{clip-path:url(#SVGID_00000134250005941579712230000010149498847262071434_);fill:#0E8042;}
	.st150{clip-path:url(#SVGID_00000134250005941579712230000010149498847262071434_);fill:#1A3826;}
	.st151{clip-path:url(#SVGID_00000095327966566675267460000005552752451841686412_);fill:#0E8042;}
	.st152{clip-path:url(#SVGID_00000095327966566675267460000005552752451841686412_);fill:#1A3826;}
	.st153{clip-path:url(#SVGID_00000018949089611016230330000006659189118014261389_);fill:#0E8042;}
	.st154{clip-path:url(#SVGID_00000018949089611016230330000006659189118014261389_);fill:#1A3826;}
	.st155{clip-path:url(#SVGID_00000108284324037578617960000004917268762466302374_);fill:#0E8042;}
	.st156{clip-path:url(#SVGID_00000108284324037578617960000004917268762466302374_);fill:#1A3826;}
	.st157{clip-path:url(#SVGID_00000157996222060360974210000008036973872767003309_);fill:#0E8042;}
	.st158{clip-path:url(#SVGID_00000157996222060360974210000008036973872767003309_);fill:#1A3826;}
	.st159{clip-path:url(#SVGID_00000124147089589494220880000016446944173978295964_);fill:#0E8042;}
	.st160{clip-path:url(#SVGID_00000124147089589494220880000016446944173978295964_);fill:#1A3826;}
	.st161{clip-path:url(#SVGID_00000075864561020170535710000008820876771150764984_);fill:#0E8042;}
	.st162{clip-path:url(#SVGID_00000075864561020170535710000008820876771150764984_);fill:#1A3826;}
	.st163{clip-path:url(#SVGID_00000062899320500916802920000004300862283176741542_);fill:#0E8042;}
	.st164{clip-path:url(#SVGID_00000062899320500916802920000004300862283176741542_);fill:#1A3826;}
	.st165{clip-path:url(#SVGID_00000139295114094909825900000009274106044268559757_);fill:#0E8042;}
	.st166{clip-path:url(#SVGID_00000139295114094909825900000009274106044268559757_);fill:#1A3826;}
	.st167{clip-path:url(#SVGID_00000129198039064174870830000002049875099982027696_);fill:#0E8042;}
	.st168{clip-path:url(#SVGID_00000129198039064174870830000002049875099982027696_);fill:#1A3826;}
	.st169{clip-path:url(#SVGID_00000034807069731109124870000013841198559814815124_);fill:#0E8042;}
	.st170{clip-path:url(#SVGID_00000034807069731109124870000013841198559814815124_);fill:#1A3826;}
	.st171{clip-path:url(#SVGID_00000078760635837043784510000004639666645049649536_);fill:#0E8042;}
	.st172{clip-path:url(#SVGID_00000078760635837043784510000004639666645049649536_);fill:#1A3826;}
</style>
<g>
	<path class="st5" d="M580.52,239.38c-31.85-0.62-64.77-1.05-94.15,11.25c-29.38,12.29-54.43,40.92-52.11,72.69
		c1.11,15.21,8.08,31.28,1.38,44.97c-6.56,13.4-24.13,18.1-38.74,15.03c-14.6-3.07-27.16-11.98-39.88-19.79
		c-32.76-20.11-70.51-34.13-108.91-32.34c-38.4,1.79-77.22,21.52-95.25,55.47s-10.04,81.6,22.02,102.81
		c20.57,13.61,46.52,15.04,70.84,19.14c24.33,4.1,50.65,13.24,62.11,35.09c10.65,20.32,4.76,45.97-7.92,65.09
		s-31.17,33.47-48.13,48.91c-23.11,21.04-44.35,45.49-54.61,75.01c-10.26,29.53-7.72,64.97,12.72,88.62
		c21.65,25.05,59.22,31.91,91.25,23.56s59.24-29.54,82.45-53.15c21.72-22.11,41.26-47.13,67.69-63.32
		c26.43-16.19,62.8-21.43,87.36-2.52c30.23,23.27,28.6,68.88,45.72,102.98c18.63,37.1,63,59.35,103.87,52.09
		c40.88-7.26,74.87-43.42,79.6-84.66c3.43-29.94-7.09-59.54-10.38-89.49c-3.28-29.96,3.78-65.26,30.37-79.44
		c25.75-13.73,57.37-1.68,86.36-4.95c33.39-3.77,62.92-30.49,70.01-63.34c7.09-32.85-8.8-69.37-37.67-86.57
		c-33.07-19.71-68.32-40.7-106.8-41.96c-17.61-0.58-35.32,3.04-52.77,0.63c-37.2-5.14-67.55-41.02-66.44-78.56
		c0.8-27.07,15.43-55.8,2.81-79.77c-7.1-13.48-21.35-21.61-35.56-27.11C622.97,236.13,607.13,239.9,580.52,239.38z"/>
	<g>
		<path class="st6" d="M719.37,366.97c102.36-68.64,184.4-163.35,270.43-253.66c2.11,1.99,4.21,3.98,6.32,5.96
			c-19.78,26.4-39.75,52.67-59.31,79.23c-79.95,108.55-181.63,194.79-285.67,278.6c-22.48,18.11-45.15,36-68.32,53.2
			c-9.69,7.19-20.46,13.36-31.53,18.17c-16.7,7.26-29.96,0.89-39.54-13.76c-9.52-14.55-2.75-26.9,8.36-35.4
			c19.81-15.16,39.85-31.06,62.17-41.61c27.78-13.14,39.42-33.77,43.6-62.36c5.64-38.57,5.42-76.68-3.97-114.57
			c-1.17-4.74-3.53-9.19-7.63-14.11c-6.75,58.48-27.67,111.46-56.66,163.08c-19.93-38.62-21.78-85.43-62.42-117.09
			c2.62,14.44,6.18,24.77,6.05,35.06c-0.46,36.38-2.03,72.75-3.62,109.11c-0.22,4.94-2.63,9.91-4.6,14.64
			c-8.2,19.76-16.27,20.64-32.74,7.15c-31.15-25.5-61.63-52.37-95.44-73.89c-37-23.55-79.27-36.13-123.27-41.05
			c-6.16-0.69-12.43-0.32-18.65-0.44c-0.64,1.59-1.28,3.18-1.91,4.77c8.99,4.42,17.69,9.59,27.01,13.13
			c55.11,20.94,105.52,49.75,149.64,89.02c7.2,6.41,12.9,14.5,17.77,24.44c-45.73-4.53-87.57-27.4-134.14-20.5
			c50.9,25.78,108.54,37.19,156.08,76.54c-58.04,27.21-96.09,71.65-126.65,123.02c-15.1,25.39-27.65,52.31-38.95,80.03
			c55.59-60.93,108.56-123.59,178.54-167.73c1.96,1.26,3.91,2.52,5.87,3.78c-12.7,39.58-25.41,79.16-38.11,118.73
			c2.51,1.43,5.03,2.87,7.54,4.3c26.44-37.2,52.87-74.4,81.1-114.12c78.38,56.2,118.9,137.98,157.9,220.98
			c4.16-16.14-0.11-38.16-17.51-81.42c-10.45-25.97-22.38-51.34-33.65-76.98c1.35-1.35,2.7-2.71,4.05-4.06
			c23.17,18.89,46.35,37.77,73.39,59.82c-7.94-33.79-30.86-50.6-51.49-68.39c-21.24-18.32-44.08-34.77-66.22-52.04
			c0.47-1.91,0.94-3.82,1.41-5.72c24.76,5,49.51,9.99,75.09,15.16c-24.53-9.36-48.47-18.5-78.22-29.86
			c16.41-6.34,28.56-13.76,41.5-15.6c79.77-11.35,159.63-14.13,239.22,2.27c6.07,1.25,12.2,2.2,18.75,1.57
			c-35.94-24.87-76.4-37.03-119.16-40.72c-41.85-3.61-83.91-4.73-129.28-7.12c40.45-31.92,86.89-42.15,133.36-55.98
			c-9.99-1.37-19.94-3.3-29.98-3.96c-9.94-0.66-19.96-0.05-33.89,0.03c5.68-5.28,8.37-8.26,11.53-10.64
			c31.02-23.38,63.73-47.4,96.24-69.84c29.13-20.1,64.94-19.98,99.39-19.95c42.03,0.05,66.12,56.2,87.5,84.63
			c5.37,7.15,11,14.15,15.75,21.71c13.92,22.15,27,44.84,41.26,66.76c21.17,32.54,12.31,91.63-20.93,115.07
			c-24.89,17.55-43.76,37.69-56.76,65.61c-12.8,27.49-43.55,35.72-76.81,24.45c-13.96-4.73-27.42-10.94-41.17-16.32
			c-12.96-5.08-26-9.95-44.3-16.94c11.1,13.18,18.94,21.95,26.18,31.2c15.08,19.26,19.1,40.18,15.2,65.02
			c-3.16,20.12-1.61,41.82,2.16,62.01c5.66,30.25-5.27,53.05-31.05,69.64c-18.31,11.79-36.12,27.51-47.97,45.55
			c-26.1,39.72-59.97,49.69-104.63,40.57c-22.74-4.64-46.98-4.95-70.25-3.25c-38.79,2.82-81.33-19.25-98.01-54.71
			c-22.34-47.5-25.21-95.91-7.99-145.89c5.97-17.33,8.4-35.89,12.97-56.22c-21.97,43.12-42.14,84-63.54,124.22
			c-11.44,21.5-28.69,36.69-52.45,45.57c-14.06,5.25-26.38,15.56-38.9,24.42c-48.65,34.41-80.3,32.24-126.3-5.63
			c-19.54-16.09-42.33-28.25-63.71-42.09c-13.43-8.69-27.59-16.36-40.35-25.92c-17.85-13.38-28.75-30.45-25.38-54.54
			c1.21-8.67-0.3-18-1.99-26.76c-4.06-21.01-2.44-39.8,10.58-58.49c6.23-8.94,9.13-23.88,6.63-34.47
			c-5.73-24.27,3.29-41.15,19.86-56.34c34.97-32.05,74.08-57.17,119.75-71.25c8.22-2.53,16.41-5.16,24.14-9.37
			c-36.94,2.73-73.85,5.63-105.62,27.8c-17.75,12.38-35.72,16.62-55.36,4.32c-12.85-8.05-21.81-18.6-20.3-34.45
			c2.55-26.68-10.16-46.16-29.58-61.31c-29.89-23.31-37.56-51.84-30.23-88.56c5.07-25.4,4.84-52.21,4.18-78.32
			c-1.24-48.98,33.37-89.81,81.76-97.46c28.87-4.56,57.14-13.1,85.56-20.33c45.53-11.59,88.49-7.08,125.23,23.72
			c30.12,25.25,58.09,53.05,89.63,77.8c-20.62-23.96-41.15-48.01-61.94-71.83c-5.05-5.78-10.52-11.34-16.47-16.16
			c-38.75-31.44-18.59-70.79,15.58-84.73c20.37-8.31,34.14-20.59,44.17-39.96c14.86-28.7,51.76-44.1,87.93-36.88
			c23.21,4.63,46.02,11.6,68.63,18.74c16.56,5.23,30.13,3.62,45.07-6.59c49.23-33.69,105.34-20.39,135.23,31.24
			c11.89,20.53,22.78,41.7,33.07,63.08c13.98,29.04,11.41,59.64,0.71,88.18C752.44,298.46,734.89,332.63,719.37,366.97z"/>
		<path class="st6" d="M913.94,169.53c-8.35-4.07-10.85-10.78-8.45-19.19c2.22-7.8,10.97-11.82,18.54-9.09
			c7.76,2.8,12.59,12.53,9.21,19.76C929.4,169.21,922.31,171.08,913.94,169.53z"/>
		<path class="st6" d="M872.7,214.52c-8.35-4.07-10.85-10.78-8.45-19.19c2.22-7.8,10.97-11.82,18.54-9.09
			c7.76,2.8,12.59,12.53,9.21,19.76C888.16,214.2,881.07,216.07,872.7,214.52z"/>
		<path class="st6" d="M811.56,266.88c-8.35-4.07-10.85-10.78-8.45-19.19c2.22-7.8,10.97-11.82,18.54-9.09
			c7.76,2.8,12.59,12.53,9.21,19.76C827.02,266.56,819.94,268.43,811.56,266.88z"/>
		<path class="st6" d="M940.27,112.9c3.65-6.74,9.69-10.36,18.45-7.17c7.77,2.83,12.26,12.78,8.65,19.9
			c-4.11,8.11-11.47,9.93-19.61,7.5C940.45,130.94,936.93,121.59,940.27,112.9z"/>
		<path class="st6" d="M1011.02,133.97c7.43,2.98,12.2,13.39,8.62,20.14c-4.18,7.88-11.31,10.58-19.55,7.46
			c-8.78-3.33-10.66-10.52-7.79-18.93C994.91,134.96,1003.77,131.06,1011.02,133.97z"/>
		<path class="st6" d="M965.11,221.79c-4.26,8.2-10.67,11.28-19.24,8.54c-7.63-2.44-11.77-11.46-8.56-18.77
			c3.61-8.21,10.13-11.56,18.76-8.31C964.73,206.51,966.83,213.42,965.11,221.79z"/>
		<path class="st6" d="M931.75,267.65c-4.26,8.2-10.67,11.28-19.24,8.54c-7.63-2.44-11.77-11.46-8.56-18.77
			c3.61-8.21,10.13-11.56,18.76-8.31C931.36,252.36,933.47,259.28,931.75,267.65z"/>
		<path class="st6" d="M882.84,321.3c-4.26,8.2-10.67,11.28-19.24,8.54c-7.63-2.44-11.77-11.46-8.56-18.77
			c3.61-8.21,10.13-11.56,18.76-8.31C882.45,306.02,884.56,312.93,882.84,321.3z"/>
		<path class="st6" d="M1031.59,113.42c-3.76,8.43-9.84,11.56-17.86,9c-8.51-2.72-10.72-9.59-7.89-17.39
			c2.94-8.12,9.32-10.71,17.5-7.55C1031.03,100.45,1033.22,106.26,1031.59,113.42z"/>
		<path class="st6" d="M971.67,84.22c3.41-7.43,9.31-10.19,16.93-7.43c8.21,2.97,11.36,9.72,8.2,17.6
			c-2.86,7.14-9.43,10.66-17.05,7.72C971.88,99.08,968.88,92.78,971.67,84.22z"/>
		<path class="st6" d="M991.96,188.53c-0.33,0.62-0.72,1.21-1.18,1.77c-8.91,10.97-27.35-1.16-22.65-13.74
			c4.49-12.01,19.48-10.95,24.18,0.51C993.82,180.74,993.83,185.05,991.96,188.53z"/>
	</g>
</g>
</svg>
